<?xml version="1.0" encoding="UTF-8"?>
<svg id="Layer_1" xmlns="http://www.w3.org/2000/svg" version="1.1" xmlns:xlink="http://www.w3.org/1999/xlink" viewBox="0 0 500 500">
  <!-- Generator: Adobe Illustrator 29.3.1, SVG Export Plug-In . SVG Version: 2.1.0 Build 151)  -->
  <defs>
    <style>
      .st0 {
        fill-opacity: .2;
      }

      .st1 {
        fill: indigo;
      }

      .st2 {
        mask: url(#mask);
      }

      .st3 {
        fill: #53bdee;
      }

      .st4 {
        fill: none;
      }

      .st5 {
        clip-path: url(#clippath-1);
      }

      .st6 {
        clip-path: url(#clippath-3);
      }

      .st7 {
        clip-path: url(#clippath-2);
      }

      .st8 {
        clip-path: url(#clippath);
      }
    </style>
    <mask id="mask" x="-50" y="-50" width="600" height="600" maskUnits="userSpaceOnUse">
      <g id="_x32_922ff9bf9">
        <rect class="st0" x="-50" y="-50" width="600" height="600"/>
      </g>
    </mask>
    <clipPath id="clippath">
      <rect class="st4" x="158.7" y="90.7" width="188" height="189.3"/>
    </clipPath>
    <clipPath id="clippath-1">
      <rect class="st4" x="159" y="92" width="186.6" height="186.6"/>
    </clipPath>
    <clipPath id="clippath-2">
      <path class="st4" d="M252.3,92c-51.5,0-93.3,41.8-93.3,93.3s41.8,93.3,93.3,93.3,93.3-41.8,93.3-93.3-41.8-93.3-93.3-93.3Z"/>
    </clipPath>
    <clipPath id="clippath-3">
      <rect class="st4" x="199.2" y="113.7" width="102" height="149.9"/>
    </clipPath>
  </defs>
  <g class="st2">
    <g class="st8">
      <g class="st5">
        <g class="st7">
          <path class="st1" d="M159,92h186.6v186.6h-186.6V92Z"/>
        </g>
      </g>
    </g>
  </g>
  <path class="st1" d="M336.2,30.8C282.9,0,217.2,0,163.9,30.8c-82.5,47.6-110.7,152.9-63.1,235.3l123.7,214.2c11.3,19.7,39.7,19.7,51,0l123.7-214.2c47.7-82.4,19.5-187.7-62.9-235.3ZM250.1,267.7c-42.9,0-77.6-34.7-77.6-77.6s34.7-77.6,77.6-77.6,77.6,34.7,77.6,77.6c0,42.8-34.8,77.6-77.6,77.6Z"/>
  <g class="st6">
    <path class="st3" d="M290.1,208.8c-.9.4-1.8.8-2.7,1.2-3.9,1.9-7.6,4.2-11.6,5.9-4.3,1.9-8.3,3.3-12,6.1,2.8,0,5,0,7.7.8,1.7.5,3.2.9,5,1.1s3.5.1,5.3.1c1,0,2.2-.4,3.2-.2,1.3.2.6.8-.3,1-.9.3-1.7.3-2.7.3-1.9,0-3.8.2-5.6.3-1.5,0-3.1,0-4.5,0-1.5-.1-2.6-.5-4.1-.4-1.2.1-2.4,0-3.6.1-1,.1-1.8.9-2.7,1.3-1.6.7-2.9,2.5-3.9,4-2.5,4-3.4,8.9-2.1,13.5,1.2,4.2,3.9,8.2,6.2,11.7,1.5,2.4.4,4,.5,4.2-9,3-22.5.7-22.7.7-.3-1.6,0-3,0-3.6.9-3.8,4.2-8.9,4.9-11.1,1.4-4.4,1.7-12.6-.5-16.8-2.5-4.7-10.4-5.5-15.1-5.7-4.4-.2-8.4-.8-12.6-2.4-1.7-.7-3.3-1.5-4.9-2.5-.7-.5-3.4-1.7-3.3-2.8.4,0,.7,0,1.1.1,1.6.5,3,1.7,4.6,2.3,1.8.7,3.7,1.3,5.5,1.9,2.8.8,6.5,1,9.1-.3.2-.8-1.1-1.1-1.6-1.4-6.6-4.8-9.4-14-9.2-17.8.8,0,1.1,2.2,1.4,2.8.4,1.1.9,2.3,1.5,3.3,1.7,2.8,4,5.7,6.9,7.4,3,1.8,6.4,2.9,9.5,4.4,1.5.7,2.9,1.3,4.3,2.1.7.4,1.3.9,1.9,1.4.5.5,1.1.7,1.6,0,.4-.4.2-1,.1-1.5-.1-1.3-.4-2.6-.8-3.8-1.3-4.1-4.4-6.8-8-9-3.4-2.2-6.3-4.8-9.4-7.2-1.6-1.2-3-2.4-4.3-3.9-1-1.2-1.3-2.4-1.9-3.8-.5-1.2-.9-2.3-1.3-3.6-.6-1.8-2.1-5.3-.7-7.1.4,1.4.9,2.7,1.4,4,.7,1.8,1.1,3.9,2.2,5.6.8,1.3,1.7,2.1,2.8,3.2.9.8,2.3,2.6,3.6,2.6.1-2.6-.2-5.2,0-7.8.1-1.1,0-7,1.5-7,.1,2.2.3,4.3.3,6.5,0,3.6,0,6.4,1.2,9.8,1,2.7,3.1,4.2,5.6,5.4,1.8.9,3.1,2.4,4.7,3.4.6.3,1.5.8,1.6-.2.1-.8-.4-1.8-.6-2.5-.3-1.2-.5-2.3-.6-3.5-.2-2.2-.6-4.4,0-6.4,0-1.3-.9-2.6-1.4-3.8-.8-1.9-1.5-3.9-1.6-6,0-2.2.2-4.5.7-6.6.3-1.2.2-3,1.1-4,.5,1.1-1.8,9.7,2.7,16.3.2.3.2.2.3.7.7-1.3,1.9-1.8,3-2.9,2.4-2.4,5.2-4.7,7-7.5.2.9-.3,1.7-.6,2.5-.8,1.6-2,3.4-3.2,4.7-1.4,1.5-3.1,2.7-4.4,4.4-1.4,1.9-1.3,3.8-1.3,6.1,0,4.3,2.3,8.8,3.7,12.9.3,1,.7,1.9,1.1,2.9.8-.5,1.7-.8,2.3-1.5,1.8-1.9,4.1-4.5,5.1-6.9.6-1.6,1.1-3.3,1.5-5,.8-3.3,1.7-6.7,2.1-10,.2-2,1.4-3.9.7-5.9-.8-2.1-2.2-4.1-3-6.1-.4-1-2.4-7.1-1.6-9.3,0-1.4.1-2.6.8-2.5.2,3.1.5,6.8,1.9,9.6.6,1.3,1.4,3.4,2.9,3.9,1.8.7,3.6-2.9,4.7-4.2,1-1.1,2-1.9,3.2-2.7.2,1.3-1.7,3.5-2.5,4.5-.9,1.2-2.1,2.3-2.8,3.6-1.7,2.8-2.1,6.6-2.6,9.8-.3,1.7-.2,3.5-.2,5.2,0,.8.3,2.7-.1,3.4,1.3-2.2,2.2-2.9,2.7-3.4,1.3-1.4,2.9-2.4,4.3-3.7,1.8-1.6,1.4-4.6,2.2-6.9.5-1.4.9-4.7,2.1-5.5,1.1,2.9-1.6,6.7-.3,9.3,0,0,9.2-2.7,10-2.8.9,0,1.8-.3,2.7-.5.4,0,.8,0,1.1-.1.4,0,.8-.3,1.2-.3.2.9-2.2,1.6-2.8,1.7-7.7,2.3-13.7,6.4-15,7.4-2.2,1.6-4.1,3.5-5.4,5.8-2.2,3.8-4.2,7.5-6.2,11.4-.9,1.7-1.8,3.5-2.7,5.2-.2.3-.5.7-.5,1,0,.2,0,.5,0,.7,0,.2-.1.3-.2.5,0,.2,0,.5,0,.7,0,.4.2.8.5,1.1,1,1,2.7.3,3.7-.1,1.5-1,2.9-2,4.3-3.2,2.7-2.2,3.9-4.9,5.4-8,.5-1,1-2,1.6-2.9.5-.6,1.2-1,1.7-1.5.3-.3.7-.6,1-.9.5-.5,1-1.2,1.7-1.6,0,.4-.1.8-.3,1.2-.9,1.7-2.3,3.1-3.2,4.8-.4.8-.9,1.7-1.2,2.5-.2.6-.1,1.3.2,1.8.3.4.7.3,1.2.2,1.1-.3,2-1,3.1-1.4,2-.6,4.1-.7,6-1.4,1.7-.6,3.2-1.7,4.9-2.3,1.2-.5,2.5-1,3.7-1.5,1.2-.4,2.5-.3,3.7-.7,0,1.1-1.6,1.3-2.3,1.6ZM284.7,179.4c-29.3-29.9-34.4-65.7-34.4-65.7,0,0-5.1,35.8-34.4,65.7-29.3,29.9-12.5,58.5-3.8,67.1,8.7,8.6,20.6,17.1,38.3,17.1s29.5-8.6,38.3-17.1,25.5-37.1-3.8-67.1"/>
  </g>
</svg>