<svg xmlns="http://www.w3.org/2000/svg" xmlns:xlink="http://www.w3.org/1999/xlink" width="500" zoomAndPan="magnify" viewBox="0 0 375 374.999991" height="500" preserveAspectRatio="xMidYMid meet" version="1.0"><defs><filter x="0%" y="0%" width="100%" height="100%" id="0c0fdac7f0"><feColorMatrix values="0 0 0 0 1 0 0 0 0 1 0 0 0 0 1 0 0 0 1 0" color-interpolation-filters="sRGB"/></filter><mask id="24f453d1ca"><g filter="url(#0c0fdac7f0)"><rect x="-37.5" width="450" fill="#000000" y="-37.499999" height="449.999989" fill-opacity="0.15"/></g></mask><clipPath id="f95ff94579"><path d="M 0.265625 1.023438 L 140.214844 1.023438 L 140.214844 140.972656 L 0.265625 140.972656 Z M 0.265625 1.023438 " clip-rule="nonzero"/></clipPath><clipPath id="a9ddeeab96"><path d="M 70.238281 1.023438 C 31.59375 1.023438 0.265625 32.351562 0.265625 70.996094 C 0.265625 109.640625 31.59375 140.972656 70.238281 140.972656 C 108.886719 140.972656 140.214844 109.640625 140.214844 70.996094 C 140.214844 32.351562 108.886719 1.023438 70.238281 1.023438 Z M 70.238281 1.023438 " clip-rule="nonzero"/></clipPath><clipPath id="8a329cc710"><rect x="0" width="141" y="0" height="142"/></clipPath><clipPath id="d39d6e1383"><path d="M 174 136 L 188 136 L 188 160 L 174 160 Z M 174 136 " clip-rule="nonzero"/></clipPath><clipPath id="106cf33926"><path d="M 137.503906 114.5 L 137.503906 163.492188 C 137.503906 177.578125 148.917969 188.992188 163.003906 188.992188 L 211.996094 188.992188 C 226.082031 188.992188 237.496094 177.578125 237.496094 163.492188 L 237.496094 114.5 C 237.496094 100.417969 226.082031 89 211.996094 89 L 163.003906 89 C 148.917969 89 137.503906 100.417969 137.503906 114.5 Z M 137.503906 114.5 " clip-rule="nonzero"/></clipPath><clipPath id="cfefcc9ed1"><path d="M 184 89 L 204 89 L 204 107 L 184 107 Z M 184 89 " clip-rule="nonzero"/></clipPath><clipPath id="8b2f5d76c1"><path d="M 137.503906 114.5 L 137.503906 163.492188 C 137.503906 177.578125 148.917969 188.992188 163.003906 188.992188 L 211.996094 188.992188 C 226.082031 188.992188 237.496094 177.578125 237.496094 163.492188 L 237.496094 114.5 C 237.496094 100.417969 226.082031 89 211.996094 89 L 163.003906 89 C 148.917969 89 137.503906 100.417969 137.503906 114.5 Z M 137.503906 114.5 " clip-rule="nonzero"/></clipPath><clipPath id="3d99b53e54"><path d="M 177 104 L 204 104 L 204 121 L 177 121 Z M 177 104 " clip-rule="nonzero"/></clipPath><clipPath id="0221187a7d"><path d="M 137.503906 114.5 L 137.503906 163.492188 C 137.503906 177.578125 148.917969 188.992188 163.003906 188.992188 L 211.996094 188.992188 C 226.082031 188.992188 237.496094 177.578125 237.496094 163.492188 L 237.496094 114.5 C 237.496094 100.417969 226.082031 89 211.996094 89 L 163.003906 89 C 148.917969 89 137.503906 100.417969 137.503906 114.5 Z M 137.503906 114.5 " clip-rule="nonzero"/></clipPath><clipPath id="cb5a01b869"><path d="M 167 116 L 204 116 L 204 141 L 167 141 Z M 167 116 " clip-rule="nonzero"/></clipPath><clipPath id="d17220c121"><path d="M 137.503906 114.5 L 137.503906 163.492188 C 137.503906 177.578125 148.917969 188.992188 163.003906 188.992188 L 211.996094 188.992188 C 226.082031 188.992188 237.496094 177.578125 237.496094 163.492188 L 237.496094 114.5 C 237.496094 100.417969 226.082031 89 211.996094 89 L 163.003906 89 C 148.917969 89 137.503906 100.417969 137.503906 114.5 Z M 137.503906 114.5 " clip-rule="nonzero"/></clipPath><clipPath id="5925e95ef8"><path d="M 144 161 L 231 161 L 231 188.75 L 144 188.75 Z M 144 161 " clip-rule="nonzero"/></clipPath><clipPath id="909fb8931d"><path d="M 137.503906 114.5 L 137.503906 163.492188 C 137.503906 177.578125 148.917969 188.992188 163.003906 188.992188 L 211.996094 188.992188 C 226.082031 188.992188 237.496094 177.578125 237.496094 163.492188 L 237.496094 114.5 C 237.496094 100.417969 226.082031 89 211.996094 89 L 163.003906 89 C 148.917969 89 137.503906 100.417969 137.503906 114.5 Z M 137.503906 114.5 " clip-rule="nonzero"/></clipPath></defs><g mask="url(#24f453d1ca)"><g transform="matrix(1, 0, 0, 1, 119, 68)"><g clip-path="url(#8a329cc710)"><g clip-path="url(#f95ff94579)"><g clip-path="url(#a9ddeeab96)"><path fill="#feeb3a" d="M 0.265625 1.023438 L 140.214844 1.023438 L 140.214844 140.972656 L 0.265625 140.972656 Z M 0.265625 1.023438 " fill-opacity="1" fill-rule="nonzero"/></g></g></g></g></g><path fill="#feeb3a" d="M 252.136719 23.085938 C 212.179688 0 162.894531 0 122.941406 23.085938 C 61.0625 58.769531 39.917969 137.75 75.597656 199.550781 L 168.339844 360.230469 C 176.8125 375 198.109375 375 206.585938 360.230469 L 299.324219 199.550781 C 335.082031 137.75 313.9375 58.769531 252.136719 23.085938 Z M 187.539062 200.792969 C 155.355469 200.792969 129.3125 174.75 129.3125 142.570312 C 129.3125 110.386719 155.355469 84.34375 187.539062 84.34375 C 219.722656 84.34375 245.761719 110.386719 245.761719 142.570312 C 245.6875 174.671875 219.644531 200.792969 187.539062 200.792969 Z M 187.539062 200.792969 " fill-opacity="1" fill-rule="nonzero"/><g clip-path="url(#d39d6e1383)"><g clip-path="url(#106cf33926)"><path fill="#295982" d="M 174.703125 159.246094 L 180.734375 136.53125 L 187.875 138.464844 L 182.316406 159.246094 Z M 174.703125 159.246094 " fill-opacity="1" fill-rule="evenodd"/></g></g><g clip-path="url(#cfefcc9ed1)"><g clip-path="url(#8b2f5d76c1)"><path fill="#295982" d="M 202.101562 106.328125 C 202.042969 106.328125 201.925781 106.328125 201.808594 106.328125 L 185.359375 101.9375 C 184.949219 101.820312 184.65625 101.46875 184.539062 101.058594 C 184.421875 100.648438 184.539062 100.238281 184.890625 99.945312 L 196.480469 89.351562 C 196.773438 89.117188 197.183594 89 197.59375 89.117188 C 198.003906 89.175781 198.296875 89.46875 198.414062 89.878906 L 203.210938 104.804688 C 203.386719 105.214844 203.269531 105.683594 202.980469 105.976562 C 202.746094 106.210938 202.453125 106.328125 202.101562 106.328125 Z M 202.101562 106.328125 " fill-opacity="1" fill-rule="evenodd"/></g></g><g clip-path="url(#3d99b53e54)"><g clip-path="url(#0221187a7d)"><path fill="#295982" d="M 202.160156 120.199219 C 202.042969 120.199219 201.925781 120.199219 201.808594 120.140625 L 178.449219 113.9375 C 178.042969 113.820312 177.75 113.527344 177.632812 113.117188 C 177.515625 112.648438 177.691406 112.238281 177.984375 111.945312 L 186.472656 104.21875 L 199.757812 107.789062 L 203.269531 118.679688 C 203.386719 119.089844 203.269531 119.5 202.980469 119.847656 C 202.746094 120.082031 202.453125 120.199219 202.160156 120.199219 Z M 202.160156 120.199219 " fill-opacity="1" fill-rule="evenodd"/></g></g><g clip-path="url(#cb5a01b869)"><g clip-path="url(#d17220c121)"><path fill="#295982" d="M 202.628906 140.339844 C 202.570312 140.339844 202.453125 140.339844 202.335938 140.28125 L 168.03125 131.148438 C 167.621094 131.03125 167.269531 130.738281 167.210938 130.328125 C 167.09375 129.917969 167.210938 129.449219 167.5625 129.15625 L 181.261719 116.6875 L 198.0625 121.195312 L 203.738281 138.816406 C 203.855469 139.226562 203.796875 139.636719 203.503906 139.988281 C 203.269531 140.222656 202.980469 140.339844 202.628906 140.339844 Z M 202.628906 140.339844 " fill-opacity="1" fill-rule="evenodd"/></g></g><g clip-path="url(#5925e95ef8)"><g clip-path="url(#909fb8931d)"><path fill="#295982" d="M 229.671875 188.984375 L 219.605469 188.984375 L 225.28125 183.363281 C 225.75 182.894531 225.75 182.195312 225.339844 181.726562 C 225.28125 181.667969 223.878906 180.085938 222.53125 178.738281 C 223.46875 178.15625 224.871094 177.335938 225.808594 176.867188 C 226.21875 176.632812 226.453125 176.105469 226.394531 175.636719 L 225.398438 169.316406 L 226.277344 168.90625 C 226.921875 168.613281 227.15625 167.910156 226.863281 167.324219 C 226.628906 166.738281 225.925781 166.503906 225.339844 166.738281 L 223.585938 167.558594 C 223.117188 167.734375 222.882812 168.261719 222.941406 168.789062 L 223.9375 175.167969 C 222.765625 175.871094 220.597656 177.101562 219.835938 177.746094 C 219.605469 177.980469 219.429688 178.269531 219.429688 178.621094 C 219.488281 178.972656 219.605469 179.324219 219.894531 179.5 C 220.832031 180.320312 222.0625 181.609375 222.882812 182.484375 L 217.4375 187.8125 L 206.199219 184.242188 C 208.832031 183.011719 212.929688 181.375 215.855469 181.316406 C 216.441406 181.257812 216.910156 180.789062 216.96875 180.203125 C 217.027344 179.617188 216.617188 179.089844 216.03125 178.972656 C 211.933594 178.097656 200.460938 176.691406 196.128906 176.164062 L 199.289062 169.726562 C 199.464844 169.375 199.464844 169.023438 199.289062 168.671875 C 199.113281 168.320312 198.765625 168.085938 198.414062 168.027344 L 178.859375 165.160156 L 171.542969 161.179688 L 229.671875 161.179688 C 230.316406 161.179688 230.84375 161.703125 230.84375 162.347656 L 230.84375 187.8125 C 230.84375 188.457031 230.316406 188.984375 229.671875 188.984375 Z M 213.339844 188.984375 L 189.046875 188.984375 L 180.207031 182.777344 C 181.789062 182.078125 183.660156 181.023438 184.246094 179.851562 C 184.539062 179.207031 184.421875 178.679688 184.304688 178.328125 C 183.835938 176.925781 180.851562 175.753906 175.582031 174.875 L 176.929688 168.847656 C 177.105469 168.261719 176.753906 167.675781 176.167969 167.5 L 169.085938 165.21875 L 170.839844 163.460938 L 177.925781 167.324219 C 178.042969 167.382812 178.214844 167.441406 178.332031 167.441406 L 196.480469 170.132812 L 193.320312 176.632812 C 193.144531 176.925781 193.144531 177.335938 193.320312 177.6875 C 193.554688 178.039062 193.847656 178.269531 194.257812 178.269531 C 194.375 178.328125 203.097656 179.324219 209.710938 180.320312 C 205.964844 181.609375 202.6875 183.304688 202.453125 183.421875 C 202.042969 183.65625 201.808594 184.066406 201.808594 184.535156 C 201.867188 185.0625 202.160156 185.414062 202.628906 185.589844 Z M 184.949219 188.984375 L 145.550781 188.984375 L 154.976562 183.539062 C 155.386719 183.304688 155.621094 182.894531 155.5625 182.425781 C 155.5625 182.019531 155.328125 181.609375 154.917969 181.433594 C 153.277344 180.730469 151.464844 179.851562 150.234375 179.148438 C 152.285156 178.5625 155.796875 177.746094 159.015625 176.984375 C 159.308594 176.867188 159.601562 176.691406 159.71875 176.398438 C 159.894531 176.164062 159.953125 175.8125 159.894531 175.519531 L 158.253906 169.433594 L 166.976562 167.089844 C 167.035156 167.089844 167.09375 167.089844 167.152344 167.03125 C 167.152344 167.03125 167.210938 167.089844 167.210938 167.089844 L 174.410156 169.375 L 173.066406 175.578125 C 173.007812 175.871094 173.066406 176.222656 173.242188 176.515625 C 173.417969 176.75 173.710938 176.925781 174 176.984375 C 177.457031 177.511719 180.910156 178.445312 181.964844 179.03125 C 181.320312 179.675781 179.328125 180.730469 177.398438 181.433594 C 176.988281 181.550781 176.695312 181.960938 176.636719 182.367188 C 176.578125 182.777344 176.753906 183.246094 177.105469 183.480469 Z M 144.148438 187.109375 L 144.148438 162.347656 C 144.148438 161.703125 144.675781 161.179688 145.316406 161.179688 L 166.742188 161.179688 C 166.800781 161.296875 166.917969 161.355469 166.976562 161.414062 L 168.675781 162.289062 L 166.390625 164.574219 C 166.390625 164.574219 166.332031 164.632812 166.273438 164.691406 L 166.039062 164.925781 L 156.5 167.5 C 156.207031 167.558594 155.914062 167.734375 155.796875 168.027344 C 155.621094 168.261719 155.5625 168.613281 155.679688 168.90625 L 157.320312 174.933594 C 151.171875 176.398438 147.777344 177.394531 147.191406 177.804688 C 146.839844 178.097656 146.605469 178.503906 146.664062 178.972656 C 146.722656 179.558594 146.839844 180.261719 151.875 182.660156 Z M 144.148438 187.109375 " fill-opacity="1" fill-rule="evenodd"/></g></g></svg>