<svg xmlns="http://www.w3.org/2000/svg" xmlns:xlink="http://www.w3.org/1999/xlink" width="500" zoomAndPan="magnify" viewBox="0 0 375 374.999991" height="500" preserveAspectRatio="xMidYMid meet" version="1.0"><defs><filter x="0%" y="0%" width="100%" height="100%" id="581777f80d"><feColorMatrix values="0 0 0 0 1 0 0 0 0 1 0 0 0 0 1 0 0 0 1 0" color-interpolation-filters="sRGB"/></filter><mask id="b8f082916d"><g filter="url(#581777f80d)"><rect x="-37.5" width="450" fill="#000000" y="-37.499999" height="449.999989" fill-opacity="0.15"/></g></mask><clipPath id="bae36370b3"><path d="M 0.265625 1.023438 L 140.214844 1.023438 L 140.214844 140.972656 L 0.265625 140.972656 Z M 0.265625 1.023438 " clip-rule="nonzero"/></clipPath><clipPath id="9cbff98047"><path d="M 70.238281 1.023438 C 31.59375 1.023438 0.265625 32.351562 0.265625 70.996094 C 0.265625 109.640625 31.59375 140.972656 70.238281 140.972656 C 108.886719 140.972656 140.214844 109.640625 140.214844 70.996094 C 140.214844 32.351562 108.886719 1.023438 70.238281 1.023438 Z M 70.238281 1.023438 " clip-rule="nonzero"/></clipPath><clipPath id="aa5c44884d"><rect x="0" width="141" y="0" height="142"/></clipPath><clipPath id="6ac1390ce2"><path d="M 150 86.902344 L 228 86.902344 L 228 197.152344 L 150 197.152344 Z M 150 86.902344 " clip-rule="nonzero"/></clipPath><clipPath id="924590af25"><path d="M 161 130 L 216 130 L 216 197.152344 L 161 197.152344 Z M 161 130 " clip-rule="nonzero"/></clipPath><clipPath id="3016b3b9a9"><path d="M 175 160 L 202 160 L 202 197.152344 L 175 197.152344 Z M 175 160 " clip-rule="nonzero"/></clipPath></defs><g mask="url(#b8f082916d)"><g transform="matrix(1, 0, 0, 1, 119, 68)"><g clip-path="url(#aa5c44884d)"><g clip-path="url(#bae36370b3)"><g clip-path="url(#9cbff98047)"><path fill="#00ff00" d="M 0.265625 1.023438 L 140.214844 1.023438 L 140.214844 140.972656 L 0.265625 140.972656 Z M 0.265625 1.023438 " fill-opacity="1" fill-rule="nonzero"/></g></g></g></g></g><path fill="#00ff00" d="M 252.136719 23.085938 C 212.179688 0 162.894531 0 122.941406 23.085938 C 61.0625 58.769531 39.917969 137.75 75.597656 199.550781 L 168.339844 360.230469 C 176.8125 375 198.109375 375 206.585938 360.230469 L 299.324219 199.550781 C 335.082031 137.75 313.9375 58.769531 252.136719 23.085938 Z M 187.539062 200.792969 C 155.355469 200.792969 129.3125 174.75 129.3125 142.570312 C 129.3125 110.386719 155.355469 84.34375 187.539062 84.34375 C 219.722656 84.34375 245.761719 110.386719 245.761719 142.570312 C 245.6875 174.671875 219.644531 200.792969 187.539062 200.792969 Z M 187.539062 200.792969 " fill-opacity="1" fill-rule="nonzero"/><g clip-path="url(#6ac1390ce2)"><path fill="#fe3d2d" d="M 189.894531 86.898438 L 189.8125 86.949219 C 189.632812 87.035156 189.527344 87.410156 189.5 88.074219 C 190.152344 91.308594 190.414062 94.054688 190.292969 96.3125 C 190.226562 98.023438 189.726562 100.210938 188.789062 102.875 C 188.378906 103.992188 187.308594 105.800781 185.589844 108.300781 L 175.597656 121.738281 C 174.390625 124.023438 173.566406 127.015625 173.125 130.714844 C 169.816406 125.191406 168.832031 119.03125 170.167969 112.234375 C 169.863281 111.867188 168.617188 114.109375 166.429688 118.953125 C 165.203125 121.90625 164.21875 125.449219 163.472656 129.582031 C 163.285156 132.164062 163.382812 137.449219 163.765625 145.445312 C 163.648438 147.324219 163.402344 148.5625 163.035156 149.15625 C 162.222656 150.324219 161.421875 150.839844 160.632812 150.703125 C 159.101562 150.21875 157.914062 149.308594 157.070312 147.976562 C 155.664062 146.445312 155.199219 143.21875 155.675781 138.304688 L 152.121094 147.722656 C 151.316406 150.226562 150.75 152.710938 150.414062 155.171875 C 149.757812 159.640625 149.996094 164.328125 151.132812 169.238281 C 151.917969 172.660156 153.398438 176.324219 155.570312 180.222656 C 156.972656 182.5 158.660156 184.746094 160.628906 186.964844 C 165.527344 191.539062 170.273438 194.425781 174.863281 195.632812 C 176.855469 196.253906 178.953125 196.714844 181.148438 197.019531 C 189.046875 197.113281 193.847656 196.847656 195.546875 196.21875 C 202.371094 195.042969 208.378906 192.691406 213.574219 189.160156 C 215.90625 187.597656 217.765625 185.988281 219.140625 184.332031 C 221.539062 181.726562 223.511719 178.523438 225.054688 174.726562 C 227.613281 167.660156 228.273438 160.3125 227.027344 152.679688 C 226.625 150.246094 225.171875 146.46875 222.671875 141.347656 C 221.042969 138.554688 216.894531 132.722656 210.222656 123.847656 C 208.828125 121.539062 208.011719 119.261719 207.765625 117.007812 C 205.796875 122.683594 204.847656 126.160156 204.917969 127.4375 L 200.246094 124.253906 C 199.351562 123.417969 198.53125 122.335938 197.789062 121.007812 C 197.019531 119.628906 196.558594 117.59375 196.40625 114.902344 C 197.46875 103.773438 197.722656 97.761719 197.175781 96.871094 C 196.828125 94.820312 195.738281 92.449219 193.902344 89.757812 C 192.769531 88.386719 191.433594 87.433594 189.894531 86.898438 " fill-opacity="1" fill-rule="nonzero"/></g><g clip-path="url(#924590af25)"><path fill="#fec107" d="M 184.101562 130.222656 L 184.003906 130.230469 C 183.742188 130.265625 183.515625 130.449219 183.320312 130.78125 C 182.855469 132.660156 182.113281 134.894531 181.097656 137.476562 C 179.101562 141.523438 176.960938 146.148438 174.671875 151.355469 C 173.6875 153.511719 172.898438 155.792969 172.3125 158.195312 C 171.359375 162.144531 171.480469 166.828125 172.679688 172.246094 C 172.644531 172.339844 172.570312 172.386719 172.46875 172.386719 C 172.296875 172.386719 172.042969 172.265625 171.703125 172.019531 C 166.839844 168.058594 163.691406 165.40625 162.257812 164.070312 C 162.210938 164.007812 162.160156 163.980469 162.105469 163.980469 C 162.019531 163.980469 161.925781 164.050781 161.820312 164.191406 C 161.578125 165.0625 161.527344 166.382812 161.660156 168.144531 L 162.503906 174.65625 L 163.949219 180.625 L 165.996094 186.046875 L 168.640625 190.925781 L 171.183594 194.320312 L 171.1875 194.324219 C 172.421875 194.875 173.648438 195.3125 174.863281 195.632812 C 176.855469 196.253906 178.953125 196.714844 181.148438 197.019531 C 182.179688 197.03125 183.15625 197.039062 184.082031 197.039062 C 190.246094 197.039062 194.070312 196.765625 195.546875 196.21875 C 202.371094 195.042969 208.378906 192.691406 213.574219 189.160156 C 214.042969 188.847656 214.492188 188.527344 214.925781 188.210938 L 214.929688 188.210938 C 215.484375 179.746094 214.777344 170.800781 212.8125 161.371094 C 211.484375 156.625 210.253906 154.253906 209.121094 154.253906 C 208.996094 154.253906 208.875 154.28125 208.753906 154.339844 C 208.367188 154.53125 208.019531 154.886719 207.707031 155.40625 C 205.207031 160.136719 203.492188 163.132812 202.554688 164.390625 C 201.386719 166.089844 200.476562 166.941406 199.816406 166.941406 C 199.679688 166.941406 199.554688 166.902344 199.441406 166.832031 C 198.078125 156.519531 196.714844 149.585938 195.339844 146.03125 C 193.472656 141.9375 191.863281 138.96875 190.515625 137.117188 C 187.910156 133.445312 185.769531 131.148438 184.101562 130.222656 Z M 184.101562 130.222656 " fill-opacity="0.996" fill-rule="nonzero"/></g><g clip-path="url(#3016b3b9a9)"><path fill="#feeb3a" d="M 187.695312 160.152344 L 187.609375 160.167969 C 187.390625 160.21875 187.152344 160.53125 186.898438 161.105469 L 185.003906 166.6875 C 184.429688 168.558594 183.964844 170.640625 183.609375 172.9375 C 183.375 174.726562 183.28125 176.375 183.332031 177.886719 L 183.984375 185.660156 C 183.878906 185.742188 183.761719 185.785156 183.644531 185.785156 C 183.5 185.785156 183.347656 185.722656 183.183594 185.597656 L 177.039062 180.566406 C 176.289062 180.015625 175.789062 179.738281 175.535156 179.738281 C 175.53125 179.738281 175.53125 179.738281 175.527344 179.738281 C 174.84375 179.90625 174.953125 182.335938 175.851562 187.023438 L 176.738281 189.773438 L 177.972656 192.367188 L 179.554688 194.808594 L 181.417969 197.023438 L 181.421875 197.023438 C 182.351562 197.035156 183.238281 197.039062 184.082031 197.039062 C 190.246094 197.039062 194.070312 196.765625 195.546875 196.21875 C 197.429688 195.894531 199.253906 195.480469 201.011719 194.976562 L 201.015625 194.976562 C 201.421875 192.363281 201.675781 190.042969 201.78125 188.019531 C 201.832031 187 201.847656 186.054688 201.820312 185.1875 C 201.691406 183.144531 201.570312 182.007812 201.453125 181.777344 C 201.160156 180.488281 200.839844 179.84375 200.496094 179.84375 C 200.394531 179.84375 200.292969 179.894531 200.191406 180 L 196.941406 185.4375 C 196.6875 185.796875 196.457031 185.972656 196.257812 185.972656 C 196.167969 185.972656 196.085938 185.9375 196.007812 185.867188 C 195.898438 182.640625 195.703125 179.808594 195.421875 177.371094 C 194.867188 173.375 194.382812 170.941406 193.960938 170.074219 C 193.074219 167.78125 192.171875 165.855469 191.25 164.292969 C 190.789062 163.511719 190.320312 162.824219 189.851562 162.226562 C 189.378906 161.628906 188.902344 161.121094 188.421875 160.707031 Z M 187.695312 160.152344 " fill-opacity="0.996" fill-rule="nonzero"/></g></svg>