<svg xmlns="http://www.w3.org/2000/svg" xmlns:xlink="http://www.w3.org/1999/xlink" width="500" zoomAndPan="magnify" viewBox="0 0 375 374.999991" height="500" preserveAspectRatio="xMidYMid meet" version="1.0"><defs><filter x="0%" y="0%" width="100%" height="100%" id="a8b61d88fb"><feColorMatrix values="0 0 0 0 1 0 0 0 0 1 0 0 0 0 1 0 0 0 1 0" color-interpolation-filters="sRGB"/></filter><mask id="162dbc6b5a"><g filter="url(#a8b61d88fb)"><rect x="-37.5" width="450" fill="#000000" y="-37.499999" height="449.999989" fill-opacity="0.15"/></g></mask><clipPath id="47437ed0ed"><path d="M 0.265625 1.023438 L 140.214844 1.023438 L 140.214844 140.972656 L 0.265625 140.972656 Z M 0.265625 1.023438 " clip-rule="nonzero"/></clipPath><clipPath id="f8c883ab7e"><path d="M 70.238281 1.023438 C 31.59375 1.023438 0.265625 32.351562 0.265625 70.996094 C 0.265625 109.640625 31.59375 140.972656 70.238281 140.972656 C 108.886719 140.972656 140.214844 109.640625 140.214844 70.996094 C 140.214844 32.351562 108.886719 1.023438 70.238281 1.023438 Z M 70.238281 1.023438 " clip-rule="nonzero"/></clipPath><clipPath id="23400771a7"><rect x="0" width="141" y="0" height="142"/></clipPath><clipPath id="fbb8cbd700"><path d="M 134.347656 109 L 240.847656 109 L 240.847656 140 L 134.347656 140 Z M 134.347656 109 " clip-rule="nonzero"/></clipPath><clipPath id="01c6be8ef1"><path d="M 134.347656 126.542969 L 134.347656 154.929688 C 134.347656 165.285156 142.742188 173.679688 153.097656 173.679688 L 221.902344 173.679688 C 232.257812 173.679688 240.652344 165.285156 240.652344 154.929688 L 240.652344 126.542969 C 240.652344 116.1875 232.257812 107.792969 221.902344 107.792969 L 153.097656 107.792969 C 142.742188 107.792969 134.347656 116.1875 134.347656 126.542969 Z M 134.347656 126.542969 " clip-rule="nonzero"/></clipPath><clipPath id="f334a354ac"><path d="M 134.347656 135 L 240.847656 135 L 240.847656 150 L 134.347656 150 Z M 134.347656 135 " clip-rule="nonzero"/></clipPath><clipPath id="b1d114a808"><path d="M 134.347656 126.542969 L 134.347656 154.929688 C 134.347656 165.285156 142.742188 173.679688 153.097656 173.679688 L 221.902344 173.679688 C 232.257812 173.679688 240.652344 165.285156 240.652344 154.929688 L 240.652344 126.542969 C 240.652344 116.1875 232.257812 107.792969 221.902344 107.792969 L 153.097656 107.792969 C 142.742188 107.792969 134.347656 116.1875 134.347656 126.542969 Z M 134.347656 126.542969 " clip-rule="nonzero"/></clipPath><clipPath id="8a0b46568c"><path d="M 134.347656 147 L 240.847656 147 L 240.847656 162 L 134.347656 162 Z M 134.347656 147 " clip-rule="nonzero"/></clipPath><clipPath id="e5a8fad1d0"><path d="M 134.347656 126.542969 L 134.347656 154.929688 C 134.347656 165.285156 142.742188 173.679688 153.097656 173.679688 L 221.902344 173.679688 C 232.257812 173.679688 240.652344 165.285156 240.652344 154.929688 L 240.652344 126.542969 C 240.652344 116.1875 232.257812 107.792969 221.902344 107.792969 L 153.097656 107.792969 C 142.742188 107.792969 134.347656 116.1875 134.347656 126.542969 Z M 134.347656 126.542969 " clip-rule="nonzero"/></clipPath><clipPath id="173a23f455"><path d="M 134.347656 159 L 240.847656 159 L 240.847656 173.792969 L 134.347656 173.792969 Z M 134.347656 159 " clip-rule="nonzero"/></clipPath><clipPath id="83341cfaa9"><path d="M 134.347656 126.542969 L 134.347656 154.929688 C 134.347656 165.285156 142.742188 173.679688 153.097656 173.679688 L 221.902344 173.679688 C 232.257812 173.679688 240.652344 165.285156 240.652344 154.929688 L 240.652344 126.542969 C 240.652344 116.1875 232.257812 107.792969 221.902344 107.792969 L 153.097656 107.792969 C 142.742188 107.792969 134.347656 116.1875 134.347656 126.542969 Z M 134.347656 126.542969 " clip-rule="nonzero"/></clipPath></defs><g mask="url(#162dbc6b5a)"><g transform="matrix(1, 0, 0, 1, 119, 68)"><g clip-path="url(#23400771a7)"><g clip-path="url(#47437ed0ed)"><g clip-path="url(#f8c883ab7e)"><path fill="#ffa500" d="M 0.265625 1.023438 L 140.214844 1.023438 L 140.214844 140.972656 L 0.265625 140.972656 Z M 0.265625 1.023438 " fill-opacity="1" fill-rule="nonzero"/></g></g></g></g></g><path fill="#ffa500" d="M 252.136719 23.085938 C 212.179688 0 162.894531 0 122.941406 23.085938 C 61.0625 58.769531 39.917969 137.75 75.597656 199.550781 L 168.339844 360.230469 C 176.8125 375 198.109375 375 206.585938 360.230469 L 299.324219 199.550781 C 335.082031 137.75 313.9375 58.769531 252.136719 23.085938 Z M 187.539062 200.792969 C 155.355469 200.792969 129.3125 174.75 129.3125 142.570312 C 129.3125 110.386719 155.355469 84.34375 187.539062 84.34375 C 219.722656 84.34375 245.761719 110.386719 245.761719 142.570312 C 245.6875 174.671875 219.644531 200.792969 187.539062 200.792969 Z M 187.539062 200.792969 " fill-opacity="1" fill-rule="nonzero"/><g clip-path="url(#fbb8cbd700)"><g clip-path="url(#01c6be8ef1)"><path fill="#377fb8" d="M 134.359375 138.585938 C 155.65625 132.425781 137.910156 113.949219 141.460938 110.871094 C 145.007812 107.792969 169.851562 110.871094 169.851562 132.425781 C 190.824219 126.269531 173.078125 113.949219 176.949219 110.871094 C 180.820312 107.792969 205.34375 110.871094 205.34375 132.425781 C 226.636719 126.269531 208.890625 113.949219 212.441406 110.871094 C 215.992188 107.792969 240.832031 113.949219 240.832031 135.507812 C 240.832031 141.667969 240.832031 138.585938 240.832031 138.585938 C 240.832031 138.585938 233.734375 117.03125 219.539062 117.03125 C 223.089844 132.425781 212.441406 135.507812 201.792969 138.585938 C 201.792969 129.347656 198.246094 117.03125 184.046875 117.03125 C 187.597656 132.425781 176.949219 135.507812 166.300781 138.585938 C 166.300781 129.347656 162.753906 117.03125 148.558594 117.03125 C 152.105469 132.425781 145.007812 138.585938 134.359375 138.585938 " fill-opacity="1" fill-rule="nonzero"/></g></g><g clip-path="url(#f334a354ac)"><g clip-path="url(#b1d114a808)"><path fill="#377fb8" d="M 134.359375 149.324219 L 134.359375 143.628906 C 138.367188 143.628906 141.121094 142.542969 145.105469 139.933594 C 145.433594 139.71875 146.546875 138.980469 146.621094 138.929688 C 147.234375 138.523438 147.707031 138.222656 148.175781 137.9375 C 150.855469 136.300781 153.074219 135.488281 155.65625 135.488281 C 159.578125 135.488281 162.074219 137.296875 164.296875 140.699219 C 164.558594 141.097656 165.371094 142.417969 165.53125 142.65625 C 166.066406 143.476562 166.242188 143.628906 166.300781 143.628906 C 170.308594 143.628906 173.066406 142.542969 177.046875 139.933594 C 177.375 139.71875 178.488281 138.980469 178.5625 138.929688 C 179.175781 138.523438 179.652344 138.222656 180.117188 137.9375 C 182.796875 136.300781 185.015625 135.488281 187.597656 135.488281 C 191.3125 135.488281 194.183594 137.070312 197.578125 140.183594 C 201.515625 143.792969 201.308594 143.628906 201.792969 143.628906 C 205.796875 143.628906 208.554688 142.542969 212.539062 139.933594 C 212.867188 139.71875 213.980469 138.980469 214.054688 138.929688 C 214.667969 138.523438 215.140625 138.222656 215.609375 137.9375 C 218.285156 136.300781 220.507812 135.488281 223.089844 135.488281 C 227.117188 135.429688 230.117188 137.601562 233.339844 140.039062 C 236.9375 142.789062 238.523438 143.628906 240.832031 143.628906 L 240.832031 149.324219 C 236.804688 149.382812 233.800781 147.210938 230.582031 144.777344 C 226.980469 142.027344 225.398438 141.1875 223.089844 141.1875 C 221.449219 141.1875 219.96875 141.726562 217.949219 142.960938 C 217.535156 143.214844 217.105469 143.492188 216.535156 143.867188 C 216.472656 143.90625 215.347656 144.65625 215.003906 144.878906 C 210.335938 147.9375 206.808594 149.324219 201.792969 149.324219 C 200.355469 149.324219 199.078125 148.691406 197.644531 147.53125 C 197.164062 147.144531 196.691406 146.71875 196.035156 146.101562 C 195.519531 145.609375 195 145.117188 194.476562 144.632812 C 191.878906 142.25 189.945312 141.1875 187.597656 141.1875 C 185.957031 141.1875 184.476562 141.726562 182.457031 142.960938 C 182.042969 143.214844 181.617188 143.492188 181.042969 143.867188 C 180.984375 143.90625 179.855469 144.65625 179.511719 144.878906 C 174.847656 147.9375 171.320312 149.324219 166.300781 149.324219 C 164.273438 149.324219 162.941406 148.191406 161.554688 146.074219 C 161.34375 145.75 160.527344 144.433594 160.324219 144.117188 C 158.953125 142.023438 157.796875 141.1875 155.65625 141.1875 C 154.015625 141.1875 152.535156 141.726562 150.515625 142.960938 C 150.101562 143.214844 149.675781 143.492188 149.101562 143.867188 C 149.042969 143.90625 147.914062 144.65625 147.570312 144.878906 C 142.902344 147.9375 139.378906 149.324219 134.359375 149.324219 " fill-opacity="1" fill-rule="nonzero"/></g></g><g clip-path="url(#8a0b46568c)"><g clip-path="url(#e5a8fad1d0)"><path fill="#377fb8" d="M 134.359375 161.53125 L 134.359375 155.832031 C 138.367188 155.832031 141.121094 154.75 145.105469 152.140625 C 145.433594 151.925781 146.546875 151.183594 146.621094 151.136719 C 147.234375 150.730469 147.707031 150.425781 148.175781 150.140625 C 150.855469 148.503906 153.074219 147.695312 155.65625 147.695312 C 159.578125 147.695312 162.074219 149.503906 164.296875 152.90625 C 164.558594 153.304688 165.371094 154.621094 165.53125 154.863281 C 166.066406 155.683594 166.242188 155.832031 166.300781 155.832031 C 170.308594 155.832031 173.066406 154.75 177.046875 152.140625 C 177.375 151.925781 178.488281 151.183594 178.5625 151.136719 C 179.175781 150.730469 179.652344 150.425781 180.117188 150.140625 C 182.796875 148.503906 185.015625 147.695312 187.597656 147.695312 C 191.3125 147.695312 194.183594 149.277344 197.578125 152.386719 C 201.515625 156 201.308594 155.832031 201.792969 155.832031 C 205.796875 155.832031 208.554688 154.75 212.539062 152.140625 C 212.867188 151.925781 213.980469 151.183594 214.054688 151.136719 C 214.667969 150.730469 215.140625 150.425781 215.609375 150.140625 C 218.285156 148.503906 220.507812 147.695312 223.089844 147.695312 C 227.117188 147.636719 230.117188 149.808594 233.339844 152.242188 C 236.9375 154.996094 238.523438 155.832031 240.832031 155.832031 L 240.832031 161.53125 C 236.804688 161.589844 233.800781 159.417969 230.582031 156.980469 C 226.980469 154.230469 225.398438 153.390625 223.089844 153.390625 C 221.449219 153.390625 219.96875 153.929688 217.949219 155.164062 C 217.535156 155.417969 217.105469 155.695312 216.535156 156.074219 C 216.472656 156.113281 215.347656 156.859375 215.003906 157.085938 C 210.335938 160.140625 206.808594 161.53125 201.792969 161.53125 C 200.355469 161.53125 199.078125 160.898438 197.644531 159.738281 C 197.164062 159.347656 196.691406 158.925781 196.035156 158.308594 C 195.519531 157.8125 195 157.320312 194.476562 156.835938 C 191.878906 154.457031 189.945312 153.390625 187.597656 153.390625 C 185.957031 153.390625 184.476562 153.929688 182.457031 155.164062 C 182.042969 155.417969 181.617188 155.695312 181.042969 156.074219 C 180.984375 156.113281 179.855469 156.859375 179.511719 157.085938 C 174.847656 160.140625 171.320312 161.53125 166.300781 161.53125 C 164.273438 161.53125 162.941406 160.398438 161.554688 158.28125 C 161.34375 157.957031 160.527344 156.636719 160.324219 156.320312 C 158.953125 154.230469 157.796875 153.390625 155.65625 153.390625 C 154.015625 153.390625 152.535156 153.929688 150.515625 155.164062 C 150.101562 155.417969 149.675781 155.695312 149.101562 156.074219 C 149.042969 156.113281 147.914062 156.859375 147.570312 157.085938 C 142.902344 160.140625 139.378906 161.53125 134.359375 161.53125 " fill-opacity="1" fill-rule="nonzero"/></g></g><g clip-path="url(#173a23f455)"><g clip-path="url(#83341cfaa9)"><path fill="#377fb8" d="M 134.359375 173.734375 L 134.359375 168.039062 C 138.367188 168.039062 141.121094 166.957031 145.105469 164.347656 C 145.433594 164.128906 146.546875 163.390625 146.621094 163.34375 C 147.234375 162.933594 147.707031 162.632812 148.175781 162.347656 C 150.855469 160.710938 153.074219 159.902344 155.65625 159.902344 C 159.578125 159.902344 162.074219 161.707031 164.296875 165.109375 C 164.558594 165.507812 165.371094 166.828125 165.53125 167.066406 C 166.066406 167.890625 166.242188 168.039062 166.300781 168.039062 C 170.308594 168.039062 173.066406 166.957031 177.046875 164.347656 C 177.375 164.128906 178.488281 163.390625 178.5625 163.34375 C 179.175781 162.933594 179.652344 162.632812 180.117188 162.347656 C 182.796875 160.710938 185.015625 159.902344 187.597656 159.902344 C 191.3125 159.902344 194.183594 161.484375 197.578125 164.59375 C 201.515625 168.203125 201.308594 168.039062 201.792969 168.039062 C 205.796875 168.039062 208.554688 166.957031 212.539062 164.347656 C 212.867188 164.128906 213.980469 163.390625 214.054688 163.34375 C 214.667969 162.933594 215.140625 162.632812 215.609375 162.347656 C 218.285156 160.710938 220.507812 159.902344 223.089844 159.902344 C 227.117188 159.839844 230.117188 162.011719 233.339844 164.449219 C 236.9375 167.199219 238.523438 168.039062 240.832031 168.039062 L 240.832031 173.734375 C 236.804688 173.792969 233.800781 171.621094 230.582031 169.1875 C 226.980469 166.433594 225.398438 165.597656 223.089844 165.597656 C 221.449219 165.597656 219.96875 166.136719 217.949219 167.371094 C 217.535156 167.625 217.105469 167.898438 216.535156 168.277344 C 216.472656 168.316406 215.347656 169.066406 215.003906 169.289062 C 210.335938 172.347656 206.808594 173.734375 201.792969 173.734375 C 200.355469 173.734375 199.078125 173.101562 197.644531 171.941406 C 197.164062 171.554688 196.691406 171.128906 196.035156 170.511719 C 195.519531 170.019531 195 169.527344 194.476562 169.042969 C 191.878906 166.664062 189.945312 165.597656 187.597656 165.597656 C 185.957031 165.597656 184.476562 166.136719 182.457031 167.371094 C 182.042969 167.625 181.617188 167.898438 181.042969 168.277344 C 180.984375 168.316406 179.855469 169.066406 179.511719 169.289062 C 174.847656 172.347656 171.320312 173.734375 166.300781 173.734375 C 164.273438 173.734375 162.941406 172.601562 161.554688 170.484375 C 161.34375 170.160156 160.527344 168.839844 160.324219 168.527344 C 158.953125 166.433594 157.796875 165.597656 155.65625 165.597656 C 154.015625 165.597656 152.535156 166.136719 150.515625 167.371094 C 150.101562 167.625 149.675781 167.898438 149.101562 168.277344 C 149.042969 168.316406 147.914062 169.066406 147.570312 169.289062 C 142.902344 172.347656 139.378906 173.734375 134.359375 173.734375 " fill-opacity="1" fill-rule="nonzero"/></g></g></svg>