<svg xmlns="http://www.w3.org/2000/svg" xmlns:xlink="http://www.w3.org/1999/xlink" width="500" zoomAndPan="magnify" viewBox="0 0 375 374.999991" height="500" preserveAspectRatio="xMidYMid meet" version="1.0"><defs><filter x="0%" y="0%" width="100%" height="100%" id="9636237481"><feColorMatrix values="0 0 0 0 1 0 0 0 0 1 0 0 0 0 1 0 0 0 1 0" color-interpolation-filters="sRGB"/></filter><mask id="d8fed64c49"><g filter="url(#9636237481)"><rect x="-37.5" width="450" fill="#000000" y="-37.499999" height="449.999989" fill-opacity="0.15"/></g></mask><clipPath id="e9a6e37e12"><path d="M 0.265625 1.023438 L 140.214844 1.023438 L 140.214844 140.972656 L 0.265625 140.972656 Z M 0.265625 1.023438 " clip-rule="nonzero"/></clipPath><clipPath id="87774cccfd"><path d="M 70.238281 1.023438 C 31.59375 1.023438 0.265625 32.351562 0.265625 70.996094 C 0.265625 109.640625 31.59375 140.972656 70.238281 140.972656 C 108.886719 140.972656 140.214844 109.640625 140.214844 70.996094 C 140.214844 32.351562 108.886719 1.023438 70.238281 1.023438 Z M 70.238281 1.023438 " clip-rule="nonzero"/></clipPath><clipPath id="48c3d2e85e"><rect x="0" width="141" y="0" height="142"/></clipPath><clipPath id="c21dbb6018"><path d="M 141.070312 91.160156 L 237.070312 91.160156 L 237.070312 149 L 141.070312 149 Z M 141.070312 91.160156 " clip-rule="nonzero"/></clipPath></defs><g mask="url(#d8fed64c49)"><g transform="matrix(1, 0, 0, 1, 119, 68)"><g clip-path="url(#48c3d2e85e)"><g clip-path="url(#e9a6e37e12)"><g clip-path="url(#87774cccfd)"><path fill="#8f00ff" d="M 0.265625 1.023438 L 140.214844 1.023438 L 140.214844 140.972656 L 0.265625 140.972656 Z M 0.265625 1.023438 " fill-opacity="1" fill-rule="nonzero"/></g></g></g></g></g><path fill="#8f00ff" d="M 252.136719 23.085938 C 212.179688 0 162.894531 0 122.941406 23.085938 C 61.0625 58.769531 39.917969 137.75 75.597656 199.550781 L 168.339844 360.230469 C 176.8125 375 198.109375 375 206.585938 360.230469 L 299.324219 199.550781 C 335.082031 137.75 313.9375 58.769531 252.136719 23.085938 Z M 187.539062 200.792969 C 155.355469 200.792969 129.3125 174.75 129.3125 142.570312 C 129.3125 110.386719 155.355469 84.34375 187.539062 84.34375 C 219.722656 84.34375 245.761719 110.386719 245.761719 142.570312 C 245.6875 174.671875 219.644531 200.792969 187.539062 200.792969 Z M 187.539062 200.792969 " fill-opacity="1" fill-rule="nonzero"/><path fill="#f4b53e" d="M 179.457031 148.992188 L 174.414062 162.757812 C 174.214844 163.289062 174.617188 163.863281 175.191406 163.863281 L 185.929688 163.863281 L 177.964844 185.804688 C 177.617188 186.75 178.875 187.4375 179.480469 186.652344 L 202.292969 156.921875 C 202.703125 156.394531 202.304688 155.601562 201.625 155.601562 L 191.714844 155.601562 L 195.347656 148.992188 L 195.84375 147.339844 L 180.972656 147.339844 L 179.457031 148.992188 " fill-opacity="1" fill-rule="nonzero"/><path fill="#f4b53e" d="M 151.859375 147.867188 L 147.050781 161.332031 C 146.886719 161.765625 147.199219 162.210938 147.664062 162.210938 L 156.1875 162.210938 L 149.792969 179.441406 C 149.527344 180.203125 150.523438 180.734375 151 180.105469 L 169.273438 156.660156 C 169.605469 156.226562 169.289062 155.601562 168.742188 155.601562 L 160.765625 155.601562 L 163.890625 148.992188 L 151.859375 147.867188 " fill-opacity="1" fill-rule="nonzero"/><path fill="#f4b53e" d="M 213.160156 148.992188 L 208.746094 161.332031 C 208.585938 161.765625 208.902344 162.210938 209.359375 162.210938 L 217.886719 162.210938 L 211.488281 179.441406 C 211.222656 180.203125 212.21875 180.734375 212.695312 180.105469 L 230.972656 156.660156 C 231.304688 156.226562 230.988281 155.601562 230.445312 155.601562 L 222.460938 155.601562 L 226.132812 148.050781 L 213.160156 148.992188 " fill-opacity="1" fill-rule="nonzero"/><g clip-path="url(#c21dbb6018)"><path fill="#cfd0d0" d="M 237.152344 132.46875 C 237.152344 141.589844 229.746094 148.992188 220.628906 148.992188 L 157.839844 148.992188 C 148.722656 148.992188 141.316406 141.589844 141.316406 132.46875 C 141.316406 123.878906 147.875 116.824219 156.273438 116.03125 C 156.242188 115.449219 156.1875 114.875 156.1875 114.292969 C 156.1875 101.519531 166.546875 91.160156 179.320312 91.160156 C 186.671875 91.160156 193.214844 94.613281 197.464844 99.972656 C 200.089844 97.589844 203.574219 96.117188 207.410156 96.117188 C 215.621094 96.117188 222.28125 102.777344 222.28125 110.988281 C 222.28125 112.738281 221.964844 114.429688 221.402344 115.976562 C 230.160156 116.390625 237.152344 123.613281 237.152344 132.46875 " fill-opacity="1" fill-rule="nonzero"/></g></svg>