<svg xmlns="http://www.w3.org/2000/svg" xmlns:xlink="http://www.w3.org/1999/xlink" width="500" zoomAndPan="magnify" viewBox="0 0 375 374.999991" height="500" preserveAspectRatio="xMidYMid meet" version="1.0"><defs><filter x="0%" y="0%" width="100%" height="100%" id="9dfb616fcf"><feColorMatrix values="0 0 0 0 1 0 0 0 0 1 0 0 0 0 1 0 0 0 1 0" color-interpolation-filters="sRGB"/></filter><mask id="f658b02a79"><g filter="url(#9dfb616fcf)"><rect x="-37.5" width="450" fill="#000000" y="-37.499999" height="449.999989" fill-opacity="0.15"/></g></mask><clipPath id="28e616dc01"><path d="M 0.265625 1.023438 L 140.214844 1.023438 L 140.214844 140.972656 L 0.265625 140.972656 Z M 0.265625 1.023438 " clip-rule="nonzero"/></clipPath><clipPath id="df2e239bb8"><path d="M 70.238281 1.023438 C 31.59375 1.023438 0.265625 32.351562 0.265625 70.996094 C 0.265625 109.640625 31.59375 140.972656 70.238281 140.972656 C 108.886719 140.972656 140.214844 109.640625 140.214844 70.996094 C 140.214844 32.351562 108.886719 1.023438 70.238281 1.023438 Z M 70.238281 1.023438 " clip-rule="nonzero"/></clipPath><clipPath id="052d2a47b8"><rect x="0" width="141" y="0" height="142"/></clipPath><clipPath id="e279ac200b"><path d="M 142 88.46875 L 233 88.46875 L 233 178.46875 L 142 178.46875 Z M 142 88.46875 " clip-rule="nonzero"/></clipPath></defs><g mask="url(#f658b02a79)"><g transform="matrix(1, 0, 0, 1, 119, 68)"><g clip-path="url(#052d2a47b8)"><g clip-path="url(#28e616dc01)"><g clip-path="url(#df2e239bb8)"><path fill="#0000ff" d="M 0.265625 1.023438 L 140.214844 1.023438 L 140.214844 140.972656 L 0.265625 140.972656 Z M 0.265625 1.023438 " fill-opacity="1" fill-rule="nonzero"/></g></g></g></g></g><path fill="#0000ff" d="M 252.136719 23.085938 C 212.179688 0 162.894531 0 122.941406 23.085938 C 61.0625 58.769531 39.917969 137.75 75.597656 199.550781 L 168.339844 360.230469 C 176.8125 375 198.109375 375 206.585938 360.230469 L 299.324219 199.550781 C 335.082031 137.75 313.9375 58.769531 252.136719 23.085938 Z M 187.539062 200.792969 C 155.355469 200.792969 129.3125 174.75 129.3125 142.570312 C 129.3125 110.386719 155.355469 84.34375 187.539062 84.34375 C 219.722656 84.34375 245.761719 110.386719 245.761719 142.570312 C 245.6875 174.671875 219.644531 200.792969 187.539062 200.792969 Z M 187.539062 200.792969 " fill-opacity="1" fill-rule="nonzero"/><path fill="#603127" d="M 206.804688 144.054688 C 211.632812 152.429688 219 162.207031 230.117188 171.671875 C 232.25 173.488281 230.992188 176.96875 228.183594 176.96875 L 147.167969 176.96875 C 144.359375 176.96875 143.097656 173.488281 145.230469 171.671875 C 156.351562 162.207031 163.71875 152.429688 168.546875 144.054688 L 174.171875 136.46875 L 201.179688 136.46875 L 206.804688 144.054688 " fill-opacity="1" fill-rule="nonzero"/><path fill="#cfd0d0" d="M 183.175781 124.46875 L 183.175781 116.96875 C 183.175781 115.320312 181.820312 113.96875 180.171875 113.96875 C 178.796875 113.96875 177.53125 113.503906 176.511719 112.71875 C 175.777344 112.167969 175.175781 111.417969 174.777344 110.574219 C 174.125 110.832031 173.40625 110.96875 172.671875 110.96875 C 169.355469 110.96875 166.671875 108.285156 166.671875 104.96875 C 166.671875 102.113281 168.652344 99.734375 171.316406 99.113281 C 171.941406 96.449219 174.320312 94.46875 177.171875 94.46875 C 178.046875 94.46875 178.855469 94.648438 179.605469 94.988281 C 181.070312 92.023438 184.136719 89.96875 187.675781 89.96875 C 191.214844 89.96875 194.28125 92.023438 195.746094 94.988281 C 196.496094 94.648438 197.304688 94.46875 198.175781 94.46875 C 201.03125 94.46875 203.410156 96.449219 204.03125 99.113281 C 206.699219 99.734375 208.679688 102.113281 208.679688 104.96875 C 208.679688 108.285156 205.996094 110.96875 202.679688 110.96875 C 201.945312 110.96875 201.226562 110.832031 200.574219 110.574219 C 199.601562 112.589844 197.550781 113.96875 195.175781 113.96875 C 194.351562 113.96875 193.601562 114.296875 193.0625 114.851562 C 192.503906 115.390625 192.175781 116.140625 192.175781 116.96875 L 192.175781 124.46875 L 183.175781 124.46875 " fill-opacity="1" fill-rule="nonzero"/><path fill="#e93841" d="M 203.9375 150.195312 C 201.882812 150.792969 199.695312 149.714844 198.660156 147.839844 C 197.1875 145.226562 195.925781 142.363281 194.925781 139.785156 C 194.351562 138.3125 192.175781 138.746094 192.175781 140.304688 L 192.175781 146.714844 C 192.175781 149.140625 190.347656 151.332031 187.914062 151.46875 C 185.320312 151.601562 183.175781 149.535156 183.175781 146.96875 L 183.175781 140.304688 C 183.175781 138.746094 181 138.3125 180.425781 139.785156 C 179.421875 142.363281 178.164062 145.226562 176.691406 147.839844 C 175.65625 149.714844 173.46875 150.792969 171.410156 150.195312 C 168.757812 149.398438 167.480469 146.515625 168.546875 144.054688 C 173.855469 134.84375 176.136719 127.332031 177.007812 123.746094 C 177.335938 122.410156 178.539062 121.46875 179.933594 121.46875 L 195.417969 121.46875 C 196.8125 121.46875 198.011719 122.410156 198.34375 123.746094 C 199.214844 127.332031 201.496094 134.84375 206.804688 144.054688 C 207.871094 146.515625 206.59375 149.398438 203.9375 150.195312 " fill-opacity="1" fill-rule="nonzero"/><g clip-path="url(#e279ac200b)"><path fill="#212223" d="M 180.171875 112.46875 C 179.175781 112.46875 178.226562 112.144531 177.417969 111.523438 C 176.878906 111.121094 176.433594 110.5625 176.125 109.925781 C 175.785156 109.214844 174.953125 108.898438 174.21875 109.179688 C 173.75 109.367188 173.210938 109.46875 172.671875 109.46875 C 170.1875 109.46875 168.171875 107.453125 168.171875 104.96875 C 168.171875 102.859375 169.605469 101.054688 171.65625 100.578125 C 172.222656 100.449219 172.65625 100.015625 172.785156 99.453125 C 173.257812 97.402344 175.0625 95.96875 177.171875 95.96875 C 177.816406 95.96875 178.410156 96.097656 178.976562 96.355469 C 179.714844 96.695312 180.589844 96.382812 180.949219 95.65625 C 182.226562 93.074219 184.804688 91.46875 187.675781 91.46875 C 190.546875 91.46875 193.125 93.074219 194.402344 95.65625 C 194.761719 96.382812 195.632812 96.695312 196.371094 96.355469 C 196.941406 96.097656 197.53125 95.96875 198.175781 95.96875 C 200.289062 95.96875 202.09375 97.402344 202.566406 99.453125 C 202.695312 100.015625 203.128906 100.449219 203.691406 100.578125 C 205.742188 101.054688 207.179688 102.859375 207.179688 104.96875 C 207.179688 107.453125 205.164062 109.46875 202.679688 109.46875 C 202.140625 109.46875 201.601562 109.367188 201.132812 109.179688 C 200.40625 108.898438 199.566406 109.222656 199.226562 109.925781 C 198.464844 111.496094 196.910156 112.46875 195.175781 112.46875 C 193.957031 112.46875 192.828125 112.941406 192.019531 113.773438 C 191.152344 114.617188 190.675781 115.75 190.675781 116.96875 L 190.675781 119.96875 L 184.675781 119.96875 L 184.675781 116.96875 C 184.675781 114.484375 182.660156 112.46875 180.171875 112.46875 Z M 196.882812 124.109375 C 197.882812 128.246094 200.253906 135.792969 205.484375 144.847656 C 205.753906 145.589844 205.730469 146.410156 205.398438 147.125 C 205.027344 147.921875 204.355469 148.496094 203.503906 148.75 C 202.203125 149.136719 200.710938 148.445312 199.960938 147.109375 C 198.722656 144.894531 197.496094 142.246094 196.320312 139.234375 C 195.796875 137.914062 194.460938 137.175781 193.066406 137.433594 C 191.660156 137.699219 190.675781 138.882812 190.675781 140.3125 L 190.675781 146.714844 C 190.675781 148.421875 189.402344 149.878906 187.839844 149.960938 C 187.011719 150.007812 186.214844 149.714844 185.605469 149.140625 C 185.007812 148.574219 184.675781 147.800781 184.675781 146.96875 L 184.675781 140.3125 C 184.675781 138.882812 183.691406 137.699219 182.285156 137.433594 C 180.894531 137.164062 179.550781 137.910156 179.035156 139.234375 C 177.851562 142.246094 176.628906 144.894531 175.390625 147.109375 C 174.640625 148.445312 173.148438 149.136719 171.84375 148.75 C 170.996094 148.496094 170.320312 147.921875 169.953125 147.125 C 169.617188 146.410156 169.59375 145.589844 169.863281 144.847656 C 175.097656 135.792969 177.464844 128.246094 178.46875 124.105469 C 178.632812 123.4375 179.230469 122.96875 179.925781 122.96875 L 195.421875 122.96875 C 196.121094 122.96875 196.71875 123.4375 196.882812 124.109375 Z M 179.925781 119.96875 C 177.839844 119.96875 176.042969 121.378906 175.554688 123.402344 C 174.089844 129.449219 167.492188 150.722656 144.257812 170.535156 C 142.804688 171.777344 142.289062 173.746094 142.945312 175.539062 C 143.601562 177.320312 145.261719 178.46875 147.160156 178.46875 L 151.667969 178.46875 C 152.492188 178.46875 153.167969 177.792969 153.167969 176.96875 C 153.167969 176.140625 152.492188 175.46875 151.667969 175.46875 L 147.160156 175.46875 C 146.199219 175.46875 145.847656 174.730469 145.765625 174.5 C 145.679688 174.265625 145.460938 173.457031 146.210938 172.8125 C 155.78125 164.652344 162.601562 156.320312 167.460938 148.777344 C 168.222656 150.136719 169.476562 151.175781 170.996094 151.625 C 173.632812 152.40625 176.582031 151.121094 178.011719 148.574219 C 179.257812 146.339844 180.488281 143.710938 181.675781 140.722656 L 181.675781 146.96875 C 181.675781 148.609375 182.355469 150.191406 183.542969 151.320312 C 184.667969 152.386719 186.128906 152.96875 187.667969 152.96875 C 187.78125 152.96875 187.886719 152.960938 187.996094 152.960938 C 191.179688 152.792969 193.675781 150.050781 193.675781 146.714844 L 193.675781 140.722656 C 194.859375 143.699219 196.089844 146.339844 197.339844 148.574219 C 198.765625 151.117188 201.710938 152.40625 204.355469 151.625 C 205.871094 151.175781 207.128906 150.136719 207.890625 148.777344 C 212.746094 156.320312 219.570312 164.652344 229.140625 172.8125 C 229.894531 173.457031 229.671875 174.265625 229.585938 174.5 C 229.503906 174.730469 229.15625 175.46875 228.191406 175.46875 L 157.667969 175.46875 C 156.84375 175.46875 156.167969 176.140625 156.167969 176.96875 C 156.167969 177.792969 156.84375 178.46875 157.667969 178.46875 L 228.191406 178.46875 C 230.09375 178.46875 231.742188 177.320312 232.398438 175.539062 C 233.066406 173.746094 232.542969 171.777344 231.085938 170.535156 C 207.859375 150.722656 201.261719 129.449219 199.796875 123.402344 C 199.308594 121.378906 197.507812 119.96875 195.421875 119.96875 L 193.675781 119.96875 L 193.675781 116.96875 C 193.675781 116.570312 193.828125 116.195312 194.132812 115.894531 C 194.402344 115.621094 194.777344 115.46875 195.175781 115.46875 C 197.597656 115.46875 199.878906 114.273438 201.273438 112.332031 C 201.730469 112.421875 202.203125 112.46875 202.679688 112.46875 C 206.816406 112.46875 210.179688 109.105469 210.179688 104.96875 C 210.179688 101.757812 208.1875 98.972656 205.238281 97.90625 C 204.171875 94.960938 201.390625 92.96875 198.175781 92.96875 C 197.578125 92.96875 196.992188 93.039062 196.429688 93.171875 C 194.496094 90.242188 191.25 88.46875 187.675781 88.46875 C 184.101562 88.46875 180.855469 90.242188 178.917969 93.171875 C 178.355469 93.039062 177.769531 92.96875 177.171875 92.96875 C 173.960938 92.96875 171.175781 94.960938 170.109375 97.90625 C 167.164062 98.972656 165.171875 101.757812 165.171875 104.96875 C 165.171875 109.105469 168.535156 112.46875 172.671875 112.46875 C 173.148438 112.46875 173.617188 112.421875 174.074219 112.332031 C 174.507812 112.941406 175.023438 113.476562 175.601562 113.914062 C 176.933594 114.929688 178.515625 115.46875 180.171875 115.46875 C 181 115.46875 181.675781 116.140625 181.675781 116.96875 L 181.675781 119.96875 L 179.925781 119.96875 " fill-opacity="1" fill-rule="nonzero"/></g><path fill="#212223" d="M 165.171875 170.96875 C 165.464844 170.96875 165.75 170.886719 166.007812 170.710938 C 166.332031 170.492188 173.957031 165.273438 177.085938 156.472656 C 177.367188 155.691406 176.957031 154.832031 176.175781 154.554688 C 175.398438 154.273438 174.535156 154.683594 174.261719 155.464844 C 171.46875 163.316406 164.402344 168.179688 164.332031 168.226562 C 163.640625 168.6875 163.464844 169.625 163.929688 170.3125 C 164.214844 170.734375 164.691406 170.96875 165.171875 170.96875 " fill-opacity="1" fill-rule="nonzero"/><path fill="#212223" d="M 209.34375 170.710938 C 209.601562 170.886719 209.886719 170.96875 210.179688 170.96875 C 210.660156 170.96875 211.136719 170.734375 211.421875 170.3125 C 211.886719 169.625 211.710938 168.6875 211.019531 168.226562 C 210.949219 168.179688 203.878906 163.316406 201.089844 155.464844 C 200.816406 154.683594 199.953125 154.28125 199.175781 154.554688 C 198.394531 154.832031 197.984375 155.691406 198.265625 156.472656 C 201.394531 165.273438 209.019531 170.492188 209.34375 170.710938 " fill-opacity="1" fill-rule="nonzero"/><path fill="#212223" d="M 189.175781 169.46875 L 189.175781 158.96875 C 189.175781 158.140625 188.5 157.46875 187.675781 157.46875 C 186.847656 157.46875 186.175781 158.140625 186.175781 158.96875 L 186.175781 169.46875 C 186.175781 170.292969 186.847656 170.96875 187.675781 170.96875 C 188.5 170.96875 189.175781 170.292969 189.175781 169.46875 " fill-opacity="1" fill-rule="nonzero"/><path fill="#212223" d="M 180.171875 100.46875 C 177.6875 100.46875 175.671875 102.484375 175.671875 104.96875 C 175.671875 105.792969 176.347656 106.46875 177.171875 106.46875 C 178 106.46875 178.671875 105.792969 178.671875 104.96875 C 178.671875 104.140625 179.347656 103.46875 180.171875 103.46875 C 181 103.46875 181.675781 102.792969 181.675781 101.96875 C 181.675781 101.140625 181 100.46875 180.171875 100.46875 " fill-opacity="1" fill-rule="nonzero"/><path fill="#212223" d="M 195.175781 103.46875 C 196.003906 103.46875 196.675781 104.140625 196.675781 104.96875 C 196.675781 105.792969 197.351562 106.46875 198.175781 106.46875 C 199.003906 106.46875 199.679688 105.792969 199.679688 104.96875 C 199.679688 102.484375 197.660156 100.46875 195.175781 100.46875 C 194.351562 100.46875 193.675781 101.140625 193.675781 101.96875 C 193.675781 102.792969 194.351562 103.46875 195.175781 103.46875 " fill-opacity="1" fill-rule="nonzero"/><path fill="#212223" d="M 186.175781 112.46875 C 187 112.46875 187.675781 111.792969 187.675781 110.96875 C 187.675781 110.140625 188.347656 109.46875 189.175781 109.46875 C 190.003906 109.46875 190.675781 108.792969 190.675781 107.96875 C 190.675781 107.140625 190.003906 106.46875 189.175781 106.46875 C 186.691406 106.46875 184.675781 108.484375 184.675781 110.96875 C 184.675781 111.792969 185.347656 112.46875 186.175781 112.46875 " fill-opacity="1" fill-rule="nonzero"/><path fill="#212223" d="M 186.175781 98.96875 C 187 98.96875 187.675781 99.640625 187.675781 100.46875 C 187.675781 101.292969 188.347656 101.96875 189.175781 101.96875 C 190.003906 101.96875 190.675781 101.292969 190.675781 100.46875 C 190.675781 97.984375 188.660156 95.96875 186.175781 95.96875 C 185.347656 95.96875 184.675781 96.640625 184.675781 97.46875 C 184.675781 98.292969 185.347656 98.96875 186.175781 98.96875 " fill-opacity="1" fill-rule="nonzero"/></svg>