<svg xmlns="http://www.w3.org/2000/svg" xmlns:xlink="http://www.w3.org/1999/xlink" width="500" zoomAndPan="magnify" viewBox="0 0 375 374.999991" height="500" preserveAspectRatio="xMidYMid meet" version="1.0"><defs><filter x="0%" y="0%" width="100%" height="100%" id="390712545f"><feColorMatrix values="0 0 0 0 1 0 0 0 0 1 0 0 0 0 1 0 0 0 1 0" color-interpolation-filters="sRGB"/></filter><mask id="e19b1b8517"><g filter="url(#390712545f)"><rect x="-37.5" width="450" fill="#000000" y="-37.499999" height="449.999989" fill-opacity="0.15"/></g></mask><clipPath id="5b0e7284e5"><path d="M 0.265625 1.023438 L 140.214844 1.023438 L 140.214844 140.972656 L 0.265625 140.972656 Z M 0.265625 1.023438 " clip-rule="nonzero"/></clipPath><clipPath id="fea8fa24a6"><path d="M 70.238281 1.023438 C 31.59375 1.023438 0.265625 32.351562 0.265625 70.996094 C 0.265625 109.640625 31.59375 140.972656 70.238281 140.972656 C 108.886719 140.972656 140.214844 109.640625 140.214844 70.996094 C 140.214844 32.351562 108.886719 1.023438 70.238281 1.023438 Z M 70.238281 1.023438 " clip-rule="nonzero"/></clipPath><clipPath id="69b6a63f70"><rect x="0" width="141" y="0" height="142"/></clipPath><clipPath id="6d53935d85"><path d="M 133.179688 144 L 231 144 L 231 176 L 133.179688 176 Z M 133.179688 144 " clip-rule="nonzero"/></clipPath><clipPath id="1a10317efd"><path d="M 198 141 L 241.929688 141 L 241.929688 170 L 198 170 Z M 198 141 " clip-rule="nonzero"/></clipPath><clipPath id="fd360c2ea1"><path d="M 133.179688 101.515625 L 192 101.515625 L 192 141 L 133.179688 141 Z M 133.179688 101.515625 " clip-rule="nonzero"/></clipPath></defs><g mask="url(#e19b1b8517)"><g transform="matrix(1, 0, 0, 1, 119, 68)"><g clip-path="url(#69b6a63f70)"><g clip-path="url(#5b0e7284e5)"><g clip-path="url(#fea8fa24a6)"><path fill="#ff0000" d="M 0.265625 1.023438 L 140.214844 1.023438 L 140.214844 140.972656 L 0.265625 140.972656 Z M 0.265625 1.023438 " fill-opacity="1" fill-rule="nonzero"/></g></g></g></g></g><path fill="#ff0000" d="M 252.136719 23.085938 C 212.179688 0 162.894531 0 122.941406 23.085938 C 61.0625 58.769531 39.917969 137.75 75.597656 199.550781 L 168.339844 360.230469 C 176.8125 375 198.109375 375 206.585938 360.230469 L 299.324219 199.550781 C 335.082031 137.75 313.9375 58.769531 252.136719 23.085938 Z M 187.539062 200.792969 C 155.355469 200.792969 129.3125 174.75 129.3125 142.570312 C 129.3125 110.386719 155.355469 84.34375 187.539062 84.34375 C 219.722656 84.34375 245.761719 110.386719 245.761719 142.570312 C 245.6875 174.671875 219.644531 200.792969 187.539062 200.792969 Z M 187.539062 200.792969 " fill-opacity="1" fill-rule="nonzero"/><path fill="#c3e9fa" d="M 148.777344 134.632812 C 157.46875 136.136719 168.964844 135.90625 177.371094 133.726562 C 181.601562 132.628906 187.066406 130.027344 188.03125 125.203125 C 189.054688 120.105469 184.222656 115.171875 179.195312 115.777344 C 178.425781 115.871094 177.875 115.859375 177.179688 116.074219 C 182.640625 117.933594 181.136719 124.011719 176.777344 126.421875 C 171.578125 129.292969 164.074219 127.535156 161.324219 122.164062 C 158.191406 116.050781 163.0625 109.421875 167.941406 105.738281 C 173.527344 101.515625 183.515625 101.808594 189.242188 105.660156 C 194.546875 109.230469 197.585938 117.351562 193.3125 122.808594 C 197.664062 119.5 199.539062 115.027344 205.128906 113.421875 C 211.210938 111.675781 218.039062 113.394531 221.105469 119.132812 C 225.683594 127.699219 219.640625 138.707031 210.527344 140.695312 C 205.222656 141.855469 199.390625 141.902344 193.78125 141.625 C 185.964844 141.234375 178.007812 140.730469 170.136719 140.105469 C 164.464844 139.65625 158.464844 138.628906 152.714844 139.175781 C 148.269531 139.597656 145.164062 143.339844 140.667969 142.550781 C 143.191406 141.359375 143.820312 138.863281 145.648438 136.980469 C 148.171875 134.382812 149.761719 134.890625 152.730469 135.847656 " fill-opacity="1" fill-rule="nonzero"/><g clip-path="url(#6d53935d85)"><path fill="#96d6f5" d="M 144.515625 149.34375 C 155.363281 140.332031 167.066406 146.324219 179.492188 146.234375 C 188.566406 146.171875 197.523438 144.492188 206.582031 144.175781 C 213.457031 143.933594 223.839844 144.8125 227.789062 151.472656 C 233.453125 161.019531 230.851562 172.234375 219.347656 175.121094 C 214.894531 176.238281 208.546875 176.515625 204.378906 174.359375 C 199.609375 171.898438 195.804688 166.039062 201.707031 162.03125 C 204.464844 160.160156 208.019531 160.015625 208.746094 163.589844 C 211.550781 163.617188 211.613281 160.386719 210.445312 158.527344 C 209.261719 156.644531 206.140625 155.375 204.136719 155.121094 C 198.082031 154.351562 194.957031 158.605469 194.421875 163.953125 C 193.871094 169.433594 192.605469 172.335938 187.105469 174.277344 C 182.003906 176.078125 173.496094 176.152344 170.738281 170.324219 C 169.941406 168.644531 169.476562 164.738281 170.433594 163.09375 C 171.335938 161.542969 175.894531 159.402344 177.683594 160.351562 C 178.609375 160.84375 178.414062 162.882812 178.953125 162.964844 C 180.519531 163.203125 180.46875 161.488281 180.34375 160.355469 C 180.160156 158.679688 178.304688 156.609375 176.988281 155.5 C 173.980469 152.960938 167.539062 150.628906 163.679688 150.863281 C 158.878906 151.15625 155.324219 154.546875 150.921875 155.441406 C 147.976562 156.039062 145.023438 155.632812 142.402344 154.816406 C 139.824219 154.015625 136.632812 152.613281 133.976562 154.238281 C 138.417969 151.347656 144.746094 148.167969 149.992188 149.953125 " fill-opacity="1" fill-rule="nonzero"/></g><path fill="#59b6e7" d="M 145.734375 145.882812 C 146.472656 145.726562 148.460938 143.058594 149.679688 142.164062 C 152.628906 140 156.457031 138.707031 159.964844 137.730469 C 166.46875 135.925781 173.519531 136.847656 180.105469 137.433594 C 184.53125 137.828125 187.96875 137.363281 191.972656 135.769531 C 194.007812 134.960938 199.875 132.566406 197.515625 129.804688 C 196.023438 134.046875 188.847656 127.164062 196.839844 124.65625 C 201.097656 123.320312 206.660156 125.335938 208.941406 129.230469 C 214.371094 138.519531 204.53125 144.773438 196.839844 146.726562 C 187.414062 149.121094 177.011719 147.207031 167.941406 144.371094 C 163.410156 142.953125 158.734375 142.195312 153.941406 143.441406 C 150.371094 144.367188 145.890625 148.351562 142.273438 145.941406 C 142.230469 145.875 142.488281 146.050781 142.691406 145.882812 " fill-opacity="1" fill-rule="nonzero"/><path fill="#c3e9fa" d="M 145.019531 149.578125 C 144.957031 148.792969 145.328125 148.074219 145.8125 147.476562 C 146.449219 146.683594 147.269531 146.035156 148.101562 145.460938 C 149.890625 144.230469 151.859375 143.261719 153.832031 142.367188 C 154.964844 141.851562 156.105469 141.378906 157.3125 141.058594 C 158.773438 140.667969 160.289062 140.496094 161.796875 140.511719 C 164.859375 140.546875 167.871094 141.265625 170.882812 141.757812 C 172.378906 142.003906 173.886719 142.175781 175.394531 142.359375 C 176.964844 142.550781 178.542969 142.726562 180.121094 142.855469 C 181.734375 142.988281 183.355469 143.066406 184.972656 143.070312 C 186.351562 143.070312 187.792969 143.066406 189.148438 142.792969 C 190.882812 142.445312 192.5625 141.628906 194.085938 140.753906 C 195.886719 139.726562 197.628906 138.460938 198.957031 136.855469 C 200.09375 135.488281 200.941406 133.769531 200.53125 131.957031 C 200.085938 130 198.375 128.726562 196.453125 128.433594 C 194.789062 128.183594 192.847656 128.65625 191.605469 129.824219 C 191.109375 130.289062 190.730469 130.921875 190.726562 131.613281 C 190.71875 132.441406 191.230469 133.136719 191.820312 133.664062 C 192.234375 134.035156 192.722656 134.328125 193.210938 134.589844 C 193.414062 134.695312 193.734375 134.699219 193.914062 134.535156 C 194.09375 134.367188 193.949219 134.15625 193.773438 134.066406 C 193.007812 133.660156 192.160156 133.089844 191.84375 132.265625 C 191.617188 131.667969 191.769531 131.089844 192.144531 130.570312 C 192.53125 130.042969 193.230469 129.621094 193.824219 129.394531 C 194.007812 129.324219 194.199219 129.265625 194.394531 129.214844 C 194.628906 129.152344 194.765625 129.125 194.972656 129.097656 C 195.4375 129.03125 195.753906 129.027344 196.183594 129.070312 C 196.558594 129.109375 196.960938 129.207031 197.300781 129.347656 C 197.714844 129.519531 198.050781 129.738281 198.386719 130.03125 C 199.046875 130.617188 199.460938 131.472656 199.597656 132.335938 C 199.878906 134.085938 198.78125 135.753906 197.648438 136.972656 C 196.242188 138.484375 194.484375 139.671875 192.660156 140.632812 C 191.847656 141.0625 190.996094 141.453125 190.152344 141.753906 C 189.789062 141.882812 189.421875 141.996094 189.046875 142.09375 C 188.890625 142.132812 188.734375 142.164062 188.578125 142.195312 C 188.699219 142.171875 188.578125 142.195312 188.558594 142.199219 C 188.488281 142.210938 188.417969 142.214844 188.347656 142.222656 C 188.140625 142.246094 187.929688 142.265625 187.722656 142.285156 C 184.578125 142.5625 181.398438 142.335938 178.261719 142.015625 C 175.175781 141.699219 172.09375 141.3125 169.039062 140.765625 C 166.0625 140.234375 163.066406 139.675781 160.023438 139.898438 C 158.417969 140.019531 156.832031 140.375 155.320312 140.921875 C 154.339844 141.273438 153.394531 141.71875 152.453125 142.15625 C 150.507812 143.0625 148.589844 144.0625 146.859375 145.332031 C 146.070312 145.910156 145.332031 146.5625 144.746094 147.34375 C 144.289062 147.953125 143.949219 148.707031 144.011719 149.480469 C 144.046875 149.941406 145.054688 150.007812 145.019531 149.578125 Z M 145.019531 149.578125 " fill-opacity="1" fill-rule="nonzero"/><path fill="#4569b2" d="M 205.484375 164.335938 C 205.585938 165.9375 206.105469 167.453125 207.328125 168.535156 C 208.351562 169.441406 209.777344 169.773438 211.113281 169.652344 C 214.410156 169.347656 217.25 166.375 217.992188 163.253906 C 218.820312 159.777344 217.167969 156.234375 214.929688 153.640625 C 212.390625 150.703125 208.832031 148.699219 204.960938 148.234375 C 200.570312 147.707031 196.308594 149.25 192.179688 150.535156 C 190.03125 151.203125 187.851562 151.820312 185.613281 152.101562 C 183.214844 152.398438 180.757812 152.253906 178.367188 151.933594 C 173.609375 151.300781 169.003906 149.863281 164.28125 149.019531 C 159.257812 148.125 154.171875 148.273438 149.105469 148.679688 C 144.199219 149.074219 139.300781 149.675781 134.371094 149.683594 C 133.726562 149.683594 134.042969 150.59375 134.585938 150.59375 C 139.828125 150.585938 145.039062 149.910156 150.261719 149.515625 C 152.871094 149.320312 155.484375 149.203125 158.101562 149.273438 C 160.554688 149.34375 162.972656 149.652344 165.378906 150.121094 C 170.085938 151.042969 174.699219 152.449219 179.480469 152.964844 C 181.851562 153.222656 184.269531 153.261719 186.628906 152.898438 C 188.847656 152.554688 191 151.910156 193.136719 151.242188 C 197.289062 149.941406 201.582031 148.460938 205.984375 149.289062 C 209.707031 149.984375 212.988281 152.277344 215.171875 155.335938 C 217.164062 158.128906 218.066406 161.863281 216.226562 164.964844 C 214.789062 167.386719 211.59375 169.714844 208.6875 168.414062 C 207.171875 167.738281 206.539062 166.082031 206.441406 164.519531 C 206.410156 163.992188 205.449219 163.730469 205.484375 164.335938 Z M 205.484375 164.335938 " fill-opacity="1" fill-rule="nonzero"/><path fill="#c3e9fa" d="M 145.792969 138.59375 C 147.230469 137.195312 148.882812 136.039062 150.707031 135.207031 C 152.441406 134.421875 154.265625 133.9375 156.136719 133.660156 C 160.054688 133.074219 164.015625 133.363281 167.960938 133.625 C 171.976562 133.890625 176.035156 134.183594 180.042969 133.679688 C 181.992188 133.433594 183.925781 132.980469 185.753906 132.253906 C 187.5625 131.53125 189.285156 130.511719 190.820312 129.308594 C 193.199219 127.441406 195.035156 124.867188 195.554688 121.847656 C 196.019531 119.171875 195.457031 116.414062 194.226562 114.015625 C 192.941406 111.503906 190.988281 109.378906 188.640625 107.824219 C 186.304688 106.28125 183.542969 105.394531 180.734375 105.453125 C 179.320312 105.480469 177.910156 105.785156 176.601562 106.320312 C 175.886719 106.609375 175.203125 106.972656 174.554688 107.386719 C 173.847656 107.839844 173.214844 108.375 172.578125 108.921875 C 171.554688 109.796875 169.960938 111.320312 170.785156 112.800781 C 171.078125 113.320312 171.632812 113.675781 172.164062 113.910156 C 172.882812 114.226562 173.648438 114.398438 174.417969 114.519531 C 175.839844 114.742188 177.304688 114.753906 178.734375 114.652344 C 178.964844 114.636719 179.148438 114.425781 179.0625 114.199219 C 178.96875 113.949219 178.683594 113.847656 178.4375 113.867188 C 177.609375 113.921875 176.933594 113.933594 176.085938 113.894531 C 175.671875 113.875 175.261719 113.839844 174.851562 113.792969 C 174.660156 113.769531 174.472656 113.742188 174.28125 113.714844 C 174.191406 113.699219 174.097656 113.683594 174.007812 113.664062 C 173.855469 113.636719 174.109375 113.6875 173.957031 113.65625 C 173.898438 113.644531 173.839844 113.632812 173.78125 113.617188 C 173.4375 113.542969 173.09375 113.449219 172.765625 113.324219 C 172.726562 113.3125 172.691406 113.296875 172.652344 113.28125 C 172.53125 113.234375 172.757812 113.328125 172.636719 113.273438 C 172.570312 113.246094 172.503906 113.214844 172.433594 113.179688 C 172.371094 113.148438 172.308594 113.113281 172.246094 113.078125 C 172.214844 113.0625 172.1875 113.042969 172.15625 113.027344 C 172.132812 113.011719 172.003906 112.921875 172.121094 113.007812 C 172.019531 112.933594 171.921875 112.851562 171.832031 112.765625 C 171.8125 112.746094 171.742188 112.667969 171.828125 112.765625 C 171.808594 112.742188 171.789062 112.71875 171.773438 112.695312 C 171.730469 112.644531 171.691406 112.589844 171.65625 112.53125 C 171.605469 112.449219 171.703125 112.621094 171.65625 112.53125 C 171.644531 112.507812 171.632812 112.480469 171.621094 112.457031 C 171.601562 112.402344 171.585938 112.351562 171.570312 112.296875 C 171.542969 112.203125 171.585938 112.386719 171.566406 112.289062 C 171.5625 112.261719 171.558594 112.234375 171.554688 112.203125 C 171.546875 112.136719 171.546875 112.066406 171.550781 112 C 171.550781 111.96875 171.554688 111.9375 171.554688 111.90625 C 171.546875 112.007812 171.558594 111.902344 171.5625 111.882812 C 171.574219 111.816406 171.589844 111.753906 171.609375 111.6875 C 171.628906 111.621094 171.65625 111.550781 171.683594 111.484375 C 171.695312 111.449219 171.710938 111.414062 171.726562 111.378906 C 171.765625 111.300781 171.746094 111.339844 171.773438 111.292969 C 171.96875 110.925781 172.238281 110.597656 172.515625 110.292969 C 172.871094 109.910156 173.273438 109.578125 173.664062 109.234375 C 173.96875 108.964844 174.289062 108.710938 174.621094 108.46875 C 175.820312 107.585938 177.085938 106.960938 178.546875 106.574219 C 178.585938 106.5625 178.625 106.554688 178.667969 106.542969 C 178.800781 106.507812 178.578125 106.5625 178.714844 106.53125 C 178.792969 106.511719 178.875 106.496094 178.957031 106.476562 C 179.132812 106.441406 179.308594 106.40625 179.488281 106.378906 C 179.824219 106.324219 180.164062 106.285156 180.503906 106.261719 C 180.667969 106.25 180.828125 106.242188 180.992188 106.238281 C 181.128906 106.234375 180.890625 106.238281 181.027344 106.238281 C 181.066406 106.238281 181.109375 106.238281 181.148438 106.238281 C 181.242188 106.238281 181.335938 106.238281 181.429688 106.238281 C 181.769531 106.246094 182.105469 106.269531 182.4375 106.308594 C 182.597656 106.324219 182.757812 106.347656 182.917969 106.371094 C 182.996094 106.382812 183.078125 106.394531 183.15625 106.410156 C 183.195312 106.414062 183.234375 106.421875 183.273438 106.429688 C 183.300781 106.433594 183.476562 106.46875 183.339844 106.441406 C 183.667969 106.503906 183.996094 106.585938 184.320312 106.675781 C 184.644531 106.765625 184.964844 106.871094 185.28125 106.988281 C 185.433594 107.042969 185.585938 107.101562 185.734375 107.160156 C 185.757812 107.171875 185.882812 107.222656 185.761719 107.171875 C 185.796875 107.1875 185.835938 107.203125 185.871094 107.21875 C 185.960938 107.257812 186.046875 107.296875 186.132812 107.335938 C 186.753906 107.613281 187.351562 107.941406 187.925781 108.304688 C 188.0625 108.390625 188.203125 108.480469 188.335938 108.574219 C 188.351562 108.582031 188.464844 108.660156 188.367188 108.59375 C 188.402344 108.617188 188.433594 108.640625 188.46875 108.664062 C 188.546875 108.71875 188.625 108.777344 188.703125 108.832031 C 188.976562 109.035156 189.246094 109.246094 189.511719 109.46875 C 189.773438 109.6875 190.027344 109.917969 190.277344 110.152344 C 190.394531 110.265625 190.511719 110.382812 190.628906 110.5 C 190.6875 110.558594 190.742188 110.617188 190.800781 110.675781 C 190.828125 110.707031 190.855469 110.738281 190.886719 110.765625 C 190.898438 110.777344 191.011719 110.902344 190.945312 110.828125 C 191.40625 111.332031 191.835938 111.867188 192.230469 112.425781 C 193.019531 113.542969 193.59375 114.632812 194.050781 115.945312 C 194.488281 117.195312 194.714844 118.410156 194.726562 119.765625 C 194.730469 120.453125 194.679688 121.039062 194.5625 121.675781 C 194.445312 122.339844 194.253906 122.996094 194.007812 123.625 C 193.488281 124.957031 192.660156 126.191406 191.652344 127.269531 C 190.445312 128.554688 188.921875 129.613281 187.375 130.496094 C 185.707031 131.445312 183.859375 132.105469 181.992188 132.511719 C 178.101562 133.363281 174.117188 133.21875 170.171875 132.976562 C 166.148438 132.734375 162.117188 132.347656 158.085938 132.632812 C 154.1875 132.90625 150.335938 133.9375 147.125 136.238281 C 146.394531 136.757812 145.710938 137.34375 145.066406 137.964844 C 144.640625 138.378906 145.445312 138.929688 145.792969 138.59375 Z M 145.792969 138.59375 " fill-opacity="1" fill-rule="nonzero"/><path fill="#73cdda" d="M 141.816406 159.332031 C 145.246094 156.5 149.40625 154.589844 153.734375 153.605469 C 158.066406 152.621094 162.628906 152.542969 166.953125 153.601562 C 171.074219 154.609375 174.882812 156.78125 177.589844 160.046875 C 178.21875 160.804688 178.738281 161.613281 179.285156 162.433594 C 179.875 163.316406 180.472656 164.195312 181.101562 165.054688 C 182.398438 166.84375 183.835938 168.574219 185.597656 169.929688 C 187.160156 171.132812 189.109375 171.988281 191.113281 171.648438 C 192.214844 171.464844 193.210938 170.933594 194.089844 170.261719 C 194.871094 169.660156 195.558594 168.964844 196.070312 168.117188 C 196.992188 166.59375 197.285156 164.71875 196.882812 162.988281 C 196.484375 161.273438 195.289062 159.816406 193.644531 159.164062 C 192.6875 158.785156 191.636719 158.703125 190.617188 158.792969 C 189.820312 158.867188 189.066406 159.304688 188.417969 159.742188 C 187.769531 160.175781 187.171875 160.695312 186.65625 161.28125 C 186.328125 161.652344 185.84375 162.179688 185.972656 162.726562 C 186.101562 163.269531 186.691406 163.289062 187.113281 163.144531 C 187.78125 162.914062 188.390625 162.460938 188.964844 162.066406 C 189.183594 161.917969 189.074219 161.566406 188.933594 161.414062 C 188.757812 161.21875 188.503906 161.167969 188.285156 161.316406 C 187.859375 161.605469 187.425781 161.890625 186.964844 162.121094 C 186.835938 162.1875 186.703125 162.246094 186.566406 162.289062 C 186.472656 162.320312 186.660156 162.265625 186.574219 162.289062 C 186.550781 162.292969 186.527344 162.296875 186.507812 162.300781 C 186.402344 162.316406 186.546875 162.316406 186.59375 162.328125 C 186.683594 162.355469 186.796875 162.492188 186.855469 162.632812 C 186.882812 162.703125 186.871094 162.679688 186.859375 162.765625 C 186.863281 162.730469 186.875 162.695312 186.886719 162.664062 C 186.832031 162.8125 186.902344 162.640625 186.921875 162.605469 C 187.074219 162.320312 187.191406 162.195312 187.363281 162 C 187.882812 161.414062 188.492188 160.898438 189.140625 160.464844 C 189.773438 160.039062 190.464844 159.742188 191.226562 159.699219 C 192.160156 159.648438 193.054688 159.804688 193.878906 160.214844 C 194.511719 160.53125 195.078125 161.089844 195.445312 161.691406 C 195.84375 162.351562 196.054688 163.082031 196.125 163.851562 C 196.195312 164.695312 196.089844 165.484375 195.824219 166.304688 C 195.242188 168.097656 193.714844 169.597656 191.988281 170.363281 C 190.195312 171.15625 188.332031 170.71875 186.765625 169.71875 C 184.957031 168.566406 183.527344 166.886719 182.230469 165.1875 C 181 163.570312 179.960938 161.792969 178.738281 160.160156 C 176.128906 156.667969 172.304688 154.253906 168.15625 153.011719 C 163.863281 151.726562 159.257812 151.609375 154.855469 152.390625 C 150.40625 153.183594 146.105469 154.921875 142.4375 157.570312 C 141.992188 157.894531 141.558594 158.230469 141.132812 158.582031 C 140.710938 158.929688 141.390625 159.683594 141.816406 159.332031 Z M 141.816406 159.332031 " fill-opacity="1" fill-rule="nonzero"/><path fill="#c3e9fa" d="M 206.804688 142.171875 C 209.769531 141.59375 212.730469 140.886719 215.539062 139.757812 C 218.019531 138.761719 220.398438 137.402344 222.242188 135.4375 C 224.089844 133.464844 225.164062 130.9375 225.503906 128.269531 C 225.710938 126.621094 225.652344 124.949219 225.441406 123.304688 C 225.238281 121.71875 224.910156 120.164062 224.363281 118.660156 C 223.3125 115.757812 221.515625 112.992188 218.902344 111.273438 C 216.125 109.445312 212.433594 109.09375 209.347656 110.347656 C 206.785156 111.382812 204.652344 113.816406 204.886719 116.710938 C 205.003906 118.183594 205.730469 119.507812 206.753906 120.550781 C 207.0625 120.863281 207.40625 121.132812 207.746094 121.414062 C 208.140625 121.738281 208.554688 122.042969 208.988281 122.316406 C 209.707031 122.761719 210.496094 123.125 211.324219 123.304688 C 212.644531 123.589844 214.046875 123.386719 215.03125 122.410156 C 215.957031 121.488281 216.238281 120.074219 216.207031 118.816406 C 216.179688 117.773438 215.941406 116.742188 215.585938 115.765625 C 215.253906 115.773438 214.925781 115.785156 214.597656 115.792969 C 214.753906 116.085938 214.976562 116.289062 215.246094 116.472656 C 215.472656 116.628906 215.683594 116.757812 215.816406 117.007812 C 215.917969 117.207031 216.214844 117.257812 216.414062 117.25 C 216.523438 117.246094 216.90625 117.179688 216.800781 116.980469 C 216.648438 116.6875 216.421875 116.484375 216.152344 116.300781 C 215.925781 116.144531 215.714844 116.015625 215.585938 115.765625 C 215.480469 115.566406 215.183594 115.515625 214.984375 115.523438 C 214.851562 115.527344 214.519531 115.582031 214.597656 115.792969 C 215.132812 117.257812 215.410156 118.886719 215.023438 120.425781 C 214.878906 121 214.617188 121.542969 214.234375 121.996094 C 214.054688 122.203125 213.886719 122.351562 213.648438 122.511719 C 213.414062 122.664062 213.25 122.738281 212.953125 122.828125 C 212.933594 122.832031 212.824219 122.863281 212.925781 122.835938 C 212.894531 122.84375 212.859375 122.851562 212.824219 122.859375 C 212.757812 122.875 212.6875 122.886719 212.621094 122.894531 C 212.585938 122.902344 212.550781 122.90625 212.515625 122.910156 C 212.636719 122.894531 212.515625 122.90625 212.496094 122.910156 C 212.410156 122.914062 212.324219 122.917969 212.238281 122.917969 C 212.199219 122.917969 212.164062 122.917969 212.125 122.914062 C 212.265625 122.917969 212.132812 122.914062 212.109375 122.914062 C 212.03125 122.910156 211.953125 122.898438 211.875 122.890625 C 211.835938 122.886719 211.792969 122.878906 211.753906 122.871094 C 211.621094 122.851562 211.863281 122.894531 211.726562 122.867188 C 211.628906 122.851562 211.535156 122.828125 211.441406 122.804688 C 211.355469 122.78125 211.273438 122.757812 211.1875 122.730469 C 211.046875 122.6875 211.277344 122.761719 211.136719 122.714844 C 211.089844 122.699219 211.046875 122.683594 211.003906 122.667969 C 210.808594 122.597656 210.617188 122.511719 210.429688 122.421875 C 210.054688 122.246094 209.667969 122 209.308594 121.753906 C 207.980469 120.839844 206.765625 119.695312 206.195312 118.15625 C 205.746094 116.945312 205.777344 115.582031 206.261719 114.386719 C 206.777344 113.117188 207.738281 112.078125 208.894531 111.351562 C 209.535156 110.953125 210.230469 110.664062 210.964844 110.457031 C 211.722656 110.242188 212.550781 110.140625 213.339844 110.125 C 214.085938 110.109375 214.804688 110.195312 215.527344 110.378906 C 215.707031 110.421875 215.882812 110.472656 216.058594 110.53125 C 215.964844 110.5 216.105469 110.546875 216.113281 110.546875 C 216.15625 110.5625 216.199219 110.578125 216.242188 110.59375 C 216.339844 110.628906 216.441406 110.667969 216.539062 110.707031 C 216.882812 110.84375 217.214844 111 217.5 111.15625 C 220.1875 112.628906 222.03125 115.316406 223.160156 118.113281 C 223.738281 119.554688 224.113281 121.050781 224.347656 122.582031 C 224.605469 124.261719 224.707031 125.96875 224.550781 127.664062 C 224.421875 129.054688 224.105469 130.4375 223.558594 131.726562 C 223.054688 132.902344 222.359375 133.988281 221.511719 134.945312 C 219.777344 136.910156 217.441406 138.265625 215.0625 139.246094 C 212.273438 140.394531 209.425781 141.078125 206.480469 141.65625 C 206.433594 141.667969 206.390625 141.675781 206.34375 141.683594 C 206.195312 141.714844 205.960938 141.835938 206.125 142.007812 C 206.28125 142.171875 206.589844 142.214844 206.804688 142.171875 Z M 206.804688 142.171875 " fill-opacity="1" fill-rule="nonzero"/><g clip-path="url(#1a10317efd)"><path fill="#42b6e9" d="M 199.300781 144.875 C 202.421875 143.789062 205.644531 142.957031 208.890625 142.429688 C 212.300781 141.875 215.65625 141.652344 219.097656 141.875 C 219.859375 141.925781 220.703125 142.011719 221.542969 142.128906 C 222.375 142.246094 223.203125 142.394531 223.9375 142.554688 C 225.578125 142.921875 227.066406 143.386719 228.585938 144.039062 C 231.605469 145.328125 234.335938 147.296875 236.480469 149.824219 C 237.625 151.171875 238.652344 152.679688 239.375 154.296875 C 240.054688 155.808594 240.417969 157.453125 240.410156 159.113281 C 240.398438 162.203125 239.019531 165.175781 236.601562 167.121094 C 235.355469 168.125 233.855469 168.78125 232.296875 169.117188 C 231.457031 169.300781 230.558594 169.398438 229.710938 169.355469 C 228.816406 169.308594 227.960938 169.152344 227.078125 168.871094 C 226.9375 168.824219 226.746094 168.753906 226.5625 168.679688 C 226.363281 168.601562 226.164062 168.511719 225.96875 168.414062 C 225.667969 168.265625 225.304688 168.046875 225.003906 167.832031 C 224.4375 167.429688 223.921875 166.917969 223.535156 166.339844 C 222.746094 165.160156 222.523438 163.738281 222.84375 162.363281 C 223.03125 161.574219 223.390625 160.835938 223.839844 160.164062 C 224.347656 159.398438 224.996094 158.640625 225.722656 158.078125 C 226.761719 157.277344 227.960938 156.757812 229.21875 156.457031 C 229.292969 156.4375 229.367188 156.421875 229.441406 156.40625 C 229.476562 156.398438 229.515625 156.390625 229.550781 156.382812 C 229.460938 156.402344 229.582031 156.378906 229.589844 156.375 C 229.746094 156.347656 229.902344 156.324219 230.058594 156.304688 C 230.199219 156.289062 230.335938 156.277344 230.476562 156.269531 C 230.59375 156.261719 230.371094 156.273438 230.488281 156.269531 C 230.519531 156.265625 230.554688 156.265625 230.585938 156.265625 C 230.664062 156.265625 230.738281 156.265625 230.816406 156.265625 C 230.878906 156.269531 230.941406 156.269531 231.003906 156.273438 C 231.117188 156.28125 230.882812 156.261719 230.992188 156.273438 C 231.023438 156.277344 231.054688 156.28125 231.085938 156.285156 C 231.144531 156.289062 231.203125 156.300781 231.261719 156.308594 C 231.289062 156.3125 231.316406 156.316406 231.347656 156.324219 C 231.179688 156.292969 231.316406 156.316406 231.351562 156.328125 C 231.40625 156.339844 231.457031 156.355469 231.511719 156.371094 C 231.539062 156.378906 231.632812 156.410156 231.496094 156.363281 C 231.519531 156.371094 231.542969 156.378906 231.566406 156.390625 C 231.617188 156.410156 231.660156 156.429688 231.707031 156.449219 C 231.789062 156.488281 231.621094 156.402344 231.699219 156.445312 C 231.726562 156.460938 231.757812 156.476562 231.785156 156.496094 C 231.824219 156.519531 231.863281 156.546875 231.902344 156.574219 C 231.816406 156.511719 231.933594 156.601562 231.953125 156.621094 C 231.988281 156.652344 232.019531 156.6875 232.046875 156.722656 C 232.0625 156.738281 232.078125 156.753906 232.09375 156.773438 C 232.121094 156.8125 232.070312 156.738281 232.113281 156.804688 C 232.214844 156.960938 232.285156 157.179688 232.304688 157.328125 C 232.371094 157.886719 232.15625 158.460938 231.917969 158.953125 C 231.671875 159.445312 231.367188 159.90625 231.042969 160.347656 C 230.84375 160.617188 231.808594 160.859375 231.992188 160.605469 C 232.472656 159.953125 232.921875 159.25 233.175781 158.476562 C 233.328125 158.011719 233.386719 157.492188 233.203125 157.027344 C 232.808594 156.027344 231.449219 155.804688 230.511719 155.796875 C 229.195312 155.78125 227.875 156.148438 226.679688 156.683594 C 226.082031 156.949219 225.507812 157.273438 224.980469 157.660156 C 224.234375 158.210938 223.585938 158.933594 223.042969 159.683594 C 222.136719 160.941406 221.550781 162.480469 221.722656 164.046875 C 221.882812 165.476562 222.65625 166.738281 223.746094 167.65625 C 225.109375 168.808594 226.855469 169.425781 228.601562 169.691406 C 230.460938 169.980469 232.398438 169.796875 234.1875 169.203125 C 237.207031 168.203125 239.625 165.914062 240.746094 162.933594 C 241.902344 159.851562 241.488281 156.382812 239.964844 153.5 C 238.34375 150.433594 235.910156 147.785156 233.042969 145.839844 C 230.277344 143.960938 227.089844 142.746094 223.824219 142.066406 C 220.40625 141.355469 216.898438 141.199219 213.417969 141.410156 C 209.988281 141.621094 206.582031 142.203125 203.257812 143.058594 C 201.699219 143.460938 200.15625 143.925781 198.636719 144.457031 C 198.453125 144.519531 198.414062 144.660156 198.589844 144.773438 C 198.78125 144.890625 199.085938 144.949219 199.300781 144.875 Z M 199.300781 144.875 " fill-opacity="1" fill-rule="nonzero"/></g><path fill="#42b6e9" d="M 227.0625 142.976562 C 229.921875 144.015625 232.855469 142.59375 235.027344 140.75 C 236.246094 139.71875 237.316406 138.5 238.230469 137.191406 C 239.0625 136 239.777344 134.707031 240.261719 133.332031 C 240.691406 132.113281 240.9375 130.792969 240.988281 129.503906 C 241.035156 128.390625 240.910156 127.277344 240.515625 126.226562 C 239.890625 124.550781 238.554688 123.238281 236.84375 122.6875 C 235.296875 122.1875 233.601562 122.257812 232.046875 122.714844 C 230.683594 123.121094 229.296875 123.886719 228.511719 125.113281 C 228.148438 125.679688 227.964844 126.335938 227.980469 127.007812 C 228 127.898438 228.402344 128.785156 228.90625 129.503906 C 229.539062 130.410156 230.558594 131.148438 231.652344 131.363281 C 231.988281 131.429688 232.417969 131.4375 232.699219 131.210938 C 233.0625 130.914062 233.03125 130.394531 232.9375 129.980469 C 232.773438 129.269531 232.363281 128.613281 231.953125 128.019531 C 231.890625 127.929688 231.640625 127.660156 231.535156 127.847656 C 231.425781 128.035156 231.589844 128.324219 231.691406 128.472656 C 231.753906 128.5625 231.816406 128.65625 231.878906 128.75 C 231.824219 128.667969 231.914062 128.8125 231.914062 128.8125 C 231.941406 128.855469 231.964844 128.898438 231.992188 128.9375 C 232.039062 129.019531 232.082031 129.101562 232.125 129.183594 C 232.144531 129.21875 232.164062 129.257812 232.183594 129.296875 C 232.210938 129.351562 232.207031 129.347656 232.179688 129.285156 C 232.1875 129.308594 232.199219 129.332031 232.210938 129.359375 C 232.238281 129.425781 232.265625 129.492188 232.292969 129.5625 C 232.300781 129.585938 232.335938 129.699219 232.296875 129.574219 C 232.308594 129.605469 232.316406 129.632812 232.324219 129.664062 C 232.339844 129.722656 232.351562 129.777344 232.363281 129.835938 C 232.339844 129.710938 232.363281 129.898438 232.367188 129.933594 C 232.367188 129.957031 232.363281 130.039062 232.367188 129.9375 C 232.367188 129.957031 232.363281 129.980469 232.363281 130.003906 C 232.359375 130.042969 232.351562 130.082031 232.339844 130.121094 C 232.320312 130.1875 232.363281 130.0625 232.339844 130.125 C 232.332031 130.140625 232.324219 130.15625 232.316406 130.175781 C 232.296875 130.210938 232.277344 130.246094 232.25 130.28125 C 232.199219 130.34375 232.257812 130.28125 232.210938 130.320312 C 232.183594 130.34375 232.15625 130.363281 232.125 130.382812 C 232.054688 130.421875 231.976562 130.449219 231.898438 130.46875 C 231.957031 130.457031 231.84375 130.476562 231.824219 130.480469 C 231.78125 130.484375 231.738281 130.484375 231.695312 130.488281 C 231.589844 130.488281 231.488281 130.480469 231.390625 130.464844 C 231.175781 130.433594 231.015625 130.382812 230.78125 130.289062 C 230.671875 130.246094 230.5625 130.195312 230.453125 130.140625 C 230.398438 130.109375 230.34375 130.082031 230.289062 130.050781 C 230.199219 130 230.351562 130.085938 230.261719 130.03125 C 230.222656 130.011719 230.1875 129.988281 230.152344 129.964844 C 230.042969 129.894531 229.9375 129.820312 229.835938 129.738281 C 229.78125 129.699219 229.730469 129.65625 229.679688 129.613281 C 229.667969 129.601562 229.585938 129.527344 229.664062 129.597656 C 229.628906 129.570312 229.597656 129.539062 229.566406 129.507812 C 229.46875 129.417969 229.378906 129.320312 229.292969 129.21875 C 229.382812 129.324219 229.246094 129.160156 229.226562 129.132812 C 229.179688 129.070312 229.136719 129.007812 229.09375 128.941406 C 229.183594 129.078125 229.066406 128.894531 229.046875 128.859375 C 229.015625 128.804688 228.988281 128.753906 228.960938 128.699219 C 228.9375 128.660156 228.917969 128.617188 228.894531 128.578125 C 228.882812 128.558594 228.875 128.535156 228.863281 128.515625 C 228.804688 128.402344 228.910156 128.613281 228.871094 128.535156 C 228.835938 128.457031 228.800781 128.375 228.769531 128.292969 C 228.753906 128.253906 228.742188 128.210938 228.726562 128.171875 C 228.699219 128.089844 228.765625 128.292969 228.738281 128.210938 C 228.730469 128.183594 228.722656 128.15625 228.714844 128.128906 C 228.691406 128.050781 228.671875 127.972656 228.65625 127.890625 C 228.648438 127.855469 228.625 127.710938 228.648438 127.863281 C 228.640625 127.816406 228.636719 127.773438 228.628906 127.726562 C 228.621094 127.648438 228.617188 127.574219 228.613281 127.496094 C 228.613281 127.457031 228.613281 127.421875 228.613281 127.382812 C 228.613281 127.265625 228.609375 127.441406 228.613281 127.324219 C 228.621094 127.167969 228.644531 127.015625 228.679688 126.863281 C 228.695312 126.792969 228.714844 126.71875 228.734375 126.648438 C 228.742188 126.632812 228.746094 126.613281 228.753906 126.597656 C 228.773438 126.535156 228.730469 126.660156 228.75 126.597656 C 228.765625 126.558594 228.78125 126.515625 228.796875 126.476562 C 228.855469 126.332031 228.925781 126.191406 229 126.054688 C 229.164062 125.773438 229.363281 125.515625 229.589844 125.28125 C 229.648438 125.214844 229.644531 125.21875 229.730469 125.140625 C 229.796875 125.078125 229.863281 125.019531 229.929688 124.960938 C 230.066406 124.847656 230.207031 124.738281 230.347656 124.636719 C 230.964844 124.203125 231.660156 123.882812 232.378906 123.652344 C 233.128906 123.414062 233.878906 123.285156 234.695312 123.261719 C 235.09375 123.25 235.492188 123.265625 235.890625 123.316406 C 236.085938 123.339844 236.28125 123.371094 236.476562 123.410156 C 236.523438 123.421875 236.566406 123.429688 236.613281 123.441406 C 236.636719 123.445312 236.660156 123.453125 236.683594 123.457031 C 236.613281 123.441406 236.691406 123.460938 236.703125 123.460938 C 236.800781 123.488281 236.898438 123.515625 236.996094 123.546875 C 237.367188 123.660156 237.726562 123.808594 238.066406 123.996094 C 238.109375 124.015625 238.148438 124.039062 238.1875 124.0625 C 238.257812 124.105469 238.117188 124.023438 238.1875 124.0625 C 238.207031 124.074219 238.226562 124.089844 238.246094 124.101562 C 238.332031 124.152344 238.417969 124.210938 238.5 124.265625 C 238.574219 124.320312 238.648438 124.378906 238.722656 124.433594 C 238.757812 124.464844 238.792969 124.492188 238.832031 124.523438 C 238.847656 124.539062 238.867188 124.554688 238.882812 124.570312 C 238.972656 124.644531 238.835938 124.523438 238.890625 124.574219 C 239.035156 124.707031 239.171875 124.851562 239.300781 125 C 239.324219 125.023438 239.382812 125.097656 239.285156 124.976562 C 239.300781 124.996094 239.316406 125.015625 239.332031 125.035156 C 239.363281 125.070312 239.390625 125.109375 239.421875 125.148438 C 239.484375 125.234375 239.542969 125.320312 239.601562 125.410156 C 239.671875 125.515625 239.539062 125.300781 239.625 125.441406 C 239.648438 125.484375 239.675781 125.53125 239.699219 125.574219 C 239.753906 125.667969 239.804688 125.769531 239.855469 125.867188 C 239.898438 125.957031 239.800781 125.746094 239.84375 125.839844 C 239.851562 125.863281 239.863281 125.886719 239.875 125.910156 C 239.894531 125.960938 239.917969 126.007812 239.9375 126.058594 C 239.980469 126.167969 240.023438 126.277344 240.058594 126.386719 C 240.070312 126.414062 240.101562 126.511719 240.058594 126.375 C 240.066406 126.402344 240.074219 126.425781 240.082031 126.453125 C 240.097656 126.507812 240.113281 126.5625 240.128906 126.617188 C 240.164062 126.738281 240.191406 126.859375 240.21875 126.980469 C 240.230469 127.039062 240.242188 127.097656 240.253906 127.15625 C 240.257812 127.1875 240.261719 127.214844 240.269531 127.246094 C 240.285156 127.347656 240.253906 127.152344 240.269531 127.257812 C 240.292969 127.390625 240.308594 127.527344 240.324219 127.660156 C 240.382812 128.25 240.378906 128.777344 240.332031 129.328125 C 240.230469 130.609375 239.953125 131.902344 239.472656 133.09375 C 238.914062 134.480469 238.128906 135.777344 237.234375 136.972656 C 236.285156 138.238281 235.179688 139.398438 233.917969 140.367188 C 231.941406 141.878906 229.328125 143 226.847656 142.097656 C 226.632812 142.019531 226.621094 142.261719 226.65625 142.410156 C 226.707031 142.609375 226.851562 142.898438 227.0625 142.976562 Z M 227.0625 142.976562 " fill-opacity="1" fill-rule="nonzero"/><g clip-path="url(#fd360c2ea1)"><path fill="#4569b2" d="M 133.835938 140.515625 C 134.632812 138.902344 135.691406 137.429688 137.011719 136.203125 C 138.273438 135.027344 139.746094 134.09375 141.308594 133.375 C 144.71875 131.800781 148.507812 131.203125 152.222656 130.898438 C 156.300781 130.566406 160.402344 130.613281 164.488281 130.59375 C 168.347656 130.578125 172.230469 130.542969 176.054688 129.960938 C 179.613281 129.417969 183.097656 128.261719 185.871094 125.886719 C 188.945312 123.253906 190.980469 119.375 191.191406 115.3125 C 191.300781 113.273438 190.921875 111.234375 190.082031 109.375 C 189.179688 107.382812 187.746094 105.664062 185.996094 104.363281 C 183.164062 102.257812 179.507812 101.621094 176.046875 102.007812 C 172.863281 102.367188 169.425781 103.679688 167.664062 106.511719 C 166.777344 107.9375 166.496094 109.640625 166.675781 111.296875 C 166.882812 113.246094 167.609375 115.191406 168.855469 116.722656 C 169.753906 117.828125 171.027344 118.792969 172.46875 119.015625 C 173.59375 119.1875 174.679688 118.71875 175.128906 117.636719 C 175.398438 116.988281 175.425781 116.257812 175.363281 115.566406 C 175.273438 114.5 174.949219 113.457031 174.5625 112.464844 C 174.5 112.304688 174.355469 112 174.152344 111.976562 C 173.949219 111.949219 174.0625 112.324219 174.09375 112.402344 C 174.644531 113.816406 175.273438 115.796875 174.382812 117.210938 C 173.765625 118.195312 172.527344 118.269531 171.515625 117.957031 C 170.878906 117.757812 170.289062 117.394531 169.785156 116.972656 C 169.476562 116.71875 169.246094 116.480469 168.992188 116.183594 C 168.855469 116.023438 168.765625 115.902344 168.667969 115.765625 C 168.609375 115.683594 168.550781 115.597656 168.496094 115.511719 C 168.464844 115.46875 168.4375 115.425781 168.410156 115.378906 C 168.402344 115.363281 168.304688 115.199219 168.34375 115.269531 C 167.886719 114.480469 167.609375 113.65625 167.40625 112.722656 C 167.214844 111.863281 167.15625 110.976562 167.25 110.105469 C 167.421875 108.550781 168.152344 107.113281 169.253906 106.011719 C 170.402344 104.863281 171.882812 104.085938 173.414062 103.578125 C 176.625 102.507812 180.386719 102.515625 183.558594 103.742188 C 185.367188 104.441406 186.972656 105.648438 188.214844 107.132812 C 189.453125 108.613281 190.207031 110.335938 190.496094 112.257812 C 191.09375 116.238281 189.609375 120.328125 187.039062 123.351562 C 184.585938 126.234375 181.136719 127.914062 177.488281 128.710938 C 173.816406 129.511719 170.011719 129.613281 166.269531 129.660156 C 162.171875 129.710938 158.070312 129.632812 153.976562 129.84375 C 150.164062 130.039062 146.289062 130.464844 142.667969 131.738281 C 139.355469 132.898438 136.378906 134.886719 134.382812 137.8125 C 133.972656 138.414062 133.613281 139.042969 133.292969 139.695312 C 133.203125 139.878906 133.355469 140.164062 133.453125 140.3125 C 133.496094 140.375 133.746094 140.699219 133.835938 140.515625 Z M 133.835938 140.515625 " fill-opacity="1" fill-rule="nonzero"/></g></svg>