<svg xmlns="http://www.w3.org/2000/svg" xmlns:xlink="http://www.w3.org/1999/xlink" width="500" zoomAndPan="magnify" viewBox="0 0 375 374.999991" height="500" preserveAspectRatio="xMidYMid meet" version="1.0"><defs><filter x="0%" y="0%" width="100%" height="100%" id="1dba7489cc"><feColorMatrix values="0 0 0 0 1 0 0 0 0 1 0 0 0 0 1 0 0 0 1 0" color-interpolation-filters="sRGB"/></filter><g/><mask id="b8f5cd1fcc"><g filter="url(#1dba7489cc)"><rect x="-37.5" width="450" fill="#000000" y="-37.499999" height="449.999989" fill-opacity="0.2"/></g></mask><clipPath id="8a8f4f69ed"><path d="M 28.769531 28.671875 L 326.578125 28.671875 L 326.578125 326.480469 L 28.769531 326.480469 Z M 28.769531 28.671875 " clip-rule="nonzero"/></clipPath><clipPath id="6999493282"><path d="M 177.671875 28.671875 C 95.4375 28.671875 28.769531 95.339844 28.769531 177.578125 C 28.769531 259.816406 95.4375 326.480469 177.671875 326.480469 C 259.910156 326.480469 326.578125 259.816406 326.578125 177.578125 C 326.578125 95.339844 259.910156 28.671875 177.671875 28.671875 Z M 177.671875 28.671875 " clip-rule="nonzero"/></clipPath><clipPath id="6f6d163649"><path d="M 28.769531 28.671875 L 326.519531 28.671875 L 326.519531 326.421875 L 28.769531 326.421875 Z M 28.769531 28.671875 " clip-rule="nonzero"/></clipPath><clipPath id="d38fd20a3e"><path d="M 177.667969 28.671875 C 95.433594 28.671875 28.769531 95.335938 28.769531 177.570312 C 28.769531 259.804688 95.433594 326.46875 177.667969 326.46875 C 259.902344 326.46875 326.566406 259.804688 326.566406 177.570312 C 326.566406 95.335938 259.902344 28.671875 177.667969 28.671875 Z M 177.667969 28.671875 " clip-rule="nonzero"/></clipPath><clipPath id="71b48975c0"><rect x="0" width="328" y="0" height="355"/></clipPath><clipPath id="5983676c16"><path d="M 160.210938 88.339844 L 289.210938 88.339844 L 289.210938 278.664062 L 160.210938 278.664062 Z M 160.210938 88.339844 " clip-rule="nonzero"/></clipPath><clipPath id="b2fd7f439b"><path d="M 75.769531 34.671875 L 373.519531 34.671875 L 373.519531 332.421875 L 75.769531 332.421875 Z M 75.769531 34.671875 " clip-rule="nonzero"/></clipPath><clipPath id="9d9df0acc3"><path d="M 224.667969 34.671875 C 142.433594 34.671875 75.769531 101.335938 75.769531 183.570312 C 75.769531 265.804688 142.433594 332.46875 224.667969 332.46875 C 306.902344 332.46875 373.566406 265.804688 373.566406 183.570312 C 373.566406 101.335938 306.902344 34.671875 224.667969 34.671875 Z M 224.667969 34.671875 " clip-rule="nonzero"/></clipPath><clipPath id="6ee1bf83c2"><path d="M 137 204.246094 L 149 204.246094 L 149 208 L 137 208 Z M 137 204.246094 " clip-rule="nonzero"/></clipPath><clipPath id="f83871c091"><path d="M 0 204.246094 L 135 204.246094 L 135 220 L 0 220 Z M 0 204.246094 " clip-rule="nonzero"/></clipPath><clipPath id="dd532686c3"><path d="M 0 224 L 188.25 224 L 188.25 240 L 0 240 Z M 0 224 " clip-rule="nonzero"/></clipPath><clipPath id="0d4103c3fb"><path d="M 46 243 L 188.25 243 L 188.25 260 L 46 260 Z M 46 243 " clip-rule="nonzero"/></clipPath><clipPath id="abe47d49a4"><path d="M 0 263 L 188.25 263 L 188.25 279 L 0 279 Z M 0 263 " clip-rule="nonzero"/></clipPath><clipPath id="f14d624dae"><path d="M 180 292 L 188.25 292 L 188.25 297 L 180 297 Z M 180 292 " clip-rule="nonzero"/></clipPath><clipPath id="1228374689"><path d="M 0 283 L 152 283 L 152 298.746094 L 0 298.746094 Z M 0 283 " clip-rule="nonzero"/></clipPath></defs><g mask="url(#b8f5cd1fcc)"><g transform="matrix(1, 0, 0, 1, 47, 6)"><g clip-path="url(#71b48975c0)"><g clip-path="url(#8a8f4f69ed)"><g clip-path="url(#6999493282)"><path fill="#4b0082" d="M 28.769531 28.671875 L 326.578125 28.671875 L 326.578125 326.480469 L 28.769531 326.480469 Z M 28.769531 28.671875 " fill-opacity="1" fill-rule="nonzero"/></g></g><g clip-path="url(#6f6d163649)"><g clip-path="url(#d38fd20a3e)"><path stroke-linecap="butt" transform="matrix(0.75, 0, 0, 0.75, 28.769152, 28.673084)" fill="none" stroke-linejoin="miter" d="M 198.531756 -0.00161142 C 88.885922 -0.00161142 0.000505341 88.883805 0.000505341 198.529639 C 0.000505341 308.175472 88.885922 397.060889 198.531756 397.060889 C 308.177589 397.060889 397.063006 308.175472 397.063006 198.529639 C 397.063006 88.883805 308.177589 -0.00161142 198.531756 -0.00161142 Z M 198.531756 -0.00161142 " stroke="#4b0082" stroke-width="16" stroke-opacity="1" stroke-miterlimit="4"/></g></g></g></g></g><g clip-path="url(#5983676c16)"><path fill="#53bdee" d="M 275.09375 209.105469 C 273.945312 209.59375 272.8125 210.121094 271.6875 210.675781 C 266.769531 213.09375 262.035156 216.007812 256.960938 218.222656 C 251.484375 220.617188 246.410156 222.363281 241.789062 225.976562 C 245.300781 225.878906 248.113281 225.988281 251.464844 227.023438 C 253.554688 227.671875 255.574219 228.203125 257.777344 228.398438 C 259.984375 228.589844 262.261719 228.5625 264.480469 228.539062 C 265.773438 228.527344 267.304688 228.074219 268.570312 228.308594 C 270.148438 228.597656 269.265625 229.265625 268.164062 229.589844 C 267.054688 229.914062 265.996094 229.941406 264.800781 229.941406 C 262.425781 229.945312 260.050781 230.210938 257.667969 230.292969 C 255.777344 230.359375 253.78125 230.382812 251.929688 230.203125 C 250.085938 230.023438 248.609375 229.53125 246.78125 229.707031 C 245.277344 229.847656 243.761719 229.664062 242.261719 229.835938 C 241.007812 229.980469 240.003906 230.945312 238.855469 231.460938 C 236.773438 232.398438 235.152344 234.59375 233.96875 236.511719 C 230.796875 241.652344 229.648438 247.832031 231.359375 253.671875 C 232.921875 259.015625 236.351562 264.113281 239.152344 268.535156 C 241.074219 271.574219 239.667969 273.597656 239.765625 273.867188 C 228.414062 277.703125 211.25 274.75 211.085938 274.785156 C 210.71875 272.753906 211 270.949219 211.160156 270.183594 C 212.25 265.347656 216.503906 258.910156 217.378906 256.117188 C 219.113281 250.585938 219.53125 240.125 216.695312 234.757812 C 213.554688 228.796875 203.515625 227.742188 197.621094 227.492188 C 192.082031 227.257812 186.9375 226.46875 181.726562 224.414062 C 179.523438 223.546875 177.519531 222.449219 175.535156 221.179688 C 174.621094 220.59375 171.207031 219.003906 171.425781 217.574219 C 171.945312 217.53125 172.339844 217.617188 172.816406 217.757812 C 174.816406 218.359375 176.628906 219.902344 178.585938 220.683594 C 180.84375 221.585938 183.203125 222.390625 185.546875 223.078125 C 189.023438 224.105469 193.804688 224.308594 197.019531 222.675781 C 197.242188 221.707031 195.664062 221.316406 195.027344 220.851562 C 186.625 214.75 183.125 203.019531 183.367188 198.289062 C 184.398438 198.304688 184.792969 201.042969 185.078125 201.894531 C 185.542969 203.292969 186.191406 204.78125 187.003906 206.097656 C 189.195312 209.664062 192.03125 213.328125 195.679688 215.441406 C 199.519531 217.671875 203.738281 219.117188 207.753906 220.972656 C 209.59375 221.824219 211.464844 222.628906 213.207031 223.679688 C 214.0625 224.199219 214.886719 224.777344 215.628906 225.453125 C 216.277344 226.046875 217.03125 226.304688 217.703125 225.503906 C 218.175781 224.9375 217.941406 224.289062 217.867188 223.621094 C 217.683594 221.96875 217.339844 220.335938 216.84375 218.75 C 215.222656 213.519531 211.292969 210.125 206.757812 207.273438 C 202.398438 204.535156 198.8125 201.117188 194.8125 198.121094 C 192.84375 196.648438 190.984375 195.109375 189.402344 193.226562 C 188.117188 191.695312 187.753906 190.140625 186.976562 188.335938 C 186.316406 186.796875 185.804688 185.382812 185.292969 183.816406 C 184.535156 181.492188 182.644531 177.082031 184.445312 174.789062 C 184.945312 176.511719 185.5625 178.1875 186.230469 179.917969 C 187.136719 182.257812 187.660156 184.859375 188.960938 186.976562 C 189.949219 188.582031 191.074219 189.703125 192.4375 190.988281 C 193.527344 192.011719 195.304688 194.257812 196.941406 194.234375 C 197.105469 190.953125 196.644531 187.59375 196.960938 184.285156 C 197.105469 182.828125 197.074219 175.421875 198.8125 175.425781 C 198.953125 178.203125 199.148438 180.859375 199.148438 183.660156 C 199.148438 188.171875 199.082031 191.820312 200.699219 196.066406 C 201.988281 199.449219 204.632812 201.378906 207.785156 202.976562 C 210.039062 204.117188 211.652344 206.027344 213.691406 207.238281 C 214.4375 207.683594 215.542969 208.21875 215.765625 207.035156 C 215.949219 206.054688 215.246094 204.769531 215.015625 203.8125 C 214.660156 202.339844 214.34375 200.863281 214.238281 199.347656 C 214.046875 196.605469 213.503906 193.789062 214.246094 191.257812 C 214.117188 189.566406 213.078125 187.949219 212.484375 186.472656 C 211.496094 184.011719 210.59375 181.574219 210.5 178.871094 C 210.398438 176.023438 210.691406 173.210938 211.324219 170.484375 C 211.691406 168.90625 211.621094 166.621094 212.695312 165.441406 C 213.28125 166.816406 210.480469 177.804688 216.113281 186.121094 C 216.355469 186.476562 216.417969 186.414062 216.539062 186.964844 C 217.480469 185.371094 218.960938 184.617188 220.273438 183.308594 C 223.332031 180.257812 226.808594 177.3125 229.082031 173.738281 C 229.28125 174.828125 228.761719 175.9375 228.292969 176.878906 C 227.273438 178.929688 225.738281 181.140625 224.203125 182.839844 C 222.449219 184.777344 220.273438 186.316406 218.679688 188.410156 C 216.859375 190.816406 217.0625 193.285156 217.054688 196.191406 C 217.039062 201.660156 219.972656 207.382812 221.734375 212.53125 C 222.15625 213.757812 222.644531 215.003906 223.140625 216.257812 C 224.101562 215.65625 225.234375 215.289062 226.089844 214.394531 C 228.394531 211.988281 231.28125 208.71875 232.515625 205.605469 C 233.320312 203.582031 233.878906 201.421875 234.40625 199.3125 C 235.441406 195.167969 236.582031 190.847656 237.007812 186.582031 C 237.265625 184.007812 238.824219 181.601562 237.921875 179.027344 C 236.96875 176.308594 235.1875 173.878906 234.066406 171.230469 C 233.53125 169.960938 231.039062 162.230469 232 159.429688 C 231.953125 157.675781 232.132812 156.140625 232.984375 156.261719 C 233.1875 160.246094 233.597656 164.875 235.390625 168.492188 C 236.210938 170.144531 237.195312 172.773438 239.082031 173.484375 C 241.425781 174.363281 243.625 169.769531 245.023438 168.195312 C 246.246094 166.828125 247.605469 165.734375 249.089844 164.707031 C 249.285156 166.378906 246.914062 169.160156 245.921875 170.414062 C 244.738281 171.917969 243.316406 173.304688 242.332031 174.925781 C 240.160156 178.511719 239.730469 183.304688 239 187.347656 C 238.613281 189.476562 238.785156 191.828125 238.703125 193.988281 C 238.667969 194.988281 239.046875 197.445312 238.53125 198.328125 C 240.167969 195.523438 241.300781 194.59375 241.921875 193.945312 C 243.582031 192.222656 245.535156 190.902344 247.296875 189.3125 C 249.574219 187.257812 249.09375 183.421875 250.0625 180.589844 C 250.644531 178.871094 251.179688 174.5625 252.671875 173.660156 C 254.125 177.34375 250.671875 182.179688 252.230469 185.507812 C 252.191406 185.425781 263.851562 182.058594 264.917969 181.9375 C 266.0625 181.8125 267.171875 181.507812 268.292969 181.261719 C 268.777344 181.15625 269.265625 181.160156 269.734375 181.082031 C 270.261719 180.992188 270.703125 180.699219 271.230469 180.691406 C 271.511719 181.8125 268.464844 182.664062 267.714844 182.886719 C 258.015625 185.824219 250.417969 191.015625 248.703125 192.28125 C 245.964844 194.296875 243.566406 196.777344 241.863281 199.703125 C 239.070312 204.492188 236.601562 209.238281 234.03125 214.1875 C 232.882812 216.394531 231.753906 218.613281 230.621094 220.824219 C 230.40625 221.246094 230.035156 221.683594 229.929688 222.144531 C 229.863281 222.4375 229.917969 222.730469 229.878906 223.023438 C 229.851562 223.257812 229.730469 223.429688 229.683594 223.648438 C 229.632812 223.910156 229.699219 224.222656 229.746094 224.476562 C 229.84375 224.980469 230.039062 225.484375 230.398438 225.863281 C 231.605469 227.109375 233.753906 226.285156 235.0625 225.6875 C 236.929688 224.4375 238.765625 223.160156 240.523438 221.675781 C 243.871094 218.839844 245.507812 215.410156 247.308594 211.507812 C 247.890625 210.25 248.53125 208.929688 249.371094 207.816406 C 249.949219 207.042969 250.84375 206.53125 251.574219 205.914062 C 252.011719 205.542969 252.429688 205.183594 252.847656 204.804688 C 253.542969 204.167969 254.167969 203.335938 254.960938 202.835938 C 255.050781 203.394531 254.828125 203.867188 254.574219 204.347656 C 253.441406 206.53125 251.722656 208.261719 250.582031 210.425781 C 250.039062 211.449219 249.417969 212.558594 249.0625 213.636719 C 248.820312 214.351562 248.886719 215.324219 249.359375 215.953125 C 249.761719 216.488281 250.277344 216.351562 250.894531 216.195312 C 252.3125 215.835938 253.480469 214.871094 254.871094 214.453125 C 257.371094 213.703125 260.027344 213.542969 262.480469 212.625 C 264.683594 211.796875 266.5 210.519531 268.664062 209.722656 C 270.242188 209.144531 271.832031 208.453125 273.371094 207.878906 C 274.882812 207.3125 276.488281 207.480469 278.007812 207.050781 C 278.042969 208.402344 276.042969 208.707031 275.09375 209.105469 Z M 268.261719 171.761719 C 231.164062 133.746094 224.710938 88.339844 224.710938 88.339844 C 224.710938 88.339844 218.257812 133.746094 181.164062 171.761719 C 144.066406 209.777344 165.304688 246.078125 176.324219 256.941406 C 187.347656 267.800781 202.398438 278.664062 224.710938 278.664062 C 247.023438 278.664062 262.078125 267.800781 273.097656 256.941406 C 284.121094 246.078125 305.355469 209.777344 268.261719 171.761719 " fill-opacity="1" fill-rule="nonzero"/></g><g clip-path="url(#b2fd7f439b)"><g clip-path="url(#9d9df0acc3)"><path stroke-linecap="butt" transform="matrix(0.75, 0, 0, 0.75, 75.769152, 34.673084)" fill="none" stroke-linejoin="miter" d="M 198.531757 -0.00161142 C 88.885923 -0.00161142 0.000506301 88.883805 0.000506301 198.529639 C 0.000506301 308.175472 88.885923 397.060889 198.531757 397.060889 C 308.17759 397.060889 397.063007 308.175472 397.063007 198.529639 C 397.063007 88.883805 308.17759 -0.00161142 198.531757 -0.00161142 Z M 198.531757 -0.00161142 " stroke="#4b0082" stroke-width="16" stroke-opacity="1" stroke-miterlimit="4"/></g></g><g fill="#4b0082" fill-opacity="1"><g transform="translate(146.743643, 94.710301)"><g><path d="M -9.078125 -15.46875 L -2.09375 -20.203125 C 0.625 -22.046875 3.179688 -22.847656 5.578125 -22.609375 C 7.972656 -22.378906 9.9375 -21.128906 11.46875 -18.859375 C 12.46875 -17.390625 12.992188 -15.832031 13.046875 -14.1875 C 13.109375 -12.539062 12.722656 -10.960938 11.890625 -9.453125 C 11.054688 -7.953125 9.816406 -6.644531 8.171875 -5.53125 L 0.953125 -0.640625 L 0.015625 -1.859375 L 1.375 -3.359375 C 1.34375 -3.515625 1.09375 -3.96875 0.625 -4.71875 C 0.164062 -5.46875 -0.398438 -6.347656 -1.078125 -7.359375 L -3.578125 -11.046875 C -4.296875 -12.109375 -4.914062 -12.992188 -5.4375 -13.703125 C -5.96875 -14.421875 -6.289062 -14.800781 -6.40625 -14.84375 L -8.296875 -14.15625 Z M -2.75 -17.296875 C -2.675781 -17.191406 -2.535156 -16.972656 -2.328125 -16.640625 C -2.117188 -16.304688 -1.835938 -15.867188 -1.484375 -15.328125 C -1.140625 -14.785156 -0.703125 -14.125 -0.171875 -13.34375 L 2.328125 -9.65625 C 2.617188 -9.226562 2.929688 -8.773438 3.265625 -8.296875 C 3.597656 -7.828125 3.910156 -7.398438 4.203125 -7.015625 C 4.503906 -6.628906 4.742188 -6.320312 4.921875 -6.09375 C 5.359375 -6.289062 5.78125 -6.5 6.1875 -6.71875 C 6.601562 -6.9375 6.976562 -7.15625 7.3125 -7.375 C 8.738281 -8.351562 9.539062 -9.5 9.71875 -10.8125 C 9.894531 -12.132812 9.378906 -13.6875 8.171875 -15.46875 C 7.367188 -16.65625 6.550781 -17.566406 5.71875 -18.203125 C 4.894531 -18.847656 4.078125 -19.257812 3.265625 -19.4375 C 2.453125 -19.625 1.660156 -19.628906 0.890625 -19.453125 C 0.117188 -19.273438 -0.609375 -18.957031 -1.296875 -18.5 C -1.535156 -18.332031 -1.773438 -18.148438 -2.015625 -17.953125 C -2.265625 -17.753906 -2.507812 -17.535156 -2.75 -17.296875 Z M -2.75 -17.296875 "/></g></g></g><g fill="#4b0082" fill-opacity="1"><g transform="translate(169.342308, 80.261402)"><g><path d="M 1.1875 -0.46875 L 0.546875 -1.859375 L 2.171875 -3.0625 C 2.117188 -3.175781 2.035156 -3.394531 1.921875 -3.71875 C 1.804688 -4.039062 1.660156 -4.421875 1.484375 -4.859375 C 1.316406 -5.304688 1.148438 -5.753906 0.984375 -6.203125 C 0.816406 -6.660156 0.660156 -7.070312 0.515625 -7.4375 L -1.125 -11.5625 C -1.445312 -12.351562 -1.738281 -13.0625 -2 -13.6875 C -2.269531 -14.3125 -2.5 -14.816406 -2.6875 -15.203125 C -2.875 -15.585938 -3.003906 -15.8125 -3.078125 -15.875 L -5.078125 -15.609375 L -5.546875 -17.0625 L 1.796875 -20 C 3.960938 -20.863281 5.703125 -21.15625 7.015625 -20.875 C 8.335938 -20.59375 9.296875 -19.707031 9.890625 -18.21875 C 10.253906 -17.289062 10.296875 -16.347656 10.015625 -15.390625 C 9.742188 -14.441406 9.191406 -13.5625 8.359375 -12.75 C 7.535156 -11.9375 6.484375 -11.273438 5.203125 -10.765625 L 3.359375 -10.03125 L 2.6875 -11.6875 L 3.96875 -12.1875 C 4.914062 -12.570312 5.5625 -13.164062 5.90625 -13.96875 C 6.25 -14.78125 6.234375 -15.664062 5.859375 -16.625 C 5.503906 -17.507812 4.988281 -18.085938 4.3125 -18.359375 C 3.644531 -18.628906 2.851562 -18.578125 1.9375 -18.203125 L 0.84375 -17.78125 C 0.851562 -17.71875 0.910156 -17.550781 1.015625 -17.28125 C 1.117188 -17.019531 1.25 -16.6875 1.40625 -16.28125 C 1.570312 -15.875 1.753906 -15.421875 1.953125 -14.921875 C 2.148438 -14.421875 2.363281 -13.882812 2.59375 -13.3125 L 4.328125 -8.953125 C 4.523438 -8.460938 4.742188 -7.925781 4.984375 -7.34375 C 5.222656 -6.757812 5.445312 -6.21875 5.65625 -5.71875 C 5.875 -5.21875 6.039062 -4.863281 6.15625 -4.65625 L 7.9375 -4.8125 L 8.421875 -3.359375 Z M 16.125 -6.03125 C 15.070312 -5.613281 14.066406 -5.410156 13.109375 -5.421875 C 12.148438 -5.429688 11.195312 -5.660156 10.25 -6.109375 C 9.3125 -6.566406 8.367188 -7.242188 7.421875 -8.140625 L 4.421875 -11 L 7.265625 -12.96875 L 12.515625 -9.609375 C 13.128906 -9.222656 13.703125 -8.914062 14.234375 -8.6875 C 14.765625 -8.46875 15.28125 -8.320312 15.78125 -8.25 C 16.289062 -8.175781 16.8125 -8.164062 17.34375 -8.21875 L 17.828125 -6.90625 C 17.554688 -6.726562 17.28125 -6.566406 17 -6.421875 C 16.71875 -6.285156 16.425781 -6.15625 16.125 -6.03125 Z M 16.125 -6.03125 "/></g></g></g><g fill="#4b0082" fill-opacity="1"><g transform="translate(192.114772, 71.656284)"><g><path d="M 10.890625 -1.5 C 9.035156 -1.195312 7.328125 -1.3125 5.765625 -1.84375 C 4.210938 -2.375 2.921875 -3.238281 1.890625 -4.4375 C 0.859375 -5.632812 0.195312 -7.097656 -0.09375 -8.828125 C -0.382812 -10.628906 -0.242188 -12.300781 0.328125 -13.84375 C 0.910156 -15.382812 1.859375 -16.671875 3.171875 -17.703125 C 4.484375 -18.742188 6.066406 -19.414062 7.921875 -19.71875 C 9.691406 -20.019531 11.320312 -19.90625 12.8125 -19.375 C 14.3125 -18.84375 15.5625 -17.976562 16.5625 -16.78125 C 17.5625 -15.582031 18.207031 -14.101562 18.5 -12.34375 C 18.75 -10.789062 18.679688 -9.382812 18.296875 -8.125 C 17.921875 -6.875 17.335938 -5.785156 16.546875 -4.859375 C 15.765625 -3.929688 14.875 -3.179688 13.875 -2.609375 C 12.875 -2.035156 11.878906 -1.664062 10.890625 -1.5 Z M 10.734375 -3.8125 C 11.660156 -3.957031 12.394531 -4.328125 12.9375 -4.921875 C 13.488281 -5.515625 13.84375 -6.3125 14 -7.3125 C 14.15625 -8.3125 14.117188 -9.484375 13.890625 -10.828125 C 13.640625 -12.367188 13.21875 -13.675781 12.625 -14.75 C 12.039062 -15.832031 11.34375 -16.628906 10.53125 -17.140625 C 9.726562 -17.660156 8.84375 -17.84375 7.875 -17.6875 C 6.5 -17.457031 5.507812 -16.703125 4.90625 -15.421875 C 4.3125 -14.148438 4.179688 -12.503906 4.515625 -10.484375 C 4.765625 -8.992188 5.195312 -7.722656 5.8125 -6.671875 C 6.425781 -5.628906 7.15625 -4.847656 8 -4.328125 C 8.851562 -3.816406 9.765625 -3.644531 10.734375 -3.8125 Z M 10.734375 -3.8125 "/></g></g></g><g fill="#4b0082" fill-opacity="1"><g transform="translate(218.635753, 67.898658)"><g><path d="M 2.203125 -17.8125 L 10.359375 -17.296875 L 10.359375 -15.765625 L 8.375 -15.375 C 8.34375 -15.175781 8.304688 -14.859375 8.265625 -14.421875 C 8.222656 -13.984375 8.171875 -13.453125 8.109375 -12.828125 C 8.046875 -12.210938 7.988281 -11.5 7.9375 -10.6875 L 7.75 -7.546875 C 7.675781 -6.367188 7.78125 -5.363281 8.0625 -4.53125 C 8.34375 -3.707031 8.796875 -3.070312 9.421875 -2.625 C 10.046875 -2.175781 10.828125 -1.925781 11.765625 -1.875 C 12.691406 -1.8125 13.476562 -1.957031 14.125 -2.3125 C 14.769531 -2.675781 15.269531 -3.25 15.625 -4.03125 C 15.976562 -4.820312 16.191406 -5.828125 16.265625 -7.046875 L 16.421875 -9.609375 C 16.484375 -10.546875 16.523438 -11.398438 16.546875 -12.171875 C 16.578125 -12.941406 16.59375 -13.566406 16.59375 -14.046875 C 16.59375 -14.523438 16.578125 -14.796875 16.546875 -14.859375 L 14.4375 -15.515625 L 14.625 -17.03125 L 21.40625 -16.609375 L 21.40625 -15.078125 L 19.4375 -14.6875 C 19.414062 -14.625 19.375 -14.351562 19.3125 -13.875 C 19.25 -13.40625 19.179688 -12.785156 19.109375 -12.015625 C 19.046875 -11.242188 18.984375 -10.390625 18.921875 -9.453125 L 18.734375 -6.375 C 18.628906 -4.769531 18.242188 -3.398438 17.578125 -2.265625 C 16.921875 -1.140625 16.03125 -0.296875 14.90625 0.265625 C 13.78125 0.828125 12.484375 1.0625 11.015625 0.96875 C 8.472656 0.8125 6.554688 0.015625 5.265625 -1.421875 C 3.984375 -2.867188 3.421875 -4.828125 3.578125 -7.296875 L 3.796875 -10.953125 C 3.847656 -11.796875 3.882812 -12.5625 3.90625 -13.25 C 3.9375 -13.945312 3.953125 -14.503906 3.953125 -14.921875 C 3.960938 -15.335938 3.957031 -15.578125 3.9375 -15.640625 L 2.015625 -16.28125 Z M 2.203125 -17.8125 "/></g></g></g><g fill="#4b0082" fill-opacity="1"><g transform="translate(245.180733, 70.199416)"><g><path d="M 10.78125 3.40625 C 8.914062 2.863281 7.359375 2.046875 6.109375 0.953125 C 4.859375 -0.128906 4.007812 -1.414062 3.5625 -2.90625 C 3.125 -4.40625 3.160156 -6.046875 3.671875 -7.828125 C 4.085938 -9.273438 4.710938 -10.492188 5.546875 -11.484375 C 6.378906 -12.484375 7.367188 -13.25 8.515625 -13.78125 C 9.671875 -14.320312 10.9375 -14.617188 12.3125 -14.671875 C 13.695312 -14.722656 15.144531 -14.53125 16.65625 -14.09375 C 17.550781 -13.832031 18.414062 -13.484375 19.25 -13.046875 C 20.082031 -12.609375 20.753906 -12.160156 21.265625 -11.703125 L 20.203125 -7.5 L 18.34375 -7.96875 L 18.21875 -10.9375 C 17.882812 -11.257812 17.5 -11.53125 17.0625 -11.75 C 16.625 -11.976562 16.207031 -12.144531 15.8125 -12.25 C 14.675781 -12.582031 13.625 -12.597656 12.65625 -12.296875 C 11.6875 -12.003906 10.851562 -11.429688 10.15625 -10.578125 C 9.46875 -9.722656 8.929688 -8.628906 8.546875 -7.296875 C 8.109375 -5.796875 7.984375 -4.425781 8.171875 -3.1875 C 8.367188 -1.945312 8.816406 -0.90625 9.515625 -0.0625 C 10.210938 0.769531 11.078125 1.335938 12.109375 1.640625 C 12.390625 1.722656 12.726562 1.773438 13.125 1.796875 C 13.53125 1.828125 13.910156 1.800781 14.265625 1.71875 L 13.203125 3.125 L 14.09375 0.015625 C 14.21875 -0.398438 14.335938 -0.84375 14.453125 -1.3125 C 14.566406 -1.789062 14.640625 -2.160156 14.671875 -2.421875 L 12.71875 -3.46875 L 13.234375 -4.96875 L 20.59375 -2.84375 L 20.265625 -1.34375 L 18.671875 -1.3125 C 18.585938 -1.113281 18.488281 -0.804688 18.375 -0.390625 C 18.269531 0.015625 18.15625 0.441406 18.03125 0.890625 C 17.925781 1.222656 17.820312 1.609375 17.71875 2.046875 C 17.625 2.492188 17.492188 3.003906 17.328125 3.578125 C 16.328125 3.859375 15.253906 3.976562 14.109375 3.9375 C 12.972656 3.894531 11.863281 3.71875 10.78125 3.40625 Z M 10.78125 3.40625 "/></g></g></g><g fill="#4b0082" fill-opacity="1"><g transform="translate(269.412647, 77.735733)"><g><path d="M 10.59375 5.796875 L 11.25 4.421875 L 13.140625 4.90625 C 13.234375 4.8125 13.394531 4.582031 13.625 4.21875 C 13.863281 3.863281 14.15625 3.390625 14.5 2.796875 C 14.84375 2.210938 15.203125 1.578125 15.578125 0.890625 L 17.71875 -3.015625 C 18.125 -3.753906 18.476562 -4.421875 18.78125 -5.015625 C 19.09375 -5.617188 19.335938 -6.117188 19.515625 -6.515625 C 19.703125 -6.921875 19.800781 -7.171875 19.8125 -7.265625 L 18.390625 -8.59375 L 19.203125 -9.90625 L 26.390625 -5.953125 L 25.75 -4.5625 L 23.828125 -5.0625 C 23.742188 -5.007812 23.570312 -4.78125 23.3125 -4.375 C 23.0625 -3.976562 22.753906 -3.484375 22.390625 -2.890625 C 22.035156 -2.296875 21.679688 -1.675781 21.328125 -1.03125 L 19.1875 2.875 C 18.851562 3.476562 18.535156 4.085938 18.234375 4.703125 C 17.929688 5.328125 17.679688 5.847656 17.484375 6.265625 C 17.285156 6.691406 17.175781 6.972656 17.15625 7.109375 L 18.609375 8.453125 L 17.78125 9.75 Z M 1.015625 0.5625 L 1.671875 -0.828125 L 3.578125 -0.328125 C 3.671875 -0.398438 3.832031 -0.613281 4.0625 -0.96875 C 4.289062 -1.332031 4.578125 -1.804688 4.921875 -2.390625 C 5.273438 -2.972656 5.644531 -3.617188 6.03125 -4.328125 L 8.171875 -8.234375 C 8.585938 -8.984375 8.945312 -9.660156 9.25 -10.265625 C 9.550781 -10.878906 9.796875 -11.382812 9.984375 -11.78125 C 10.171875 -12.1875 10.257812 -12.425781 10.25 -12.5 L 8.8125 -13.84375 L 9.625 -15.140625 L 16.765625 -11.234375 L 16.109375 -9.84375 L 14.21875 -10.328125 C 14.132812 -10.273438 13.972656 -10.0625 13.734375 -9.6875 C 13.503906 -9.320312 13.222656 -8.84375 12.890625 -8.25 C 12.554688 -7.664062 12.1875 -7.003906 11.78125 -6.265625 L 9.640625 -2.359375 C 9.265625 -1.671875 8.914062 -1.023438 8.59375 -0.421875 C 8.28125 0.171875 8.03125 0.660156 7.84375 1.046875 C 7.664062 1.441406 7.566406 1.707031 7.546875 1.84375 L 8.96875 3.171875 L 8.15625 4.46875 Z M 9.6875 -3.796875 L 10.796875 -5.84375 C 11.179688 -5.5625 11.644531 -5.257812 12.1875 -4.9375 C 12.726562 -4.613281 13.421875 -4.222656 14.265625 -3.765625 C 15.097656 -3.304688 15.796875 -2.929688 16.359375 -2.640625 C 16.921875 -2.359375 17.4375 -2.128906 17.90625 -1.953125 L 16.796875 0.09375 C 16.429688 -0.132812 15.976562 -0.410156 15.4375 -0.734375 C 14.894531 -1.066406 14.175781 -1.476562 13.28125 -1.96875 C 12.394531 -2.445312 11.671875 -2.828125 11.109375 -3.109375 C 10.546875 -3.390625 10.070312 -3.617188 9.6875 -3.796875 Z M 9.6875 -3.796875 "/></g></g></g><g fill="#4b0082" fill-opacity="1"><g transform="translate(292.487593, 91.19547)"><g><path d="M 25.046875 -2.171875 L 22.015625 2.375 L 20.5 1.234375 L 21.875 -2.21875 C 21.75 -2.375 21.601562 -2.523438 21.4375 -2.671875 C 21.28125 -2.828125 21.101562 -2.992188 20.90625 -3.171875 L 20.109375 -3.859375 C 19.984375 -3.972656 19.832031 -4.101562 19.65625 -4.25 C 19.476562 -4.40625 19.332031 -4.507812 19.21875 -4.5625 C 19.132812 -4.46875 18.878906 -4.1875 18.453125 -3.71875 C 18.023438 -3.257812 17.519531 -2.703125 16.9375 -2.046875 C 16.363281 -1.390625 15.785156 -0.722656 15.203125 -0.046875 L 13.34375 2.09375 C 12.59375 2.957031 11.925781 3.738281 11.34375 4.4375 C 10.757812 5.144531 10.320312 5.679688 10.03125 6.046875 L 11.75 8.109375 L 10.640625 9.25 L 3.484375 3.015625 L 4.453125 1.765625 L 6.734375 3.1875 C 7.054688 2.84375 7.523438 2.332031 8.140625 1.65625 C 8.753906 0.988281 9.4375 0.222656 10.1875 -0.640625 L 12.046875 -2.78125 C 12.628906 -3.457031 13.203125 -4.128906 13.765625 -4.796875 C 14.335938 -5.460938 14.832031 -6.03125 15.25 -6.5 C 15.664062 -6.976562 15.90625 -7.273438 15.96875 -7.390625 C 15.894531 -7.503906 15.769531 -7.632812 15.59375 -7.78125 C 15.414062 -7.9375 15.257812 -8.070312 15.125 -8.1875 L 14.3125 -8.890625 C 14.132812 -9.054688 13.945312 -9.21875 13.75 -9.375 C 13.550781 -9.539062 13.359375 -9.675781 13.171875 -9.78125 L 9.953125 -7.828125 L 8.640625 -9.21875 L 12.6875 -12.90625 C 12.84375 -12.769531 13.054688 -12.566406 13.328125 -12.296875 C 13.609375 -12.035156 13.894531 -11.757812 14.1875 -11.46875 C 14.488281 -11.1875 14.785156 -10.910156 15.078125 -10.640625 C 15.378906 -10.367188 15.632812 -10.140625 15.84375 -9.953125 L 21.6875 -4.875 C 21.90625 -4.6875 22.160156 -4.46875 22.453125 -4.21875 C 22.753906 -3.976562 23.070312 -3.722656 23.40625 -3.453125 C 23.75 -3.191406 24.0625 -2.953125 24.34375 -2.734375 C 24.632812 -2.515625 24.867188 -2.328125 25.046875 -2.171875 Z M 25.046875 -2.171875 "/></g></g></g><g fill="#4b0082" fill-opacity="1"><g transform="translate(310.336898, 107.934539)"><g/></g></g><g fill="#4b0082" fill-opacity="1"><g transform="translate(318.058622, 116.804436)"><g><path d="M 15.96875 -8.171875 L 20.28125 -0.9375 C 21.96875 1.882812 22.625 4.484375 22.25 6.859375 C 21.882812 9.242188 20.523438 11.140625 18.171875 12.546875 C 16.648438 13.453125 15.066406 13.882812 13.421875 13.84375 C 11.773438 13.8125 10.222656 13.332031 8.765625 12.40625 C 7.304688 11.488281 6.070312 10.179688 5.0625 8.484375 L 0.59375 1 L 1.859375 0.125 L 3.28125 1.5625 C 3.4375 1.539062 3.898438 1.320312 4.671875 0.90625 C 5.453125 0.488281 6.367188 -0.03125 7.421875 -0.65625 L 11.234375 -2.921875 C 12.335938 -3.578125 13.257812 -4.148438 14 -4.640625 C 14.738281 -5.128906 15.140625 -5.429688 15.203125 -5.546875 L 14.609375 -7.46875 Z M 17.421875 -1.765625 C 17.316406 -1.691406 17.085938 -1.5625 16.734375 -1.375 C 16.390625 -1.1875 15.941406 -0.929688 15.390625 -0.609375 C 14.835938 -0.285156 14.15625 0.117188 13.34375 0.609375 L 9.53125 2.875 C 9.082031 3.144531 8.609375 3.429688 8.109375 3.734375 C 7.609375 4.035156 7.15625 4.328125 6.75 4.609375 C 6.351562 4.890625 6.035156 5.109375 5.796875 5.265625 C 5.972656 5.710938 6.15625 6.144531 6.34375 6.5625 C 6.539062 6.988281 6.742188 7.375 6.953125 7.71875 C 7.835938 9.207031 8.929688 10.078125 10.234375 10.328125 C 11.546875 10.578125 13.128906 10.148438 14.984375 9.046875 C 16.203125 8.316406 17.148438 7.554688 17.828125 6.765625 C 18.515625 5.972656 18.976562 5.175781 19.21875 4.375 C 19.457031 3.570312 19.507812 2.78125 19.375 2 C 19.25 1.226562 18.972656 0.484375 18.546875 -0.234375 C 18.398438 -0.472656 18.226562 -0.722656 18.03125 -0.984375 C 17.84375 -1.242188 17.640625 -1.503906 17.421875 -1.765625 Z M 17.421875 -1.765625 "/></g></g></g><g fill="#4b0082" fill-opacity="1"><g transform="translate(331.148923, 140.256783)"><g><path d="M 4.921875 15.078125 C 4.765625 14.523438 4.578125 13.859375 4.359375 13.078125 C 4.148438 12.304688 3.941406 11.617188 3.734375 11.015625 L 0.359375 1.0625 L 1.78125 0.5 L 2.859375 2.1875 C 2.984375 2.1875 3.25 2.128906 3.65625 2.015625 C 4.0625 1.910156 4.585938 1.757812 5.234375 1.5625 C 5.890625 1.363281 6.601562 1.132812 7.375 0.875 L 11.59375 -0.546875 C 12.40625 -0.816406 13.128906 -1.070312 13.765625 -1.3125 C 14.398438 -1.550781 14.914062 -1.753906 15.3125 -1.921875 C 15.71875 -2.085938 15.945312 -2.203125 16 -2.265625 L 15.84375 -4.265625 L 17.3125 -4.6875 L 20.328125 4.203125 C 20.460938 4.597656 20.625 5.066406 20.8125 5.609375 C 21.007812 6.160156 21.210938 6.695312 21.421875 7.21875 C 21.640625 7.738281 21.820312 8.175781 21.96875 8.53125 L 17.953125 10.765625 L 17.140625 9.171875 L 19.328125 7.25 C 19.304688 6.96875 19.269531 6.722656 19.21875 6.515625 C 19.164062 6.304688 19.097656 6.09375 19.015625 5.875 L 18.28125 3.65625 C 18.15625 3.289062 18.03125 2.941406 17.90625 2.609375 C 17.78125 2.273438 17.664062 2.007812 17.5625 1.8125 C 17.40625 1.863281 17.171875 1.9375 16.859375 2.03125 C 16.546875 2.132812 16.144531 2.257812 15.65625 2.40625 C 15.175781 2.5625 14.609375 2.75 13.953125 2.96875 L 7.890625 5.03125 C 7.273438 5.238281 6.726562 5.425781 6.25 5.59375 C 5.769531 5.769531 5.367188 5.914062 5.046875 6.03125 C 4.734375 6.144531 4.492188 6.226562 4.328125 6.28125 C 4.378906 6.65625 4.457031 7.039062 4.5625 7.4375 C 4.675781 7.832031 4.832031 8.316406 5.03125 8.890625 L 5.546875 10.4375 C 5.710938 10.925781 5.84375 11.285156 5.9375 11.515625 C 6.03125 11.753906 6.109375 11.9375 6.171875 12.0625 C 6.234375 12.1875 6.300781 12.304688 6.375 12.421875 L 9.796875 13.046875 L 10.046875 14.796875 Z M 9.609375 9.390625 L 11.453125 8.453125 C 11.421875 8.304688 11.363281 8.085938 11.28125 7.796875 C 11.195312 7.503906 11.085938 7.164062 10.953125 6.78125 L 10.4375 5.265625 C 10.320312 4.941406 10.203125 4.628906 10.078125 4.328125 C 9.960938 4.035156 9.875 3.816406 9.8125 3.671875 L 11.859375 2.984375 C 11.890625 3.140625 11.945312 3.367188 12.03125 3.671875 C 12.113281 3.984375 12.210938 4.300781 12.328125 4.625 L 12.84375 6.140625 C 12.976562 6.523438 13.09375 6.859375 13.1875 7.140625 C 13.289062 7.429688 13.367188 7.644531 13.421875 7.78125 L 15.453125 7.40625 L 16 9.015625 L 10.15625 11 Z M 9.609375 9.390625 "/></g></g></g><g fill="#4b0082" fill-opacity="1"><g transform="translate(338.043046, 162.435745)"><g><path d="M 0.171875 1.265625 L 1.671875 0.96875 L 2.40625 2.71875 C 2.5 2.738281 2.753906 2.726562 3.171875 2.6875 C 3.597656 2.65625 4.148438 2.601562 4.828125 2.53125 C 5.503906 2.46875 6.253906 2.378906 7.078125 2.265625 L 11.515625 1.6875 C 12.367188 1.570312 13.128906 1.457031 13.796875 1.34375 C 14.472656 1.226562 15.015625 1.128906 15.421875 1.046875 C 15.835938 0.972656 16.070312 0.910156 16.125 0.859375 L 16.375 -1.109375 L 17.90625 -1.21875 L 19.125 7.796875 C 19.1875 8.222656 19.257812 8.722656 19.34375 9.296875 C 19.4375 9.867188 19.535156 10.4375 19.640625 11 C 19.753906 11.5625 19.847656 12.015625 19.921875 12.359375 L 15.5625 13.828125 L 15.078125 12.109375 L 17.578125 10.546875 C 17.609375 10.304688 17.617188 10.078125 17.609375 9.859375 C 17.597656 9.640625 17.570312 9.410156 17.53125 9.171875 L 17.234375 6.921875 C 17.179688 6.566406 17.117188 6.222656 17.046875 5.890625 C 16.972656 5.566406 16.90625 5.300781 16.84375 5.09375 C 16.738281 5.113281 16.617188 5.125 16.484375 5.125 C 16.347656 5.132812 16.15625 5.15625 15.90625 5.1875 C 15.664062 5.21875 15.320312 5.265625 14.875 5.328125 C 14.4375 5.390625 13.859375 5.472656 13.140625 5.578125 L 6.171875 6.5625 C 5.785156 6.613281 5.359375 6.675781 4.890625 6.75 C 4.429688 6.832031 4.023438 6.910156 3.671875 6.984375 C 3.316406 7.066406 3.097656 7.128906 3.015625 7.171875 L 2.921875 9.65625 L 1.34375 9.78125 Z M 7.3125 10.859375 L 9.40625 10.25 C 9.40625 10.007812 9.394531 9.734375 9.375 9.421875 C 9.351562 9.117188 9.320312 8.816406 9.28125 8.515625 L 9.046875 6.796875 C 8.992188 6.429688 8.9375 6.101562 8.875 5.8125 C 8.8125 5.53125 8.75 5.265625 8.6875 5.015625 L 10.828125 4.71875 C 10.835938 4.957031 10.851562 5.234375 10.875 5.546875 C 10.90625 5.859375 10.941406 6.1875 10.984375 6.53125 L 11.21875 8.25 C 11.269531 8.65625 11.328125 9.007812 11.390625 9.3125 C 11.460938 9.625 11.503906 9.84375 11.515625 9.96875 L 13.5625 10 L 13.796875 11.75 L 7.546875 12.609375 Z M 7.3125 10.859375 "/></g></g></g><g fill="#4b0082" fill-opacity="1"><g transform="translate(340.558464, 184.21449)"><g><path d="M -1.0625 15.8125 C -0.988281 15.257812 -0.90625 14.582031 -0.8125 13.78125 C -0.726562 12.976562 -0.671875 12.253906 -0.640625 11.609375 L -0.0625 1.125 L 1.46875 1.109375 L 1.859375 3.09375 C 1.953125 3.144531 2.210938 3.195312 2.640625 3.25 C 3.066406 3.300781 3.613281 3.351562 4.28125 3.40625 C 4.957031 3.46875 5.703125 3.519531 6.515625 3.5625 L 10.96875 3.8125 C 11.820312 3.863281 12.585938 3.894531 13.265625 3.90625 C 13.953125 3.925781 14.503906 3.929688 14.921875 3.921875 C 15.347656 3.910156 15.609375 3.890625 15.703125 3.859375 L 16.28125 1.921875 L 17.8125 2.109375 L 17.296875 11.484375 C 17.273438 11.898438 17.253906 12.394531 17.234375 12.96875 C 17.210938 13.550781 17.203125 14.117188 17.203125 14.671875 C 17.203125 15.234375 17.203125 15.707031 17.203125 16.09375 L 12.65625 16.65625 L 12.5 14.90625 L 15.234375 13.921875 C 15.316406 13.648438 15.375 13.40625 15.40625 13.1875 C 15.4375 12.976562 15.457031 12.753906 15.46875 12.515625 L 15.59375 10.1875 C 15.613281 9.800781 15.628906 9.429688 15.640625 9.078125 C 15.648438 8.722656 15.640625 8.429688 15.609375 8.203125 C 15.441406 8.191406 15.195312 8.175781 14.875 8.15625 C 14.5625 8.132812 14.148438 8.101562 13.640625 8.0625 C 13.128906 8.03125 12.53125 7.992188 11.84375 7.953125 L 5.4375 7.609375 C 4.789062 7.566406 4.210938 7.535156 3.703125 7.515625 C 3.203125 7.503906 2.78125 7.488281 2.4375 7.46875 C 2.101562 7.457031 1.847656 7.445312 1.671875 7.4375 C 1.585938 7.8125 1.523438 8.203125 1.484375 8.609375 C 1.441406 9.015625 1.40625 9.519531 1.375 10.125 L 1.28125 11.75 C 1.25 12.269531 1.234375 12.65625 1.234375 12.90625 C 1.234375 13.164062 1.238281 13.363281 1.25 13.5 C 1.257812 13.632812 1.273438 13.769531 1.296875 13.90625 L 4.25 15.765625 L 3.828125 17.46875 Z M 5.421875 12.296875 L 7.484375 12.109375 C 7.515625 11.972656 7.539062 11.75 7.5625 11.4375 C 7.59375 11.132812 7.617188 10.78125 7.640625 10.375 L 7.734375 8.765625 C 7.753906 8.421875 7.757812 8.085938 7.75 7.765625 C 7.75 7.441406 7.742188 7.203125 7.734375 7.046875 L 9.90625 7.171875 C 9.875 7.328125 9.835938 7.5625 9.796875 7.875 C 9.765625 8.195312 9.738281 8.53125 9.71875 8.875 L 9.625 10.484375 C 9.601562 10.890625 9.585938 11.242188 9.578125 11.546875 C 9.578125 11.859375 9.570312 12.085938 9.5625 12.234375 L 11.59375 12.640625 L 11.5 14.328125 L 5.328125 13.984375 Z M 5.421875 12.296875 "/></g></g></g><g fill="#4b0082" fill-opacity="1"><g transform="translate(338.917461, 207.245544)"><g><path d="M 1.296875 16.75 L 5.8125 17.96875 C 6.769531 18.226562 7.640625 18.457031 8.421875 18.65625 C 9.203125 18.863281 9.835938 19.015625 10.328125 19.109375 C 10.828125 19.210938 11.132812 19.257812 11.25 19.25 L 12.28125 17.328125 L 13.71875 17.8125 L 12.03125 24.0625 L 10.53125 23.765625 L 10.578125 21.75 C 10.484375 21.707031 10.195312 21.609375 9.71875 21.453125 C 9.25 21.296875 8.625 21.097656 7.84375 20.859375 C 7.0625 20.628906 6.191406 20.382812 5.234375 20.125 L -0.359375 18.625 C -1.285156 18.363281 -2.09375 18.140625 -2.78125 17.953125 C -3.476562 17.765625 -4.175781 17.578125 -4.875 17.390625 L -4.390625 15.59375 L 12.515625 7.46875 L 12.09375 9.03125 L 6.234375 7.4375 C 5.171875 7.15625 4.226562 6.910156 3.40625 6.703125 C 2.59375 6.503906 1.929688 6.347656 1.421875 6.234375 C 0.921875 6.128906 0.59375 6.09375 0.4375 6.125 L -0.578125 8.03125 L -2.046875 7.546875 L -0.3125 1.171875 L 1.1875 1.484375 L 1.15625 3.46875 C 1.28125 3.539062 1.59375 3.660156 2.09375 3.828125 C 2.601562 4.003906 3.273438 4.21875 4.109375 4.46875 C 4.941406 4.71875 5.847656 4.972656 6.828125 5.234375 L 10.734375 6.296875 C 11.265625 6.441406 11.800781 6.566406 12.34375 6.671875 C 12.882812 6.785156 13.351562 6.878906 13.75 6.953125 C 14.15625 7.035156 14.421875 7.082031 14.546875 7.09375 L 15.515625 5.359375 L 16.96875 5.84375 L 15.703125 10.515625 L 0.96875 17.953125 Z M 1.296875 16.75 "/></g></g></g><g fill="#4b0082" fill-opacity="1"><g transform="translate(331.4488, 232.658601)"><g><path d="M 15.265625 9.421875 L 11.3125 16.859375 C 9.769531 19.765625 7.878906 21.675781 5.640625 22.59375 C 3.410156 23.507812 1.085938 23.320312 -1.328125 22.03125 C -2.890625 21.195312 -4.082031 20.066406 -4.90625 18.640625 C -5.726562 17.210938 -6.117188 15.640625 -6.078125 13.921875 C -6.046875 12.203125 -5.566406 10.46875 -4.640625 8.71875 L -0.546875 1.015625 L 0.859375 1.65625 L 0.359375 3.609375 C 0.460938 3.734375 0.890625 4.019531 1.640625 4.46875 C 2.398438 4.925781 3.320312 5.441406 4.40625 6.015625 L 8.328125 8.09375 C 9.460938 8.695312 10.429688 9.1875 11.234375 9.5625 C 12.035156 9.945312 12.492188 10.132812 12.609375 10.125 L 13.953125 8.625 Z M 10.515625 13.984375 C 10.398438 13.921875 10.171875 13.796875 9.828125 13.609375 C 9.484375 13.421875 9.03125 13.171875 8.46875 12.859375 C 7.914062 12.546875 7.222656 12.164062 6.390625 11.71875 L 2.46875 9.640625 C 2.007812 9.390625 1.519531 9.128906 1 8.859375 C 0.476562 8.597656 0 8.367188 -0.4375 8.171875 C -0.882812 7.972656 -1.242188 7.816406 -1.515625 7.703125 C -1.796875 8.066406 -2.066406 8.441406 -2.328125 8.828125 C -2.585938 9.210938 -2.8125 9.585938 -3 9.953125 C -3.8125 11.472656 -3.988281 12.851562 -3.53125 14.09375 C -3.070312 15.34375 -1.890625 16.476562 0.015625 17.5 C 1.273438 18.164062 2.421875 18.585938 3.453125 18.765625 C 4.484375 18.953125 5.398438 18.9375 6.203125 18.71875 C 7.015625 18.5 7.71875 18.128906 8.3125 17.609375 C 8.914062 17.097656 9.410156 16.472656 9.796875 15.734375 C 9.929688 15.484375 10.054688 15.210938 10.171875 14.921875 C 10.296875 14.628906 10.410156 14.316406 10.515625 13.984375 Z M 10.515625 13.984375 "/></g></g></g><g fill="#4b0082" fill-opacity="1"><g transform="translate(318.167048, 256.001674)"><g><path d="M -10.359375 12 C -9.953125 11.59375 -9.472656 11.097656 -8.921875 10.515625 C -8.378906 9.929688 -7.898438 9.390625 -7.484375 8.890625 L -0.71875 0.859375 L 0.5 1.765625 L -0.375 3.578125 C -0.332031 3.679688 -0.15625 3.878906 0.15625 4.171875 C 0.46875 4.472656 0.875 4.847656 1.375 5.296875 C 1.875 5.753906 2.4375 6.242188 3.0625 6.765625 L 6.46875 9.640625 C 7.125 10.191406 7.71875 10.675781 8.25 11.09375 C 8.789062 11.519531 9.234375 11.859375 9.578125 12.109375 C 9.921875 12.359375 10.140625 12.492188 10.234375 12.515625 L 11.859375 11.328125 L 12.984375 12.390625 L 6.9375 19.578125 C 6.664062 19.890625 6.34375 20.269531 5.96875 20.71875 C 5.601562 21.164062 5.253906 21.613281 4.921875 22.0625 C 4.585938 22.507812 4.304688 22.890625 4.078125 23.203125 L 0.078125 20.921875 L 1.03125 19.421875 L 3.828125 20.28125 C 4.035156 20.125 4.21875 19.96875 4.375 19.8125 C 4.53125 19.65625 4.679688 19.488281 4.828125 19.3125 L 6.328125 17.53125 C 6.578125 17.226562 6.8125 16.9375 7.03125 16.65625 C 7.257812 16.382812 7.429688 16.148438 7.546875 15.953125 C 7.410156 15.847656 7.222656 15.6875 6.984375 15.46875 C 6.742188 15.257812 6.429688 14.984375 6.046875 14.640625 C 5.660156 14.304688 5.203125 13.921875 4.671875 13.484375 L -0.21875 9.359375 C -0.71875 8.929688 -1.164062 8.554688 -1.5625 8.234375 C -1.957031 7.921875 -2.285156 7.660156 -2.546875 7.453125 C -2.804688 7.242188 -3.003906 7.082031 -3.140625 6.96875 C -3.429688 7.207031 -3.710938 7.472656 -3.984375 7.765625 C -4.265625 8.066406 -4.601562 8.445312 -5 8.90625 L -6.046875 10.15625 C -6.378906 10.550781 -6.617188 10.847656 -6.765625 11.046875 C -6.921875 11.253906 -7.035156 11.414062 -7.109375 11.53125 C -7.179688 11.644531 -7.253906 11.757812 -7.328125 11.875 L -6.09375 15.140625 L -7.453125 16.25 Z M -3.0625 13.09375 L -1.296875 14.1875 C -1.191406 14.082031 -1.035156 13.914062 -0.828125 13.6875 C -0.617188 13.457031 -0.382812 13.1875 -0.125 12.875 L 0.921875 11.65625 C 1.140625 11.382812 1.34375 11.125 1.53125 10.875 C 1.71875 10.625 1.851562 10.425781 1.9375 10.28125 L 3.59375 11.6875 C 3.476562 11.800781 3.3125 11.96875 3.09375 12.1875 C 2.875 12.414062 2.65625 12.664062 2.4375 12.9375 L 1.390625 14.15625 C 1.128906 14.46875 0.898438 14.742188 0.703125 14.984375 C 0.515625 15.222656 0.375 15.398438 0.28125 15.515625 L 1.65625 17.078125 L 0.5625 18.359375 L -4.15625 14.375 Z M -3.0625 13.09375 "/></g></g></g><g fill="#4b0082" fill-opacity="1"><g transform="translate(302.889094, 273.397975)"><g><path d="M -1 0.796875 L 0.015625 1.9375 L -1.203125 3.5625 C -1.117188 3.65625 -0.972656 3.835938 -0.765625 4.109375 C -0.554688 4.390625 -0.3125 4.710938 -0.03125 5.078125 C 0.25 5.453125 0.535156 5.832031 0.828125 6.21875 C 1.117188 6.613281 1.382812 6.960938 1.625 7.265625 L 4.390625 10.765625 C 4.921875 11.429688 5.40625 12.023438 5.84375 12.546875 C 6.289062 13.066406 6.660156 13.484375 6.953125 13.796875 C 7.242188 14.109375 7.429688 14.285156 7.515625 14.328125 L 9.34375 13.484375 L 10.21875 14.75 L 4.015625 19.65625 C 2.191406 21.101562 0.609375 21.882812 -0.734375 22 C -2.078125 22.113281 -3.25 21.539062 -4.25 20.28125 C -4.863281 19.507812 -5.175781 18.625 -5.1875 17.625 C -5.195312 16.632812 -4.921875 15.628906 -4.359375 14.609375 C -3.796875 13.597656 -2.972656 12.660156 -1.890625 11.796875 L -0.34375 10.5625 L 0.765625 11.96875 L -0.3125 12.828125 C -1.101562 13.460938 -1.550781 14.210938 -1.65625 15.078125 C -1.757812 15.953125 -1.492188 16.789062 -0.859375 17.59375 C -0.265625 18.351562 0.390625 18.765625 1.109375 18.828125 C 1.835938 18.898438 2.585938 18.628906 3.359375 18.015625 L 4.28125 17.28125 C 4.257812 17.21875 4.160156 17.070312 3.984375 16.84375 C 3.804688 16.613281 3.582031 16.328125 3.3125 15.984375 C 3.039062 15.640625 2.738281 15.253906 2.40625 14.828125 C 2.070312 14.410156 1.710938 13.960938 1.328125 13.484375 L -1.59375 9.796875 C -1.914062 9.390625 -2.269531 8.941406 -2.65625 8.453125 C -3.050781 7.960938 -3.425781 7.507812 -3.78125 7.09375 C -4.132812 6.6875 -4.394531 6.398438 -4.5625 6.234375 L -6.21875 6.890625 L -7.109375 5.625 Z M -13.703125 10.40625 C -12.816406 9.695312 -11.910156 9.207031 -10.984375 8.9375 C -10.066406 8.675781 -9.09375 8.628906 -8.0625 8.796875 C -7.03125 8.972656 -5.9375 9.347656 -4.78125 9.921875 L -1.078125 11.796875 L -3.25 14.53125 L -9.234375 12.8125 C -9.929688 12.613281 -10.5625 12.476562 -11.125 12.40625 C -11.695312 12.34375 -12.238281 12.347656 -12.75 12.421875 C -13.269531 12.503906 -13.773438 12.644531 -14.265625 12.84375 L -15.09375 11.734375 C -14.882812 11.484375 -14.660156 11.25 -14.421875 11.03125 C -14.191406 10.8125 -13.953125 10.601562 -13.703125 10.40625 Z M -13.703125 10.40625 "/></g></g></g><path fill="#4b0082" d="M 163.972656 211.738281 C 163.867188 211.738281 163.761719 211.726562 163.652344 211.699219 L 157.535156 210.132812 C 156.84375 209.957031 156.429688 209.253906 156.605469 208.5625 C 156.78125 207.871094 157.476562 207.457031 158.175781 207.632812 L 164.292969 209.199219 C 164.984375 209.378906 165.398438 210.078125 165.222656 210.769531 C 165.074219 211.351562 164.550781 211.738281 163.972656 211.738281 Z M 163.972656 211.738281 " fill-opacity="1" fill-rule="nonzero"/><g clip-path="url(#6ee1bf83c2)"><path fill="#4b0082" d="M 147.109375 207.875 C 147.050781 207.875 146.992188 207.871094 146.929688 207.863281 C 144.503906 207.527344 141.898438 207.277344 139.183594 207.117188 C 138.46875 207.074219 137.929688 206.464844 137.96875 205.753906 C 138.011719 205.042969 138.609375 204.511719 139.332031 204.542969 C 142.117188 204.707031 144.792969 204.964844 147.285156 205.3125 C 147.992188 205.410156 148.484375 206.058594 148.386719 206.765625 C 148.296875 207.410156 147.742188 207.875 147.109375 207.875 Z M 147.109375 207.875 " fill-opacity="1" fill-rule="nonzero"/></g><path fill="#4b0082" d="M 180.148438 215.878906 C 180.042969 215.878906 179.9375 215.867188 179.828125 215.839844 L 173.894531 214.320312 C 173.207031 214.144531 172.789062 213.441406 172.96875 212.75 C 173.144531 212.0625 173.839844 211.640625 174.535156 211.824219 L 180.46875 213.339844 C 181.160156 213.515625 181.574219 214.21875 181.398438 214.910156 C 181.25 215.492188 180.726562 215.878906 180.148438 215.878906 Z M 180.148438 215.878906 " fill-opacity="1" fill-rule="nonzero"/><g clip-path="url(#f83871c091)"><path fill="#4b0082" d="M 55.976562 219.898438 C 47.960938 219.898438 39.949219 219.117188 33.847656 217.554688 L 1.121094 209.183594 C 0.429688 209.007812 0.015625 208.304688 0.191406 207.613281 C 0.367188 206.921875 1.066406 206.503906 1.761719 206.683594 L 34.488281 215.058594 C 46.339844 218.089844 65.625 218.089844 77.472656 215.058594 L 110.195312 206.683594 C 116.332031 205.113281 124.503906 204.289062 133.207031 204.34375 C 133.917969 204.351562 134.492188 204.929688 134.484375 205.644531 C 134.480469 206.351562 133.90625 206.921875 133.195312 206.921875 C 133.195312 206.921875 133.191406 206.921875 133.1875 206.921875 C 124.84375 206.855469 116.675781 207.6875 110.832031 209.183594 L 78.113281 217.554688 C 72.011719 219.117188 63.992188 219.898438 55.976562 219.898438 Z M 55.976562 219.898438 " fill-opacity="1" fill-rule="nonzero"/></g><g clip-path="url(#dd532686c3)"><path fill="#4b0082" d="M 55.976562 239.570312 C 47.964844 239.570312 39.949219 238.789062 33.847656 237.230469 L 1.121094 228.855469 C 0.429688 228.679688 0.015625 227.976562 0.191406 227.285156 C 0.367188 226.597656 1.066406 226.175781 1.761719 226.355469 L 34.488281 234.730469 C 46.339844 237.765625 65.625 237.765625 77.472656 234.730469 L 110.195312 226.355469 C 122.398438 223.234375 142.253906 223.234375 154.460938 226.355469 L 187.179688 234.730469 C 187.871094 234.90625 188.285156 235.609375 188.109375 236.300781 C 187.933594 236.988281 187.230469 237.40625 186.539062 237.226562 L 153.820312 228.855469 C 141.96875 225.824219 122.6875 225.820312 110.832031 228.855469 L 78.113281 237.226562 C 72.011719 238.789062 63.996094 239.570312 55.976562 239.570312 Z M 55.976562 239.570312 " fill-opacity="1" fill-rule="nonzero"/></g><g clip-path="url(#0d4103c3fb)"><path fill="#4b0082" d="M 55.933594 259.242188 C 53.214844 259.242188 50.476562 259.152344 47.785156 258.964844 C 47.074219 258.917969 46.539062 258.300781 46.589844 257.589844 C 46.636719 256.878906 47.246094 256.34375 47.964844 256.394531 C 58.519531 257.121094 69.828125 256.359375 77.472656 254.402344 L 110.195312 246.027344 C 122.398438 242.90625 142.253906 242.90625 154.460938 246.027344 L 187.179688 254.402344 C 187.871094 254.578125 188.285156 255.28125 188.109375 255.972656 C 187.929688 256.660156 187.230469 257.078125 186.539062 256.898438 L 153.820312 248.527344 C 141.96875 245.492188 122.683594 245.492188 110.832031 248.527344 L 78.113281 256.898438 C 72.183594 258.417969 64.148438 259.242188 55.933594 259.242188 Z M 55.933594 259.242188 " fill-opacity="1" fill-rule="nonzero"/></g><path fill="#4b0082" d="M 30.308594 255.953125 C 30.203125 255.953125 30.097656 255.941406 29.988281 255.914062 L 19.035156 253.109375 C 18.347656 252.933594 17.929688 252.230469 18.109375 251.542969 C 18.285156 250.851562 18.980469 250.433594 19.675781 250.613281 L 30.628906 253.417969 C 31.320312 253.59375 31.734375 254.296875 31.558594 254.984375 C 31.410156 255.566406 30.886719 255.953125 30.308594 255.953125 Z M 30.308594 255.953125 " fill-opacity="1" fill-rule="nonzero"/><path fill="#4b0082" d="M 7.792969 250.191406 C 7.6875 250.191406 7.582031 250.179688 7.472656 250.152344 L 1.121094 248.527344 C 0.429688 248.351562 0.015625 247.648438 0.191406 246.957031 C 0.367188 246.265625 1.066406 245.847656 1.761719 246.027344 L 8.113281 247.652344 C 8.804688 247.832031 9.21875 248.53125 9.042969 249.222656 C 8.894531 249.804688 8.371094 250.191406 7.792969 250.191406 Z M 7.792969 250.191406 " fill-opacity="1" fill-rule="nonzero"/><g clip-path="url(#abe47d49a4)"><path fill="#4b0082" d="M 55.980469 278.914062 C 47.964844 278.914062 39.949219 278.136719 33.847656 276.574219 L 1.121094 268.199219 C 0.429688 268.023438 0.015625 267.320312 0.191406 266.628906 C 0.367188 265.941406 1.066406 265.523438 1.761719 265.703125 L 34.488281 274.074219 C 46.339844 277.109375 65.625 277.109375 77.472656 274.074219 L 110.195312 265.703125 C 122.398438 262.578125 142.257812 262.578125 154.460938 265.703125 L 187.179688 274.074219 C 187.871094 274.25 188.285156 274.953125 188.109375 275.644531 C 187.933594 276.332031 187.234375 276.75 186.539062 276.574219 L 153.820312 268.199219 C 141.96875 265.167969 122.6875 265.167969 110.832031 268.199219 L 78.113281 276.574219 C 72.011719 278.136719 63.996094 278.914062 55.980469 278.914062 Z M 55.980469 278.914062 " fill-opacity="1" fill-rule="nonzero"/></g><g clip-path="url(#f14d624dae)"><path fill="#4b0082" d="M 186.859375 296.285156 C 186.753906 296.285156 186.648438 296.273438 186.539062 296.246094 L 181.152344 294.867188 C 180.464844 294.691406 180.046875 293.988281 180.222656 293.296875 C 180.402344 292.609375 181.097656 292.1875 181.792969 292.367188 L 187.179688 293.746094 C 187.871094 293.921875 188.285156 294.625 188.109375 295.316406 C 187.960938 295.898438 187.4375 296.285156 186.859375 296.285156 Z M 186.859375 296.285156 " fill-opacity="1" fill-rule="nonzero"/></g><path fill="#4b0082" d="M 175.160156 293.292969 C 175.054688 293.292969 174.949219 293.28125 174.839844 293.25 L 159.167969 289.238281 C 158.476562 289.0625 158.0625 288.359375 158.238281 287.671875 C 158.414062 286.980469 159.113281 286.5625 159.808594 286.742188 L 175.480469 290.753906 C 176.171875 290.929688 176.585938 291.632812 176.410156 292.324219 C 176.261719 292.90625 175.738281 293.292969 175.160156 293.292969 Z M 175.160156 293.292969 " fill-opacity="1" fill-rule="nonzero"/><g clip-path="url(#1228374689)"><path fill="#4b0082" d="M 55.976562 298.585938 C 47.960938 298.585938 39.949219 297.808594 33.847656 296.246094 L 1.121094 287.871094 C 0.429688 287.695312 0.015625 286.992188 0.191406 286.300781 C 0.367188 285.613281 1.066406 285.191406 1.761719 285.375 L 34.488281 293.75 C 46.339844 296.78125 65.625 296.78125 77.472656 293.746094 L 110.195312 285.375 C 121.027344 282.601562 137.941406 282.234375 150.421875 284.5 C 151.121094 284.628906 151.585938 285.300781 151.460938 286 C 151.332031 286.699219 150.664062 287.171875 149.960938 287.039062 C 138 284.867188 121.179688 285.226562 110.832031 287.871094 L 78.113281 296.246094 C 72.011719 297.808594 63.992188 298.585938 55.976562 298.585938 Z M 55.976562 298.585938 " fill-opacity="1" fill-rule="nonzero"/></g></svg>