<svg xmlns="http://www.w3.org/2000/svg" xmlns:xlink="http://www.w3.org/1999/xlink" width="500" zoomAndPan="magnify" viewBox="0 0 375 374.999991" height="500" preserveAspectRatio="xMidYMid meet" version="1.0"><defs><filter x="0%" y="0%" width="100%" height="100%" id="8494c82611"><feColorMatrix values="0 0 0 0 1 0 0 0 0 1 0 0 0 0 1 0 0 0 1 0" color-interpolation-filters="sRGB"/></filter><g/><mask id="06a2e0dabf"><g filter="url(#8494c82611)"><rect x="-37.5" width="450" fill="#000000" y="-37.499999" height="449.999989" fill-opacity="0.2"/></g></mask><clipPath id="6d7649082b"><path d="M 28.65625 28.117188 L 326.019531 28.117188 L 326.019531 325.480469 L 28.65625 325.480469 Z M 28.65625 28.117188 " clip-rule="nonzero"/></clipPath><clipPath id="afc297322e"><path d="M 177.335938 28.117188 C 95.222656 28.117188 28.65625 94.683594 28.65625 176.800781 C 28.65625 258.914062 95.222656 325.480469 177.335938 325.480469 C 259.453125 325.480469 326.019531 258.914062 326.019531 176.800781 C 326.019531 94.683594 259.453125 28.117188 177.335938 28.117188 Z M 177.335938 28.117188 " clip-rule="nonzero"/></clipPath><clipPath id="31ff5edc09"><path d="M 28.65625 28.117188 L 325.65625 28.117188 L 325.65625 325.117188 L 28.65625 325.117188 Z M 28.65625 28.117188 " clip-rule="nonzero"/></clipPath><clipPath id="f75e065bfd"><path d="M 177.332031 28.117188 C 95.21875 28.117188 28.65625 94.683594 28.65625 176.792969 C 28.65625 258.90625 95.21875 325.46875 177.332031 325.46875 C 259.441406 325.46875 326.007812 258.90625 326.007812 176.792969 C 326.007812 94.683594 259.441406 28.117188 177.332031 28.117188 Z M 177.332031 28.117188 " clip-rule="nonzero"/></clipPath><clipPath id="af913f33f8"><rect x="0" width="328" y="0" height="354"/></clipPath><clipPath id="86484576d4"><path d="M 155 86.53125 L 293 86.53125 L 293 280.78125 L 155 280.78125 Z M 155 86.53125 " clip-rule="nonzero"/></clipPath><clipPath id="25dbf1119f"><path d="M 175 162 L 270 162 L 270 280.78125 L 175 280.78125 Z M 175 162 " clip-rule="nonzero"/></clipPath><clipPath id="0c5d47f760"><path d="M 199 215 L 247 215 L 247 280.78125 L 199 280.78125 Z M 199 215 " clip-rule="nonzero"/></clipPath><clipPath id="c75483309a"><path d="M 75.65625 35.117188 L 372.65625 35.117188 L 372.65625 332.117188 L 75.65625 332.117188 Z M 75.65625 35.117188 " clip-rule="nonzero"/></clipPath><clipPath id="a74c3abebb"><path d="M 224.332031 35.117188 C 142.21875 35.117188 75.65625 101.683594 75.65625 183.792969 C 75.65625 265.90625 142.21875 332.46875 224.332031 332.46875 C 306.441406 332.46875 373.007812 265.90625 373.007812 183.792969 C 373.007812 101.683594 306.441406 35.117188 224.332031 35.117188 Z M 224.332031 35.117188 " clip-rule="nonzero"/></clipPath><clipPath id="b4e870e67c"><path d="M 137 204.441406 L 149 204.441406 L 149 209 L 137 209 Z M 137 204.441406 " clip-rule="nonzero"/></clipPath><clipPath id="5ea1566ded"><path d="M 0 204.441406 L 135 204.441406 L 135 221 L 0 221 Z M 0 204.441406 " clip-rule="nonzero"/></clipPath><clipPath id="2acb990b31"><path d="M 0 283 L 152 283 L 152 298.941406 L 0 298.941406 Z M 0 283 " clip-rule="nonzero"/></clipPath></defs><g mask="url(#06a2e0dabf)"><g transform="matrix(1, 0, 0, 1, 47, 7)"><g clip-path="url(#af913f33f8)"><g clip-path="url(#6d7649082b)"><g clip-path="url(#afc297322e)"><path fill="#00ff00" d="M 28.65625 28.117188 L 326.019531 28.117188 L 326.019531 325.480469 L 28.65625 325.480469 Z M 28.65625 28.117188 " fill-opacity="1" fill-rule="nonzero"/></g></g><g clip-path="url(#31ff5edc09)"><g clip-path="url(#f75e065bfd)"><path stroke-linecap="butt" transform="matrix(0.75, 0, 0, 0.75, 28.655817, 28.118436)" fill="none" stroke-linejoin="miter" d="M 198.234965 -0.00166522 C 88.750583 -0.00166522 0.000576944 88.753549 0.000576944 198.232723 C 0.000576944 307.717105 88.750583 396.467111 198.234965 396.467111 C 307.714139 396.467111 396.469353 307.717105 396.469353 198.232723 C 396.469353 88.753549 307.714139 -0.00166522 198.234965 -0.00166522 Z M 198.234965 -0.00166522 " stroke="#00ff00" stroke-width="16" stroke-opacity="1" stroke-miterlimit="4"/></g></g></g></g></g><g clip-path="url(#86484576d4)"><path fill="#fe3d2d" d="M 225.472656 86.519531 L 225.328125 86.613281 C 225.011719 86.765625 224.828125 87.425781 224.78125 88.59375 C 225.925781 94.289062 226.390625 99.128906 226.175781 103.105469 C 226.058594 106.121094 225.175781 109.972656 223.527344 114.671875 C 222.796875 116.640625 220.914062 119.828125 217.878906 124.230469 L 200.25 147.902344 C 198.125 151.933594 196.667969 157.203125 195.890625 163.71875 C 190.054688 153.992188 188.316406 143.136719 190.675781 131.160156 C 190.136719 130.515625 187.9375 134.464844 184.078125 143 C 181.917969 148.203125 180.179688 154.445312 178.867188 161.726562 C 178.53125 166.273438 178.703125 175.585938 179.378906 189.671875 C 179.171875 192.988281 178.742188 195.167969 178.089844 196.210938 C 176.660156 198.269531 175.25 199.179688 173.851562 198.941406 C 171.152344 198.085938 169.058594 196.484375 167.570312 194.136719 C 165.089844 191.4375 164.265625 185.753906 165.105469 177.09375 L 158.839844 193.683594 C 157.421875 198.101562 156.417969 202.476562 155.832031 206.816406 C 154.667969 214.6875 155.085938 222.949219 157.09375 231.597656 C 158.480469 237.628906 161.09375 244.078125 164.925781 250.953125 C 167.398438 254.960938 170.371094 258.917969 173.847656 262.828125 C 182.488281 270.886719 190.859375 275.976562 198.957031 278.097656 C 202.476562 279.195312 206.171875 280.007812 210.042969 280.546875 C 223.980469 280.710938 232.445312 280.242188 235.445312 279.136719 C 247.484375 277.0625 258.082031 272.917969 267.242188 266.699219 C 271.363281 263.945312 274.636719 261.105469 277.066406 258.1875 C 281.296875 253.597656 284.773438 247.957031 287.5 241.269531 C 292.015625 228.816406 293.175781 215.867188 290.980469 202.425781 C 290.265625 198.136719 287.703125 191.480469 283.292969 182.457031 C 280.421875 177.539062 273.101562 167.257812 261.332031 151.621094 C 258.878906 147.554688 257.433594 143.539062 257.003906 139.574219 C 253.527344 149.574219 251.855469 155.699219 251.980469 157.949219 L 243.734375 152.339844 C 242.15625 150.863281 240.710938 148.957031 239.402344 146.617188 C 238.042969 144.191406 237.226562 140.605469 236.957031 135.859375 C 238.832031 116.25 239.285156 105.664062 238.316406 104.09375 C 237.707031 100.480469 235.78125 96.300781 232.542969 91.5625 C 230.546875 89.140625 228.191406 87.460938 225.472656 86.519531 " fill-opacity="1" fill-rule="nonzero"/></g><g clip-path="url(#25dbf1119f)"><path fill="#fec107" d="M 215.253906 162.855469 L 215.078125 162.867188 C 214.621094 162.929688 214.222656 163.253906 213.878906 163.835938 C 213.058594 167.152344 211.75 171.085938 209.957031 175.636719 C 206.4375 182.761719 202.65625 190.914062 198.617188 200.085938 C 196.878906 203.890625 195.492188 207.910156 194.457031 212.140625 C 192.777344 219.097656 192.992188 227.347656 195.109375 236.894531 C 195.039062 237.058594 194.914062 237.140625 194.730469 237.140625 C 194.433594 237.140625 193.984375 236.925781 193.378906 236.5 C 184.800781 229.515625 179.25 224.84375 176.722656 222.488281 C 176.640625 222.382812 176.546875 222.328125 176.449219 222.328125 C 176.300781 222.328125 176.132812 222.453125 175.949219 222.703125 C 175.523438 224.242188 175.429688 226.5625 175.667969 229.671875 L 177.15625 241.140625 L 179.707031 251.65625 L 183.3125 261.210938 L 187.980469 269.808594 L 192.464844 275.792969 L 192.472656 275.792969 C 194.652344 276.769531 196.816406 277.539062 198.957031 278.097656 C 202.476562 279.195312 206.171875 280.007812 210.042969 280.546875 C 211.863281 280.566406 213.585938 280.578125 215.21875 280.578125 C 226.09375 280.578125 232.839844 280.097656 235.445312 279.136719 C 247.484375 277.0625 258.082031 272.917969 267.242188 266.699219 C 268.074219 266.144531 268.871094 265.585938 269.632812 265.023438 L 269.640625 265.023438 C 270.613281 250.113281 269.367188 234.347656 265.902344 217.734375 C 263.5625 209.375 261.390625 205.199219 259.390625 205.199219 C 259.171875 205.199219 258.957031 205.246094 258.742188 205.347656 C 258.0625 205.683594 257.449219 206.308594 256.894531 207.226562 C 252.488281 215.5625 249.460938 220.839844 247.804688 223.054688 C 245.75 226.050781 244.140625 227.546875 242.980469 227.546875 C 242.738281 227.546875 242.519531 227.484375 242.316406 227.355469 C 239.914062 209.191406 237.503906 196.972656 235.082031 190.707031 C 231.785156 183.5 228.949219 178.261719 226.570312 175.003906 C 221.972656 168.535156 218.199219 164.484375 215.253906 162.855469 Z M 215.253906 162.855469 " fill-opacity="0.996" fill-rule="nonzero"/></g><g clip-path="url(#0c5d47f760)"><path fill="#feeb3a" d="M 221.597656 215.589844 L 221.445312 215.617188 C 221.058594 215.707031 220.640625 216.257812 220.1875 217.269531 L 216.847656 227.105469 C 215.835938 230.398438 215.015625 234.066406 214.386719 238.113281 C 213.972656 241.265625 213.808594 244.171875 213.894531 246.835938 L 215.050781 260.527344 C 214.859375 260.675781 214.660156 260.75 214.449219 260.75 C 214.191406 260.75 213.921875 260.640625 213.636719 260.421875 L 202.792969 251.554688 C 201.476562 250.582031 200.589844 250.097656 200.144531 250.097656 C 200.140625 250.097656 200.132812 250.097656 200.128906 250.097656 C 198.921875 250.394531 199.113281 254.671875 200.699219 262.933594 L 202.265625 267.777344 L 204.445312 272.347656 L 207.230469 276.648438 L 210.523438 280.550781 L 210.53125 280.550781 C 212.171875 280.570312 213.734375 280.578125 215.21875 280.578125 C 226.09375 280.578125 232.839844 280.097656 235.445312 279.136719 C 238.769531 278.5625 241.984375 277.832031 245.085938 276.945312 L 245.09375 276.945312 C 245.808594 272.339844 246.257812 268.253906 246.441406 264.6875 C 246.53125 262.890625 246.558594 261.226562 246.511719 259.695312 C 246.285156 256.09375 246.070312 254.09375 245.863281 253.6875 C 245.347656 251.417969 244.785156 250.285156 244.171875 250.285156 C 244 250.285156 243.820312 250.375 243.640625 250.558594 L 237.90625 260.140625 C 237.453125 260.769531 237.050781 261.082031 236.699219 261.082031 C 236.542969 261.082031 236.394531 261.019531 236.257812 260.890625 C 236.066406 255.210938 235.722656 250.222656 235.222656 245.925781 C 234.25 238.886719 233.390625 234.601562 232.644531 233.070312 C 231.085938 229.03125 229.492188 225.632812 227.863281 222.882812 C 227.050781 221.507812 226.226562 220.292969 225.394531 219.242188 C 224.5625 218.1875 223.722656 217.296875 222.875 216.5625 Z M 221.597656 215.589844 " fill-opacity="0.996" fill-rule="nonzero"/></g><g clip-path="url(#c75483309a)"><g clip-path="url(#a74c3abebb)"><path stroke-linecap="butt" transform="matrix(0.75, 0, 0, 0.75, 75.655816, 35.118436)" fill="none" stroke-linejoin="miter" d="M 198.234966 -0.00166522 C 88.750584 -0.00166522 0.000578224 88.753549 0.000578224 198.232723 C 0.000578224 307.717105 88.750584 396.467111 198.234966 396.467111 C 307.71414 396.467111 396.469354 307.717105 396.469354 198.232723 C 396.469354 88.753549 307.71414 -0.00166522 198.234966 -0.00166522 Z M 198.234966 -0.00166522 " stroke="#00ff00" stroke-width="16" stroke-opacity="1" stroke-miterlimit="4"/></g></g><g fill="#00ff00" fill-opacity="1"><g transform="translate(133.727799, 107.37798)"><g><path d="M 11.3125 -11.09375 C 10.882812 -10.707031 10.375 -10.242188 9.78125 -9.703125 C 9.1875 -9.171875 8.660156 -8.675781 8.203125 -8.21875 L 0.796875 -0.796875 L -0.34375 -1.8125 L 0.6875 -3.53125 C 0.644531 -3.625 0.484375 -3.832031 0.203125 -4.15625 C -0.078125 -4.476562 -0.445312 -4.890625 -0.90625 -5.390625 C -1.375 -5.890625 -1.898438 -6.425781 -2.484375 -7 L -5.625 -10.140625 C -6.226562 -10.742188 -6.773438 -11.273438 -7.265625 -11.734375 C -7.765625 -12.203125 -8.175781 -12.578125 -8.5 -12.859375 C -8.820312 -13.140625 -9.03125 -13.296875 -9.125 -13.328125 L -10.84375 -12.296875 L -11.859375 -13.421875 L -5.234375 -20.0625 C -4.953125 -20.34375 -4.609375 -20.695312 -4.203125 -21.125 C -3.796875 -21.550781 -3.40625 -21.96875 -3.03125 -22.375 C -2.65625 -22.789062 -2.34375 -23.140625 -2.09375 -23.421875 L 1.6875 -20.8125 L 0.59375 -19.390625 L -2.09375 -20.484375 C -2.320312 -20.347656 -2.519531 -20.210938 -2.6875 -20.078125 C -2.851562 -19.941406 -3.019531 -19.785156 -3.1875 -19.609375 L -4.828125 -17.96875 C -5.097656 -17.695312 -5.351562 -17.429688 -5.59375 -17.171875 C -5.832031 -16.921875 -6.019531 -16.703125 -6.15625 -16.515625 C -6.039062 -16.398438 -5.867188 -16.222656 -5.640625 -15.984375 C -5.410156 -15.742188 -5.125 -15.441406 -4.78125 -15.078125 C -4.4375 -14.710938 -4.019531 -14.289062 -3.53125 -13.8125 L 1 -9.28125 C 1.457031 -8.820312 1.875 -8.414062 2.25 -8.0625 C 2.625 -7.707031 2.929688 -7.414062 3.171875 -7.1875 C 3.410156 -6.96875 3.59375 -6.796875 3.71875 -6.671875 C 4.019531 -6.878906 4.320312 -7.117188 4.625 -7.390625 C 4.925781 -7.671875 5.289062 -8.023438 5.71875 -8.453125 L 6.859375 -9.59375 C 7.234375 -9.96875 7.503906 -10.242188 7.671875 -10.421875 C 7.847656 -10.609375 7.972656 -10.753906 8.046875 -10.859375 C 8.128906 -10.972656 8.210938 -11.09375 8.296875 -11.21875 L 7.3125 -14.546875 L 8.796875 -15.53125 Z M 4.140625 -12.765625 L 2.5 -14 C 2.382812 -13.914062 2.210938 -13.765625 1.984375 -13.546875 C 1.753906 -13.335938 1.5 -13.085938 1.21875 -12.796875 L 0.078125 -11.671875 C -0.171875 -11.421875 -0.394531 -11.175781 -0.59375 -10.9375 C -0.800781 -10.707031 -0.957031 -10.523438 -1.0625 -10.390625 L -2.59375 -11.921875 C -2.46875 -12.035156 -2.285156 -12.191406 -2.046875 -12.390625 C -1.816406 -12.597656 -1.578125 -12.828125 -1.328125 -13.078125 L -0.1875 -14.203125 C 0.09375 -14.492188 0.335938 -14.75 0.546875 -14.96875 C 0.765625 -15.195312 0.925781 -15.363281 1.03125 -15.46875 L -0.21875 -17.125 L 0.96875 -18.3125 L 5.328125 -13.953125 Z M 4.140625 -12.765625 "/></g></g></g><g fill="#00ff00" fill-opacity="1"><g transform="translate(149.949496, 91.19778)"><g><path d="M -8.140625 -15.96875 L -2.703125 -19.328125 L 9.78125 -11.203125 L 9.03125 -10.75 L 6.828125 -25.21875 L 12.28125 -28.609375 L 13.15625 -27.375 L 11.75 -25.9375 C 11.882812 -25.6875 12.128906 -25.296875 12.484375 -24.765625 C 12.835938 -24.234375 13.28125 -23.550781 13.8125 -22.71875 L 16.765625 -18.28125 C 17.253906 -17.570312 17.691406 -16.941406 18.078125 -16.390625 C 18.460938 -15.847656 18.78125 -15.398438 19.03125 -15.046875 C 19.28125 -14.703125 19.441406 -14.5 19.515625 -14.4375 L 21.421875 -15.03125 L 22.15625 -13.6875 L 15.09375 -9.328125 L 14.234375 -10.59375 L 15.625 -12.03125 C 15.582031 -12.113281 15.46875 -12.320312 15.28125 -12.65625 C 15.09375 -12.988281 14.820312 -13.441406 14.46875 -14.015625 C 14.113281 -14.585938 13.679688 -15.257812 13.171875 -16.03125 L 7.6875 -24.734375 L 8.890625 -25.46875 L 11.703125 -7.125 L 10.0625 -6.109375 L -5.828125 -16.375 L -4.1875 -17.390625 L 1.34375 -8.5 C 2.164062 -7.164062 2.757812 -6.222656 3.125 -5.671875 C 3.488281 -5.117188 3.707031 -4.800781 3.78125 -4.71875 L 5.828125 -5.390625 L 6.546875 -4.046875 L 0.875 -0.546875 L 0 -1.796875 L 1.5625 -3.34375 C 1.5 -3.46875 1.359375 -3.710938 1.140625 -4.078125 C 0.929688 -4.453125 0.675781 -4.898438 0.375 -5.421875 C 0.0703125 -5.953125 -0.25 -6.492188 -0.59375 -7.046875 L -3.515625 -11.9375 C -4.066406 -12.851562 -4.503906 -13.570312 -4.828125 -14.09375 C -5.160156 -14.625 -5.398438 -15.003906 -5.546875 -15.234375 L -7.421875 -14.640625 Z M -8.140625 -15.96875 "/></g></g></g><g fill="#00ff00" fill-opacity="1"><g transform="translate(177.901732, 75.23255)"><g><path d="M 2.203125 -2.859375 C 2.222656 -3.003906 2.113281 -3.5 1.875 -4.34375 C 1.632812 -5.195312 1.328125 -6.203125 0.953125 -7.359375 L -0.4375 -11.578125 C -0.84375 -12.796875 -1.203125 -13.816406 -1.515625 -14.640625 C -1.835938 -15.472656 -2.046875 -15.929688 -2.140625 -16.015625 L -4.140625 -15.890625 L -4.53125 -17.34375 L 3.703125 -20.046875 C 5.734375 -20.710938 7.359375 -20.867188 8.578125 -20.515625 C 9.796875 -20.171875 10.628906 -19.3125 11.078125 -17.9375 C 11.429688 -16.882812 11.265625 -15.847656 10.578125 -14.828125 C 9.898438 -13.816406 8.828125 -13.015625 7.359375 -12.421875 L 7.453125 -12.734375 C 9.304688 -13.242188 10.847656 -13.285156 12.078125 -12.859375 C 13.316406 -12.441406 14.144531 -11.59375 14.5625 -10.3125 C 15.082031 -8.75 14.828125 -7.3125 13.796875 -6 C 12.765625 -4.6875 11.0625 -3.640625 8.6875 -2.859375 L 1.0625 -0.359375 L 0.515625 -1.765625 Z M 5.234375 -7.40625 C 5.484375 -6.632812 5.707031 -5.960938 5.90625 -5.390625 C 6.113281 -4.828125 6.265625 -4.445312 6.359375 -4.25 C 6.578125 -4.238281 6.867188 -4.265625 7.234375 -4.328125 C 7.597656 -4.390625 7.925781 -4.46875 8.21875 -4.5625 C 9.257812 -4.90625 9.976562 -5.425781 10.375 -6.125 C 10.769531 -6.820312 10.820312 -7.628906 10.53125 -8.546875 C 10.164062 -9.640625 9.59375 -10.335938 8.8125 -10.640625 C 8.03125 -10.953125 6.972656 -10.890625 5.640625 -10.453125 C 5.304688 -10.335938 5.015625 -10.238281 4.765625 -10.15625 C 4.515625 -10.070312 4.265625 -9.96875 4.015625 -9.84375 L 3.390625 -11.75 C 3.671875 -11.832031 3.925781 -11.90625 4.15625 -11.96875 C 4.382812 -12.03125 4.632812 -12.109375 4.90625 -12.203125 C 5.9375 -12.535156 6.625 -13.039062 6.96875 -13.71875 C 7.320312 -14.40625 7.34375 -15.234375 7.03125 -16.203125 C 6.738281 -17.066406 6.253906 -17.671875 5.578125 -18.015625 C 4.898438 -18.359375 4.035156 -18.359375 2.984375 -18.015625 L 1.90625 -17.65625 C 1.945312 -17.46875 2.066406 -17.050781 2.265625 -16.40625 C 2.472656 -15.757812 2.722656 -15.003906 3.015625 -14.140625 Z M 5.234375 -7.40625 "/></g></g></g><g fill="#00ff00" fill-opacity="1"><g transform="translate(200.647455, 68.336882)"><g><path d="M 15.75 -1.703125 C 15.175781 -1.679688 14.488281 -1.640625 13.6875 -1.578125 C 12.882812 -1.523438 12.164062 -1.460938 11.53125 -1.390625 L 1.109375 -0.140625 L 0.84375 -1.625 L 2.734375 -2.359375 C 2.753906 -2.453125 2.753906 -2.710938 2.734375 -3.140625 C 2.722656 -3.566406 2.6875 -4.117188 2.625 -4.796875 C 2.5625 -5.484375 2.484375 -6.234375 2.390625 -7.046875 L 1.859375 -11.453125 C 1.753906 -12.296875 1.648438 -13.050781 1.546875 -13.71875 C 1.441406 -14.394531 1.347656 -14.941406 1.265625 -15.359375 C 1.179688 -15.785156 1.113281 -16.039062 1.0625 -16.125 L -0.921875 -16.359375 L -1.03125 -17.890625 L 8.28125 -19 C 8.6875 -19.050781 9.175781 -19.113281 9.75 -19.1875 C 10.332031 -19.269531 10.894531 -19.359375 11.4375 -19.453125 C 11.988281 -19.554688 12.457031 -19.644531 12.84375 -19.71875 L 14.1875 -15.328125 L 12.453125 -14.875 L 11.03125 -17.40625 C 10.757812 -17.4375 10.515625 -17.445312 10.296875 -17.4375 C 10.085938 -17.4375 9.867188 -17.421875 9.640625 -17.390625 L 7.328125 -17.109375 C 6.941406 -17.066406 6.570312 -17.019531 6.21875 -16.96875 C 5.863281 -16.914062 5.582031 -16.851562 5.375 -16.78125 C 5.394531 -16.625 5.421875 -16.378906 5.453125 -16.046875 C 5.484375 -15.722656 5.519531 -15.3125 5.5625 -14.8125 C 5.613281 -14.3125 5.679688 -13.71875 5.765625 -13.03125 L 6.53125 -6.671875 C 6.613281 -6.035156 6.6875 -5.460938 6.75 -4.953125 C 6.820312 -4.441406 6.882812 -4.019531 6.9375 -3.6875 C 6.988281 -3.363281 7.023438 -3.113281 7.046875 -2.9375 C 7.410156 -2.914062 7.796875 -2.921875 8.203125 -2.953125 C 8.609375 -2.984375 9.109375 -3.035156 9.703125 -3.109375 L 11.328125 -3.296875 C 11.835938 -3.359375 12.21875 -3.410156 12.46875 -3.453125 C 12.726562 -3.492188 12.921875 -3.53125 13.046875 -3.5625 C 13.179688 -3.601562 13.316406 -3.644531 13.453125 -3.6875 L 14.75 -6.90625 L 16.515625 -6.78125 Z M 11.140625 -7.484375 L 10.625 -9.453125 C 10.476562 -9.460938 10.25 -9.453125 9.9375 -9.421875 C 9.625 -9.398438 9.265625 -9.363281 8.859375 -9.3125 L 7.265625 -9.125 C 6.921875 -9.082031 6.597656 -9.03125 6.296875 -8.96875 C 5.992188 -8.914062 5.757812 -8.867188 5.59375 -8.828125 L 5.328125 -10.984375 C 5.503906 -10.984375 5.742188 -10.988281 6.046875 -11 C 6.359375 -11.019531 6.6875 -11.050781 7.03125 -11.09375 L 8.625 -11.28125 C 9.03125 -11.332031 9.382812 -11.378906 9.6875 -11.421875 C 10 -11.472656 10.226562 -11.503906 10.375 -11.515625 L 10.40625 -13.59375 L 12.078125 -13.78125 L 12.8125 -7.671875 Z M 11.140625 -7.484375 "/></g></g></g><g fill="#00ff00" fill-opacity="1"><g transform="translate(223.649826, 66.041079)"><g><path d="M 1.28125 0.109375 L 1.3125 -1.421875 L 3.296875 -1.796875 C 3.296875 -1.910156 3.316406 -2.140625 3.359375 -2.484375 C 3.398438 -2.828125 3.441406 -3.226562 3.484375 -3.6875 C 3.535156 -4.144531 3.585938 -4.617188 3.640625 -5.109375 C 3.691406 -5.597656 3.734375 -6.035156 3.765625 -6.421875 L 4.125 -10.84375 C 4.1875 -11.6875 4.234375 -12.453125 4.265625 -13.140625 C 4.304688 -13.828125 4.328125 -14.382812 4.328125 -14.8125 C 4.335938 -15.238281 4.320312 -15.492188 4.28125 -15.578125 L 2.390625 -16.21875 L 2.609375 -17.71875 L 10.46875 -17.078125 C 12.789062 -16.890625 14.476562 -16.382812 15.53125 -15.5625 C 16.582031 -14.738281 17.046875 -13.523438 16.921875 -11.921875 C 16.835938 -10.929688 16.460938 -10.066406 15.796875 -9.328125 C 15.128906 -8.597656 14.242188 -8.054688 13.140625 -7.703125 C 12.046875 -7.347656 10.804688 -7.222656 9.421875 -7.328125 L 7.46875 -7.5 L 7.609375 -9.265625 L 8.953125 -9.15625 C 9.972656 -9.070312 10.816406 -9.3125 11.484375 -9.875 C 12.160156 -10.445312 12.539062 -11.242188 12.625 -12.265625 C 12.695312 -13.222656 12.492188 -13.96875 12.015625 -14.5 C 11.535156 -15.039062 10.800781 -15.351562 9.8125 -15.4375 L 8.65625 -15.53125 C 8.625 -15.46875 8.59375 -15.296875 8.5625 -15.015625 C 8.53125 -14.734375 8.492188 -14.375 8.453125 -13.9375 C 8.421875 -13.5 8.382812 -13.007812 8.34375 -12.46875 C 8.300781 -11.925781 8.253906 -11.359375 8.203125 -10.765625 L 7.828125 -6.09375 C 7.785156 -5.5625 7.742188 -4.976562 7.703125 -4.34375 C 7.660156 -3.71875 7.625 -3.132812 7.59375 -2.59375 C 7.570312 -2.0625 7.566406 -1.675781 7.578125 -1.4375 L 9.234375 -0.78125 L 9.015625 0.734375 Z M 17.078125 1.75 C 15.953125 1.65625 14.960938 1.390625 14.109375 0.953125 C 13.265625 0.515625 12.523438 -0.113281 11.890625 -0.9375 C 11.253906 -1.757812 10.707031 -2.78125 10.25 -4 L 8.8125 -7.875 L 12.265625 -8.375 L 15.46875 -3.046875 C 15.851562 -2.421875 16.226562 -1.890625 16.59375 -1.453125 C 16.957031 -1.023438 17.347656 -0.664062 17.765625 -0.375 C 18.191406 -0.09375 18.65625 0.140625 19.15625 0.328125 L 19.015625 1.734375 C 18.691406 1.765625 18.367188 1.78125 18.046875 1.78125 C 17.734375 1.789062 17.410156 1.78125 17.078125 1.75 Z M 17.078125 1.75 "/></g></g></g><g fill="#00ff00" fill-opacity="1"><g transform="translate(248.257737, 68.993768)"><g/></g></g><g fill="#00ff00" fill-opacity="1"><g transform="translate(259.781633, 71.762127)"><g><path d="M 14.609375 6.125 C 14.097656 5.875 13.476562 5.578125 12.75 5.234375 C 12.019531 4.898438 11.351562 4.609375 10.75 4.359375 L 1.046875 0.421875 L 1.515625 -1.015625 L 3.53125 -0.75 C 3.601562 -0.820312 3.734375 -1.046875 3.921875 -1.421875 C 4.109375 -1.804688 4.335938 -2.3125 4.609375 -2.9375 C 4.890625 -3.5625 5.179688 -4.253906 5.484375 -5.015625 L 7.15625 -9.125 C 7.476562 -9.914062 7.753906 -10.628906 7.984375 -11.265625 C 8.222656 -11.898438 8.410156 -12.421875 8.546875 -12.828125 C 8.679688 -13.242188 8.742188 -13.492188 8.734375 -13.578125 L 7.109375 -14.765625 L 7.765625 -16.140625 L 16.453125 -12.609375 C 16.828125 -12.460938 17.285156 -12.28125 17.828125 -12.0625 C 18.378906 -11.851562 18.914062 -11.65625 19.4375 -11.46875 C 19.96875 -11.289062 20.414062 -11.140625 20.78125 -11.015625 L 19.828125 -6.546875 L 18.109375 -6.984375 L 18.078125 -9.875 C 17.859375 -10.039062 17.65625 -10.171875 17.46875 -10.265625 C 17.28125 -10.359375 17.070312 -10.453125 16.84375 -10.546875 L 14.6875 -11.421875 C 14.332031 -11.566406 13.988281 -11.695312 13.65625 -11.8125 C 13.320312 -11.9375 13.039062 -12.023438 12.8125 -12.078125 C 12.757812 -11.929688 12.664062 -11.707031 12.53125 -11.40625 C 12.40625 -11.101562 12.242188 -10.722656 12.046875 -10.265625 C 11.847656 -9.804688 11.617188 -9.253906 11.359375 -8.609375 L 8.953125 -2.6875 C 8.703125 -2.082031 8.484375 -1.539062 8.296875 -1.0625 C 8.117188 -0.582031 7.96875 -0.1875 7.84375 0.125 C 7.726562 0.4375 7.640625 0.675781 7.578125 0.84375 C 7.898438 1.03125 8.242188 1.207031 8.609375 1.375 C 8.972656 1.550781 9.4375 1.753906 10 1.984375 L 11.5 2.59375 C 11.988281 2.789062 12.351562 2.929688 12.59375 3.015625 C 12.832031 3.097656 13.015625 3.15625 13.140625 3.1875 C 13.273438 3.21875 13.410156 3.253906 13.546875 3.296875 L 16.25 1.09375 L 17.71875 2.0625 Z M 13.390625 -1.140625 L 13.875 -3.140625 C 13.738281 -3.210938 13.53125 -3.3125 13.25 -3.4375 C 12.976562 -3.570312 12.648438 -3.710938 12.265625 -3.859375 L 10.78125 -4.46875 C 10.457031 -4.59375 10.148438 -4.703125 9.859375 -4.796875 C 9.566406 -4.898438 9.335938 -4.972656 9.171875 -5.015625 L 9.984375 -7.03125 C 10.128906 -6.945312 10.34375 -6.832031 10.625 -6.6875 C 10.90625 -6.550781 11.207031 -6.421875 11.53125 -6.296875 L 13.015625 -5.6875 C 13.398438 -5.539062 13.734375 -5.410156 14.015625 -5.296875 C 14.304688 -5.191406 14.519531 -5.113281 14.65625 -5.0625 L 15.703125 -6.84375 L 17.25 -6.21875 L 14.9375 -0.515625 Z M 13.390625 -1.140625 "/></g></g></g><g fill="#00ff00" fill-opacity="1"><g transform="translate(281.022017, 80.921066)"><g><path d="M 15.34375 10.140625 L 8.484375 5.609375 L 9.25 4.296875 L 11.109375 4.90625 L 10.984375 -1.15625 L 10.890625 -3.265625 L 10.671875 -11.953125 L 9.671875 -13.21875 L 10.578125 -14.4375 L 17.078125 -10.125 L 16.3125 -8.828125 L 14.796875 -9.234375 L 14.921875 -4.40625 L 14.953125 -2.375 L 15.25 7.640625 L 16.265625 8.9375 Z M 19.390625 -6.1875 L 18.34375 -7.484375 L 19.25 -8.6875 L 24.125 -5.46875 L 23.375 -4.15625 L 21.8125 -4.59375 L 14.953125 -2.375 L 10.984375 -1.15625 L 5.375 1.109375 L 6.734375 2.625 L 5.8125 3.84375 L 0.609375 0.40625 L 1.375 -0.90625 L 2.953125 -0.5 L 10.890625 -3.265625 L 14.921875 -4.40625 Z M 19.390625 -6.1875 "/></g></g></g><g fill="#00ff00" fill-opacity="1"><g transform="translate(300.620758, 94.526988)"><g><path d="M 25.09375 -0.375 L 21.765625 3.9375 L 20.328125 2.703125 L 21.9375 -0.625 C 21.820312 -0.800781 21.691406 -0.972656 21.546875 -1.140625 C 21.398438 -1.304688 21.234375 -1.484375 21.046875 -1.671875 L 20.3125 -2.40625 C 20.175781 -2.539062 20.023438 -2.6875 19.859375 -2.84375 C 19.703125 -3.007812 19.566406 -3.125 19.453125 -3.1875 C 19.367188 -3.101562 19.097656 -2.84375 18.640625 -2.40625 C 18.191406 -1.96875 17.648438 -1.441406 17.015625 -0.828125 C 16.390625 -0.210938 15.765625 0.410156 15.140625 1.046875 L 13.125 3.046875 C 12.320312 3.847656 11.601562 4.578125 10.96875 5.234375 C 10.34375 5.890625 9.867188 6.390625 9.546875 6.734375 L 11.125 8.921875 L 9.9375 9.96875 L 3.25 3.25 L 4.296875 2.078125 L 6.46875 3.640625 C 6.820312 3.335938 7.328125 2.867188 7.984375 2.234375 C 8.648438 1.609375 9.382812 0.894531 10.1875 0.09375 L 12.203125 -1.90625 C 12.828125 -2.539062 13.441406 -3.171875 14.046875 -3.796875 C 14.660156 -4.429688 15.191406 -4.96875 15.640625 -5.40625 C 16.085938 -5.851562 16.347656 -6.125 16.421875 -6.21875 C 16.359375 -6.34375 16.242188 -6.488281 16.078125 -6.65625 C 15.921875 -6.820312 15.78125 -6.96875 15.65625 -7.09375 L 14.90625 -7.84375 C 14.726562 -8.019531 14.546875 -8.191406 14.359375 -8.359375 C 14.171875 -8.523438 13.988281 -8.664062 13.8125 -8.78125 L 10.46875 -7.078125 L 9.265625 -8.5625 L 13.5625 -11.9375 C 13.707031 -11.789062 13.90625 -11.578125 14.15625 -11.296875 C 14.40625 -11.015625 14.671875 -10.71875 14.953125 -10.40625 C 15.234375 -10.09375 15.507812 -9.789062 15.78125 -9.5 C 16.050781 -9.21875 16.285156 -8.976562 16.484375 -8.78125 L 21.9375 -3.3125 C 22.144531 -3.113281 22.390625 -2.878906 22.671875 -2.609375 C 22.953125 -2.335938 23.25 -2.054688 23.5625 -1.765625 C 23.875 -1.484375 24.164062 -1.222656 24.4375 -0.984375 C 24.707031 -0.742188 24.925781 -0.539062 25.09375 -0.375 Z M 25.09375 -0.375 "/></g></g></g><g fill="#00ff00" fill-opacity="1"><g transform="translate(317.169115, 112.299478)"><g><path d="M 0.671875 0.953125 L 1.84375 0 L 3.375 1.28125 C 3.46875 1.269531 3.695312 1.148438 4.0625 0.921875 C 4.4375 0.691406 4.90625 0.390625 5.46875 0.015625 C 6.039062 -0.347656 6.660156 -0.765625 7.328125 -1.234375 L 10.953125 -3.78125 C 11.648438 -4.269531 12.273438 -4.722656 12.828125 -5.140625 C 13.378906 -5.554688 13.820312 -5.898438 14.15625 -6.171875 C 14.488281 -6.441406 14.671875 -6.613281 14.703125 -6.6875 L 13.984375 -8.53125 L 15.296875 -9.328125 L 20 -2.640625 L 18.796875 -1.6875 L 17.296875 -2.984375 C 17.210938 -2.984375 16.976562 -2.867188 16.59375 -2.640625 C 16.21875 -2.410156 15.75 -2.101562 15.1875 -1.71875 C 14.625 -1.332031 14 -0.898438 13.3125 -0.421875 L 9.6875 2.125 C 9.039062 2.582031 8.441406 3.003906 7.890625 3.390625 C 7.347656 3.785156 6.910156 4.117188 6.578125 4.390625 C 6.242188 4.671875 6.039062 4.867188 5.96875 4.984375 L 6.65625 6.84375 L 5.375 7.640625 Z M 0.671875 0.953125 "/></g></g></g><g fill="#00ff00" fill-opacity="1"><g transform="translate(326.410569, 125.478464)"><g><path d="M 11.734375 12 L 15.96875 10.046875 C 16.863281 9.640625 17.671875 9.257812 18.390625 8.90625 C 19.117188 8.5625 19.707031 8.269531 20.15625 8.03125 C 20.613281 7.789062 20.878906 7.628906 20.953125 7.546875 L 20.5 5.421875 L 21.90625 4.859375 L 24.625 10.765625 L 23.28125 11.46875 L 22.046875 9.90625 C 21.941406 9.925781 21.65625 10.023438 21.1875 10.203125 C 20.71875 10.390625 20.109375 10.644531 19.359375 10.96875 C 18.617188 11.289062 17.800781 11.65625 16.90625 12.0625 L 11.640625 14.5 C 10.773438 14.894531 10.015625 15.242188 9.359375 15.546875 C 8.703125 15.847656 8.050781 16.144531 7.40625 16.4375 L 6.625 14.75 L 14.375 -2.296875 L 15.046875 -0.828125 L 9.53125 1.703125 C 8.53125 2.160156 7.65625 2.578125 6.90625 2.953125 C 6.15625 3.328125 5.550781 3.640625 5.09375 3.890625 C 4.632812 4.140625 4.351562 4.3125 4.25 4.40625 L 4.671875 6.53125 L 3.265625 7.078125 L 0.515625 1.109375 L 1.84375 0.375 L 3.109375 1.921875 C 3.242188 1.910156 3.5625 1.800781 4.0625 1.59375 C 4.570312 1.394531 5.21875 1.125 6 0.78125 C 6.789062 0.445312 7.648438 0.0664062 8.578125 -0.359375 L 12.265625 -2.046875 C 12.765625 -2.273438 13.253906 -2.519531 13.734375 -2.78125 C 14.222656 -3.039062 14.644531 -3.269531 15 -3.46875 C 15.351562 -3.664062 15.585938 -3.800781 15.703125 -3.875 L 15.328125 -5.828125 L 16.75 -6.359375 L 18.75 -1.984375 L 12.265625 13.140625 Z M 11.734375 12 "/></g></g></g><g fill="#00ff00" fill-opacity="1"><g transform="translate(336.906818, 149.797726)"><g><path d="M 2.09375 11.109375 C 1.6875 9.203125 1.664062 7.4375 2.03125 5.8125 C 2.40625 4.195312 3.144531 2.835938 4.25 1.734375 C 5.351562 0.640625 6.8125 -0.0976562 8.625 -0.484375 C 10.082031 -0.796875 11.445312 -0.820312 12.71875 -0.5625 C 13.988281 -0.300781 15.132812 0.207031 16.15625 0.96875 C 17.175781 1.726562 18.035156 2.703125 18.734375 3.890625 C 19.441406 5.078125 19.960938 6.4375 20.296875 7.96875 C 20.492188 8.882812 20.59375 9.8125 20.59375 10.75 C 20.601562 11.695312 20.515625 12.492188 20.328125 13.140625 L 16.15625 14.203125 L 15.6875 12.34375 L 18.234375 10.828125 C 18.367188 10.390625 18.425781 9.921875 18.40625 9.421875 C 18.394531 8.921875 18.347656 8.472656 18.265625 8.078125 C 18.015625 6.929688 17.53125 6.003906 16.8125 5.296875 C 16.101562 4.585938 15.207031 4.128906 14.125 3.921875 C 13.039062 3.722656 11.820312 3.773438 10.46875 4.078125 C 8.9375 4.398438 7.671875 4.9375 6.671875 5.6875 C 5.679688 6.445312 4.976562 7.328125 4.5625 8.328125 C 4.15625 9.335938 4.066406 10.367188 4.296875 11.421875 C 4.359375 11.710938 4.472656 12.039062 4.640625 12.40625 C 4.804688 12.769531 5.007812 13.085938 5.25 13.359375 L 3.5 13.078125 L 6.65625 12.390625 C 7.0625 12.304688 7.503906 12.203125 7.984375 12.078125 C 8.460938 11.960938 8.828125 11.859375 9.078125 11.765625 L 9.078125 9.53125 L 10.640625 9.296875 L 12.25 16.765625 L 10.765625 17.1875 L 9.984375 15.796875 C 9.773438 15.816406 9.460938 15.878906 9.046875 15.984375 C 8.640625 16.085938 8.207031 16.1875 7.75 16.28125 C 7.414062 16.351562 7.03125 16.445312 6.59375 16.5625 C 6.164062 16.675781 5.65625 16.804688 5.0625 16.953125 C 4.332031 16.203125 3.710938 15.3125 3.203125 14.28125 C 2.703125 13.25 2.332031 12.191406 2.09375 11.109375 Z M 2.09375 11.109375 "/></g></g></g><g fill="#00ff00" fill-opacity="1"><g transform="translate(341.752865, 174.669096)"><g><path d="M 17.875 1.21875 L 17.8125 9.390625 L 16.296875 9.453125 L 15.796875 7.515625 C 15.585938 7.492188 15.265625 7.46875 14.828125 7.4375 C 14.390625 7.414062 13.859375 7.394531 13.234375 7.375 C 12.617188 7.351562 11.90625 7.335938 11.09375 7.328125 L 7.96875 7.3125 C 6.789062 7.300781 5.789062 7.457031 4.96875 7.78125 C 4.15625 8.113281 3.539062 8.601562 3.125 9.25 C 2.71875 9.894531 2.515625 10.6875 2.515625 11.625 C 2.503906 12.550781 2.691406 13.328125 3.078125 13.953125 C 3.472656 14.578125 4.078125 15.046875 4.890625 15.359375 C 5.703125 15.671875 6.71875 15.832031 7.9375 15.84375 L 10.484375 15.859375 C 11.421875 15.859375 12.273438 15.847656 13.046875 15.828125 C 13.816406 15.816406 14.441406 15.796875 14.921875 15.765625 C 15.398438 15.742188 15.671875 15.710938 15.734375 15.671875 L 16.265625 13.546875 L 17.78125 13.640625 L 17.734375 20.4375 L 16.21875 20.515625 L 15.71875 18.5625 C 15.65625 18.539062 15.382812 18.507812 14.90625 18.46875 C 14.425781 18.4375 13.800781 18.410156 13.03125 18.390625 C 12.257812 18.367188 11.40625 18.359375 10.46875 18.359375 L 7.390625 18.328125 C 5.785156 18.316406 4.398438 18.007812 3.234375 17.40625 C 2.078125 16.8125 1.1875 15.96875 0.5625 14.875 C -0.0625 13.789062 -0.367188 12.507812 -0.359375 11.03125 C -0.335938 8.488281 0.351562 6.535156 1.71875 5.171875 C 3.082031 3.816406 5.003906 3.144531 7.484375 3.15625 L 11.125 3.1875 C 11.976562 3.195312 12.75 3.191406 13.4375 3.171875 C 14.132812 3.160156 14.691406 3.144531 15.109375 3.125 C 15.523438 3.101562 15.765625 3.082031 15.828125 3.0625 L 16.359375 1.109375 Z M 17.875 1.21875 "/></g></g></g><g fill="#00ff00" fill-opacity="1"><g transform="translate(340.566831, 201.534822)"><g><path d="M -0.21875 1.140625 L 1.28125 1.328125 L 1.421875 3.3125 C 1.503906 3.375 1.75 3.457031 2.15625 3.5625 C 2.570312 3.664062 3.113281 3.789062 3.78125 3.9375 C 4.457031 4.09375 5.191406 4.25 5.984375 4.40625 L 10.34375 5.234375 C 11.1875 5.390625 11.941406 5.519531 12.609375 5.625 C 13.285156 5.738281 13.835938 5.820312 14.265625 5.875 C 14.703125 5.9375 14.957031 5.953125 15.03125 5.921875 L 15.859375 4.125 L 17.34375 4.5 L 15.8125 12.53125 L 14.296875 12.34375 L 14.1875 10.34375 C 14.113281 10.289062 13.863281 10.207031 13.4375 10.09375 C 13.019531 9.976562 12.472656 9.851562 11.796875 9.71875 C 11.128906 9.582031 10.382812 9.4375 9.5625 9.28125 L 5.203125 8.453125 C 4.429688 8.296875 3.710938 8.160156 3.046875 8.046875 C 2.390625 7.929688 1.84375 7.847656 1.40625 7.796875 C 0.976562 7.742188 0.703125 7.722656 0.578125 7.734375 L -0.28125 9.546875 L -1.75 9.171875 Z M -0.21875 1.140625 "/></g></g></g><g fill="#00ff00" fill-opacity="1"><g transform="translate(337.264389, 217.456902)"><g><path d="M -2.703125 6.640625 C -2.410156 5.816406 -1.972656 4.960938 -1.390625 4.078125 C -0.804688 3.191406 -0.195312 2.476562 0.4375 1.9375 L 4.734375 3.328125 L 4.171875 5.203125 L 0.875 5.109375 C 0.476562 5.410156 0.113281 5.796875 -0.21875 6.265625 C -0.550781 6.734375 -0.804688 7.203125 -0.984375 7.671875 C -1.296875 8.535156 -1.347656 9.253906 -1.140625 9.828125 C -0.941406 10.410156 -0.535156 10.816406 0.078125 11.046875 C 0.742188 11.285156 1.347656 11.28125 1.890625 11.03125 C 2.429688 10.789062 2.957031 10.40625 3.46875 9.875 C 3.988281 9.351562 4.515625 8.785156 5.046875 8.171875 C 5.578125 7.566406 6.15625 7.019531 6.78125 6.53125 C 7.40625 6.050781 8.09375 5.722656 8.84375 5.546875 C 9.59375 5.378906 10.457031 5.472656 11.4375 5.828125 C 12.46875 6.203125 13.257812 6.820312 13.8125 7.6875 C 14.375 8.550781 14.675781 9.59375 14.71875 10.8125 C 14.769531 12.03125 14.546875 13.332031 14.046875 14.71875 C 13.878906 15.164062 13.671875 15.632812 13.421875 16.125 C 13.179688 16.613281 12.910156 17.070312 12.609375 17.5 C 12.316406 17.925781 12.03125 18.289062 11.75 18.59375 L 7.4375 17.40625 L 8.015625 15.53125 L 11.140625 15.640625 C 11.660156 15.160156 12.054688 14.535156 12.328125 13.765625 C 12.609375 12.992188 12.644531 12.28125 12.4375 11.625 C 12.238281 10.96875 11.789062 10.515625 11.09375 10.265625 C 10.445312 10.035156 9.847656 10.046875 9.296875 10.296875 C 8.742188 10.554688 8.203125 10.953125 7.671875 11.484375 C 7.140625 12.023438 6.601562 12.597656 6.0625 13.203125 C 5.519531 13.816406 4.9375 14.367188 4.3125 14.859375 C 3.6875 15.347656 3.007812 15.679688 2.28125 15.859375 C 1.550781 16.035156 0.722656 15.957031 -0.203125 15.625 C -1.171875 15.269531 -1.929688 14.660156 -2.484375 13.796875 C -3.046875 12.941406 -3.351562 11.890625 -3.40625 10.640625 C -3.457031 9.398438 -3.222656 8.066406 -2.703125 6.640625 Z M -2.703125 6.640625 "/></g></g></g><g fill="#00ff00" fill-opacity="1"><g transform="translate(329.852263, 237.133098)"><g><path d="M -6.3125 10.28125 L -4.953125 11 L -5.53125 12.859375 C -5.457031 12.960938 -5.238281 13.140625 -4.875 13.390625 C -4.519531 13.648438 -4.0625 13.960938 -3.5 14.328125 C -2.9375 14.703125 -2.316406 15.09375 -1.640625 15.5 L 2.140625 17.828125 C 2.847656 18.265625 3.5 18.648438 4.09375 18.984375 C 4.6875 19.328125 5.175781 19.597656 5.5625 19.796875 C 5.945312 20.003906 6.1875 20.109375 6.28125 20.109375 L 7.703125 18.75 L 8.921875 19.625 L 4.65625 26.609375 L 3.3125 25.890625 L 3.90625 24 C 3.851562 23.925781 3.628906 23.75 3.234375 23.46875 C 2.835938 23.195312 2.351562 22.867188 1.78125 22.484375 C 1.21875 22.097656 0.625 21.710938 0 21.328125 L -3.78125 19 C -4.375 18.644531 -4.972656 18.296875 -5.578125 17.953125 C -6.191406 17.617188 -6.703125 17.34375 -7.109375 17.125 C -7.523438 16.90625 -7.789062 16.78125 -7.90625 16.75 L -9.34375 18.140625 L -10.578125 17.265625 Z M -0.609375 0.984375 L 0.734375 1.703125 L 0.15625 3.59375 C 0.21875 3.675781 0.421875 3.84375 0.765625 4.09375 C 1.117188 4.34375 1.578125 4.65625 2.140625 5.03125 C 2.710938 5.40625 3.347656 5.804688 4.046875 6.234375 L 7.828125 8.5625 C 8.554688 9.007812 9.210938 9.398438 9.796875 9.734375 C 10.390625 10.066406 10.878906 10.332031 11.265625 10.53125 C 11.660156 10.738281 11.894531 10.84375 11.96875 10.84375 L 13.390625 9.453125 L 14.625 10.328125 L 10.375 17.265625 L 9.046875 16.53125 L 9.609375 14.6875 C 9.554688 14.613281 9.351562 14.445312 9 14.1875 C 8.644531 13.9375 8.175781 13.628906 7.59375 13.265625 C 7.019531 12.898438 6.378906 12.5 5.671875 12.0625 L 1.890625 9.734375 C 1.210938 9.328125 0.582031 8.953125 0 8.609375 C -0.570312 8.265625 -1.050781 7.988281 -1.4375 7.78125 C -1.832031 7.582031 -2.085938 7.46875 -2.203125 7.4375 L -3.609375 8.78125 L -4.859375 7.921875 Z M 3.34375 9.828125 L 5.3125 11.03125 C 5 11.414062 4.664062 11.875 4.3125 12.40625 C 3.96875 12.9375 3.546875 13.601562 3.046875 14.40625 C 2.546875 15.226562 2.140625 15.910156 1.828125 16.453125 C 1.523438 17.003906 1.273438 17.5 1.078125 17.9375 L -0.890625 16.734375 C -0.660156 16.378906 -0.367188 15.941406 -0.015625 15.421875 C 0.335938 14.910156 0.78125 14.21875 1.3125 13.34375 C 1.84375 12.476562 2.257812 11.769531 2.5625 11.21875 C 2.863281 10.664062 3.125 10.203125 3.34375 9.828125 Z M 3.34375 9.828125 "/></g></g></g><g fill="#00ff00" fill-opacity="1"><g transform="translate(315.265405, 259.493138)"><g><path d="M -11.0625 11.359375 C -10.632812 10.960938 -10.128906 10.488281 -9.546875 9.9375 C -8.960938 9.382812 -8.445312 8.875 -8 8.40625 L -0.78125 0.8125 L 0.390625 1.796875 L -0.609375 3.546875 C -0.554688 3.640625 -0.390625 3.847656 -0.109375 4.171875 C 0.171875 4.492188 0.550781 4.894531 1.03125 5.375 C 1.519531 5.863281 2.0625 6.390625 2.65625 6.953125 L 5.875 10 C 6.488281 10.59375 7.046875 11.113281 7.546875 11.5625 C 8.054688 12.019531 8.476562 12.382812 8.8125 12.65625 C 9.144531 12.925781 9.351562 13.070312 9.4375 13.09375 L 11.15625 12.03125 L 12.171875 13.125 L 5.71875 19.921875 C 5.4375 20.210938 5.097656 20.570312 4.703125 21 C 4.304688 21.4375 3.925781 21.867188 3.5625 22.296875 C 3.207031 22.722656 2.90625 23.082031 2.65625 23.375 L -1.171875 20.84375 L -0.125 19.40625 L 2.578125 20.4375 C 2.796875 20.289062 2.988281 20.144531 3.15625 20 C 3.320312 19.863281 3.488281 19.710938 3.65625 19.546875 L 5.25 17.859375 C 5.519531 17.578125 5.773438 17.300781 6.015625 17.03125 C 6.253906 16.769531 6.429688 16.546875 6.546875 16.359375 C 6.429688 16.253906 6.253906 16.082031 6.015625 15.84375 C 5.785156 15.613281 5.492188 15.320312 5.140625 14.96875 C 4.785156 14.613281 4.359375 14.195312 3.859375 13.71875 L -0.78125 9.3125 C -1.25 8.863281 -1.671875 8.460938 -2.046875 8.109375 C -2.429688 7.765625 -2.742188 7.484375 -2.984375 7.265625 C -3.234375 7.046875 -3.425781 6.878906 -3.5625 6.765625 C -3.851562 6.984375 -4.144531 7.226562 -4.4375 7.5 C -4.738281 7.78125 -5.097656 8.140625 -5.515625 8.578125 L -6.625 9.765625 C -6.988281 10.140625 -7.253906 10.421875 -7.421875 10.609375 C -7.585938 10.804688 -7.707031 10.957031 -7.78125 11.0625 C -7.863281 11.175781 -7.945312 11.289062 -8.03125 11.40625 L -6.96875 14.71875 L -8.421875 15.75 Z M -3.828125 12.875 L -2.15625 14.046875 C -2.039062 13.960938 -1.875 13.8125 -1.65625 13.59375 C -1.4375 13.375 -1.1875 13.117188 -0.90625 12.828125 L 0.203125 11.65625 C 0.441406 11.414062 0.660156 11.171875 0.859375 10.921875 C 1.054688 10.679688 1.203125 10.492188 1.296875 10.359375 L 2.875 11.859375 C 2.75 11.960938 2.570312 12.125 2.34375 12.34375 C 2.113281 12.5625 1.878906 12.789062 1.640625 13.03125 L 0.53125 14.203125 C 0.25 14.492188 0.0078125 14.753906 -0.1875 14.984375 C -0.394531 15.210938 -0.550781 15.378906 -0.65625 15.484375 L 0.625 17.109375 L -0.53125 18.328125 L -4.984375 14.09375 Z M -3.828125 12.875 "/></g></g></g><g fill="#00ff00" fill-opacity="1"><g transform="translate(298.987223, 275.909211)"><g><path d="M -1.046875 0.734375 L -0.09375 1.9375 L -1.40625 3.46875 C -1.34375 3.5625 -1.210938 3.753906 -1.015625 4.046875 C -0.816406 4.335938 -0.585938 4.675781 -0.328125 5.0625 C -0.078125 5.445312 0.175781 5.84375 0.4375 6.25 C 0.707031 6.65625 0.957031 7.019531 1.1875 7.34375 L 3.71875 10.984375 C 4.207031 11.679688 4.65625 12.300781 5.0625 12.84375 C 5.476562 13.394531 5.816406 13.835938 6.078125 14.171875 C 6.347656 14.515625 6.53125 14.703125 6.625 14.734375 L 8.484375 14.015625 L 9.28125 15.3125 L 2.8125 19.828125 C 0.90625 21.171875 -0.710938 21.859375 -2.046875 21.890625 C -3.390625 21.921875 -4.523438 21.273438 -5.453125 19.953125 C -6.023438 19.140625 -6.285156 18.238281 -6.234375 17.25 C -6.179688 16.269531 -5.84375 15.289062 -5.21875 14.3125 C -4.601562 13.332031 -3.726562 12.445312 -2.59375 11.65625 L -0.96875 10.53125 L 0.046875 11.984375 L -1.078125 12.765625 C -1.910156 13.347656 -2.40625 14.066406 -2.5625 14.921875 C -2.71875 15.785156 -2.503906 16.640625 -1.921875 17.484375 C -1.367188 18.273438 -0.738281 18.722656 -0.03125 18.828125 C 0.675781 18.941406 1.4375 18.71875 2.25 18.15625 L 3.203125 17.484375 C 3.191406 17.421875 3.109375 17.269531 2.953125 17.03125 C 2.796875 16.789062 2.59375 16.492188 2.34375 16.140625 C 2.09375 15.785156 1.8125 15.382812 1.5 14.9375 C 1.1875 14.488281 0.859375 14.019531 0.515625 13.53125 L -2.15625 9.6875 C -2.46875 9.25 -2.804688 8.773438 -3.171875 8.265625 C -3.535156 7.753906 -3.878906 7.28125 -4.203125 6.84375 C -4.535156 6.414062 -4.773438 6.109375 -4.921875 5.921875 L -6.625 6.484375 L -7.421875 5.171875 Z M -14.28125 9.53125 C -13.351562 8.882812 -12.421875 8.457031 -11.484375 8.25 C -10.554688 8.050781 -9.582031 8.066406 -8.5625 8.296875 C -7.539062 8.523438 -6.472656 8.960938 -5.359375 9.609375 L -1.78125 11.6875 L -4.125 14.265625 L -9.984375 12.203125 C -10.671875 11.960938 -11.296875 11.789062 -11.859375 11.6875 C -12.429688 11.59375 -12.96875 11.566406 -13.46875 11.609375 C -13.96875 11.660156 -14.472656 11.773438 -14.984375 11.953125 L -15.765625 10.765625 C -15.535156 10.535156 -15.296875 10.316406 -15.046875 10.109375 C -14.804688 9.910156 -14.550781 9.71875 -14.28125 9.53125 Z M -14.28125 9.53125 "/></g></g></g><path fill="#00ff00" d="M 163.730469 211.921875 C 163.625 211.921875 163.515625 211.90625 163.410156 211.878906 L 157.296875 210.316406 C 156.609375 210.140625 156.195312 209.4375 156.371094 208.75 C 156.546875 208.058594 157.242188 207.640625 157.9375 207.820312 L 164.046875 209.386719 C 164.738281 209.5625 165.152344 210.261719 164.976562 210.953125 C 164.828125 211.535156 164.304688 211.921875 163.730469 211.921875 Z M 163.730469 211.921875 " fill-opacity="1" fill-rule="nonzero"/><g clip-path="url(#b4e870e67c)"><path fill="#00ff00" d="M 146.890625 208.0625 C 146.832031 208.0625 146.773438 208.058594 146.710938 208.050781 C 144.289062 207.714844 141.6875 207.464844 138.972656 207.304688 C 138.265625 207.261719 137.722656 206.652344 137.765625 205.945312 C 137.804688 205.234375 138.402344 204.703125 139.125 204.734375 C 141.902344 204.898438 144.578125 205.15625 147.066406 205.5 C 147.769531 205.597656 148.261719 206.25 148.164062 206.953125 C 148.074219 207.597656 147.523438 208.0625 146.890625 208.0625 Z M 146.890625 208.0625 " fill-opacity="1" fill-rule="nonzero"/></g><path fill="#00ff00" d="M 179.878906 216.054688 C 179.773438 216.054688 179.667969 216.039062 179.5625 216.011719 L 173.636719 214.496094 C 172.949219 214.320312 172.53125 213.621094 172.710938 212.929688 C 172.886719 212.242188 173.582031 211.824219 174.277344 212.003906 L 180.199219 213.519531 C 180.886719 213.695312 181.304688 214.394531 181.128906 215.085938 C 180.976562 215.667969 180.457031 216.054688 179.878906 216.054688 Z M 179.878906 216.054688 " fill-opacity="1" fill-rule="nonzero"/><g clip-path="url(#5ea1566ded)"><path fill="#00ff00" d="M 55.894531 220.066406 C 47.890625 220.066406 39.890625 219.289062 33.796875 217.730469 L 1.117188 209.367188 C 0.429688 209.191406 0.015625 208.488281 0.191406 207.800781 C 0.367188 207.113281 1.066406 206.691406 1.757812 206.871094 L 34.4375 215.234375 C 46.269531 218.261719 65.523438 218.261719 77.359375 215.234375 L 110.03125 206.871094 C 116.160156 205.304688 124.320312 204.480469 133.007812 204.535156 C 133.71875 204.542969 134.289062 205.121094 134.285156 205.832031 C 134.28125 206.542969 133.703125 207.109375 132.996094 207.109375 C 132.996094 207.109375 132.992188 207.109375 132.988281 207.109375 C 124.65625 207.042969 116.503906 207.875 110.667969 209.367188 L 77.996094 217.726562 C 71.902344 219.285156 63.898438 220.066406 55.894531 220.066406 Z M 55.894531 220.066406 " fill-opacity="1" fill-rule="nonzero"/></g><path fill="#00ff00" d="M 55.894531 239.710938 C 47.890625 239.710938 39.890625 238.929688 33.796875 237.371094 L 1.117188 229.011719 C 0.429688 228.835938 0.015625 228.132812 0.191406 227.441406 C 0.367188 226.753906 1.066406 226.335938 1.757812 226.515625 L 34.4375 234.878906 C 46.269531 237.90625 65.527344 237.90625 77.359375 234.875 L 110.03125 226.515625 C 122.214844 223.398438 142.042969 223.398438 154.230469 226.515625 L 186.898438 234.875 C 187.589844 235.050781 188.003906 235.753906 187.828125 236.441406 C 187.652344 237.132812 186.953125 237.546875 186.261719 237.371094 L 153.589844 229.007812 C 141.757812 225.980469 122.503906 225.980469 110.667969 229.007812 L 77.996094 237.371094 C 71.902344 238.929688 63.898438 239.710938 55.894531 239.710938 Z M 55.894531 239.710938 " fill-opacity="1" fill-rule="nonzero"/><path fill="#00ff00" d="M 55.851562 259.351562 C 53.136719 259.351562 50.402344 259.261719 47.714844 259.078125 C 47.003906 259.027344 46.46875 258.414062 46.519531 257.703125 C 46.566406 256.996094 47.175781 256.457031 47.890625 256.507812 C 58.433594 257.234375 69.726562 256.472656 77.359375 254.519531 L 110.03125 246.160156 C 122.214844 243.039062 142.042969 243.039062 154.230469 246.160156 L 186.898438 254.519531 C 187.589844 254.695312 188.003906 255.398438 187.828125 256.085938 C 187.652344 256.773438 186.953125 257.191406 186.261719 257.011719 L 153.589844 248.652344 C 141.753906 245.625 122.5 245.625 110.667969 248.652344 L 77.996094 257.011719 C 72.074219 258.53125 64.054688 259.351562 55.851562 259.351562 Z M 55.851562 259.351562 " fill-opacity="1" fill-rule="nonzero"/><path fill="#00ff00" d="M 30.265625 256.070312 C 30.160156 256.070312 30.050781 256.058594 29.945312 256.027344 L 19.007812 253.230469 C 18.320312 253.054688 17.902344 252.351562 18.082031 251.664062 C 18.257812 250.976562 18.953125 250.554688 19.648438 250.734375 L 30.585938 253.535156 C 31.273438 253.710938 31.6875 254.414062 31.511719 255.101562 C 31.363281 255.683594 30.839844 256.070312 30.265625 256.070312 Z M 30.265625 256.070312 " fill-opacity="1" fill-rule="nonzero"/><path fill="#00ff00" d="M 7.78125 250.316406 C 7.675781 250.316406 7.570312 250.304688 7.460938 250.277344 L 1.117188 248.652344 C 0.429688 248.476562 0.015625 247.773438 0.191406 247.085938 C 0.367188 246.394531 1.066406 245.980469 1.757812 246.15625 L 8.101562 247.78125 C 8.789062 247.957031 9.207031 248.660156 9.027344 249.347656 C 8.878906 249.929688 8.355469 250.316406 7.78125 250.316406 Z M 7.78125 250.316406 " fill-opacity="1" fill-rule="nonzero"/><path fill="#00ff00" d="M 55.898438 278.996094 C 47.890625 278.996094 39.890625 278.21875 33.796875 276.65625 L 1.117188 268.296875 C 0.429688 268.121094 0.015625 267.417969 0.191406 266.730469 C 0.367188 266.042969 1.066406 265.621094 1.757812 265.800781 L 34.4375 274.164062 C 46.269531 277.191406 65.527344 277.191406 77.359375 274.164062 L 110.03125 265.800781 C 122.21875 262.683594 142.042969 262.683594 154.230469 265.800781 L 186.898438 274.164062 C 187.589844 274.339844 188.003906 275.039062 187.828125 275.730469 C 187.652344 276.417969 186.953125 276.835938 186.261719 276.65625 L 153.589844 268.296875 C 141.757812 265.269531 122.503906 265.269531 110.667969 268.296875 L 77.996094 276.65625 C 71.902344 278.21875 63.898438 278.996094 55.898438 278.996094 Z M 55.898438 278.996094 " fill-opacity="1" fill-rule="nonzero"/><path fill="#00ff00" d="M 186.582031 296.339844 C 186.476562 296.339844 186.367188 296.328125 186.261719 296.300781 L 180.882812 294.921875 C 180.195312 294.746094 179.777344 294.046875 179.953125 293.355469 C 180.132812 292.667969 180.828125 292.25 181.519531 292.429688 L 186.898438 293.804688 C 187.589844 293.980469 188.003906 294.683594 187.828125 295.371094 C 187.679688 295.953125 187.15625 296.339844 186.582031 296.339844 Z M 186.582031 296.339844 " fill-opacity="1" fill-rule="nonzero"/><path fill="#00ff00" d="M 174.898438 293.351562 C 174.792969 293.351562 174.6875 293.339844 174.578125 293.3125 L 158.929688 289.304688 C 158.242188 289.128906 157.824219 288.425781 158 287.738281 C 158.179688 287.050781 158.875 286.628906 159.566406 286.8125 L 175.21875 290.816406 C 175.90625 290.992188 176.324219 291.695312 176.148438 292.382812 C 175.996094 292.964844 175.472656 293.351562 174.898438 293.351562 Z M 174.898438 293.351562 " fill-opacity="1" fill-rule="nonzero"/><g clip-path="url(#2acb990b31)"><path fill="#00ff00" d="M 55.894531 298.636719 C 47.890625 298.636719 39.890625 297.859375 33.796875 296.300781 L 1.117188 287.9375 C 0.429688 287.761719 0.015625 287.0625 0.191406 286.371094 C 0.367188 285.683594 1.066406 285.265625 1.757812 285.445312 L 34.4375 293.804688 C 46.269531 296.832031 65.523438 296.832031 77.359375 293.804688 L 110.03125 285.445312 C 120.84375 282.675781 137.738281 282.308594 150.195312 284.574219 C 150.898438 284.699219 151.359375 285.371094 151.234375 286.070312 C 151.105469 286.769531 150.441406 287.238281 149.738281 287.105469 C 137.792969 284.9375 120.996094 285.296875 110.667969 287.9375 L 77.996094 296.300781 C 71.902344 297.859375 63.898438 298.636719 55.894531 298.636719 Z M 55.894531 298.636719 " fill-opacity="1" fill-rule="nonzero"/></g></svg>