<svg xmlns="http://www.w3.org/2000/svg" xmlns:xlink="http://www.w3.org/1999/xlink" width="500" zoomAndPan="magnify" viewBox="0 0 375 374.999991" height="500" preserveAspectRatio="xMidYMid meet" version="1.0"><defs><filter x="0%" y="0%" width="100%" height="100%" id="bf853d6f33"><feColorMatrix values="0 0 0 0 1 0 0 0 0 1 0 0 0 0 1 0 0 0 1 0" color-interpolation-filters="sRGB"/></filter><g/><mask id="6dc7fffce9"><g filter="url(#bf853d6f33)"><rect x="-37.5" width="450" fill="#000000" y="-37.499999" height="449.999989" fill-opacity="0.2"/></g></mask><clipPath id="81e1a5373e"><path d="M 28.625 28.242188 L 325.859375 28.242188 L 325.859375 325.480469 L 28.625 325.480469 Z M 28.625 28.242188 " clip-rule="nonzero"/></clipPath><clipPath id="66469c6e79"><path d="M 177.242188 28.242188 C 95.164062 28.242188 28.625 94.78125 28.625 176.863281 C 28.625 258.941406 95.164062 325.480469 177.242188 325.480469 C 259.320312 325.480469 325.859375 258.941406 325.859375 176.863281 C 325.859375 94.78125 259.320312 28.242188 177.242188 28.242188 Z M 177.242188 28.242188 " clip-rule="nonzero"/></clipPath><clipPath id="4bdd90a46c"><path d="M 28.625 28.242188 L 325.625 28.242188 L 325.625 325.242188 L 28.625 325.242188 Z M 28.625 28.242188 " clip-rule="nonzero"/></clipPath><clipPath id="f6835b6b71"><path d="M 177.242188 28.242188 C 95.160156 28.242188 28.625 94.78125 28.625 176.859375 C 28.625 258.941406 95.160156 325.476562 177.242188 325.476562 C 259.320312 325.476562 325.859375 258.941406 325.859375 176.859375 C 325.859375 94.78125 259.320312 28.242188 177.242188 28.242188 Z M 177.242188 28.242188 " clip-rule="nonzero"/></clipPath><clipPath id="f0eef94f9a"><rect x="0" width="328" y="0" height="354"/></clipPath><clipPath id="a567be34af"><path d="M 119.445312 125 L 318.945312 125 L 318.945312 182 L 119.445312 182 Z M 119.445312 125 " clip-rule="nonzero"/></clipPath><clipPath id="56761cb1d9"><path d="M 119.445312 137.0625 L 119.445312 230.660156 C 119.445312 238.945312 126.160156 245.660156 134.445312 245.660156 L 303.871094 245.660156 C 312.15625 245.660156 318.871094 238.945312 318.871094 230.660156 L 318.871094 137.0625 C 318.871094 128.777344 312.15625 122.0625 303.871094 122.0625 L 134.445312 122.0625 C 126.160156 122.0625 119.445312 128.777344 119.445312 137.0625 Z M 119.445312 137.0625 " clip-rule="nonzero"/></clipPath><clipPath id="6258895c1d"><path d="M 119.445312 173 L 318.945312 173 L 318.945312 200 L 119.445312 200 Z M 119.445312 173 " clip-rule="nonzero"/></clipPath><clipPath id="be419cb52f"><path d="M 119.445312 137.0625 L 119.445312 230.660156 C 119.445312 238.945312 126.160156 245.660156 134.445312 245.660156 L 303.871094 245.660156 C 312.15625 245.660156 318.871094 238.945312 318.871094 230.660156 L 318.871094 137.0625 C 318.871094 128.777344 312.15625 122.0625 303.871094 122.0625 L 134.445312 122.0625 C 126.160156 122.0625 119.445312 128.777344 119.445312 137.0625 Z M 119.445312 137.0625 " clip-rule="nonzero"/></clipPath><clipPath id="a180d6014d"><path d="M 119.445312 196 L 318.945312 196 L 318.945312 223 L 119.445312 223 Z M 119.445312 196 " clip-rule="nonzero"/></clipPath><clipPath id="c25502fb0a"><path d="M 119.445312 137.0625 L 119.445312 230.660156 C 119.445312 238.945312 126.160156 245.660156 134.445312 245.660156 L 303.871094 245.660156 C 312.15625 245.660156 318.871094 238.945312 318.871094 230.660156 L 318.871094 137.0625 C 318.871094 128.777344 312.15625 122.0625 303.871094 122.0625 L 134.445312 122.0625 C 126.160156 122.0625 119.445312 128.777344 119.445312 137.0625 Z M 119.445312 137.0625 " clip-rule="nonzero"/></clipPath><clipPath id="745648b7bb"><path d="M 119.445312 219 L 318.945312 219 L 318.945312 245.8125 L 119.445312 245.8125 Z M 119.445312 219 " clip-rule="nonzero"/></clipPath><clipPath id="2fae7b1b20"><path d="M 119.445312 137.0625 L 119.445312 230.660156 C 119.445312 238.945312 126.160156 245.660156 134.445312 245.660156 L 303.871094 245.660156 C 312.15625 245.660156 318.871094 238.945312 318.871094 230.660156 L 318.871094 137.0625 C 318.871094 128.777344 312.15625 122.0625 303.871094 122.0625 L 134.445312 122.0625 C 126.160156 122.0625 119.445312 128.777344 119.445312 137.0625 Z M 119.445312 137.0625 " clip-rule="nonzero"/></clipPath><clipPath id="e9fbdbfc14"><path d="M 75.625 35.242188 L 372.625 35.242188 L 372.625 332.242188 L 75.625 332.242188 Z M 75.625 35.242188 " clip-rule="nonzero"/></clipPath><clipPath id="d62e102c29"><path d="M 224.242188 35.242188 C 142.160156 35.242188 75.625 101.78125 75.625 183.859375 C 75.625 265.941406 142.160156 332.476562 224.242188 332.476562 C 306.320312 332.476562 372.859375 265.941406 372.859375 183.859375 C 372.859375 101.78125 306.320312 35.242188 224.242188 35.242188 Z M 224.242188 35.242188 " clip-rule="nonzero"/></clipPath><clipPath id="4abdf4b9e2"><path d="M 137 204.492188 L 149 204.492188 L 149 209 L 137 209 Z M 137 204.492188 " clip-rule="nonzero"/></clipPath><clipPath id="fb6de27d0c"><path d="M 0 204.492188 L 135 204.492188 L 135 221 L 0 221 Z M 0 204.492188 " clip-rule="nonzero"/></clipPath><clipPath id="859d77bd7b"><path d="M 0 283 L 152 283 L 152 298.992188 L 0 298.992188 Z M 0 283 " clip-rule="nonzero"/></clipPath></defs><g mask="url(#6dc7fffce9)"><g transform="matrix(1, 0, 0, 1, 47, 7)"><g clip-path="url(#f0eef94f9a)"><g clip-path="url(#81e1a5373e)"><g clip-path="url(#66469c6e79)"><path fill="#ffa500" d="M 28.625 28.242188 L 325.859375 28.242188 L 325.859375 325.480469 L 28.625 325.480469 Z M 28.625 28.242188 " fill-opacity="1" fill-rule="nonzero"/></g></g><g clip-path="url(#4bdd90a46c)"><g clip-path="url(#f6835b6b71)"><path stroke-linecap="butt" transform="matrix(0.75, 0, 0, 0.75, 28.623847, 28.24408)" fill="none" stroke-linejoin="miter" d="M 198.1578 -0.00252302 C 88.715085 -0.00252302 0.00153715 88.716233 0.00153715 198.15374 C 0.00153715 307.596456 88.715085 396.310003 198.1578 396.310003 C 307.595307 396.310003 396.314063 307.596456 396.314063 198.15374 C 396.314063 88.716233 307.595307 -0.00252302 198.1578 -0.00252302 Z M 198.1578 -0.00252302 " stroke="#ffa500" stroke-width="16" stroke-opacity="1" stroke-miterlimit="4"/></g></g></g></g></g><g clip-path="url(#a567be34af)"><g clip-path="url(#56761cb1d9)"><path fill="#377fb8" d="M 119.46875 179.800781 C 159.359375 168.25 126.117188 133.605469 132.765625 127.835938 C 139.414062 122.058594 185.953125 127.835938 185.953125 168.25 C 225.242188 156.703125 192 133.605469 199.25 127.835938 C 206.503906 122.058594 252.4375 127.835938 252.4375 168.25 C 292.332031 156.703125 259.085938 133.605469 265.734375 127.835938 C 272.386719 122.058594 318.925781 133.605469 318.925781 174.027344 C 318.925781 185.574219 318.925781 179.800781 318.925781 179.800781 C 318.925781 179.800781 305.625 139.382812 279.03125 139.382812 C 285.683594 168.25 265.734375 174.027344 245.789062 179.800781 C 245.789062 162.480469 239.140625 139.382812 212.550781 139.382812 C 219.199219 168.25 199.25 174.027344 179.304688 179.800781 C 179.304688 162.480469 172.65625 139.382812 146.0625 139.382812 C 152.710938 168.25 139.414062 179.800781 119.46875 179.800781 " fill-opacity="1" fill-rule="nonzero"/></g></g><g clip-path="url(#6258895c1d)"><g clip-path="url(#be419cb52f)"><path fill="#377fb8" d="M 119.46875 199.933594 L 119.46875 189.253906 C 126.972656 189.253906 132.136719 187.222656 139.597656 182.328125 C 140.214844 181.925781 142.300781 180.535156 142.4375 180.445312 C 143.589844 179.683594 144.476562 179.117188 145.347656 178.582031 C 150.367188 175.511719 154.527344 173.996094 159.359375 173.996094 C 166.707031 173.996094 171.382812 177.386719 175.546875 183.757812 C 176.039062 184.511719 177.5625 186.984375 177.859375 187.433594 C 178.863281 188.972656 179.195312 189.253906 179.304688 189.253906 C 186.808594 189.253906 191.972656 187.222656 199.4375 182.328125 C 200.050781 181.925781 202.136719 180.535156 202.273438 180.445312 C 203.425781 179.683594 204.3125 179.117188 205.1875 178.582031 C 210.203125 175.511719 214.363281 173.996094 219.199219 173.996094 C 226.15625 173.996094 231.535156 176.957031 237.894531 182.792969 C 245.269531 189.566406 244.882812 189.253906 245.789062 189.253906 C 253.292969 189.253906 258.457031 187.222656 265.917969 182.328125 C 266.535156 181.925781 268.621094 180.535156 268.757812 180.445312 C 269.910156 179.683594 270.796875 179.117188 271.667969 178.582031 C 276.6875 175.511719 280.847656 173.996094 285.683594 173.996094 C 293.230469 173.882812 298.851562 177.957031 304.882812 182.523438 C 311.628906 187.679688 314.597656 189.253906 318.925781 189.253906 L 318.925781 199.933594 C 311.375 200.046875 305.753906 195.972656 299.722656 191.40625 C 292.976562 186.25 290.007812 184.675781 285.683594 184.675781 C 282.613281 184.675781 279.839844 185.6875 276.050781 188.003906 C 275.28125 188.476562 274.476562 188.996094 273.402344 189.703125 C 273.292969 189.777344 271.179688 191.175781 270.539062 191.601562 C 261.796875 197.332031 255.1875 199.933594 245.789062 199.933594 C 243.101562 199.933594 240.703125 198.746094 238.015625 196.574219 C 237.121094 195.847656 236.234375 195.046875 235.003906 193.890625 C 234.035156 192.96875 233.0625 192.042969 232.082031 191.132812 C 227.21875 186.671875 223.59375 184.675781 219.199219 184.675781 C 216.128906 184.675781 213.351562 185.6875 209.570312 188.003906 C 208.796875 188.476562 207.992188 188.996094 206.917969 189.703125 C 206.808594 189.777344 204.695312 191.175781 204.054688 191.601562 C 195.308594 197.332031 188.703125 199.933594 179.304688 199.933594 C 175.503906 199.933594 173.007812 197.8125 170.414062 193.839844 C 170.011719 193.230469 168.488281 190.761719 168.105469 190.167969 C 165.539062 186.246094 163.375 184.675781 159.359375 184.675781 C 156.292969 184.675781 153.515625 185.6875 149.730469 188.003906 C 148.960938 188.476562 148.15625 188.996094 147.082031 189.703125 C 146.96875 189.777344 144.859375 191.175781 144.21875 191.601562 C 135.472656 197.332031 128.867188 199.933594 119.46875 199.933594 " fill-opacity="1" fill-rule="nonzero"/></g></g><g clip-path="url(#a180d6014d)"><g clip-path="url(#c25502fb0a)"><path fill="#377fb8" d="M 119.46875 222.820312 L 119.46875 212.136719 C 126.972656 212.136719 132.136719 210.105469 139.597656 205.214844 C 140.214844 204.808594 142.300781 203.421875 142.4375 203.335938 C 143.589844 202.570312 144.476562 202 145.347656 201.464844 C 150.367188 198.394531 154.527344 196.882812 159.359375 196.882812 C 166.707031 196.882812 171.382812 200.269531 175.546875 206.644531 C 176.039062 207.398438 177.5625 209.867188 177.859375 210.316406 C 178.863281 211.855469 179.195312 212.136719 179.304688 212.136719 C 186.808594 212.136719 191.972656 210.105469 199.4375 205.214844 C 200.050781 204.808594 202.136719 203.421875 202.273438 203.335938 C 203.425781 202.570312 204.3125 202 205.1875 201.464844 C 210.203125 198.394531 214.363281 196.882812 219.199219 196.882812 C 226.15625 196.882812 231.535156 199.84375 237.894531 205.679688 C 245.269531 212.449219 244.882812 212.136719 245.789062 212.136719 C 253.292969 212.136719 258.457031 210.105469 265.917969 205.214844 C 266.535156 204.808594 268.621094 203.421875 268.757812 203.335938 C 269.910156 202.570312 270.796875 202 271.667969 201.464844 C 276.6875 198.394531 280.847656 196.882812 285.683594 196.882812 C 293.230469 196.769531 298.851562 200.84375 304.882812 205.40625 C 311.628906 210.566406 314.597656 212.136719 318.925781 212.136719 L 318.925781 222.820312 C 311.375 222.929688 305.753906 218.855469 299.722656 214.292969 C 292.976562 209.132812 290.007812 207.558594 285.683594 207.558594 C 282.613281 207.558594 279.839844 208.570312 276.050781 210.886719 C 275.28125 211.359375 274.476562 211.878906 273.402344 212.585938 C 273.292969 212.664062 271.179688 214.0625 270.539062 214.484375 C 261.796875 220.21875 255.1875 222.820312 245.789062 222.820312 C 243.101562 222.820312 240.703125 221.632812 238.015625 219.457031 C 237.121094 218.730469 236.234375 217.933594 235.003906 216.777344 C 234.035156 215.851562 233.0625 214.929688 232.082031 214.019531 C 227.21875 209.554688 223.59375 207.558594 219.199219 207.558594 C 216.128906 207.558594 213.351562 208.570312 209.570312 210.886719 C 208.796875 211.359375 207.992188 211.878906 206.917969 212.585938 C 206.808594 212.664062 204.695312 214.0625 204.054688 214.484375 C 195.308594 220.21875 188.703125 222.820312 179.304688 222.820312 C 175.503906 222.820312 173.007812 220.699219 170.414062 216.726562 C 170.011719 216.117188 168.488281 213.644531 168.105469 213.054688 C 165.539062 209.128906 163.375 207.558594 159.359375 207.558594 C 156.292969 207.558594 153.515625 208.570312 149.730469 210.886719 C 148.960938 211.359375 148.15625 211.878906 147.082031 212.585938 C 146.96875 212.664062 144.859375 214.0625 144.21875 214.484375 C 135.472656 220.21875 128.867188 222.820312 119.46875 222.820312 " fill-opacity="1" fill-rule="nonzero"/></g></g><g clip-path="url(#745648b7bb)"><g clip-path="url(#2fae7b1b20)"><path fill="#377fb8" d="M 119.46875 245.703125 L 119.46875 235.023438 C 126.972656 235.023438 132.136719 232.992188 139.597656 228.097656 C 140.214844 227.695312 142.300781 226.304688 142.4375 226.21875 C 143.589844 225.453125 144.476562 224.882812 145.347656 224.351562 C 150.367188 221.28125 154.527344 219.765625 159.359375 219.765625 C 166.707031 219.765625 171.382812 223.15625 175.546875 229.53125 C 176.039062 230.28125 177.5625 232.753906 177.859375 233.203125 C 178.863281 234.742188 179.195312 235.023438 179.304688 235.023438 C 186.808594 235.023438 191.972656 232.992188 199.4375 228.097656 C 200.050781 227.695312 202.136719 226.304688 202.273438 226.21875 C 203.425781 225.453125 204.3125 224.882812 205.1875 224.351562 C 210.203125 221.28125 214.363281 219.765625 219.199219 219.765625 C 226.15625 219.765625 231.535156 222.730469 237.894531 228.566406 C 245.269531 235.332031 244.882812 235.023438 245.789062 235.023438 C 253.292969 235.023438 258.457031 232.992188 265.917969 228.097656 C 266.535156 227.695312 268.621094 226.304688 268.757812 226.21875 C 269.910156 225.453125 270.796875 224.882812 271.667969 224.351562 C 276.6875 221.28125 280.847656 219.765625 285.683594 219.765625 C 293.230469 219.652344 298.851562 223.726562 304.882812 228.292969 C 311.628906 233.453125 314.597656 235.023438 318.925781 235.023438 L 318.925781 245.703125 C 311.375 245.816406 305.753906 241.742188 299.722656 237.175781 C 292.976562 232.015625 290.007812 230.445312 285.683594 230.445312 C 282.613281 230.445312 279.839844 231.457031 276.050781 233.773438 C 275.28125 234.246094 274.476562 234.765625 273.402344 235.472656 C 273.292969 235.546875 271.179688 236.945312 270.539062 237.371094 C 261.796875 243.105469 255.1875 245.703125 245.789062 245.703125 C 243.101562 245.703125 240.703125 244.515625 238.015625 242.34375 C 237.121094 241.617188 236.234375 240.816406 235.003906 239.660156 C 234.035156 238.738281 233.0625 237.8125 232.082031 236.902344 C 227.21875 232.441406 223.59375 230.445312 219.199219 230.445312 C 216.128906 230.445312 213.351562 231.457031 209.570312 233.773438 C 208.796875 234.246094 207.992188 234.765625 206.917969 235.472656 C 206.808594 235.546875 204.695312 236.945312 204.054688 237.371094 C 195.308594 243.105469 188.703125 245.703125 179.304688 245.703125 C 175.503906 245.703125 173.007812 243.582031 170.414062 239.609375 C 170.011719 239.003906 168.488281 236.527344 168.105469 235.941406 C 165.539062 232.015625 163.375 230.445312 159.359375 230.445312 C 156.292969 230.445312 153.515625 231.457031 149.730469 233.773438 C 148.960938 234.246094 148.15625 234.765625 147.082031 235.472656 C 146.96875 235.546875 144.859375 236.945312 144.21875 237.371094 C 135.472656 243.105469 128.867188 245.703125 119.46875 245.703125 " fill-opacity="1" fill-rule="nonzero"/></g></g><g clip-path="url(#e9fbdbfc14)"><g clip-path="url(#d62e102c29)"><path stroke-linecap="butt" transform="matrix(0.75, 0, 0, 0.75, 75.623848, 35.24408)" fill="none" stroke-linejoin="miter" d="M 198.157799 -0.00252302 C 88.715083 -0.00252302 0.00153555 88.716233 0.00153555 198.15374 C 0.00153555 307.596456 88.715083 396.310003 198.157799 396.310003 C 307.595306 396.310003 396.314062 307.596456 396.314062 198.15374 C 396.314062 88.716233 307.595306 -0.00252302 198.157799 -0.00252302 Z M 198.157799 -0.00252302 " stroke="#ffa500" stroke-width="16" stroke-opacity="1" stroke-miterlimit="4"/></g></g><g fill="#ffa500" fill-opacity="1"><g transform="translate(186.402037, 74.609281)"><g><path d="M 1.25 -0.296875 L 0.796875 -1.75 L 2.46875 -2.65625 C 2.488281 -2.738281 2.457031 -2.988281 2.375 -3.40625 C 2.289062 -3.832031 2.175781 -4.378906 2.03125 -5.046875 C 1.894531 -5.710938 1.734375 -6.453125 1.546875 -7.265625 L 0.53125 -11.609375 C 0.332031 -12.441406 0.144531 -13.179688 -0.03125 -13.828125 C -0.21875 -14.484375 -0.367188 -15.015625 -0.484375 -15.421875 C -0.597656 -15.828125 -0.679688 -16.054688 -0.734375 -16.109375 L -2.734375 -16.15625 L -2.984375 -17.65625 L 5.84375 -19.78125 C 6.25 -19.875 6.734375 -19.992188 7.296875 -20.140625 C 7.859375 -20.296875 8.414062 -20.453125 8.96875 -20.609375 C 9.519531 -20.773438 9.960938 -20.90625 10.296875 -21 L 12.171875 -16.828125 L 10.515625 -16.15625 L 8.71875 -18.515625 C 8.476562 -18.515625 8.25 -18.5 8.03125 -18.46875 C 7.820312 -18.4375 7.601562 -18.390625 7.375 -18.328125 L 5.140625 -17.796875 C 4.804688 -17.710938 4.476562 -17.617188 4.15625 -17.515625 C 3.832031 -17.410156 3.570312 -17.3125 3.375 -17.21875 C 3.40625 -17.113281 3.425781 -17 3.4375 -16.875 C 3.457031 -16.75 3.492188 -16.566406 3.546875 -16.328125 C 3.609375 -16.085938 3.691406 -15.75 3.796875 -15.3125 C 3.910156 -14.875 4.050781 -14.300781 4.21875 -13.59375 L 5.890625 -6.765625 C 5.984375 -6.390625 6.09375 -5.976562 6.21875 -5.53125 C 6.34375 -5.082031 6.460938 -4.679688 6.578125 -4.328125 C 6.691406 -3.984375 6.769531 -3.773438 6.8125 -3.703125 L 9.296875 -3.859375 L 9.59375 -2.3125 Z M 10.046875 -8.328125 L 9.25 -10.375 C 9 -10.34375 8.722656 -10.300781 8.421875 -10.25 C 8.128906 -10.207031 7.835938 -10.148438 7.546875 -10.078125 L 5.84375 -9.671875 C 5.488281 -9.585938 5.171875 -9.492188 4.890625 -9.390625 C 4.609375 -9.285156 4.351562 -9.203125 4.125 -9.140625 L 3.625 -11.234375 C 3.84375 -11.265625 4.109375 -11.304688 4.421875 -11.359375 C 4.734375 -11.410156 5.054688 -11.476562 5.390625 -11.5625 L 7.09375 -11.96875 C 7.488281 -12.0625 7.832031 -12.15625 8.125 -12.25 C 8.425781 -12.34375 8.640625 -12.40625 8.765625 -12.4375 L 8.578125 -14.46875 L 10.296875 -14.890625 L 11.765625 -8.75 Z M 10.046875 -8.328125 "/></g></g></g><g fill="#ffa500" fill-opacity="1"><g transform="translate(207.814356, 69.974333)"><g><path d="M 15.1875 -0.53125 C 14.65625 -0.5625 14.082031 -0.570312 13.46875 -0.5625 C 12.863281 -0.550781 12.28125 -0.539062 11.71875 -0.53125 C 11.15625 -0.53125 10.710938 -0.523438 10.390625 -0.515625 L 1.1875 -0.0625 L 1.015625 -1.5625 L 2.953125 -2.171875 C 2.984375 -2.265625 3 -2.539062 3 -3 C 3 -3.457031 2.992188 -4.023438 2.984375 -4.703125 C 2.972656 -5.390625 2.945312 -6.101562 2.90625 -6.84375 L 2.6875 -11.28125 C 2.644531 -12.070312 2.597656 -12.804688 2.546875 -13.484375 C 2.492188 -14.171875 2.445312 -14.734375 2.40625 -15.171875 C 2.363281 -15.617188 2.316406 -15.882812 2.265625 -15.96875 L 0.296875 -16.375 L 0.3125 -17.921875 L 9.09375 -18.34375 L 9.265625 -16.765625 L 6.75 -16.1875 C 6.738281 -16.125 6.726562 -15.875 6.71875 -15.4375 C 6.707031 -15.007812 6.707031 -14.457031 6.71875 -13.78125 C 6.726562 -13.101562 6.753906 -12.335938 6.796875 -11.484375 L 7.015625 -7.046875 C 7.078125 -5.878906 7.132812 -4.929688 7.1875 -4.203125 C 7.238281 -3.484375 7.285156 -2.992188 7.328125 -2.734375 C 7.671875 -2.691406 8.03125 -2.671875 8.40625 -2.671875 C 8.789062 -2.671875 9.242188 -2.679688 9.765625 -2.703125 L 10.921875 -2.765625 C 11.347656 -2.785156 11.738281 -2.820312 12.09375 -2.875 C 12.445312 -2.9375 12.734375 -2.992188 12.953125 -3.046875 L 14.5 -6.4375 L 16.375 -6.078125 Z M 15.1875 -0.53125 "/></g></g></g><g fill="#ffa500" fill-opacity="1"><g transform="translate(229.928869, 69.193821)"><g><path d="M 10.765625 2 C 8.921875 1.707031 7.347656 1.0625 6.046875 0.0625 C 4.742188 -0.925781 3.789062 -2.148438 3.1875 -3.609375 C 2.582031 -5.066406 2.421875 -6.65625 2.703125 -8.375 C 2.984375 -10.1875 3.640625 -11.726562 4.671875 -13 C 5.710938 -14.269531 7.015625 -15.191406 8.578125 -15.765625 C 10.148438 -16.335938 11.859375 -16.476562 13.703125 -16.1875 C 15.492188 -15.90625 17.007812 -15.273438 18.25 -14.296875 C 19.5 -13.328125 20.40625 -12.117188 20.96875 -10.671875 C 21.539062 -9.234375 21.6875 -7.628906 21.40625 -5.859375 C 21.164062 -4.316406 20.664062 -3.007812 19.90625 -1.9375 C 19.144531 -0.863281 18.242188 -0.0078125 17.203125 0.625 C 16.160156 1.257812 15.078125 1.6875 13.953125 1.90625 C 12.835938 2.132812 11.773438 2.164062 10.765625 2 Z M 11.375 -0.21875 C 12.300781 -0.0703125 13.109375 -0.191406 13.796875 -0.578125 C 14.492188 -0.972656 15.078125 -1.613281 15.546875 -2.5 C 16.015625 -3.394531 16.359375 -4.515625 16.578125 -5.859375 C 16.816406 -7.398438 16.828125 -8.773438 16.609375 -9.984375 C 16.390625 -11.203125 15.976562 -12.179688 15.375 -12.921875 C 14.769531 -13.660156 13.992188 -14.109375 13.046875 -14.265625 C 11.660156 -14.484375 10.484375 -14.082031 9.515625 -13.0625 C 8.554688 -12.039062 7.914062 -10.519531 7.59375 -8.5 C 7.351562 -7.019531 7.359375 -5.679688 7.609375 -4.484375 C 7.859375 -3.296875 8.300781 -2.328125 8.9375 -1.578125 C 9.570312 -0.828125 10.382812 -0.375 11.375 -0.21875 Z M 11.375 -0.21875 "/></g></g></g><g fill="#ffa500" fill-opacity="1"><g transform="translate(256.227135, 73.982592)"><g><path d="M 10.046875 4.375 C 8.316406 3.675781 6.925781 2.691406 5.875 1.421875 C 4.820312 0.160156 4.164062 -1.25 3.90625 -2.8125 C 3.65625 -4.375 3.859375 -5.957031 4.515625 -7.5625 C 5.203125 -9.269531 6.191406 -10.625 7.484375 -11.625 C 8.773438 -12.632812 10.25 -13.238281 11.90625 -13.4375 C 13.5625 -13.644531 15.253906 -13.398438 16.984375 -12.703125 C 18.660156 -12.015625 19.992188 -11.0625 20.984375 -9.84375 C 21.984375 -8.625 22.597656 -7.242188 22.828125 -5.703125 C 23.066406 -4.171875 22.851562 -2.570312 22.1875 -0.90625 C 21.59375 0.539062 20.804688 1.695312 19.828125 2.5625 C 18.859375 3.4375 17.796875 4.066406 16.640625 4.453125 C 15.484375 4.847656 14.332031 5.023438 13.1875 4.984375 C 12.039062 4.953125 10.992188 4.75 10.046875 4.375 Z M 11.140625 2.328125 C 12.003906 2.671875 12.816406 2.726562 13.578125 2.5 C 14.347656 2.28125 15.0625 1.789062 15.71875 1.03125 C 16.375 0.269531 16.957031 -0.742188 17.46875 -2.015625 C 18.050781 -3.460938 18.367188 -4.796875 18.421875 -6.015625 C 18.484375 -7.242188 18.300781 -8.285156 17.875 -9.140625 C 17.457031 -10.003906 16.796875 -10.617188 15.890625 -10.984375 C 14.597656 -11.503906 13.367188 -11.375 12.203125 -10.59375 C 11.035156 -9.8125 10.066406 -8.472656 9.296875 -6.578125 C 8.734375 -5.191406 8.4375 -3.890625 8.40625 -2.671875 C 8.382812 -1.453125 8.601562 -0.410156 9.0625 0.453125 C 9.519531 1.328125 10.210938 1.953125 11.140625 2.328125 Z M 11.140625 2.328125 "/></g></g></g><g fill="#ffa500" fill-opacity="1"><g transform="translate(280.783332, 84.544353)"><g><path d="M 11.1875 -14 L 18.078125 -9.171875 C 20.765625 -7.296875 22.425781 -5.195312 23.0625 -2.875 C 23.695312 -0.5625 23.234375 1.71875 21.671875 3.96875 C 20.660156 5.40625 19.394531 6.441406 17.875 7.078125 C 16.363281 7.722656 14.753906 7.925781 13.046875 7.6875 C 11.347656 7.457031 9.691406 6.773438 8.078125 5.640625 L 0.953125 0.65625 L 1.75 -0.640625 L 3.625 0.078125 C 3.75 0.00390625 4.082031 -0.378906 4.625 -1.078125 C 5.175781 -1.785156 5.800781 -2.640625 6.5 -3.640625 L 9.03125 -7.265625 C 9.769531 -8.316406 10.375 -9.21875 10.84375 -9.96875 C 11.3125 -10.71875 11.546875 -11.148438 11.546875 -11.265625 L 10.234375 -12.78125 Z M 15.125 -8.734375 C 15.050781 -8.628906 14.894531 -8.414062 14.65625 -8.09375 C 14.425781 -7.78125 14.125 -7.363281 13.75 -6.84375 C 13.382812 -6.332031 12.929688 -5.691406 12.390625 -4.921875 L 9.859375 -1.296875 C 9.554688 -0.859375 9.238281 -0.398438 8.90625 0.078125 C 8.582031 0.554688 8.289062 1.003906 8.03125 1.421875 C 7.78125 1.835938 7.585938 2.164062 7.453125 2.40625 C 7.773438 2.75 8.113281 3.070312 8.46875 3.375 C 8.820312 3.675781 9.164062 3.941406 9.5 4.171875 C 10.90625 5.148438 12.253906 5.488281 13.546875 5.1875 C 14.835938 4.882812 16.097656 3.851562 17.328125 2.09375 C 18.140625 0.925781 18.695312 -0.15625 19 -1.15625 C 19.3125 -2.15625 19.40625 -3.066406 19.28125 -3.890625 C 19.164062 -4.722656 18.890625 -5.460938 18.453125 -6.109375 C 18.015625 -6.765625 17.457031 -7.332031 16.78125 -7.8125 C 16.550781 -7.96875 16.296875 -8.125 16.015625 -8.28125 C 15.734375 -8.445312 15.4375 -8.597656 15.125 -8.734375 Z M 15.125 -8.734375 "/></g></g></g><g fill="#ffa500" fill-opacity="1"><g transform="translate(302.40646, 101.005569)"><g/></g></g><g fill="#ffa500" fill-opacity="1"><g transform="translate(310.866909, 109.354907)"><g><path d="M 0.78125 1.015625 L 1.921875 0.015625 L 3.4375 1.171875 C 3.507812 1.171875 3.722656 1.046875 4.078125 0.796875 C 4.429688 0.554688 4.882812 0.238281 5.4375 -0.15625 C 6 -0.5625 6.609375 -1.015625 7.265625 -1.515625 L 10.859375 -4.203125 C 11.535156 -4.710938 12.132812 -5.179688 12.65625 -5.609375 C 13.175781 -6.046875 13.597656 -6.398438 13.921875 -6.671875 C 14.242188 -6.941406 14.410156 -7.109375 14.421875 -7.171875 L 13.6875 -9.015625 L 14.953125 -9.875 L 20.46875 -2.65625 C 20.71875 -2.320312 21.019531 -1.921875 21.375 -1.453125 C 21.738281 -0.992188 22.101562 -0.546875 22.46875 -0.109375 C 22.84375 0.328125 23.144531 0.675781 23.375 0.9375 L 20.3125 4.328125 L 19.03125 3.078125 L 20.453125 0.515625 C 20.359375 0.285156 20.253906 0.0820312 20.140625 -0.09375 C 20.023438 -0.28125 19.898438 -0.46875 19.765625 -0.65625 L 18.359375 -2.484375 C 18.148438 -2.753906 17.929688 -3.015625 17.703125 -3.265625 C 17.484375 -3.515625 17.289062 -3.710938 17.125 -3.859375 C 17.039062 -3.796875 16.941406 -3.726562 16.828125 -3.65625 C 16.722656 -3.582031 16.570312 -3.46875 16.375 -3.3125 C 16.1875 -3.164062 15.910156 -2.957031 15.546875 -2.6875 C 15.191406 -2.414062 14.726562 -2.0625 14.15625 -1.625 L 8.578125 2.65625 C 8.265625 2.894531 7.929688 3.160156 7.578125 3.453125 C 7.222656 3.742188 6.90625 4.015625 6.625 4.265625 C 6.34375 4.515625 6.179688 4.671875 6.140625 4.734375 L 7.28125 6.96875 L 5.984375 7.84375 Z M 11.6875 5.828125 L 13.21875 4.28125 C 13.101562 4.0625 12.960938 3.820312 12.796875 3.5625 C 12.628906 3.3125 12.453125 3.066406 12.265625 2.828125 L 11.203125 1.4375 C 10.984375 1.144531 10.769531 0.894531 10.5625 0.6875 C 10.363281 0.476562 10.1875 0.28125 10.03125 0.09375 L 11.75 -1.21875 C 11.863281 -1.03125 12.003906 -0.800781 12.171875 -0.53125 C 12.347656 -0.269531 12.539062 -0.00390625 12.75 0.265625 L 13.8125 1.65625 C 14.0625 1.976562 14.285156 2.253906 14.484375 2.484375 C 14.691406 2.722656 14.832031 2.890625 14.90625 2.984375 L 16.703125 2 L 17.765625 3.40625 L 12.75 7.234375 Z M 11.6875 5.828125 "/></g></g></g><g fill="#ffa500" fill-opacity="1"><g transform="translate(323.707145, 127.348592)"><g><path d="M 0.546875 1.015625 L 1.84375 0.21875 L 3.1875 1.6875 C 3.289062 1.675781 3.535156 1.582031 3.921875 1.40625 C 4.304688 1.238281 4.804688 1.003906 5.421875 0.703125 C 6.035156 0.398438 6.703125 0.0546875 7.421875 -0.328125 L 11.328125 -2.40625 C 12.085938 -2.8125 12.757812 -3.179688 13.34375 -3.515625 C 13.925781 -3.859375 14.40625 -4.144531 14.78125 -4.375 C 15.164062 -4.601562 15.375 -4.75 15.40625 -4.8125 L 14.921875 -6.75 L 16.328125 -7.390625 L 20.171875 -0.15625 L 18.859375 0.640625 L 17.515625 -0.84375 C 17.421875 -0.84375 17.175781 -0.75 16.78125 -0.5625 C 16.382812 -0.382812 15.882812 -0.144531 15.28125 0.15625 C 14.675781 0.46875 14.003906 0.820312 13.265625 1.21875 L 9.359375 3.296875 C 8.660156 3.671875 8.015625 4.019531 7.421875 4.34375 C 6.835938 4.675781 6.359375 4.953125 5.984375 5.171875 C 5.609375 5.398438 5.378906 5.5625 5.296875 5.65625 L 5.78125 7.609375 L 4.390625 8.25 Z M 0.546875 1.015625 "/></g></g></g><g fill="#ffa500" fill-opacity="1"><g transform="translate(331.220346, 141.612683)"><g><path d="M 3.203125 10.84375 C 2.609375 8.988281 2.410156 7.234375 2.609375 5.578125 C 2.816406 3.929688 3.410156 2.507812 4.390625 1.3125 C 5.378906 0.113281 6.757812 -0.769531 8.53125 -1.34375 C 9.957031 -1.800781 11.316406 -1.960938 12.609375 -1.828125 C 13.898438 -1.691406 15.085938 -1.296875 16.171875 -0.640625 C 17.253906 0.00390625 18.203125 0.878906 19.015625 1.984375 C 19.835938 3.097656 20.488281 4.40625 20.96875 5.90625 C 21.257812 6.78125 21.453125 7.6875 21.546875 8.625 C 21.648438 9.5625 21.648438 10.367188 21.546875 11.046875 L 17.46875 12.53125 L 16.84375 10.71875 L 19.21875 8.9375 C 19.300781 8.5 19.3125 8.03125 19.25 7.53125 C 19.1875 7.039062 19.09375 6.601562 18.96875 6.21875 C 18.601562 5.09375 18.03125 4.210938 17.25 3.578125 C 16.46875 2.953125 15.523438 2.59375 14.421875 2.5 C 13.328125 2.40625 12.125 2.570312 10.8125 3 C 9.320312 3.476562 8.117188 4.144531 7.203125 5 C 6.296875 5.851562 5.6875 6.796875 5.375 7.828125 C 5.0625 8.867188 5.070312 9.90625 5.40625 10.9375 C 5.5 11.21875 5.648438 11.535156 5.859375 11.890625 C 6.066406 12.242188 6.300781 12.53125 6.5625 12.75 L 4.796875 12.65625 L 7.859375 11.65625 C 8.265625 11.53125 8.695312 11.378906 9.15625 11.203125 C 9.613281 11.035156 9.957031 10.890625 10.1875 10.765625 L 9.96875 8.578125 L 11.515625 8.1875 L 13.859375 15.453125 L 12.4375 16.015625 L 11.5 14.71875 C 11.300781 14.75 11 14.835938 10.59375 14.984375 C 10.195312 15.128906 9.773438 15.273438 9.328125 15.421875 C 9.003906 15.523438 8.628906 15.648438 8.203125 15.796875 C 7.785156 15.953125 7.296875 16.132812 6.734375 16.34375 C 5.921875 15.664062 5.210938 14.84375 4.609375 13.875 C 4.015625 12.914062 3.546875 11.90625 3.203125 10.84375 Z M 3.203125 10.84375 "/></g></g></g><g fill="#ffa500" fill-opacity="1"><g transform="translate(338.52417, 165.864264)"><g><path d="M 1.125 12.015625 L 2.625 11.78125 L 3.28125 13.59375 C 3.40625 13.625 3.6875 13.632812 4.125 13.625 C 4.5625 13.613281 5.113281 13.585938 5.78125 13.546875 C 6.445312 13.503906 7.175781 13.445312 7.96875 13.375 L 12.390625 12.96875 C 13.222656 12.882812 13.972656 12.800781 14.640625 12.71875 C 15.316406 12.632812 15.875 12.554688 16.3125 12.484375 C 16.75 12.421875 17.003906 12.363281 17.078125 12.3125 L 17.375 10.40625 L 18.921875 10.359375 L 19.671875 18.5 L 18.15625 18.71875 L 17.5 16.875 C 17.414062 16.84375 17.132812 16.832031 16.65625 16.84375 C 16.175781 16.851562 15.59375 16.875 14.90625 16.90625 C 14.21875 16.9375 13.507812 16.988281 12.78125 17.0625 L 8.359375 17.46875 C 7.660156 17.53125 6.96875 17.609375 6.28125 17.703125 C 5.601562 17.804688 5.03125 17.894531 4.5625 17.96875 C 4.101562 18.039062 3.816406 18.101562 3.703125 18.15625 L 3.40625 20.09375 L 1.875 20.15625 Z M 0.109375 1.15625 L 1.609375 0.921875 L 2.28125 2.78125 C 2.375 2.8125 2.632812 2.820312 3.0625 2.8125 C 3.5 2.8125 4.054688 2.785156 4.734375 2.734375 C 5.410156 2.691406 6.15625 2.632812 6.96875 2.5625 L 11.390625 2.15625 C 12.242188 2.070312 13.003906 1.988281 13.671875 1.90625 C 14.347656 1.820312 14.898438 1.742188 15.328125 1.671875 C 15.765625 1.597656 16.015625 1.539062 16.078125 1.5 L 16.359375 -0.453125 L 17.90625 -0.5 L 18.65625 7.578125 L 17.140625 7.8125 L 16.484375 5.984375 C 16.398438 5.953125 16.140625 5.941406 15.703125 5.953125 C 15.265625 5.960938 14.707031 5.992188 14.03125 6.046875 C 13.351562 6.097656 12.597656 6.164062 11.765625 6.25 L 7.34375 6.65625 C 6.550781 6.726562 5.820312 6.800781 5.15625 6.875 C 4.5 6.945312 3.953125 7.015625 3.515625 7.078125 C 3.078125 7.148438 2.800781 7.210938 2.6875 7.265625 L 2.390625 9.1875 L 0.859375 9.234375 Z M 8.546875 5.875 L 10.859375 5.65625 C 10.847656 6.132812 10.859375 6.6875 10.890625 7.3125 C 10.929688 7.945312 10.992188 8.742188 11.078125 9.703125 C 11.171875 10.648438 11.253906 11.429688 11.328125 12.046875 C 11.410156 12.671875 11.503906 13.226562 11.609375 13.71875 L 9.296875 13.9375 C 9.285156 13.507812 9.265625 12.976562 9.234375 12.34375 C 9.203125 11.71875 9.140625 10.898438 9.046875 9.890625 C 8.953125 8.867188 8.859375 8.050781 8.765625 7.4375 C 8.679688 6.820312 8.609375 6.300781 8.546875 5.875 Z M 8.546875 5.875 "/></g></g></g><g fill="#ffa500" fill-opacity="1"><g transform="translate(340.291238, 192.467653)"><g><path d="M 15.78125 19.484375 L 10.359375 19.53125 L 10.421875 17.640625 L 14.046875 16.859375 C 14.109375 16.660156 14.15625 16.445312 14.1875 16.21875 C 14.226562 16 14.265625 15.765625 14.296875 15.515625 L 14.421875 14.484375 C 14.441406 14.296875 14.46875 14.085938 14.5 13.859375 C 14.53125 13.628906 14.53125 13.453125 14.5 13.328125 C 14.382812 13.304688 14.007812 13.253906 13.375 13.171875 C 12.75 13.097656 12.007812 13.003906 11.15625 12.890625 C 10.300781 12.773438 9.425781 12.660156 8.53125 12.546875 L 5.734375 12.203125 C 4.597656 12.066406 3.570312 11.953125 2.65625 11.859375 C 1.75 11.765625 1.066406 11.703125 0.609375 11.671875 L -0.140625 14.234375 L -1.703125 13.953125 L -0.5625 4.5625 L 1.015625 4.65625 L 1.140625 7.359375 C 1.585938 7.429688 2.265625 7.53125 3.171875 7.65625 C 4.078125 7.789062 5.097656 7.925781 6.234375 8.0625 L 9.03125 8.40625 C 9.925781 8.519531 10.800781 8.625 11.65625 8.71875 C 12.519531 8.8125 13.265625 8.894531 13.890625 8.96875 C 14.523438 9.039062 14.898438 9.078125 15.015625 9.078125 C 15.078125 8.953125 15.117188 8.769531 15.140625 8.53125 C 15.171875 8.300781 15.195312 8.097656 15.21875 7.921875 L 15.359375 6.875 C 15.378906 6.625 15.398438 6.367188 15.421875 6.109375 C 15.441406 5.859375 15.445312 5.632812 15.4375 5.4375 L 12.046875 3.859375 L 12.453125 2.015625 L 17.75 3.28125 C 17.726562 3.488281 17.679688 3.78125 17.609375 4.15625 C 17.546875 4.53125 17.484375 4.921875 17.421875 5.328125 C 17.359375 5.734375 17.296875 6.132812 17.234375 6.53125 C 17.171875 6.925781 17.125 7.257812 17.09375 7.53125 L 16.15625 15.21875 C 16.125 15.5 16.085938 15.828125 16.046875 16.203125 C 16.015625 16.585938 15.976562 16.992188 15.9375 17.421875 C 15.90625 17.847656 15.878906 18.242188 15.859375 18.609375 C 15.835938 18.972656 15.8125 19.265625 15.78125 19.484375 Z M 15.78125 19.484375 "/></g></g></g><g fill="#ffa500" fill-opacity="1"><g transform="translate(336.804779, 216.265268)"><g><path d="M -5.15625 14.953125 C -4.945312 14.429688 -4.695312 13.796875 -4.40625 13.046875 C -4.113281 12.304688 -3.863281 11.625 -3.65625 11 L -0.359375 1.0625 L 1.109375 1.46875 L 0.96875 3.46875 C 1.050781 3.53125 1.289062 3.644531 1.6875 3.8125 C 2.082031 3.976562 2.597656 4.179688 3.234375 4.421875 C 3.867188 4.660156 4.570312 4.90625 5.34375 5.15625 L 9.5625 6.5625 C 10.363281 6.832031 11.09375 7.0625 11.75 7.25 C 12.40625 7.445312 12.941406 7.59375 13.359375 7.6875 C 13.773438 7.789062 14.023438 7.835938 14.109375 7.828125 L 15.1875 6.140625 L 16.609375 6.703125 L 13.65625 15.609375 C 13.53125 15.992188 13.378906 16.457031 13.203125 17 C 13.035156 17.550781 12.875 18.097656 12.71875 18.640625 C 12.5625 19.179688 12.4375 19.632812 12.34375 20 L 7.8125 19.375 L 8.125 17.625 L 11.03125 17.390625 C 11.175781 17.171875 11.289062 16.960938 11.375 16.765625 C 11.457031 16.566406 11.539062 16.347656 11.625 16.109375 L 12.34375 13.921875 C 12.46875 13.554688 12.582031 13.203125 12.6875 12.859375 C 12.789062 12.515625 12.859375 12.234375 12.890625 12.015625 C 12.734375 11.960938 12.503906 11.878906 12.203125 11.765625 C 11.898438 11.648438 11.503906 11.507812 11.015625 11.34375 C 10.535156 11.175781 9.96875 10.984375 9.3125 10.765625 L 3.25 8.75 C 2.632812 8.539062 2.082031 8.359375 1.59375 8.203125 C 1.113281 8.054688 0.710938 7.9375 0.390625 7.84375 C 0.0664062 7.75 -0.179688 7.675781 -0.359375 7.625 C -0.515625 7.945312 -0.664062 8.296875 -0.8125 8.671875 C -0.96875 9.054688 -1.140625 9.535156 -1.328125 10.109375 L -1.828125 11.640625 C -2.003906 12.140625 -2.125 12.507812 -2.1875 12.75 C -2.257812 13 -2.304688 13.191406 -2.328125 13.328125 C -2.359375 13.460938 -2.382812 13.597656 -2.40625 13.734375 L -0.0625 16.28125 L -0.90625 17.828125 Z M 2.015625 13.28125 L 4.03125 13.625 C 4.09375 13.507812 4.175781 13.304688 4.28125 13.015625 C 4.394531 12.722656 4.515625 12.382812 4.640625 12 L 5.140625 10.46875 C 5.253906 10.144531 5.347656 9.828125 5.421875 9.515625 C 5.503906 9.210938 5.566406 8.976562 5.609375 8.8125 L 7.671875 9.5 C 7.597656 9.644531 7.5 9.863281 7.375 10.15625 C 7.257812 10.457031 7.144531 10.769531 7.03125 11.09375 L 6.53125 12.625 C 6.40625 13.007812 6.296875 13.347656 6.203125 13.640625 C 6.117188 13.941406 6.054688 14.15625 6.015625 14.28125 L 7.84375 15.21875 L 7.3125 16.796875 L 1.484375 14.859375 Z M 2.015625 13.28125 "/></g></g></g><g fill="#ffa500" fill-opacity="1"><g transform="translate(329.067936, 238.038407)"><g><path d="M -0.640625 1.109375 L 0.71875 1.78125 L 0.21875 3.734375 C 0.3125 3.796875 0.503906 3.914062 0.796875 4.09375 C 1.085938 4.28125 1.429688 4.492188 1.828125 4.734375 C 2.234375 4.972656 2.644531 5.21875 3.0625 5.46875 C 3.488281 5.71875 3.867188 5.941406 4.203125 6.140625 L 8.046875 8.34375 C 8.785156 8.769531 9.453125 9.144531 10.046875 9.46875 C 10.648438 9.789062 11.144531 10.046875 11.53125 10.234375 C 11.914062 10.421875 12.15625 10.515625 12.25 10.515625 L 13.640625 9.0625 L 14.921875 9.90625 L 11 16.75 C 9.832031 18.769531 8.644531 20.078125 7.4375 20.671875 C 6.238281 21.273438 4.941406 21.175781 3.546875 20.375 C 2.691406 19.882812 2.078125 19.175781 1.703125 18.25 C 1.335938 17.332031 1.222656 16.300781 1.359375 15.15625 C 1.492188 14.007812 1.90625 12.835938 2.59375 11.640625 L 3.59375 9.921875 L 5.125 10.796875 L 4.4375 11.984375 C 3.9375 12.859375 3.800781 13.722656 4.03125 14.578125 C 4.257812 15.429688 4.816406 16.113281 5.703125 16.625 C 6.535156 17.101562 7.296875 17.242188 7.984375 17.046875 C 8.679688 16.847656 9.273438 16.316406 9.765625 15.453125 L 10.34375 14.4375 C 10.300781 14.394531 10.15625 14.296875 9.90625 14.140625 C 9.664062 13.992188 9.359375 13.8125 8.984375 13.59375 C 8.609375 13.375 8.1875 13.128906 7.71875 12.859375 C 7.25 12.597656 6.753906 12.316406 6.234375 12.015625 L 2.171875 9.6875 C 1.710938 9.414062 1.207031 9.125 0.65625 8.8125 C 0.101562 8.507812 -0.40625 8.234375 -0.875 7.984375 C -1.351562 7.734375 -1.703125 7.554688 -1.921875 7.453125 L -3.234375 8.65625 L -4.5 7.84375 Z M -8.875 14.71875 C -8.300781 13.726562 -7.632812 12.9375 -6.875 12.34375 C -6.125 11.757812 -5.238281 11.359375 -4.21875 11.140625 C -3.207031 10.921875 -2.050781 10.863281 -0.75 10.96875 L 3.34375 11.34375 L 2.34375 14.65625 L -3.828125 15.28125 C -4.554688 15.363281 -5.195312 15.476562 -5.75 15.625 C -6.3125 15.769531 -6.804688 15.972656 -7.234375 16.234375 C -7.671875 16.503906 -8.078125 16.816406 -8.453125 17.171875 L -9.671875 16.453125 C -9.566406 16.140625 -9.445312 15.84375 -9.3125 15.5625 C -9.175781 15.28125 -9.03125 15 -8.875 14.71875 Z M -8.875 14.71875 "/></g></g></g><path fill="#ffa500" d="M 163.65625 211.972656 C 163.550781 211.972656 163.445312 211.960938 163.339844 211.933594 L 157.230469 210.371094 C 156.542969 210.195312 156.125 209.492188 156.304688 208.804688 C 156.480469 208.113281 157.175781 207.699219 157.871094 207.878906 L 163.976562 209.441406 C 164.664062 209.617188 165.082031 210.316406 164.902344 211.007812 C 164.753906 211.585938 164.230469 211.972656 163.65625 211.972656 Z M 163.65625 211.972656 " fill-opacity="1" fill-rule="nonzero"/><g clip-path="url(#4abdf4b9e2)"><path fill="#ffa500" d="M 146.828125 208.117188 C 146.765625 208.117188 146.707031 208.113281 146.648438 208.105469 C 144.226562 207.769531 141.625 207.519531 138.914062 207.359375 C 138.203125 207.320312 137.664062 206.710938 137.703125 206 C 137.746094 205.289062 138.34375 204.761719 139.0625 204.789062 C 141.84375 204.953125 144.511719 205.210938 147.003906 205.558594 C 147.707031 205.65625 148.195312 206.304688 148.097656 207.007812 C 148.007812 207.652344 147.457031 208.117188 146.828125 208.117188 Z M 146.828125 208.117188 " fill-opacity="1" fill-rule="nonzero"/></g><path fill="#ffa500" d="M 179.800781 216.105469 C 179.695312 216.105469 179.589844 216.09375 179.480469 216.066406 L 173.5625 214.550781 C 172.871094 214.375 172.457031 213.671875 172.632812 212.984375 C 172.808594 212.296875 173.503906 211.875 174.199219 212.058594 L 180.121094 213.570312 C 180.808594 213.746094 181.222656 214.449219 181.046875 215.136719 C 180.898438 215.71875 180.375 216.105469 179.800781 216.105469 Z M 179.800781 216.105469 " fill-opacity="1" fill-rule="nonzero"/><g clip-path="url(#fb6de27d0c)"><path fill="#ffa500" d="M 55.871094 220.117188 C 47.871094 220.117188 39.871094 219.339844 33.78125 217.78125 L 1.117188 209.421875 C 0.429688 209.246094 0.015625 208.542969 0.191406 207.855469 C 0.367188 207.167969 1.066406 206.75 1.757812 206.929688 L 34.421875 215.285156 C 46.25 218.3125 65.496094 218.3125 77.324219 215.285156 L 109.980469 206.929688 C 116.109375 205.359375 124.265625 204.535156 132.949219 204.59375 C 133.660156 204.597656 134.230469 205.179688 134.226562 205.890625 C 134.222656 206.597656 133.648438 207.167969 132.941406 207.167969 C 132.9375 207.167969 132.933594 207.167969 132.929688 207.167969 C 124.601562 207.097656 116.453125 207.929688 110.621094 209.421875 L 77.960938 217.777344 C 71.871094 219.335938 63.871094 220.117188 55.871094 220.117188 Z M 55.871094 220.117188 " fill-opacity="1" fill-rule="nonzero"/></g><path fill="#ffa500" d="M 55.871094 239.753906 C 47.871094 239.753906 39.871094 238.972656 33.78125 237.414062 L 1.117188 229.054688 C 0.429688 228.878906 0.015625 228.179688 0.191406 227.492188 C 0.367188 226.800781 1.066406 226.382812 1.757812 226.5625 L 34.421875 234.921875 C 46.25 237.949219 65.496094 237.949219 77.324219 234.921875 L 109.980469 226.5625 C 122.164062 223.445312 141.980469 223.445312 154.164062 226.5625 L 186.820312 234.921875 C 187.507812 235.097656 187.921875 235.796875 187.746094 236.488281 C 187.570312 237.175781 186.871094 237.589844 186.179688 237.414062 L 153.523438 229.054688 C 141.695312 226.03125 122.449219 226.027344 110.621094 229.054688 L 77.960938 237.414062 C 71.871094 238.972656 63.871094 239.753906 55.871094 239.753906 Z M 55.871094 239.753906 " fill-opacity="1" fill-rule="nonzero"/><path fill="#ffa500" d="M 55.824219 259.386719 C 53.113281 259.386719 50.378906 259.296875 47.695312 259.109375 C 46.984375 259.0625 46.449219 258.445312 46.5 257.738281 C 46.546875 257.027344 47.15625 256.492188 47.871094 256.542969 C 58.410156 257.265625 69.695312 256.507812 77.324219 254.554688 L 109.980469 246.199219 C 122.160156 243.078125 141.980469 243.078125 154.160156 246.199219 L 186.820312 254.554688 C 187.507812 254.730469 187.921875 255.429688 187.746094 256.121094 C 187.570312 256.808594 186.871094 257.226562 186.179688 257.046875 L 153.523438 248.691406 C 141.695312 245.664062 122.445312 245.664062 110.617188 248.691406 L 77.960938 257.046875 C 72.042969 258.5625 64.023438 259.386719 55.824219 259.386719 Z M 55.824219 259.386719 " fill-opacity="1" fill-rule="nonzero"/><path fill="#ffa500" d="M 30.25 256.105469 C 30.144531 256.105469 30.039062 256.089844 29.933594 256.0625 L 19 253.265625 C 18.3125 253.089844 17.894531 252.386719 18.074219 251.699219 C 18.25 251.011719 18.945312 250.59375 19.640625 250.773438 L 30.570312 253.570312 C 31.257812 253.746094 31.675781 254.449219 31.496094 255.136719 C 31.347656 255.71875 30.824219 256.105469 30.25 256.105469 Z M 30.25 256.105469 " fill-opacity="1" fill-rule="nonzero"/><path fill="#ffa500" d="M 7.777344 250.351562 C 7.671875 250.351562 7.566406 250.339844 7.457031 250.3125 L 1.117188 248.691406 C 0.429688 248.515625 0.015625 247.8125 0.191406 247.125 C 0.367188 246.433594 1.066406 246.019531 1.757812 246.195312 L 8.097656 247.820312 C 8.785156 247.996094 9.203125 248.695312 9.023438 249.386719 C 8.875 249.96875 8.351562 250.351562 7.777344 250.351562 Z M 7.777344 250.351562 " fill-opacity="1" fill-rule="nonzero"/><path fill="#ffa500" d="M 55.871094 279.019531 C 47.871094 279.019531 39.871094 278.242188 33.78125 276.683594 L 1.117188 268.324219 C 0.429688 268.148438 0.015625 267.449219 0.191406 266.757812 C 0.367188 266.070312 1.066406 265.652344 1.757812 265.832031 L 34.421875 274.191406 C 46.25 277.21875 65.496094 277.21875 77.324219 274.191406 L 109.980469 265.832031 C 122.164062 262.714844 141.980469 262.714844 154.164062 265.832031 L 186.820312 274.191406 C 187.507812 274.363281 187.921875 275.066406 187.746094 275.753906 C 187.570312 276.445312 186.871094 276.859375 186.179688 276.683594 L 153.523438 268.324219 C 141.695312 265.300781 122.449219 265.296875 110.621094 268.324219 L 77.960938 276.683594 C 71.871094 278.242188 63.871094 279.019531 55.871094 279.019531 Z M 55.871094 279.019531 " fill-opacity="1" fill-rule="nonzero"/><path fill="#ffa500" d="M 186.5 296.355469 C 186.394531 296.355469 186.285156 296.34375 186.179688 296.316406 L 180.804688 294.941406 C 180.117188 294.765625 179.699219 294.0625 179.875 293.375 C 180.050781 292.6875 180.746094 292.265625 181.441406 292.449219 L 186.820312 293.824219 C 187.507812 294 187.921875 294.699219 187.746094 295.390625 C 187.597656 295.972656 187.074219 296.355469 186.5 296.355469 Z M 186.5 296.355469 " fill-opacity="1" fill-rule="nonzero"/><path fill="#ffa500" d="M 174.824219 293.371094 C 174.71875 293.371094 174.609375 293.355469 174.503906 293.328125 L 158.859375 289.324219 C 158.171875 289.148438 157.757812 288.449219 157.933594 287.757812 C 158.109375 287.070312 158.804688 286.652344 159.5 286.832031 L 175.144531 290.835938 C 175.832031 291.011719 176.246094 291.714844 176.070312 292.402344 C 175.921875 292.984375 175.398438 293.371094 174.824219 293.371094 Z M 174.824219 293.371094 " fill-opacity="1" fill-rule="nonzero"/><g clip-path="url(#859d77bd7b)"><path fill="#ffa500" d="M 55.871094 298.65625 C 47.871094 298.65625 39.871094 297.875 33.78125 296.316406 L 1.117188 287.957031 C 0.429688 287.785156 0.015625 287.082031 0.191406 286.394531 C 0.367188 285.707031 1.066406 285.285156 1.757812 285.464844 L 34.421875 293.824219 C 46.25 296.851562 65.496094 296.851562 77.324219 293.824219 L 109.980469 285.464844 C 120.792969 282.699219 137.675781 282.332031 150.132812 284.59375 C 150.832031 284.722656 151.292969 285.390625 151.167969 286.089844 C 151.039062 286.789062 150.375 287.257812 149.671875 287.128906 C 137.734375 284.960938 120.945312 285.316406 110.621094 287.960938 L 77.960938 296.316406 C 71.871094 297.875 63.871094 298.65625 55.871094 298.65625 Z M 55.871094 298.65625 " fill-opacity="1" fill-rule="nonzero"/></g></svg>