<svg xmlns="http://www.w3.org/2000/svg" xmlns:xlink="http://www.w3.org/1999/xlink" width="500" zoomAndPan="magnify" viewBox="0 0 375 374.999991" height="500" preserveAspectRatio="xMidYMid meet" version="1.0"><defs><filter x="0%" y="0%" width="100%" height="100%" id="addc0bf01a"><feColorMatrix values="0 0 0 0 1 0 0 0 0 1 0 0 0 0 1 0 0 0 1 0" color-interpolation-filters="sRGB"/></filter><g/><mask id="553f56fa3c"><g filter="url(#addc0bf01a)"><rect x="-37.5" width="450" fill="#000000" y="-37.499999" height="449.999989" fill-opacity="0.2"/></g></mask><clipPath id="e69e016f25"><path d="M 28.488281 28.785156 L 325.183594 28.785156 L 325.183594 325.480469 L 28.488281 325.480469 Z M 28.488281 28.785156 " clip-rule="nonzero"/></clipPath><clipPath id="724637bc06"><path d="M 176.835938 28.785156 C 94.90625 28.785156 28.488281 95.203125 28.488281 177.132812 C 28.488281 259.0625 94.90625 325.480469 176.835938 325.480469 C 258.765625 325.480469 325.183594 259.0625 325.183594 177.132812 C 325.183594 95.203125 258.765625 28.785156 176.835938 28.785156 Z M 176.835938 28.785156 " clip-rule="nonzero"/></clipPath><clipPath id="f91d8712e9"><path d="M 28.488281 28.785156 L 325.183594 28.785156 L 325.183594 325.480469 L 28.488281 325.480469 Z M 28.488281 28.785156 " clip-rule="nonzero"/></clipPath><clipPath id="526a91a75d"><path d="M 176.835938 28.785156 C 94.902344 28.785156 28.488281 95.203125 28.488281 177.132812 C 28.488281 259.0625 94.902344 325.480469 176.835938 325.480469 C 258.765625 325.480469 325.183594 259.0625 325.183594 177.132812 C 325.183594 95.203125 258.765625 28.785156 176.835938 28.785156 Z M 176.835938 28.785156 " clip-rule="nonzero"/></clipPath><clipPath id="aaaa90194b"><rect x="0" width="328" y="0" height="354"/></clipPath><clipPath id="2f0d79dd8c"><path d="M 132.148438 95.8125 L 315 95.8125 L 315 206 L 132.148438 206 Z M 132.148438 95.8125 " clip-rule="nonzero"/></clipPath><clipPath id="309363a187"><path d="M 75.488281 35.785156 L 372.183594 35.785156 L 372.183594 332.480469 L 75.488281 332.480469 Z M 75.488281 35.785156 " clip-rule="nonzero"/></clipPath><clipPath id="31e3cacdc5"><path d="M 223.835938 35.785156 C 141.902344 35.785156 75.488281 102.203125 75.488281 184.132812 C 75.488281 266.0625 141.902344 332.480469 223.835938 332.480469 C 305.765625 332.480469 372.183594 266.0625 372.183594 184.132812 C 372.183594 102.203125 305.765625 35.785156 223.835938 35.785156 Z M 223.835938 35.785156 " clip-rule="nonzero"/></clipPath><clipPath id="b4edd2b444"><path d="M 0 204.726562 L 134 204.726562 L 134 221 L 0 221 Z M 0 204.726562 " clip-rule="nonzero"/></clipPath><clipPath id="d0293de2ef"><path d="M 0 224 L 187.5 224 L 187.5 240 L 0 240 Z M 0 224 " clip-rule="nonzero"/></clipPath><clipPath id="3958e362da"><path d="M 46 244 L 187.5 244 L 187.5 260 L 46 260 Z M 46 244 " clip-rule="nonzero"/></clipPath><clipPath id="aeb1d0ef7c"><path d="M 0 263 L 187.5 263 L 187.5 280 L 0 280 Z M 0 263 " clip-rule="nonzero"/></clipPath><clipPath id="2ba1f8ee8b"><path d="M 179 292 L 187.5 292 L 187.5 297 L 179 297 Z M 179 292 " clip-rule="nonzero"/></clipPath><clipPath id="c83227a22b"><path d="M 0 283 L 151 283 L 151 298.476562 L 0 298.476562 Z M 0 283 " clip-rule="nonzero"/></clipPath></defs><g mask="url(#553f56fa3c)"><g transform="matrix(1, 0, 0, 1, 47, 7)"><g clip-path="url(#aaaa90194b)"><g clip-path="url(#e69e016f25)"><g clip-path="url(#724637bc06)"><path fill="#8f00ff" d="M 28.488281 28.785156 L 325.183594 28.785156 L 325.183594 325.480469 L 28.488281 325.480469 Z M 28.488281 28.785156 " fill-opacity="1" fill-rule="nonzero"/></g></g><g clip-path="url(#f91d8712e9)"><g clip-path="url(#526a91a75d)"><path stroke-linecap="butt" transform="matrix(0.75, 0, 0, 0.75, 28.486518, 28.783845)" fill="none" stroke-linejoin="miter" d="M 197.799239 0.001748 C 88.55444 0.001748 0.00235076 88.559045 0.00235076 197.798636 C 0.00235076 307.038226 88.55444 395.595524 197.799239 395.595524 C 307.038829 395.595524 395.596127 307.038226 395.596127 197.798636 C 395.596127 88.559045 307.038829 0.001748 197.799239 0.001748 Z M 197.799239 0.001748 " stroke="#8f00ff" stroke-width="16" stroke-opacity="1" stroke-miterlimit="4"/></g></g></g></g></g><path fill="#f4b53e" d="M 205.070312 205.675781 L 195.496094 231.828125 C 195.117188 232.835938 195.875 233.925781 196.96875 233.925781 L 217.371094 233.925781 L 202.238281 275.617188 C 201.578125 277.40625 203.96875 278.71875 205.121094 277.222656 L 248.453125 220.746094 C 249.238281 219.738281 248.476562 218.230469 247.191406 218.230469 L 228.355469 218.230469 L 235.257812 205.675781 L 236.203125 202.535156 L 207.953125 202.535156 L 205.070312 205.675781 " fill-opacity="1" fill-rule="nonzero"/><path fill="#f4b53e" d="M 152.640625 203.542969 L 143.507812 229.121094 C 143.199219 229.941406 143.789062 230.789062 144.671875 230.789062 L 160.871094 230.789062 L 148.71875 263.527344 C 148.214844 264.972656 150.105469 265.976562 151.011719 264.789062 L 185.722656 220.242188 C 186.359375 219.421875 185.761719 218.230469 184.71875 218.230469 L 169.5625 218.230469 L 175.496094 205.675781 L 152.640625 203.542969 " fill-opacity="1" fill-rule="nonzero"/><path fill="#f4b53e" d="M 269.101562 205.675781 L 260.714844 229.121094 C 260.40625 229.941406 261.007812 230.789062 261.878906 230.789062 L 278.078125 230.789062 L 265.925781 263.527344 C 265.421875 264.972656 267.3125 265.976562 268.21875 264.789062 L 302.941406 220.242188 C 303.570312 219.421875 302.96875 218.230469 301.9375 218.230469 L 286.769531 218.230469 L 293.746094 203.886719 L 269.101562 205.675781 " fill-opacity="1" fill-rule="nonzero"/><g clip-path="url(#2f0d79dd8c)"><path fill="#cee7f8" d="M 314.675781 174.285156 C 314.675781 191.613281 300.613281 205.675781 283.289062 205.675781 L 164.007812 205.675781 C 146.683594 205.675781 132.617188 191.613281 132.617188 174.285156 C 132.617188 157.964844 145.078125 144.566406 161.027344 143.054688 C 160.96875 141.953125 160.871094 140.863281 160.871094 139.757812 C 160.871094 115.492188 180.550781 95.8125 204.816406 95.8125 C 218.78125 95.8125 231.214844 102.371094 239.28125 112.550781 C 244.273438 108.027344 250.894531 105.230469 258.175781 105.230469 C 273.773438 105.230469 286.425781 117.882812 286.425781 133.480469 C 286.425781 136.804688 285.824219 140.015625 284.757812 142.957031 C 301.398438 143.742188 314.675781 157.464844 314.675781 174.285156 " fill-opacity="1" fill-rule="nonzero"/></g><g clip-path="url(#309363a187)"><g clip-path="url(#31e3cacdc5)"><path stroke-linecap="butt" transform="matrix(0.75, 0, 0, 0.75, 75.486518, 35.783845)" fill="none" stroke-linejoin="miter" d="M 197.799239 0.001748 C 88.55444 0.001748 0.00235108 88.559045 0.00235108 197.798636 C 0.00235108 307.038226 88.55444 395.595524 197.799239 395.595524 C 307.03883 395.595524 395.596127 307.038226 395.596127 197.798636 C 395.596127 88.559045 307.03883 0.001748 197.799239 0.001748 Z M 197.799239 0.001748 " stroke="#8f00ff" stroke-width="16" stroke-opacity="1" stroke-miterlimit="4"/></g></g><g fill="#8f00ff" fill-opacity="1"><g transform="translate(190.512509, 71.495724)"><g><path d="M 2.515625 -2.5625 C 2.535156 -2.71875 2.476562 -3.226562 2.34375 -4.09375 C 2.207031 -4.96875 2.019531 -6 1.78125 -7.1875 L 0.875 -11.53125 C 0.625 -12.789062 0.390625 -13.847656 0.171875 -14.703125 C -0.046875 -15.554688 -0.191406 -16.03125 -0.265625 -16.125 L -2.28125 -16.21875 L -2.484375 -17.71875 L 5.953125 -19.453125 C 8.066406 -19.890625 9.703125 -19.863281 10.859375 -19.375 C 12.023438 -18.882812 12.753906 -17.9375 13.046875 -16.53125 C 13.273438 -15.4375 12.992188 -14.425781 12.203125 -13.5 C 11.410156 -12.570312 10.25 -11.898438 8.71875 -11.484375 L 8.828125 -11.75 C 10.742188 -12.0625 12.285156 -11.929688 13.453125 -11.359375 C 14.628906 -10.796875 15.347656 -9.863281 15.609375 -8.5625 C 15.941406 -6.945312 15.519531 -5.546875 14.34375 -4.359375 C 13.175781 -3.179688 11.375 -2.34375 8.9375 -1.84375 L 1.109375 -0.234375 L 0.703125 -1.6875 Z M 6.03125 -6.734375 C 6.1875 -5.953125 6.332031 -5.269531 6.46875 -4.6875 C 6.613281 -4.101562 6.722656 -3.695312 6.796875 -3.46875 C 7.003906 -3.4375 7.289062 -3.429688 7.65625 -3.453125 C 8.019531 -3.484375 8.351562 -3.53125 8.65625 -3.59375 C 9.726562 -3.8125 10.5 -4.242188 10.96875 -4.890625 C 11.445312 -5.535156 11.59375 -6.320312 11.40625 -7.25 C 11.175781 -8.375 10.691406 -9.132812 9.953125 -9.53125 C 9.210938 -9.925781 8.160156 -9.984375 6.796875 -9.703125 C 6.441406 -9.628906 6.132812 -9.566406 5.875 -9.515625 C 5.625 -9.460938 5.367188 -9.390625 5.109375 -9.296875 L 4.703125 -11.28125 C 4.992188 -11.320312 5.253906 -11.359375 5.484375 -11.390625 C 5.722656 -11.429688 5.984375 -11.476562 6.265625 -11.53125 C 7.335938 -11.75 8.085938 -12.175781 8.515625 -12.8125 C 8.941406 -13.445312 9.050781 -14.257812 8.84375 -15.25 C 8.65625 -16.144531 8.242188 -16.800781 7.609375 -17.21875 C 6.984375 -17.644531 6.125 -17.742188 5.03125 -17.515625 L 3.921875 -17.296875 C 3.929688 -17.097656 4 -16.664062 4.125 -16 C 4.257812 -15.34375 4.414062 -14.570312 4.59375 -13.6875 Z M 6.03125 -6.734375 "/></g></g></g><g fill="#8f00ff" fill-opacity="1"><g transform="translate(213.713881, 67.118363)"><g><path d="M 10.9375 0.390625 C 9.070312 0.367188 7.414062 -0.03125 5.96875 -0.8125 C 4.53125 -1.59375 3.410156 -2.660156 2.609375 -4.015625 C 1.804688 -5.378906 1.414062 -6.929688 1.4375 -8.671875 C 1.457031 -10.492188 1.878906 -12.109375 2.703125 -13.515625 C 3.535156 -14.929688 4.6875 -16.035156 6.15625 -16.828125 C 7.625 -17.628906 9.289062 -18.019531 11.15625 -18 C 12.957031 -17.976562 14.539062 -17.582031 15.90625 -16.8125 C 17.28125 -16.039062 18.359375 -14.984375 19.140625 -13.640625 C 19.921875 -12.296875 20.300781 -10.734375 20.28125 -8.953125 C 20.269531 -7.390625 19.96875 -6.019531 19.375 -4.84375 C 18.78125 -3.675781 18.019531 -2.703125 17.09375 -1.921875 C 16.164062 -1.140625 15.160156 -0.554688 14.078125 -0.171875 C 13.003906 0.210938 11.957031 0.398438 10.9375 0.390625 Z M 11.203125 -1.890625 C 12.128906 -1.878906 12.910156 -2.117188 13.546875 -2.609375 C 14.179688 -3.097656 14.660156 -3.816406 14.984375 -4.765625 C 15.304688 -5.722656 15.476562 -6.878906 15.5 -8.234375 C 15.507812 -9.796875 15.316406 -11.15625 14.921875 -12.3125 C 14.523438 -13.46875 13.976562 -14.367188 13.28125 -15.015625 C 12.582031 -15.660156 11.75 -15.988281 10.78125 -16 C 9.382812 -16.007812 8.28125 -15.441406 7.46875 -14.296875 C 6.664062 -13.148438 6.253906 -11.554688 6.234375 -9.515625 C 6.222656 -8.015625 6.429688 -6.691406 6.859375 -5.546875 C 7.285156 -4.410156 7.867188 -3.519531 8.609375 -2.875 C 9.347656 -2.226562 10.210938 -1.898438 11.203125 -1.890625 Z M 11.203125 -1.890625 "/></g></g></g><g fill="#8f00ff" fill-opacity="1"><g transform="translate(240.5054, 68.196067)"><g><path d="M 14.765625 3.5 C 14.253906 3.320312 13.703125 3.15625 13.109375 3 C 12.523438 2.84375 11.960938 2.691406 11.421875 2.546875 C 10.890625 2.410156 10.460938 2.3125 10.140625 2.25 L 1.15625 0.25 L 1.390625 -1.25 L 3.40625 -1.296875 C 3.457031 -1.390625 3.539062 -1.65625 3.65625 -2.09375 C 3.78125 -2.539062 3.925781 -3.09375 4.09375 -3.75 C 4.257812 -4.414062 4.421875 -5.113281 4.578125 -5.84375 L 5.546875 -10.171875 C 5.710938 -10.941406 5.859375 -11.65625 5.984375 -12.3125 C 6.109375 -12.976562 6.207031 -13.53125 6.28125 -13.96875 C 6.363281 -14.414062 6.394531 -14.6875 6.375 -14.78125 L 4.59375 -15.703125 L 5 -17.171875 L 13.578125 -15.265625 L 13.34375 -13.703125 L 10.765625 -13.8125 C 10.734375 -13.75 10.65625 -13.507812 10.53125 -13.09375 C 10.414062 -12.6875 10.273438 -12.15625 10.109375 -11.5 C 9.941406 -10.84375 9.769531 -10.097656 9.59375 -9.265625 L 8.625 -4.9375 C 8.375 -3.789062 8.179688 -2.863281 8.046875 -2.15625 C 7.910156 -1.445312 7.828125 -0.960938 7.796875 -0.703125 C 8.117188 -0.578125 8.457031 -0.460938 8.8125 -0.359375 C 9.175781 -0.253906 9.613281 -0.148438 10.125 -0.046875 L 11.25 0.203125 C 11.664062 0.296875 12.050781 0.363281 12.40625 0.40625 C 12.757812 0.445312 13.046875 0.46875 13.265625 0.46875 L 15.65625 -2.390625 L 17.375 -1.546875 Z M 14.765625 3.5 "/></g></g></g><g fill="#8f00ff" fill-opacity="1"><g transform="translate(262.050138, 73.407563)"><g><path d="M 23.1875 -9.484375 L 21.640625 -4.265625 L 19.875 -4.90625 L 20.15625 -8.578125 C 20 -8.703125 19.816406 -8.8125 19.609375 -8.90625 C 19.410156 -9 19.1875 -9.097656 18.9375 -9.203125 L 18 -9.625 C 17.832031 -9.695312 17.640625 -9.78125 17.421875 -9.875 C 17.210938 -9.96875 17.039062 -10.023438 16.90625 -10.046875 C 16.851562 -9.941406 16.695312 -9.597656 16.4375 -9.015625 C 16.175781 -8.441406 15.867188 -7.757812 15.515625 -6.96875 C 15.160156 -6.175781 14.800781 -5.367188 14.4375 -4.546875 L 13.3125 -1.96875 C 12.851562 -0.925781 12.445312 0.015625 12.09375 0.859375 C 11.738281 1.703125 11.476562 2.34375 11.3125 2.78125 L 13.59375 4.234375 L 12.859375 5.640625 L 4.203125 1.84375 L 4.765625 0.375 L 7.34375 1.046875 C 7.539062 0.617188 7.832031 -0.00390625 8.21875 -0.828125 C 8.613281 -1.660156 9.039062 -2.597656 9.5 -3.640625 L 10.625 -6.21875 C 10.988281 -7.039062 11.335938 -7.851562 11.671875 -8.65625 C 12.015625 -9.457031 12.3125 -10.144531 12.5625 -10.71875 C 12.8125 -11.300781 12.953125 -11.648438 12.984375 -11.765625 C 12.890625 -11.835938 12.738281 -11.921875 12.53125 -12.015625 C 12.320312 -12.109375 12.132812 -12.191406 11.96875 -12.265625 L 10.984375 -12.703125 C 10.765625 -12.796875 10.535156 -12.890625 10.296875 -12.984375 C 10.054688 -13.085938 9.835938 -13.15625 9.640625 -13.1875 L 7.15625 -10.40625 L 5.484375 -11.328125 L 8.265625 -16.03125 C 8.441406 -15.945312 8.695312 -15.820312 9.03125 -15.65625 C 9.363281 -15.488281 9.71875 -15.3125 10.09375 -15.125 C 10.46875 -14.9375 10.832031 -14.757812 11.1875 -14.59375 C 11.550781 -14.425781 11.863281 -14.285156 12.125 -14.171875 L 19.1875 -11.078125 C 19.457031 -10.953125 19.769531 -10.816406 20.125 -10.671875 C 20.476562 -10.535156 20.851562 -10.390625 21.25 -10.234375 C 21.644531 -10.078125 22.015625 -9.9375 22.359375 -9.8125 C 22.703125 -9.6875 22.976562 -9.578125 23.1875 -9.484375 Z M 23.1875 -9.484375 "/></g></g></g><g fill="#8f00ff" fill-opacity="1"><g transform="translate(283.988298, 84.040405)"><g/></g></g><g fill="#8f00ff" fill-opacity="1"><g transform="translate(293.9633, 90.356239)"><g><path d="M 3.5625 0.46875 C 3.695312 0.382812 4.070312 0.0234375 4.6875 -0.609375 C 5.300781 -1.242188 6.007812 -2.019531 6.8125 -2.9375 L 9.734375 -6.28125 C 10.578125 -7.238281 11.269531 -8.0625 11.8125 -8.75 C 12.351562 -9.4375 12.644531 -9.835938 12.6875 -9.953125 L 11.5625 -11.640625 L 12.59375 -12.6875 L 19.09375 -7 C 20.707031 -5.582031 21.675781 -4.265625 22 -3.046875 C 22.320312 -1.828125 22.007812 -0.675781 21.0625 0.40625 C 20.320312 1.238281 19.34375 1.617188 18.125 1.546875 C 16.90625 1.484375 15.664062 0.96875 14.40625 0 L 14.703125 -0.0625 C 16.097656 1.269531 16.921875 2.570312 17.171875 3.84375 C 17.429688 5.125 17.125 6.265625 16.25 7.265625 C 15.164062 8.503906 13.796875 9.015625 12.140625 8.796875 C 10.492188 8.578125 8.734375 7.648438 6.859375 6.015625 L 0.84375 0.734375 L 1.78125 -0.46875 Z M 9.015625 0.734375 C 8.484375 1.335938 8.023438 1.875 7.640625 2.34375 C 7.265625 2.8125 7.007812 3.132812 6.875 3.3125 C 6.976562 3.5 7.144531 3.734375 7.375 4.015625 C 7.613281 4.296875 7.847656 4.535156 8.078125 4.734375 C 8.898438 5.453125 9.710938 5.804688 10.515625 5.796875 C 11.328125 5.785156 12.046875 5.425781 12.671875 4.71875 C 13.429688 3.84375 13.742188 2.988281 13.609375 2.15625 C 13.472656 1.332031 12.882812 0.460938 11.84375 -0.453125 C 11.570312 -0.691406 11.335938 -0.894531 11.140625 -1.0625 C 10.941406 -1.226562 10.722656 -1.390625 10.484375 -1.546875 L 11.8125 -3.0625 C 12.03125 -2.851562 12.222656 -2.664062 12.390625 -2.5 C 12.566406 -2.332031 12.757812 -2.160156 12.96875 -1.984375 C 13.789062 -1.265625 14.582031 -0.925781 15.34375 -0.96875 C 16.113281 -1.007812 16.832031 -1.410156 17.5 -2.171875 C 18.09375 -2.859375 18.363281 -3.578125 18.3125 -4.328125 C 18.269531 -5.085938 17.828125 -5.835938 16.984375 -6.578125 L 16.140625 -7.3125 C 15.992188 -7.1875 15.695312 -6.875 15.25 -6.375 C 14.800781 -5.875 14.28125 -5.28125 13.6875 -4.59375 Z M 9.015625 0.734375 "/></g></g></g><g fill="#8f00ff" fill-opacity="1"><g transform="translate(311.425286, 106.443544)"><g><path d="M 9.09375 12.15625 C 8.820312 11.6875 8.507812 11.203125 8.15625 10.703125 C 7.800781 10.210938 7.457031 9.738281 7.125 9.28125 C 6.800781 8.832031 6.539062 8.476562 6.34375 8.21875 L 0.71875 0.9375 L 1.875 -0.0625 L 3.4375 1.1875 C 3.539062 1.15625 3.78125 1.003906 4.15625 0.734375 C 4.53125 0.472656 4.992188 0.144531 5.546875 -0.25 C 6.097656 -0.644531 6.671875 -1.070312 7.265625 -1.53125 L 10.78125 -4.25 C 11.40625 -4.726562 11.976562 -5.179688 12.5 -5.609375 C 13.019531 -6.046875 13.453125 -6.40625 13.796875 -6.6875 C 14.140625 -6.976562 14.332031 -7.164062 14.375 -7.25 L 13.59375 -9.109375 L 14.84375 -9.96875 L 20.21875 -3.015625 L 19.015625 -1.96875 L 17.109375 -3.6875 C 17.046875 -3.675781 16.835938 -3.546875 16.484375 -3.296875 C 16.140625 -3.054688 15.691406 -2.738281 15.140625 -2.34375 C 14.597656 -1.945312 13.988281 -1.488281 13.3125 -0.96875 L 9.796875 1.75 C 8.859375 2.46875 8.109375 3.050781 7.546875 3.5 C 6.992188 3.957031 6.617188 4.273438 6.421875 4.453125 C 6.597656 4.765625 6.789062 5.070312 7 5.375 C 7.207031 5.6875 7.46875 6.046875 7.78125 6.453125 L 8.484375 7.375 C 8.742188 7.707031 9 8 9.25 8.25 C 9.507812 8.507812 9.722656 8.71875 9.890625 8.875 L 13.546875 8.1875 L 14.328125 9.9375 Z M 9.09375 12.15625 "/></g></g></g><g fill="#8f00ff" fill-opacity="1"><g transform="translate(324.673115, 124.11531)"><g><path d="M 4.5 9.96875 C 3.695312 8.289062 3.328125 6.628906 3.390625 4.984375 C 3.453125 3.347656 3.910156 1.867188 4.765625 0.546875 C 5.617188 -0.773438 6.832031 -1.816406 8.40625 -2.578125 C 10.039062 -3.367188 11.675781 -3.703125 13.3125 -3.578125 C 14.957031 -3.460938 16.457031 -2.921875 17.8125 -1.953125 C 19.175781 -0.992188 20.265625 0.320312 21.078125 2 C 21.867188 3.625 22.222656 5.21875 22.140625 6.78125 C 22.054688 8.351562 21.582031 9.785156 20.71875 11.078125 C 19.863281 12.378906 18.632812 13.414062 17.03125 14.1875 C 15.625 14.863281 14.265625 15.195312 12.953125 15.1875 C 11.640625 15.1875 10.425781 14.941406 9.3125 14.453125 C 8.195312 13.972656 7.226562 13.335938 6.40625 12.546875 C 5.582031 11.753906 4.945312 10.894531 4.5 9.96875 Z M 6.65625 9.203125 C 7.0625 10.035156 7.628906 10.628906 8.359375 10.984375 C 9.085938 11.335938 9.945312 11.445312 10.9375 11.3125 C 11.925781 11.175781 13.035156 10.8125 14.265625 10.21875 C 15.671875 9.539062 16.800781 8.769531 17.65625 7.90625 C 18.519531 7.039062 19.082031 6.148438 19.34375 5.234375 C 19.613281 4.316406 19.535156 3.421875 19.109375 2.546875 C 18.503906 1.296875 17.507812 0.5625 16.125 0.34375 C 14.738281 0.132812 13.128906 0.472656 11.296875 1.359375 C 9.941406 2.015625 8.847656 2.785156 8.015625 3.671875 C 7.179688 4.566406 6.640625 5.488281 6.390625 6.4375 C 6.140625 7.382812 6.226562 8.304688 6.65625 9.203125 Z M 6.65625 9.203125 "/></g></g></g><g fill="#8f00ff" fill-opacity="1"><g transform="translate(335.669704, 148.503764)"><g><path d="M 2.359375 11.125 C 1.898438 9.207031 1.835938 7.4375 2.171875 5.8125 C 2.515625 4.195312 3.234375 2.828125 4.328125 1.703125 C 5.429688 0.578125 6.894531 -0.203125 8.71875 -0.640625 C 10.144531 -0.984375 11.488281 -1.035156 12.75 -0.796875 C 14.007812 -0.566406 15.148438 -0.0820312 16.171875 0.65625 C 17.203125 1.40625 18.078125 2.359375 18.796875 3.515625 C 19.515625 4.679688 20.050781 6.007812 20.40625 7.5 C 20.625 8.40625 20.742188 9.332031 20.765625 10.28125 C 20.796875 11.238281 20.742188 12.066406 20.609375 12.765625 L 16.140625 14.0625 L 15.578125 12.25 L 18.4375 10.484375 C 18.539062 10.054688 18.585938 9.601562 18.578125 9.125 C 18.578125 8.65625 18.519531 8.179688 18.40625 7.703125 C 18.132812 6.566406 17.632812 5.664062 16.90625 5 C 16.1875 4.332031 15.285156 3.910156 14.203125 3.734375 C 13.117188 3.554688 11.910156 3.628906 10.578125 3.953125 C 9.054688 4.316406 7.804688 4.878906 6.828125 5.640625 C 5.859375 6.398438 5.175781 7.273438 4.78125 8.265625 C 4.394531 9.253906 4.328125 10.269531 4.578125 11.3125 C 4.710938 11.863281 4.914062 12.382812 5.1875 12.875 C 5.457031 13.363281 5.78125 13.75 6.15625 14.03125 L 9.125 14.453125 L 9.40625 16.46875 L 5.28125 16.5625 C 4.738281 16.039062 4.179688 15.285156 3.609375 14.296875 C 3.046875 13.316406 2.628906 12.257812 2.359375 11.125 Z M 2.359375 11.125 "/></g></g></g><g fill="#8f00ff" fill-opacity="1"><g transform="translate(340.800374, 172.16224)"><g><path d="M 0.28125 11.28125 L 1.796875 11.125 L 2.140625 12.6875 C 2.359375 12.5625 2.5625 12.429688 2.75 12.296875 C 2.9375 12.160156 3.210938 11.945312 3.578125 11.65625 L 8.046875 7.765625 L 8.015625 6.578125 L 9.46875 6.546875 L 9.75 7.828125 L 16.34375 13.90625 L 16.640625 11.96875 L 18.15625 12.015625 L 18.328125 18.90625 L 16.75 19.046875 L 16.390625 17.046875 L 10.234375 10.515625 L 11.578125 10.390625 L 4.6875 16.421875 C 4.164062 16.921875 3.738281 17.316406 3.40625 17.609375 C 3.082031 17.898438 2.835938 18.128906 2.671875 18.296875 C 2.503906 18.472656 2.367188 18.609375 2.265625 18.703125 L 2.046875 20.265625 L 0.5 20.296875 Z M 0.03125 1.25 L 1.546875 1.125 L 2.078125 3.046875 C 2.222656 3.078125 2.71875 3.09375 3.5625 3.09375 C 4.414062 3.09375 5.484375 3.078125 6.765625 3.046875 L 11.203125 2.9375 C 12.054688 2.914062 12.820312 2.882812 13.5 2.84375 C 14.175781 2.8125 14.726562 2.773438 15.15625 2.734375 C 15.582031 2.691406 15.835938 2.65625 15.921875 2.625 L 16.359375 0.6875 L 17.875 0.734375 L 18.078125 8.90625 L 16.5625 9.046875 L 16.03125 7.109375 C 15.925781 7.078125 15.65625 7.050781 15.21875 7.03125 C 14.78125 7.007812 14.226562 7 13.5625 7 C 12.894531 7.007812 12.144531 7.023438 11.3125 7.046875 L 6.875 7.15625 C 5.59375 7.1875 4.523438 7.226562 3.671875 7.28125 C 2.828125 7.332031 2.332031 7.375 2.1875 7.40625 L 1.734375 9 L 0.21875 8.9375 Z M 0.03125 1.25 "/></g></g></g><g fill="#8f00ff" fill-opacity="1"><g transform="translate(340.772737, 197.398745)"><g><path d="M -3.015625 15.53125 C -2.867188 14.976562 -2.703125 14.304688 -2.515625 13.515625 C -2.328125 12.734375 -2.175781 12.023438 -2.0625 11.390625 L -0.203125 1.109375 L 1.296875 1.28125 L 1.4375 3.296875 C 1.53125 3.359375 1.78125 3.4375 2.1875 3.53125 C 2.601562 3.632812 3.144531 3.757812 3.8125 3.90625 C 4.476562 4.050781 5.210938 4.191406 6.015625 4.328125 L 10.390625 5.125 C 11.222656 5.28125 11.972656 5.40625 12.640625 5.5 C 13.304688 5.601562 13.851562 5.679688 14.28125 5.734375 C 14.707031 5.785156 14.96875 5.796875 15.0625 5.765625 L 15.875 3.9375 L 17.359375 4.296875 L 15.6875 13.5 C 15.613281 13.90625 15.53125 14.390625 15.4375 14.953125 C 15.34375 15.523438 15.257812 16.085938 15.1875 16.640625 C 15.125 17.191406 15.066406 17.660156 15.015625 18.046875 L 10.4375 18.046875 L 10.5 16.265625 L 13.34375 15.65625 C 13.457031 15.394531 13.539062 15.160156 13.59375 14.953125 C 13.644531 14.753906 13.691406 14.535156 13.734375 14.296875 L 14.15625 12.015625 C 14.21875 11.640625 14.273438 11.273438 14.328125 10.921875 C 14.378906 10.566406 14.410156 10.28125 14.421875 10.0625 C 14.265625 10.03125 14.023438 9.976562 13.703125 9.90625 C 13.390625 9.84375 12.984375 9.757812 12.484375 9.65625 C 11.984375 9.5625 11.394531 9.457031 10.71875 9.34375 L 4.453125 8.203125 C 3.804688 8.085938 3.234375 7.984375 2.734375 7.890625 C 2.242188 7.804688 1.832031 7.738281 1.5 7.6875 C 1.164062 7.644531 0.90625 7.609375 0.71875 7.578125 C 0.59375 7.929688 0.484375 8.304688 0.390625 8.703125 C 0.304688 9.097656 0.210938 9.59375 0.109375 10.1875 L -0.1875 11.765625 C -0.28125 12.285156 -0.34375 12.664062 -0.375 12.90625 C -0.40625 13.15625 -0.425781 13.347656 -0.4375 13.484375 C -0.445312 13.628906 -0.453125 13.769531 -0.453125 13.90625 L 2.25 16.09375 L 1.59375 17.734375 Z M 3.84375 12.84375 L 5.90625 12.90625 C 5.945312 12.757812 6 12.535156 6.0625 12.234375 C 6.132812 11.941406 6.207031 11.597656 6.28125 11.203125 L 6.5625 9.609375 C 6.625 9.273438 6.671875 8.953125 6.703125 8.640625 C 6.742188 8.335938 6.769531 8.097656 6.78125 7.921875 L 8.90625 8.3125 C 8.851562 8.476562 8.789062 8.710938 8.71875 9.015625 C 8.644531 9.316406 8.578125 9.632812 8.515625 9.96875 L 8.234375 11.5625 C 8.160156 11.957031 8.097656 12.300781 8.046875 12.59375 C 8.003906 12.894531 7.972656 13.117188 7.953125 13.265625 L 9.875 13.953125 L 9.578125 15.59375 L 3.546875 14.484375 Z M 3.84375 12.84375 "/></g></g></g><g fill="#8f00ff" fill-opacity="1"><g transform="translate(336.183534, 220.002296)"><g><path d="M -0.46875 1.1875 L 0.96875 1.671875 L 0.734375 3.65625 C 0.847656 3.707031 1.0625 3.800781 1.375 3.9375 C 1.6875 4.070312 2.054688 4.226562 2.484375 4.40625 C 2.921875 4.59375 3.359375 4.78125 3.796875 4.96875 C 4.242188 5.15625 4.644531 5.320312 5 5.46875 L 9.125 7.109375 C 9.914062 7.429688 10.628906 7.707031 11.265625 7.9375 C 11.910156 8.175781 12.4375 8.359375 12.84375 8.484375 C 13.25 8.617188 13.492188 8.6875 13.578125 8.6875 L 14.765625 7.046875 L 16.140625 7.703125 L 13.203125 15.015625 C 12.347656 17.171875 11.367188 18.625 10.265625 19.375 C 9.160156 20.132812 7.863281 20.21875 6.375 19.625 C 5.457031 19.257812 4.75 18.648438 4.25 17.796875 C 3.75 16.953125 3.488281 15.953125 3.46875 14.796875 C 3.457031 13.640625 3.707031 12.425781 4.21875 11.15625 L 4.953125 9.328125 L 6.578125 9.96875 L 6.078125 11.234375 C 5.691406 12.179688 5.675781 13.050781 6.03125 13.84375 C 6.382812 14.644531 7.035156 15.238281 7.984375 15.625 C 8.878906 15.976562 9.648438 16.007812 10.296875 15.71875 C 10.941406 15.425781 11.453125 14.820312 11.828125 13.90625 L 12.25 12.828125 C 12.207031 12.773438 12.054688 12.691406 11.796875 12.578125 C 11.535156 12.472656 11.203125 12.335938 10.796875 12.171875 C 10.390625 12.015625 9.9375 11.835938 9.4375 11.640625 C 8.945312 11.441406 8.421875 11.226562 7.859375 11 L 3.5 9.265625 C 3.007812 9.066406 2.472656 8.851562 1.890625 8.625 C 1.304688 8.394531 0.757812 8.191406 0.25 8.015625 C -0.257812 7.835938 -0.628906 7.710938 -0.859375 7.640625 L -1.984375 9.03125 L -3.359375 8.390625 Z M -6.6875 15.78125 C -6.269531 14.71875 -5.726562 13.84375 -5.0625 13.15625 C -4.394531 12.476562 -3.570312 11.957031 -2.59375 11.59375 C -1.625 11.238281 -0.5 11.023438 0.78125 10.953125 L 4.921875 10.734375 L 4.375 14.15625 L -1.65625 15.65625 C -2.351562 15.832031 -2.960938 16.03125 -3.484375 16.25 C -4.015625 16.46875 -4.484375 16.738281 -4.890625 17.0625 C -5.296875 17.382812 -5.65625 17.757812 -5.96875 18.1875 L -7.25 17.640625 C -7.195312 17.304688 -7.117188 16.984375 -7.015625 16.671875 C -6.921875 16.367188 -6.8125 16.070312 -6.6875 15.78125 Z M -6.6875 15.78125 "/></g></g></g><path fill="#8f00ff" d="M 163.363281 212.191406 C 163.257812 212.191406 163.148438 212.175781 163.042969 212.148438 L 156.945312 210.589844 C 156.257812 210.414062 155.84375 209.714844 156.019531 209.027344 C 156.195312 208.339844 156.890625 207.921875 157.582031 208.101562 L 163.679688 209.660156 C 164.367188 209.835938 164.78125 210.535156 164.605469 211.222656 C 164.457031 211.804688 163.933594 212.191406 163.363281 212.191406 Z M 163.363281 212.191406 " fill-opacity="1" fill-rule="nonzero"/><path fill="#8f00ff" d="M 146.5625 208.34375 C 146.5 208.34375 146.441406 208.339844 146.382812 208.328125 C 143.964844 207.992188 141.367188 207.742188 138.660156 207.585938 C 137.953125 207.542969 137.414062 206.9375 137.453125 206.226562 C 137.496094 205.519531 138.09375 204.992188 138.8125 205.019531 C 141.585938 205.183594 144.25 205.441406 146.734375 205.785156 C 147.4375 205.882812 147.929688 206.53125 147.832031 207.234375 C 147.742188 207.878906 147.191406 208.34375 146.5625 208.34375 Z M 146.5625 208.34375 " fill-opacity="1" fill-rule="nonzero"/><path fill="#8f00ff" d="M 179.476562 216.3125 C 179.371094 216.3125 179.265625 216.300781 179.15625 216.273438 L 173.246094 214.761719 C 172.558594 214.585938 172.144531 213.886719 172.320312 213.199219 C 172.496094 212.511719 173.191406 212.09375 173.886719 212.273438 L 179.796875 213.785156 C 180.484375 213.960938 180.898438 214.660156 180.722656 215.347656 C 180.570312 215.929688 180.050781 216.3125 179.476562 216.3125 Z M 179.476562 216.3125 " fill-opacity="1" fill-rule="nonzero"/><g clip-path="url(#b4edd2b444)"><path fill="#8f00ff" d="M 55.769531 220.320312 C 47.78125 220.320312 39.800781 219.539062 33.71875 217.984375 L 1.117188 209.640625 C 0.429688 209.46875 0.015625 208.765625 0.191406 208.078125 C 0.367188 207.390625 1.0625 206.972656 1.753906 207.152344 L 34.359375 215.496094 C 46.164062 218.519531 65.378906 218.519531 77.183594 215.496094 L 109.78125 207.152344 C 115.898438 205.589844 124.039062 204.765625 132.710938 204.824219 C 133.417969 204.828125 133.988281 205.40625 133.984375 206.117188 C 133.980469 206.824219 133.40625 207.390625 132.699219 207.390625 C 132.695312 207.390625 132.691406 207.390625 132.691406 207.390625 C 124.375 207.324219 116.242188 208.152344 110.417969 209.640625 L 77.820312 217.984375 C 71.742188 219.539062 63.753906 220.320312 55.769531 220.320312 Z M 55.769531 220.320312 " fill-opacity="1" fill-rule="nonzero"/></g><g clip-path="url(#d0293de2ef)"><path fill="#8f00ff" d="M 55.769531 239.917969 C 47.785156 239.917969 39.800781 239.140625 33.71875 237.585938 L 1.117188 229.242188 C 0.429688 229.066406 0.015625 228.367188 0.191406 227.679688 C 0.367188 226.992188 1.0625 226.574219 1.753906 226.753906 L 34.359375 235.097656 C 46.167969 238.117188 65.378906 238.117188 77.183594 235.09375 L 109.78125 226.753906 C 121.941406 223.640625 141.722656 223.640625 153.882812 226.753906 L 186.480469 235.09375 C 187.167969 235.269531 187.582031 235.96875 187.40625 236.65625 C 187.230469 237.34375 186.53125 237.761719 185.84375 237.582031 L 153.246094 229.242188 C 141.441406 226.21875 122.226562 226.21875 110.417969 229.242188 L 77.820312 237.582031 C 71.742188 239.140625 63.753906 239.917969 55.769531 239.917969 Z M 55.769531 239.917969 " fill-opacity="1" fill-rule="nonzero"/></g><g clip-path="url(#3958e362da)"><path fill="#8f00ff" d="M 55.726562 259.515625 C 53.015625 259.515625 50.289062 259.425781 47.609375 259.242188 C 46.898438 259.191406 46.367188 258.578125 46.414062 257.871094 C 46.464844 257.164062 47.070312 256.628906 47.785156 256.679688 C 58.304688 257.402344 69.570312 256.640625 77.183594 254.695312 L 109.78125 246.351562 C 121.941406 243.238281 141.722656 243.238281 153.882812 246.351562 L 186.480469 254.695312 C 187.167969 254.867188 187.582031 255.570312 187.40625 256.257812 C 187.230469 256.945312 186.53125 257.359375 185.84375 257.183594 L 153.246094 248.839844 C 141.4375 245.820312 122.226562 245.820312 110.417969 248.839844 L 77.820312 257.183594 C 71.914062 258.695312 63.910156 259.515625 55.726562 259.515625 Z M 55.726562 259.515625 " fill-opacity="1" fill-rule="nonzero"/></g><path fill="#8f00ff" d="M 30.195312 256.242188 C 30.089844 256.242188 29.984375 256.226562 29.878906 256.199219 L 18.964844 253.40625 C 18.277344 253.230469 17.863281 252.53125 18.039062 251.84375 C 18.214844 251.15625 18.910156 250.738281 19.601562 250.917969 L 30.515625 253.710938 C 31.203125 253.886719 31.617188 254.585938 31.441406 255.273438 C 31.292969 255.855469 30.769531 256.242188 30.195312 256.242188 Z M 30.195312 256.242188 " fill-opacity="1" fill-rule="nonzero"/><path fill="#8f00ff" d="M 7.765625 250.5 C 7.660156 250.5 7.550781 250.488281 7.445312 250.460938 L 1.117188 248.839844 C 0.429688 248.664062 0.015625 247.964844 0.191406 247.277344 C 0.367188 246.589844 1.0625 246.171875 1.753906 246.351562 L 8.082031 247.972656 C 8.769531 248.144531 9.183594 248.847656 9.007812 249.535156 C 8.859375 250.113281 8.339844 250.5 7.765625 250.5 Z M 7.765625 250.5 " fill-opacity="1" fill-rule="nonzero"/><g clip-path="url(#aeb1d0ef7c)"><path fill="#8f00ff" d="M 55.769531 279.117188 C 47.785156 279.117188 39.800781 278.339844 33.71875 276.78125 L 1.117188 268.4375 C 0.429688 268.265625 0.015625 267.5625 0.191406 266.875 C 0.367188 266.191406 1.0625 265.773438 1.753906 265.949219 L 34.359375 274.292969 C 46.164062 277.316406 65.378906 277.316406 77.183594 274.292969 L 109.78125 265.949219 C 121.941406 262.839844 141.726562 262.839844 153.882812 265.949219 L 186.480469 274.292969 C 187.167969 274.46875 187.582031 275.167969 187.40625 275.855469 C 187.230469 276.542969 186.535156 276.960938 185.84375 276.78125 L 153.246094 268.4375 C 141.441406 265.417969 122.226562 265.417969 110.417969 268.4375 L 77.820312 276.78125 C 71.742188 278.339844 63.757812 279.117188 55.769531 279.117188 Z M 55.769531 279.117188 " fill-opacity="1" fill-rule="nonzero"/></g><g clip-path="url(#2ba1f8ee8b)"><path fill="#8f00ff" d="M 186.160156 296.421875 C 186.058594 296.421875 185.949219 296.40625 185.84375 296.378906 L 180.476562 295.007812 C 179.789062 294.832031 179.375 294.132812 179.550781 293.445312 C 179.726562 292.757812 180.421875 292.339844 181.113281 292.519531 L 186.480469 293.890625 C 187.167969 294.066406 187.582031 294.765625 187.40625 295.453125 C 187.257812 296.035156 186.734375 296.421875 186.160156 296.421875 Z M 186.160156 296.421875 " fill-opacity="1" fill-rule="nonzero"/></g><path fill="#8f00ff" d="M 174.507812 293.4375 C 174.402344 293.4375 174.296875 293.425781 174.1875 293.398438 L 158.570312 289.402344 C 157.886719 289.226562 157.472656 288.527344 157.648438 287.839844 C 157.824219 287.152344 158.519531 286.734375 159.210938 286.914062 L 174.828125 290.910156 C 175.511719 291.085938 175.925781 291.785156 175.75 292.472656 C 175.601562 293.054688 175.082031 293.4375 174.507812 293.4375 Z M 174.507812 293.4375 " fill-opacity="1" fill-rule="nonzero"/><g clip-path="url(#c83227a22b)"><path fill="#8f00ff" d="M 55.769531 298.714844 C 47.78125 298.714844 39.800781 297.9375 33.71875 296.382812 L 1.117188 288.039062 C 0.429688 287.863281 0.015625 287.164062 0.191406 286.472656 C 0.367188 285.789062 1.0625 285.371094 1.753906 285.550781 L 34.359375 293.894531 C 46.164062 296.914062 65.378906 296.914062 77.183594 293.890625 L 109.78125 285.550781 C 120.574219 282.789062 137.429688 282.421875 149.859375 284.679688 C 150.558594 284.808594 151.019531 285.476562 150.894531 286.171875 C 150.765625 286.871094 150.101562 287.339844 149.402344 287.207031 C 137.484375 285.042969 120.726562 285.402344 110.417969 288.039062 L 77.820312 296.378906 C 71.742188 297.9375 63.753906 298.714844 55.769531 298.714844 Z M 55.769531 298.714844 " fill-opacity="1" fill-rule="nonzero"/></g></svg>