<svg xmlns="http://www.w3.org/2000/svg" xmlns:xlink="http://www.w3.org/1999/xlink" width="500" zoomAndPan="magnify" viewBox="0 0 375 374.999991" height="500" preserveAspectRatio="xMidYMid meet" version="1.0"><defs><g/><clipPath id="4012698261"><path d="M 0 98 L 190 98 L 190 306.683594 L 0 306.683594 Z M 0 98 " clip-rule="nonzero"/></clipPath><clipPath id="a6d091769b"><path d="M 185 98 L 375 98 L 375 306.683594 L 185 306.683594 Z M 185 98 " clip-rule="nonzero"/></clipPath><clipPath id="2814fd945a"><path d="M 16 83 L 190 83 L 190 306.683594 L 16 306.683594 Z M 16 83 " clip-rule="nonzero"/></clipPath><clipPath id="87a9575d81"><path d="M 185 83 L 359 83 L 359 306.683594 L 185 306.683594 Z M 185 83 " clip-rule="nonzero"/></clipPath><clipPath id="8cb3461616"><path d="M 32 68.183594 L 190 68.183594 L 190 306.683594 L 32 306.683594 Z M 32 68.183594 " clip-rule="nonzero"/></clipPath><clipPath id="d633fe0de0"><path d="M 181 68.183594 L 339 68.183594 L 339 306.683594 L 181 306.683594 Z M 181 68.183594 " clip-rule="nonzero"/></clipPath></defs><path fill="#cee7f8" d="M 187.5 304.9375 L 1.875 302.628906 L 1.875 100.488281 L 187.5 100.488281 Z M 187.5 304.9375 " fill-opacity="1" fill-rule="nonzero"/><g clip-path="url(#4012698261)"><path fill="#49423c" d="M 187.5 306.8125 C 187.492188 306.8125 187.484375 306.8125 187.476562 306.8125 L 1.851562 304.503906 C 0.824219 304.488281 0 303.65625 0 302.628906 L 0 100.488281 C 0 99.453125 0.839844 98.613281 1.875 98.613281 L 187.5 98.613281 C 188.535156 98.613281 189.375 99.453125 189.375 100.488281 L 189.375 304.9375 C 189.375 305.441406 189.171875 305.921875 188.820312 306.273438 C 188.46875 306.617188 187.996094 306.8125 187.5 306.8125 Z M 3.757812 300.769531 L 185.625 303.035156 L 185.625 102.363281 L 3.757812 102.363281 Z M 3.757812 300.769531 " fill-opacity="1" fill-rule="nonzero"/></g><path fill="#cee7f8" d="M 187.5 304.9375 L 373.125 302.628906 L 373.125 100.488281 L 187.5 100.488281 Z M 187.5 304.9375 " fill-opacity="1" fill-rule="nonzero"/><g clip-path="url(#a6d091769b)"><path fill="#49423c" d="M 187.5 306.8125 C 187.003906 306.8125 186.53125 306.617188 186.179688 306.273438 C 185.828125 305.921875 185.625 305.441406 185.625 304.9375 L 185.625 100.488281 C 185.625 99.453125 186.464844 98.613281 187.5 98.613281 L 373.125 98.613281 C 374.160156 98.613281 375 99.453125 375 100.488281 L 375 302.628906 C 375 303.65625 374.175781 304.496094 373.148438 304.503906 L 187.53125 306.8125 C 187.515625 306.8125 187.507812 306.8125 187.5 306.8125 Z M 189.382812 102.363281 L 189.382812 303.035156 L 371.25 300.769531 L 371.25 102.363281 Z M 189.382812 102.363281 " fill-opacity="1" fill-rule="nonzero"/></g><path fill="#ffffff" d="M 187.5 304.9375 C 187.5 304.9375 142.296875 290.042969 102.988281 290.042969 C 63.683594 290.042969 18.480469 290.042969 18.480469 290.042969 L 18.480469 85.347656 C 18.480469 85.347656 42.808594 85.347656 97.042969 85.347656 C 151.273438 85.347656 187.5 100.242188 187.5 100.242188 Z M 187.5 304.9375 " fill-opacity="1" fill-rule="nonzero"/><g clip-path="url(#2814fd945a)"><path fill="#49423c" d="M 187.5 306.8125 C 187.304688 306.8125 187.101562 306.785156 186.914062 306.714844 C 186.464844 306.566406 141.53125 291.917969 102.988281 291.917969 L 18.472656 291.917969 C 17.4375 291.917969 16.597656 291.078125 16.597656 290.042969 L 16.597656 85.347656 C 16.597656 84.3125 17.4375 83.472656 18.472656 83.472656 L 97.035156 83.472656 C 151.011719 83.472656 187.84375 98.359375 188.210938 98.507812 C 188.917969 98.800781 189.375 99.484375 189.375 100.25 L 189.375 304.9375 C 189.375 305.539062 189.082031 306.109375 188.59375 306.460938 C 188.28125 306.695312 187.890625 306.8125 187.5 306.8125 Z M 20.347656 288.160156 L 102.984375 288.160156 C 136.914062 288.160156 175.605469 299.304688 185.617188 302.375 L 185.617188 101.53125 C 179.011719 99.054688 144.898438 87.230469 97.035156 87.230469 L 20.347656 87.230469 Z M 20.347656 288.160156 " fill-opacity="1" fill-rule="nonzero"/></g><path fill="#ffffff" d="M 187.5 304.9375 C 187.5 304.9375 232.703125 290.042969 272.011719 290.042969 C 311.316406 290.042969 356.519531 290.042969 356.519531 290.042969 L 356.519531 85.347656 C 356.519531 85.347656 332.191406 85.347656 277.957031 85.347656 C 223.726562 85.347656 187.5 100.242188 187.5 100.242188 Z M 187.5 304.9375 " fill-opacity="1" fill-rule="nonzero"/><g clip-path="url(#87a9575d81)"><path fill="#49423c" d="M 187.5 306.8125 C 187.109375 306.8125 186.726562 306.695312 186.398438 306.453125 C 185.910156 306.101562 185.617188 305.53125 185.617188 304.929688 L 185.617188 100.242188 C 185.617188 99.484375 186.074219 98.792969 186.78125 98.5 C 187.148438 98.351562 223.972656 83.464844 277.957031 83.464844 L 356.519531 83.464844 C 357.554688 83.464844 358.394531 84.304688 358.394531 85.339844 L 358.394531 290.027344 C 358.394531 291.0625 357.554688 291.902344 356.519531 291.902344 L 272.011719 291.902344 C 233.453125 291.902344 188.535156 306.558594 188.085938 306.703125 C 187.898438 306.785156 187.703125 306.8125 187.5 306.8125 Z M 189.382812 101.53125 L 189.382812 302.382812 C 199.394531 299.3125 238.085938 288.167969 272.015625 288.167969 L 354.652344 288.167969 L 354.652344 87.230469 L 277.964844 87.230469 C 230.09375 87.230469 195.984375 99.054688 189.382812 101.53125 Z M 189.382812 101.53125 " fill-opacity="1" fill-rule="nonzero"/></g><path fill="#ffffff" d="M 187.5 304.9375 C 187.5 304.9375 158.519531 274.78125 119.210938 274.78125 C 79.90625 274.78125 34.703125 274.78125 34.703125 274.78125 L 34.703125 70.082031 C 34.703125 70.082031 59.03125 70.082031 113.265625 70.082031 C 167.496094 70.082031 187.5 100.242188 187.5 100.242188 Z M 187.5 304.9375 " fill-opacity="1" fill-rule="nonzero"/><g clip-path="url(#8cb3461616)"><path fill="#49423c" d="M 187.5 306.8125 C 186.996094 306.8125 186.511719 306.609375 186.148438 306.234375 C 185.863281 305.945312 157.238281 276.65625 119.21875 276.65625 L 34.703125 276.65625 C 33.667969 276.65625 32.828125 275.816406 32.828125 274.78125 L 32.828125 70.082031 C 32.828125 69.046875 33.667969 68.207031 34.703125 68.207031 L 113.265625 68.207031 C 167.878906 68.207031 188.226562 97.9375 189.058594 99.207031 C 189.261719 99.515625 189.375 99.875 189.375 100.242188 L 189.375 304.929688 C 189.375 305.695312 188.910156 306.386719 188.199219 306.671875 C 187.972656 306.769531 187.738281 306.8125 187.5 306.8125 Z M 36.578125 272.898438 L 119.210938 272.898438 C 151.734375 272.898438 176.941406 292.722656 185.617188 300.550781 L 185.617188 100.847656 C 182.886719 97.203125 162.1875 71.964844 113.265625 71.964844 L 36.578125 71.964844 Z M 36.578125 272.898438 " fill-opacity="1" fill-rule="nonzero"/></g><path fill="#ffffff" d="M 183.375 304.9375 C 183.375 304.9375 212.355469 274.78125 251.664062 274.78125 C 290.96875 274.78125 336.171875 274.78125 336.171875 274.78125 L 336.171875 70.082031 C 336.171875 70.082031 311.84375 70.082031 257.609375 70.082031 C 203.378906 70.082031 183.375 100.242188 183.375 100.242188 Z M 183.375 304.9375 " fill-opacity="1" fill-rule="nonzero"/><g clip-path="url(#d633fe0de0)"><path fill="#49423c" d="M 183.375 306.8125 C 183.136719 306.8125 182.902344 306.769531 182.675781 306.679688 C 181.964844 306.394531 181.5 305.703125 181.5 304.9375 L 181.5 100.242188 C 181.5 99.875 181.605469 99.515625 181.816406 99.207031 C 182.648438 97.9375 202.996094 68.207031 257.609375 68.207031 L 336.171875 68.207031 C 337.207031 68.207031 338.046875 69.046875 338.046875 70.082031 L 338.046875 274.773438 C 338.046875 275.808594 337.207031 276.648438 336.171875 276.648438 L 251.65625 276.648438 C 213.585938 276.648438 185.011719 305.9375 184.726562 306.230469 C 184.363281 306.609375 183.878906 306.8125 183.375 306.8125 Z M 185.25 100.847656 L 185.25 300.550781 C 193.933594 292.722656 219.136719 272.898438 251.65625 272.898438 L 334.289062 272.898438 L 334.289062 71.964844 L 257.609375 71.964844 C 208.679688 71.964844 187.980469 97.203125 185.25 100.847656 Z M 185.25 100.847656 " fill-opacity="1" fill-rule="nonzero"/></g><g fill="#242424" fill-opacity="1"><g transform="translate(45.198937, 110.821091)"><g><path d="M 0 -6.96875 L 0.609375 -7.34375 C 1.222656 -7.707031 1.613281 -8.082031 1.78125 -8.46875 C 1.957031 -8.863281 1.910156 -9.28125 1.640625 -9.71875 C 1.378906 -10.144531 1.046875 -10.359375 0.640625 -10.359375 C 0.234375 -10.359375 -0.28125 -10.171875 -0.90625 -9.796875 L -1.5 -9.4375 Z M 0.953125 -5.40625 L 3.09375 -1.890625 L 1.140625 -0.703125 L -4.421875 -9.84375 L -1.75 -11.46875 C -0.5 -12.226562 0.554688 -12.5625 1.421875 -12.46875 C 2.285156 -12.382812 3 -11.878906 3.5625 -10.953125 C 3.894531 -10.421875 4.039062 -9.851562 4 -9.25 C 3.957031 -8.644531 3.734375 -8.0625 3.328125 -7.5 C 5.960938 -6.28125 7.675781 -5.5 8.46875 -5.15625 L 6.3125 -3.84375 L 1.984375 -6.03125 Z M 0.953125 -5.40625 "/></g></g></g><g fill="#242424" fill-opacity="1"><g transform="translate(53.322574, 105.878921)"><g><path d="M 0.984375 -8.09375 C 0.566406 -7.875 0.304688 -7.570312 0.203125 -7.1875 C 0.0976562 -6.800781 0.148438 -6.351562 0.359375 -5.84375 L 3.15625 -7.265625 C 2.894531 -7.753906 2.570312 -8.066406 2.1875 -8.203125 C 1.8125 -8.347656 1.410156 -8.3125 0.984375 -8.09375 Z M 4.40625 -2.09375 C 3.238281 -1.5 2.15625 -1.351562 1.15625 -1.65625 C 0.164062 -1.96875 -0.628906 -2.71875 -1.234375 -3.90625 C -1.867188 -5.125 -2.046875 -6.222656 -1.765625 -7.203125 C -1.492188 -8.179688 -0.820312 -8.941406 0.25 -9.484375 C 1.28125 -10.015625 2.234375 -10.128906 3.109375 -9.828125 C 3.984375 -9.535156 4.679688 -8.878906 5.203125 -7.859375 L 5.703125 -6.875 L 1 -4.484375 C 1.3125 -3.921875 1.707031 -3.5625 2.1875 -3.40625 C 2.664062 -3.25 3.1875 -3.316406 3.75 -3.609375 C 4.1875 -3.835938 4.578125 -4.097656 4.921875 -4.390625 C 5.265625 -4.679688 5.597656 -5.035156 5.921875 -5.453125 L 6.703125 -3.921875 C 6.453125 -3.566406 6.148438 -3.242188 5.796875 -2.953125 C 5.441406 -2.671875 4.976562 -2.382812 4.40625 -2.09375 Z M 4.40625 -2.09375 "/></g></g></g><g fill="#242424" fill-opacity="1"><g transform="translate(60.912407, 102.010804)"><g><path d="M 5.359375 -4.96875 C 5.691406 -4.195312 5.675781 -3.492188 5.3125 -2.859375 C 4.957031 -2.234375 4.242188 -1.6875 3.171875 -1.21875 C 2.628906 -0.976562 2.148438 -0.8125 1.734375 -0.71875 C 1.316406 -0.625 0.90625 -0.570312 0.5 -0.5625 L -0.234375 -2.265625 C 0.222656 -2.242188 0.71875 -2.273438 1.25 -2.359375 C 1.78125 -2.453125 2.226562 -2.578125 2.59375 -2.734375 C 3.332031 -3.054688 3.609375 -3.4375 3.421875 -3.875 C 3.359375 -4.03125 3.253906 -4.132812 3.109375 -4.1875 C 2.960938 -4.25 2.738281 -4.289062 2.4375 -4.3125 C 2.144531 -4.332031 1.765625 -4.347656 1.296875 -4.359375 C 0.617188 -4.347656 0.0976562 -4.382812 -0.265625 -4.46875 C -0.628906 -4.550781 -0.929688 -4.703125 -1.171875 -4.921875 C -1.421875 -5.140625 -1.628906 -5.441406 -1.796875 -5.828125 C -2.085938 -6.492188 -2.050781 -7.117188 -1.6875 -7.703125 C -1.320312 -8.296875 -0.664062 -8.800781 0.28125 -9.21875 C 1.1875 -9.601562 2.148438 -9.789062 3.171875 -9.78125 L 3.203125 -8.03125 C 2.765625 -8.019531 2.359375 -7.992188 1.984375 -7.953125 C 1.609375 -7.921875 1.25 -7.828125 0.90625 -7.671875 C 0.300781 -7.410156 0.0703125 -7.117188 0.21875 -6.796875 C 0.289062 -6.609375 0.453125 -6.488281 0.703125 -6.4375 C 0.960938 -6.394531 1.476562 -6.382812 2.25 -6.40625 C 2.9375 -6.414062 3.457031 -6.375 3.8125 -6.28125 C 4.175781 -6.195312 4.484375 -6.050781 4.734375 -5.84375 C 4.992188 -5.632812 5.203125 -5.34375 5.359375 -4.96875 Z M 5.359375 -4.96875 "/></g></g></g><g fill="#242424" fill-opacity="1"><g transform="translate(67.53304, 99.179971)"><g><path d="M -2.625 -10.03125 C -2.875 -10.695312 -2.617188 -11.175781 -1.859375 -11.46875 C -1.097656 -11.75 -0.59375 -11.554688 -0.34375 -10.890625 C -0.21875 -10.554688 -0.21875 -10.265625 -0.34375 -10.015625 C -0.46875 -9.765625 -0.71875 -9.566406 -1.09375 -9.421875 C -1.851562 -9.128906 -2.363281 -9.332031 -2.625 -10.03125 Z M 3.1875 -1.203125 L 1.09375 -0.40625 L -1.796875 -8.0625 L 0.296875 -8.859375 Z M 3.1875 -1.203125 "/></g></g></g><g fill="#242424" fill-opacity="1"><g transform="translate(71.634377, 97.630256)"><g><path d="M 3.234375 -1.078125 L 1.109375 -0.375 L -2.515625 -11.171875 L -0.390625 -11.875 Z M 3.234375 -1.078125 "/></g></g></g><g fill="#242424" fill-opacity="1"><g transform="translate(75.789165, 96.230153)"><g><path d="M -1.890625 -10.203125 C -2.097656 -10.890625 -1.8125 -11.347656 -1.03125 -11.578125 C -0.25 -11.804688 0.242188 -11.578125 0.453125 -10.890625 C 0.546875 -10.546875 0.519531 -10.253906 0.375 -10.015625 C 0.238281 -9.773438 -0.0195312 -9.597656 -0.40625 -9.484375 C -1.1875 -9.253906 -1.679688 -9.492188 -1.890625 -10.203125 Z M 3.265625 -0.96875 L 1.125 -0.328125 L -1.203125 -8.171875 L 0.9375 -8.8125 Z M 3.265625 -0.96875 "/></g></g></g><g fill="#242424" fill-opacity="1"><g transform="translate(79.89181, 94.947191)"><g><path d="M 2.875 -7.625 C 2.414062 -7.507812 2.085938 -7.273438 1.890625 -6.921875 C 1.703125 -6.578125 1.648438 -6.128906 1.734375 -5.578125 L 4.78125 -6.3125 C 4.644531 -6.851562 4.410156 -7.234375 4.078125 -7.453125 C 3.742188 -7.679688 3.34375 -7.738281 2.875 -7.625 Z M 4.765625 -1 C 3.492188 -0.6875 2.410156 -0.796875 1.515625 -1.328125 C 0.628906 -1.859375 0.03125 -2.773438 -0.28125 -4.078125 C -0.601562 -5.410156 -0.515625 -6.519531 -0.015625 -7.40625 C 0.472656 -8.300781 1.304688 -8.890625 2.484375 -9.171875 C 3.609375 -9.441406 4.5625 -9.328125 5.34375 -8.828125 C 6.125 -8.335938 6.648438 -7.53125 6.921875 -6.40625 L 7.171875 -5.34375 L 2.03125 -4.125 C 2.207031 -3.5 2.503906 -3.054688 2.921875 -2.796875 C 3.347656 -2.535156 3.867188 -2.476562 4.484375 -2.625 C 4.960938 -2.738281 5.40625 -2.898438 5.8125 -3.109375 C 6.21875 -3.316406 6.625 -3.578125 7.03125 -3.890625 L 7.421875 -2.21875 C 7.097656 -1.945312 6.734375 -1.710938 6.328125 -1.515625 C 5.921875 -1.316406 5.398438 -1.144531 4.765625 -1 Z M 4.765625 -1 "/></g></g></g><g fill="#242424" fill-opacity="1"><g transform="translate(88.123423, 92.944582)"><g><path d="M 8.625 -1.390625 L 6.421875 -1.046875 L 5.65625 -5.765625 C 5.5625 -6.347656 5.382812 -6.769531 5.125 -7.03125 C 4.863281 -7.289062 4.507812 -7.382812 4.0625 -7.3125 C 3.445312 -7.207031 3.035156 -6.925781 2.828125 -6.46875 C 2.617188 -6.007812 2.585938 -5.304688 2.734375 -4.359375 L 3.359375 -0.546875 L 1.15625 -0.1875 L -0.15625 -8.265625 L 1.53125 -8.53125 L 1.984375 -7.546875 L 2.109375 -7.578125 C 2.296875 -8.015625 2.585938 -8.363281 2.984375 -8.625 C 3.390625 -8.894531 3.867188 -9.078125 4.421875 -9.171875 C 5.359375 -9.316406 6.109375 -9.171875 6.671875 -8.734375 C 7.242188 -8.304688 7.609375 -7.617188 7.765625 -6.671875 Z M 8.625 -1.390625 "/></g></g></g><g fill="#242424" fill-opacity="1"><g transform="translate(97.493239, 91.450807)"><g><path d="M 4.5 -0.265625 C 1.957031 -0.0351562 0.554688 -1.3125 0.296875 -4.09375 C 0.171875 -5.476562 0.414062 -6.566406 1.03125 -7.359375 C 1.65625 -8.160156 2.613281 -8.617188 3.90625 -8.734375 C 4.84375 -8.828125 5.710938 -8.71875 6.515625 -8.40625 L 6 -6.625 C 5.644531 -6.726562 5.3125 -6.8125 5 -6.875 C 4.695312 -6.945312 4.390625 -6.96875 4.078125 -6.9375 C 2.921875 -6.832031 2.414062 -5.957031 2.5625 -4.3125 C 2.707031 -2.71875 3.359375 -1.972656 4.515625 -2.078125 C 4.953125 -2.117188 5.34375 -2.207031 5.6875 -2.34375 C 6.039062 -2.488281 6.390625 -2.707031 6.734375 -3 L 6.90625 -1.109375 C 6.570312 -0.847656 6.226562 -0.65625 5.875 -0.53125 C 5.519531 -0.40625 5.0625 -0.316406 4.5 -0.265625 Z M 4.5 -0.265625 "/></g></g></g><g fill="#242424" fill-opacity="1"><g transform="translate(104.825704, 90.750467)"><g><path d="M 4.390625 -6.859375 C 3.921875 -6.847656 3.550781 -6.691406 3.28125 -6.390625 C 3.019531 -6.085938 2.878906 -5.660156 2.859375 -5.109375 L 6 -5.1875 C 5.96875 -5.738281 5.8125 -6.160156 5.53125 -6.453125 C 5.25 -6.742188 4.867188 -6.878906 4.390625 -6.859375 Z M 4.875 0.015625 C 3.5625 0.046875 2.523438 -0.285156 1.765625 -0.984375 C 1.003906 -1.691406 0.601562 -2.710938 0.5625 -4.046875 C 0.53125 -5.421875 0.847656 -6.488281 1.515625 -7.25 C 2.179688 -8.019531 3.117188 -8.421875 4.328125 -8.453125 C 5.484375 -8.484375 6.394531 -8.175781 7.0625 -7.53125 C 7.726562 -6.882812 8.070312 -5.984375 8.09375 -4.828125 L 8.125 -3.734375 L 2.84375 -3.609375 C 2.882812 -2.972656 3.085938 -2.484375 3.453125 -2.140625 C 3.816406 -1.796875 4.316406 -1.628906 4.953125 -1.640625 C 5.441406 -1.648438 5.898438 -1.710938 6.328125 -1.828125 C 6.765625 -1.941406 7.21875 -2.117188 7.6875 -2.359375 L 7.734375 -0.640625 C 7.359375 -0.429688 6.945312 -0.273438 6.5 -0.171875 C 6.0625 -0.0664062 5.519531 -0.00390625 4.875 0.015625 Z M 4.875 0.015625 "/></g></g></g><g fill="#242424" fill-opacity="1"><g transform="translate(113.414462, 90.587014)"><g/></g></g><g fill="#242424" fill-opacity="1"><g transform="translate(117.053967, 90.615664)"><g><path d="M 1.34375 0.09375 L 2.140625 -10.578125 L 4.40625 -10.40625 L 3.75 -1.609375 L 8.09375 -1.28125 L 7.953125 0.59375 Z M 1.34375 0.09375 "/></g></g></g><g fill="#242424" fill-opacity="1"><g transform="translate(125.136679, 91.187431)"><g><path d="M 3.515625 -3.640625 C 3.398438 -2.835938 3.441406 -2.207031 3.640625 -1.75 C 3.847656 -1.300781 4.25 -1.035156 4.84375 -0.953125 C 5.425781 -0.867188 5.878906 -1.015625 6.203125 -1.390625 C 6.523438 -1.765625 6.742188 -2.351562 6.859375 -3.15625 C 6.972656 -3.957031 6.925781 -4.578125 6.71875 -5.015625 C 6.507812 -5.460938 6.113281 -5.726562 5.53125 -5.8125 C 4.945312 -5.894531 4.492188 -5.753906 4.171875 -5.390625 C 3.847656 -5.023438 3.628906 -4.441406 3.515625 -3.640625 Z M 9.109375 -2.828125 C 8.910156 -1.515625 8.410156 -0.535156 7.609375 0.109375 C 6.816406 0.753906 5.800781 0.988281 4.5625 0.8125 C 3.78125 0.695312 3.113281 0.425781 2.5625 0 C 2.019531 -0.425781 1.632812 -0.976562 1.40625 -1.65625 C 1.1875 -2.34375 1.140625 -3.113281 1.265625 -3.96875 C 1.453125 -5.289062 1.941406 -6.269531 2.734375 -6.90625 C 3.535156 -7.539062 4.566406 -7.765625 5.828125 -7.578125 C 6.597656 -7.460938 7.253906 -7.191406 7.796875 -6.765625 C 8.335938 -6.347656 8.722656 -5.796875 8.953125 -5.109375 C 9.179688 -4.429688 9.234375 -3.671875 9.109375 -2.828125 Z M 9.109375 -2.828125 "/></g></g></g><g fill="#242424" fill-opacity="1"><g transform="translate(133.958155, 92.46981)"><g><path d="M 9.859375 -6.234375 L 9.609375 -5.125 L 8.296875 -5.0625 C 8.441406 -4.664062 8.46875 -4.25 8.375 -3.8125 C 8.1875 -2.945312 7.738281 -2.335938 7.03125 -1.984375 C 6.332031 -1.640625 5.445312 -1.582031 4.375 -1.8125 L 4 -1.90625 L 3.6875 -2.03125 C 3.414062 -1.90625 3.257812 -1.738281 3.21875 -1.53125 C 3.144531 -1.21875 3.507812 -0.972656 4.3125 -0.796875 L 5.671875 -0.5 C 6.554688 -0.300781 7.1875 0.0351562 7.5625 0.515625 C 7.9375 0.992188 8.046875 1.597656 7.890625 2.328125 C 7.691406 3.253906 7.144531 3.890625 6.25 4.234375 C 5.351562 4.585938 4.175781 4.609375 2.71875 4.296875 C 1.601562 4.046875 0.789062 3.660156 0.28125 3.140625 C -0.21875 2.617188 -0.390625 2.007812 -0.234375 1.3125 C -0.128906 0.832031 0.109375 0.460938 0.484375 0.203125 C 0.859375 -0.0546875 1.34375 -0.191406 1.9375 -0.203125 C 1.738281 -0.347656 1.578125 -0.546875 1.453125 -0.796875 C 1.335938 -1.046875 1.304688 -1.289062 1.359375 -1.53125 C 1.429688 -1.84375 1.578125 -2.082031 1.796875 -2.25 C 2.015625 -2.414062 2.3125 -2.554688 2.6875 -2.671875 C 2.300781 -2.953125 2.03125 -3.316406 1.875 -3.765625 C 1.71875 -4.222656 1.695312 -4.722656 1.8125 -5.265625 C 2.007812 -6.140625 2.441406 -6.753906 3.109375 -7.109375 C 3.785156 -7.460938 4.648438 -7.523438 5.703125 -7.296875 C 5.929688 -7.253906 6.191406 -7.175781 6.484375 -7.0625 C 6.785156 -6.957031 6.976562 -6.882812 7.0625 -6.84375 Z M 1.6875 1.546875 C 1.625 1.859375 1.71875 2.128906 1.96875 2.359375 C 2.21875 2.585938 2.601562 2.757812 3.125 2.875 C 3.90625 3.039062 4.539062 3.066406 5.03125 2.953125 C 5.519531 2.835938 5.800781 2.597656 5.875 2.234375 C 5.945312 1.921875 5.863281 1.679688 5.625 1.515625 C 5.394531 1.347656 5.003906 1.203125 4.453125 1.078125 L 3.328125 0.84375 C 2.929688 0.75 2.578125 0.765625 2.265625 0.890625 C 1.953125 1.023438 1.757812 1.242188 1.6875 1.546875 Z M 3.90625 -4.796875 C 3.8125 -4.359375 3.832031 -3.988281 3.96875 -3.6875 C 4.113281 -3.394531 4.382812 -3.203125 4.78125 -3.109375 C 5.195312 -3.023438 5.523438 -3.085938 5.765625 -3.296875 C 6.015625 -3.515625 6.1875 -3.84375 6.28125 -4.28125 C 6.488281 -5.238281 6.195312 -5.800781 5.40625 -5.96875 C 4.613281 -6.144531 4.113281 -5.753906 3.90625 -4.796875 Z M 3.90625 -4.796875 "/></g></g></g><g fill="#242424" fill-opacity="1"><g transform="translate(141.878072, 94.163184)"><g><path d="M 7.84375 -6.390625 C 8.757812 -6.117188 9.375 -5.539062 9.6875 -4.65625 C 10.007812 -3.78125 9.984375 -2.710938 9.609375 -1.453125 C 9.222656 -0.160156 8.65625 0.757812 7.90625 1.3125 C 7.164062 1.875 6.328125 2.015625 5.390625 1.734375 C 4.460938 1.460938 3.835938 0.910156 3.515625 0.078125 L 3.375 0.046875 L 2.765625 0.8125 L 1.125 0.328125 L 4.328125 -10.59375 L 6.46875 -9.96875 L 5.734375 -7.4375 C 5.640625 -7.113281 5.457031 -6.601562 5.1875 -5.90625 L 5.28125 -5.890625 C 6 -6.503906 6.851562 -6.671875 7.84375 -6.390625 Z M 6.65625 -4.890625 C 6.125 -5.035156 5.6875 -4.976562 5.34375 -4.71875 C 5.007812 -4.46875 4.726562 -3.972656 4.5 -3.234375 L 4.421875 -3 C 4.179688 -2.164062 4.128906 -1.523438 4.265625 -1.078125 C 4.410156 -0.628906 4.757812 -0.328125 5.3125 -0.171875 C 5.75 -0.046875 6.15625 -0.144531 6.53125 -0.46875 C 6.914062 -0.800781 7.222656 -1.351562 7.453125 -2.125 C 7.671875 -2.894531 7.703125 -3.515625 7.546875 -3.984375 C 7.398438 -4.453125 7.101562 -4.753906 6.65625 -4.890625 Z M 6.65625 -4.890625 "/></g></g></g><g fill="#242424" fill-opacity="1"><g transform="translate(150.61123, 96.718097)"><g><path d="M 4.21875 -2.796875 C 3.925781 -2.035156 3.832031 -1.410156 3.9375 -0.921875 C 4.039062 -0.441406 4.375 -0.0976562 4.9375 0.109375 C 5.488281 0.316406 5.957031 0.273438 6.34375 -0.015625 C 6.738281 -0.316406 7.082031 -0.847656 7.375 -1.609375 C 7.65625 -2.367188 7.742188 -2.984375 7.640625 -3.453125 C 7.535156 -3.929688 7.207031 -4.273438 6.65625 -4.484375 C 6.101562 -4.691406 5.628906 -4.648438 5.234375 -4.359375 C 4.835938 -4.078125 4.5 -3.554688 4.21875 -2.796875 Z M 9.515625 -0.8125 C 9.046875 0.4375 8.347656 1.285156 7.421875 1.734375 C 6.492188 2.191406 5.445312 2.195312 4.28125 1.75 C 3.539062 1.476562 2.945312 1.078125 2.5 0.546875 C 2.0625 0.015625 1.800781 -0.601562 1.71875 -1.3125 C 1.644531 -2.03125 1.765625 -2.796875 2.078125 -3.609375 C 2.546875 -4.859375 3.238281 -5.707031 4.15625 -6.15625 C 5.070312 -6.613281 6.125 -6.617188 7.3125 -6.171875 C 8.039062 -5.890625 8.625 -5.484375 9.0625 -4.953125 C 9.507812 -4.421875 9.769531 -3.796875 9.84375 -3.078125 C 9.925781 -2.367188 9.816406 -1.613281 9.515625 -0.8125 Z M 9.515625 -0.8125 "/></g></g></g><g fill="#242424" fill-opacity="1"><g transform="translate(158.944137, 99.839667)"><g><path d="M 4.40625 -2.5 C 4.070312 -1.757812 3.9375 -1.140625 4 -0.640625 C 4.0625 -0.148438 4.363281 0.21875 4.90625 0.46875 C 5.445312 0.71875 5.925781 0.707031 6.34375 0.4375 C 6.757812 0.164062 7.132812 -0.335938 7.46875 -1.078125 C 7.8125 -1.804688 7.945312 -2.410156 7.875 -2.890625 C 7.800781 -3.367188 7.5 -3.734375 6.96875 -3.984375 C 6.425781 -4.234375 5.945312 -4.226562 5.53125 -3.96875 C 5.125 -3.71875 4.75 -3.226562 4.40625 -2.5 Z M 9.53125 -0.125 C 8.976562 1.082031 8.222656 1.878906 7.265625 2.265625 C 6.316406 2.660156 5.273438 2.59375 4.140625 2.0625 C 3.421875 1.726562 2.859375 1.28125 2.453125 0.71875 C 2.054688 0.15625 1.847656 -0.476562 1.828125 -1.1875 C 1.804688 -1.90625 1.972656 -2.660156 2.328125 -3.453125 C 2.890625 -4.660156 3.644531 -5.457031 4.59375 -5.84375 C 5.539062 -6.226562 6.585938 -6.148438 7.734375 -5.609375 C 8.441406 -5.285156 9 -4.84375 9.40625 -4.28125 C 9.8125 -3.71875 10.023438 -3.078125 10.046875 -2.359375 C 10.066406 -1.640625 9.894531 -0.894531 9.53125 -0.125 Z M 9.53125 -0.125 "/></g></g></g><g fill="#242424" fill-opacity="1"><g transform="translate(167.025643, 103.562278)"><g><path d="M 5.046875 -2.28125 L 6.515625 -2.890625 L 9.71875 -3.96875 L 11.9375 -2.734375 L 7.375 -1.21875 L 8.125 4.515625 L 5.875 3.265625 L 5.421875 -0.78125 L 4.21875 -0.5625 L 2.984375 1.65625 L 1.03125 0.5625 L 6.5625 -9.390625 L 8.515625 -8.296875 L 6.046875 -3.859375 L 5.03125 -2.296875 Z M 5.046875 -2.28125 "/></g></g></g></svg>