<svg xmlns="http://www.w3.org/2000/svg" xmlns:xlink="http://www.w3.org/1999/xlink" width="500" zoomAndPan="magnify" viewBox="0 0 375 374.999991" height="500" preserveAspectRatio="xMidYMid meet" version="1.0"><defs><filter x="0%" y="0%" width="100%" height="100%" id="5049a69788"><feColorMatrix values="0 0 0 0 1 0 0 0 0 1 0 0 0 0 1 0 0 0 1 0" color-interpolation-filters="sRGB"/></filter><g/><mask id="402b9fef8f"><g filter="url(#5049a69788)"><rect x="-37.5" width="450" fill="#000000" y="-37.499999" height="449.999989" fill-opacity="0.2"/></g></mask><clipPath id="b0749afbde"><path d="M 28.910156 28.125 L 327.261719 28.125 L 327.261719 326.480469 L 28.910156 326.480469 Z M 28.910156 28.125 " clip-rule="nonzero"/></clipPath><clipPath id="fb5a08dec0"><path d="M 178.085938 28.125 C 95.695312 28.125 28.910156 94.914062 28.910156 177.304688 C 28.910156 259.691406 95.695312 326.480469 178.085938 326.480469 C 260.472656 326.480469 327.261719 259.691406 327.261719 177.304688 C 327.261719 94.914062 260.472656 28.125 178.085938 28.125 Z M 178.085938 28.125 " clip-rule="nonzero"/></clipPath><clipPath id="892b7ed349"><path d="M 28.910156 28.125 L 327.257812 28.125 L 327.257812 326.472656 L 28.910156 326.472656 Z M 28.910156 28.125 " clip-rule="nonzero"/></clipPath><clipPath id="476636eb83"><path d="M 178.082031 28.125 C 95.695312 28.125 28.910156 94.914062 28.910156 177.300781 C 28.910156 259.6875 95.695312 326.472656 178.082031 326.472656 C 260.46875 326.472656 327.257812 259.6875 327.257812 177.300781 C 327.257812 94.914062 260.46875 28.125 178.082031 28.125 Z M 178.082031 28.125 " clip-rule="nonzero"/></clipPath><clipPath id="46b90a6bf5"><rect x="0" width="328" y="0" height="355"/></clipPath><clipPath id="0cfe5b6f79"><path d="M 202 178 L 226 178 L 226 220 L 202 220 Z M 202 178 " clip-rule="nonzero"/></clipPath><clipPath id="2d2f0ee578"><path d="M 135.488281 126.707031 L 135.488281 239.898438 C 135.488281 258.125 150.261719 272.898438 168.488281 272.898438 L 281.683594 272.898438 C 299.90625 272.898438 314.683594 258.125 314.683594 239.898438 L 314.683594 126.707031 C 314.683594 108.480469 299.90625 93.707031 281.683594 93.707031 L 168.488281 93.707031 C 150.261719 93.707031 135.488281 108.480469 135.488281 126.707031 Z M 135.488281 126.707031 " clip-rule="nonzero"/></clipPath><clipPath id="83f4efc747"><path d="M 219 93.707031 L 254 93.707031 L 254 125 L 219 125 Z M 219 93.707031 " clip-rule="nonzero"/></clipPath><clipPath id="ec56060dfc"><path d="M 135.488281 126.707031 L 135.488281 239.898438 C 135.488281 258.125 150.261719 272.898438 168.488281 272.898438 L 281.683594 272.898438 C 299.90625 272.898438 314.683594 258.125 314.683594 239.898438 L 314.683594 126.707031 C 314.683594 108.480469 299.90625 93.707031 281.683594 93.707031 L 168.488281 93.707031 C 150.261719 93.707031 135.488281 108.480469 135.488281 126.707031 Z M 135.488281 126.707031 " clip-rule="nonzero"/></clipPath><clipPath id="395dd07bae"><path d="M 207 120 L 254 120 L 254 150 L 207 150 Z M 207 120 " clip-rule="nonzero"/></clipPath><clipPath id="adaa4c5b50"><path d="M 135.488281 126.707031 L 135.488281 239.898438 C 135.488281 258.125 150.261719 272.898438 168.488281 272.898438 L 281.683594 272.898438 C 299.90625 272.898438 314.683594 258.125 314.683594 239.898438 L 314.683594 126.707031 C 314.683594 108.480469 299.90625 93.707031 281.683594 93.707031 L 168.488281 93.707031 C 150.261719 93.707031 135.488281 108.480469 135.488281 126.707031 Z M 135.488281 126.707031 " clip-rule="nonzero"/></clipPath><clipPath id="bd83663db7"><path d="M 188 143 L 255 143 L 255 186 L 188 186 Z M 188 143 " clip-rule="nonzero"/></clipPath><clipPath id="398e466ef8"><path d="M 135.488281 126.707031 L 135.488281 239.898438 C 135.488281 258.125 150.261719 272.898438 168.488281 272.898438 L 281.683594 272.898438 C 299.90625 272.898438 314.683594 258.125 314.683594 239.898438 L 314.683594 126.707031 C 314.683594 108.480469 299.90625 93.707031 281.683594 93.707031 L 168.488281 93.707031 C 150.261719 93.707031 135.488281 108.480469 135.488281 126.707031 Z M 135.488281 126.707031 " clip-rule="nonzero"/></clipPath><clipPath id="33f16fb22d"><path d="M 147 223 L 303 223 L 303 272.957031 L 147 272.957031 Z M 147 223 " clip-rule="nonzero"/></clipPath><clipPath id="3b2fb26665"><path d="M 135.488281 126.707031 L 135.488281 239.898438 C 135.488281 258.125 150.261719 272.898438 168.488281 272.898438 L 281.683594 272.898438 C 299.90625 272.898438 314.683594 258.125 314.683594 239.898438 L 314.683594 126.707031 C 314.683594 108.480469 299.90625 93.707031 281.683594 93.707031 L 168.488281 93.707031 C 150.261719 93.707031 135.488281 108.480469 135.488281 126.707031 Z M 135.488281 126.707031 " clip-rule="nonzero"/></clipPath><clipPath id="bfe2e9c915"><path d="M 75.910156 34.125 L 374.257812 34.125 L 374.257812 332.472656 L 75.910156 332.472656 Z M 75.910156 34.125 " clip-rule="nonzero"/></clipPath><clipPath id="b0df3fb916"><path d="M 225.082031 34.125 C 142.695312 34.125 75.910156 100.914062 75.910156 183.300781 C 75.910156 265.6875 142.695312 332.472656 225.082031 332.472656 C 307.46875 332.472656 374.257812 265.6875 374.257812 183.300781 C 374.257812 100.914062 307.46875 34.125 225.082031 34.125 Z M 225.082031 34.125 " clip-rule="nonzero"/></clipPath><clipPath id="79c060a4a1"><path d="M 138 204.011719 L 149 204.011719 L 149 208 L 138 208 Z M 138 204.011719 " clip-rule="nonzero"/></clipPath><clipPath id="9359703518"><path d="M 0 204.011719 L 135 204.011719 L 135 220 L 0 220 Z M 0 204.011719 " clip-rule="nonzero"/></clipPath><clipPath id="fa6d9a5d52"><path d="M 0 223 L 188.25 223 L 188.25 240 L 0 240 Z M 0 223 " clip-rule="nonzero"/></clipPath><clipPath id="6e5eb3a141"><path d="M 46 243 L 188.25 243 L 188.25 260 L 46 260 Z M 46 243 " clip-rule="nonzero"/></clipPath><clipPath id="4961241ec8"><path d="M 0 263 L 188.25 263 L 188.25 279 L 0 279 Z M 0 263 " clip-rule="nonzero"/></clipPath><clipPath id="1b7c9d98cf"><path d="M 180 292 L 188.25 292 L 188.25 297 L 180 297 Z M 180 292 " clip-rule="nonzero"/></clipPath><clipPath id="47b5619b4b"><path d="M 0 282 L 152 282 L 152 298.511719 L 0 298.511719 Z M 0 282 " clip-rule="nonzero"/></clipPath></defs><g mask="url(#402b9fef8f)"><g transform="matrix(1, 0, 0, 1, 47, 6)"><g clip-path="url(#46b90a6bf5)"><g clip-path="url(#b0749afbde)"><g clip-path="url(#fb5a08dec0)"><path fill="#feeb3a" d="M 28.910156 28.125 L 327.261719 28.125 L 327.261719 326.480469 L 28.910156 326.480469 Z M 28.910156 28.125 " fill-opacity="1" fill-rule="nonzero"/></g></g><g clip-path="url(#892b7ed349)"><g clip-path="url(#476636eb83)"><path stroke-linecap="butt" transform="matrix(0.75, 0, 0, 0.75, 28.908254, 28.12617)" fill="none" stroke-linejoin="miter" d="M 198.898396 -0.00155957 C 89.049423 -0.00155957 0.00253655 89.050535 0.00253655 198.899508 C 0.00253655 308.74848 89.049423 397.795367 198.898396 397.795367 C 308.747368 397.795367 397.799463 308.74848 397.799463 198.899508 C 397.799463 89.050535 308.747368 -0.00155957 198.898396 -0.00155957 Z M 198.898396 -0.00155957 " stroke="#feeb3a" stroke-width="16" stroke-opacity="1" stroke-miterlimit="4"/></g></g></g></g></g><g clip-path="url(#0cfe5b6f79)"><g clip-path="url(#2d2f0ee578)"><path fill="#295982" d="M 202.160156 219.601562 L 212.96875 178.894531 L 225.765625 182.359375 L 215.800781 219.601562 Z M 202.160156 219.601562 " fill-opacity="1" fill-rule="evenodd"/></g></g><g clip-path="url(#83f4efc747)"><g clip-path="url(#ec56060dfc)"><path fill="#295982" d="M 251.261719 124.761719 C 251.15625 124.761719 250.945312 124.761719 250.734375 124.761719 L 221.253906 116.894531 C 220.519531 116.683594 219.996094 116.054688 219.785156 115.320312 C 219.578125 114.585938 219.785156 113.851562 220.414062 113.324219 L 241.1875 94.335938 C 241.714844 93.917969 242.449219 93.707031 243.183594 93.917969 C 243.917969 94.023438 244.441406 94.546875 244.652344 95.28125 L 253.253906 122.035156 C 253.570312 122.769531 253.359375 123.605469 252.835938 124.132812 C 252.414062 124.550781 251.890625 124.761719 251.261719 124.761719 Z M 251.261719 124.761719 " fill-opacity="1" fill-rule="evenodd"/></g></g><g clip-path="url(#395dd07bae)"><g clip-path="url(#adaa4c5b50)"><path fill="#295982" d="M 251.367188 149.625 C 251.15625 149.625 250.945312 149.625 250.734375 149.519531 L 208.875 138.398438 C 208.140625 138.191406 207.617188 137.664062 207.40625 136.929688 C 207.195312 136.089844 207.511719 135.355469 208.035156 134.832031 L 223.25 120.984375 L 247.0625 127.382812 L 253.359375 146.898438 C 253.570312 147.632812 253.359375 148.367188 252.835938 148.996094 C 252.414062 149.414062 251.890625 149.625 251.367188 149.625 Z M 251.367188 149.625 " fill-opacity="1" fill-rule="evenodd"/></g></g><g clip-path="url(#bd83663db7)"><g clip-path="url(#398e466ef8)"><path fill="#295982" d="M 252.203125 185.714844 C 252.101562 185.714844 251.890625 185.714844 251.679688 185.609375 L 190.199219 169.246094 C 189.464844 169.035156 188.835938 168.511719 188.730469 167.777344 C 188.523438 167.042969 188.730469 166.203125 189.363281 165.675781 L 213.910156 143.332031 L 244.019531 151.410156 L 254.199219 182.988281 C 254.40625 183.722656 254.304688 184.457031 253.777344 185.085938 C 253.359375 185.503906 252.835938 185.714844 252.203125 185.714844 Z M 252.203125 185.714844 " fill-opacity="1" fill-rule="evenodd"/></g></g><g clip-path="url(#33f16fb22d)"><g clip-path="url(#3b2fb26665)"><path fill="#295982" d="M 300.675781 272.898438 L 282.628906 272.898438 L 292.804688 262.828125 C 293.644531 261.988281 293.644531 260.726562 292.910156 259.890625 C 292.804688 259.785156 290.289062 256.953125 287.875 254.539062 C 289.554688 253.488281 292.070312 252.019531 293.75 251.179688 C 294.484375 250.761719 294.902344 249.816406 294.800781 248.976562 L 293.015625 237.648438 L 294.589844 236.914062 C 295.742188 236.386719 296.164062 235.128906 295.636719 234.082031 C 295.21875 233.03125 293.960938 232.613281 292.910156 233.03125 L 289.761719 234.5 C 288.925781 234.816406 288.503906 235.757812 288.609375 236.703125 L 290.394531 248.140625 C 288.292969 249.398438 284.414062 251.601562 283.050781 252.753906 C 282.628906 253.175781 282.316406 253.699219 282.316406 254.328125 C 282.417969 254.957031 282.628906 255.585938 283.152344 255.902344 C 284.832031 257.371094 287.035156 259.679688 288.503906 261.253906 L 278.746094 270.800781 L 258.605469 264.398438 C 263.324219 262.195312 270.667969 259.257812 275.914062 259.15625 C 276.964844 259.050781 277.804688 258.210938 277.910156 257.160156 C 278.011719 256.113281 277.277344 255.167969 276.230469 254.957031 C 268.886719 253.382812 248.324219 250.867188 240.558594 249.921875 L 246.222656 238.382812 C 246.539062 237.753906 246.539062 237.121094 246.222656 236.492188 C 245.910156 235.863281 245.28125 235.445312 244.652344 235.339844 L 209.609375 230.199219 L 196.496094 223.066406 L 300.675781 223.066406 C 301.828125 223.066406 302.773438 224.007812 302.773438 225.164062 L 302.773438 270.800781 C 302.773438 271.953125 301.828125 272.898438 300.675781 272.898438 Z M 271.402344 272.898438 L 227.863281 272.898438 L 212.023438 261.777344 C 214.855469 260.519531 218.210938 258.628906 219.261719 256.53125 C 219.785156 255.378906 219.578125 254.433594 219.367188 253.804688 C 218.527344 251.285156 213.175781 249.1875 203.734375 247.613281 L 206.148438 236.808594 C 206.460938 235.757812 205.832031 234.710938 204.785156 234.394531 L 192.089844 230.304688 L 195.238281 227.15625 L 207.929688 234.082031 C 208.140625 234.183594 208.457031 234.289062 208.664062 234.289062 L 241.1875 239.117188 L 235.523438 250.761719 C 235.207031 251.285156 235.207031 252.019531 235.523438 252.648438 C 235.941406 253.28125 236.46875 253.699219 237.203125 253.699219 C 237.410156 253.804688 253.042969 255.585938 264.898438 257.371094 C 258.183594 259.679688 252.308594 262.722656 251.890625 262.929688 C 251.15625 263.351562 250.734375 264.085938 250.734375 264.925781 C 250.839844 265.867188 251.367188 266.5 252.203125 266.8125 Z M 220.519531 272.898438 L 149.914062 272.898438 L 166.804688 263.140625 C 167.539062 262.722656 167.960938 261.988281 167.855469 261.148438 C 167.855469 260.414062 167.433594 259.679688 166.699219 259.363281 C 163.761719 258.105469 160.511719 256.53125 158.308594 255.273438 C 161.980469 254.222656 168.273438 252.753906 174.042969 251.390625 C 174.570312 251.179688 175.09375 250.867188 175.304688 250.34375 C 175.617188 249.921875 175.722656 249.292969 175.617188 248.769531 L 172.679688 237.855469 L 188.3125 233.660156 C 188.417969 233.660156 188.523438 233.660156 188.628906 233.554688 C 188.628906 233.554688 188.730469 233.660156 188.730469 233.660156 L 201.636719 237.753906 L 199.222656 248.875 C 199.117188 249.398438 199.222656 250.027344 199.539062 250.550781 C 199.851562 250.972656 200.378906 251.285156 200.902344 251.390625 C 207.09375 252.335938 213.28125 254.015625 215.171875 255.0625 C 214.015625 256.21875 210.449219 258.105469 206.988281 259.363281 C 206.253906 259.574219 205.726562 260.308594 205.625 261.042969 C 205.519531 261.777344 205.832031 262.617188 206.460938 263.035156 Z M 147.398438 269.542969 L 147.398438 225.164062 C 147.398438 224.007812 148.339844 223.066406 149.496094 223.066406 L 187.894531 223.066406 C 187.996094 223.273438 188.207031 223.378906 188.3125 223.484375 L 191.355469 225.058594 L 187.261719 229.148438 C 187.261719 229.148438 187.160156 229.253906 187.054688 229.359375 L 186.632812 229.777344 L 169.53125 234.394531 C 169.007812 234.5 168.484375 234.816406 168.273438 235.339844 C 167.960938 235.757812 167.855469 236.386719 168.0625 236.914062 L 171 247.71875 C 159.984375 250.34375 153.902344 252.125 152.851562 252.859375 C 152.222656 253.382812 151.804688 254.117188 151.90625 254.957031 C 152.011719 256.007812 152.222656 257.265625 161.246094 261.566406 Z M 147.398438 269.542969 " fill-opacity="1" fill-rule="evenodd"/></g></g><g clip-path="url(#bfe2e9c915)"><g clip-path="url(#b0df3fb916)"><path stroke-linecap="butt" transform="matrix(0.75, 0, 0, 0.75, 75.908253, 34.12617)" fill="none" stroke-linejoin="miter" d="M 198.898397 -0.00155957 C 89.049424 -0.00155957 0.00253751 89.050535 0.00253751 198.899508 C 0.00253751 308.74848 89.049424 397.795367 198.898397 397.795367 C 308.747369 397.795367 397.799464 308.74848 397.799464 198.899508 C 397.799464 89.050535 308.747369 -0.00155957 198.898397 -0.00155957 Z M 198.898397 -0.00155957 " stroke="#feeb3a" stroke-width="16" stroke-opacity="1" stroke-miterlimit="4"/></g></g><g fill="#feeb3a" fill-opacity="1"><g transform="translate(192.903662, 68.357327)"><g><path d="M 7.171875 -0.53125 C 6.304688 -0.425781 5.347656 -0.4375 4.296875 -0.5625 C 3.242188 -0.695312 2.328125 -0.925781 1.546875 -1.25 L 0.890625 -5.734375 L 2.828125 -6.078125 L 4.203125 -3.0625 C 4.660156 -2.84375 5.171875 -2.6875 5.734375 -2.59375 C 6.296875 -2.507812 6.832031 -2.5 7.34375 -2.5625 C 8.25 -2.664062 8.914062 -2.9375 9.34375 -3.375 C 9.78125 -3.8125 9.960938 -4.347656 9.890625 -4.984375 C 9.804688 -5.703125 9.53125 -6.25 9.0625 -6.625 C 8.601562 -7 8.023438 -7.300781 7.328125 -7.53125 C 6.628906 -7.757812 5.882812 -7.976562 5.09375 -8.1875 C 4.3125 -8.394531 3.5625 -8.671875 2.84375 -9.015625 C 2.132812 -9.359375 1.535156 -9.828125 1.046875 -10.421875 C 0.554688 -11.023438 0.253906 -11.847656 0.140625 -12.890625 C 0.015625 -13.972656 0.210938 -14.957031 0.734375 -15.84375 C 1.265625 -16.738281 2.0625 -17.476562 3.125 -18.0625 C 4.195312 -18.644531 5.472656 -19.023438 6.953125 -19.203125 C 7.421875 -19.253906 7.929688 -19.28125 8.484375 -19.28125 C 9.035156 -19.28125 9.570312 -19.242188 10.09375 -19.171875 C 10.613281 -19.097656 11.066406 -19 11.453125 -18.875 L 12.3125 -14.46875 L 10.390625 -14.125 L 9.09375 -17 C 8.425781 -17.238281 7.679688 -17.3125 6.859375 -17.21875 C 6.035156 -17.125 5.378906 -16.84375 4.890625 -16.375 C 4.410156 -15.90625 4.210938 -15.296875 4.296875 -14.546875 C 4.367188 -13.878906 4.640625 -13.347656 5.109375 -12.953125 C 5.585938 -12.566406 6.179688 -12.257812 6.890625 -12.03125 C 7.609375 -11.800781 8.359375 -11.570312 9.140625 -11.34375 C 9.929688 -11.125 10.6875 -10.847656 11.40625 -10.515625 C 12.125 -10.179688 12.734375 -9.71875 13.234375 -9.125 C 13.734375 -8.539062 14.039062 -7.769531 14.15625 -6.8125 C 14.269531 -5.78125 14.054688 -4.816406 13.515625 -3.921875 C 12.984375 -3.023438 12.171875 -2.273438 11.078125 -1.671875 C 9.984375 -1.078125 8.679688 -0.695312 7.171875 -0.53125 Z M 7.171875 -0.53125 "/></g></g></g><g fill="#feeb3a" fill-opacity="1"><g transform="translate(213.892064, 66.228661)"><g><path d="M 12.0625 1.078125 L 12.109375 -0.46875 L 14.015625 -0.765625 C 14.078125 -0.890625 14.140625 -1.164062 14.203125 -1.59375 C 14.273438 -2.03125 14.347656 -2.582031 14.421875 -3.25 C 14.503906 -3.925781 14.582031 -4.65625 14.65625 -5.4375 L 15.0625 -9.890625 C 15.132812 -10.722656 15.1875 -11.476562 15.21875 -12.15625 C 15.257812 -12.832031 15.285156 -13.390625 15.296875 -13.828125 C 15.304688 -14.273438 15.296875 -14.539062 15.265625 -14.625 L 13.421875 -15.28125 L 13.65625 -16.78125 L 21.84375 -16.046875 L 21.796875 -14.53125 L 19.828125 -14.21875 C 19.785156 -14.132812 19.726562 -13.851562 19.65625 -13.375 C 19.582031 -12.90625 19.5 -12.328125 19.40625 -11.640625 C 19.3125 -10.953125 19.234375 -10.242188 19.171875 -9.515625 L 18.765625 -5.0625 C 18.703125 -4.382812 18.65625 -3.695312 18.625 -3 C 18.601562 -2.3125 18.585938 -1.726562 18.578125 -1.25 C 18.566406 -0.78125 18.566406 -0.484375 18.578125 -0.359375 L 20.484375 0.28125 L 20.25 1.8125 Z M 1.15625 0.109375 L 1.203125 -1.4375 L 3.15625 -1.734375 C 3.207031 -1.835938 3.265625 -2.097656 3.328125 -2.515625 C 3.398438 -2.941406 3.472656 -3.492188 3.546875 -4.171875 C 3.628906 -4.859375 3.707031 -5.601562 3.78125 -6.40625 L 4.1875 -10.859375 C 4.257812 -11.710938 4.316406 -12.476562 4.359375 -13.15625 C 4.398438 -13.832031 4.425781 -14.390625 4.4375 -14.828125 C 4.445312 -15.273438 4.4375 -15.53125 4.40625 -15.59375 L 2.515625 -16.25 L 2.75 -17.75 L 10.890625 -17.03125 L 10.828125 -15.515625 L 8.90625 -15.1875 C 8.851562 -15.113281 8.789062 -14.859375 8.71875 -14.421875 C 8.644531 -13.984375 8.570312 -13.425781 8.5 -12.75 C 8.4375 -12.070312 8.367188 -11.316406 8.296875 -10.484375 L 7.890625 -6.03125 C 7.816406 -5.25 7.753906 -4.519531 7.703125 -3.84375 C 7.660156 -3.175781 7.632812 -2.625 7.625 -2.1875 C 7.625 -1.75 7.632812 -1.460938 7.65625 -1.328125 L 9.515625 -0.703125 L 9.296875 0.828125 Z M 7.34375 -7.375 L 7.546875 -9.6875 C 8.023438 -9.582031 8.582031 -9.488281 9.21875 -9.40625 C 9.851562 -9.332031 10.644531 -9.253906 11.59375 -9.171875 C 12.550781 -9.085938 13.34375 -9.023438 13.96875 -8.984375 C 14.59375 -8.953125 15.15625 -8.945312 15.65625 -8.96875 L 15.453125 -6.65625 C 15.023438 -6.707031 14.492188 -6.773438 13.859375 -6.859375 C 13.234375 -6.953125 12.414062 -7.046875 11.40625 -7.140625 C 10.394531 -7.234375 9.570312 -7.289062 8.9375 -7.3125 C 8.300781 -7.332031 7.769531 -7.351562 7.34375 -7.375 Z M 7.34375 -7.375 "/></g></g></g><g fill="#feeb3a" fill-opacity="1"><g transform="translate(240.47823, 69.324539)"><g><path d="M -0.03125 -0.015625 L 0.328125 -1.5 L 2 -1.484375 L 12.40625 -13.984375 L 15.265625 -14.59375 L 17.078125 3.21875 L 18.453125 4.15625 L 17.90625 5.59375 L 10.09375 3.15625 L 10.46875 1.65625 L 12.46875 1.78125 L 12.078125 -2.46875 L 12.0625 -3.578125 L 11.296875 -11.375 L 12.0625 -10.859375 L 7.59375 -5.046875 L 7.0625 -4.265625 L 4.40625 -0.734375 L 6.140625 0.3125 L 5.609375 1.75 Z M 6.0625 -3.5625 L 6.6875 -5.546875 C 7.0625 -5.398438 7.488281 -5.234375 7.96875 -5.046875 C 8.445312 -4.867188 9.09375 -4.648438 9.90625 -4.390625 C 10.695312 -4.148438 11.351562 -3.960938 11.875 -3.828125 C 12.394531 -3.703125 12.84375 -3.59375 13.21875 -3.5 L 12.609375 -1.53125 C 12.242188 -1.644531 11.800781 -1.796875 11.28125 -1.984375 C 10.769531 -2.171875 10.128906 -2.378906 9.359375 -2.609375 C 8.566406 -2.859375 7.914062 -3.050781 7.40625 -3.1875 C 6.894531 -3.332031 6.445312 -3.457031 6.0625 -3.5625 Z M 6.0625 -3.5625 "/></g></g></g><g fill="#feeb3a" fill-opacity="1"><g transform="translate(263.202027, 76.924299)"><g><path d="M 9.890625 5.546875 L 10.546875 4.140625 L 12.078125 4.671875 C 12.078125 4.410156 12.0625 4.160156 12.03125 3.921875 C 12.007812 3.679688 11.96875 3.335938 11.90625 2.890625 L 10.84375 -2.984375 L 9.796875 -3.5625 L 10.515625 -4.84375 L 11.75 -4.421875 L 20.421875 -7 L 18.875 -8.234375 L 19.703125 -9.53125 L 25.75 -6.140625 L 25.046875 -4.703125 L 23.15625 -5.421875 L 14.34375 -3.46875 L 14.921875 -4.671875 L 16.609375 4.359375 C 16.765625 5.078125 16.882812 5.65625 16.96875 6.09375 C 17.050781 6.53125 17.117188 6.863281 17.171875 7.09375 C 17.234375 7.320312 17.285156 7.507812 17.328125 7.65625 L 18.578125 8.609375 L 17.8125 9.96875 Z M 1.09375 0.609375 L 1.765625 -0.78125 L 3.71875 -0.234375 C 3.8125 -0.347656 4.078125 -0.769531 4.515625 -1.5 C 4.953125 -2.238281 5.484375 -3.164062 6.109375 -4.28125 L 8.296875 -8.1875 C 8.710938 -8.925781 9.078125 -9.597656 9.390625 -10.203125 C 9.703125 -10.816406 9.953125 -11.3125 10.140625 -11.6875 C 10.328125 -12.070312 10.421875 -12.3125 10.421875 -12.40625 L 8.96875 -13.78125 L 9.796875 -15.078125 L 16.96875 -11.0625 L 16.3125 -9.671875 L 14.359375 -10.203125 C 14.273438 -10.128906 14.113281 -9.910156 13.875 -9.546875 C 13.632812 -9.179688 13.34375 -8.707031 13 -8.125 C 12.664062 -7.550781 12.296875 -6.898438 11.890625 -6.171875 L 9.703125 -2.265625 C 9.078125 -1.148438 8.566406 -0.210938 8.171875 0.546875 C 7.785156 1.304688 7.566406 1.753906 7.515625 1.890625 L 8.671875 3.09375 L 7.84375 4.390625 Z M 1.09375 0.609375 "/></g></g></g><g fill="#feeb3a" fill-opacity="1"><g transform="translate(285.014813, 89.894857)"><g><path d="M 11.875 10.5625 C 11.46875 10.15625 10.972656 9.671875 10.390625 9.109375 C 9.816406 8.554688 9.285156 8.0625 8.796875 7.625 L 0.84375 0.734375 L 1.796875 -0.46875 L 3.59375 0.453125 C 3.6875 0.390625 3.882812 0.207031 4.1875 -0.09375 C 4.488281 -0.394531 4.867188 -0.796875 5.328125 -1.296875 C 5.796875 -1.804688 6.296875 -2.367188 6.828125 -2.984375 L 9.75 -6.359375 C 10.3125 -7.003906 10.804688 -7.585938 11.234375 -8.109375 C 11.671875 -8.640625 12.019531 -9.070312 12.28125 -9.40625 C 12.539062 -9.75 12.679688 -9.96875 12.703125 -10.0625 L 11.546875 -11.703125 L 12.609375 -12.8125 L 19.734375 -6.640625 C 20.035156 -6.367188 20.40625 -6.046875 20.84375 -5.671875 C 21.289062 -5.296875 21.738281 -4.9375 22.1875 -4.59375 C 22.632812 -4.25 23.007812 -3.960938 23.3125 -3.734375 L 20.96875 0.234375 L 19.46875 -0.734375 L 20.375 -3.515625 C 20.21875 -3.742188 20.0625 -3.9375 19.90625 -4.09375 C 19.757812 -4.25 19.59375 -4.40625 19.40625 -4.5625 L 17.65625 -6.078125 C 17.363281 -6.335938 17.078125 -6.578125 16.796875 -6.796875 C 16.523438 -7.023438 16.296875 -7.195312 16.109375 -7.3125 C 15.992188 -7.1875 15.820312 -7.003906 15.59375 -6.765625 C 15.375 -6.535156 15.09375 -6.226562 14.75 -5.84375 C 14.414062 -5.46875 14.019531 -5.019531 13.5625 -4.5 L 9.359375 0.34375 C 8.929688 0.84375 8.550781 1.285156 8.21875 1.671875 C 7.894531 2.066406 7.628906 2.394531 7.421875 2.65625 C 7.210938 2.914062 7.046875 3.117188 6.921875 3.265625 C 7.160156 3.546875 7.425781 3.828125 7.71875 4.109375 C 8.019531 4.390625 8.398438 4.734375 8.859375 5.140625 L 10.078125 6.203125 C 10.484375 6.546875 10.785156 6.796875 10.984375 6.953125 C 11.179688 7.117188 11.335938 7.238281 11.453125 7.3125 C 11.566406 7.382812 11.679688 7.457031 11.796875 7.53125 L 15.078125 6.328125 L 16.15625 7.71875 Z M 13.078125 3.265625 L 14.1875 1.515625 C 14.082031 1.398438 13.921875 1.238281 13.703125 1.03125 C 13.484375 0.832031 13.222656 0.597656 12.921875 0.328125 L 11.6875 -0.734375 C 11.425781 -0.960938 11.164062 -1.171875 10.90625 -1.359375 C 10.65625 -1.554688 10.460938 -1.703125 10.328125 -1.796875 L 11.75 -3.4375 C 11.863281 -3.3125 12.03125 -3.132812 12.25 -2.90625 C 12.476562 -2.6875 12.722656 -2.460938 12.984375 -2.234375 L 14.21875 -1.171875 C 14.519531 -0.898438 14.785156 -0.671875 15.015625 -0.484375 C 15.253906 -0.296875 15.429688 -0.15625 15.546875 -0.0625 L 17.125 -1.40625 L 18.390625 -0.3125 L 14.34375 4.359375 Z M 13.078125 3.265625 "/></g></g></g><g fill="#feeb3a" fill-opacity="1"><g transform="translate(302.253925, 106.017873)"><g/></g></g><g fill="#feeb3a" fill-opacity="1"><g transform="translate(309.953467, 115.16443)"><g><path d="M 3.609375 6.234375 C 3.140625 5.492188 2.726562 4.617188 2.375 3.609375 C 2.03125 2.597656 1.835938 1.679688 1.796875 0.859375 L 5.53125 -1.703125 L 6.6875 -0.125 L 4.59375 2.4375 C 4.59375 2.957031 4.675781 3.484375 4.84375 4.015625 C 5.007812 4.554688 5.234375 5.046875 5.515625 5.484375 C 6.003906 6.253906 6.535156 6.738281 7.109375 6.9375 C 7.691406 7.144531 8.257812 7.070312 8.8125 6.71875 C 9.414062 6.332031 9.785156 5.847656 9.921875 5.265625 C 10.054688 4.691406 10.070312 4.035156 9.96875 3.296875 C 9.875 2.566406 9.742188 1.804688 9.578125 1.015625 C 9.421875 0.222656 9.34375 -0.566406 9.34375 -1.359375 C 9.34375 -2.148438 9.503906 -2.894531 9.828125 -3.59375 C 10.160156 -4.300781 10.769531 -4.9375 11.65625 -5.5 C 12.582031 -6.082031 13.554688 -6.332031 14.578125 -6.25 C 15.609375 -6.164062 16.617188 -5.769531 17.609375 -5.0625 C 18.597656 -4.351562 19.492188 -3.367188 20.296875 -2.109375 C 20.546875 -1.710938 20.789062 -1.265625 21.03125 -0.765625 C 21.28125 -0.273438 21.484375 0.21875 21.640625 0.71875 C 21.804688 1.21875 21.921875 1.671875 21.984375 2.078125 L 18.390625 4.765625 L 17.234375 3.203125 L 19.25 0.75 C 19.195312 0.0507812 18.945312 -0.644531 18.5 -1.34375 C 18.050781 -2.050781 17.503906 -2.519531 16.859375 -2.75 C 16.222656 -2.976562 15.585938 -2.890625 14.953125 -2.484375 C 14.378906 -2.128906 14.019531 -1.648438 13.875 -1.046875 C 13.738281 -0.453125 13.722656 0.210938 13.828125 0.953125 C 13.929688 1.691406 14.054688 2.46875 14.203125 3.28125 C 14.347656 4.09375 14.425781 4.894531 14.4375 5.6875 C 14.445312 6.476562 14.296875 7.222656 13.984375 7.921875 C 13.679688 8.628906 13.125 9.242188 12.3125 9.765625 C 11.425781 10.316406 10.460938 10.546875 9.421875 10.453125 C 8.390625 10.359375 7.363281 9.953125 6.34375 9.234375 C 5.332031 8.515625 4.421875 7.515625 3.609375 6.234375 Z M 3.609375 6.234375 "/></g></g></g><g fill="#feeb3a" fill-opacity="1"><g transform="translate(321.027674, 133.118391)"><g><path d="M 4.296875 11.328125 L 5.703125 10.6875 L 6.828125 12.28125 C 6.953125 12.28125 7.222656 12.210938 7.640625 12.078125 C 8.054688 11.953125 8.582031 11.78125 9.21875 11.5625 C 9.863281 11.34375 10.554688 11.09375 11.296875 10.8125 L 15.46875 9.234375 C 16.25 8.941406 16.953125 8.660156 17.578125 8.390625 C 18.210938 8.128906 18.726562 7.90625 19.125 7.71875 C 19.519531 7.539062 19.753906 7.414062 19.828125 7.34375 L 19.609375 5.40625 L 21.0625 4.96875 L 23.984375 12.640625 L 22.59375 13.265625 L 21.453125 11.625 C 21.359375 11.625 21.082031 11.695312 20.625 11.84375 C 20.164062 11.988281 19.601562 12.164062 18.9375 12.375 C 18.28125 12.59375 17.609375 12.832031 16.921875 13.09375 L 12.75 14.671875 C 12.101562 14.921875 11.460938 15.179688 10.828125 15.453125 C 10.203125 15.734375 9.675781 15.96875 9.25 16.15625 C 8.820312 16.351562 8.554688 16.488281 8.453125 16.5625 L 8.6875 18.546875 L 7.21875 19 Z M 0.40625 1.078125 L 1.8125 0.453125 L 2.953125 2.09375 C 3.066406 2.09375 3.328125 2.03125 3.734375 1.90625 C 4.140625 1.78125 4.664062 1.601562 5.3125 1.375 C 5.957031 1.15625 6.660156 0.898438 7.421875 0.609375 L 11.59375 -0.96875 C 12.394531 -1.269531 13.109375 -1.550781 13.734375 -1.8125 C 14.367188 -2.082031 14.882812 -2.304688 15.28125 -2.484375 C 15.6875 -2.660156 15.910156 -2.78125 15.953125 -2.84375 L 15.71875 -4.828125 L 17.171875 -5.28125 L 20.078125 2.359375 L 18.6875 2.96875 L 17.5625 1.375 C 17.457031 1.363281 17.195312 1.421875 16.78125 1.546875 C 16.363281 1.671875 15.832031 1.847656 15.1875 2.078125 C 14.539062 2.316406 13.828125 2.582031 13.046875 2.875 L 8.875 4.453125 C 8.132812 4.734375 7.453125 5 6.828125 5.25 C 6.203125 5.5 5.691406 5.71875 5.296875 5.90625 C 4.898438 6.09375 4.65625 6.226562 4.5625 6.3125 L 4.78125 8.25 L 3.3125 8.71875 Z M 9.84375 3.375 L 12.015625 2.546875 C 12.128906 3.035156 12.289062 3.578125 12.5 4.171875 C 12.707031 4.773438 12.984375 5.523438 13.328125 6.421875 C 13.660156 7.316406 13.945312 8.054688 14.1875 8.640625 C 14.425781 9.222656 14.664062 9.726562 14.90625 10.15625 L 12.734375 10.984375 C 12.597656 10.585938 12.429688 10.082031 12.234375 9.46875 C 12.035156 8.863281 11.757812 8.085938 11.40625 7.140625 C 11.039062 6.191406 10.734375 5.425781 10.484375 4.84375 C 10.234375 4.269531 10.019531 3.78125 9.84375 3.375 Z M 9.84375 3.375 "/></g></g></g><g fill="#feeb3a" fill-opacity="1"><g transform="translate(329.670756, 158.70919)"><g><path d="M 0.203125 1.140625 L 1.6875 0.765625 L 2.53125 2.59375 C 2.632812 2.613281 2.894531 2.597656 3.3125 2.546875 C 3.738281 2.492188 4.289062 2.414062 4.96875 2.3125 C 5.644531 2.21875 6.382812 2.097656 7.1875 1.953125 L 11.578125 1.140625 C 12.421875 0.984375 13.175781 0.832031 13.84375 0.6875 C 14.507812 0.550781 15.050781 0.429688 15.46875 0.328125 C 15.894531 0.222656 16.140625 0.144531 16.203125 0.09375 L 16.328125 -1.90625 L 17.84375 -2.078125 L 19.328125 6.015625 L 17.84375 6.359375 L 17.015625 4.53125 C 16.929688 4.5 16.671875 4.503906 16.234375 4.546875 C 15.796875 4.597656 15.238281 4.679688 14.5625 4.796875 C 13.882812 4.910156 13.132812 5.039062 12.3125 5.1875 L 7.921875 6 C 7.140625 6.132812 6.421875 6.269531 5.765625 6.40625 C 5.109375 6.539062 4.566406 6.660156 4.140625 6.765625 C 3.722656 6.878906 3.457031 6.96875 3.34375 7.03125 L 3.203125 9.03125 L 1.6875 9.234375 Z M 0.203125 1.140625 "/></g></g></g><g fill="#feeb3a" fill-opacity="1"><g transform="translate(332.422926, 174.725742)"><g><path d="M 0.03125 15.890625 C 0.0625 15.316406 0.09375 14.628906 0.125 13.828125 C 0.15625 13.023438 0.164062 12.296875 0.15625 11.640625 L 0.015625 1.125 L 1.546875 1.03125 L 2.0625 2.96875 C 2.164062 3.007812 2.429688 3.039062 2.859375 3.0625 C 3.285156 3.082031 3.835938 3.097656 4.515625 3.109375 C 5.203125 3.117188 5.953125 3.117188 6.765625 3.109375 L 11.234375 3.046875 C 12.085938 3.035156 12.851562 3.015625 13.53125 2.984375 C 14.21875 2.960938 14.773438 2.929688 15.203125 2.890625 C 15.628906 2.859375 15.882812 2.820312 15.96875 2.78125 L 16.421875 0.828125 L 17.953125 0.890625 L 18.078125 10.3125 C 18.085938 10.71875 18.097656 11.207031 18.109375 11.78125 C 18.128906 12.363281 18.160156 12.929688 18.203125 13.484375 C 18.242188 14.046875 18.273438 14.519531 18.296875 14.90625 L 13.78125 15.796875 L 13.515625 14.046875 L 16.1875 12.859375 C 16.25 12.597656 16.285156 12.359375 16.296875 12.140625 C 16.316406 11.929688 16.328125 11.703125 16.328125 11.453125 L 16.296875 9.140625 C 16.296875 8.742188 16.285156 8.367188 16.265625 8.015625 C 16.253906 7.660156 16.222656 7.367188 16.171875 7.140625 C 16.003906 7.140625 15.757812 7.132812 15.4375 7.125 C 15.113281 7.125 14.695312 7.125 14.1875 7.125 C 13.675781 7.125 13.070312 7.125 12.375 7.125 L 5.96875 7.21875 C 5.3125 7.226562 4.726562 7.238281 4.21875 7.25 C 3.707031 7.269531 3.285156 7.285156 2.953125 7.296875 C 2.617188 7.316406 2.359375 7.328125 2.171875 7.328125 C 2.117188 7.703125 2.082031 8.09375 2.0625 8.5 C 2.050781 8.90625 2.050781 9.414062 2.0625 10.03125 L 2.078125 11.640625 C 2.085938 12.171875 2.097656 12.5625 2.109375 12.8125 C 2.117188 13.070312 2.132812 13.265625 2.15625 13.390625 C 2.1875 13.523438 2.210938 13.664062 2.234375 13.8125 L 5.3125 15.46875 L 5 17.203125 Z M 6.265625 11.9375 L 8.3125 11.59375 C 8.332031 11.445312 8.34375 11.222656 8.34375 10.921875 C 8.351562 10.617188 8.359375 10.265625 8.359375 9.859375 L 8.328125 8.234375 C 8.328125 7.890625 8.3125 7.554688 8.28125 7.234375 C 8.257812 6.921875 8.238281 6.679688 8.21875 6.515625 L 10.390625 6.484375 C 10.367188 6.648438 10.347656 6.890625 10.328125 7.203125 C 10.316406 7.523438 10.3125 7.859375 10.3125 8.203125 L 10.34375 9.828125 C 10.34375 10.234375 10.347656 10.585938 10.359375 10.890625 C 10.378906 11.191406 10.390625 11.414062 10.390625 11.5625 L 12.4375 11.84375 L 12.46875 13.515625 L 6.296875 13.609375 Z M 6.265625 11.9375 "/></g></g></g><g fill="#feeb3a" fill-opacity="1"><g transform="translate(332.163296, 197.981802)"><g><path d="M -2.921875 14.96875 C -2.765625 14.457031 -2.625 13.898438 -2.5 13.296875 C -2.375 12.703125 -2.25 12.128906 -2.125 11.578125 C -2 11.035156 -1.910156 10.601562 -1.859375 10.28125 L -0.21875 1.171875 L 1.3125 1.34375 L 1.4375 3.375 C 1.53125 3.4375 1.800781 3.515625 2.25 3.609375 C 2.695312 3.703125 3.253906 3.820312 3.921875 3.96875 C 4.585938 4.113281 5.289062 4.25 6.03125 4.375 L 10.4375 5.171875 C 11.207031 5.316406 11.929688 5.4375 12.609375 5.53125 C 13.285156 5.632812 13.84375 5.71875 14.28125 5.78125 C 14.726562 5.84375 15 5.863281 15.09375 5.84375 L 15.953125 4 L 17.4375 4.359375 L 15.875 13.0625 L 14.28125 12.859375 L 14.296875 10.28125 C 14.234375 10.25 13.992188 10.175781 13.578125 10.0625 C 13.160156 9.957031 12.617188 9.832031 11.953125 9.6875 C 11.285156 9.550781 10.535156 9.40625 9.703125 9.25 L 5.296875 8.453125 C 4.140625 8.242188 3.203125 8.085938 2.484375 7.984375 C 1.765625 7.878906 1.28125 7.8125 1.03125 7.78125 C 0.90625 8.113281 0.796875 8.460938 0.703125 8.828125 C 0.617188 9.203125 0.53125 9.648438 0.4375 10.171875 L 0.234375 11.3125 C 0.160156 11.726562 0.109375 12.117188 0.078125 12.484375 C 0.0546875 12.847656 0.0507812 13.144531 0.0625 13.375 L 3.015625 15.640625 L 2.234375 17.390625 Z M -2.921875 14.96875 "/></g></g></g><g fill="#feeb3a" fill-opacity="1"><g transform="translate(327.909374, 219.781694)"><g><path d="M 16.1875 7.828125 L 13.015625 15.640625 C 11.773438 18.703125 10.09375 20.800781 7.96875 21.9375 C 5.84375 23.070312 3.507812 23.125 0.96875 22.09375 C -0.675781 21.425781 -1.976562 20.425781 -2.9375 19.09375 C -3.90625 17.757812 -4.460938 16.226562 -4.609375 14.5 C -4.765625 12.78125 -4.472656 11.003906 -3.734375 9.171875 L -0.4375 1.078125 L 1.015625 1.5625 L 0.734375 3.578125 C 0.835938 3.679688 1.289062 3.914062 2.09375 4.28125 C 2.90625 4.65625 3.875 5.070312 5 5.53125 L 9.140625 7.203125 C 10.328125 7.691406 11.335938 8.082031 12.171875 8.375 C 13.015625 8.675781 13.492188 8.816406 13.609375 8.796875 L 14.796875 7.15625 Z M 11.921875 12.859375 C 11.804688 12.804688 11.566406 12.703125 11.203125 12.546875 C 10.847656 12.390625 10.375 12.179688 9.78125 11.921875 C 9.195312 11.671875 8.46875 11.367188 7.59375 11.015625 L 3.453125 9.34375 C 2.960938 9.144531 2.445312 8.941406 1.90625 8.734375 C 1.363281 8.523438 0.859375 8.34375 0.390625 8.1875 C -0.0664062 8.03125 -0.429688 7.910156 -0.703125 7.828125 C -0.953125 8.222656 -1.1875 8.625 -1.40625 9.03125 C -1.625 9.445312 -1.8125 9.84375 -1.96875 10.21875 C -2.625 11.832031 -2.65625 13.234375 -2.0625 14.421875 C -1.46875 15.617188 -0.171875 16.625 1.828125 17.4375 C 3.148438 17.96875 4.332031 18.269531 5.375 18.34375 C 6.425781 18.414062 7.335938 18.300781 8.109375 18 C 8.890625 17.707031 9.550781 17.273438 10.09375 16.703125 C 10.632812 16.128906 11.0625 15.457031 11.375 14.6875 C 11.488281 14.414062 11.59375 14.125 11.6875 13.8125 C 11.78125 13.507812 11.859375 13.191406 11.921875 12.859375 Z M 11.921875 12.859375 "/></g></g></g><path fill="#feeb3a" d="M 164.269531 211.519531 C 164.164062 211.519531 164.058594 211.507812 163.949219 211.480469 L 157.820312 209.910156 C 157.128906 209.734375 156.710938 209.03125 156.886719 208.339844 C 157.066406 207.648438 157.761719 207.226562 158.460938 207.40625 L 164.589844 208.976562 C 165.28125 209.152344 165.699219 209.859375 165.519531 210.550781 C 165.371094 211.132812 164.847656 211.519531 164.269531 211.519531 Z M 164.269531 211.519531 " fill-opacity="1" fill-rule="nonzero"/><g clip-path="url(#79c060a4a1)"><path fill="#feeb3a" d="M 147.375 207.652344 C 147.316406 207.652344 147.257812 207.648438 147.195312 207.636719 C 144.765625 207.300781 142.152344 207.046875 139.433594 206.890625 C 138.71875 206.847656 138.175781 206.238281 138.21875 205.523438 C 138.261719 204.8125 138.863281 204.28125 139.585938 204.308594 C 142.371094 204.472656 145.054688 204.734375 147.550781 205.082031 C 148.257812 205.179688 148.75 205.832031 148.652344 206.539062 C 148.5625 207.183594 148.011719 207.652344 147.375 207.652344 Z M 147.375 207.652344 " fill-opacity="1" fill-rule="nonzero"/></g><path fill="#feeb3a" d="M 180.476562 215.667969 C 180.367188 215.667969 180.261719 215.652344 180.152344 215.625 L 174.210938 214.105469 C 173.519531 213.929688 173.101562 213.226562 173.28125 212.535156 C 173.457031 211.84375 174.152344 211.421875 174.851562 211.601562 L 180.796875 213.125 C 181.484375 213.300781 181.902344 214.003906 181.726562 214.695312 C 181.574219 215.277344 181.050781 215.667969 180.476562 215.667969 Z M 180.476562 215.667969 " fill-opacity="1" fill-rule="nonzero"/><g clip-path="url(#9359703518)"><path fill="#feeb3a" d="M 56.078125 219.695312 C 48.046875 219.695312 40.019531 218.910156 33.90625 217.347656 L 1.121094 208.957031 C 0.433594 208.78125 0.015625 208.078125 0.191406 207.386719 C 0.367188 206.695312 1.070312 206.273438 1.761719 206.457031 L 34.550781 214.84375 C 46.421875 217.882812 65.742188 217.882812 77.613281 214.84375 L 110.394531 206.457031 C 116.542969 204.882812 124.730469 204.054688 133.445312 204.113281 C 134.160156 204.117188 134.734375 204.699219 134.730469 205.414062 C 134.722656 206.125 134.148438 206.695312 133.4375 206.695312 C 133.433594 206.695312 133.429688 206.695312 133.425781 206.695312 C 125.070312 206.628906 116.886719 207.460938 111.03125 208.957031 L 78.253906 217.347656 C 72.140625 218.910156 64.109375 219.695312 56.078125 219.695312 Z M 56.078125 219.695312 " fill-opacity="1" fill-rule="nonzero"/></g><g clip-path="url(#fa6d9a5d52)"><path fill="#feeb3a" d="M 56.078125 239.402344 C 48.050781 239.402344 40.019531 238.621094 33.90625 237.054688 L 1.121094 228.667969 C 0.433594 228.492188 0.015625 227.785156 0.191406 227.09375 C 0.367188 226.402344 1.070312 225.984375 1.761719 226.164062 L 34.550781 234.554688 C 46.421875 237.59375 65.742188 237.59375 77.613281 234.550781 L 110.394531 226.164062 C 122.621094 223.035156 142.511719 223.035156 154.738281 226.164062 L 187.519531 234.550781 C 188.207031 234.730469 188.625 235.433594 188.449219 236.125 C 188.269531 236.816406 187.570312 237.234375 186.875 237.054688 L 154.097656 228.667969 C 142.226562 225.628906 122.90625 225.628906 111.03125 228.667969 L 78.253906 237.054688 C 72.140625 238.621094 64.109375 239.402344 56.078125 239.402344 Z M 56.078125 239.402344 " fill-opacity="1" fill-rule="nonzero"/></g><g clip-path="url(#6e5eb3a141)"><path fill="#feeb3a" d="M 56.035156 259.109375 C 53.308594 259.109375 50.566406 259.019531 47.871094 258.832031 C 47.160156 258.785156 46.625 258.167969 46.671875 257.453125 C 46.722656 256.742188 47.332031 256.207031 48.050781 256.253906 C 58.625 256.980469 69.957031 256.21875 77.613281 254.261719 L 110.394531 245.871094 C 122.617188 242.742188 142.511719 242.742188 154.738281 245.871094 L 187.515625 254.261719 C 188.207031 254.4375 188.625 255.140625 188.449219 255.832031 C 188.269531 256.523438 187.570312 256.941406 186.875 256.761719 L 154.097656 248.375 C 142.222656 245.335938 122.90625 245.335938 111.03125 248.375 L 78.253906 256.761719 C 72.3125 258.285156 64.265625 259.109375 56.035156 259.109375 Z M 56.035156 259.109375 " fill-opacity="1" fill-rule="nonzero"/></g><path fill="#feeb3a" d="M 30.363281 255.816406 C 30.257812 255.816406 30.152344 255.800781 30.042969 255.773438 L 19.070312 252.964844 C 18.378906 252.789062 17.964844 252.085938 18.140625 251.394531 C 18.316406 250.703125 19.015625 250.28125 19.710938 250.464844 L 30.683594 253.273438 C 31.375 253.449219 31.792969 254.152344 31.617188 254.84375 C 31.464844 255.425781 30.941406 255.816406 30.363281 255.816406 Z M 30.363281 255.816406 " fill-opacity="1" fill-rule="nonzero"/><path fill="#feeb3a" d="M 7.808594 250.042969 C 7.703125 250.042969 7.59375 250.03125 7.488281 250.003906 L 1.121094 248.375 C 0.429688 248.195312 0.015625 247.492188 0.191406 246.800781 C 0.367188 246.109375 1.070312 245.691406 1.761719 245.871094 L 8.128906 247.5 C 8.820312 247.675781 9.234375 248.378906 9.058594 249.070312 C 8.910156 249.65625 8.382812 250.042969 7.808594 250.042969 Z M 7.808594 250.042969 " fill-opacity="1" fill-rule="nonzero"/><g clip-path="url(#4961241ec8)"><path fill="#feeb3a" d="M 56.082031 278.816406 C 48.050781 278.816406 40.019531 278.035156 33.90625 276.472656 L 1.121094 268.082031 C 0.433594 267.90625 0.015625 267.203125 0.191406 266.511719 C 0.367188 265.820312 1.070312 265.398438 1.761719 265.578125 L 34.550781 273.96875 C 46.421875 277.007812 65.742188 277.007812 77.613281 273.96875 L 110.394531 265.578125 C 122.621094 262.449219 142.511719 262.449219 154.738281 265.578125 L 187.519531 273.96875 C 188.207031 274.144531 188.625 274.847656 188.449219 275.539062 C 188.269531 276.230469 187.570312 276.648438 186.875 276.472656 L 154.097656 268.082031 C 142.226562 265.042969 122.90625 265.042969 111.03125 268.082031 L 78.253906 276.472656 C 72.140625 278.035156 64.113281 278.816406 56.082031 278.816406 Z M 56.082031 278.816406 " fill-opacity="1" fill-rule="nonzero"/></g><g clip-path="url(#1b7c9d98cf)"><path fill="#feeb3a" d="M 187.199219 296.21875 C 187.089844 296.21875 186.984375 296.207031 186.875 296.179688 L 181.480469 294.796875 C 180.789062 294.621094 180.371094 293.917969 180.550781 293.226562 C 180.726562 292.535156 181.425781 292.113281 182.121094 292.296875 L 187.519531 293.675781 C 188.207031 293.851562 188.625 294.554688 188.449219 295.25 C 188.296875 295.832031 187.773438 296.21875 187.199219 296.21875 Z M 187.199219 296.21875 " fill-opacity="1" fill-rule="nonzero"/></g><path fill="#feeb3a" d="M 175.476562 293.21875 C 175.371094 293.21875 175.265625 293.207031 175.15625 293.179688 L 159.453125 289.160156 C 158.761719 288.984375 158.347656 288.28125 158.523438 287.589844 C 158.699219 286.898438 159.398438 286.476562 160.09375 286.660156 L 175.796875 290.675781 C 176.488281 290.855469 176.90625 291.558594 176.730469 292.25 C 176.578125 292.832031 176.054688 293.21875 175.476562 293.21875 Z M 175.476562 293.21875 " fill-opacity="1" fill-rule="nonzero"/><g clip-path="url(#47b5619b4b)"><path fill="#feeb3a" d="M 56.078125 298.523438 C 48.046875 298.523438 40.019531 297.742188 33.90625 296.179688 L 1.121094 287.789062 C 0.433594 287.613281 0.015625 286.910156 0.191406 286.21875 C 0.367188 285.527344 1.070312 285.105469 1.761719 285.289062 L 34.550781 293.675781 C 46.421875 296.714844 65.742188 296.714844 77.613281 293.675781 L 110.394531 285.289062 C 121.246094 282.511719 138.191406 282.144531 150.691406 284.414062 C 151.394531 284.539062 151.859375 285.210938 151.734375 285.914062 C 151.605469 286.617188 150.9375 287.085938 150.230469 286.953125 C 138.25 284.777344 121.398438 285.136719 111.035156 287.789062 L 78.253906 296.179688 C 72.140625 297.742188 64.109375 298.523438 56.078125 298.523438 Z M 56.078125 298.523438 " fill-opacity="1" fill-rule="nonzero"/></g></svg>