<svg xmlns="http://www.w3.org/2000/svg" xmlns:xlink="http://www.w3.org/1999/xlink" width="500" zoomAndPan="magnify" viewBox="0 0 375 374.999991" height="500" preserveAspectRatio="xMidYMid meet" version="1.0"><defs><filter x="0%" y="0%" width="100%" height="100%" id="1608cac9f5"><feColorMatrix values="0 0 0 0 1 0 0 0 0 1 0 0 0 0 1 0 0 0 1 0" color-interpolation-filters="sRGB"/></filter><g/><mask id="f6c0672c4f"><g filter="url(#1608cac9f5)"><rect x="-37.5" width="450" fill="#000000" y="-37.499999" height="449.999989" fill-opacity="0.2"/></g></mask><clipPath id="7436c6bec5"><path d="M 28.734375 28.804688 L 326.410156 28.804688 L 326.410156 326.480469 L 28.734375 326.480469 Z M 28.734375 28.804688 " clip-rule="nonzero"/></clipPath><clipPath id="48d895a60c"><path d="M 177.574219 28.804688 C 95.371094 28.804688 28.734375 95.441406 28.734375 177.644531 C 28.734375 259.84375 95.371094 326.480469 177.574219 326.480469 C 259.773438 326.480469 326.410156 259.84375 326.410156 177.644531 C 326.410156 95.441406 259.773438 28.804688 177.574219 28.804688 Z M 177.574219 28.804688 " clip-rule="nonzero"/></clipPath><clipPath id="64065ec33b"><path d="M 28.734375 28.804688 L 326.402344 28.804688 L 326.402344 326.472656 L 28.734375 326.472656 Z M 28.734375 28.804688 " clip-rule="nonzero"/></clipPath><clipPath id="b2a54d5245"><path d="M 177.570312 28.804688 C 95.371094 28.804688 28.734375 95.441406 28.734375 177.640625 C 28.734375 259.839844 95.371094 326.472656 177.570312 326.472656 C 259.769531 326.472656 326.402344 259.839844 326.402344 177.640625 C 326.402344 95.441406 259.769531 28.804688 177.570312 28.804688 Z M 177.570312 28.804688 " clip-rule="nonzero"/></clipPath><clipPath id="a74dd66b62"><rect x="0" width="328" y="0" height="355"/></clipPath><clipPath id="c384b524a6"><path d="M 136 87.289062 L 313 87.289062 L 313 262.789062 L 136 262.789062 Z M 136 87.289062 " clip-rule="nonzero"/></clipPath><clipPath id="f7d024e588"><path d="M 75.734375 34.804688 L 373.402344 34.804688 L 373.402344 332.472656 L 75.734375 332.472656 Z M 75.734375 34.804688 " clip-rule="nonzero"/></clipPath><clipPath id="9f5ebd3149"><path d="M 224.570312 34.804688 C 142.371094 34.804688 75.734375 101.441406 75.734375 183.640625 C 75.734375 265.839844 142.371094 332.472656 224.570312 332.472656 C 306.769531 332.472656 373.402344 265.839844 373.402344 183.640625 C 373.402344 101.441406 306.769531 34.804688 224.570312 34.804688 Z M 224.570312 34.804688 " clip-rule="nonzero"/></clipPath><clipPath id="a016055de3"><path d="M 137 204.304688 L 149 204.304688 L 149 208 L 137 208 Z M 137 204.304688 " clip-rule="nonzero"/></clipPath><clipPath id="1b8a053b52"><path d="M 0 204.304688 L 135 204.304688 L 135 220 L 0 220 Z M 0 204.304688 " clip-rule="nonzero"/></clipPath><clipPath id="d9cb4915a3"><path d="M 0 224 L 188.25 224 L 188.25 240 L 0 240 Z M 0 224 " clip-rule="nonzero"/></clipPath><clipPath id="66d1015d50"><path d="M 46 243 L 188.25 243 L 188.25 260 L 46 260 Z M 46 243 " clip-rule="nonzero"/></clipPath><clipPath id="07918c1141"><path d="M 0 263 L 188.25 263 L 188.25 279 L 0 279 Z M 0 263 " clip-rule="nonzero"/></clipPath><clipPath id="699304f3f8"><path d="M 180 292 L 188.25 292 L 188.25 297 L 180 297 Z M 180 292 " clip-rule="nonzero"/></clipPath><clipPath id="4151d14647"><path d="M 0 283 L 152 283 L 152 298.804688 L 0 298.804688 Z M 0 283 " clip-rule="nonzero"/></clipPath></defs><g mask="url(#f6c0672c4f)"><g transform="matrix(1, 0, 0, 1, 47, 6)"><g clip-path="url(#a74dd66b62)"><g clip-path="url(#7436c6bec5)"><g clip-path="url(#48d895a60c)"><path fill="#0000ff" d="M 28.734375 28.804688 L 326.410156 28.804688 L 326.410156 326.480469 L 28.734375 326.480469 Z M 28.734375 28.804688 " fill-opacity="1" fill-rule="nonzero"/></g></g><g clip-path="url(#64065ec33b)"><g clip-path="url(#b2a54d5245)"><path stroke-linecap="butt" transform="matrix(0.75, 0, 0, 0.75, 28.735168, 28.806502)" fill="none" stroke-linejoin="miter" d="M 198.446872 -0.00241895 C 88.847907 -0.00241895 -0.00105734 88.846545 -0.00105734 198.445511 C -0.00105734 308.044476 88.847907 396.888232 198.446872 396.888232 C 308.045838 396.888232 396.889594 308.044476 396.889594 198.445511 C 396.889594 88.846545 308.045838 -0.00241895 198.446872 -0.00241895 Z M 198.446872 -0.00241895 " stroke="#0000ff" stroke-width="16" stroke-opacity="1" stroke-miterlimit="4"/></g></g></g></g></g><path fill="#603127" d="M 261.984375 195.683594 C 271.402344 212.011719 285.773438 231.082031 307.460938 249.535156 C 311.625 253.074219 309.167969 259.863281 303.691406 259.863281 L 145.644531 259.863281 C 140.167969 259.863281 137.710938 253.074219 141.871094 249.535156 C 163.558594 231.082031 177.929688 212.011719 187.351562 195.683594 L 198.324219 180.886719 L 251.007812 180.886719 L 261.984375 195.683594 " fill-opacity="1" fill-rule="nonzero"/><path fill="#cfd0d0" d="M 215.886719 157.488281 L 215.886719 142.863281 C 215.886719 139.652344 213.246094 137.011719 210.03125 137.011719 C 207.347656 137.011719 204.875 136.109375 202.886719 134.578125 C 201.457031 133.503906 200.28125 132.042969 199.503906 130.398438 C 198.234375 130.898438 196.828125 131.164062 195.398438 131.164062 C 188.929688 131.164062 183.691406 125.929688 183.691406 119.460938 C 183.691406 113.898438 187.554688 109.257812 192.757812 108.046875 C 193.96875 102.851562 198.613281 98.988281 204.179688 98.988281 C 205.882812 98.988281 207.460938 99.34375 208.925781 100.003906 C 211.78125 94.222656 217.761719 90.210938 224.667969 90.210938 C 231.570312 90.210938 237.550781 94.222656 240.410156 100.003906 C 241.871094 99.34375 243.449219 98.988281 245.152344 98.988281 C 250.722656 98.988281 255.363281 102.851562 256.574219 108.046875 C 261.777344 109.257812 265.640625 113.898438 265.640625 119.460938 C 265.640625 125.929688 260.40625 131.164062 253.933594 131.164062 C 252.503906 131.164062 251.097656 130.898438 249.832031 130.398438 C 247.933594 134.328125 243.929688 137.011719 239.300781 137.011719 C 237.6875 137.011719 236.226562 137.652344 235.171875 138.738281 C 234.085938 139.789062 233.445312 141.25 233.445312 142.863281 L 233.445312 157.488281 L 215.886719 157.488281 " fill-opacity="1" fill-rule="nonzero"/><path fill="#e93841" d="M 256.394531 207.660156 C 252.378906 208.824219 248.117188 206.722656 246.089844 203.066406 C 243.222656 197.96875 240.765625 192.382812 238.808594 187.355469 C 237.6875 184.488281 233.445312 185.332031 233.445312 188.371094 L 233.445312 200.871094 C 233.445312 205.601562 229.878906 209.875 225.136719 210.136719 C 220.070312 210.402344 215.886719 206.367188 215.886719 201.363281 L 215.886719 188.371094 C 215.886719 185.332031 211.644531 184.488281 210.523438 187.355469 C 208.570312 192.382812 206.113281 197.96875 203.242188 203.066406 C 201.21875 206.722656 196.953125 208.824219 192.941406 207.660156 C 187.761719 206.105469 185.269531 200.484375 187.351562 195.683594 C 197.707031 177.722656 202.15625 163.074219 203.859375 156.082031 C 204.5 153.476562 206.84375 151.636719 209.5625 151.636719 L 239.769531 151.636719 C 242.492188 151.636719 244.835938 153.476562 245.472656 156.082031 C 247.179688 163.074219 251.625 177.722656 261.984375 195.683594 C 264.0625 200.484375 261.570312 206.105469 256.394531 207.660156 " fill-opacity="1" fill-rule="nonzero"/><g clip-path="url(#c384b524a6)"><path fill="#212223" d="M 210.03125 134.085938 C 208.089844 134.085938 206.238281 133.460938 204.660156 132.25 C 203.609375 131.460938 202.738281 130.375 202.132812 129.128906 C 201.46875 127.746094 199.847656 127.128906 198.417969 127.679688 C 197.503906 128.042969 196.449219 128.238281 195.398438 128.238281 C 190.550781 128.238281 186.617188 124.308594 186.617188 119.460938 C 186.617188 115.347656 189.417969 111.832031 193.421875 110.90625 C 194.519531 110.652344 195.363281 109.808594 195.617188 108.710938 C 196.542969 104.710938 200.0625 101.914062 204.179688 101.914062 C 205.4375 101.914062 206.589844 102.164062 207.699219 102.667969 C 209.140625 103.328125 210.84375 102.722656 211.542969 101.308594 C 214.035156 96.269531 219.066406 93.136719 224.667969 93.136719 C 230.269531 93.136719 235.300781 96.269531 237.792969 101.308594 C 238.488281 102.722656 240.191406 103.328125 241.632812 102.667969 C 242.742188 102.164062 243.898438 101.914062 245.152344 101.914062 C 249.269531 101.914062 252.792969 104.710938 253.71875 108.710938 C 253.96875 109.808594 254.816406 110.652344 255.914062 110.90625 C 259.914062 111.832031 262.714844 115.347656 262.714844 119.460938 C 262.714844 124.308594 258.78125 128.238281 253.933594 128.238281 C 252.882812 128.238281 251.832031 128.042969 250.917969 127.679688 C 249.5 127.128906 247.863281 127.757812 247.199219 129.128906 C 245.714844 132.191406 242.683594 134.085938 239.300781 134.085938 C 236.921875 134.085938 234.714844 135.011719 233.136719 136.636719 C 231.445312 138.28125 230.519531 140.484375 230.519531 142.863281 L 230.519531 148.710938 L 218.8125 148.710938 L 218.8125 142.863281 C 218.8125 138.019531 214.878906 134.085938 210.03125 134.085938 Z M 242.628906 156.789062 C 244.582031 164.855469 249.203125 179.574219 259.410156 197.226562 C 259.9375 198.675781 259.890625 200.277344 259.238281 201.671875 C 258.519531 203.226562 257.203125 204.34375 255.546875 204.835938 C 253.007812 205.589844 250.09375 204.242188 248.628906 201.636719 C 246.21875 197.316406 243.828125 192.152344 241.53125 186.28125 C 240.511719 183.710938 237.90625 182.269531 235.183594 182.773438 C 232.441406 183.289062 230.519531 185.59375 230.519531 188.382812 L 230.519531 200.871094 C 230.519531 204.195312 228.039062 207.042969 224.988281 207.203125 C 223.375 207.292969 221.820312 206.722656 220.632812 205.601562 C 219.464844 204.492188 218.8125 202.984375 218.8125 201.363281 L 218.8125 188.382812 C 218.8125 185.59375 216.890625 183.289062 214.148438 182.773438 C 211.4375 182.246094 208.820312 183.699219 207.816406 186.28125 C 205.503906 192.152344 203.117188 197.316406 200.703125 201.636719 C 199.242188 204.242188 196.324219 205.589844 193.785156 204.835938 C 192.128906 204.34375 190.8125 203.226562 190.09375 201.671875 C 189.441406 200.277344 189.398438 198.675781 189.921875 197.226562 C 200.132812 179.574219 204.75 164.855469 206.707031 156.78125 C 207.027344 155.476562 208.191406 154.5625 209.550781 154.5625 L 239.78125 154.5625 C 241.140625 154.5625 242.308594 155.476562 242.628906 156.789062 Z M 209.550781 148.710938 C 205.484375 148.710938 201.972656 151.464844 201.023438 155.410156 C 198.164062 167.199219 185.292969 208.6875 139.972656 247.316406 C 137.136719 249.738281 136.132812 253.578125 137.410156 257.074219 C 138.691406 260.546875 141.929688 262.789062 145.632812 262.789062 L 154.425781 262.789062 C 156.035156 262.789062 157.351562 261.472656 157.351562 259.863281 C 157.351562 258.25 156.035156 256.9375 154.425781 256.9375 L 145.632812 256.9375 C 143.757812 256.9375 143.070312 255.5 142.910156 255.050781 C 142.738281 254.59375 142.316406 253.019531 143.78125 251.761719 C 162.449219 235.847656 175.757812 219.597656 185.234375 204.894531 C 186.722656 207.542969 189.167969 209.566406 192.128906 210.445312 C 197.273438 211.964844 203.023438 209.464844 205.8125 204.492188 C 208.25 200.140625 210.648438 195.011719 212.960938 189.183594 L 212.960938 201.363281 C 212.960938 204.5625 214.285156 207.648438 216.605469 209.851562 C 218.800781 211.929688 221.648438 213.0625 224.65625 213.0625 C 224.871094 213.0625 225.078125 213.050781 225.296875 213.050781 C 231.503906 212.71875 236.375 207.371094 236.375 200.871094 L 236.375 189.183594 C 238.683594 194.988281 241.085938 200.140625 243.519531 204.492188 C 246.296875 209.453125 252.046875 211.964844 257.203125 210.445312 C 260.164062 209.566406 262.613281 207.542969 264.097656 204.894531 C 273.574219 219.597656 286.882812 235.847656 305.554688 251.761719 C 307.027344 253.019531 306.59375 254.59375 306.421875 255.050781 C 306.261719 255.5 305.585938 256.9375 303.703125 256.9375 L 166.132812 256.9375 C 164.519531 256.9375 163.203125 258.25 163.203125 259.863281 C 163.203125 261.472656 164.519531 262.789062 166.132812 262.789062 L 303.703125 262.789062 C 307.417969 262.789062 310.628906 260.546875 311.910156 257.074219 C 313.214844 253.578125 312.195312 249.738281 309.347656 247.316406 C 264.042969 208.6875 251.167969 167.199219 248.308594 155.410156 C 247.359375 151.464844 243.851562 148.710938 239.78125 148.710938 L 236.375 148.710938 L 236.375 142.863281 C 236.375 142.085938 236.671875 141.355469 237.265625 140.773438 C 237.792969 140.234375 238.523438 139.9375 239.300781 139.9375 C 244.023438 139.9375 248.46875 137.605469 251.191406 133.824219 C 252.082031 133.996094 253.007812 134.085938 253.933594 134.085938 C 262.007812 134.085938 268.570312 127.53125 268.570312 119.460938 C 268.570312 113.203125 264.679688 107.773438 258.929688 105.695312 C 256.851562 99.949219 251.417969 96.0625 245.152344 96.0625 C 243.988281 96.0625 242.84375 96.199219 241.746094 96.460938 C 237.972656 90.75 231.640625 87.289062 224.667969 87.289062 C 217.691406 87.289062 211.359375 90.75 207.585938 96.460938 C 206.488281 96.199219 205.34375 96.0625 204.179688 96.0625 C 197.914062 96.0625 192.484375 99.949219 190.402344 105.695312 C 184.652344 107.773438 180.765625 113.203125 180.765625 119.460938 C 180.765625 127.53125 187.328125 134.085938 195.398438 134.085938 C 196.324219 134.085938 197.238281 133.996094 198.132812 133.824219 C 198.976562 135.011719 199.984375 136.054688 201.117188 136.910156 C 203.710938 138.886719 206.796875 139.9375 210.03125 139.9375 C 211.644531 139.9375 212.960938 141.25 212.960938 142.863281 L 212.960938 148.710938 L 209.550781 148.710938 " fill-opacity="1" fill-rule="nonzero"/></g><path fill="#212223" d="M 180.765625 248.164062 C 181.335938 248.164062 181.898438 248.003906 182.398438 247.660156 C 183.027344 247.238281 197.902344 237.058594 204.007812 219.894531 C 204.554688 218.375 203.757812 216.695312 202.234375 216.160156 C 200.714844 215.609375 199.035156 216.410156 198.496094 217.929688 C 193.054688 233.242188 179.265625 242.722656 179.128906 242.816406 C 177.78125 243.71875 177.4375 245.546875 178.339844 246.882812 C 178.902344 247.707031 179.828125 248.164062 180.765625 248.164062 " fill-opacity="1" fill-rule="nonzero"/><path fill="#212223" d="M 266.933594 247.660156 C 267.4375 248.003906 267.996094 248.164062 268.570312 248.164062 C 269.507812 248.164062 270.433594 247.707031 270.992188 246.882812 C 271.894531 245.546875 271.550781 243.71875 270.203125 242.816406 C 270.066406 242.722656 256.277344 233.242188 250.835938 217.929688 C 250.300781 216.410156 248.617188 215.621094 247.097656 216.160156 C 245.578125 216.695312 244.777344 218.375 245.324219 219.894531 C 251.429688 237.058594 266.304688 247.238281 266.933594 247.660156 " fill-opacity="1" fill-rule="nonzero"/><path fill="#212223" d="M 227.59375 245.238281 L 227.59375 224.761719 C 227.59375 223.152344 226.277344 221.835938 224.667969 221.835938 C 223.054688 221.835938 221.738281 223.152344 221.738281 224.761719 L 221.738281 245.238281 C 221.738281 246.847656 223.054688 248.164062 224.667969 248.164062 C 226.277344 248.164062 227.59375 246.847656 227.59375 245.238281 " fill-opacity="1" fill-rule="nonzero"/><path fill="#212223" d="M 210.03125 110.6875 C 205.183594 110.6875 201.253906 114.617188 201.253906 119.460938 C 201.253906 121.074219 202.566406 122.386719 204.179688 122.386719 C 205.792969 122.386719 207.105469 121.074219 207.105469 119.460938 C 207.105469 117.851562 208.421875 116.539062 210.03125 116.539062 C 211.644531 116.539062 212.960938 115.222656 212.960938 113.613281 C 212.960938 112 211.644531 110.6875 210.03125 110.6875 " fill-opacity="1" fill-rule="nonzero"/><path fill="#212223" d="M 239.300781 116.539062 C 240.914062 116.539062 242.226562 117.851562 242.226562 119.460938 C 242.226562 121.074219 243.542969 122.386719 245.152344 122.386719 C 246.765625 122.386719 248.082031 121.074219 248.082031 119.460938 C 248.082031 114.617188 244.148438 110.6875 239.300781 110.6875 C 237.6875 110.6875 236.375 112 236.375 113.613281 C 236.375 115.222656 237.6875 116.539062 239.300781 116.539062 " fill-opacity="1" fill-rule="nonzero"/><path fill="#212223" d="M 221.738281 134.085938 C 223.351562 134.085938 224.667969 132.773438 224.667969 131.164062 C 224.667969 129.550781 225.980469 128.238281 227.59375 128.238281 C 229.207031 128.238281 230.519531 126.921875 230.519531 125.3125 C 230.519531 123.703125 229.207031 122.386719 227.59375 122.386719 C 222.746094 122.386719 218.8125 126.316406 218.8125 131.164062 C 218.8125 132.773438 220.128906 134.085938 221.738281 134.085938 " fill-opacity="1" fill-rule="nonzero"/><path fill="#212223" d="M 221.738281 107.761719 C 223.351562 107.761719 224.667969 109.078125 224.667969 110.6875 C 224.667969 112.296875 225.980469 113.613281 227.59375 113.613281 C 229.207031 113.613281 230.519531 112.296875 230.519531 110.6875 C 230.519531 105.84375 226.585938 101.914062 221.738281 101.914062 C 220.128906 101.914062 218.8125 103.226562 218.8125 104.835938 C 218.8125 106.449219 220.128906 107.761719 221.738281 107.761719 " fill-opacity="1" fill-rule="nonzero"/><g clip-path="url(#f7d024e588)"><g clip-path="url(#9f5ebd3149)"><path stroke-linecap="butt" transform="matrix(0.75, 0, 0, 0.75, 75.735168, 34.806502)" fill="none" stroke-linejoin="miter" d="M 198.446873 -0.00241895 C 88.847907 -0.00241895 -0.0010567 88.846545 -0.0010567 198.445511 C -0.0010567 308.044476 88.847907 396.888232 198.446873 396.888232 C 308.045839 396.888232 396.889594 308.044476 396.889594 198.445511 C 396.889594 88.846545 308.045839 -0.00241895 198.446873 -0.00241895 Z M 198.446873 -0.00241895 " stroke="#0000ff" stroke-width="16" stroke-opacity="1" stroke-miterlimit="4"/></g></g><g fill="#0000ff" fill-opacity="1"><g transform="translate(161.280421, 83.828556)"><g><path d="M 14.140625 -7.171875 C 13.617188 -6.953125 12.988281 -6.671875 12.25 -6.328125 C 11.519531 -5.992188 10.863281 -5.675781 10.28125 -5.375 L 1 -0.515625 L 0.203125 -1.84375 L 1.703125 -3.15625 C 1.703125 -3.269531 1.613281 -3.519531 1.4375 -3.90625 C 1.269531 -4.300781 1.035156 -4.804688 0.734375 -5.421875 C 0.441406 -6.035156 0.109375 -6.703125 -0.265625 -7.421875 L -2.328125 -11.375 C -2.722656 -12.125 -3.085938 -12.796875 -3.421875 -13.390625 C -3.753906 -13.992188 -4.03125 -14.472656 -4.25 -14.828125 C -4.476562 -15.191406 -4.632812 -15.398438 -4.71875 -15.453125 L -6.6875 -15 L -7.28125 -16.375 L 1.03125 -20.734375 C 1.394531 -20.921875 1.828125 -21.148438 2.328125 -21.421875 C 2.835938 -21.691406 3.332031 -21.972656 3.8125 -22.265625 C 4.300781 -22.554688 4.710938 -22.800781 5.046875 -23 L 7.859375 -19.375 L 6.40625 -18.34375 L 4.171875 -20.203125 C 3.910156 -20.128906 3.675781 -20.050781 3.46875 -19.96875 C 3.269531 -19.894531 3.0625 -19.800781 2.84375 -19.6875 L 0.796875 -18.625 C 0.453125 -18.4375 0.128906 -18.253906 -0.171875 -18.078125 C -0.484375 -17.910156 -0.726562 -17.753906 -0.90625 -17.609375 C -0.832031 -17.472656 -0.722656 -17.253906 -0.578125 -16.953125 C -0.441406 -16.660156 -0.257812 -16.285156 -0.03125 -15.828125 C 0.1875 -15.378906 0.457031 -14.847656 0.78125 -14.234375 L 3.734375 -8.5625 C 4.035156 -7.976562 4.304688 -7.46875 4.546875 -7.03125 C 4.796875 -6.59375 5.003906 -6.222656 5.171875 -5.921875 C 5.347656 -5.628906 5.472656 -5.40625 5.546875 -5.25 C 5.898438 -5.363281 6.257812 -5.503906 6.625 -5.671875 C 7 -5.835938 7.457031 -6.0625 8 -6.34375 L 9.421875 -7.09375 C 9.890625 -7.34375 10.234375 -7.53125 10.453125 -7.65625 C 10.679688 -7.78125 10.847656 -7.878906 10.953125 -7.953125 C 11.054688 -8.035156 11.164062 -8.125 11.28125 -8.21875 L 11.359375 -11.6875 L 13.0625 -12.1875 Z M 7.796875 -10.953125 L 6.578125 -12.625 C 6.441406 -12.570312 6.234375 -12.476562 5.953125 -12.34375 C 5.679688 -12.21875 5.367188 -12.0625 5.015625 -11.875 L 3.578125 -11.125 C 3.273438 -10.96875 2.988281 -10.804688 2.71875 -10.640625 C 2.445312 -10.472656 2.242188 -10.34375 2.109375 -10.25 L 1.09375 -12.171875 C 1.25 -12.222656 1.472656 -12.316406 1.765625 -12.453125 C 2.054688 -12.585938 2.351562 -12.734375 2.65625 -12.890625 L 4.09375 -13.640625 C 4.445312 -13.828125 4.753906 -13.992188 5.015625 -14.140625 C 5.285156 -14.296875 5.484375 -14.40625 5.609375 -14.46875 L 4.953125 -16.40625 L 6.4375 -17.1875 L 9.28125 -11.734375 Z M 7.796875 -10.953125 "/></g></g></g><g fill="#0000ff" fill-opacity="1"><g transform="translate(182.004457, 73.529195)"><g><path d="M 1.234375 -0.359375 L 0.71875 -1.796875 L 2.453125 -2.84375 C 2.421875 -2.945312 2.359375 -3.164062 2.265625 -3.5 C 2.179688 -3.84375 2.078125 -4.238281 1.953125 -4.6875 C 1.835938 -5.144531 1.71875 -5.609375 1.59375 -6.078125 C 1.46875 -6.546875 1.351562 -6.960938 1.25 -7.328125 L 0.015625 -11.609375 C -0.222656 -12.429688 -0.445312 -13.164062 -0.65625 -13.8125 C -0.863281 -14.46875 -1.039062 -14.992188 -1.1875 -15.390625 C -1.34375 -15.796875 -1.453125 -16.03125 -1.515625 -16.09375 L -3.515625 -16.03125 L -3.84375 -17.515625 L 3.734375 -19.6875 C 5.992188 -20.34375 7.757812 -20.46875 9.03125 -20.0625 C 10.3125 -19.664062 11.175781 -18.695312 11.625 -17.15625 C 11.894531 -16.195312 11.84375 -15.253906 11.46875 -14.328125 C 11.101562 -13.410156 10.472656 -12.585938 9.578125 -11.859375 C 8.679688 -11.140625 7.566406 -10.585938 6.234375 -10.203125 L 4.328125 -9.65625 L 3.828125 -11.34375 L 5.140625 -11.71875 C 6.117188 -12 6.816406 -12.523438 7.234375 -13.296875 C 7.660156 -14.066406 7.734375 -14.953125 7.453125 -15.953125 C 7.191406 -16.859375 6.742188 -17.476562 6.109375 -17.8125 C 5.472656 -18.15625 4.675781 -18.1875 3.71875 -17.90625 L 2.609375 -17.59375 C 2.609375 -17.53125 2.640625 -17.363281 2.703125 -17.09375 C 2.773438 -16.820312 2.867188 -16.472656 2.984375 -16.046875 C 3.109375 -15.628906 3.242188 -15.160156 3.390625 -14.640625 C 3.546875 -14.117188 3.707031 -13.566406 3.875 -12.984375 L 5.171875 -8.46875 C 5.316406 -7.96875 5.484375 -7.414062 5.671875 -6.8125 C 5.859375 -6.207031 6.03125 -5.644531 6.1875 -5.125 C 6.351562 -4.613281 6.484375 -4.25 6.578125 -4.03125 L 8.359375 -4 L 8.6875 -2.5 Z M 16.609375 -4.421875 C 15.515625 -4.109375 14.492188 -4 13.546875 -4.09375 C 12.597656 -4.195312 11.679688 -4.519531 10.796875 -5.0625 C 9.910156 -5.613281 9.039062 -6.382812 8.1875 -7.375 L 5.484375 -10.5 L 8.5 -12.203125 L 13.40625 -8.328125 C 13.96875 -7.890625 14.5 -7.53125 15 -7.25 C 15.507812 -6.96875 16.015625 -6.765625 16.515625 -6.640625 C 17.023438 -6.523438 17.535156 -6.46875 18.046875 -6.46875 L 18.40625 -5.109375 C 18.113281 -4.960938 17.820312 -4.832031 17.53125 -4.71875 C 17.238281 -4.613281 16.929688 -4.515625 16.609375 -4.421875 Z M 16.609375 -4.421875 "/></g></g></g><g fill="#0000ff" fill-opacity="1"><g transform="translate(205.507804, 67.214916)"><g><path d="M -0.078125 -17.9375 L 8.078125 -18.46875 L 8.28125 -16.953125 L 6.359375 -16.3125 C 6.347656 -16.101562 6.34375 -15.78125 6.34375 -15.34375 C 6.351562 -14.90625 6.367188 -14.375 6.390625 -13.75 C 6.410156 -13.125 6.445312 -12.40625 6.5 -11.59375 L 6.703125 -8.46875 C 6.785156 -7.289062 7.019531 -6.304688 7.40625 -5.515625 C 7.800781 -4.734375 8.335938 -4.160156 9.015625 -3.796875 C 9.691406 -3.441406 10.488281 -3.296875 11.40625 -3.359375 C 12.34375 -3.410156 13.109375 -3.648438 13.703125 -4.078125 C 14.296875 -4.515625 14.71875 -5.148438 14.96875 -5.984375 C 15.226562 -6.816406 15.316406 -7.84375 15.234375 -9.0625 L 15.078125 -11.625 C 15.015625 -12.550781 14.945312 -13.398438 14.875 -14.171875 C 14.800781 -14.941406 14.734375 -15.5625 14.671875 -16.03125 C 14.609375 -16.507812 14.554688 -16.78125 14.515625 -16.84375 L 12.34375 -17.21875 L 12.328125 -18.75 L 19.109375 -19.1875 L 19.3125 -17.671875 L 17.390625 -17.03125 C 17.367188 -16.96875 17.359375 -16.695312 17.359375 -16.21875 C 17.367188 -15.738281 17.390625 -15.113281 17.421875 -14.34375 C 17.453125 -13.570312 17.5 -12.722656 17.5625 -11.796875 L 17.75 -8.71875 C 17.863281 -7.113281 17.664062 -5.707031 17.15625 -4.5 C 16.644531 -3.289062 15.863281 -2.332031 14.8125 -1.625 C 13.769531 -0.925781 12.503906 -0.53125 11.015625 -0.4375 C 8.484375 -0.269531 6.488281 -0.816406 5.03125 -2.078125 C 3.582031 -3.335938 2.78125 -5.207031 2.625 -7.6875 L 2.375 -11.328125 C 2.320312 -12.179688 2.257812 -12.953125 2.1875 -13.640625 C 2.125 -14.335938 2.066406 -14.890625 2.015625 -15.296875 C 1.972656 -15.710938 1.941406 -15.953125 1.921875 -16.015625 L -0.0625 -16.40625 Z M -0.078125 -17.9375 "/></g></g></g><g fill="#0000ff" fill-opacity="1"><g transform="translate(232.19979, 66.236562)"><g><path d="M 1.265625 0.1875 L 1.390625 -1.34375 L 3.234375 -1.578125 C 3.316406 -1.648438 3.394531 -1.882812 3.46875 -2.28125 C 3.550781 -2.675781 3.648438 -3.195312 3.765625 -3.84375 C 3.878906 -4.5 3.992188 -5.234375 4.109375 -6.046875 L 4.84375 -10.875 C 4.945312 -11.644531 5.035156 -12.351562 5.109375 -13 C 5.179688 -13.644531 5.238281 -14.179688 5.28125 -14.609375 C 5.320312 -15.046875 5.316406 -15.300781 5.265625 -15.375 L 3.421875 -16.046875 L 3.71875 -17.53125 L 11.390625 -16.421875 C 13.867188 -16.066406 15.648438 -15.351562 16.734375 -14.28125 C 17.828125 -13.21875 18.253906 -11.851562 18.015625 -10.1875 C 17.847656 -9.070312 17.410156 -8.117188 16.703125 -7.328125 C 15.992188 -6.535156 15.054688 -5.957031 13.890625 -5.59375 C 12.722656 -5.238281 11.363281 -5.171875 9.8125 -5.390625 C 9.46875 -5.441406 9.125 -5.515625 8.78125 -5.609375 C 8.445312 -5.703125 8.132812 -5.796875 7.84375 -5.890625 L 8.140625 -7.96875 C 8.335938 -7.84375 8.601562 -7.71875 8.9375 -7.59375 C 9.28125 -7.46875 9.660156 -7.375 10.078125 -7.3125 C 11.035156 -7.175781 11.820312 -7.375 12.4375 -7.90625 C 13.050781 -8.4375 13.441406 -9.273438 13.609375 -10.421875 C 13.804688 -11.773438 13.613281 -12.804688 13.03125 -13.515625 C 12.457031 -14.234375 11.601562 -14.675781 10.46875 -14.84375 L 9.609375 -14.96875 C 9.585938 -14.8125 9.539062 -14.539062 9.46875 -14.15625 C 9.40625 -13.769531 9.320312 -13.257812 9.21875 -12.625 C 9.113281 -12 9 -11.222656 8.875 -10.296875 L 8.203125 -5.453125 C 8.085938 -4.640625 8 -3.90625 7.9375 -3.25 C 7.875 -2.59375 7.828125 -2.066406 7.796875 -1.671875 C 7.773438 -1.273438 7.769531 -1.035156 7.78125 -0.953125 L 10.140625 -0.125 L 9.828125 1.421875 Z M 1.265625 0.1875 "/></g></g></g><g fill="#0000ff" fill-opacity="1"><g transform="translate(254.662595, 69.950889)"><g><path d="M 22.5 -11.15625 L 21.359375 -5.84375 L 19.53125 -6.328125 L 19.546875 -10.03125 C 19.367188 -10.144531 19.175781 -10.242188 18.96875 -10.328125 C 18.757812 -10.421875 18.535156 -10.507812 18.296875 -10.59375 L 17.3125 -10.9375 C 17.132812 -11 16.9375 -11.066406 16.71875 -11.140625 C 16.5 -11.222656 16.328125 -11.265625 16.203125 -11.265625 C 16.171875 -11.148438 16.039062 -10.796875 15.8125 -10.203125 C 15.59375 -9.609375 15.332031 -8.898438 15.03125 -8.078125 C 14.726562 -7.265625 14.425781 -6.4375 14.125 -5.59375 L 13.1875 -2.9375 C 12.800781 -1.851562 12.460938 -0.878906 12.171875 -0.015625 C 11.890625 0.847656 11.675781 1.503906 11.53125 1.953125 L 13.890625 3.25 L 13.265625 4.703125 L 4.34375 1.546875 L 4.78125 0.03125 L 7.4375 0.5 C 7.59375 0.0625 7.832031 -0.582031 8.15625 -1.4375 C 8.488281 -2.289062 8.847656 -3.257812 9.234375 -4.34375 L 10.171875 -7 C 10.472656 -7.84375 10.765625 -8.675781 11.046875 -9.5 C 11.328125 -10.320312 11.570312 -11.03125 11.78125 -11.625 C 12 -12.21875 12.113281 -12.578125 12.125 -12.703125 C 12.039062 -12.785156 11.890625 -12.863281 11.671875 -12.9375 C 11.453125 -13.019531 11.253906 -13.09375 11.078125 -13.15625 L 10.078125 -13.515625 C 9.847656 -13.585938 9.609375 -13.660156 9.359375 -13.734375 C 9.117188 -13.816406 8.894531 -13.867188 8.6875 -13.890625 L 6.390625 -10.921875 L 4.671875 -11.734375 L 7.09375 -16.625 C 7.289062 -16.550781 7.5625 -16.441406 7.90625 -16.296875 C 8.257812 -16.160156 8.628906 -16.007812 9.015625 -15.84375 C 9.398438 -15.6875 9.773438 -15.535156 10.140625 -15.390625 C 10.515625 -15.253906 10.832031 -15.140625 11.09375 -15.046875 L 18.390625 -12.453125 C 18.660156 -12.359375 18.976562 -12.25 19.34375 -12.125 C 19.71875 -12.007812 20.109375 -11.890625 20.515625 -11.765625 C 20.921875 -11.648438 21.300781 -11.535156 21.65625 -11.421875 C 22.007812 -11.316406 22.289062 -11.226562 22.5 -11.15625 Z M 22.5 -11.15625 "/></g></g></g><g fill="#0000ff" fill-opacity="1"><g transform="translate(277.280103, 78.862056)"><g><path d="M 1 0.5625 L 1.671875 -0.8125 L 3.578125 -0.28125 C 3.671875 -0.351562 3.832031 -0.566406 4.0625 -0.921875 C 4.300781 -1.273438 4.597656 -1.742188 4.953125 -2.328125 C 5.304688 -2.921875 5.679688 -3.570312 6.078125 -4.28125 L 8.265625 -8.15625 C 8.679688 -8.90625 9.046875 -9.578125 9.359375 -10.171875 C 9.671875 -10.773438 9.921875 -11.273438 10.109375 -11.671875 C 10.304688 -12.066406 10.398438 -12.300781 10.390625 -12.375 L 8.953125 -13.75 L 9.765625 -15.03125 L 16.921875 -11 L 16.265625 -9.625 L 14.328125 -10.171875 C 14.253906 -10.117188 14.09375 -9.910156 13.84375 -9.546875 C 13.601562 -9.179688 13.3125 -8.703125 12.96875 -8.109375 C 12.625 -7.523438 12.25 -6.867188 11.84375 -6.140625 L 9.65625 -2.265625 C 9.269531 -1.578125 8.914062 -0.9375 8.59375 -0.34375 C 8.28125 0.25 8.03125 0.742188 7.84375 1.140625 C 7.65625 1.535156 7.546875 1.796875 7.515625 1.921875 L 8.984375 3.3125 L 8.15625 4.59375 Z M 1 0.5625 "/></g></g></g><g fill="#0000ff" fill-opacity="1"><g transform="translate(291.31538, 86.760213)"><g><path d="M 8.234375 7.234375 C 6.804688 6.046875 5.78125 4.6875 5.15625 3.15625 C 4.539062 1.625 4.347656 0.078125 4.578125 -1.484375 C 4.816406 -3.046875 5.492188 -4.5 6.609375 -5.84375 C 7.785156 -7.25 9.144531 -8.234375 10.6875 -8.796875 C 12.226562 -9.367188 13.820312 -9.492188 15.46875 -9.171875 C 17.113281 -8.859375 18.65625 -8.101562 20.09375 -6.90625 C 21.476562 -5.75 22.457031 -4.4375 23.03125 -2.96875 C 23.601562 -1.5 23.765625 0.00390625 23.515625 1.546875 C 23.273438 3.085938 22.582031 4.546875 21.4375 5.921875 C 20.4375 7.117188 19.332031 7.984375 18.125 8.515625 C 16.914062 9.046875 15.707031 9.320312 14.5 9.34375 C 13.289062 9.363281 12.140625 9.179688 11.046875 8.796875 C 9.960938 8.410156 9.023438 7.890625 8.234375 7.234375 Z M 9.921875 5.640625 C 10.640625 6.234375 11.394531 6.539062 12.1875 6.5625 C 12.988281 6.59375 13.816406 6.335938 14.671875 5.796875 C 15.523438 5.265625 16.390625 4.472656 17.265625 3.421875 C 18.265625 2.222656 18.976562 1.050781 19.40625 -0.09375 C 19.832031 -1.25 19.976562 -2.296875 19.84375 -3.234375 C 19.707031 -4.179688 19.265625 -4.96875 18.515625 -5.59375 C 17.429688 -6.488281 16.21875 -6.75 14.875 -6.375 C 13.53125 -6 12.203125 -5.019531 10.890625 -3.4375 C 9.921875 -2.28125 9.238281 -1.128906 8.84375 0.015625 C 8.445312 1.171875 8.332031 2.234375 8.5 3.203125 C 8.675781 4.179688 9.148438 4.992188 9.921875 5.640625 Z M 9.921875 5.640625 "/></g></g></g><g fill="#0000ff" fill-opacity="1"><g transform="translate(311.494069, 104.363794)"><g><path d="M 14.078125 9.171875 L 17.78125 6.359375 C 18.582031 5.742188 19.296875 5.1875 19.921875 4.6875 C 20.554688 4.195312 21.066406 3.785156 21.453125 3.453125 C 21.835938 3.117188 22.0625 2.90625 22.125 2.8125 L 21.21875 0.8125 L 22.46875 -0.03125 L 26.40625 5.140625 L 25.265625 6.140625 L 23.6875 4.875 C 23.59375 4.925781 23.335938 5.085938 22.921875 5.359375 C 22.503906 5.640625 21.96875 6.015625 21.3125 6.484375 C 20.65625 6.960938 19.925781 7.507812 19.125 8.125 L 14.53125 11.625 C 13.769531 12.207031 13.101562 12.710938 12.53125 13.140625 C 11.957031 13.578125 11.382812 14.015625 10.8125 14.453125 L 9.6875 12.96875 L 13.546875 -5.375 L 14.515625 -4.09375 L 9.6875 -0.421875 C 8.8125 0.242188 8.046875 0.84375 7.390625 1.375 C 6.734375 1.90625 6.207031 2.335938 5.8125 2.671875 C 5.414062 3.015625 5.1875 3.253906 5.125 3.390625 L 6 5.359375 L 4.734375 6.21875 L 0.734375 0.96875 L 1.90625 -0.03125 L 3.453125 1.203125 C 3.585938 1.148438 3.878906 0.972656 4.328125 0.671875 C 4.773438 0.367188 5.347656 -0.0351562 6.046875 -0.546875 C 6.753906 -1.054688 7.507812 -1.617188 8.3125 -2.234375 L 11.546875 -4.6875 C 11.972656 -5.019531 12.394531 -5.363281 12.8125 -5.71875 C 13.226562 -6.082031 13.585938 -6.394531 13.890625 -6.65625 C 14.191406 -6.925781 14.390625 -7.109375 14.484375 -7.203125 L 13.71875 -9.03125 L 14.96875 -9.875 L 17.890625 -6.046875 L 14.828125 10.15625 Z M 14.078125 9.171875 "/></g></g></g><g fill="#0000ff" fill-opacity="1"><g transform="translate(326.951345, 126.442921)"><g/></g></g><g fill="#0000ff" fill-opacity="1"><g transform="translate(332.511094, 136.923868)"><g><path d="M 5.078125 15.03125 C 4.921875 14.476562 4.726562 13.8125 4.5 13.03125 C 4.28125 12.257812 4.0625 11.566406 3.84375 10.953125 L 0.375 1.0625 L 1.78125 0.46875 L 2.890625 2.140625 C 3.003906 2.148438 3.265625 2.097656 3.671875 1.984375 C 4.085938 1.878906 4.617188 1.722656 5.265625 1.515625 C 5.910156 1.304688 6.617188 1.066406 7.390625 0.796875 L 11.59375 -0.6875 C 12.394531 -0.96875 13.113281 -1.226562 13.75 -1.46875 C 14.394531 -1.707031 14.910156 -1.910156 15.296875 -2.078125 C 15.691406 -2.253906 15.914062 -2.378906 15.96875 -2.453125 L 15.796875 -4.453125 L 17.25 -4.875 L 20.359375 3.984375 C 20.492188 4.367188 20.660156 4.832031 20.859375 5.375 C 21.066406 5.914062 21.28125 6.445312 21.5 6.96875 C 21.71875 7.488281 21.898438 7.925781 22.046875 8.28125 L 18.046875 10.546875 L 17.25 8.96875 L 19.390625 7.015625 C 19.367188 6.742188 19.332031 6.503906 19.28125 6.296875 C 19.226562 6.097656 19.160156 5.878906 19.078125 5.640625 L 18.3125 3.453125 C 18.1875 3.085938 18.054688 2.738281 17.921875 2.40625 C 17.796875 2.082031 17.675781 1.816406 17.5625 1.609375 C 17.414062 1.660156 17.179688 1.738281 16.859375 1.84375 C 16.546875 1.945312 16.148438 2.078125 15.671875 2.234375 C 15.191406 2.390625 14.625 2.582031 13.96875 2.8125 L 7.9375 4.9375 C 7.3125 5.15625 6.765625 5.351562 6.296875 5.53125 C 5.828125 5.707031 5.4375 5.851562 5.125 5.96875 C 4.8125 6.082031 4.566406 6.171875 4.390625 6.234375 C 4.453125 6.597656 4.539062 6.972656 4.65625 7.359375 C 4.769531 7.753906 4.929688 8.242188 5.140625 8.828125 L 5.671875 10.34375 C 5.847656 10.84375 5.984375 11.210938 6.078125 11.453125 C 6.171875 11.691406 6.25 11.867188 6.3125 11.984375 C 6.375 12.097656 6.441406 12.222656 6.515625 12.359375 L 9.9375 12.921875 L 10.1875 14.671875 Z M 9.71875 9.296875 L 11.5625 8.3125 C 11.519531 8.175781 11.453125 7.960938 11.359375 7.671875 C 11.273438 7.378906 11.164062 7.039062 11.03125 6.65625 L 10.5 5.140625 C 10.382812 4.816406 10.265625 4.503906 10.140625 4.203125 C 10.023438 3.910156 9.925781 3.691406 9.84375 3.546875 L 11.890625 2.828125 C 11.929688 2.992188 11.992188 3.226562 12.078125 3.53125 C 12.160156 3.84375 12.257812 4.160156 12.375 4.484375 L 12.90625 6 C 13.039062 6.382812 13.160156 6.71875 13.265625 7 C 13.378906 7.28125 13.460938 7.488281 13.515625 7.625 L 15.53125 7.25 L 16.09375 8.828125 L 10.28125 10.875 Z M 9.71875 9.296875 "/></g></g></g><g fill="#0000ff" fill-opacity="1"><g transform="translate(339.71061, 158.931277)"><g><path d="M 2.546875 18.25 L 1.40625 10.09375 L 2.921875 9.78125 L 3.6875 11.59375 L 8.171875 7.46875 L 9.6875 5.984375 L 16.0625 0.09375 L 16.328125 -1.5 L 17.84375 -1.640625 L 18.921875 6.09375 L 17.4375 6.40625 L 16.734375 4.984375 L 13.203125 8.28125 L 11.703125 9.65625 L 4.375 16.515625 L 4.078125 18.109375 Z M 17.5 10.453125 L 17.765625 8.8125 L 19.28125 8.6875 L 20.09375 14.484375 L 18.609375 14.78125 L 17.90625 13.3125 L 11.703125 9.65625 L 8.171875 7.46875 L 2.734375 4.765625 L 2.5 6.796875 L 0.96875 6.921875 L 0.109375 0.734375 L 1.609375 0.421875 L 2.328125 1.890625 L 9.6875 5.984375 L 13.203125 8.28125 Z M 17.5 10.453125 "/></g></g></g><g fill="#0000ff" fill-opacity="1"><g transform="translate(342.442096, 182.696447)"><g><path d="M -0.078125 1.28125 L 1.46875 1.28125 L 1.84375 3.09375 C 1.925781 3.164062 2.164062 3.222656 2.5625 3.265625 C 2.96875 3.304688 3.492188 3.359375 4.140625 3.421875 C 4.796875 3.484375 5.535156 3.535156 6.359375 3.578125 L 11.265625 3.90625 C 12.035156 3.945312 12.742188 3.972656 13.390625 3.984375 C 14.035156 4.003906 14.570312 4.015625 15 4.015625 C 15.425781 4.023438 15.679688 4 15.765625 3.9375 L 16.28125 2.046875 L 17.796875 2.234375 L 17.34375 9.96875 C 17.195312 12.46875 16.632812 14.300781 15.65625 15.46875 C 14.6875 16.644531 13.363281 17.179688 11.6875 17.078125 C 10.5625 17.015625 9.570312 16.660156 8.71875 16.015625 C 7.863281 15.378906 7.207031 14.492188 6.75 13.359375 C 6.289062 12.222656 6.109375 10.875 6.203125 9.3125 C 6.222656 8.96875 6.265625 8.625 6.328125 8.28125 C 6.390625 7.9375 6.457031 7.613281 6.53125 7.3125 L 8.625 7.4375 C 8.519531 7.644531 8.421875 7.921875 8.328125 8.265625 C 8.234375 8.609375 8.175781 8.992188 8.15625 9.421875 C 8.09375 10.390625 8.347656 11.15625 8.921875 11.71875 C 9.503906 12.289062 10.375 12.613281 11.53125 12.6875 C 12.882812 12.757812 13.894531 12.476562 14.5625 11.84375 C 15.238281 11.207031 15.609375 10.3125 15.671875 9.15625 L 15.734375 8.296875 C 15.566406 8.285156 15.289062 8.265625 14.90625 8.234375 C 14.519531 8.203125 14.007812 8.160156 13.375 8.109375 C 12.738281 8.066406 11.957031 8.019531 11.03125 7.96875 L 6.125 7.703125 C 5.300781 7.660156 4.5625 7.632812 3.90625 7.625 C 3.25 7.613281 2.722656 7.613281 2.328125 7.625 C 1.929688 7.632812 1.691406 7.648438 1.609375 7.671875 L 1 10.109375 L -0.578125 9.921875 Z M -0.078125 1.28125 "/></g></g></g><g fill="#0000ff" fill-opacity="1"><g transform="translate(340.607827, 205.417679)"><g><path d="M -4.140625 15.3125 C -3.960938 14.769531 -3.75 14.113281 -3.5 13.34375 C -3.257812 12.570312 -3.0625 11.867188 -2.90625 11.234375 L -0.28125 1.09375 L 1.234375 1.375 L 1.203125 3.390625 C 1.296875 3.460938 1.539062 3.566406 1.9375 3.703125 C 2.34375 3.835938 2.875 4 3.53125 4.1875 C 4.1875 4.382812 4.90625 4.582031 5.6875 4.78125 L 10 5.890625 C 10.832031 6.109375 11.582031 6.289062 12.25 6.4375 C 12.914062 6.59375 13.457031 6.707031 13.875 6.78125 C 14.289062 6.851562 14.546875 6.878906 14.640625 6.859375 L 15.609375 5.09375 L 17.046875 5.5625 L 14.703125 14.65625 C 14.597656 15.039062 14.476562 15.515625 14.34375 16.078125 C 14.207031 16.640625 14.082031 17.195312 13.96875 17.75 C 13.851562 18.300781 13.757812 18.765625 13.6875 19.140625 L 9.125 18.8125 L 9.328125 17.046875 L 12.203125 16.625 C 12.328125 16.382812 12.425781 16.164062 12.5 15.96875 C 12.570312 15.769531 12.640625 15.546875 12.703125 15.296875 L 13.28125 13.0625 C 13.375 12.6875 13.457031 12.320312 13.53125 11.96875 C 13.613281 11.625 13.664062 11.335938 13.6875 11.109375 C 13.539062 11.066406 13.304688 11 12.984375 10.90625 C 12.671875 10.820312 12.269531 10.710938 11.78125 10.578125 C 11.300781 10.441406 10.722656 10.285156 10.046875 10.109375 L 3.859375 8.515625 C 3.222656 8.347656 2.65625 8.207031 2.15625 8.09375 C 1.664062 7.976562 1.253906 7.878906 0.921875 7.796875 C 0.597656 7.722656 0.351562 7.664062 0.1875 7.625 C 0.03125 7.96875 -0.109375 8.332031 -0.234375 8.71875 C -0.359375 9.113281 -0.492188 9.609375 -0.640625 10.203125 L -1.046875 11.75 C -1.179688 12.269531 -1.273438 12.648438 -1.328125 12.890625 C -1.378906 13.140625 -1.410156 13.328125 -1.421875 13.453125 C -1.429688 13.585938 -1.445312 13.734375 -1.46875 13.890625 L 1.078125 16.265625 L 0.296875 17.859375 Z M 2.90625 13.125 L 4.953125 13.328125 C 5.015625 13.210938 5.085938 13.003906 5.171875 12.703125 C 5.253906 12.410156 5.347656 12.066406 5.453125 11.671875 L 5.859375 10.109375 C 5.941406 9.773438 6.007812 9.453125 6.0625 9.140625 C 6.125 8.828125 6.171875 8.59375 6.203125 8.4375 L 8.296875 8.96875 C 8.234375 9.125 8.148438 9.351562 8.046875 9.65625 C 7.953125 9.957031 7.863281 10.273438 7.78125 10.609375 L 7.375 12.171875 C 7.269531 12.566406 7.1875 12.910156 7.125 13.203125 C 7.0625 13.503906 7.007812 13.71875 6.96875 13.84375 L 8.859375 14.671875 L 8.453125 16.28125 L 2.5 14.734375 Z M 2.90625 13.125 "/></g></g></g><g fill="#0000ff" fill-opacity="1"><g transform="translate(334.364243, 227.700268)"><g><path d="M -0.5625 1.15625 L 0.859375 1.734375 L 0.46875 3.71875 C 0.570312 3.769531 0.773438 3.875 1.078125 4.03125 C 1.390625 4.195312 1.753906 4.382812 2.171875 4.59375 C 2.585938 4.8125 3.007812 5.03125 3.4375 5.25 C 3.863281 5.476562 4.253906 5.675781 4.609375 5.84375 L 8.609375 7.796875 C 9.378906 8.171875 10.070312 8.492188 10.6875 8.765625 C 11.3125 9.046875 11.820312 9.265625 12.21875 9.421875 C 12.625 9.585938 12.867188 9.671875 12.953125 9.671875 L 14.25 8.125 L 15.578125 8.875 L 12.109375 15.96875 C 11.085938 18.070312 10 19.460938 8.84375 20.140625 C 7.695312 20.828125 6.398438 20.820312 4.953125 20.125 C 4.054688 19.6875 3.390625 19.019531 2.953125 18.125 C 2.515625 17.226562 2.328125 16.203125 2.390625 15.046875 C 2.460938 13.898438 2.800781 12.703125 3.40625 11.453125 L 4.28125 9.671875 L 5.859375 10.453125 L 5.25 11.6875 C 4.8125 12.59375 4.734375 13.457031 5.015625 14.28125 C 5.296875 15.113281 5.90625 15.757812 6.84375 16.21875 C 7.695312 16.632812 8.460938 16.71875 9.140625 16.46875 C 9.816406 16.226562 10.375 15.660156 10.8125 14.765625 L 11.3125 13.71875 C 11.269531 13.675781 11.125 13.585938 10.875 13.453125 C 10.625 13.316406 10.300781 13.15625 9.90625 12.96875 C 9.519531 12.78125 9.082031 12.566406 8.59375 12.328125 C 8.101562 12.085938 7.585938 11.835938 7.046875 11.578125 L 2.828125 9.515625 C 2.359375 9.285156 1.835938 9.035156 1.265625 8.765625 C 0.691406 8.503906 0.15625 8.257812 -0.34375 8.03125 C -0.84375 7.8125 -1.195312 7.660156 -1.40625 7.578125 L -2.625 8.890625 L -3.96875 8.140625 Z M -7.859375 15.296875 C -7.359375 14.273438 -6.75 13.445312 -6.03125 12.8125 C -5.320312 12.175781 -4.46875 11.710938 -3.46875 11.421875 C -2.46875 11.128906 -1.316406 10.992188 -0.015625 11.015625 L 4.125 11.09375 L 3.34375 14.46875 L -2.796875 15.53125 C -3.503906 15.664062 -4.128906 15.820312 -4.671875 16 C -5.222656 16.1875 -5.707031 16.425781 -6.125 16.71875 C -6.550781 17.007812 -6.941406 17.347656 -7.296875 17.734375 L -8.546875 17.09375 C -8.453125 16.78125 -8.347656 16.476562 -8.234375 16.1875 C -8.128906 15.894531 -8.003906 15.597656 -7.859375 15.296875 Z M -7.859375 15.296875 "/></g></g></g><g fill="#0000ff" fill-opacity="1"><g transform="translate(323.168762, 249.391286)"><g><path d="M 3.59375 24.859375 L -1.09375 22.109375 L -0.0625 20.515625 L 3.4375 21.703125 C 3.601562 21.566406 3.757812 21.410156 3.90625 21.234375 C 4.050781 21.066406 4.203125 20.878906 4.359375 20.671875 L 5 19.859375 C 5.113281 19.710938 5.238281 19.546875 5.375 19.359375 C 5.519531 19.171875 5.613281 19.015625 5.65625 18.890625 C 5.5625 18.828125 5.265625 18.597656 4.765625 18.203125 C 4.273438 17.816406 3.6875 17.347656 3 16.796875 C 2.3125 16.253906 1.613281 15.707031 0.90625 15.15625 L -1.328125 13.4375 C -2.234375 12.726562 -3.050781 12.101562 -3.78125 11.5625 C -4.507812 11.019531 -5.066406 10.617188 -5.453125 10.359375 L -7.421875 12.1875 L -8.609375 11.140625 L -2.8125 3.640625 L -1.515625 4.546875 L -2.796875 6.90625 C -2.421875 7.195312 -1.878906 7.628906 -1.171875 8.203125 C -0.472656 8.773438 0.328125 9.414062 1.234375 10.125 L 3.46875 11.84375 C 4.175781 12.394531 4.878906 12.9375 5.578125 13.46875 C 6.273438 14 6.875 14.457031 7.375 14.84375 C 7.875 15.226562 8.179688 15.441406 8.296875 15.484375 C 8.390625 15.421875 8.507812 15.296875 8.65625 15.109375 C 8.800781 14.929688 8.929688 14.765625 9.046875 14.609375 L 9.703125 13.78125 C 9.847656 13.582031 9.992188 13.378906 10.140625 13.171875 C 10.285156 12.972656 10.40625 12.773438 10.5 12.578125 L 8.390625 9.484375 L 9.6875 8.109375 L 13.59375 11.921875 C 13.46875 12.085938 13.28125 12.3125 13.03125 12.59375 C 12.789062 12.882812 12.53125 13.1875 12.25 13.5 C 11.976562 13.8125 11.71875 14.117188 11.46875 14.421875 C 11.21875 14.734375 11.007812 15.003906 10.84375 15.234375 L 6.09375 21.359375 C 5.925781 21.578125 5.726562 21.84375 5.5 22.15625 C 5.269531 22.46875 5.035156 22.800781 4.796875 23.15625 C 4.554688 23.507812 4.328125 23.835938 4.109375 24.140625 C 3.898438 24.441406 3.726562 24.679688 3.59375 24.859375 Z M 3.59375 24.859375 "/></g></g></g><path fill="#0000ff" d="M 163.890625 211.800781 C 163.785156 211.800781 163.679688 211.785156 163.574219 211.757812 L 157.457031 210.191406 C 156.765625 210.015625 156.351562 209.316406 156.527344 208.625 C 156.703125 207.933594 157.398438 207.515625 158.09375 207.695312 L 164.210938 209.261719 C 164.902344 209.4375 165.316406 210.140625 165.140625 210.832031 C 164.992188 211.414062 164.46875 211.800781 163.890625 211.800781 Z M 163.890625 211.800781 " fill-opacity="1" fill-rule="nonzero"/><g clip-path="url(#a016055de3)"><path fill="#0000ff" d="M 147.035156 207.9375 C 146.976562 207.9375 146.917969 207.933594 146.859375 207.925781 C 144.433594 207.589844 141.828125 207.335938 139.113281 207.179688 C 138.402344 207.136719 137.859375 206.527344 137.902344 205.816406 C 137.941406 205.105469 138.542969 204.578125 139.261719 204.605469 C 142.046875 204.769531 144.71875 205.027344 147.214844 205.375 C 147.917969 205.472656 148.410156 206.121094 148.3125 206.828125 C 148.222656 207.472656 147.667969 207.9375 147.035156 207.9375 Z M 147.035156 207.9375 " fill-opacity="1" fill-rule="nonzero"/></g><path fill="#0000ff" d="M 180.058594 215.9375 C 179.953125 215.9375 179.847656 215.921875 179.738281 215.894531 L 173.808594 214.378906 C 173.121094 214.203125 172.703125 213.5 172.882812 212.808594 C 173.058594 212.121094 173.753906 211.703125 174.449219 211.882812 L 180.378906 213.398438 C 181.070312 213.574219 181.484375 214.277344 181.308594 214.96875 C 181.160156 215.550781 180.636719 215.9375 180.058594 215.9375 Z M 180.058594 215.9375 " fill-opacity="1" fill-rule="nonzero"/><g clip-path="url(#1b8a053b52)"><path fill="#0000ff" d="M 55.949219 219.953125 C 47.9375 219.953125 39.929688 219.171875 33.828125 217.613281 L 1.121094 209.242188 C 0.429688 209.066406 0.015625 208.363281 0.191406 207.675781 C 0.367188 206.984375 1.066406 206.566406 1.757812 206.746094 L 34.46875 215.117188 C 46.316406 218.148438 65.589844 218.148438 77.4375 215.117188 L 110.140625 206.746094 C 116.277344 205.175781 124.441406 204.351562 133.140625 204.40625 C 133.851562 204.414062 134.425781 204.996094 134.417969 205.707031 C 134.414062 206.414062 133.839844 206.984375 133.128906 206.984375 C 133.128906 206.984375 133.125 206.984375 133.121094 206.984375 C 124.78125 206.917969 116.617188 207.75 110.777344 209.242188 L 78.074219 217.613281 C 71.972656 219.171875 63.960938 219.953125 55.949219 219.953125 Z M 55.949219 219.953125 " fill-opacity="1" fill-rule="nonzero"/></g><g clip-path="url(#d9cb4915a3)"><path fill="#0000ff" d="M 55.949219 239.617188 C 47.9375 239.617188 39.929688 238.835938 33.828125 237.277344 L 1.121094 228.90625 C 0.429688 228.730469 0.015625 228.027344 0.191406 227.335938 C 0.367188 226.648438 1.066406 226.230469 1.757812 226.410156 L 34.46875 234.777344 C 46.316406 237.8125 65.589844 237.8125 77.4375 234.777344 L 110.140625 226.410156 C 122.339844 223.285156 142.183594 223.285156 154.382812 226.410156 L 187.085938 234.777344 C 187.777344 234.953125 188.191406 235.65625 188.015625 236.347656 C 187.839844 237.035156 187.136719 237.453125 186.445312 237.273438 L 153.742188 228.90625 C 141.898438 225.875 122.625 225.875 110.777344 228.90625 L 78.074219 237.273438 C 71.976562 238.835938 63.960938 239.617188 55.949219 239.617188 Z M 55.949219 239.617188 " fill-opacity="1" fill-rule="nonzero"/></g><g clip-path="url(#66d1015d50)"><path fill="#0000ff" d="M 55.90625 259.277344 C 53.1875 259.277344 50.449219 259.1875 47.761719 259.003906 C 47.050781 258.953125 46.515625 258.339844 46.566406 257.628906 C 46.613281 256.917969 47.222656 256.382812 47.941406 256.429688 C 58.492188 257.15625 69.792969 256.394531 77.433594 254.441406 L 110.140625 246.070312 C 122.335938 242.949219 142.183594 242.949219 154.382812 246.070312 L 187.085938 254.441406 C 187.777344 254.617188 188.191406 255.320312 188.015625 256.007812 C 187.839844 256.699219 187.136719 257.117188 186.445312 256.9375 L 153.742188 248.566406 C 141.898438 245.535156 122.621094 245.535156 110.777344 248.566406 L 78.074219 256.9375 C 72.148438 258.453125 64.117188 259.277344 55.90625 259.277344 Z M 55.90625 259.277344 " fill-opacity="1" fill-rule="nonzero"/></g><path fill="#0000ff" d="M 30.292969 255.992188 C 30.1875 255.992188 30.082031 255.980469 29.972656 255.953125 L 19.027344 253.148438 C 18.335938 252.972656 17.921875 252.273438 18.097656 251.582031 C 18.273438 250.894531 18.972656 250.472656 19.667969 250.652344 L 30.613281 253.457031 C 31.304688 253.632812 31.71875 254.332031 31.542969 255.023438 C 31.394531 255.605469 30.871094 255.992188 30.292969 255.992188 Z M 30.292969 255.992188 " fill-opacity="1" fill-rule="nonzero"/><path fill="#0000ff" d="M 7.789062 250.234375 C 7.683594 250.234375 7.578125 250.21875 7.46875 250.191406 L 1.121094 248.566406 C 0.429688 248.390625 0.015625 247.6875 0.191406 247 C 0.367188 246.308594 1.066406 245.890625 1.757812 246.070312 L 8.109375 247.695312 C 8.800781 247.871094 9.214844 248.574219 9.039062 249.265625 C 8.886719 249.847656 8.363281 250.234375 7.789062 250.234375 Z M 7.789062 250.234375 " fill-opacity="1" fill-rule="nonzero"/><g clip-path="url(#07918c1141)"><path fill="#0000ff" d="M 55.953125 278.941406 C 47.941406 278.941406 39.929688 278.160156 33.828125 276.601562 L 1.121094 268.230469 C 0.429688 268.054688 0.015625 267.351562 0.191406 266.664062 C 0.367188 265.972656 1.066406 265.554688 1.757812 265.734375 L 34.46875 274.105469 C 46.316406 277.136719 65.589844 277.136719 77.4375 274.105469 L 110.140625 265.734375 C 122.339844 262.613281 142.183594 262.613281 154.382812 265.734375 L 187.085938 274.105469 C 187.777344 274.28125 188.191406 274.980469 188.015625 275.671875 C 187.839844 276.359375 187.140625 276.777344 186.445312 276.601562 L 153.742188 268.230469 C 141.898438 265.199219 122.625 265.199219 110.777344 268.230469 L 78.074219 276.601562 C 71.976562 278.160156 63.964844 278.941406 55.953125 278.941406 Z M 55.953125 278.941406 " fill-opacity="1" fill-rule="nonzero"/></g><g clip-path="url(#699304f3f8)"><path fill="#0000ff" d="M 186.765625 296.304688 C 186.660156 296.304688 186.554688 296.289062 186.445312 296.261719 L 181.0625 294.882812 C 180.375 294.707031 179.957031 294.007812 180.132812 293.316406 C 180.3125 292.628906 181.007812 292.207031 181.703125 292.386719 L 187.085938 293.765625 C 187.777344 293.941406 188.191406 294.644531 188.015625 295.335938 C 187.867188 295.917969 187.34375 296.304688 186.765625 296.304688 Z M 186.765625 296.304688 " fill-opacity="1" fill-rule="nonzero"/></g><path fill="#0000ff" d="M 175.074219 293.3125 C 174.96875 293.3125 174.863281 293.296875 174.753906 293.269531 L 159.085938 289.261719 C 158.398438 289.085938 157.984375 288.382812 158.160156 287.691406 C 158.335938 287.003906 159.03125 286.585938 159.726562 286.765625 L 175.394531 290.773438 C 176.082031 290.949219 176.5 291.652344 176.324219 292.34375 C 176.171875 292.925781 175.648438 293.3125 175.074219 293.3125 Z M 175.074219 293.3125 " fill-opacity="1" fill-rule="nonzero"/><g clip-path="url(#4151d14647)"><path fill="#0000ff" d="M 55.949219 298.605469 C 47.9375 298.605469 39.929688 297.824219 33.828125 296.261719 L 1.121094 287.894531 C 0.429688 287.71875 0.015625 287.015625 0.191406 286.324219 C 0.367188 285.636719 1.066406 285.214844 1.757812 285.398438 L 34.46875 293.765625 C 46.316406 296.796875 65.589844 296.796875 77.4375 293.765625 L 110.140625 285.398438 C 120.964844 282.625 137.875 282.257812 150.347656 284.523438 C 151.046875 284.652344 151.511719 285.320312 151.382812 286.023438 C 151.257812 286.722656 150.589844 287.191406 149.886719 287.058594 C 137.929688 284.890625 121.117188 285.246094 110.777344 287.894531 L 78.074219 296.261719 C 71.972656 297.824219 63.960938 298.605469 55.949219 298.605469 Z M 55.949219 298.605469 " fill-opacity="1" fill-rule="nonzero"/></g></svg>