<svg xmlns="http://www.w3.org/2000/svg" xmlns:xlink="http://www.w3.org/1999/xlink" width="500" zoomAndPan="magnify" viewBox="0 0 375 374.999991" height="500" preserveAspectRatio="xMidYMid meet" version="1.0"><defs><filter x="0%" y="0%" width="100%" height="100%" id="ac8a26821d"><feColorMatrix values="0 0 0 0 1 0 0 0 0 1 0 0 0 0 1 0 0 0 1 0" color-interpolation-filters="sRGB"/></filter><g/><mask id="5be0e1995d"><g filter="url(#ac8a26821d)"><rect x="-37.5" width="450" fill="#000000" y="-37.499999" height="449.999989" fill-opacity="0.2"/></g></mask><clipPath id="d6dd2389a4"><path d="M 28.925781 28.058594 L 327.347656 28.058594 L 327.347656 326.480469 L 28.925781 326.480469 Z M 28.925781 28.058594 " clip-rule="nonzero"/></clipPath><clipPath id="6b816e00cd"><path d="M 178.136719 28.058594 C 95.730469 28.058594 28.925781 94.863281 28.925781 177.269531 C 28.925781 259.675781 95.730469 326.480469 178.136719 326.480469 C 260.542969 326.480469 327.347656 259.675781 327.347656 177.269531 C 327.347656 94.863281 260.542969 28.058594 178.136719 28.058594 Z M 178.136719 28.058594 " clip-rule="nonzero"/></clipPath><clipPath id="b92348a09f"><path d="M 28.925781 28.058594 L 327.34375 28.058594 L 327.34375 326.476562 L 28.925781 326.476562 Z M 28.925781 28.058594 " clip-rule="nonzero"/></clipPath><clipPath id="8f671fa043"><path d="M 178.132812 28.058594 C 95.730469 28.058594 28.925781 94.863281 28.925781 177.265625 C 28.925781 259.671875 95.730469 326.476562 178.132812 326.476562 C 260.539062 326.476562 327.34375 259.671875 327.34375 177.265625 C 327.34375 94.863281 260.539062 28.058594 178.132812 28.058594 Z M 178.132812 28.058594 " clip-rule="nonzero"/></clipPath><clipPath id="0d35046822"><rect x="0" width="328" y="0" height="355"/></clipPath><clipPath id="2cb14a0921"><path d="M 75.925781 34.058594 L 374.34375 34.058594 L 374.34375 332.476562 L 75.925781 332.476562 Z M 75.925781 34.058594 " clip-rule="nonzero"/></clipPath><clipPath id="0797232255"><path d="M 225.132812 34.058594 C 142.730469 34.058594 75.925781 100.863281 75.925781 183.265625 C 75.925781 265.671875 142.730469 332.476562 225.132812 332.476562 C 307.539062 332.476562 374.34375 265.671875 374.34375 183.265625 C 374.34375 100.863281 307.539062 34.058594 225.132812 34.058594 Z M 225.132812 34.058594 " clip-rule="nonzero"/></clipPath><clipPath id="1bb4a68568"><path d="M 106.023438 106 L 222 106 L 222 184 L 106.023438 184 Z M 106.023438 106 " clip-rule="nonzero"/></clipPath><clipPath id="440062c5da"><path d="M 0 282 L 152 282 L 152 298.484375 L 0 298.484375 Z M 0 282 " clip-rule="nonzero"/></clipPath></defs><g mask="url(#5be0e1995d)"><g transform="matrix(1, 0, 0, 1, 47, 6)"><g clip-path="url(#0d35046822)"><g clip-path="url(#d6dd2389a4)"><g clip-path="url(#6b816e00cd)"><path fill="#ff0000" d="M 28.925781 28.058594 L 327.347656 28.058594 L 327.347656 326.480469 L 28.925781 326.480469 Z M 28.925781 28.058594 " fill-opacity="1" fill-rule="nonzero"/></g></g><g clip-path="url(#b92348a09f)"><g clip-path="url(#8f671fa043)"><path stroke-linecap="butt" transform="matrix(0.75, 0, 0, 0.75, 28.925502, 28.058435)" fill="none" stroke-linejoin="miter" d="M 198.94308 0.000211395 C 89.073289 0.000211395 0.000371808 89.073128 0.000371808 198.94292 C 0.000371808 308.81792 89.073289 397.890837 198.94308 397.890837 C 308.818081 397.890837 397.890997 308.81792 397.890997 198.94292 C 397.890997 89.073128 308.818081 0.000211395 198.94308 0.000211395 Z M 198.94308 0.000211395 " stroke="#ff0000" stroke-width="16" stroke-opacity="1" stroke-miterlimit="4"/></g></g></g></g></g><g clip-path="url(#2cb14a0921)"><g clip-path="url(#0797232255)"><path stroke-linecap="butt" transform="matrix(0.75, 0, 0, 0.75, 75.925502, 34.058435)" fill="none" stroke-linejoin="miter" d="M 198.943081 0.000211395 C 89.073289 0.000211395 0.000372448 89.073128 0.000372448 198.94292 C 0.000372448 308.81792 89.073289 397.890837 198.943081 397.890837 C 308.818081 397.890837 397.890998 308.81792 397.890998 198.94292 C 397.890998 89.073128 308.818081 0.000211395 198.943081 0.000211395 Z M 198.943081 0.000211395 " stroke="#ff0000" stroke-width="16" stroke-opacity="1" stroke-miterlimit="4"/></g></g><path fill="#c3e9fa" d="M 137 171.792969 C 154.265625 174.789062 177.101562 174.328125 193.796875 169.992188 C 202.203125 167.8125 213.058594 162.628906 214.976562 153.035156 C 217.003906 142.890625 207.410156 133.074219 197.421875 134.277344 C 195.890625 134.460938 194.796875 134.433594 193.421875 134.867188 C 204.265625 138.5625 201.277344 150.660156 192.621094 155.453125 C 182.292969 161.171875 167.386719 157.671875 161.921875 146.984375 C 155.707031 134.820312 165.378906 121.628906 175.066406 114.296875 C 186.164062 105.890625 206.003906 106.472656 217.375 114.140625 C 227.914062 121.246094 233.949219 137.410156 225.460938 148.265625 C 234.101562 141.683594 237.828125 132.78125 248.933594 129.589844 C 261.011719 126.113281 274.578125 129.527344 280.667969 140.949219 C 289.757812 157.996094 277.757812 179.90625 259.65625 183.863281 C 249.117188 186.167969 237.53125 186.265625 226.398438 185.710938 C 210.863281 184.933594 195.058594 183.929688 179.429688 182.6875 C 168.164062 181.789062 156.246094 179.75 144.824219 180.835938 C 135.992188 181.675781 129.828125 189.125 120.898438 187.554688 C 125.910156 185.183594 127.15625 180.214844 130.792969 176.46875 C 135.800781 171.300781 138.960938 172.308594 144.855469 174.210938 " fill-opacity="1" fill-rule="nonzero"/><path fill="#96d6f5" d="M 128.539062 201.070312 C 150.085938 183.136719 173.328125 195.0625 198.011719 194.886719 C 216.035156 194.753906 233.824219 191.417969 251.816406 190.785156 C 265.472656 190.304688 286.097656 192.050781 293.945312 205.308594 C 305.191406 224.304688 300.027344 246.621094 277.179688 252.371094 C 268.328125 254.59375 255.722656 255.140625 247.441406 250.855469 C 237.964844 245.953125 230.410156 234.292969 242.132812 226.320312 C 247.609375 222.597656 254.671875 222.308594 256.117188 229.417969 C 261.691406 229.472656 261.8125 223.042969 259.492188 219.34375 C 257.140625 215.597656 250.945312 213.074219 246.964844 212.566406 C 234.9375 211.035156 228.730469 219.503906 227.664062 230.148438 C 226.570312 241.046875 224.058594 246.824219 213.132812 250.6875 C 203 254.269531 186.097656 254.417969 180.625 242.824219 C 179.042969 239.476562 178.121094 231.707031 180.019531 228.433594 C 181.808594 225.347656 190.867188 221.089844 194.414062 222.972656 C 196.257812 223.953125 195.867188 228.011719 196.9375 228.175781 C 200.046875 228.652344 199.953125 225.242188 199.707031 222.988281 C 199.339844 219.648438 195.65625 215.53125 193.039062 213.324219 C 187.0625 208.273438 174.273438 203.632812 166.605469 204.097656 C 157.066406 204.675781 150.003906 211.425781 141.261719 213.203125 C 135.414062 214.394531 129.546875 213.582031 124.339844 211.960938 C 119.21875 210.367188 112.878906 207.578125 107.605469 210.8125 C 116.425781 205.058594 128.992188 198.730469 139.417969 202.28125 " fill-opacity="1" fill-rule="nonzero"/><path fill="#59b6e7" d="M 130.957031 194.179688 C 132.425781 193.875 136.375 188.566406 138.796875 186.785156 C 144.65625 182.480469 152.253906 179.902344 159.222656 177.964844 C 172.144531 174.367188 186.152344 176.207031 199.230469 177.375 C 208.019531 178.15625 214.847656 177.234375 222.800781 174.0625 C 226.84375 172.449219 238.492188 167.6875 233.808594 162.1875 C 230.84375 170.632812 216.59375 156.9375 232.46875 151.945312 C 240.925781 149.285156 251.972656 153.296875 256.5 161.046875 C 267.292969 179.53125 247.746094 191.976562 232.46875 195.863281 C 213.742188 200.628906 193.082031 196.820312 175.066406 191.171875 C 166.066406 188.351562 156.785156 186.84375 147.257812 189.324219 C 140.171875 191.167969 131.273438 199.097656 124.085938 194.300781 C 124 194.171875 124.507812 194.515625 124.914062 194.179688 " fill-opacity="1" fill-rule="nonzero"/><path fill="#c3e9fa" d="M 129.542969 201.539062 C 129.417969 199.972656 130.152344 198.542969 131.109375 197.351562 C 132.378906 195.78125 134.011719 194.488281 135.664062 193.34375 C 139.214844 190.890625 143.121094 188.96875 147.039062 187.1875 C 149.292969 186.160156 151.5625 185.222656 153.960938 184.578125 C 156.855469 183.804688 159.867188 183.460938 162.859375 183.496094 C 168.949219 183.5625 174.929688 184.996094 180.910156 185.976562 C 183.882812 186.464844 186.878906 186.808594 189.871094 187.171875 C 192.996094 187.554688 196.125 187.902344 199.261719 188.160156 C 202.46875 188.425781 205.683594 188.582031 208.898438 188.585938 C 211.632812 188.585938 214.496094 188.578125 217.1875 188.039062 C 220.632812 187.34375 223.96875 185.714844 227 183.980469 C 230.574219 181.929688 234.03125 179.410156 236.675781 176.222656 C 238.929688 173.503906 240.613281 170.074219 239.800781 166.472656 C 238.917969 162.574219 235.515625 160.039062 231.703125 159.460938 C 228.398438 158.960938 224.539062 159.90625 222.066406 162.230469 C 221.089844 163.152344 220.335938 164.410156 220.324219 165.789062 C 220.308594 167.4375 221.324219 168.820312 222.5 169.871094 C 223.324219 170.605469 224.289062 171.191406 225.261719 171.707031 C 225.664062 171.921875 226.304688 171.929688 226.65625 171.601562 C 227.015625 171.269531 226.730469 170.851562 226.382812 170.667969 C 224.855469 169.859375 223.171875 168.726562 222.546875 167.085938 C 222.09375 165.894531 222.394531 164.742188 223.144531 163.710938 C 223.90625 162.660156 225.300781 161.820312 226.476562 161.371094 C 226.847656 161.230469 227.226562 161.113281 227.609375 161.011719 C 228.074219 160.886719 228.351562 160.835938 228.757812 160.777344 C 229.683594 160.648438 230.308594 160.640625 231.164062 160.726562 C 231.90625 160.800781 232.710938 161 233.386719 161.277344 C 234.207031 161.621094 234.875 162.054688 235.539062 162.640625 C 236.851562 163.804688 237.671875 165.507812 237.945312 167.226562 C 238.503906 170.707031 236.328125 174.027344 234.078125 176.449219 C 231.277344 179.460938 227.785156 181.824219 224.167969 183.738281 C 222.550781 184.59375 220.859375 185.367188 219.1875 185.964844 C 218.464844 186.222656 217.734375 186.453125 216.988281 186.640625 C 216.683594 186.71875 216.371094 186.789062 216.058594 186.847656 C 216.300781 186.800781 216.058594 186.84375 216.015625 186.851562 C 215.878906 186.875 215.738281 186.886719 215.597656 186.902344 C 215.1875 186.949219 214.773438 186.988281 214.363281 187.023438 C 208.113281 187.578125 201.796875 187.125 195.570312 186.488281 C 189.4375 185.859375 183.316406 185.089844 177.25 184.003906 C 171.332031 182.945312 165.382812 181.828125 159.34375 182.277344 C 156.152344 182.515625 153.003906 183.21875 149.996094 184.308594 C 148.054688 185.011719 146.171875 185.894531 144.300781 186.769531 C 140.445312 188.570312 136.628906 190.5625 133.191406 193.089844 C 131.628906 194.242188 130.164062 195.535156 128.996094 197.09375 C 128.089844 198.304688 127.414062 199.804688 127.535156 201.347656 C 127.609375 202.257812 129.609375 202.390625 129.542969 201.539062 Z M 129.542969 201.539062 " fill-opacity="1" fill-rule="nonzero"/><path fill="#4569b2" d="M 249.640625 230.910156 C 249.839844 234.089844 250.875 237.109375 253.300781 239.265625 C 255.332031 241.066406 258.167969 241.726562 260.820312 241.484375 C 267.363281 240.878906 273.003906 234.964844 274.484375 228.757812 C 276.128906 221.832031 272.84375 214.78125 268.398438 209.625 C 263.359375 203.78125 256.285156 199.789062 248.601562 198.863281 C 239.875 197.8125 231.410156 200.886719 223.214844 203.441406 C 218.941406 204.773438 214.617188 206 210.167969 206.558594 C 205.402344 207.152344 200.523438 206.863281 195.777344 206.226562 C 186.324219 204.960938 177.179688 202.105469 167.800781 200.429688 C 157.820312 198.644531 147.722656 198.9375 137.65625 199.75 C 127.910156 200.535156 118.179688 201.734375 108.386719 201.746094 C 107.109375 201.75 107.734375 203.558594 108.8125 203.554688 C 119.230469 203.542969 129.578125 202.195312 139.949219 201.414062 C 145.128906 201.023438 150.324219 200.789062 155.519531 200.933594 C 160.390625 201.070312 165.195312 201.6875 169.976562 202.621094 C 179.328125 204.449219 188.492188 207.25 197.992188 208.277344 C 202.699219 208.785156 207.5 208.867188 212.191406 208.140625 C 216.59375 207.460938 220.871094 206.183594 225.113281 204.847656 C 233.359375 202.257812 241.890625 199.316406 250.632812 200.957031 C 258.023438 202.347656 264.542969 206.914062 268.878906 212.996094 C 272.839844 218.554688 274.628906 225.980469 270.972656 232.15625 C 268.117188 236.976562 261.777344 241.609375 256.003906 239.019531 C 252.992188 237.671875 251.738281 234.375 251.542969 231.273438 C 251.476562 230.21875 249.566406 229.699219 249.640625 230.910156 Z M 249.640625 230.910156 " fill-opacity="1" fill-rule="nonzero"/><path fill="#c3e9fa" d="M 131.074219 179.675781 C 133.929688 176.898438 137.214844 174.59375 140.839844 172.941406 C 144.277344 171.375 147.902344 170.417969 151.621094 169.859375 C 159.402344 168.695312 167.273438 169.265625 175.105469 169.789062 C 183.082031 170.316406 191.144531 170.902344 199.105469 169.898438 C 202.980469 169.414062 206.820312 168.511719 210.449219 167.0625 C 214.042969 165.625 217.464844 163.597656 220.507812 161.203125 C 225.238281 157.488281 228.878906 152.363281 229.917969 146.355469 C 230.839844 141.03125 229.71875 135.542969 227.273438 130.765625 C 224.722656 125.773438 220.84375 121.539062 216.179688 118.449219 C 211.539062 115.375 206.058594 113.609375 200.480469 113.726562 C 197.667969 113.78125 194.867188 114.390625 192.269531 115.453125 C 190.851562 116.03125 189.492188 116.753906 188.203125 117.578125 C 186.796875 118.480469 185.542969 119.546875 184.277344 120.632812 C 182.246094 122.371094 179.078125 125.402344 180.71875 128.347656 C 181.296875 129.386719 182.398438 130.089844 183.457031 130.558594 C 184.878906 131.1875 186.398438 131.53125 187.933594 131.769531 C 190.757812 132.210938 193.664062 132.234375 196.507812 132.035156 C 196.960938 132.003906 197.328125 131.582031 197.160156 131.132812 C 196.972656 130.636719 196.402344 130.433594 195.917969 130.46875 C 194.269531 130.585938 192.929688 130.601562 191.242188 130.523438 C 190.425781 130.488281 189.609375 130.421875 188.792969 130.324219 C 188.414062 130.28125 188.039062 130.226562 187.664062 130.167969 C 187.480469 130.136719 187.296875 130.105469 187.113281 130.074219 C 186.8125 130.015625 187.316406 130.113281 187.019531 130.054688 C 186.902344 130.03125 186.785156 130.003906 186.667969 129.980469 C 185.980469 129.828125 185.304688 129.636719 184.648438 129.394531 C 184.574219 129.367188 184.5 129.335938 184.429688 129.308594 C 184.183594 129.210938 184.636719 129.398438 184.394531 129.292969 C 184.261719 129.234375 184.125 129.171875 183.996094 129.105469 C 183.867188 129.042969 183.742188 128.976562 183.621094 128.90625 C 183.558594 128.871094 183.5 128.835938 183.441406 128.800781 C 183.394531 128.769531 183.136719 128.59375 183.371094 128.757812 C 183.164062 128.617188 182.972656 128.453125 182.792969 128.277344 C 182.753906 128.242188 182.613281 128.082031 182.789062 128.277344 C 182.75 128.234375 182.714844 128.191406 182.675781 128.144531 C 182.59375 128.042969 182.519531 127.929688 182.449219 127.816406 C 182.347656 127.648438 182.539062 127.992188 182.449219 127.816406 C 182.425781 127.765625 182.402344 127.714844 182.378906 127.664062 C 182.335938 127.558594 182.304688 127.453125 182.273438 127.347656 C 182.222656 127.160156 182.304688 127.523438 182.269531 127.332031 C 182.257812 127.277344 182.253906 127.21875 182.246094 127.164062 C 182.230469 127.027344 182.230469 126.890625 182.234375 126.753906 C 182.234375 126.691406 182.242188 126.632812 182.246094 126.570312 C 182.230469 126.773438 182.253906 126.5625 182.261719 126.527344 C 182.28125 126.394531 182.316406 126.265625 182.355469 126.136719 C 182.394531 126 182.445312 125.863281 182.5 125.730469 C 182.527344 125.660156 182.558594 125.589844 182.589844 125.523438 C 182.660156 125.363281 182.625 125.445312 182.675781 125.347656 C 183.066406 124.617188 183.601562 123.96875 184.15625 123.363281 C 184.859375 122.597656 185.65625 121.9375 186.433594 121.253906 C 187.042969 120.71875 187.679688 120.210938 188.332031 119.730469 C 190.714844 117.976562 193.234375 116.730469 196.128906 115.960938 C 196.210938 115.9375 196.289062 115.917969 196.371094 115.898438 C 196.636719 115.832031 196.199219 115.9375 196.464844 115.875 C 196.625 115.835938 196.789062 115.800781 196.949219 115.765625 C 197.296875 115.691406 197.648438 115.628906 198 115.570312 C 198.667969 115.460938 199.34375 115.386719 200.019531 115.335938 C 200.34375 115.316406 200.667969 115.300781 200.988281 115.292969 C 201.257812 115.285156 200.789062 115.292969 201.058594 115.289062 C 201.140625 115.289062 201.21875 115.289062 201.300781 115.289062 C 201.488281 115.289062 201.675781 115.289062 201.863281 115.296875 C 202.53125 115.308594 203.199219 115.355469 203.863281 115.429688 C 204.179688 115.464844 204.5 115.507812 204.816406 115.554688 C 204.972656 115.578125 205.132812 115.601562 205.289062 115.628906 C 205.367188 115.644531 205.445312 115.65625 205.523438 115.671875 C 205.574219 115.679688 205.925781 115.75 205.652344 115.695312 C 206.308594 115.824219 206.957031 115.980469 207.601562 116.164062 C 208.246094 116.34375 208.882812 116.550781 209.511719 116.78125 C 209.8125 116.890625 210.113281 117.007812 210.410156 117.128906 C 210.453125 117.144531 210.707031 117.25 210.460938 117.148438 C 210.535156 117.179688 210.609375 117.210938 210.683594 117.242188 C 210.855469 117.316406 211.03125 117.394531 211.199219 117.472656 C 212.433594 118.03125 213.621094 118.679688 214.761719 119.402344 C 215.039062 119.578125 215.308594 119.757812 215.578125 119.941406 C 215.605469 119.957031 215.832031 120.113281 215.640625 119.980469 C 215.707031 120.027344 215.773438 120.074219 215.839844 120.121094 C 215.996094 120.230469 216.148438 120.34375 216.304688 120.457031 C 216.851562 120.859375 217.386719 121.28125 217.910156 121.71875 C 218.429688 122.15625 218.9375 122.613281 219.433594 123.082031 C 219.667969 123.308594 219.902344 123.539062 220.132812 123.773438 C 220.246094 123.886719 220.359375 124.007812 220.472656 124.125 C 220.527344 124.183594 220.585938 124.242188 220.640625 124.300781 C 220.664062 124.328125 220.894531 124.574219 220.757812 124.429688 C 221.679688 125.429688 222.53125 126.492188 223.316406 127.601562 C 224.882812 129.824219 226.019531 131.996094 226.929688 134.605469 C 227.800781 137.097656 228.25 139.515625 228.269531 142.210938 C 228.28125 143.574219 228.175781 144.746094 227.949219 146.011719 C 227.707031 147.335938 227.332031 148.636719 226.847656 149.890625 C 225.8125 152.542969 224.167969 155 222.164062 157.140625 C 219.765625 159.703125 216.738281 161.8125 213.667969 163.5625 C 210.351562 165.453125 206.683594 166.765625 202.976562 167.574219 C 195.25 169.269531 187.335938 168.980469 179.496094 168.503906 C 171.511719 168.019531 163.496094 167.253906 155.496094 167.8125 C 147.746094 168.359375 140.101562 170.417969 133.722656 174.988281 C 132.273438 176.027344 130.910156 177.1875 129.632812 178.429688 C 128.785156 179.253906 130.382812 180.351562 131.074219 179.675781 Z M 131.074219 179.675781 " fill-opacity="1" fill-rule="nonzero"/><path fill="#73cdda" d="M 123.175781 220.945312 C 129.984375 215.308594 138.253906 211.511719 146.847656 209.554688 C 155.449219 207.59375 164.519531 207.433594 173.109375 209.542969 C 181.289062 211.550781 188.859375 215.867188 194.238281 222.371094 C 195.480469 223.875 196.515625 225.488281 197.597656 227.117188 C 198.769531 228.878906 199.960938 230.625 201.203125 232.339844 C 203.785156 235.894531 206.644531 239.34375 210.136719 242.039062 C 213.246094 244.433594 217.113281 246.128906 221.097656 245.457031 C 223.28125 245.089844 225.261719 244.039062 227.003906 242.699219 C 228.558594 241.5 229.917969 240.117188 230.941406 238.429688 C 232.769531 235.402344 233.347656 231.667969 232.554688 228.226562 C 231.761719 224.808594 229.386719 221.914062 226.121094 220.613281 C 224.21875 219.855469 222.128906 219.691406 220.109375 219.878906 C 218.523438 220.023438 217.03125 220.894531 215.738281 221.765625 C 214.453125 222.625 213.265625 223.664062 212.242188 224.824219 C 211.585938 225.570312 210.625 226.617188 210.886719 227.703125 C 211.144531 228.785156 212.3125 228.820312 213.152344 228.53125 C 214.472656 228.074219 215.6875 227.171875 216.828125 226.390625 C 217.257812 226.097656 217.042969 225.390625 216.765625 225.085938 C 216.417969 224.699219 215.90625 224.601562 215.476562 224.898438 C 214.632812 225.476562 213.773438 226.039062 212.855469 226.5 C 212.597656 226.628906 212.335938 226.742188 212.0625 226.832031 C 211.875 226.894531 212.25 226.789062 212.074219 226.832031 C 212.03125 226.839844 211.988281 226.847656 211.945312 226.855469 C 211.738281 226.886719 212.019531 226.886719 212.113281 226.910156 C 212.292969 226.960938 212.515625 227.238281 212.632812 227.519531 C 212.691406 227.65625 212.664062 227.613281 212.644531 227.777344 C 212.652344 227.707031 212.675781 227.640625 212.695312 227.574219 C 212.59375 227.878906 212.726562 227.535156 212.769531 227.460938 C 213.070312 226.894531 213.304688 226.648438 213.648438 226.257812 C 214.675781 225.09375 215.882812 224.070312 217.171875 223.203125 C 218.433594 222.355469 219.804688 221.765625 221.316406 221.679688 C 223.171875 221.574219 224.953125 221.886719 226.585938 222.707031 C 227.84375 223.335938 228.96875 224.449219 229.695312 225.648438 C 230.492188 226.957031 230.914062 228.410156 231.042969 229.941406 C 231.191406 231.621094 230.976562 233.195312 230.449219 234.820312 C 229.296875 238.386719 226.261719 241.375 222.832031 242.902344 C 219.273438 244.480469 215.566406 243.609375 212.457031 241.621094 C 208.867188 239.328125 206.023438 235.984375 203.453125 232.597656 C 201.007812 229.382812 198.941406 225.847656 196.511719 222.59375 C 191.328125 215.644531 183.734375 210.84375 175.496094 208.371094 C 166.964844 205.8125 157.816406 205.578125 149.078125 207.136719 C 140.238281 208.714844 131.699219 212.167969 124.410156 217.445312 C 123.523438 218.085938 122.664062 218.757812 121.820312 219.453125 C 120.980469 220.148438 122.328125 221.644531 123.175781 220.945312 Z M 123.175781 220.945312 " fill-opacity="1" fill-rule="nonzero"/><path fill="#c3e9fa" d="M 252.257812 186.800781 C 258.148438 185.652344 264.035156 184.238281 269.609375 181.996094 C 274.539062 180.011719 279.265625 177.308594 282.921875 173.398438 C 286.589844 169.472656 288.726562 164.441406 289.402344 159.132812 C 289.816406 155.855469 289.699219 152.523438 289.28125 149.25 C 288.878906 146.097656 288.222656 143.003906 287.140625 140.011719 C 285.050781 134.238281 281.480469 128.730469 276.292969 125.308594 C 270.769531 121.671875 263.441406 120.976562 257.308594 123.464844 C 252.21875 125.53125 247.988281 130.375 248.449219 136.136719 C 248.683594 139.0625 250.128906 141.699219 252.160156 143.769531 C 252.773438 144.398438 253.453125 144.933594 254.128906 145.488281 C 254.917969 146.136719 255.734375 146.742188 256.597656 147.28125 C 258.023438 148.175781 259.589844 148.894531 261.238281 149.253906 C 263.863281 149.824219 266.648438 149.417969 268.601562 147.46875 C 270.4375 145.636719 271.003906 142.828125 270.9375 140.320312 C 270.886719 138.25 270.410156 136.191406 269.699219 134.25 C 269.046875 134.269531 268.394531 134.285156 267.742188 134.304688 C 268.046875 134.886719 268.496094 135.292969 269.03125 135.660156 C 269.480469 135.964844 269.898438 136.226562 270.15625 136.722656 C 270.367188 137.117188 270.949219 137.214844 271.351562 137.207031 C 271.566406 137.199219 272.328125 137.066406 272.117188 136.667969 C 271.8125 136.089844 271.363281 135.679688 270.828125 135.3125 C 270.378906 135.007812 269.960938 134.746094 269.699219 134.25 C 269.492188 133.855469 268.90625 133.757812 268.507812 133.769531 C 268.242188 133.773438 267.589844 133.886719 267.742188 134.304688 C 268.804688 137.222656 269.355469 140.464844 268.585938 143.527344 C 268.296875 144.667969 267.777344 145.75 267.015625 146.652344 C 266.664062 147.0625 266.328125 147.359375 265.851562 147.671875 C 265.390625 147.980469 265.066406 148.125 264.46875 148.304688 C 264.4375 148.316406 264.21875 148.371094 264.417969 148.320312 C 264.355469 148.335938 264.285156 148.351562 264.21875 148.367188 C 264.085938 148.394531 263.949219 148.417969 263.8125 148.4375 C 263.742188 148.449219 263.671875 148.457031 263.601562 148.464844 C 263.847656 148.4375 263.605469 148.464844 263.5625 148.46875 C 263.390625 148.480469 263.222656 148.484375 263.050781 148.484375 C 262.976562 148.484375 262.902344 148.480469 262.828125 148.480469 C 263.105469 148.488281 262.84375 148.476562 262.792969 148.476562 C 262.640625 148.464844 262.484375 148.449219 262.328125 148.429688 C 262.25 148.417969 262.171875 148.40625 262.09375 148.394531 C 261.824219 148.351562 262.308594 148.4375 262.039062 148.386719 C 261.847656 148.347656 261.65625 148.304688 261.46875 148.257812 C 261.300781 148.214844 261.132812 148.164062 260.96875 148.113281 C 260.6875 148.027344 261.140625 148.175781 260.863281 148.078125 C 260.777344 148.050781 260.691406 148.019531 260.605469 147.988281 C 260.214844 147.84375 259.835938 147.675781 259.460938 147.496094 C 258.71875 147.144531 257.945312 146.660156 257.234375 146.171875 C 254.597656 144.347656 252.183594 142.070312 251.046875 139.003906 C 250.15625 136.597656 250.21875 133.886719 251.183594 131.511719 C 252.207031 128.976562 254.117188 126.910156 256.410156 125.46875 C 257.683594 124.671875 259.066406 124.09375 260.523438 123.683594 C 262.027344 123.257812 263.671875 123.054688 265.242188 123.027344 C 266.726562 122.996094 268.152344 123.167969 269.589844 123.527344 C 269.941406 123.617188 270.292969 123.71875 270.640625 123.832031 C 270.457031 123.773438 270.738281 123.863281 270.75 123.867188 C 270.835938 123.898438 270.921875 123.929688 271.003906 123.957031 C 271.203125 124.027344 271.398438 124.105469 271.59375 124.179688 C 272.28125 124.453125 272.941406 124.769531 273.5 125.078125 C 278.84375 128.003906 282.507812 133.355469 284.746094 138.925781 C 285.898438 141.789062 286.640625 144.769531 287.109375 147.816406 C 287.621094 151.15625 287.816406 154.558594 287.507812 157.925781 C 287.25 160.695312 286.628906 163.449219 285.539062 166.011719 C 284.539062 168.351562 283.152344 170.511719 281.476562 172.417969 C 278.03125 176.332031 273.390625 179.023438 268.660156 180.976562 C 263.121094 183.265625 257.46875 184.625 251.617188 185.773438 C 251.527344 185.792969 251.433594 185.8125 251.34375 185.828125 C 251.046875 185.886719 250.585938 186.128906 250.910156 186.46875 C 251.222656 186.800781 251.835938 186.882812 252.257812 186.800781 Z M 252.257812 186.800781 " fill-opacity="1" fill-rule="nonzero"/><path fill="#42b6e9" d="M 237.359375 192.175781 C 243.554688 190.015625 249.960938 188.363281 256.402344 187.3125 C 263.175781 186.210938 269.84375 185.761719 276.675781 186.210938 C 278.191406 186.3125 279.867188 186.480469 281.535156 186.714844 C 283.191406 186.941406 284.835938 187.242188 286.292969 187.566406 C 289.550781 188.289062 292.503906 189.21875 295.527344 190.511719 C 301.519531 193.078125 306.945312 197 311.207031 202.027344 C 313.476562 204.707031 315.523438 207.710938 316.957031 210.925781 C 318.300781 213.9375 319.027344 217.207031 319.011719 220.507812 C 318.984375 226.664062 316.25 232.578125 311.449219 236.445312 C 308.972656 238.441406 305.992188 239.753906 302.894531 240.425781 C 301.226562 240.785156 299.445312 240.984375 297.757812 240.894531 C 295.980469 240.796875 294.28125 240.492188 292.53125 239.929688 C 292.25 239.839844 291.871094 239.699219 291.507812 239.550781 C 291.105469 239.390625 290.714844 239.210938 290.328125 239.023438 C 289.730469 238.730469 289.011719 238.289062 288.410156 237.863281 C 287.28125 237.0625 286.261719 236.046875 285.492188 234.890625 C 283.925781 232.542969 283.484375 229.714844 284.121094 226.984375 C 284.492188 225.40625 285.207031 223.941406 286.097656 222.601562 C 287.109375 221.082031 288.390625 219.570312 289.839844 218.453125 C 291.902344 216.863281 294.285156 215.824219 296.78125 215.222656 C 296.929688 215.1875 297.078125 215.15625 297.222656 215.125 C 297.296875 215.109375 297.371094 215.09375 297.445312 215.078125 C 297.261719 215.117188 297.503906 215.070312 297.523438 215.066406 C 297.832031 215.007812 298.140625 214.964844 298.449219 214.925781 C 298.726562 214.890625 299 214.867188 299.277344 214.851562 C 299.511719 214.835938 299.070312 214.859375 299.300781 214.851562 C 299.367188 214.847656 299.433594 214.847656 299.5 214.84375 C 299.652344 214.84375 299.804688 214.84375 299.953125 214.847656 C 300.078125 214.851562 300.207031 214.855469 300.332031 214.863281 C 300.554688 214.878906 300.085938 214.839844 300.308594 214.863281 C 300.367188 214.867188 300.425781 214.875 300.488281 214.882812 C 300.605469 214.894531 300.722656 214.910156 300.835938 214.929688 C 300.894531 214.941406 300.949219 214.949219 301.007812 214.960938 C 300.671875 214.898438 300.945312 214.949219 301.019531 214.96875 C 301.125 214.992188 301.226562 215.019531 301.332031 215.050781 C 301.394531 215.070312 301.578125 215.136719 301.300781 215.039062 C 301.351562 215.054688 301.398438 215.074219 301.449219 215.09375 C 301.542969 215.128906 301.632812 215.171875 301.726562 215.214844 C 301.890625 215.289062 301.550781 215.121094 301.710938 215.203125 C 301.765625 215.234375 301.820312 215.269531 301.875 215.300781 C 301.957031 215.351562 302.035156 215.40625 302.109375 215.460938 C 301.941406 215.335938 302.175781 215.519531 302.214844 215.554688 C 302.28125 215.617188 302.34375 215.683594 302.402344 215.75 C 302.433594 215.785156 302.460938 215.820312 302.488281 215.855469 C 302.546875 215.929688 302.445312 215.789062 302.53125 215.921875 C 302.734375 216.234375 302.875 216.667969 302.910156 216.960938 C 303.039062 218.070312 302.621094 219.21875 302.140625 220.195312 C 301.65625 221.175781 301.046875 222.089844 300.402344 222.96875 C 300.007812 223.507812 301.921875 223.984375 302.292969 223.480469 C 303.246094 222.179688 304.136719 220.785156 304.640625 219.242188 C 304.941406 218.320312 305.0625 217.285156 304.699219 216.363281 C 303.914062 214.371094 301.214844 213.929688 299.351562 213.910156 C 296.734375 213.882812 294.117188 214.617188 291.738281 215.671875 C 290.550781 216.203125 289.410156 216.851562 288.363281 217.625 C 286.878906 218.71875 285.59375 220.15625 284.515625 221.648438 C 282.714844 224.148438 281.550781 227.210938 281.894531 230.328125 C 282.207031 233.175781 283.746094 235.6875 285.910156 237.515625 C 288.621094 239.808594 292.082031 241.03125 295.554688 241.566406 C 299.253906 242.132812 303.097656 241.769531 306.648438 240.589844 C 312.648438 238.597656 317.453125 234.050781 319.675781 228.117188 C 321.976562 221.980469 321.148438 215.074219 318.125 209.34375 C 314.90625 203.238281 310.070312 197.96875 304.378906 194.097656 C 298.882812 190.359375 292.550781 187.945312 286.066406 186.59375 C 279.277344 185.175781 272.308594 184.867188 265.394531 185.285156 C 258.585938 185.699219 251.820312 186.859375 245.214844 188.5625 C 242.121094 189.363281 239.058594 190.292969 236.035156 191.347656 C 235.671875 191.472656 235.59375 191.753906 235.949219 191.976562 C 236.320312 192.210938 236.933594 192.324219 237.359375 192.175781 Z M 237.359375 192.175781 " fill-opacity="1" fill-rule="nonzero"/><path fill="#42b6e9" d="M 292.5 188.398438 C 298.179688 190.472656 304.007812 187.640625 308.320312 183.972656 C 310.742188 181.914062 312.863281 179.496094 314.679688 176.890625 C 316.332031 174.515625 317.757812 171.941406 318.71875 169.207031 C 319.566406 166.785156 320.058594 164.160156 320.160156 161.59375 C 320.25 159.375 320.003906 157.15625 319.222656 155.070312 C 317.976562 151.730469 315.324219 149.121094 311.929688 148.023438 C 308.851562 147.027344 305.484375 147.171875 302.402344 148.082031 C 299.691406 148.886719 296.9375 150.414062 295.375 152.847656 C 294.65625 153.976562 294.289062 155.285156 294.320312 156.621094 C 294.363281 158.394531 295.15625 160.15625 296.15625 161.589844 C 297.417969 163.390625 299.441406 164.859375 301.613281 165.292969 C 302.285156 165.425781 303.132812 165.4375 303.695312 164.984375 C 304.421875 164.394531 304.355469 163.359375 304.164062 162.535156 C 303.839844 161.121094 303.027344 159.816406 302.214844 158.636719 C 302.089844 158.457031 301.59375 157.921875 301.378906 158.292969 C 301.164062 158.664062 301.488281 159.238281 301.695312 159.535156 C 301.820312 159.71875 301.941406 159.902344 302.0625 160.089844 C 301.960938 159.929688 302.136719 160.210938 302.140625 160.214844 C 302.191406 160.296875 302.238281 160.382812 302.289062 160.464844 C 302.382812 160.625 302.46875 160.785156 302.554688 160.949219 C 302.59375 161.023438 302.632812 161.101562 302.667969 161.179688 C 302.722656 161.285156 302.71875 161.277344 302.660156 161.15625 C 302.679688 161.203125 302.703125 161.25 302.722656 161.300781 C 302.78125 161.433594 302.835938 161.570312 302.886719 161.707031 C 302.902344 161.753906 302.976562 161.980469 302.894531 161.726562 C 302.914062 161.789062 302.933594 161.847656 302.949219 161.910156 C 302.980469 162.023438 303.003906 162.136719 303.023438 162.253906 C 302.980469 162.003906 303.03125 162.375 303.03125 162.449219 C 303.035156 162.488281 303.027344 162.65625 303.039062 162.449219 C 303.035156 162.496094 303.03125 162.539062 303.027344 162.582031 C 303.019531 162.664062 303 162.742188 302.980469 162.820312 C 302.945312 162.953125 303.027344 162.699219 302.980469 162.824219 C 302.964844 162.859375 302.949219 162.890625 302.933594 162.925781 C 302.898438 163 302.851562 163.066406 302.804688 163.132812 C 302.703125 163.261719 302.816406 163.136719 302.722656 163.214844 C 302.671875 163.261719 302.613281 163.300781 302.554688 163.335938 C 302.417969 163.417969 302.261719 163.472656 302.105469 163.511719 C 302.21875 163.484375 301.992188 163.527344 301.953125 163.53125 C 301.867188 163.542969 301.78125 163.542969 301.695312 163.546875 C 301.496094 163.550781 301.292969 163.53125 301.089844 163.503906 C 300.671875 163.441406 300.351562 163.339844 299.886719 163.15625 C 299.667969 163.066406 299.449219 162.964844 299.238281 162.855469 C 299.125 162.796875 299.019531 162.738281 298.910156 162.675781 C 298.730469 162.574219 299.03125 162.75 298.851562 162.644531 C 298.777344 162.597656 298.707031 162.554688 298.636719 162.507812 C 298.417969 162.367188 298.207031 162.214844 298.003906 162.058594 C 297.902344 161.976562 297.800781 161.894531 297.699219 161.808594 C 297.675781 161.789062 297.507812 161.640625 297.664062 161.78125 C 297.597656 161.722656 297.535156 161.660156 297.46875 161.601562 C 297.28125 161.417969 297.097656 161.222656 296.925781 161.023438 C 297.105469 161.230469 296.835938 160.90625 296.796875 160.851562 C 296.703125 160.726562 296.617188 160.601562 296.53125 160.472656 C 296.710938 160.746094 296.476562 160.375 296.4375 160.304688 C 296.378906 160.203125 296.328125 160.09375 296.269531 159.992188 C 296.222656 159.910156 296.179688 159.828125 296.136719 159.746094 C 296.117188 159.707031 296.097656 159.664062 296.078125 159.625 C 295.960938 159.394531 296.167969 159.820312 296.09375 159.664062 C 296.019531 159.503906 295.953125 159.34375 295.890625 159.179688 C 295.859375 159.101562 295.832031 159.019531 295.804688 158.941406 C 295.75 158.777344 295.878906 159.175781 295.828125 159.015625 C 295.8125 158.960938 295.796875 158.90625 295.78125 158.855469 C 295.734375 158.699219 295.699219 158.542969 295.664062 158.382812 C 295.652344 158.3125 295.601562 158.019531 295.648438 158.324219 C 295.636719 158.234375 295.625 158.144531 295.613281 158.054688 C 295.597656 157.902344 295.585938 157.746094 295.578125 157.59375 C 295.578125 157.519531 295.578125 157.441406 295.578125 157.367188 C 295.578125 157.136719 295.566406 157.480469 295.582031 157.25 C 295.597656 156.945312 295.644531 156.636719 295.710938 156.335938 C 295.742188 156.191406 295.777344 156.050781 295.820312 155.910156 C 295.832031 155.875 295.84375 155.839844 295.855469 155.804688 C 295.894531 155.679688 295.8125 155.929688 295.855469 155.808594 C 295.882812 155.726562 295.914062 155.644531 295.945312 155.566406 C 296.058594 155.277344 296.195312 154.996094 296.351562 154.726562 C 296.671875 154.164062 297.070312 153.652344 297.515625 153.183594 C 297.636719 153.054688 297.628906 153.066406 297.796875 152.902344 C 297.925781 152.78125 298.058594 152.664062 298.195312 152.546875 C 298.460938 152.320312 298.742188 152.109375 299.027344 151.90625 C 300.253906 151.042969 301.632812 150.402344 303.058594 149.949219 C 304.546875 149.472656 306.039062 149.214844 307.65625 149.164062 C 308.449219 149.140625 309.246094 149.175781 310.035156 149.273438 C 310.425781 149.320312 310.8125 149.386719 311.195312 149.464844 C 311.289062 149.484375 311.378906 149.503906 311.472656 149.527344 C 311.515625 149.535156 311.5625 149.546875 311.609375 149.558594 C 311.46875 149.527344 311.625 149.5625 311.644531 149.566406 C 311.839844 149.617188 312.035156 149.675781 312.226562 149.734375 C 312.964844 149.960938 313.679688 150.257812 314.355469 150.628906 C 314.4375 150.671875 314.515625 150.71875 314.597656 150.765625 C 314.738281 150.847656 314.457031 150.679688 314.597656 150.765625 C 314.636719 150.789062 314.675781 150.8125 314.714844 150.835938 C 314.886719 150.941406 315.050781 151.054688 315.214844 151.167969 C 315.367188 151.277344 315.511719 151.386719 315.65625 151.503906 C 315.730469 151.5625 315.800781 151.621094 315.875 151.679688 C 315.910156 151.710938 315.945312 151.738281 315.980469 151.769531 C 316.152344 151.921875 315.882812 151.683594 315.992188 151.78125 C 316.28125 152.046875 316.554688 152.328125 316.8125 152.625 C 316.855469 152.675781 316.972656 152.820312 316.777344 152.582031 C 316.808594 152.621094 316.835938 152.65625 316.867188 152.695312 C 316.925781 152.769531 316.984375 152.847656 317.042969 152.921875 C 317.171875 153.09375 317.292969 153.265625 317.410156 153.441406 C 317.546875 153.652344 317.277344 153.226562 317.449219 153.507812 C 317.5 153.59375 317.550781 153.679688 317.601562 153.769531 C 317.710938 153.960938 317.8125 154.15625 317.910156 154.355469 C 317.996094 154.535156 317.796875 154.117188 317.882812 154.296875 C 317.902344 154.347656 317.925781 154.394531 317.945312 154.441406 C 317.988281 154.539062 318.03125 154.632812 318.070312 154.730469 C 318.160156 154.949219 318.238281 155.167969 318.316406 155.386719 C 318.335938 155.445312 318.398438 155.636719 318.308594 155.363281 C 318.324219 155.414062 318.34375 155.46875 318.359375 155.519531 C 318.390625 155.628906 318.421875 155.738281 318.453125 155.84375 C 318.519531 156.085938 318.574219 156.328125 318.628906 156.570312 C 318.652344 156.6875 318.675781 156.800781 318.699219 156.917969 C 318.710938 156.976562 318.71875 157.035156 318.730469 157.09375 C 318.765625 157.300781 318.703125 156.914062 318.734375 157.121094 C 318.777344 157.386719 318.808594 157.652344 318.835938 157.921875 C 318.960938 159.089844 318.945312 160.144531 318.859375 161.242188 C 318.652344 163.785156 318.101562 166.363281 317.148438 168.734375 C 316.035156 171.492188 314.480469 174.074219 312.703125 176.449219 C 310.8125 178.972656 308.617188 181.285156 306.117188 183.203125 C 302.1875 186.21875 297 188.445312 292.070312 186.648438 C 291.644531 186.496094 291.621094 186.980469 291.691406 187.269531 C 291.789062 187.671875 292.082031 188.246094 292.5 188.398438 Z M 292.5 188.398438 " fill-opacity="1" fill-rule="nonzero"/><g clip-path="url(#1bb4a68568)"><path fill="#4569b2" d="M 107.324219 183.5 C 108.90625 180.289062 111.011719 177.359375 113.628906 174.917969 C 116.140625 172.578125 119.066406 170.726562 122.171875 169.289062 C 128.9375 166.160156 136.46875 164.96875 143.84375 164.367188 C 151.945312 163.703125 160.089844 163.796875 168.210938 163.757812 C 175.875 163.726562 183.589844 163.65625 191.179688 162.5 C 198.25 161.421875 205.171875 159.117188 210.683594 154.394531 C 216.789062 149.152344 220.828125 141.429688 221.25 133.351562 C 221.464844 129.292969 220.710938 125.234375 219.042969 121.53125 C 217.253906 117.570312 214.410156 114.152344 210.933594 111.558594 C 205.308594 107.367188 198.039062 106.101562 191.167969 106.875 C 184.847656 107.585938 178.019531 110.195312 174.519531 115.835938 C 172.753906 118.675781 172.203125 122.058594 172.550781 125.355469 C 172.964844 129.238281 174.410156 133.109375 176.878906 136.152344 C 178.667969 138.351562 181.199219 140.273438 184.0625 140.714844 C 186.296875 141.058594 188.453125 140.132812 189.347656 137.976562 C 189.882812 136.679688 189.933594 135.226562 189.8125 133.851562 C 189.632812 131.730469 188.984375 129.652344 188.21875 127.683594 C 188.09375 127.363281 187.804688 126.761719 187.402344 126.707031 C 187.003906 126.652344 187.230469 127.40625 187.289062 127.558594 C 188.386719 130.371094 189.632812 134.308594 187.867188 137.128906 C 186.636719 139.085938 184.179688 139.234375 182.164062 138.609375 C 180.902344 138.21875 179.734375 137.492188 178.726562 136.65625 C 178.117188 136.144531 177.65625 135.675781 177.152344 135.082031 C 176.882812 134.761719 176.703125 134.523438 176.511719 134.253906 C 176.390625 134.085938 176.277344 133.917969 176.167969 133.746094 C 176.109375 133.660156 176.054688 133.570312 176 133.484375 C 175.980469 133.453125 175.789062 133.125 175.867188 133.265625 C 174.957031 131.691406 174.414062 130.050781 174 128.191406 C 173.625 126.488281 173.507812 124.722656 173.695312 122.984375 C 174.035156 119.890625 175.488281 117.03125 177.675781 114.835938 C 179.957031 112.554688 182.898438 111.007812 185.9375 109.996094 C 192.320312 107.871094 199.789062 107.882812 206.085938 110.324219 C 209.679688 111.714844 212.867188 114.117188 215.332031 117.070312 C 217.792969 120.015625 219.296875 123.449219 219.871094 127.273438 C 221.058594 135.191406 218.101562 143.328125 212.996094 149.34375 C 208.125 155.085938 201.28125 158.425781 194.03125 160.011719 C 186.742188 161.605469 179.179688 161.804688 171.75 161.898438 C 163.609375 162 155.464844 161.84375 147.332031 162.261719 C 139.757812 162.652344 132.058594 163.503906 124.867188 166.035156 C 118.285156 168.347656 112.378906 172.304688 108.414062 178.128906 C 107.601562 179.320312 106.882812 180.574219 106.25 181.867188 C 106.066406 182.234375 106.371094 182.804688 106.566406 183.097656 C 106.652344 183.226562 107.144531 183.867188 107.324219 183.5 Z M 107.324219 183.5 " fill-opacity="1" fill-rule="nonzero"/></g><g fill="#ff0000" fill-opacity="1"><g transform="translate(215.431299, 65.083949)"><g><path d="M 11.3125 0.75 C 9.363281 0.664062 7.648438 0.242188 6.171875 -0.515625 C 4.691406 -1.285156 3.554688 -2.34375 2.765625 -3.6875 C 1.972656 -5.039062 1.617188 -6.644531 1.703125 -8.5 C 1.765625 -9.988281 2.082031 -11.316406 2.65625 -12.484375 C 3.238281 -13.660156 4.023438 -14.648438 5.015625 -15.453125 C 6.015625 -16.253906 7.175781 -16.84375 8.5 -17.21875 C 9.820312 -17.601562 11.269531 -17.765625 12.84375 -17.703125 C 13.78125 -17.660156 14.707031 -17.523438 15.625 -17.296875 C 16.550781 -17.066406 17.3125 -16.78125 17.90625 -16.4375 L 17.875 -12.109375 L 15.953125 -12.125 L 15.109375 -14.984375 C 14.710938 -15.210938 14.269531 -15.382812 13.78125 -15.5 C 13.300781 -15.613281 12.859375 -15.679688 12.453125 -15.703125 C 11.273438 -15.742188 10.253906 -15.503906 9.390625 -14.984375 C 8.523438 -14.472656 7.851562 -13.71875 7.375 -12.71875 C 6.90625 -11.71875 6.644531 -10.523438 6.59375 -9.140625 C 6.53125 -7.585938 6.738281 -6.226562 7.21875 -5.0625 C 7.707031 -3.894531 8.382812 -2.984375 9.25 -2.328125 C 10.113281 -1.679688 11.085938 -1.335938 12.171875 -1.296875 C 12.472656 -1.285156 12.820312 -1.3125 13.21875 -1.375 C 13.613281 -1.445312 13.972656 -1.566406 14.296875 -1.734375 L 13.578125 -0.109375 L 13.703125 -3.34375 C 13.722656 -3.769531 13.734375 -4.226562 13.734375 -4.71875 C 13.742188 -5.207031 13.734375 -5.585938 13.703125 -5.859375 L 11.546875 -6.40625 L 11.703125 -8 L 19.375 -7.671875 L 19.390625 -6.140625 L 17.859375 -5.71875 C 17.828125 -5.507812 17.804688 -5.191406 17.796875 -4.765625 C 17.796875 -4.335938 17.785156 -3.890625 17.765625 -3.421875 C 17.753906 -3.078125 17.75 -2.679688 17.75 -2.234375 C 17.75 -1.785156 17.75 -1.253906 17.75 -0.640625 C 16.8125 -0.128906 15.78125 0.238281 14.65625 0.46875 C 13.539062 0.707031 12.425781 0.800781 11.3125 0.75 Z M 11.3125 0.75 "/></g></g></g><g fill="#ff0000" fill-opacity="1"><g transform="translate(240.813168, 66.643839)"><g><path d="M 5.6875 -17.046875 L 13.609375 -14.921875 L 13.3125 -13.421875 L 11.265625 -13.4375 C 11.191406 -13.25 11.085938 -12.941406 10.953125 -12.515625 C 10.828125 -12.097656 10.675781 -11.59375 10.5 -11 C 10.320312 -10.40625 10.128906 -9.71875 9.921875 -8.9375 L 9.109375 -5.890625 C 8.796875 -4.742188 8.695312 -3.734375 8.8125 -2.859375 C 8.925781 -1.992188 9.242188 -1.273438 9.765625 -0.703125 C 10.296875 -0.140625 11.015625 0.257812 11.921875 0.5 C 12.828125 0.738281 13.632812 0.742188 14.34375 0.515625 C 15.050781 0.285156 15.65625 -0.175781 16.15625 -0.875 C 16.65625 -1.582031 17.0625 -2.53125 17.375 -3.71875 L 18.046875 -6.203125 C 18.285156 -7.109375 18.492188 -7.9375 18.671875 -8.6875 C 18.847656 -9.4375 18.984375 -10.046875 19.078125 -10.515625 C 19.171875 -10.984375 19.207031 -11.253906 19.1875 -11.328125 L 17.265625 -12.359375 L 17.734375 -13.828125 L 24.328125 -12.0625 L 24.03125 -10.5625 L 21.984375 -10.578125 C 21.953125 -10.523438 21.859375 -10.269531 21.703125 -9.8125 C 21.554688 -9.351562 21.375 -8.753906 21.15625 -8.015625 C 20.9375 -7.273438 20.707031 -6.453125 20.46875 -5.546875 L 19.671875 -2.5625 C 19.253906 -1.007812 18.609375 0.253906 17.734375 1.234375 C 16.859375 2.210938 15.8125 2.867188 14.59375 3.203125 C 13.375 3.535156 12.046875 3.507812 10.609375 3.125 C 8.148438 2.46875 6.429688 1.304688 5.453125 -0.359375 C 4.484375 -2.023438 4.316406 -4.054688 4.953125 -6.453125 L 5.90625 -10 C 6.125 -10.820312 6.3125 -11.566406 6.46875 -12.234375 C 6.625 -12.910156 6.742188 -13.453125 6.828125 -13.859375 C 6.921875 -14.273438 6.96875 -14.519531 6.96875 -14.59375 L 5.21875 -15.578125 Z M 5.6875 -17.046875 "/></g></g></g><g fill="#ff0000" fill-opacity="1"><g transform="translate(266.50484, 74.36984)"><g><path d="M 6.3125 3.453125 C 5.519531 3.066406 4.71875 2.53125 3.90625 1.84375 C 3.09375 1.164062 2.453125 0.484375 1.984375 -0.203125 L 3.875 -4.3125 L 5.671875 -3.546875 L 5.1875 -0.28125 C 5.457031 0.15625 5.800781 0.5625 6.21875 0.9375 C 6.644531 1.320312 7.085938 1.628906 7.546875 1.859375 C 8.367188 2.265625 9.078125 2.398438 9.671875 2.265625 C 10.273438 2.128906 10.722656 1.773438 11.015625 1.203125 C 11.335938 0.554688 11.40625 -0.046875 11.21875 -0.609375 C 11.03125 -1.179688 10.707031 -1.753906 10.25 -2.328125 C 9.789062 -2.898438 9.285156 -3.484375 8.734375 -4.078125 C 8.191406 -4.679688 7.710938 -5.320312 7.296875 -6 C 6.890625 -6.6875 6.644531 -7.410156 6.5625 -8.171875 C 6.476562 -8.929688 6.664062 -9.78125 7.125 -10.71875 C 7.613281 -11.695312 8.320312 -12.414062 9.25 -12.875 C 10.175781 -13.34375 11.242188 -13.53125 12.453125 -13.4375 C 13.671875 -13.34375 14.945312 -12.96875 16.28125 -12.3125 C 16.695312 -12.09375 17.140625 -11.832031 17.609375 -11.53125 C 18.078125 -11.226562 18.507812 -10.90625 18.90625 -10.5625 C 19.300781 -10.226562 19.628906 -9.898438 19.890625 -9.578125 L 18.21875 -5.421875 L 16.40625 -6.171875 L 16.859375 -9.296875 C 16.453125 -9.867188 15.878906 -10.34375 15.140625 -10.71875 C 14.390625 -11.082031 13.679688 -11.195312 13.015625 -11.0625 C 12.347656 -10.925781 11.847656 -10.523438 11.515625 -9.859375 C 11.210938 -9.253906 11.15625 -8.660156 11.34375 -8.078125 C 11.539062 -7.503906 11.875 -6.921875 12.34375 -6.328125 C 12.8125 -5.742188 13.316406 -5.144531 13.859375 -4.53125 C 14.398438 -3.914062 14.878906 -3.269531 15.296875 -2.59375 C 15.722656 -1.925781 15.984375 -1.207031 16.078125 -0.4375 C 16.171875 0.320312 16.003906 1.132812 15.578125 2 C 15.109375 2.925781 14.40625 3.617188 13.46875 4.078125 C 12.53125 4.535156 11.441406 4.71875 10.203125 4.625 C 8.960938 4.53125 7.664062 4.140625 6.3125 3.453125 Z M 6.3125 3.453125 "/></g></g></g><g fill="#ff0000" fill-opacity="1"><g transform="translate(285.279341, 84.164482)"><g><path d="M 24.921875 -3.703125 L 22.171875 1.015625 L 20.578125 0 L 21.75 -3.546875 C 21.613281 -3.703125 21.457031 -3.851562 21.28125 -4 C 21.113281 -4.144531 20.925781 -4.300781 20.71875 -4.46875 L 19.890625 -5.09375 C 19.742188 -5.207031 19.578125 -5.332031 19.390625 -5.46875 C 19.203125 -5.613281 19.046875 -5.710938 18.921875 -5.765625 C 18.847656 -5.660156 18.613281 -5.359375 18.21875 -4.859375 C 17.820312 -4.367188 17.351562 -3.773438 16.8125 -3.078125 C 16.28125 -2.390625 15.742188 -1.6875 15.203125 -0.96875 L 13.46875 1.28125 C 12.769531 2.1875 12.148438 3.003906 11.609375 3.734375 C 11.066406 4.472656 10.65625 5.039062 10.375 5.4375 L 12.25 7.390625 L 11.203125 8.59375 L 3.65625 2.8125 L 4.546875 1.484375 L 6.921875 2.78125 C 7.234375 2.414062 7.675781 1.875 8.25 1.15625 C 8.820312 0.445312 9.457031 -0.359375 10.15625 -1.265625 L 11.890625 -3.515625 C 12.429688 -4.234375 12.960938 -4.941406 13.484375 -5.640625 C 14.003906 -6.347656 14.457031 -6.953125 14.84375 -7.453125 C 15.226562 -7.953125 15.453125 -8.257812 15.515625 -8.375 C 15.441406 -8.476562 15.3125 -8.601562 15.125 -8.75 C 14.9375 -8.894531 14.769531 -9.023438 14.625 -9.140625 L 13.78125 -9.78125 C 13.582031 -9.925781 13.375 -10.070312 13.15625 -10.21875 C 12.945312 -10.363281 12.753906 -10.484375 12.578125 -10.578125 L 9.484375 -8.4375 L 8.09375 -9.75 L 11.90625 -13.671875 C 12.070312 -13.546875 12.296875 -13.359375 12.578125 -13.109375 C 12.859375 -12.867188 13.160156 -12.613281 13.484375 -12.34375 C 13.804688 -12.070312 14.125 -11.8125 14.4375 -11.5625 C 14.75 -11.3125 15.015625 -11.097656 15.234375 -10.921875 L 21.40625 -6.203125 C 21.625 -6.023438 21.890625 -5.820312 22.203125 -5.59375 C 22.523438 -5.375 22.859375 -5.140625 23.203125 -4.890625 C 23.554688 -4.648438 23.882812 -4.425781 24.1875 -4.21875 C 24.488281 -4.007812 24.734375 -3.835938 24.921875 -3.703125 Z M 24.921875 -3.703125 "/></g></g></g><g fill="#ff0000" fill-opacity="1"><g transform="translate(304.157729, 99.813079)"><g/></g></g><g fill="#ff0000" fill-opacity="1"><g transform="translate(312.404966, 108.286538)"><g><path d="M 6.203125 9.484375 C 5.097656 7.878906 4.40625 6.253906 4.125 4.609375 C 3.84375 2.972656 4.003906 1.4375 4.609375 0 C 5.210938 -1.445312 6.28125 -2.695312 7.8125 -3.75 C 9.039062 -4.601562 10.296875 -5.148438 11.578125 -5.390625 C 12.867188 -5.628906 14.128906 -5.59375 15.359375 -5.28125 C 16.585938 -4.976562 17.753906 -4.40625 18.859375 -3.5625 C 19.972656 -2.726562 20.976562 -1.664062 21.875 -0.375 C 22.40625 0.394531 22.851562 1.210938 23.21875 2.078125 C 23.59375 2.953125 23.816406 3.726562 23.890625 4.40625 L 20.421875 6.984375 L 19.28125 5.4375 L 21.0625 3.0625 C 21.007812 2.601562 20.878906 2.144531 20.671875 1.6875 C 20.472656 1.226562 20.257812 0.832031 20.03125 0.5 C 19.363281 -0.46875 18.5625 -1.144531 17.625 -1.53125 C 16.6875 -1.914062 15.675781 -1.992188 14.59375 -1.765625 C 13.519531 -1.535156 12.410156 -1.023438 11.265625 -0.234375 C 9.984375 0.648438 9.019531 1.632812 8.375 2.71875 C 7.738281 3.8125 7.421875 4.898438 7.421875 5.984375 C 7.429688 7.066406 7.742188 8.054688 8.359375 8.953125 C 8.535156 9.203125 8.769531 9.460938 9.0625 9.734375 C 9.351562 10.015625 9.664062 10.226562 10 10.375 L 8.25 10.78125 L 10.921875 8.9375 C 11.265625 8.695312 11.632812 8.429688 12.03125 8.140625 C 12.425781 7.847656 12.722656 7.613281 12.921875 7.4375 L 12.0625 5.375 L 13.4375 4.546875 L 17.78125 10.859375 L 16.5625 11.796875 L 15.3125 10.8125 C 15.125 10.925781 14.859375 11.101562 14.515625 11.34375 C 14.171875 11.59375 13.804688 11.851562 13.421875 12.125 C 13.140625 12.320312 12.820312 12.554688 12.46875 12.828125 C 12.113281 13.097656 11.6875 13.414062 11.1875 13.78125 C 10.21875 13.351562 9.300781 12.757812 8.4375 12 C 7.582031 11.25 6.835938 10.410156 6.203125 9.484375 Z M 6.203125 9.484375 "/></g></g></g><g fill="#ff0000" fill-opacity="1"><g transform="translate(326.430319, 129.498277)"><g><path d="M 17.03125 -5.71875 L 20.109375 1.890625 L 18.734375 2.546875 L 17.515625 0.90625 C 17.316406 0.96875 17.007812 1.070312 16.59375 1.21875 C 16.175781 1.363281 15.675781 1.546875 15.09375 1.765625 C 14.519531 1.984375 13.859375 2.242188 13.109375 2.546875 L 10.171875 3.734375 C 9.085938 4.179688 8.226562 4.707031 7.59375 5.3125 C 6.96875 5.925781 6.585938 6.613281 6.453125 7.375 C 6.316406 8.132812 6.425781 8.953125 6.78125 9.828125 C 7.125 10.691406 7.597656 11.335938 8.203125 11.765625 C 8.804688 12.191406 9.539062 12.390625 10.40625 12.359375 C 11.28125 12.335938 12.28125 12.097656 13.40625 11.640625 L 15.796875 10.671875 C 16.671875 10.328125 17.460938 10 18.171875 9.6875 C 18.878906 9.375 19.445312 9.113281 19.875 8.90625 C 20.300781 8.707031 20.539062 8.578125 20.59375 8.515625 L 20.265625 6.34375 L 21.71875 5.84375 L 24.28125 12.171875 L 22.890625 12.828125 L 21.6875 11.1875 C 21.613281 11.207031 21.347656 11.289062 20.890625 11.4375 C 20.441406 11.59375 19.859375 11.804688 19.140625 12.078125 C 18.421875 12.347656 17.625 12.65625 16.75 13 L 13.890625 14.171875 C 12.398438 14.773438 11 15.019531 9.6875 14.90625 C 8.375 14.800781 7.21875 14.363281 6.21875 13.59375 C 5.21875 12.820312 4.441406 11.742188 3.890625 10.359375 C 2.929688 8.003906 2.820312 5.929688 3.5625 4.140625 C 4.3125 2.359375 5.835938 1.003906 8.140625 0.078125 L 11.546875 -1.3125 C 12.335938 -1.625 13.050781 -1.914062 13.6875 -2.1875 C 14.320312 -2.46875 14.828125 -2.695312 15.203125 -2.875 C 15.578125 -3.050781 15.789062 -3.164062 15.84375 -3.21875 L 15.578125 -5.21875 Z M 17.03125 -5.71875 "/></g></g></g><g fill="#ff0000" fill-opacity="1"><g transform="translate(335.797264, 154.547405)"><g><path d="M 0 -0.03125 L 1.5 -0.390625 L 2.234375 1.109375 L 18.109375 4.65625 L 19.96875 6.921875 L 4.921875 16.671875 L 4.734375 18.3125 L 3.203125 18.484375 L 1.796875 10.421875 L 3.296875 10.0625 L 4.109375 11.90625 L 7.703125 9.609375 L 8.671875 9.109375 L 15.28125 4.859375 L 15.171875 5.78125 L 7.96875 4.46875 L 7.015625 4.34375 L 2.671875 3.59375 L 2.53125 5.59375 L 1 5.78125 Z M 5.9375 3.78125 L 7.984375 3.4375 C 8.023438 3.832031 8.070312 4.285156 8.125 4.796875 C 8.1875 5.304688 8.289062 5.976562 8.4375 6.8125 C 8.570312 7.625 8.703125 8.289062 8.828125 8.8125 C 8.953125 9.34375 9.054688 9.796875 9.140625 10.171875 L 7.109375 10.515625 C 7.046875 10.140625 6.976562 9.675781 6.90625 9.125 C 6.832031 8.582031 6.726562 7.914062 6.59375 7.125 C 6.445312 6.3125 6.316406 5.644531 6.203125 5.125 C 6.097656 4.601562 6.007812 4.15625 5.9375 3.78125 Z M 5.9375 3.78125 "/></g></g></g><g fill="#ff0000" fill-opacity="1"><g transform="translate(339.366929, 178.272619)"><g><path d="M -0.046875 1.28125 L 1.484375 1.234375 L 1.9375 3.203125 C 2.0625 3.210938 2.296875 3.226562 2.640625 3.25 C 2.984375 3.269531 3.390625 3.289062 3.859375 3.3125 C 4.328125 3.34375 4.804688 3.367188 5.296875 3.390625 C 5.785156 3.421875 6.222656 3.441406 6.609375 3.453125 L 11.078125 3.609375 C 11.929688 3.628906 12.695312 3.640625 13.375 3.640625 C 14.050781 3.648438 14.601562 3.644531 15.03125 3.625 C 15.457031 3.613281 15.71875 3.59375 15.8125 3.5625 L 16.359375 1.609375 L 17.890625 1.75 L 17.625 9.671875 C 17.539062 12.015625 17.109375 13.726562 16.328125 14.8125 C 15.546875 15.90625 14.359375 16.425781 12.765625 16.375 C 11.765625 16.34375 10.878906 16.007812 10.109375 15.375 C 9.347656 14.75 8.757812 13.890625 8.34375 12.796875 C 7.9375 11.710938 7.753906 10.476562 7.796875 9.09375 L 7.875 7.109375 L 9.65625 7.171875 L 9.609375 8.546875 C 9.566406 9.566406 9.847656 10.394531 10.453125 11.03125 C 11.054688 11.675781 11.878906 12.015625 12.921875 12.046875 C 13.867188 12.078125 14.597656 11.84375 15.109375 11.34375 C 15.628906 10.84375 15.90625 10.09375 15.9375 9.09375 L 15.96875 7.921875 C 15.90625 7.898438 15.734375 7.878906 15.453125 7.859375 C 15.171875 7.835938 14.8125 7.816406 14.375 7.796875 C 13.945312 7.785156 13.460938 7.769531 12.921875 7.75 C 12.378906 7.738281 11.804688 7.722656 11.203125 7.703125 L 6.484375 7.546875 C 5.953125 7.523438 5.367188 7.507812 4.734375 7.5 C 4.097656 7.488281 3.507812 7.484375 2.96875 7.484375 C 2.4375 7.492188 2.046875 7.503906 1.796875 7.515625 L 1.234375 9.21875 L -0.296875 9.078125 Z M -0.921875 17.203125 C -0.890625 16.066406 -0.675781 15.0625 -0.28125 14.1875 C 0.113281 13.320312 0.707031 12.550781 1.5 11.875 C 2.300781 11.195312 3.300781 10.601562 4.5 10.09375 L 8.328125 8.46875 L 9.015625 11.890625 L 3.8125 15.34375 C 3.207031 15.75 2.691406 16.148438 2.265625 16.546875 C 1.847656 16.941406 1.503906 17.359375 1.234375 17.796875 C 0.960938 18.242188 0.75 18.71875 0.59375 19.21875 L -0.8125 19.140625 C -0.863281 18.804688 -0.894531 18.484375 -0.90625 18.171875 C -0.925781 17.859375 -0.929688 17.535156 -0.921875 17.203125 Z M -0.921875 17.203125 "/></g></g></g><g fill="#ff0000" fill-opacity="1"><g transform="translate(338.12837, 202.635444)"><g><path d="M 17.109375 5.546875 L 15.03125 13.71875 C 14.21875 16.914062 12.835938 19.222656 10.890625 20.640625 C 8.941406 22.054688 6.632812 22.425781 3.96875 21.75 C 2.25 21.3125 0.820312 20.5 -0.3125 19.3125 C -1.457031 18.125 -2.21875 16.6875 -2.59375 15 C -2.976562 13.3125 -2.925781 11.507812 -2.4375 9.59375 L -0.28125 1.125 L 1.21875 1.40625 L 1.203125 3.4375 C 1.335938 3.53125 1.828125 3.703125 2.671875 3.953125 C 3.515625 4.210938 4.53125 4.492188 5.71875 4.796875 L 10.046875 5.890625 C 11.285156 6.210938 12.335938 6.460938 13.203125 6.640625 C 14.078125 6.816406 14.570312 6.890625 14.6875 6.859375 L 15.640625 5.078125 Z M 13.578125 11.09375 C 13.453125 11.070312 13.195312 11.003906 12.8125 10.890625 C 12.4375 10.785156 11.9375 10.644531 11.3125 10.46875 C 10.695312 10.300781 9.9375 10.101562 9.03125 9.875 L 4.703125 8.78125 C 4.179688 8.644531 3.640625 8.507812 3.078125 8.375 C 2.523438 8.25 2.003906 8.140625 1.515625 8.046875 C 1.035156 7.960938 0.65625 7.894531 0.375 7.84375 C 0.175781 8.28125 0 8.710938 -0.15625 9.140625 C -0.320312 9.578125 -0.457031 9.992188 -0.5625 10.390625 C -0.988281 12.078125 -0.828125 13.472656 -0.078125 14.578125 C 0.671875 15.679688 2.09375 16.5 4.1875 17.03125 C 5.570312 17.382812 6.789062 17.519531 7.84375 17.4375 C 8.894531 17.363281 9.785156 17.128906 10.515625 16.734375 C 11.242188 16.335938 11.832031 15.816406 12.28125 15.171875 C 12.738281 14.523438 13.070312 13.800781 13.28125 13 C 13.351562 12.707031 13.410156 12.398438 13.453125 12.078125 C 13.503906 11.765625 13.546875 11.4375 13.578125 11.09375 Z M 13.578125 11.09375 "/></g></g></g><path fill="#ff0000" d="M 164.3125 211.492188 C 164.207031 211.492188 164.097656 211.480469 163.988281 211.453125 L 157.859375 209.882812 C 157.167969 209.707031 156.75 209.003906 156.925781 208.308594 C 157.105469 207.617188 157.800781 207.199219 158.5 207.378906 L 164.632812 208.949219 C 165.324219 209.125 165.738281 209.828125 165.5625 210.523438 C 165.414062 211.105469 164.886719 211.492188 164.3125 211.492188 Z M 164.3125 211.492188 " fill-opacity="1" fill-rule="nonzero"/><path fill="#ff0000" d="M 147.414062 207.621094 C 147.351562 207.621094 147.292969 207.617188 147.234375 207.609375 C 144.800781 207.273438 142.1875 207.019531 139.46875 206.859375 C 138.753906 206.820312 138.210938 206.207031 138.253906 205.496094 C 138.296875 204.78125 138.894531 204.253906 139.617188 204.28125 C 142.410156 204.445312 145.089844 204.703125 147.589844 205.050781 C 148.296875 205.148438 148.789062 205.800781 148.691406 206.507812 C 148.601562 207.15625 148.046875 207.621094 147.414062 207.621094 Z M 147.414062 207.621094 " fill-opacity="1" fill-rule="nonzero"/><path fill="#ff0000" d="M 180.519531 215.640625 C 180.414062 215.640625 180.304688 215.628906 180.199219 215.601562 L 174.253906 214.078125 C 173.5625 213.902344 173.144531 213.199219 173.324219 212.507812 C 173.5 211.816406 174.199219 211.394531 174.894531 211.574219 L 180.839844 213.097656 C 181.53125 213.273438 181.949219 213.976562 181.769531 214.667969 C 181.621094 215.253906 181.097656 215.640625 180.519531 215.640625 Z M 180.519531 215.640625 " fill-opacity="1" fill-rule="nonzero"/><path fill="#ff0000" d="M 56.09375 219.667969 C 48.0625 219.667969 40.03125 218.886719 33.917969 217.320312 L 1.121094 208.929688 C 0.433594 208.753906 0.015625 208.050781 0.191406 207.359375 C 0.367188 206.667969 1.070312 206.246094 1.765625 206.425781 L 34.558594 214.820312 C 46.433594 217.855469 65.757812 217.855469 77.632812 214.816406 L 110.421875 206.425781 C 116.574219 204.851562 124.761719 204.027344 133.480469 204.082031 C 134.195312 204.089844 134.769531 204.671875 134.761719 205.382812 C 134.757812 206.09375 134.179688 206.667969 133.46875 206.667969 C 133.46875 206.667969 133.464844 206.667969 133.460938 206.667969 C 125.097656 206.597656 116.917969 207.433594 111.0625 208.929688 L 78.273438 217.320312 C 72.15625 218.886719 64.125 219.667969 56.09375 219.667969 Z M 56.09375 219.667969 " fill-opacity="1" fill-rule="nonzero"/><path fill="#ff0000" d="M 56.09375 239.382812 C 48.0625 239.382812 40.03125 238.597656 33.917969 237.035156 L 1.121094 228.644531 C 0.433594 228.46875 0.015625 227.761719 0.191406 227.070312 C 0.367188 226.378906 1.070312 225.960938 1.765625 226.140625 L 34.558594 234.53125 C 46.433594 237.570312 65.757812 237.570312 77.632812 234.53125 L 110.421875 226.140625 C 122.652344 223.011719 142.546875 223.011719 154.777344 226.140625 L 187.566406 234.53125 C 188.253906 234.707031 188.671875 235.410156 188.496094 236.101562 C 188.316406 236.792969 187.617188 237.210938 186.921875 237.035156 L 154.136719 228.644531 C 142.261719 225.605469 122.9375 225.605469 111.0625 228.644531 L 78.273438 237.035156 C 72.160156 238.597656 64.125 239.382812 56.09375 239.382812 Z M 56.09375 239.382812 " fill-opacity="1" fill-rule="nonzero"/><path fill="#ff0000" d="M 56.050781 259.09375 C 53.324219 259.09375 50.578125 259.003906 47.882812 258.816406 C 47.171875 258.769531 46.636719 258.152344 46.683594 257.4375 C 46.734375 256.726562 47.34375 256.1875 48.0625 256.238281 C 58.640625 256.964844 69.972656 256.203125 77.632812 254.242188 L 110.421875 245.851562 C 122.648438 242.722656 142.546875 242.722656 154.777344 245.851562 L 187.5625 254.242188 C 188.253906 254.417969 188.671875 255.125 188.496094 255.816406 C 188.316406 256.507812 187.617188 256.925781 186.921875 256.746094 L 154.136719 248.355469 C 142.257812 245.316406 122.9375 245.316406 111.058594 248.355469 L 78.273438 256.746094 C 72.332031 258.269531 64.28125 259.09375 56.050781 259.09375 Z M 56.050781 259.09375 " fill-opacity="1" fill-rule="nonzero"/><path fill="#ff0000" d="M 30.371094 255.800781 C 30.265625 255.800781 30.160156 255.785156 30.050781 255.757812 L 19.074219 252.949219 C 18.382812 252.773438 17.96875 252.070312 18.144531 251.375 C 18.320312 250.6875 19.019531 250.265625 19.71875 250.445312 L 30.691406 253.253906 C 31.382812 253.433594 31.800781 254.136719 31.625 254.828125 C 31.472656 255.410156 30.949219 255.800781 30.371094 255.800781 Z M 30.371094 255.800781 " fill-opacity="1" fill-rule="nonzero"/><path fill="#ff0000" d="M 7.808594 250.023438 C 7.703125 250.023438 7.597656 250.011719 7.488281 249.984375 L 1.121094 248.355469 C 0.429688 248.179688 0.015625 247.476562 0.191406 246.78125 C 0.367188 246.089844 1.070312 245.671875 1.765625 245.851562 L 8.128906 247.480469 C 8.820312 247.65625 9.238281 248.363281 9.0625 249.054688 C 8.910156 249.636719 8.386719 250.023438 7.808594 250.023438 Z M 7.808594 250.023438 " fill-opacity="1" fill-rule="nonzero"/><path fill="#ff0000" d="M 56.09375 278.808594 C 48.0625 278.808594 40.03125 278.023438 33.917969 276.460938 L 1.121094 268.070312 C 0.433594 267.890625 0.015625 267.1875 0.191406 266.496094 C 0.367188 265.804688 1.070312 265.386719 1.765625 265.566406 L 34.558594 273.957031 C 46.433594 276.996094 65.757812 276.996094 77.632812 273.957031 L 110.421875 265.566406 C 122.652344 262.4375 142.546875 262.4375 154.777344 265.566406 L 187.566406 273.957031 C 188.253906 274.132812 188.671875 274.835938 188.496094 275.527344 C 188.316406 276.21875 187.617188 276.636719 186.921875 276.460938 L 154.136719 268.070312 C 142.261719 265.03125 122.9375 265.03125 111.0625 268.070312 L 78.273438 276.460938 C 72.160156 278.023438 64.128906 278.808594 56.09375 278.808594 Z M 56.09375 278.808594 " fill-opacity="1" fill-rule="nonzero"/><path fill="#ff0000" d="M 187.242188 296.210938 C 187.136719 296.210938 187.03125 296.199219 186.921875 296.171875 L 181.523438 294.789062 C 180.835938 294.613281 180.417969 293.910156 180.59375 293.21875 C 180.769531 292.527344 181.46875 292.105469 182.167969 292.289062 L 187.566406 293.667969 C 188.253906 293.84375 188.671875 294.550781 188.496094 295.242188 C 188.34375 295.824219 187.820312 296.210938 187.242188 296.210938 Z M 187.242188 296.210938 " fill-opacity="1" fill-rule="nonzero"/><path fill="#ff0000" d="M 175.519531 293.214844 C 175.414062 293.214844 175.308594 293.199219 175.199219 293.171875 L 159.492188 289.152344 C 158.800781 288.976562 158.386719 288.273438 158.5625 287.582031 C 158.738281 286.890625 159.4375 286.46875 160.136719 286.648438 L 175.84375 290.667969 C 176.53125 290.847656 176.949219 291.550781 176.773438 292.242188 C 176.621094 292.824219 176.097656 293.214844 175.519531 293.214844 Z M 175.519531 293.214844 " fill-opacity="1" fill-rule="nonzero"/><g clip-path="url(#440062c5da)"><path fill="#ff0000" d="M 56.09375 298.519531 C 48.0625 298.519531 40.03125 297.738281 33.917969 296.171875 L 1.121094 287.78125 C 0.433594 287.605469 0.015625 286.902344 0.191406 286.207031 C 0.367188 285.519531 1.070312 285.097656 1.765625 285.277344 L 34.558594 293.671875 C 46.433594 296.707031 65.757812 296.707031 77.632812 293.667969 L 110.421875 285.277344 C 121.273438 282.5 138.226562 282.132812 150.730469 284.402344 C 151.433594 284.53125 151.898438 285.203125 151.769531 285.90625 C 151.644531 286.609375 150.976562 287.078125 150.269531 286.945312 C 138.285156 284.769531 121.429688 285.128906 111.0625 287.78125 L 78.273438 296.171875 C 72.15625 297.738281 64.125 298.519531 56.09375 298.519531 Z M 56.09375 298.519531 " fill-opacity="1" fill-rule="nonzero"/></g></svg>