<?xml version="1.0" encoding="UTF-8"?>
<svg id="Layer_1" xmlns="http://www.w3.org/2000/svg" version="1.1" xmlns:xlink="http://www.w3.org/1999/xlink" viewBox="0 0 362 500">
  <!-- Generator: Adobe Illustrator 29.3.1, SVG Export Plug-In . SVG Version: 2.1.0 Build 151)  -->
  <defs>
    <style>
      .st0 {
        clip-path: url(#clippath-6);
      }

      .st1 {
        clip-path: url(#clippath-7);
      }

      .st2 {
        clip-path: url(#clippath-4);
      }

      .st3 {
        fill: #603a12;
      }

      .st4 {
        clip-path: url(#clippath-9);
      }

      .st5 {
        clip-path: url(#clippath-10);
      }

      .st6 {
        stroke: #e6affc;
        stroke-width: 10px;
      }

      .st6, .st7 {
        fill: none;
      }

      .st8 {
        clip-path: url(#clippath-1);
      }

      .st9 {
        clip-path: url(#clippath-5);
      }

      .st10 {
        clip-path: url(#clippath-8);
      }

      .st11 {
        clip-path: url(#clippath-3);
      }

      .st12 {
        fill: #efa95a;
      }

      .st13 {
        fill: #e4fcfc;
      }

      .st14 {
        clip-path: url(#clippath-2);
      }

      .st15 {
        clip-path: url(#clippath);
      }
    </style>
    <clipPath id="clippath">
      <rect class="st7" x=".7" y="3.8" width="360" height="490"/>
    </clipPath>
    <clipPath id="clippath-1">
      <rect class="st7" x="49.4" y="47" width="266.1" height="241.6"/>
    </clipPath>
    <clipPath id="clippath-2">
      <path class="st7" d="M182.4,47c-73.5,0-133,54.1-133,120.8s59.6,120.8,133,120.8,133-54.1,133-120.8-59.6-120.8-133-120.8Z"/>
    </clipPath>
    <clipPath id="clippath-3">
      <rect class="st7" x="49.4" y="47" width="266.1" height="241.6"/>
    </clipPath>
    <clipPath id="clippath-4">
      <path class="st7" d="M182.4,47c-73.5,0-133,54.1-133,120.8s59.6,120.8,133,120.8,133-54.1,133-120.8-59.6-120.8-133-120.8Z"/>
    </clipPath>
    <clipPath id="clippath-5">
      <rect class="st7" x="60.1" y="227.7" width="243.6" height="52.4"/>
    </clipPath>
    <clipPath id="clippath-6">
      <path class="st7" d="M60.1,177.6c0,27.2,11.9,53.4,33.1,72.6,21.2,19.3,50,30.1,80,30.1h18c30,0,58.8-10.8,80-30.1,21.2-19.2,33.1-45.4,33.1-72.6s-11.9-53.3-33.1-72.6c-21.2-19.2-50-30.1-80-30.1h-18c-30,0-58.8,10.8-80,30.1-21.2,19.3-33.1,45.4-33.1,72.6Z"/>
    </clipPath>
    <clipPath id="clippath-7">
      <rect class="st7" x="60.1" y="227.7" width="241.9" height="52.4"/>
    </clipPath>
    <clipPath id="clippath-8">
      <path class="st7" d="M60.1,177.6c0,27.2,11.9,53.4,33.1,72.6,21.2,19.3,50,30.1,80,30.1h18c30,0,58.8-10.8,80-30.1,21.2-19.2,33.1-45.4,33.1-72.6s-11.9-53.3-33.1-72.6c-21.2-19.2-50-30.1-80-30.1h-18c-30,0-58.8,10.8-80,30.1-21.2,19.3-33.1,45.4-33.1,72.6Z"/>
    </clipPath>
    <clipPath id="clippath-9">
      <rect class="st7" x="75" y="74.9" width="227" height="174.1"/>
    </clipPath>
    <clipPath id="clippath-10">
      <path class="st7" d="M60.1,177.6c0,27.2,11.9,53.4,33.1,72.6,21.2,19.3,50,30.1,80,30.1h18c30,0,58.8-10.8,80-30.1,21.2-19.2,33.1-45.4,33.1-72.6s-11.9-53.3-33.1-72.6c-21.2-19.2-50-30.1-80-30.1h-18c-30,0-58.8,10.8-80,30.1-21.2,19.3-33.1,45.4-33.1,72.6Z"/>
    </clipPath>
  </defs>
  <g class="st15">
    <path class="st13" d="M180.7,239c-48,0-86.9-35.3-86.9-78.9s38.9-78.9,86.9-78.9,86.9,35.3,86.9,78.9-38.9,78.9-86.9,78.9ZM336.1,86.4C285.9,8.5,175.6-17.7,89.9,27.8,4.1,73.4-24.8,173.5,25.4,251.4l155.3,241.1,155.3-241.1c31.5-49.3,33.9-112.3,0-165"/>
  </g>
  <g class="st8">
    <g class="st14">
      <path class="st13" d="M49.4,47h266.1v241.6H49.4V47Z"/>
    </g>
  </g>
  <g class="st11">
    <g class="st2">
      <path class="st6" d="M182.4,47c-73.5,0-133,54.1-133,120.8s59.6,120.8,133,120.8,133-54.1,133-120.8-59.6-120.8-133-120.8Z"/>
    </g>
  </g>
  <g class="st9">
    <g class="st0">
      <path class="st12" d="M60.1,229.6h243.5s-1.2,16.5-7.8,23c-6.6,6.5-15.8,11.3-19.3,13.9s-16.5,4.9-24.2,7.6c-7.7,2.8-77.7,5.7-88,5.9-10.3.2-64.8-7.4-72.8-7.4s-13.1-4.3-15.1-10.6c-2-6.3-7.4-10.4-8-13.2-.6-2.8-8.4-11-8.4-19.3Z"/>
    </g>
  </g>
  <g class="st1">
    <g class="st10">
      <path class="st3" d="M142,229.6l-24.7,5.6-24.1-2.4-25.1-.2,25.5,1.1,20.7,2.1-15.7.2-36.2,2.4c0,0,0,.2.1.2.2.5.5,1,.8,1.5l34.7-3,5.4,9.7-31.1,7.9c.3.4.6.7.9,1.2,0,0,0,.1.1.2l32.6-8.6,24.3,7.7-37.5,6.3-16.3.7c.3.8.6,1.5.9,2.3s.7,1.4,1.2,2.1c0,0,.1.1.2.2l3.8-1.8,13.5-1,42.2-7.1,2.4,6.7,35.7,2.3c-5.9,1-13.9,2.5-21.1,4-4.7,1-20.3,3.3-37.1,5.7,3.1.4,5.8.7,9,1,.2,0,.3,0,.5,0l54.8-9.6,25.1,11.3c.7,0,1.2,0,1.9,0,2.9-.2,5.6-.3,8.5-.5l-4.9-2.2,20.4-3.7,12.8-4-12.9,2.6-28.4,1.4-13-5.8s-3.7-1.7-6.5-1.6c-3.4-.2-32.8-1.6-38.5-4.1-6-2.7-5.6-12.1-5.6-12.1l26.4.9,16,2.7,18.6-2.4-18.8.3-13.9-6.4,2-5.2,14.5-2.1,7.3-5.3c5.7,2.5,14,6.1,16.6,6.9l7,12.4-10.6,3.8s-3.4,6-3.9,6-9.4,2.1-9.4,2.1l11.9-1.4,3-5.7,14.5-4.3-8.8-12.5c7.4.5,26.2,2.2,26.2,2.2l20,6.4,27.5-5.2,12.9,4.1c.3-.8.6-1.6.9-2.4l-14.3-4.8-26.4,6.4-16.9-7.3s-30.1-1.2-31.3-2c-1-.6-12.6-4.1-17.5-5.6h-3.3c.6.2.5.2,1.1.5l-9.2,4.8-13.1.7-6.8,4.6-29.6,5.3,1.4,2.4,2.2,6.1-3.3.6-28.4-8.8-6.1-8.7,17,.4,30.6-7.8h-5ZM164.1,242.9l5.5,2.2,9.7,4.4-12.9-2.8-23-.9,20.7-2.9ZM250.5,250.6l-17.2,1.4-6.6,1.3,22.7-1.2,15.3,1,8.8-1.7-9.3.9-13.7-1.7ZM286.7,259.9l-5.1,1.7-55.7-1.5,41.7,2.8,4.8,5.5c.9-.3,1.7-.6,2.4-.9.7-.3,1.3-.6,1.7-1l-2.8-3.2,7,.5c1.3-.8,2.8-1.7,4.3-2.7.5-.3,1.1-.7,1.6-1.1Z"/>
    </g>
  </g>
  <g class="st4">
    <g class="st5">
      <path class="st3" d="M268,74.9s-.8,1.7-1.8,3.7c-.5,1-1,2.2-1.5,3.2s-1,2.1-1.3,2.9c0,0,0,0,0,0-.2.4-.6,1.1-1.3,1.9t0,0h0s0,0,0,0c-.6.8-1.5,1.8-2.4,3,0,0,0,0-.1.1,0,0-.1.1-.2.2-6.1,7.2-16.9,18.8-17.2,19.5-.2.5-.2,2.3-.1,4,0,1.3.1,2.6.1,2.9h0c0,.2-.4,1.1-1,2.4-.6,1.3-1.5,3-2.3,4.9l-.6,1.2h0c-1.5,3.3-3,6.8-3.3,8.7-.7,4.2-10.1,21.1-10.1,21.1,0,0-6.2,12-8.3,15.9-.2.3-.6,1.2-.7,1.4,0,0,0,0,0,0-.2.3-.5.8-.9,1.3,0,0,0,0,0,0-.5.6-1,1.3-1.7,2.1,0,0-.2.2-.2.3-1.2,1.4-2.6,3.1-4.1,4.6l-.2.2c-.2.2-.3.4-.5.6-2.8,3.1-5.4,5.9-5.5,6,0,0-.1.1-.1.1h0s.1-2.1.3-4.7c.2-2.6.4-5.8.5-8.1,0-.6,0-1.4,0-2.3s0-1.8,0-2.9c0-7.4-.4-19,.1-21.1.7-2.7,4-10.6,6-15.7,2-5.1,5.2-12.1,8.3-14.6h0c.2-.2.4-.3.6-.5.2-.2.4-.4.6-.7,0,0,0,0,0,0,.2-.2.4-.5.6-.7.2-.3.4-.5.5-.8,0,0,0-.2.1-.2.2-.3.3-.6.5-.8.2-.3.3-.6.4-.8.4-.8.8-1.7,1.2-2.5.3-.6.6-1.2.8-1.8.2-.6.4-1.1.6-1.5.4-1,.7-1.7.7-1.7h0s0,0,0,0c0,0-.1,0-.2,0s0,0-.1,0h0c-.4.1-1.2.2-2.5-.3-.6-.2-1.4-.7-2.3-1.3-3.5-2.5-3.2-14.2-3.2-14.2,0,0-1.9,3.2-1.2,7.4.4,2.1.5,5,.5,7.7h0c0,1.3,0,2.6-.1,3.7h0c0,1.2-.2,2.2-.3,2.8-.6,2.5-9.7,14-11.7,16.4-1.5,1.7-2.4,5.3-3.1,10,0,0,0,0,0,0h0s0,0,0,0c-.1.8-.2,1.6-.3,2.5,0,.8-.2,1.6-.3,2.4,0,0,0,.2,0,.3-.2,1.8-.7,3.3-1.4,4.4h0c-2.1,3.4-6.1,3.7-8.1,2.3-.2-.1-.4-.3-.7-.4s-.7-.4-1.2-.6c-2.7-1.4-7.6-3.7-12.3-6-4.7-2.3-9.3-4.7-11.4-6.2-.7-.5-1.2-.9-1.3-1.2-.8-2.3.3-11.3-.1-12.3-.5-1-7.5-25.9-7.5-25.9l5.6-15.1s-3.3,5.5-3.9,6.4c-.6,1-5.3,6.7-5.7,8.4-.4,1.7,1,4.1,2.1,8.4,1.1,4.4,3.8,20.5,3.8,24,0,3.4,1.9,10.5,1.9,10.5,0,0,8,6,9.1,6.6,1.1.6,21.3,10.6,21.3,10.6,0,0,5.4,16.9,5.3,18.4,0,.4-.3,1.3-.7,2.4,0,0,0,0,0,0,0,0,0,.1,0,.2-.4,1.2-.9,2.5-1.5,3.9-.5,1.3-1,2.6-1.4,3.6-.2.5-.4.9-.5,1.3-.1.3-.2.5-.2.6h0c0,.1-.6.8-1.4,1.8-.8,1-1.9,2.2-3,3.4-.8.9-.9,1-1.5,1.7-1.3,1.4-2.9,3.2-2.9,3.2l-4.4-2.5s-5.9-8.6-6.8-9.5c-.8-1-10.3-14.3-10.3-14.3,0,0-5.3-6.5-6.6-8.9-1.2-2.4-3.1-5.7-3.1-5.7,0,0-4.2-1.2-5-1.2s-4.5-2.4-5.7-4.1-6.9-9.2-7-9.7c0-.5.1-5.4.1-5.4,0,0-1.1-15.2-.9-19,.2-3.9-.9-18.7-.9-18.7,0,0-1.3,4-1.7,6.6s-.4,30.5-.4,30.5c0,0-1.4-1.3-1.7-1.5s-3.8-1.8-4.1-2.3c-.2-.5,0-2.7.1-3.2.1-.5-8.7-12.2-8.7-12.2l-2.4.3s7.2,9.7,7.6,10.5c.4.7-1.6,4.3-.9,5,.7.6,5.7,4,7.1,6,1.5,2,10.4,19.2,10.1,19.5s-21.2.4-22.5.4-13.5-5.8-16-7.5c-2.4-1.7-11-8.5-11.6-8.5s-7.3-1.5-7.3-1.5l-1.5,1.5s5.2,1.6,6.8,1.7c1.7,0,3.6,4.3,5.3,5.1,1.7.8,11.7,9,12.6,8.9.9,0,7.3,2,10.9,2.3,3.6.3,16.1.6,20.5.6s13.2,3.7,15.1,4.9c1.8,1.2,6.1,4,9.2,11.7,3.1,7.7,12.4,24.1,13.1,28.1s-.6,4.1-3.1,8.4-3.3,9.7-3.8,16-1.9,14.1-1.9,14.1c0,0,8,3.4,16.7,3.7,4,.1,8.8-.6,12.8-1.4.5-.1.9-.2,1.4-.3.9-.2,1.8-.4,2.7-.6s1.5-.4,2.1-.5c1.4-.4,2.4-.6,2.4-.6h0s0-.1,0-.1c0,0-.6-.9-1.3-2.1,0-.1-.1-.2-.2-.3,0,0,0-.1-.1-.2-.4-.7-.9-1.5-1.3-2.5,0,0,0,0,0-.1,0,0,0,0,0,0-.5-1-1.1-2.2-1.6-3.4h0c-1.1-2.5-2.1-5.2-2.7-7.9,0,0,0,0,0,0-.1-.7-.2-1.3-.3-2-.2-2-.2-3.9.3-5.6.2-.8.6-1.6.9-2.5h0c.2-.4.3-.7.5-1.1.6-1.2,1.3-2.6,2.1-3.9,0,0,0,0,0,0,0,0,0,0,0,0,3.3-5.5,8.2-11.7,14.1-18.5,3-3.4,6.1-6.9,9.4-10.5,13.2-14.4,32.9-21.7,35.5-21.6.2,0,.5,0,.8.2.1,0,.2.1.4.2h0c1.3.8,3.1,2.6,4.9,4.3h0c.6.6,1.2,1.2,1.8,1.8.3.3.6.5.8.8.3.2.6.5.8.7s0,0,0,0c.2.2.5.4.7.6.2.2.4.3.6.5s.4.2.6.3h0c0,0,.2,0,.2,0s.1,0,.2,0,.2,0,.2,0c.1,0,.2,0,.3-.2.3-.1.6-.4.9-.6,0,0,0,0,0,0,.4-.3.7-.6,1.2-.9.5-.4.9-.8,1.5-1.3.5-.5,1.1-1,1.7-1.5s1.2-1.1,1.8-1.7c1.2-1.2,2.5-2.4,3.8-3.6,1.3-1.2,2.6-2.5,3.7-3.7,1.1-1.1,2.2-2.2,3.1-3.1.1-.1.2-.2.3-.3.9-.9,1.6-1.7,2.2-2.2.6-.6.9-1,1-1s.3-.2.6-.3t0,0c.3-.1.8-.3,1.3-.5,0,0,.1,0,.2,0,.9-.3,2.1-.6,3.3-1,0,0,.1,0,.2,0,.2,0,.4-.1.6-.2,2.2-.6,4.5-1.2,4.5-1.2l1.3-2.3s-.2,0-.2,0c-.1,0-.4,0-1.1.2-.7.1-1.7.3-2.6.4-.3,0-.3,0-.6.1-.5,0-1.1.2-1.6.3-.5.1-1.1.2-1.6.3h-.2c-.5.2-1,.3-1.5.4-.2,0-.4.1-.6.2-.2,0-.3.1-.5.2h0s0,0,0,0c-.3.1-.6.3-1,.5s-.8.4-1.2.7c0,0-.1,0-.2.1-.4.2-.8.5-1.3.8-.5.3-1,.6-1.5.9,0,0,0,0,0,0-2,1.3-4,2.6-5.3,3.4-.3.2-.8.5-1.4.9-.6.4-1.2.9-1.9,1.4-1,.7-2.1,1.6-3.2,2.5-.5.4-.9.7-1.5,1.1-1.6,1.2-3.1,2.4-4.3,3.3h0c-.2.1-.2.2-.4.3-.4.3-.8.6-1.1.8h0c-.4.2-.6.4-.7.4-.8,0-6.6-8.8-6.6-8.8,0,0-.1,0-.1,0,0,0-.3,0-.9.3-.4,0-.8.2-1.3.4-.5.2-1,.3-1.6.5-.1,0-.2,0-.3,0-.6.2-1.2.5-1.9.7-.7.3-1.6.6-2.4,1h0c-.9.4-1.8.8-2.7,1.2-.9.4-1.9.9-2.9,1.4h0c-2.1,1-3.9,2-5.6,2.8h0c-3.2,1.6-5.6,2.6-6.8,2.5h0s0,0,0,0c-.1,0-.3,0-.4-.1-.4-.2-.5-.6-.5-1.2,0-3.2,10.5-33.3,10.5-33.3,0,0,9.3-3.3,12.3-3.9s8.5,1.8,11.4,3c1,.4,1.6.7,1.6.7h0s7.5-6,7.5-6l14.5-1.9h0s0,0,0,0c0,0-.7-.1-1.8-.3-1.1-.2-2.6-.4-4-.7s-3-.5-4.2-.6c-.6,0-1.1-.1-1.5-.2-.2,0-.4,0-.5,0s-.2,0-.3,0c-.1,0-.3,0-.5.2-.2,0-.5.2-.8.3-.6.3-1.4.6-2.2,1,0,0-.1,0-.2,0-.8.4-1.7.7-2.7,1.1,0,0,0,0,0,0h0c-1.1.4-2.2.7-3.3.9h0s0,0,0,0c-.6.1-1.3.2-2.1.2h-.2c-.8,0-1.7,0-2.6-.2h0s0,0-.1,0c-.9,0-1.9-.2-2.9-.3,0,0-.2,0-.2,0-1.1-.2-2.2-.3-3.3-.5,0,0,0,0-.2,0-2-.3-3.9-.7-5.3-1,0,0,0,0-.1,0-1.5-.3-2.4-.5-2.4-.5,0,0-.7-6.8,0-10,.2-.8,1.2-2.4,2.6-4.3h0c1.4-1.9,3.2-4.2,5-6.5s3.7-4.6,5.2-6.5c.7-.9,1.4-1.8,1.9-2.5.3-.4.5-.7.7-.9.2-.3.3-.5.4-.7,0-.2.2-.4.3-.7.1-.2.2-.5.3-.8.2-.7.5-1.6.8-2.6.2-.8.5-1.6.7-2.5.3-.9.5-1.9.8-2.9.5-1.9.9-3.7,1.3-5,.3-1.2.4-1.8.5-2v-.2s0,0,0,0h0Z"/>
    </g>
  </g>
</svg>