<?xml version="1.0" encoding="UTF-8"?>
<svg id="Layer_1" xmlns="http://www.w3.org/2000/svg" version="1.1" xmlns:xlink="http://www.w3.org/1999/xlink" viewBox="0 0 362 500">
  <!-- Generator: Adobe Illustrator 29.3.1, SVG Export Plug-In . SVG Version: 2.1.0 Build 151)  -->
  <defs>
    <style>
      .st0 {
        fill: #f79326;
      }

      .st1 {
        clip-path: url(#clippath-4);
      }

      .st2, .st3 {
        fill: none;
      }

      .st4 {
        clip-path: url(#clippath-1);
      }

      .st5 {
        clip-path: url(#clippath-5);
      }

      .st6 {
        clip-path: url(#clippath-3);
      }

      .st3 {
        stroke: #ff5757;
        stroke-width: 10px;
      }

      .st7 {
        fill: #e4fcfc;
      }

      .st8 {
        clip-path: url(#clippath-2);
      }

      .st9 {
        fill: #f1473a;
      }

      .st10 {
        fill: #fff533;
      }

      .st11 {
        clip-path: url(#clippath);
      }
    </style>
    <clipPath id="clippath">
      <rect class="st2" x="2.7" y=".7" width="360" height="500"/>
    </clipPath>
    <clipPath id="clippath-1">
      <rect class="st2" x="51" y="43.9" width="263.2" height="246.9"/>
    </clipPath>
    <clipPath id="clippath-2">
      <ellipse class="st2" cx="182.6" cy="167.4" rx="131.6" ry="123.5"/>
    </clipPath>
    <clipPath id="clippath-3">
      <rect class="st2" x="51" y="43.9" width="263.2" height="246.9"/>
    </clipPath>
    <clipPath id="clippath-4">
      <path class="st2" d="M182.6,43.9c-72.7,0-131.6,55.3-131.6,123.5s58.9,123.5,131.6,123.5,131.6-55.3,131.6-123.5-58.9-123.5-131.6-123.5Z"/>
    </clipPath>
    <clipPath id="clippath-5">
      <rect class="st2" x="79.7" y="51.7" width="190" height="239.5"/>
    </clipPath>
  </defs>
  <g class="st11">
    <path class="st7" d="M180.9,240.1c-47.4,0-85.9-36.1-85.9-80.6s38.5-80.6,85.9-80.6,85.9,36.1,85.9,80.6-38.5,80.6-85.9,80.6ZM334.7,84.2C285,4.6,176-22.2,91.1,24.3,6.2,70.9-22.3,173.2,27.3,252.8l153.7,246.5,153.7-246.5c31.2-50.3,33.6-114.8,0-168.7"/>
  </g>
  <g class="st4">
    <g class="st8">
      <path class="st7" d="M51,43.9h263.2v246.9H51V43.9Z"/>
    </g>
  </g>
  <g class="st6">
    <g class="st1">
      <path class="st3" d="M182.6,43.9c-72.7,0-131.6,55.3-131.6,123.5s58.9,123.5,131.6,123.5,131.6-55.3,131.6-123.5-58.9-123.5-131.6-123.5Z"/>
    </g>
  </g>
  <g class="st5">
    <path class="st9" d="M174.9,288c-25.8,0-89.6-3.8-95.2-73.1,0,0,16.5,27.6,16.5,24.4,0-10.5-16.5-49.1,25-75.4,50.9-32.1,35.5-71.6,23.4-72.4,0,0,32.5-3.1,35.5,37.6,1.6,22.2,21.4-41.8,9.7-77.2,0,0,59.4,29.7,52,102.8,0,0,9.2-16.6,24.6-7.7,0,0-9.7,3.1-6.5,27.5,3.2,24.4,17.3,113.5-85.1,113.5"/>
  </g>
  <path class="st0" d="M167.3,285.5c-16.7-.7-48.4-4.2-48.4-43.4s41.6-44.6,41.6-80.7c0,0,19.8,6.5,17.8,24.4,0,0,38.7-22.9,35.5-49.9,0,0,83.8,155.3-46.4,149.7"/>
  <path class="st0" d="M167.3,285.5c-16.7-.7-48.4-4.2-48.4-43.4s41.6-44.6,41.6-80.7c0,0,19.8,6.5,17.8,24.4,0,0,38.7-22.9,35.5-49.9,0,0,83.8,155.3-46.4,149.7"/>
  <path class="st10" d="M175.4,218s10.1,27.9-6.5,27.9-10.1-11.8-10.1-11.8c0,0-32.1,49.1,16.5,49.1s27-1.9,27-27-14.9-35.3-27-38.2"/>
</svg>