<?xml version="1.0" encoding="UTF-8"?>
<svg id="Layer_1" xmlns="http://www.w3.org/2000/svg" version="1.1" xmlns:xlink="http://www.w3.org/1999/xlink" viewBox="0 0 362 500">
  <!-- Generator: Adobe Illustrator 29.3.1, SVG Export Plug-In . SVG Version: 2.1.0 Build 151)  -->
  <defs>
    <style>
      .st0 {
        clip-path: url(#clippath-34);
      }

      .st1 {
        clip-path: url(#clippath-21);
      }

      .st2 {
        clip-path: url(#clippath-6);
      }

      .st3 {
        clip-path: url(#clippath-7);
      }

      .st4 {
        clip-path: url(#clippath-17);
      }

      .st5 {
        clip-path: url(#clippath-31);
      }

      .st6 {
        clip-path: url(#clippath-15);
      }

      .st7 {
        clip-path: url(#clippath-33);
      }

      .st8 {
        clip-path: url(#clippath-18);
      }

      .st9 {
        fill-opacity: .5;
      }

      .st9, .st10, .st11, .st12, .st13, .st14, .st15, .st16, .st17, .st18, .st19, .st20, .st21 {
        fill-rule: evenodd;
      }

      .st9, .st11, .st12, .st16, .st18, .st21 {
        fill: #5b341c;
      }

      .st22 {
        clip-path: url(#clippath-4);
      }

      .st23 {
        clip-path: url(#clippath-22);
      }

      .st24 {
        clip-path: url(#clippath-23);
      }

      .st25 {
        clip-path: url(#clippath-9);
      }

      .st26 {
        clip-path: url(#clippath-10);
      }

      .st10 {
        fill: #955832;
      }

      .st27 {
        clip-path: url(#clippath-25);
      }

      .st28 {
        clip-path: url(#clippath-27);
      }

      .st11 {
        fill-opacity: .4;
      }

      .st12 {
        fill-opacity: .7;
      }

      .st29 {
        clip-path: url(#clippath-11);
      }

      .st30, .st31 {
        fill: none;
      }

      .st13, .st15 {
        fill: #ff9426;
      }

      .st13, .st19 {
        fill-opacity: .5;
      }

      .st32 {
        clip-path: url(#clippath-36);
      }

      .st33 {
        clip-path: url(#clippath-35);
      }

      .st34 {
        clip-path: url(#clippath-28);
      }

      .st14 {
        fill: #f65525;
      }

      .st35 {
        clip-path: url(#clippath-1);
      }

      .st36 {
        clip-path: url(#clippath-5);
      }

      .st37 {
        clip-path: url(#clippath-20);
      }

      .st38 {
        clip-path: url(#clippath-8);
      }

      .st16 {
        fill-opacity: .2;
      }

      .st17 {
        fill-opacity: .4;
      }

      .st17, .st19, .st20 {
        fill: #fff;
      }

      .st39 {
        clip-path: url(#clippath-3);
      }

      .st40 {
        clip-path: url(#clippath-26);
      }

      .st41 {
        clip-path: url(#clippath-12);
      }

      .st31 {
        stroke: orange;
        stroke-width: 10px;
      }

      .st42 {
        clip-path: url(#clippath-14);
      }

      .st43 {
        clip-path: url(#clippath-30);
      }

      .st44 {
        clip-path: url(#clippath-19);
      }

      .st45 {
        clip-path: url(#clippath-32);
      }

      .st46 {
        fill: #e4fcfc;
      }

      .st47 {
        clip-path: url(#clippath-16);
      }

      .st48 {
        clip-path: url(#clippath-2);
      }

      .st49 {
        clip-path: url(#clippath-29);
      }

      .st50 {
        clip-path: url(#clippath-13);
      }

      .st51 {
        clip-path: url(#clippath-24);
      }

      .st20 {
        fill-opacity: .3;
      }

      .st52 {
        clip-path: url(#clippath);
      }

      .st21 {
        fill-opacity: .5;
      }
    </style>
    <clipPath id="clippath">
      <rect class="st30" x="3.7" y=".8" width="360" height="500"/>
    </clipPath>
    <clipPath id="clippath-1">
      <rect class="st30" x="52.4" y="44" width="263.2" height="246.9"/>
    </clipPath>
    <clipPath id="clippath-2">
      <path class="st30" d="M184,44c-72.7,0-131.6,55.3-131.6,123.5s58.9,123.5,131.6,123.5,131.6-55.3,131.6-123.5-58.9-123.5-131.6-123.5Z"/>
    </clipPath>
    <clipPath id="clippath-3">
      <rect class="st30" x="52.4" y="44" width="263.2" height="246.9"/>
    </clipPath>
    <clipPath id="clippath-4">
      <path class="st30" d="M184,44c-72.7,0-131.6,55.3-131.6,123.5s58.9,123.5,131.6,123.5,131.6-55.3,131.6-123.5-58.9-123.5-131.6-123.5Z"/>
    </clipPath>
    <clipPath id="clippath-5">
      <rect class="st30" x="201.1" y="109.7" width="34.8" height="25.4"/>
    </clipPath>
    <clipPath id="clippath-6">
      <path class="st30" d="M79.3,141.7v51.6c0,49.6,42.9,89.9,95.8,89.9h15.2c52.9,0,95.8-40.2,95.8-89.9v-51.6c0-49.6-42.9-89.9-95.8-89.9h-15.2c-52.9,0-95.8,40.2-95.8,89.9Z"/>
    </clipPath>
    <clipPath id="clippath-7">
      <rect class="st30" x="154.6" y="51.8" width="96.8" height="65.2"/>
    </clipPath>
    <clipPath id="clippath-8">
      <path class="st30" d="M79.3,141.7v51.6c0,49.6,42.9,89.9,95.8,89.9h15.2c52.9,0,95.8-40.2,95.8-89.9v-51.6c0-49.6-42.9-89.9-95.8-89.9h-15.2c-52.9,0-95.8,40.2-95.8,89.9Z"/>
    </clipPath>
    <clipPath id="clippath-9">
      <rect class="st30" x="166.2" y="109.7" width="38.7" height="54.5"/>
    </clipPath>
    <clipPath id="clippath-10">
      <path class="st30" d="M79.3,141.7v51.6c0,49.6,42.9,89.9,95.8,89.9h15.2c52.9,0,95.8-40.2,95.8-89.9v-51.6c0-49.6-42.9-89.9-95.8-89.9h-15.2c-52.9,0-95.8,40.2-95.8,89.9Z"/>
    </clipPath>
    <clipPath id="clippath-11">
      <rect class="st30" x="170.1" y="109.7" width="34.8" height="36.3"/>
    </clipPath>
    <clipPath id="clippath-12">
      <path class="st30" d="M79.3,141.7v51.6c0,49.6,42.9,89.9,95.8,89.9h15.2c52.9,0,95.8-40.2,95.8-89.9v-51.6c0-49.6-42.9-89.9-95.8-89.9h-15.2c-52.9,0-95.8,40.2-95.8,89.9Z"/>
    </clipPath>
    <clipPath id="clippath-13">
      <rect class="st30" x="177.9" y="117" width="27.1" height="54.5"/>
    </clipPath>
    <clipPath id="clippath-14">
      <path class="st30" d="M79.3,141.7v51.6c0,49.6,42.9,89.9,95.8,89.9h15.2c52.9,0,95.8-40.2,95.8-89.9v-51.6c0-49.6-42.9-89.9-95.8-89.9h-15.2c-52.9,0-95.8,40.2-95.8,89.9Z"/>
    </clipPath>
    <clipPath id="clippath-15">
      <rect class="st30" x="123.7" y="58.9" width="112.3" height="79.9"/>
    </clipPath>
    <clipPath id="clippath-16">
      <path class="st30" d="M79.3,141.7v51.6c0,49.6,42.9,89.9,95.8,89.9h15.2c52.9,0,95.8-40.2,95.8-89.9v-51.6c0-49.6-42.9-89.9-95.8-89.9h-15.2c-52.9,0-95.8,40.2-95.8,89.9Z"/>
    </clipPath>
    <clipPath id="clippath-17">
      <rect class="st30" x="150.8" y="77" width="65.8" height="58.1"/>
    </clipPath>
    <clipPath id="clippath-18">
      <path class="st30" d="M79.3,141.7v51.6c0,49.6,42.9,89.9,95.8,89.9h15.2c52.9,0,95.8-40.2,95.8-89.9v-51.6c0-49.6-42.9-89.9-95.8-89.9h-15.2c-52.9,0-95.8,40.2-95.8,89.9Z"/>
    </clipPath>
    <clipPath id="clippath-19">
      <rect class="st30" x="131.4" y="69.8" width="73.5" height="50.8"/>
    </clipPath>
    <clipPath id="clippath-20">
      <path class="st30" d="M79.3,141.7v51.6c0,49.6,42.9,89.9,95.8,89.9h15.2c52.9,0,95.8-40.2,95.8-89.9v-51.6c0-49.6-42.9-89.9-95.8-89.9h-15.2c-52.9,0-95.8,40.2-95.8,89.9Z"/>
    </clipPath>
    <clipPath id="clippath-21">
      <rect class="st30" x="81.1" y="156.9" width="204.3" height="126.4"/>
    </clipPath>
    <clipPath id="clippath-22">
      <path class="st30" d="M79.3,141.7v51.6c0,49.6,42.9,89.9,95.8,89.9h15.2c52.9,0,95.8-40.2,95.8-89.9v-51.6c0-49.6-42.9-89.9-95.8-89.9h-15.2c-52.9,0-95.8,40.2-95.8,89.9Z"/>
    </clipPath>
    <clipPath id="clippath-23">
      <rect class="st30" x="85" y="193.3" width="200.5" height="90.1"/>
    </clipPath>
    <clipPath id="clippath-24">
      <path class="st30" d="M79.3,141.7v51.6c0,49.6,42.9,89.9,95.8,89.9h15.2c52.9,0,95.8-40.2,95.8-89.9v-51.6c0-49.6-42.9-89.9-95.8-89.9h-15.2c-52.9,0-95.8,40.2-95.8,89.9Z"/>
    </clipPath>
    <clipPath id="clippath-25">
      <rect class="st30" x="119.8" y="146.1" width="120" height="79.9"/>
    </clipPath>
    <clipPath id="clippath-26">
      <path class="st30" d="M79.3,141.7v51.6c0,49.6,42.9,89.9,95.8,89.9h15.2c52.9,0,95.8-40.2,95.8-89.9v-51.6c0-49.6-42.9-89.9-95.8-89.9h-15.2c-52.9,0-95.8,40.2-95.8,89.9Z"/>
    </clipPath>
    <clipPath id="clippath-27">
      <rect class="st30" x="139.2" y="164.2" width="81.3" height="39.9"/>
    </clipPath>
    <clipPath id="clippath-28">
      <path class="st30" d="M79.3,141.7v51.6c0,49.6,42.9,89.9,95.8,89.9h15.2c52.9,0,95.8-40.2,95.8-89.9v-51.6c0-49.6-42.9-89.9-95.8-89.9h-15.2c-52.9,0-95.8,40.2-95.8,89.9Z"/>
    </clipPath>
    <clipPath id="clippath-29">
      <rect class="st30" x="123.7" y="146.1" width="108.4" height="76.3"/>
    </clipPath>
    <clipPath id="clippath-30">
      <path class="st30" d="M79.3,141.7v51.6c0,49.6,42.9,89.9,95.8,89.9h15.2c52.9,0,95.8-40.2,95.8-89.9v-51.6c0-49.6-42.9-89.9-95.8-89.9h-15.2c-52.9,0-95.8,40.2-95.8,89.9Z"/>
    </clipPath>
    <clipPath id="clippath-31">
      <rect class="st30" x="162.4" y="153.3" width="61.9" height="29.1"/>
    </clipPath>
    <clipPath id="clippath-32">
      <path class="st30" d="M79.3,141.7v51.6c0,49.6,42.9,89.9,95.8,89.9h15.2c52.9,0,95.8-40.2,95.8-89.9v-51.6c0-49.6-42.9-89.9-95.8-89.9h-15.2c-52.9,0-95.8,40.2-95.8,89.9Z"/>
    </clipPath>
    <clipPath id="clippath-33">
      <rect class="st30" x="174" y="153.3" width="46.5" height="21.8"/>
    </clipPath>
    <clipPath id="clippath-34">
      <path class="st30" d="M79.3,141.7v51.6c0,49.6,42.9,89.9,95.8,89.9h15.2c52.9,0,95.8-40.2,95.8-89.9v-51.6c0-49.6-42.9-89.9-95.8-89.9h-15.2c-52.9,0-95.8,40.2-95.8,89.9Z"/>
    </clipPath>
    <clipPath id="clippath-35">
      <rect class="st30" x="81.1" y="211.4" width="204.3" height="71.9"/>
    </clipPath>
    <clipPath id="clippath-36">
      <path class="st30" d="M79.3,141.7v51.6c0,49.6,42.9,89.9,95.8,89.9h15.2c52.9,0,95.8-40.2,95.8-89.9v-51.6c0-49.6-42.9-89.9-95.8-89.9h-15.2c-52.9,0-95.8,40.2-95.8,89.9Z"/>
    </clipPath>
  </defs>
  <g class="st52">
    <path class="st46" d="M182.3,240.2c-47.4,0-85.9-36.1-85.9-80.6s38.5-80.6,85.9-80.6,85.9,36.1,85.9,80.6-38.5,80.6-85.9,80.6ZM336,84.3C286.3,4.7,177.3-22.1,92.4,24.4,7.6,71-21,173.3,28.6,252.9l153.7,246.5,153.7-246.5c31.2-50.3,33.6-114.8,0-168.7"/>
  </g>
  <g class="st35">
    <g class="st48">
      <path class="st46" d="M52.4,44h263.2v246.9H52.4V44Z"/>
    </g>
  </g>
  <g class="st39">
    <g class="st22">
      <path class="st31" d="M184,44c-72.7,0-131.6,55.3-131.6,123.5s58.9,123.5,131.6,123.5,131.6-55.3,131.6-123.5-58.9-123.5-131.6-123.5Z"/>
    </g>
  </g>
  <g class="st36">
    <g class="st2">
      <g>
        <path class="st18" d="M202.8,117.9c-2.8,3.2,1.5,13.4,2.3,14,2.4,2,5.7,3.5,9,3,2.9-.5,5.4-2.6,6.5-5.1.3-.6.3-2.7.8-3,.4-.3,1.3,0,1.7.2,1.4.3,2.9.6,4.3.3,4.9-.9,6.7-7.5,4.7-11.2s-1-1.6-1.7-2.4c-4-4.7-8.8-2.5-14.1-1.5-2.4.4-4.9.1-7.3.8-2.5.8-4.7,3-6.3,4.9Z"/>
        <path class="st19" d="M202.8,117.9c-2.8,3.2,1.5,13.4,2.3,14,2.4,2,5.7,3.5,9,3,2.9-.5,5.4-2.6,6.5-5.1.3-.6.3-2.7.8-3,.4-.3,1.3,0,1.7.2,1.4.3,2.9.6,4.3.3,4.9-.9,6.7-7.5,4.7-11.2s-1-1.6-1.7-2.4c-4-4.7-8.8-2.5-14.1-1.5-2.4.4-4.9.1-7.3.8-2.5.8-4.7,3-6.3,4.9Z"/>
      </g>
    </g>
  </g>
  <g class="st3">
    <g class="st38">
      <g>
        <path class="st18" d="M156.7,76.6c-1.2-3.2.9-7.3,4.2-8.7.9-.4,3.6-.3,4.2-1,.5-.5-.2-1.9-.3-2.5-.2-1.4.1-2.8.9-4,.9-1.5,2.8-2.5,4.6-2.5.6,0,1.9.6,2.4.3.8-.5,1.4-2.2,2-2.9,2-2.4,5.7-3.2,8.5-1.8,1.7.9,2.6,2.2,3.2,3.9.1.3.4,2.4.7,2.5.2.1,1.6-.5,1.9-.6,2-.3,3.8.3,4.8,2,2.1,3.6,0,7.2.2,10.9.1,2.5,2.1,3.4,3.1,5.5,1,2,.5,5.2,0,7.3-1.5,5.3-5.7,10.5-11,12.7-8.3,3.5-19.2.4-25-6-2.2-2.4-4.3-15.1-4.3-15.1ZM224.6,116.5s-9.3-3.9-10.6-5.9c-1.5-2.5-2.1-5.8-1.8-8.6.5-4.3,3.6-6.6,5.5-10.2,3.1-5.6,2.9-15.2,11.9-15.4,1.3,0,2.6.1,3.7.7,2.1.9,3.7,3,4.6,5,.3.8.4,2.1.9,2.7.4.5,3.1.7,3.8,1,3.3,1.4,6,4.4,6.4,7.9.2,2.1-.3,4.1-1.6,5.7-.1.2-2.3,2-2.2,2.1.1.3,1.6,1,1.9,1.3,1.6,1.6,1.8,4,.7,5.9-2.2,3.9-6.2,2.7-9.7,4.3-2.2,1-3.2,3-5.9,3.5-1.6.3-3.3.5-5,.5-.6,0-1.2,0-1.8-.2-.3,0-1.1-.4-.9-.2Z"/>
        <path class="st17" d="M156.7,76.6c-1.2-3.2.9-7.3,4.2-8.7.9-.4,3.6-.3,4.2-1,.5-.5-.2-1.9-.3-2.5-.2-1.4.1-2.8.9-4,.9-1.5,2.8-2.5,4.6-2.5.6,0,1.9.6,2.4.3.8-.5,1.4-2.2,2-2.9,2-2.4,5.7-3.2,8.5-1.8,1.7.9,2.6,2.2,3.2,3.9.1.3.4,2.4.7,2.5.2.1,1.6-.5,1.9-.6,2-.3,3.8.3,4.8,2,2.1,3.6,0,7.2.2,10.9.1,2.5,2.1,3.4,3.1,5.5,1,2,.5,5.2,0,7.3-1.5,5.3-5.7,10.5-11,12.7-8.3,3.5-19.2.4-25-6-2.2-2.4-4.3-15.1-4.3-15.1ZM224.6,116.5s-9.3-3.9-10.6-5.9c-1.5-2.5-2.1-5.8-1.8-8.6.5-4.3,3.6-6.6,5.5-10.2,3.1-5.6,2.9-15.2,11.9-15.4,1.3,0,2.6.1,3.7.7,2.1.9,3.7,3,4.6,5,.3.8.4,2.1.9,2.7.4.5,3.1.7,3.8,1,3.3,1.4,6,4.4,6.4,7.9.2,2.1-.3,4.1-1.6,5.7-.1.2-2.3,2-2.2,2.1.1.3,1.6,1,1.9,1.3,1.6,1.6,1.8,4,.7,5.9-2.2,3.9-6.2,2.7-9.7,4.3-2.2,1-3.2,3-5.9,3.5-1.6.3-3.3.5-5,.5-.6,0-1.2,0-1.8-.2-.3,0-1.1-.4-.9-.2Z"/>
      </g>
    </g>
  </g>
  <g class="st25">
    <g class="st26">
      <g>
        <path class="st14" d="M178.7,155.8c-.2.3-.3-1.2-.3-1.2,0-.8,0-1.5,0-2.3,0-2.3,0-5-1-7.2-.8-2-2.3-3.5-3.4-5.4-.8-1.4-1.1-2.8-2.2-4.1-1.8-2.2-4.3-3.7-3.9-6.8.6-4.9,5.3-8.2,10.1-9.4,2.3-.6,4.7-.5,7-1.1,2.6-.6,5-1.7,7.4-2.9,2.5-1.2,5.1-2.3,7.6-3.5.5-.3,1.9-1.2,2.5-.9.7.3.5,3.2.5,3.8.4,3.7,1.6,7.4,1.7,11.1,0,2.6-.1,5.2-1.3,7.6-1.6,3.3-4.4,5.9-5.8,9.3-1.8,4.5-2,9.5-3.6,14.1-.6,1.7-1.5,4.1-3.3,5.1-1.8,1-4.2.9-6.2.6-1.6-.2-3.2-.6-4.7-1.1-1.2-.4-1.3-5.7-1.3-5.7Z"/>
        <path class="st16" d="M178.7,155.8c-.2.3-.3-1.2-.3-1.2,0-.8,0-1.5,0-2.3,0-2.3,0-5-1-7.2-.8-2-2.3-3.5-3.4-5.4-.8-1.4-1.1-2.8-2.2-4.1-1.8-2.2-4.3-3.7-3.9-6.8.6-4.9,5.3-8.2,10.1-9.4,2.3-.6,4.7-.5,7-1.1,2.6-.6,5-1.7,7.4-2.9,2.5-1.2,5.1-2.3,7.6-3.5.5-.3,1.9-1.2,2.5-.9.7.3.5,3.2.5,3.8.4,3.7,1.6,7.4,1.7,11.1,0,2.6-.1,5.2-1.3,7.6-1.6,3.3-4.4,5.9-5.8,9.3-1.8,4.5-2,9.5-3.6,14.1-.6,1.7-1.5,4.1-3.3,5.1-1.8,1-4.2.9-6.2.6-1.6-.2-3.2-.6-4.7-1.1-1.2-.4-1.3-5.7-1.3-5.7Z"/>
      </g>
    </g>
  </g>
  <g class="st29">
    <g class="st41">
      <path class="st11" d="M201.7,111.1c.3,0,.7,0,1,0,.5.6.4,3.1.5,3.7.4,3.7,1.6,7.4,1.7,11.2,0,2.6-.1,5.2-1.3,7.5-1.5,3.1-4,5.6-5.5,8.7-1-2.1-1.9-4.2-2-6.6,0-.9,0-2.6-1-3-1.3-.5-2.9,1.5-3.6,2.3-2.1,2.3-4.2,6.8-7.6,7.5-1.4.3-2.3-.8-3.1-1.7-1.2-1.4-2.3-3.1-4.3-3.6-1.2-.3-2.4,0-3.5.5-.3-.7-.7-1.3-1.1-2-.6-.7-1.2-1.3-1.8-1.9,0-3.7.3-8.1,1.2-10.9.4-1.2.9-2,1.6-2.4,8.1-4.3,17.2-8.2,26.5-9.3.7,0,1.5-.2,2.3-.2ZM170.3,140.4c0,.1,0,.2,0,.2,0,0,0,0,0-.2Z"/>
    </g>
  </g>
  <g class="st50">
    <g class="st42">
      <path class="st17" d="M182.1,160.3c.2,0,0-.4,0-.6,0-.5,0-.9,0-1.4,0-1.4,0-2.8,0-4.1,0-5.7-.7-11.3-1.6-16.9-.2-1.3-.5-2.7-.5-4,0-.2,0-1.1.2-1.3.3-.1.8,1.2.8,1.3.6,1.5,1.1,3.2,1.5,4.8,1.3,4.7,2,9.5,2.3,14.3.1,1.9.2,3.7.3,5.6,0,.1,0,1.6.2,1.7.5,0,1-3.8,1-4.1.7-4.4,1.6-8.8,2.4-13.2.3-1.4.5-2.8.9-4.1,0,0,.2-1,.5-.9.6.2.1,3.8,0,4.2-.4,4.4-.6,8.8-1,13.2-.1,1.3-.3,2.6-.4,3.9,0,.2-.1,1,.2,1,.5,0,.8-2,.9-2.2.7-2.9,1.5-5.7,2.2-8.6,1.7-6.9,3.8-13.3,7-19.7,1-1.9,2-3.9,2.6-5.9.2-.8.4-1.5.6-2.3,0-.4,0-1.4.3-1.1.4.6-.4,2.8-.5,3.4-.7,3.2-1.8,6.5-3,9.6-1.1,2.6-2.7,5.1-3.6,7.8-1.4,4.1-1.7,8.6-2.4,12.8-1,5.8-2.3,11.5-3,17.3-.3,2.6-8.2-10.5-8.2-10.5Z"/>
    </g>
  </g>
  <g class="st6">
    <g class="st47">
      <g>
        <path class="st18" d="M168.5,134.2c0,0-.2.2-.3.2-4.8,4.1-12,5.3-17.6,1.9-1.2-.7-2.2-1.6-3.1-2.6-.5-.6-.9-1.7-1.8-2-1.2-.5-2.9.4-4.1.5-2.1.2-4.6-.3-6.5-1.1-3.3-1.3-5-4-4.9-7.3,0-.9.9-2.8.5-3.6-.3-.6-1.4-.9-1.9-1.3-1.3-1-2.1-2.2-2.3-3.8-.3-2.7.7-6,3.9-6.7.4,0,3.1.3,3.2.2.2-.2-.4-1.4-.5-1.6-.2-1.3-.1-2.7.2-4,.4-1.2,1.3-2.3,2.3-3,.4-.3,1.5-.6,1.6-1.1.2-.5-.6-.9-.8-1.2-.9-.9-1.8-1.9-2.4-3-.3-.5-.6-1.1-.8-1.6-1.4-3.9-.7-8.5,2.8-11.2,1.5-1.2,3.3-2,5.3-2.4,1-.2,2.3,0,3.1-.5,1-.6,1.5-2.6,2.1-3.5.6-.9,1.4-1.6,2.2-2.3,1.8-1.4,4.1-2.2,6.5-2,3,.3,5.8,2,7.8,4.1.9-.2,1.9-.2,2.8-.1,2.7.3,4.3,2.6,6.6,3.8.4.2.8.4,1.3.5.3,0,.6,0,.9,0,.4,0,.8-.2,1.1-.5,2.5-2.2.1-6.5,2.6-8.9,1.6-1.5,4.3-1.9,6.3-1,.5.2,2,1.6,2.5,1.4.4-.1.8-1.1,1-1.4.7-1.1,1.5-2.2,2.5-3.1,3.9-3.5,9.8-4.6,14.9-3.2s8.4,5.4,8.7,10.3c0,1.1-.1,2.3-.4,3.4,0,.2-.5,1-.3,1.2,0,.1,1.3-.3,1.4-.3.9-.2,1.7-.2,2.6-.2,2.6.2,4.7,1.7,5.9,3.9,1.6,2.7,1.1,6.2-.5,8.8-.5.8-2.5,2.4-2.5,3.3,0,.3,2.6,1.1,2.9,1.3,1.9,1,2.9,3.1,2.6,5.1-.2,1.6-1.1,2.9-2.4,4-.3.2-2,1.1-1.9,1.4,0,.3,1.6.1,1.8.1,1.2,0,2.7.8,3.8,1.3,3.7,1.8,7.1,9,5.4,14.3-1.1,3.3-4.9,0-8.2,1-5.4,1.8-10.3,1.4-15.2-.3-.5.4-.9.8-1.5,1-.9.5-2,.7-3.1.8,0,0-.2,0-.2,0-.5,0-1.2-.2-1.5,0-1.7,1.4-2.1,3.3-4.4,4.5-1.2.6-2.6,1-4,1-.7,0-1.8-.5-2.5-.1-1,.5-1.8,2.1-2.6,2.9-1.5,1.6-3.6,2.7-5.8,3-4.5.6-8.3-1.9-12.6-2.2-.3,0-.7,0-1.1,0-.5.7-1,1.4-1.7,2Z"/>
        <path class="st19" d="M168.5,134.2c0,0-.2.2-.3.2-4.8,4.1-12,5.3-17.6,1.9-1.2-.7-2.2-1.6-3.1-2.6-.5-.6-.9-1.7-1.8-2-1.2-.5-2.9.4-4.1.5-2.1.2-4.6-.3-6.5-1.1-3.3-1.3-5-4-4.9-7.3,0-.9.9-2.8.5-3.6-.3-.6-1.4-.9-1.9-1.3-1.3-1-2.1-2.2-2.3-3.8-.3-2.7.7-6,3.9-6.7.4,0,3.1.3,3.2.2.2-.2-.4-1.4-.5-1.6-.2-1.3-.1-2.7.2-4,.4-1.2,1.3-2.3,2.3-3,.4-.3,1.5-.6,1.6-1.1.2-.5-.6-.9-.8-1.2-.9-.9-1.8-1.9-2.4-3-.3-.5-.6-1.1-.8-1.6-1.4-3.9-.7-8.5,2.8-11.2,1.5-1.2,3.3-2,5.3-2.4,1-.2,2.3,0,3.1-.5,1-.6,1.5-2.6,2.1-3.5.6-.9,1.4-1.6,2.2-2.3,1.8-1.4,4.1-2.2,6.5-2,3,.3,5.8,2,7.8,4.1.9-.2,1.9-.2,2.8-.1,2.7.3,4.3,2.6,6.6,3.8.4.2.8.4,1.3.5.3,0,.6,0,.9,0,.4,0,.8-.2,1.1-.5,2.5-2.2.1-6.5,2.6-8.9,1.6-1.5,4.3-1.9,6.3-1,.5.2,2,1.6,2.5,1.4.4-.1.8-1.1,1-1.4.7-1.1,1.5-2.2,2.5-3.1,3.9-3.5,9.8-4.6,14.9-3.2s8.4,5.4,8.7,10.3c0,1.1-.1,2.3-.4,3.4,0,.2-.5,1-.3,1.2,0,.1,1.3-.3,1.4-.3.9-.2,1.7-.2,2.6-.2,2.6.2,4.7,1.7,5.9,3.9,1.6,2.7,1.1,6.2-.5,8.8-.5.8-2.5,2.4-2.5,3.3,0,.3,2.6,1.1,2.9,1.3,1.9,1,2.9,3.1,2.6,5.1-.2,1.6-1.1,2.9-2.4,4-.3.2-2,1.1-1.9,1.4,0,.3,1.6.1,1.8.1,1.2,0,2.7.8,3.8,1.3,3.7,1.8,7.1,9,5.4,14.3-1.1,3.3-4.9,0-8.2,1-5.4,1.8-10.3,1.4-15.2-.3-.5.4-.9.8-1.5,1-.9.5-2,.7-3.1.8,0,0-.2,0-.2,0-.5,0-1.2-.2-1.5,0-1.7,1.4-2.1,3.3-4.4,4.5-1.2.6-2.6,1-4,1-.7,0-1.8-.5-2.5-.1-1,.5-1.8,2.1-2.6,2.9-1.5,1.6-3.6,2.7-5.8,3-4.5.6-8.3-1.9-12.6-2.2-.3,0-.7,0-1.1,0-.5.7-1,1.4-1.7,2Z"/>
      </g>
    </g>
  </g>
  <g class="st4">
    <g class="st8">
      <path class="st21" d="M173.9,79.4c2.4,1.4,5.3,2.5,7.6,2.6,5,.3,7.7,3.8,7.7,3.8,5.6-1.5,9,1.7,9,1.7,0,0,2.2-3.1,5.6-2.9,3.4.1,6.2,1.7,1.8,1.3s-7.4,3.9-7.4,3.9c-3.9-4.2-9.2-2-9.2-2-3.7-4-8.1-4.3-11.2-5.8-3.3-1.5-5.2-3.1-5.2-3.1.4.2.8.4,1.3.5ZM170.2,132.2c-.5.7-1,1.4-1.7,2-2.4,0-5.1-.5-7.1-2.1-2.9-2.4-2.9-5.3-2.9-5.3,0,0-3.2,0-5.2-3.1-2-3.2-.4-5.3-.4-5.3-.5,5.9,7.2,6.8,7.2,6.8.2,2,1.1,4.9,4.7,6.1,3.5,1.2,5.4.9,5.4.9ZM204.7,123.1c-.5,0-1.2-.2-1.5,0,0,0,.6-2.3,2.1-3.5s4.7.6,9.6-2.9c0,0-.4,1.5-2.1,2.4-1.8.9-6,.5-7,1.7-.5.5-.7,1.3-1.1,2.1Z"/>
    </g>
  </g>
  <g class="st44">
    <g class="st37">
      <path class="st20" d="M153.3,115.1c-.6,0-.6-5.3,2.2-8.5,1-1.2,2.5-2,4-2.5.5-.1,2.2.1,2.5-.3.6-.7.3-2.5.5-3.3.8-2.6,2.8-5.2,5.7-5.9,2.1-.5,4.4,0,6.1,1.2.6.4,1.2,1.5,1.9,1.7.6.2,1.9-.6,2.5-.7,1.5-.2,3.1,0,4.5.5.9.3,1.7.8,2.3,1.6,0,0,.6,1,.7,1,.3,0,1.8-2.2,2.1-2.5,1.7-1.5,3.9-2.7,6.3-2.9,2.8-.2,5.4,1.2,7,3.2.2.3,1.5,1.7,1.2,2.1-.2.3-1.5-.2-1.8-.2-1.4-.2-3,0-4.2.7-1.4.8-2.5,2.4-3.1,3.8-.3.6-.4,1.8-1,2.3-.6.5-1.6-.1-2.1-.3-1.2-.3-2.5-.2-3.7,0-1.5.2-2.9.6-4.1,1.3-.6.3-1.5,1.2-2.2,1.1-.9,0-1.9-1.5-2.6-2-1-.8-4.7-2.8-8-1.3-3.5,1.5-3.1,5.5-3.5,5.8-1.4,1.2-2.6,2.8-3.3,4.4-.1.3-.5,1.9-.8,2-.3,0-1.8-1.2-2.2-1.3-1.9-.9-4.7-.6-6.7-.9ZM148.9,73.2c1.2.3,2.2.7,3,1.2,1.8,1.2,2.6,5.2,4.6,5.7,2,.4,4.4-1,6.6-.8,2.8.2,5.1,1.8,7,3.6.1.1,1.7,1.4,1.6,1.5,0,0-1.5,0-1.7,0-1.2.1-2.3.6-3.2,1.3-1.1.9-2,2.2-2.5,3.5-.2.5-.2,1.9-.7,2.2-.3.2-1.5-.8-1.7-.9-1.5-.9-3.2-1.6-4.9-2.1-1.8-.5-3.7-.4-5.5.2-.7.3-2.3,1.5-3.1,1.3-.8-.2-1.5-1.5-2.1-2-1.3-1.2-3.3-2.2-5.2-2.2-4.1,0-6.3,4.2-7.8,7.3-1.4-3.9-.7-8.5,2.7-11.2,1.6-1.2,3.4-2,5.3-2.4.9-.2,2.3,0,3.1-.5,1-.6,1.5-2.6,2.1-3.5.6-.9,1.4-1.6,2.3-2.3Z"/>
    </g>
  </g>
  <g class="st1">
    <g class="st23">
      <path class="st10" d="M279.8,257.2c-.9-1-1.7-1.8-2.1-2.2-7.5-7.1-12.9-17.1-18.8-25.4-8.8-12.5-19.8-21.8-28.9-34.1-3.4-4.6-6-9.8-9.5-14.3-8.7-11.2-20.1-18.5-34.8-20.2-6.6-.8-17.3-3.4-23.7-.2s-32,44.2-32.3,44.8c-.8,1.1-1.7,2.2-2.6,3.3-2.8,3.4-6.1,8.3-9,11.5-4.9,5.4-9.9,11.1-14.9,16.7-4.9,5.5-9.9,11.1-14.8,16.3-3.6,3.9-9,6.1-5.5,9.1,6.8,5.9,20.7,5,30.3,7.9,5.2,1.6,10.8,4.4,16.3,4.9,7.7.6,15.3-.9,23,0,4.1.5,2.7,2.5,5.7,4.4,1.7,1.1,5.9,1.8,7.9,2,17.9,1.5,35.2-1.9,52.8-3.8,5.3-.6,10.7-.2,16-.5,12.4-.7,23.9-3,35.5-7,3.8-1.3,11.8-2.4,14.4-5.7.8-1-2.5-4.9-4.9-7.5Z"/>
    </g>
  </g>
  <g class="st24">
    <g class="st51">
      <path class="st9" d="M262.7,272.8c-2.8-3.4-5.6-6.7-8.4-10.1-10.1-12.4-17.6-26.6-25.8-40.2-3.1-5.1-5.7-10.4-7.5-16-.2-.5-1.9-4.7-1.1-5.1,1.1-.6,6.5,5.7,7.1,6.3,6.8,7,12.7,14.9,20,21.6,3.7,3.4,8.1,4.6,12.2,7.3,3.1,2,5.9,4.3,8.7,6.5,2.9,4.3,6.1,8.4,9.7,11.9.4.4,1.2,1.2,2.1,2.2,2.4,2.6,5.7,6.5,4.9,7.5-2.6,3.2-10.6,4.3-14.4,5.7-2.5.9-5,1.7-7.5,2.4ZM214.4,227c0,0,0-.1,0-.1,0,0,0,0,0,.1ZM207.1,279.2c0-.3,0-.5,0-.7.7-6.3.5-13,1.9-19.3.7-3,2.9-5.3,3.7-8.1,1.1-3.9,1-8.4,1.1-12.4,0-3.1.1-6.2.2-9.3,0-.2.3-1.9.2-2.5.6,1.5,6.1,14.5,6.9,18.1,2.3,11,6,21.7,9,32.5-3.9,0-7.7,0-11.6.3-3.9.4-7.8.9-11.6,1.4ZM163.8,281.4c-1.6-8.5-2.8-17.1-2.8-17.1-.3-.2.4-2.4.4-2.7l1.5-7.8c1.7-8.6,3.5-17.3,5.3-25.9.4-1.9.7-7,2.7-8.2,1.1-.6,1.6,2.3,1.8,2.8.7,2.8,1.1,5.7,2,8.5.7,2.4,1.9,3.7,3.4,1.1,1.8-2.9,2.4-6.6,3.3-9.8,1.4-5.2,3-10.2,4-15.5.6-3.3,1-6.7,2-9.9.1-.3.9-2.8,1.7-2.2,1.5,1.1,1.3,5.7,1.5,7.3.9,6.5,1,10.9,1.5,16.7,1.4,16.5,3.1,32.7,4.1,49.3.2,4,.7,8.1,1.1,12.3-10.4,1.2-20.8,2.1-31.4,1.2-.6,0-1.3-.2-2.2-.3ZM88.7,265.8c3.3-10,7-19.1,7-19.1.1.1,2.3.4,2.6.5,3,.8,7,1.3,9.9,0,3.9-1.9,6.5-5.8,10.3-8.1,2.2-1.3,4.6.1,6.9-1.1,4.8-2.5,8.1-6.7,12.3-9.8,3.1-2.2,6-5,9.4-6.7.3-.2,2.8-1.9,3.2-1.6.5.5-1.9,4-2,4.4-2.4,5.1-4.6,10.3-7,15.4-5.6,11.7-11.2,24.1-21,33.4-2.4-.9-4.8-1.8-7.1-2.5-7.3-2.2-17.1-2.2-24.4-4.7Z"/>
    </g>
  </g>
  <g class="st27">
    <g class="st40">
      <path class="st14" d="M186.8,155.4c-2.6-.9-6.8-4.3-9.3-5.3-6.2-2.5-11.6-.4-15.5,3-5.8,5.1-9.4,12.5-12.7,19-3.1,6.3-7.1,12.1-10.9,18-2.2,3.4-4.5,7.1-6.8,10.4-2.5,3.6-7,8.7-8.3,11.6-.4.9-1.1,2.8.2,3.4,1.9,1,4.4-.6,5.2-1.1,2.4-1.6,5.8-4.3,8.4-7.2,5.8-6.4,10.7-14.3,14.9-21.7,2-3.5,3.2-7.1,5.6-10.5,1.8-2.4,4-4.7,6.5-6.5.9-.7,2.2-1.5,3.4-1.1,2,.7,3.7,2.9,4.6,4.6,4.1,7.8-1.9,14.4-2.2,22.1,0,2.5-.1,4,1.2,6.1,1.7,2.8,3.3,3.1,5,1.3,1.5-1.7,1.8-3.6,2.2-5.8.5-3-.3-4.8.2-7.8.4-2.2,2.1-5.6,2.4-7.9.5-3.5-.6-7.2,4.5-7.9.7,0,1.3-.1,2,0,.9.1,1.8.4,2.6.8,4.5,2.1,4.6,8.9,5.4,12.9.9,4.1,3.3,7.3,4.6,11.3.9,2.8.5,5.7,1.2,8.5.6,2.4,2.4,4.5,3.9,6.6,2,3,4.2,5.7,7,8,.8.7,3,3.3,4.2,2.8,2.4-1,1-7.4.3-9.1-1-2.8-3.8-4.7-4.9-7.5-2.2-5.5-1.6-10.7-2-16.4-.2-2.3-1.1-4.6-1-6.8,0-.9.3-2,1.3-2.3,2.6-.7,4.8,3.4,5.7,5.1,1.2,2,2,4.5,3.5,6.2,1.6,1.8,3.3,3.3,4.9,5.1,1.9,2.1,3.2,4.7,5.3,6.6,1.7,1.5,4.1,2.3,6.2,3.2.6.2,1.9,1,2.4.3,1.1-1.4-1.5-4.6-2.2-5.7-1.7-2.5-3-5.3-4.7-7.8-1.4-2-3.4-3.6-4.9-5.6-3.9-5.3-5.2-11.3-7.9-17.1-1.4-2.9-3.3-6-5.4-8.5-2.9-3.4-5.8-5.2-9.4-6.2-6-1.7-11.1.8-16.8-1.3Z"/>
    </g>
  </g>
  <g class="st28">
    <g class="st34">
      <path class="st12" d="M209.2,181.9v-.5c0-.9,0-2.9,1.4-3,1.9-.1,3.5,2.1,4.5,3.3,2.4,2.9,4,7.1,4.8,11-.1-.1-.3-.3-.4-.4-1.6-1.7-2.3-4.3-3.5-6.2-1-1.6-3.1-5.8-5.7-5-.5.1-.8.5-1,.9ZM184.7,172.4c0-.1.2-.3.3-.4,1.9-2.6,5.4-1.5,7.5.2,5.8,4.5,5.4,13.2,5.5,19.8-1-1.9-1.9-3.8-2.3-6-.8-4-1-10.8-5.4-12.9-.8-.4-1.7-.7-2.6-.8-.7,0-1.3,0-2,0-.3,0-.6,0-.8.2ZM141.5,202.3c.6-1.2,1.3-2.4,2-3.6,2.5-4.2,5.7-8.1,7.7-12.6,1.2-2.6,1.7-5.4,2.6-8.1,1.7-4.6,5-9.7,9.9-11.7,2.5-1.1,4,0,5.1,1.7-.3-.2-.7-.4-1-.5-1.2-.4-2.5.5-3.4,1.1-2.5,1.8-4.7,4.1-6.5,6.5-2.4,3.3-3.6,7-5.6,10.5-3.1,5.6-6.7,11.4-10.7,16.7Z"/>
    </g>
  </g>
  <g class="st49">
    <g class="st43">
      <path class="st15" d="M206.6,200.1c1,2.6,3.1,5.4,4.8,7.6,1.5,1.9,3.2,3.5,3.7,5.9.3,1.3.3,2.7.2,4,0,.4-.1,1.2-.6,1.4-.6.2-1-.8-1.2-1.1-.8-1.5-1.3-3.2-1.9-4.8-.8-2-1.6-3.8-2.8-5.6-1.3-1.8-3.1-3.5-3.9-5.6-.9-2.2-1.1-11.7,0-11.9,2.2-.4,0,5.9,1.7,10.2ZM218.9,181.9c1.2-.3,2.1,2,2.6,2.6,2.1,3.2,3.7,6.4,6.2,9.4.4.6,2.6,2.9,1.7,3.7-.7.7-2.8-1.9-3.1-2.3-2.2-2.4-4.1-4.7-5.1-7.7-.1-.3-2.9-5.6-2.2-5.8ZM176.8,187.6c0,.4,0,3.3-.3,5.6-.3,2.1-1.1,3.5-1.4,4.2-.2.5-.9,1.4-1.4.7-.8-1.2-.2-3.1,0-4.4.4-1.7,1.3-3.3,1.7-5,.5-2.2.4-4.5.9-6.8.5-2.6.2-5.2.6-7.9,0-.5.3-2.2,1.1-2.3.3,0,.4.5.5.8.2,1,0,2,0,3-.1,4.1-1.2,8-1.7,12ZM182.7,153.1c-1-.2-2-.5-3-.8-1.8-.5-3.5-1.3-5.4-1.5-5.6-.6-9.6,2.4-12.8,6.3-2,2.5-3,5.4-4.5,8.1-1.7,3.1-4.5,5.5-6,8.8-2.1,4.6-4.4,8.7-6.4,13.3-1.5,3.4-3.8,6.7-6,9.8-2.3,3.2-4,7.6-7.9,9.2-.9.4-2.5.9-3.7.6,1.6-2.2,3.5-4.5,4.8-6.4,2.3-3.4,4.6-7,6.8-10.4,3.8-5.9,7.7-11.7,10.9-18,3.2-6.5,6.8-13.9,12.7-19,3.9-3.4,9.3-5.5,15.5-3,1.4.6,3.3,1.8,5.1,3ZM207.8,158.4c-1.8-.3-3.5-.9-5.4-1.2-3.1-.5-6.1,1.2-9.2,1.2-3.9,0-6.3-2-8.9-4.3.9.6,1.8,1,2.5,1.3,5.7,2,10.8-.4,16.8,1.2,1.5.4,2.8,1,4.1,1.7Z"/>
    </g>
  </g>
  <g class="st5">
    <g class="st45">
      <path class="st13" d="M222.1,180.4c-2.4.4-5-.6-6.8-3-.9-1.2-2-4.7-3.6-4.9-1.1-.1-1.8,1.3-2.4,2-1.1,1.5-3.4,5.2-5.6,4.8-1.4-.3-2.6-1.8-3.4-3-1.6-2.8-2.3-7.3-4.7-9.4-3.2-2.7-8.5.3-12.3-.5-2.5-.5-4.9-2-6.7-3.9-1.4-1.5-2.7-3.4-4.4-4.5-1.5-1-3.6-.3-5.3,0-.7.1-1.6.1-1.4-.9.8-2.8,5.1-3.5,7.2-2.9,1,.3,1.9.8,2.8,1.5,2.1,1.7,3.6,4.2,5.7,5.8,1.4,1.1,3.3,1.5,5,1.7,1.8.1,3.7-.2,5.4-.7.6-.2,1.2-.4,1.8-.6.7-.2,1.4-.4,2-.5,1.1-.1,2.1,0,3.1.6,3.7,2.3,3.7,8.4,7.7,10.2,3.4,1.6,2.9-4.2,5.2-4.4,1.2-.1,2.4,2,3.1,2.8,1.3,1.6,2.8,2.5,4.7,2.9.2.5.4.9.6,1.4.8,1.9,1.5,3.8,2.2,5.7Z"/>
    </g>
  </g>
  <g class="st7">
    <g class="st0">
      <path class="st15" d="M175.5,155.6c0-.1.3-.1.9,0,3.3.8,6.3,3.5,9,5.2,1.2.8,3,1.1,4.5,1.2,1.2,0,2.5,0,3.7-.3.4,0,.8-.2,1.1-.3.3,0,.6-.2.9-.3,1.8-.5,3.6-1,5.4-.2,3.3,1.7,3.3,6.1,6.8,7.5,3,1.2,2.5-2.4,4.6-2.5,1.1,0,2.3.8,2.9,1.4.6.6,1.2,1.1,1.9,1.4.5.8.9,1.7,1.3,2.5.3.7.6,1.3.9,2,.2.5.4.9.6,1.4-1.5-.2-3-1-4.1-2.2-.8-.9-1.8-3.4-3.3-3.6-1-.1-1.7.9-2.1,1.5-1,1.1-3,3.8-5,3.5-1.3-.2-2.4-1.3-3-2.2-1.5-2.1-2-5.3-4.2-6.9-2.9-2-7.6.2-11-.4-2.3-.4-4.4-1.5-6-2.9-1.3-1.1-2.4-2.8-3.9-4-.9-.7-2-1.7-1.7-2Z"/>
    </g>
  </g>
  <g class="st33">
    <g class="st32">
      <path class="st18" d="M103.1,237.1c-4.9,5.5-9.9,11.1-14.8,16.3-3.6,3.9-9,6.1-5.5,9.1,6.8,5.9,20.7,5,30.3,7.9,5.2,1.6,10.8,4.4,16.3,4.9,7.7.7,15.3-.9,23,0,4.1.5,2.7,2.5,5.7,4.4,1.7,1.1,5.9,1.9,7.9,2,17.9,1.5,35.2-1.9,52.8-3.8,5.3-.6,10.7-.1,16-.4,12.4-.7,23.9-3,35.5-7.1,3.8-1.3,11.8-2.4,14.4-5.7.8-1-2.5-4.9-4.9-7.5-1.7.1-3.7-.3-5.3-.6-4-.9-7-4.6-10.8-5.1-3.2-.5-6.3,1.8-9.4.6-2.1-.9-3.5-3.3-4.7-5-2.6-3.6-5.1-7.3-8.2-10.6-1.2-1.3-2.5-2.7-4-3.7-.3-.2-1.3-1-1.6-.5-1.1,1.8,2.5,6.2,3.3,7.6,3.6,6,5.2,12.1,7.7,18.5.5,1.3,2.8,5.2,1.8,6.6-.6.7-2.1.1-2.8-.2-2.3-1-4.2-3-5.7-4.9-2.2-2.7-4.1-5.8-6.7-8.1-2-1.8-4.9-2.6-6.6-4.7-2.4-3-3.2-7.2-5-10.5-1.6-3-3.4-5.8-5.4-8.6-.2-.2-1.8-2.8-2.3-2.5-.6.4-.5,2.2-.5,2.8,0,3.1.8,6,1.7,9,.7,2.3,1.4,4.5,2.1,6.8,1,3.5,3,7.9,2.8,11.6,0,2.3-1.2,4.4-1.5,6.7-.2,1.7.4,5-.9,6.4-1,1.2-3.7,1.6-5.2,2.1-1.6.6-3.3,1.3-5,1-10.5-1.6-9.5-16.7-10.4-23.8-.3-2.3-.7-4.6-1.1-6.9-.6-3.1-1-6.2-2-9.2-.1-.3-.8-2.7-1.5-2.4-.6.2-.7,1.9-.7,2.4-.4,2.6-.4,5.2-.7,7.7-.7,7.7-1.8,15.2-3.1,22.8-.4,2.4,0,6.6-1.9,8.6-1.2,1.2-3.7.3-5.1,0-3.9-1-8-1.3-9.3-5.5-2-6-2.1-12.7-3.6-18.8-.1-.5-.9-5.5-1.8-5.5-.5,0-.9,1.3-1,1.6-.7,1.8-1.3,3.6-2,5.4-2,5.2-4.6,10.2-6.2,15.5-.7,2.3-1.7,5.4-4.5,5.9-2.1.3-3.9-1.2-5.5-2.1-1.7-.9-3.5-1.9-4.5-3.6-1.1-2-.5-4.4-.3-6.5.5-5.6,2.2-10.9,4-16.2.8-2.5,1.8-5,2.6-7.5,1-3,2-6.1,2.8-9.2.9-3.1,1.6-6.3,2.2-9.5.1-.7.7-2.8,0-3.3-1.1-.7-3.5,2.5-3.9,3.1-3.5,4.3-6.1,9.2-10.1,13.3-3.3,3.4-6.9,6.6-9.7,10.4-4.6,6.2-8.9,14.3-15.7,18.6-4.2,2.7-13,4-18,3.9-4,0-2.1-4.1-1.1-6.3,2.6-5.8,5.2-11.7,7.8-17.5Z"/>
    </g>
  </g>
</svg>