<?xml version="1.0" encoding="UTF-8"?>
<svg id="Layer_1" xmlns="http://www.w3.org/2000/svg" version="1.1" xmlns:xlink="http://www.w3.org/1999/xlink" viewBox="0 0 362 500">
  <!-- Generator: Adobe Illustrator 29.3.1, SVG Export Plug-In . SVG Version: 2.1.0 Build 151)  -->
  <defs>
    <style>
      .st0 {
        clip-path: url(#clippath-6);
      }

      .st1 {
        clip-path: url(#clippath-4);
      }

      .st2 {
        fill: #e26225;
      }

      .st2, .st3, .st4, .st5, .st6 {
        fill-rule: evenodd;
      }

      .st3 {
        fill: #fef5e7;
      }

      .st7, .st8 {
        fill: none;
      }

      .st9 {
        clip-path: url(#clippath-1);
      }

      .st10 {
        clip-path: url(#clippath-5);
      }

      .st11 {
        clip-path: url(#clippath-3);
      }

      .st4 {
        fill: #beb935;
      }

      .st12 {
        fill: #e4fcfc;
      }

      .st5 {
        fill: #87abd5;
      }

      .st8 {
        stroke: #38b6ff;
        stroke-width: 10px;
      }

      .st13 {
        clip-path: url(#clippath-2);
      }

      .st6 {
        fill: #954f1b;
      }

      .st14 {
        clip-path: url(#clippath);
      }
    </style>
    <clipPath id="clippath">
      <rect class="st7" x="4.5" y="-.4" width="360" height="500"/>
    </clipPath>
    <clipPath id="clippath-1">
      <rect class="st7" x="53.1" y="42.8" width="263.2" height="246.9"/>
    </clipPath>
    <clipPath id="clippath-2">
      <path class="st7" d="M184.7,42.8c-72.7,0-131.6,55.3-131.6,123.5s58.9,123.5,131.6,123.5,131.6-55.3,131.6-123.5-58.9-123.5-131.6-123.5Z"/>
    </clipPath>
    <clipPath id="clippath-3">
      <rect class="st7" x="53.1" y="42.8" width="263.2" height="246.9"/>
    </clipPath>
    <clipPath id="clippath-4">
      <path class="st7" d="M184.7,42.8c-72.7,0-131.6,55.3-131.6,123.5s58.9,123.5,131.6,123.5,131.6-55.3,131.6-123.5-58.9-123.5-131.6-123.5Z"/>
    </clipPath>
    <clipPath id="clippath-5">
      <rect class="st7" x="54.9" y="155.7" width="267.1" height="110.9"/>
    </clipPath>
    <clipPath id="clippath-6">
      <rect class="st7" x="105.2" y="84.1" width="89" height="89.8"/>
    </clipPath>
  </defs>
  <g class="st14">
    <path class="st12" d="M183,239c-47.4,0-85.9-36.1-85.9-80.6s38.5-80.6,85.9-80.6,85.9,36.1,85.9,80.6-38.5,80.6-85.9,80.6ZM336.7,83.1C287,3.4,178-23.4,93.1,23.2,8.3,69.8-20.3,172.1,29.3,251.7l153.7,246.5,153.7-246.5c31.2-50.3,33.6-114.8,0-168.7"/>
  </g>
  <g class="st9">
    <g class="st13">
      <path class="st12" d="M53.1,42.8h263.2v246.9H53.1V42.8Z"/>
    </g>
  </g>
  <g class="st11">
    <g class="st1">
      <path class="st8" d="M184.7,42.8c-72.7,0-131.6,55.3-131.6,123.5s58.9,123.5,131.6,123.5,131.6-55.3,131.6-123.5-58.9-123.5-131.6-123.5Z"/>
    </g>
  </g>
  <g class="st10">
    <path class="st5" d="M139.9,158s-31,0-47.5,3.1c-16.5,3-23.4,7.7-25.1,12.3s6,6.6,2.1,10.9-12.8,7.7-14.3,16.6,9.9,17,21.4,21.6c11.5,4.6,20,6.2,17.2,9.9s-8.5,6.3-6.5,12.2c2,5.9,21.4,13.8,46.2,16.8,24.8,2.9,51.7,5.3,65.1,3.9,13.4-1.5,10.9-5,20.9-5.9,9.9-1,29.8-.1,43.5-5.5,13.7-5.4,10.8-10.5,18.9-13.6s19.9-4.6,24.8-14.2c4.9-9.6-10.6-16.9-4.3-20.8,6.3-3.8,17.4-6.9,19.3-14,1.9-7.1-2.4-20.3-51.3-28.5-48.9-8.3-130.3-4.5-130.3-4.5Z"/>
  </g>
  <path class="st3" d="M192.5,241.6c-.3,0-.6-.1-.6-.4s.1-.5.4-.6c0,0,2.5-.4,3.9-1.2.2-.1.5-.3.6-.5,0,0,.1-.2,0-.3-.1-.5-.6-.9-1.2-1.2-.9-.5-2-.8-2-.8-.3,0-.5-.3-.4-.6,0-.3.3-.4.6-.4,0,0,1.2.3,2.3.9.8.5,1.5,1.1,1.7,1.9.2.7-.3,1.3-1.1,1.8-1.5.9-4.3,1.3-4.3,1.3ZM120.3,224.9c.3,0,.5.3.5.5s-.3.5-.6.4c0,0-2.3-.2-4.8,0-1.6,0-3.2.3-4.2.8-.1,0-.2,0-.2.2,0,0,0,.2.1.3.1.2.3.3.5.5,1.9,1.5,6.6,3.3,6.6,3.3.3.1.4.4.3.7-.1.2-.4.4-.7.3,0,0-4.9-1.9-6.9-3.5-.4-.3-.7-.7-.9-1-.2-.3-.2-.6,0-.8,0-.3.3-.5.7-.7,1.1-.6,2.9-.9,4.6-1,2.5-.1,4.9,0,4.9,0ZM105.7,237.6c-.3-.1-.3-.4-.2-.7.2-.2.5-.3.7-.2,0,0,11,5.7,27.3,11.1.3,0,.4.4.3.6-.1.3-.4.4-.7.3-16.4-5.4-27.4-11.2-27.4-11.2ZM202.7,247.2c.2-.2.6-.1.7,0,.2.2.1.5,0,.7,0,0-4.7,3.5-15.7,6.2-10.9,2.7-12.4,3.5-23.7,2.4-.3,0-.5-.3-.5-.5,0-.3.3-.5.6-.4,11.1,1.1,12.6.3,23.3-2.4,10.7-2.7,15.3-6,15.3-6ZM114.2,221.7c.3,0,.5.2.5.5s-.3.5-.5.5c0,0-4.7-.2-8.3.7-1.4.4-2.7.9-3.3,1.7-.8,1-.6,2.2.3,3.4,1.5,2.1,5.1,4.4,9.9,6.6,8.2,3.7,17.8,7.1,25.8,9.4,8,2.3,18.5,5.2,27.9,6.1,9.3.9,20.3-2.4,25.8-4.6.3-.1.6,0,.7.3.1.3,0,.6-.3.7-5.6,2.3-16.8,5.6-26.3,4.7-9.4-.9-20-3.8-28.1-6.1-8-2.3-17.7-5.7-26-9.5-5-2.3-8.7-4.7-10.3-7-1.2-1.7-1.3-3.2-.3-4.6.8-1,2.2-1.6,3.9-2,3.7-.9,8.6-.7,8.6-.7ZM109.6,178.4c.3,0,.5.1.6.4,0,.3-.1.5-.4.6,0,0-2.3.4-3.8,1.6-.9.7-1.5,1.7-.9,3.1.3.6.7,1.1,1.4,1.7,1,.8,2.5,1.6,4.1,2.2,4.1,1.7,9.4,2.8,12.3,3.1.3,0,.5.3.4.6,0,.3-.3.5-.6.4-3.4-.5-10.2-1.9-14.6-4.1-2-1-3.4-2.2-4-3.5-.8-1.9,0-3.2,1.3-4.2,1.7-1.3,4.3-1.8,4.3-1.8ZM137.9,176.6c.3,0,.5.3.4.6,0,.3-.3.5-.6.4-.9-.1-2.1.2-2.2.2-.6.2-1.9.6-2.6,1.3-.2.2-.4.4-.4.6s0,.3.2.5c.6.8,1.8,1.1,2.6,1.4,2.5.8,5.3,1,7.9,1.3,6.6.7,13.3,2.4,20,1.4.9-.1,2.9-.8,4-1.7.6-.5,1-1.2.6-2-.3-.5-.8-.9-1.3-1.2-.9-.5-2.1-.8-3-1.1-.3,0-.4-.4-.3-.6,0-.3.4-.4.7-.3.9.3,2.2.6,3.2,1.2.7.4,1.4.9,1.7,1.6.7,1.2.2,2.3-.8,3.1-1.3,1.1-3.5,1.8-4.6,2-6.8,1-13.5-.7-20.2-1.4-2.7-.3-5.5-.6-8.2-1.4-1.1-.3-2.5-.8-3.2-1.7s-.4-.7-.4-1c0-.5.3-.9.7-1.3.8-.8,2.4-1.3,3.1-1.5.1,0,1.6-.4,2.6-.3ZM149.6,187.4c.3,0,.5.3.5.5s-.3.5-.6.4c-.3,0-1.6-.1-1.9-.2-1.1-.1-2.3-.2-3.4-.4-3.1-.3-6.3-.6-9.4-1.2-2.8-.6-6.3-1.4-8.5-3.3-1.2-1-1.7-2.2-1.7-3.3,0-1.7,1.2-3.3,3.2-4.3,1-.5,2.1-.8,3.2-1,.3,0,.6.1.6.4,0,.3-.1.5-.4.6-1,.2-2,.5-2.9,1-1.6.8-2.6,2-2.6,3.4,0,.9.4,1.8,1.3,2.6,2.1,1.7,5.4,2.5,8,3,3.1.6,6.2.9,9.3,1.2,1.1.1,2.3.2,3.4.4.3,0,1.6.1,1.9.2ZM163.2,189.5s0,0-.1,0c-.4,0-.9,0-1.1-.1-1.5-.1-3,0-4.4,0s-2.2,0-3.1-.2c-.3,0-.5-.2-.5-.5,0-.3.3-.5.5-.5,1,0,2.9.1,3.1.1,1.5,0,3,0,4.5.1.3,0,1.1,0,1.6.2.4.1.6.4.7.7,0,.3,0,.6-.4.9-.4.5-1.3.9-1.5,1.1-1.7,1.2-3.5,2.3-4.9,3.8-1.2,1.4-1.1,3.1-.3,4.6,1.3,2.5,4.2,4.8,6,5.9.2.1.3.5.2.7-.2.2-.5.3-.7.2-2-1.2-5.1-3.7-6.4-6.4-1-1.9-1.1-3.9.4-5.7,1.4-1.6,3.3-2.8,5.1-4,.2-.1.8-.5,1.2-.8,0,0,.2-.1.2-.2ZM221.2,213.9c.3,0,.5.2.5.5s-.2.5-.5.5c-4,0-12.2-.1-15.3-.3-8.2-.5-16.5-1.3-24.6-2.8-3.6-.7-7.8-1.1-10.9-2.2-.3,0-.4-.4-.3-.6.1-.2.4-.4.7-.3,3,1.1,7.2,1.5,10.8,2.2,8,1.5,16.3,2.2,24.4,2.7,3.1.2,11.3.3,15.3.3ZM268.3,212c.3,0,.6,0,.7.3s0,.5-.3.6c-3.5,1.1-8.3,1.5-11.3,2-4.7.7-10.8.9-15.5,1-3.8,0-7.5.1-11.5,0-.3,0-.5-.2-.5-.5,0-.3.3-.5.6-.5,3.9.2,7.6.2,11.4,0,4.7-.1,10.7-.3,15.4-1,2.9-.4,7.7-.8,11.1-1.9ZM279.5,190.7c-.3-.1-.3-.4-.2-.7s.5-.3.7-.2c2.2,1.1,4.1,2.6,5.6,4.5.8.9,1.5,2,2,3.1,1.2,2.5.3,4.9-1.5,7-2.6,3-7.4,5.3-10.8,6.2-.3,0-.6,0-.6-.4,0-.3,0-.5.4-.6,3.3-.8,7.8-3,10.3-5.8,1.6-1.8,2.4-3.8,1.3-5.9-.5-1-1.1-2-1.8-2.9-1.5-1.7-3.2-3.1-5.3-4.2ZM215.3,207.8c-.3,0-.5-.3-.4-.6,0-.3.3-.5.6-.4.8,0,3,.2,4.1.2,4,.2,7.8.7,11.8.6,5.6-.2,11.5.2,17.1,0,7.1-.3,14.2-.1,21-2.7,1.7-.6,5.4-2,7.7-4,1.4-1.2,2.2-2.5,1.5-4.1-.7-1.5-2.1-2.7-3.7-3.6-1.7-.9-3.6-1.6-5.4-2.2s-.4-.4-.3-.6c0-.3.4-.4.7-.3,3.7,1.2,8.1,2.9,9.8,6.3,1,2,0,3.7-1.7,5.2-2.4,2-6.3,3.5-8,4.2-6.8,2.6-14.1,2.4-21.3,2.8-5.6.3-11.5-.1-17.1,0-4,.1-7.9-.4-11.9-.6-1.1,0-3.4,0-4.2-.2ZM176.5,190.8c.3,0,.5.2.5.5,0,.3-.2.5-.5.5-1.5,0-5.1,1-5.3,1.1-1.3.5-2.7,1.4-3.7,2.5-.6.7-1,1.5-1,2.4,0,1.4,1.1,2.5,2.4,3.2,2.2,1.2,5.3,1.8,7.2,2.1,4,.7,8.2,1.1,12.3,1.5,6.7.6,13.3,1.2,20.1,1.5.3,0,.5.2.5.5,0,.3-.3.5-.5.5-6.8-.3-13.4-.9-20.1-1.5-4.1-.4-8.3-.8-12.4-1.5-2-.3-5.2-.9-7.5-2.2-1.7-.9-2.8-2.2-2.9-4,0-1.1.4-2.2,1.2-3.1,1.1-1.3,2.7-2.2,4.1-2.8.3-.1,4-1.2,5.7-1.2Z"/>
  <path class="st2" d="M190,241.3c.7-.2,1.2-.4,1.3-.4.7-.3.4-1-2.5-6.1-2.9-5.1-3.7-6.8-8.4-9.7s-22.2-10.7-26.5-12.4c-4.3-1.7-18.3.4-20.7,1.4s-14.9,17.6-14.9,17.6c0,0,1.8.9,4.5,2.1,3.7,1.7,9.1,3.2,13.3,4.9,1.4.6,2.7,1.1,3.8,1.4,0,0,.2,0,.3,0,6,1.9,11.3,2.6,16.2,3.7.2,0,.4,0,.6.2,2.1.5,4,1,6,1.2,2.7.4,5.6.4,9.8-.2,5.9-.9,14-2.9,17.2-3.8Z"/>
  <path class="st6" d="M163,245.4c-.4-3.1-1.1-9.3-.3-10.2,1-1.2,19.8-5.8,21-5.2,1,.5,4.9,8.3,6.3,11.3-3.2.9-11.3,2.9-17.2,3.8-4.2.6-7.1.6-9.8.2ZM139.9,240.2c1.6-2.6,5.1-8.7,5.8-8.9,1-.3,10.4,3.7,10.7,4.7.2.8,0,5.7,0,8.1-4.9-1.2-10.2-1.8-16.2-3.7h-.3ZM122.8,233.9c1.8-2.2,5.5-8,6.7-9.3,1.6-1.9,2.2-2.8,4.1-1.9,1.9,1,7.8,5,7.8,6.1,0,.8-3.6,7.2-5.3,10-4.2-1.7-9.6-3.1-13.3-4.9Z"/>
  <path class="st6" d="M167.3,230.5c-.3,0-.5-.1-.6-.4s.1-.6.4-.6c0,0,10.3-1.8,14-2.9.3,0,.6,0,.6.4,0,.3,0,.6-.3.7-3.7,1.1-14.1,2.9-14.1,2.9ZM133.6,216c-.2-.2-.3-.5-.1-.8.2-.3.5-.3.7-.1,0,0,9.3,7,18.2,11.7,7.4,3.9,11.9,3,11.9,3,.3,0,.6.1.6.4,0,.3-.1.6-.4.7,0,0-4.8,1.1-12.6-3-8.9-4.7-18.3-11.8-18.3-11.8Z"/>
  <g class="st0">
    <path class="st4" d="M115.2,128.4s-7.5,3.7-7.1,10.5c.3,6.8,9,10.2,9,10.2,0,0-3.9,4.1-.6,10.1s12.9,5.1,16.5,3.2c0,0,1.3,6.6,12.4,8.4,11.1,1.8,11.2-2.1,11.2-2.1,0,0,8.9,3.2,15.6-5.7,6.7-8.9,15.4-14.8,15.4-14.8,0,0,5.8-6.6,5.1-13.8-.8-7.2-8-9.6-8-9.6,0,0,4.3-6.7,1.3-13.6-3.1-6.9-8.3-8.7-13.4-6,0,0,3.2-11.3-4.8-15.1-7.9-3.8-13.3.9-15.2,3.1,0,0-6.6-9-15.6-7-9,2-12,12.5-10.5,18.3,0,0-8.6-2.4-13.9,4.7s-1.6,14.3,2.6,19.2Z"/>
  </g>
  <path class="st6" d="M141.8,179.2c-.4-.1.9-9.3.8-14.6-.1-5.3-2.9-11.4-4.8-14.8s-5.4-8.4-5.4-9c0-.6,1.3-1.9,2.4-1.8,1.1,0,4.3,5.9,7.2,9.9s5,6.7,5.2,5.8c.2-.9,1.4-10.9.8-19-.7-8.1-1.4-13.3-1-13.8.5-.5,2.8-.8,3.6-.2s2,17.8,2.6,20.3c.6,2.5,1.8-2.5,3-8.4,1.2-5.9,1.3-7,1.8-7.1.5,0,2.9.3,3,1.3,0,1-1.5,7.7-3.1,16.2-1.5,8.5-1.9,12.2-1.4,11.5.6-.7,6.3-7.7,9.1-11.1,2.8-3.4,3.5-4.1,3.5-4.1,0,0,2,1.4,1.9,2s-4.8,6.4-8.3,11.9-4.6,9.2-4.8,11.3.6,14,.3,14.4c-.3.4-9.6,1.4-16.3-.6Z"/>
  <path class="st2" d="M259.9,128.1c.9,0,1.6.7,1.6,1.5v22.1h-12.7v-22.1c0-.8.7-1.5,1.6-1.5,2.4,0,7.1,0,9.6,0Z"/>
  <path class="st3" d="M178.1,196.6v-39.8c-.1,0,46.9-20.9,46.9-20.9l41.6,20.9v40.5c-3.3.5-7.3,1.4-11.7,1.2-4.6-.2-10.7.8-18.2,1-1.5,0-3.1,0-4.8,0-7.7-.3-14.5-.4-23.9-.8-2.6-.1-5.5-.3-8.6-.4-10.4-.6-17.8-.5-21.4-1.6Z"/>
  <path class="st2" d="M223.9,140.2c-1-.6-2.3-.6-3.3,0-8.2,4.7-44.3,25.1-44.3,25.1-1.7,1-4,.5-5-1.2l-2.2-3.5c-1-1.6-.5-3.7,1.3-4.7,10.3-5.8,43.2-24.4,50.5-28.6.9-.5,2-.5,2.9,0,8.4,4.8,50.3,28.5,50.3,28.5,1.7,1,2.3,3.1,1.3,4.7l-2.2,3.5c-1,1.6-3.3,2.2-5,1.2,0,0-36.1-20.5-44.3-25.1Z"/>
  <path class="st6" d="M247,184.4h-7.4c-.2,0-.4,0-.5-.2s-.2-.3-.2-.5v-6.3h8.2s0,7,0,7ZM256.4,177.4v6.3c0,.2,0,.4-.2.5-.1.1-.3.2-.5.2h-7.1v-7s7.8,0,7.8,0ZM248.6,167.8h7c.2,0,.4,0,.5.2s.2.3.2.5v7.4h-7.8s0-8.2,0-8.2ZM238.8,175.9v-7.4c0-.2,0-.4.2-.5.1-.1.3-.2.5-.2h7.5v8.1s-8.2,0-8.2,0ZM196.4,184.4h-7.4c-.2,0-.4,0-.5-.2-.2-.1-.2-.3-.2-.5v-6.3h8.2s0,7,0,7ZM205.7,177.4v6.3c0,.2,0,.4-.2.5-.1.1-.3.2-.5.2h-7.1v-7s7.8,0,7.8,0ZM198,167.8h7c.2,0,.4,0,.5.2.1.1.2.3.2.5v7.4h-7.8s0-8.2,0-8.2ZM188.2,175.9v-7.4c0-.2,0-.4.2-.5.1-.1.3-.2.5-.2h7.4v8.1s-8.2,0-8.2,0Z"/>
  <path class="st6" d="M249.5,142.4c-.2-.1-.3-.4-.2-.7.2-.2.5-.3.7-.2l10.8,6.1c.2.1.3.4.2.7s-.5.3-.7.2l-10.7-6.1Z"/>
  <path class="st2" d="M208.1,198.7c1.7-5.9,7.4-10.3,14.2-10.3s13,4.8,14.4,11.1c-1.5,0-3.1,0-4.8,0-7.7-.3-14.5-.4-23.9-.8Z"/>
</svg>