<svg xmlns="http://www.w3.org/2000/svg" xmlns:xlink="http://www.w3.org/1999/xlink" width="500" zoomAndPan="magnify" viewBox="0 0 375 374.999991" height="500" preserveAspectRatio="xMidYMid meet" version="1.0"><defs><clipPath id="a90cee32bb"><path d="M 104.449219 48.054688 L 283.6875 48.054688 L 283.6875 227.292969 L 104.449219 227.292969 Z M 104.449219 48.054688 " clip-rule="nonzero"/></clipPath><clipPath id="8614182e75"><path d="M 194.066406 48.054688 C 144.570312 48.054688 104.449219 88.179688 104.449219 137.675781 C 104.449219 187.171875 144.570312 227.292969 194.066406 227.292969 C 243.5625 227.292969 283.6875 187.171875 283.6875 137.675781 C 283.6875 88.179688 243.5625 48.054688 194.066406 48.054688 Z M 194.066406 48.054688 " clip-rule="nonzero"/></clipPath><clipPath id="ae27fc3f6a"><path d="M 104.449219 48.054688 L 283.6875 48.054688 L 283.6875 227.292969 L 104.449219 227.292969 Z M 104.449219 48.054688 " clip-rule="nonzero"/></clipPath><clipPath id="9eff64daf2"><path d="M 194.066406 48.054688 C 144.570312 48.054688 104.449219 88.179688 104.449219 137.675781 C 104.449219 187.167969 144.570312 227.292969 194.066406 227.292969 C 243.5625 227.292969 283.6875 187.167969 283.6875 137.675781 C 283.6875 88.179688 243.5625 48.054688 194.066406 48.054688 Z M 194.066406 48.054688 " clip-rule="nonzero"/></clipPath><clipPath id="ee4eac1422"><path d="M 111.644531 183 L 275.894531 183 L 275.894531 221 L 111.644531 221 Z M 111.644531 183 " clip-rule="nonzero"/></clipPath><clipPath id="3226c62bed"><path d="M 111.644531 144.945312 C 111.644531 165.152344 119.671875 184.53125 133.960938 198.820312 C 148.25 213.109375 167.628906 221.136719 187.835938 221.136719 L 199.96875 221.136719 C 220.175781 221.136719 239.554688 213.109375 253.84375 198.820312 C 268.132812 184.53125 276.160156 165.152344 276.160156 144.945312 C 276.160156 124.738281 268.132812 105.355469 253.84375 91.070312 C 239.554688 76.78125 220.175781 68.753906 199.96875 68.753906 L 187.835938 68.753906 C 167.628906 68.753906 148.25 76.78125 133.960938 91.070312 C 119.671875 105.355469 111.644531 124.738281 111.644531 144.945312 Z M 111.644531 144.945312 " clip-rule="nonzero"/></clipPath><clipPath id="69f98084d4"><path d="M 113 183 L 275 183 L 275 220 L 113 220 Z M 113 183 " clip-rule="nonzero"/></clipPath><clipPath id="2db6ccb3ed"><path d="M 111.644531 144.945312 C 111.644531 165.152344 119.671875 184.53125 133.960938 198.820312 C 148.25 213.109375 167.628906 221.136719 187.835938 221.136719 L 199.96875 221.136719 C 220.175781 221.136719 239.554688 213.109375 253.84375 198.820312 C 268.132812 184.53125 276.160156 165.152344 276.160156 144.945312 C 276.160156 124.738281 268.132812 105.355469 253.84375 91.070312 C 239.554688 76.78125 220.175781 68.753906 199.96875 68.753906 L 187.835938 68.753906 C 167.628906 68.753906 148.25 76.78125 133.960938 91.070312 C 119.671875 105.355469 111.644531 124.738281 111.644531 144.945312 Z M 111.644531 144.945312 " clip-rule="nonzero"/></clipPath><clipPath id="1b7a5321df"><path d="M 123 68.753906 L 275 68.753906 L 275 197 L 123 197 Z M 123 68.753906 " clip-rule="nonzero"/></clipPath><clipPath id="09ca99f8fb"><path d="M 111.644531 144.945312 C 111.644531 165.152344 119.671875 184.53125 133.960938 198.820312 C 148.25 213.109375 167.628906 221.136719 187.835938 221.136719 L 199.96875 221.136719 C 220.175781 221.136719 239.554688 213.109375 253.84375 198.820312 C 268.132812 184.53125 276.160156 165.152344 276.160156 144.945312 C 276.160156 124.738281 268.132812 105.355469 253.84375 91.070312 C 239.554688 76.78125 220.175781 68.753906 199.96875 68.753906 L 187.835938 68.753906 C 167.628906 68.753906 148.25 76.78125 133.960938 91.070312 C 119.671875 105.355469 111.644531 124.738281 111.644531 144.945312 Z M 111.644531 144.945312 " clip-rule="nonzero"/></clipPath></defs><path fill="#e4fcfc" d="M 192.914062 190.484375 C 160.597656 190.484375 134.398438 164.289062 134.398438 131.96875 C 134.398438 99.652344 160.597656 73.453125 192.914062 73.453125 C 225.234375 73.453125 251.429688 99.652344 251.429688 131.96875 C 251.429688 164.289062 225.234375 190.484375 192.914062 190.484375 Z M 297.597656 77.273438 C 263.789062 19.472656 189.527344 0.0234375 131.726562 33.828125 C 73.929688 67.636719 54.476562 141.902344 88.285156 199.699219 L 192.945312 378.625 L 297.597656 199.699219 C 318.855469 163.152344 320.46875 116.371094 297.597656 77.273438 " fill-opacity="1" fill-rule="nonzero"/><g clip-path="url(#a90cee32bb)"><g clip-path="url(#8614182e75)"><path fill="#e4fcfc" d="M 104.449219 48.054688 L 283.6875 48.054688 L 283.6875 227.292969 L 104.449219 227.292969 Z M 104.449219 48.054688 " fill-opacity="1" fill-rule="nonzero"/></g></g><g clip-path="url(#ae27fc3f6a)"><g clip-path="url(#9eff64daf2)"><path stroke-linecap="butt" transform="matrix(0.75, 0, 0, 0.75, 104.448074, 48.054724)" fill="none" stroke-linejoin="miter" d="M 119.491117 -0.0000487259 C 53.496321 -0.0000487259 0.00152575 53.499955 0.00152575 119.494751 C 0.00152575 185.484338 53.496321 238.984342 119.491117 238.984342 C 185.485913 238.984342 238.985916 185.484338 238.985916 119.494751 C 238.985916 53.499955 185.485913 -0.0000487259 119.491117 -0.0000487259 Z M 119.491117 -0.0000487259 " stroke="#e6affc" stroke-width="10" stroke-opacity="1" stroke-miterlimit="4"/></g></g><g clip-path="url(#ee4eac1422)"><g clip-path="url(#3226c62bed)"><path fill="#efa95a" d="M 111.6875 183.527344 L 275.890625 183.527344 C 275.890625 183.527344 275.070312 195.792969 270.640625 200.582031 C 266.210938 205.375 259.976562 208.976562 257.597656 210.878906 C 255.21875 212.78125 246.5 214.503906 241.316406 216.554688 C 236.132812 218.601562 188.941406 220.785156 181.984375 220.921875 C 175.027344 221.058594 138.261719 215.460938 132.882812 215.460938 C 127.503906 215.460938 124.078125 212.296875 122.710938 207.613281 C 121.34375 202.933594 117.742188 199.902344 117.335938 197.855469 C 116.925781 195.804688 111.6875 189.671875 111.6875 183.527344 Z M 111.6875 183.527344 " fill-opacity="1" fill-rule="nonzero"/></g></g><g clip-path="url(#69f98084d4)"><g clip-path="url(#2db6ccb3ed)"><path fill="#603a12" d="M 166.925781 183.527344 L 150.246094 187.644531 L 133.976562 185.875 L 117.074219 185.742188 L 134.292969 186.558594 L 148.285156 188.128906 L 137.703125 188.289062 L 113.292969 190.03125 C 113.320312 190.09375 113.339844 190.160156 113.367188 190.21875 C 113.539062 190.597656 113.726562 190.949219 113.90625 191.3125 L 137.28125 189.089844 L 140.929688 196.304688 L 119.941406 202.152344 C 120.132812 202.433594 120.324219 202.710938 120.515625 203.007812 C 120.546875 203.054688 120.574219 203.105469 120.601562 203.148438 L 142.582031 196.726562 L 158.996094 202.449219 L 133.734375 207.132812 L 122.710938 207.613281 C 122.882812 208.199219 123.085938 208.761719 123.320312 209.296875 C 123.554688 209.832031 123.820312 210.339844 124.121094 210.816406 C 124.15625 210.875 124.203125 210.921875 124.242188 210.980469 L 126.824219 209.667969 L 135.9375 208.890625 L 164.363281 203.613281 L 165.980469 208.601562 L 190.050781 210.277344 C 186.046875 211.042969 180.675781 212.128906 175.792969 213.246094 C 172.632812 213.96875 162.097656 215.683594 150.789062 217.472656 C 152.875 217.738281 154.675781 217.964844 156.84375 218.242188 C 156.960938 218.257812 157.058594 218.269531 157.179688 218.285156 L 194.121094 211.140625 L 211.050781 219.523438 C 211.496094 219.496094 211.867188 219.480469 212.316406 219.453125 C 214.257812 219.335938 216.125 219.199219 218.027344 219.070312 L 214.734375 217.445312 L 228.496094 214.652344 L 237.121094 211.710938 L 228.398438 213.660156 L 209.253906 214.730469 L 200.496094 210.398438 C 200.496094 210.398438 198.035156 209.152344 196.125 209.226562 C 193.804688 209.105469 174.015625 208.039062 170.179688 206.160156 C 166.109375 204.167969 166.375 197.152344 166.375 197.152344 L 184.164062 197.789062 L 194.992188 199.753906 L 207.515625 198 L 194.832031 198.226562 L 185.453125 193.507812 L 186.789062 189.660156 L 196.550781 188.082031 L 201.476562 184.140625 C 205.292969 185.992188 210.886719 188.660156 212.6875 189.25 L 217.414062 198.421875 L 210.269531 201.21875 C 210.269531 201.21875 207.953125 205.6875 207.667969 205.6875 C 207.386719 205.6875 201.363281 207.214844 201.363281 207.214844 L 209.402344 206.1875 L 211.414062 201.972656 L 221.183594 198.804688 L 215.21875 189.515625 C 220.226562 189.921875 232.898438 191.117188 232.898438 191.117188 L 246.367188 195.859375 L 264.914062 192.011719 L 273.589844 195.097656 C 273.796875 194.5 274.003906 193.902344 274.179688 193.292969 L 264.5625 189.742188 L 246.785156 194.515625 L 235.371094 189.121094 C 235.371094 189.121094 215.0625 188.203125 214.238281 187.648438 C 213.582031 187.210938 205.71875 184.609375 202.417969 183.527344 L 200.214844 183.527344 C 200.582031 183.707031 200.535156 183.683594 200.964844 183.894531 L 194.730469 187.425781 L 185.878906 187.929688 L 181.265625 191.335938 L 161.296875 195.285156 L 162.242188 197.066406 L 163.703125 201.578125 L 161.457031 201.996094 L 142.324219 195.441406 L 138.21875 189.003906 L 149.6875 189.320312 L 170.296875 183.527344 Z M 181.792969 193.382812 L 185.46875 195 L 192.007812 198.269531 L 183.300781 196.199219 L 167.804688 195.558594 Z M 240.070312 199.164062 L 228.480469 200.203125 L 224.015625 201.171875 L 239.3125 200.242188 L 249.597656 200.964844 L 255.546875 199.699219 L 249.296875 200.382812 Z M 264.453125 205.996094 L 260.984375 207.21875 L 223.414062 206.113281 L 251.546875 208.1875 L 254.808594 212.269531 C 255.410156 212.042969 255.957031 211.816406 256.425781 211.585938 C 256.902344 211.355469 257.300781 211.117188 257.597656 210.878906 L 255.714844 208.492188 L 260.445312 208.839844 C 261.339844 208.226562 262.300781 207.570312 263.347656 206.816406 C 263.710938 206.554688 264.085938 206.269531 264.453125 205.996094 Z M 264.453125 205.996094 " fill-opacity="1" fill-rule="nonzero"/></g></g><g clip-path="url(#1b7a5321df)"><g clip-path="url(#09ca99f8fb)"><path fill="#603a12" d="M 251.867188 68.753906 C 251.867188 68.753906 251.324219 69.976562 250.660156 71.503906 C 250.328125 72.265625 249.96875 73.101562 249.628906 73.898438 C 249.285156 74.695312 248.96875 75.449219 248.722656 76.050781 C 248.722656 76.054688 248.71875 76.0625 248.714844 76.066406 C 248.59375 76.363281 248.289062 76.855469 247.847656 77.488281 C 247.84375 77.492188 247.84375 77.496094 247.839844 77.5 C 247.832031 77.511719 247.820312 77.527344 247.8125 77.539062 C 247.378906 78.15625 246.820312 78.910156 246.183594 79.742188 C 246.15625 79.773438 246.136719 79.800781 246.113281 79.835938 C 246.078125 79.878906 246.035156 79.933594 246 79.980469 C 241.875 85.332031 234.597656 93.914062 234.429688 94.425781 C 234.300781 94.820312 234.320312 96.128906 234.359375 97.390625 C 234.386719 98.339844 234.429688 99.3125 234.429688 99.574219 C 234.429688 99.574219 234.425781 99.582031 234.425781 99.585938 C 234.421875 99.742188 234.152344 100.40625 233.730469 101.378906 C 233.308594 102.351562 232.742188 103.628906 232.160156 104.984375 C 232.035156 105.277344 231.910156 105.578125 231.785156 105.878906 C 231.785156 105.882812 231.785156 105.894531 231.789062 105.902344 C 230.753906 108.351562 229.746094 110.902344 229.53125 112.300781 C 229.054688 115.449219 222.726562 127.921875 222.726562 127.921875 C 222.726562 127.921875 218.523438 136.800781 217.128906 139.703125 C 217.023438 139.921875 216.710938 140.582031 216.648438 140.714844 C 216.644531 140.722656 216.636719 140.730469 216.632812 140.738281 C 216.519531 140.964844 216.308594 141.296875 216.019531 141.714844 C 216.015625 141.722656 216.011719 141.726562 216.003906 141.730469 L 216.003906 141.734375 C 215.699219 142.167969 215.3125 142.691406 214.871094 143.265625 C 214.820312 143.332031 214.753906 143.414062 214.703125 143.484375 C 213.886719 144.546875 212.925781 145.753906 211.964844 146.941406 C 211.925781 146.988281 211.886719 147.039062 211.84375 147.089844 C 211.714844 147.25 211.621094 147.359375 211.492188 147.515625 C 209.625 149.804688 207.871094 151.902344 207.800781 151.988281 C 207.796875 151.992188 207.714844 152.085938 207.714844 152.085938 L 207.71875 152.070312 C 207.71875 152.054688 207.808594 150.542969 207.917969 148.597656 C 208.03125 146.644531 208.160156 144.265625 208.234375 142.582031 C 208.253906 142.160156 208.261719 141.570312 208.261719 140.859375 C 208.261719 140.238281 208.253906 139.492188 208.246094 138.714844 C 208.191406 133.238281 207.976562 124.625 208.328125 123.101562 L 208.328125 123.097656 C 208.785156 121.117188 211.011719 115.234375 212.363281 111.457031 C 213.714844 107.683594 215.84375 102.484375 217.960938 100.660156 C 217.964844 100.65625 217.972656 100.644531 217.976562 100.640625 C 218.101562 100.53125 218.230469 100.402344 218.355469 100.253906 C 218.484375 100.109375 218.613281 99.945312 218.742188 99.765625 C 218.753906 99.746094 218.769531 99.722656 218.785156 99.699219 C 218.910156 99.523438 219.035156 99.335938 219.15625 99.136719 C 219.277344 98.945312 219.394531 98.734375 219.511719 98.523438 C 219.542969 98.46875 219.574219 98.414062 219.605469 98.359375 C 219.714844 98.152344 219.824219 97.945312 219.933594 97.726562 C 220.035156 97.527344 220.132812 97.316406 220.234375 97.109375 C 220.527344 96.484375 220.792969 95.867188 221.046875 95.25 C 221.238281 94.789062 221.417969 94.335938 221.574219 93.921875 C 221.738281 93.496094 221.875 93.117188 221.996094 92.777344 C 222.265625 92.015625 222.433594 91.507812 222.433594 91.507812 L 222.433594 91.503906 C 222.433594 91.503906 222.425781 91.511719 222.421875 91.511719 C 222.417969 91.515625 222.351562 91.542969 222.296875 91.570312 C 222.273438 91.582031 222.257812 91.589844 222.226562 91.601562 C 222.21875 91.601562 222.210938 91.601562 222.203125 91.605469 C 221.917969 91.695312 221.363281 91.765625 220.507812 91.402344 C 220.074219 91.21875 219.5625 90.921875 218.972656 90.457031 C 216.609375 88.605469 216.800781 79.90625 216.800781 79.90625 C 216.800781 79.90625 215.515625 82.257812 216.007812 85.378906 C 216.253906 86.9375 216.359375 89.105469 216.351562 91.113281 L 216.351562 91.117188 C 216.351562 92.09375 216.320312 93.03125 216.269531 93.847656 C 216.265625 93.867188 216.265625 93.890625 216.261719 93.910156 C 216.261719 93.921875 216.261719 93.933594 216.257812 93.941406 C 216.207031 94.753906 216.128906 95.441406 216.035156 95.894531 C 215.648438 97.746094 209.496094 106.304688 208.167969 108.046875 C 207.179688 109.347656 206.542969 111.96875 206.078125 115.472656 C 206.074219 115.488281 206.074219 115.503906 206.070312 115.519531 C 206.066406 115.527344 206.066406 115.53125 206.066406 115.542969 C 206.0625 115.542969 206.066406 115.542969 206.066406 115.542969 C 206.0625 115.550781 206.0625 115.558594 206.058594 115.566406 C 205.984375 116.152344 205.914062 116.757812 205.84375 117.386719 C 205.785156 117.953125 205.726562 118.546875 205.671875 119.148438 C 205.664062 119.226562 205.652344 119.289062 205.648438 119.363281 C 205.523438 120.730469 205.171875 121.808594 204.691406 122.636719 C 203.25 125.125 200.605469 125.371094 199.222656 124.359375 C 199.109375 124.273438 198.9375 124.164062 198.71875 124.035156 C 198.503906 123.902344 198.238281 123.75 197.933594 123.578125 C 196.109375 122.550781 192.839844 120.855469 189.664062 119.128906 L 189.660156 119.128906 C 186.484375 117.402344 183.402344 115.652344 181.945312 114.523438 C 181.460938 114.144531 181.15625 113.835938 181.089844 113.621094 C 180.566406 111.902344 181.316406 105.265625 181.003906 104.519531 C 180.691406 103.773438 175.972656 85.277344 175.972656 85.277344 L 179.769531 74.074219 C 179.769531 74.074219 177.539062 78.125 177.164062 78.851562 C 176.789062 79.578125 173.621094 83.835938 173.316406 85.074219 C 173.007812 86.3125 173.996094 88.078125 174.757812 91.328125 C 175.515625 94.578125 177.300781 106.5625 177.308594 109.121094 C 177.3125 111.679688 178.582031 116.902344 178.582031 116.902344 C 178.582031 116.902344 183.996094 121.375 184.714844 121.789062 C 185.433594 122.203125 199.074219 129.667969 199.074219 129.667969 C 199.074219 129.667969 202.707031 142.203125 202.65625 143.332031 C 202.644531 143.609375 202.460938 144.28125 202.191406 145.125 C 202.1875 145.132812 202.1875 145.140625 202.183594 145.152344 C 202.171875 145.1875 202.15625 145.234375 202.144531 145.269531 C 201.863281 146.144531 201.515625 147.144531 201.15625 148.160156 C 200.808594 149.152344 200.457031 150.117188 200.195312 150.855469 C 200.0625 151.234375 199.949219 151.554688 199.871094 151.789062 C 199.796875 152.019531 199.753906 152.160156 199.753906 152.203125 C 199.753906 152.203125 199.75 152.214844 199.75 152.214844 C 199.75 152.292969 199.378906 152.796875 198.828125 153.511719 L 198.828125 153.515625 C 198.273438 154.230469 197.535156 155.152344 196.796875 156.070312 C 196.28125 156.707031 196.21875 156.777344 195.765625 157.328125 C 194.921875 158.367188 193.84375 159.6875 193.84375 159.6875 L 190.890625 157.808594 C 190.890625 157.808594 186.882812 151.4375 186.335938 150.722656 C 185.785156 150.007812 179.347656 140.132812 179.347656 140.132812 C 179.347656 140.132812 175.753906 135.296875 174.933594 133.515625 C 174.113281 131.738281 172.828125 129.273438 172.828125 129.273438 C 172.828125 129.273438 169.96875 128.398438 169.429688 128.398438 C 168.890625 128.398438 166.40625 126.601562 165.550781 125.316406 C 164.691406 124.03125 160.886719 118.519531 160.832031 118.148438 C 160.78125 117.78125 160.894531 114.148438 160.894531 114.148438 C 160.894531 114.148438 160.136719 102.878906 160.300781 100.023438 C 160.464844 97.167969 159.722656 86.164062 159.722656 86.164062 C 159.722656 86.164062 158.820312 89.105469 158.5625 91.050781 C 158.304688 93 158.285156 113.652344 158.285156 113.652344 C 158.285156 113.652344 157.332031 112.667969 157.15625 112.53125 C 156.980469 112.398438 154.574219 111.175781 154.421875 110.808594 C 154.273438 110.441406 154.425781 108.792969 154.519531 108.449219 C 154.613281 108.101562 148.652344 99.414062 148.652344 99.414062 L 147.046875 99.636719 C 147.046875 99.636719 151.933594 106.839844 152.1875 107.394531 C 152.441406 107.949219 151.128906 110.601562 151.574219 111.0625 C 152.019531 111.527344 155.386719 114.039062 156.390625 115.507812 C 157.394531 116.976562 163.40625 129.789062 163.167969 129.972656 C 162.929688 130.15625 148.878906 130.253906 148.015625 130.253906 C 147.152344 130.253906 138.886719 125.949219 137.253906 124.699219 C 135.617188 123.453125 129.8125 118.414062 129.433594 118.414062 C 129.054688 118.414062 124.488281 117.300781 124.488281 117.300781 L 123.484375 118.4375 C 123.484375 118.4375 126.972656 119.632812 128.089844 119.691406 C 129.210938 119.746094 130.519531 122.878906 131.6875 123.464844 C 132.855469 124.046875 139.59375 130.105469 140.210938 130.070312 C 140.824219 130.03125 145.136719 131.566406 147.578125 131.78125 C 150.023438 131.992188 158.441406 132.25 161.382812 132.25 C 164.324219 132.25 170.3125 134.976562 171.539062 135.890625 C 172.761719 136.804688 175.660156 138.855469 177.722656 144.535156 C 179.785156 150.214844 186.050781 162.410156 186.527344 165.421875 C 187 168.429688 186.089844 168.472656 184.398438 171.636719 C 182.707031 174.796875 182.171875 178.808594 181.851562 183.527344 C 181.535156 188.242188 180.5625 193.976562 180.5625 193.976562 C 180.5625 193.976562 185.925781 196.492188 191.792969 196.707031 C 194.480469 196.804688 197.699219 196.265625 200.429688 195.65625 L 200.429688 195.652344 C 200.761719 195.578125 201.074219 195.511719 201.386719 195.4375 C 202.027344 195.285156 202.636719 195.128906 203.179688 194.984375 C 203.722656 194.839844 204.191406 194.707031 204.605469 194.585938 C 205.570312 194.308594 206.1875 194.109375 206.1875 194.109375 L 206.191406 194.105469 C 206.191406 194.105469 206.144531 194.027344 206.136719 194.015625 C 206.101562 193.953125 205.746094 193.335938 205.269531 192.453125 C 205.226562 192.371094 205.203125 192.332031 205.15625 192.242188 C 205.136719 192.203125 205.109375 192.148438 205.085938 192.105469 C 204.808594 191.574219 204.503906 190.964844 204.179688 190.28125 C 204.164062 190.25 204.148438 190.222656 204.136719 190.191406 C 204.125 190.175781 204.117188 190.15625 204.109375 190.140625 C 203.75 189.375 203.378906 188.535156 203.019531 187.640625 C 203.019531 187.640625 203.019531 187.636719 203.015625 187.636719 C 202.28125 185.8125 201.601562 183.777344 201.222656 181.777344 C 201.222656 181.769531 201.21875 181.765625 201.21875 181.761719 C 201.125 181.265625 201.046875 180.773438 200.992188 180.285156 C 200.992188 180.285156 200.992188 180.285156 200.992188 180.28125 C 200.832031 178.808594 200.867188 177.386719 201.207031 176.128906 C 201.363281 175.542969 201.578125 174.929688 201.820312 174.300781 C 201.820312 174.300781 201.820312 174.304688 201.820312 174.304688 C 201.925781 174.027344 202.027344 173.753906 202.148438 173.464844 C 202.542969 172.542969 203.019531 171.574219 203.5625 170.566406 C 203.566406 170.558594 203.574219 170.550781 203.578125 170.542969 C 203.585938 170.527344 203.59375 170.511719 203.601562 170.496094 C 205.808594 166.449219 209.164062 161.785156 213.132812 156.75 C 215.125 154.226562 217.269531 151.605469 219.496094 148.929688 C 228.414062 138.222656 241.695312 132.808594 243.410156 132.867188 C 243.558594 132.871094 243.734375 132.945312 243.925781 133.042969 C 244.011719 133.089844 244.09375 133.125 244.183594 133.1875 L 244.1875 133.1875 C 244.191406 133.191406 244.191406 133.195312 244.195312 133.195312 C 245.085938 133.785156 246.289062 135.089844 247.480469 136.390625 C 247.488281 136.398438 247.496094 136.410156 247.507812 136.421875 C 247.910156 136.859375 248.304688 137.296875 248.691406 137.707031 C 248.882812 137.910156 249.070312 138.109375 249.253906 138.296875 C 249.433594 138.484375 249.613281 138.660156 249.785156 138.820312 C 249.792969 138.828125 249.800781 138.835938 249.808594 138.839844 C 249.96875 138.996094 250.125 139.136719 250.273438 139.261719 C 250.429688 139.394531 250.578125 139.507812 250.714844 139.601562 C 250.851562 139.695312 250.980469 139.769531 251.09375 139.816406 C 251.097656 139.816406 251.097656 139.816406 251.101562 139.816406 C 251.15625 139.839844 251.207031 139.859375 251.253906 139.871094 C 251.304688 139.878906 251.355469 139.886719 251.402344 139.886719 C 251.445312 139.882812 251.5 139.867188 251.570312 139.839844 C 251.636719 139.808594 251.710938 139.765625 251.800781 139.710938 C 251.972656 139.601562 252.183594 139.441406 252.429688 139.242188 C 252.429688 139.242188 252.433594 139.242188 252.433594 139.238281 C 252.4375 139.234375 252.445312 139.230469 252.449219 139.226562 C 252.691406 139.027344 252.960938 138.789062 253.261719 138.519531 C 253.566406 138.238281 253.902344 137.925781 254.253906 137.582031 L 254.257812 137.582031 C 254.609375 137.238281 254.988281 136.867188 255.378906 136.472656 C 255.769531 136.082031 256.175781 135.667969 256.589844 135.238281 C 257.421875 134.378906 258.292969 133.464844 259.15625 132.542969 C 260.019531 131.625 260.875 130.699219 261.671875 129.828125 C 262.429688 129 263.128906 128.230469 263.746094 127.542969 C 263.839844 127.441406 263.875 127.40625 263.960938 127.308594 C 264.542969 126.660156 265.058594 126.085938 265.421875 125.675781 C 265.808594 125.234375 266.046875 124.957031 266.09375 124.898438 L 266.09375 124.894531 C 266.136719 124.839844 266.28125 124.757812 266.484375 124.667969 C 266.492188 124.664062 266.496094 124.660156 266.5 124.660156 C 266.722656 124.5625 267.019531 124.449219 267.363281 124.324219 C 267.398438 124.3125 267.445312 124.296875 267.480469 124.285156 C 268.121094 124.058594 268.90625 123.808594 269.699219 123.566406 C 269.742188 123.550781 269.785156 123.539062 269.828125 123.523438 C 269.984375 123.476562 270.101562 123.445312 270.253906 123.398438 C 271.769531 122.945312 273.3125 122.503906 273.3125 122.503906 L 274.179688 120.777344 C 274.179688 120.777344 274.035156 120.800781 274.027344 120.804688 C 273.933594 120.816406 273.738281 120.847656 273.285156 120.925781 C 272.824219 121.003906 272.175781 121.121094 271.519531 121.246094 C 271.320312 121.285156 271.300781 121.285156 271.09375 121.328125 C 270.730469 121.398438 270.359375 121.472656 269.992188 121.550781 C 269.628906 121.628906 269.277344 121.714844 268.9375 121.796875 C 268.882812 121.808594 268.832031 121.820312 268.777344 121.832031 C 268.417969 121.921875 268.082031 122.015625 267.785156 122.105469 C 267.632812 122.152344 267.488281 122.203125 267.359375 122.25 C 267.234375 122.292969 267.125 122.339844 267.027344 122.382812 C 267.023438 122.382812 267.019531 122.386719 267.015625 122.386719 C 267.007812 122.390625 267 122.398438 266.992188 122.398438 C 266.792969 122.492188 266.570312 122.613281 266.316406 122.757812 C 266.070312 122.902344 265.796875 123.070312 265.515625 123.25 C 265.46875 123.28125 265.425781 123.308594 265.382812 123.335938 C 265.109375 123.515625 264.824219 123.699219 264.53125 123.902344 C 264.203125 124.121094 263.867188 124.355469 263.53125 124.589844 C 263.523438 124.59375 263.519531 124.601562 263.511719 124.605469 C 262.171875 125.539062 260.816406 126.53125 259.925781 127.125 C 259.925781 127.125 259.925781 127.125 259.925781 127.128906 C 259.699219 127.277344 259.390625 127.511719 259.011719 127.8125 C 258.636719 128.109375 258.195312 128.472656 257.714844 128.871094 C 257.050781 129.421875 256.285156 130.078125 255.535156 130.710938 C 255.199219 130.996094 254.890625 131.253906 254.558594 131.539062 C 254.558594 131.539062 254.558594 131.542969 254.554688 131.542969 C 253.476562 132.457031 252.4375 133.335938 251.636719 133.984375 C 251.636719 133.988281 251.636719 133.988281 251.632812 133.988281 C 251.535156 134.070312 251.476562 134.109375 251.382812 134.183594 C 251.105469 134.402344 250.824219 134.625 250.628906 134.765625 C 250.625 134.769531 250.625 134.769531 250.621094 134.773438 C 250.375 134.949219 250.199219 135.058594 250.132812 135.058594 C 249.601562 135.058594 245.714844 128.523438 245.714844 128.523438 C 245.714844 128.523438 245.625 128.554688 245.625 128.558594 C 245.570312 128.574219 245.40625 128.625 245 128.765625 C 244.765625 128.847656 244.480469 128.949219 244.148438 129.074219 C 243.839844 129.191406 243.480469 129.328125 243.089844 129.484375 C 243.011719 129.511719 242.988281 129.523438 242.910156 129.554688 C 242.507812 129.71875 242.078125 129.894531 241.609375 130.097656 C 241.105469 130.3125 240.5625 130.554688 239.984375 130.820312 C 239.980469 130.820312 239.980469 130.820312 239.976562 130.824219 C 239.394531 131.089844 238.78125 131.386719 238.140625 131.703125 C 237.515625 132.015625 236.859375 132.355469 236.1875 132.714844 C 236.164062 132.726562 236.148438 132.730469 236.128906 132.742188 C 234.738281 133.492188 233.480469 134.195312 232.375 134.796875 C 232.375 134.796875 232.371094 134.796875 232.371094 134.796875 L 232.351562 134.808594 C 230.175781 135.988281 228.601562 136.753906 227.78125 136.625 C 227.773438 136.621094 227.761719 136.625 227.753906 136.625 C 227.746094 136.621094 227.738281 136.617188 227.734375 136.617188 C 227.640625 136.597656 227.554688 136.570312 227.484375 136.527344 C 227.253906 136.378906 227.132812 136.09375 227.132812 135.644531 C 227.132812 133.246094 234.238281 110.910156 234.238281 110.910156 C 234.238281 110.910156 240.507812 108.4375 242.527344 107.988281 C 244.042969 107.652344 248.222656 109.351562 250.21875 110.222656 C 250.882812 110.511719 251.304688 110.710938 251.304688 110.710938 L 256.375 106.242188 L 266.152344 104.851562 L 266.144531 104.851562 L 266.148438 104.851562 C 266.148438 104.851562 265.667969 104.761719 264.9375 104.625 C 264.203125 104.492188 263.21875 104.3125 262.214844 104.140625 C 261.210938 103.964844 260.191406 103.796875 259.375 103.683594 C 258.96875 103.625 258.613281 103.578125 258.339844 103.554688 C 258.203125 103.539062 258.085938 103.53125 257.992188 103.527344 C 257.898438 103.527344 257.832031 103.527344 257.789062 103.539062 C 257.707031 103.558594 257.589844 103.601562 257.445312 103.667969 C 257.296875 103.730469 257.117188 103.820312 256.914062 103.921875 C 256.507812 104.125 255.992188 104.390625 255.402344 104.671875 C 255.359375 104.691406 255.308594 104.714844 255.265625 104.734375 C 254.710938 104.996094 254.101562 105.273438 253.441406 105.527344 C 253.4375 105.527344 253.425781 105.53125 253.421875 105.535156 C 253.417969 105.535156 253.414062 105.535156 253.414062 105.539062 C 252.707031 105.808594 251.953125 106.054688 251.179688 106.234375 C 251.167969 106.234375 251.160156 106.238281 251.148438 106.242188 C 251.144531 106.242188 251.136719 106.242188 251.128906 106.246094 C 250.75 106.332031 250.273438 106.367188 249.730469 106.367188 C 249.714844 106.367188 249.703125 106.371094 249.6875 106.371094 C 249.664062 106.367188 249.636719 106.367188 249.609375 106.367188 C 249.070312 106.363281 248.46875 106.328125 247.828125 106.261719 C 247.8125 106.261719 247.800781 106.261719 247.785156 106.257812 C 247.761719 106.257812 247.738281 106.253906 247.714844 106.25 C 247.09375 106.1875 246.441406 106.097656 245.78125 105.996094 C 245.730469 105.988281 245.6875 105.984375 245.636719 105.972656 C 244.902344 105.859375 244.160156 105.726562 243.441406 105.589844 C 243.40625 105.585938 243.378906 105.578125 243.34375 105.570312 C 241.980469 105.308594 240.71875 105.027344 239.769531 104.804688 C 239.746094 104.800781 239.710938 104.792969 239.6875 104.789062 C 238.710938 104.558594 238.09375 104.398438 238.089844 104.398438 C 238.089844 104.398438 237.617188 99.34375 238.09375 96.960938 C 238.214844 96.363281 238.878906 95.207031 239.824219 93.773438 C 239.824219 93.769531 239.828125 93.765625 239.832031 93.765625 C 240.773438 92.332031 241.992188 90.628906 243.226562 88.929688 C 244.464844 87.226562 245.71875 85.53125 246.726562 84.125 C 247.226562 83.421875 247.667969 82.792969 248.011719 82.269531 C 248.1875 82.007812 248.335938 81.773438 248.457031 81.570312 C 248.574219 81.371094 248.667969 81.199219 248.726562 81.0625 C 248.726562 81.0625 248.730469 81.0625 248.730469 81.058594 C 248.789062 80.925781 248.855469 80.757812 248.921875 80.566406 C 248.984375 80.390625 249.050781 80.1875 249.121094 79.972656 C 249.289062 79.433594 249.476562 78.773438 249.671875 78.046875 C 249.828125 77.464844 249.988281 76.851562 250.144531 76.214844 C 250.320312 75.515625 250.492188 74.796875 250.65625 74.09375 C 250.988281 72.691406 251.289062 71.355469 251.507812 70.371094 C 251.703125 69.480469 251.800781 69.019531 251.824219 68.910156 C 251.824219 68.90625 251.859375 68.753906 251.859375 68.753906 L 251.855469 68.757812 Z M 251.867188 68.753906 " fill-opacity="1" fill-rule="nonzero"/></g></g></svg>