<svg xmlns="http://www.w3.org/2000/svg" xmlns:xlink="http://www.w3.org/1999/xlink" width="500" zoomAndPan="magnify" viewBox="0 0 375 374.999991" height="500" preserveAspectRatio="xMidYMid meet" version="1.0"><defs><clipPath id="2d4e286744"><path d="M 72 17 L 313 17 L 313 374.984375 L 72 374.984375 Z M 72 17 " clip-rule="nonzero"/></clipPath><clipPath id="66470f2649"><path d="M 105.25 47.589844 L 282.761719 47.589844 L 282.761719 225.101562 L 105.25 225.101562 Z M 105.25 47.589844 " clip-rule="nonzero"/></clipPath><clipPath id="5bf9e20575"><path d="M 194.003906 47.589844 C 144.988281 47.589844 105.25 87.328125 105.25 136.347656 C 105.25 185.363281 144.988281 225.101562 194.003906 225.101562 C 243.023438 225.101562 282.761719 185.363281 282.761719 136.347656 C 282.761719 87.328125 243.023438 47.589844 194.003906 47.589844 Z M 194.003906 47.589844 " clip-rule="nonzero"/></clipPath><clipPath id="aab1d77f9a"><path d="M 105.25 47.589844 L 282.070312 47.589844 L 282.070312 224.414062 L 105.25 224.414062 Z M 105.25 47.589844 " clip-rule="nonzero"/></clipPath><clipPath id="f783da5c8a"><path d="M 193.992188 47.589844 C 144.980469 47.589844 105.25 87.324219 105.25 136.335938 C 105.25 185.347656 144.980469 225.078125 193.992188 225.078125 C 243.003906 225.078125 282.738281 185.347656 282.738281 136.335938 C 282.738281 87.324219 243.003906 47.589844 193.992188 47.589844 Z M 193.992188 47.589844 " clip-rule="nonzero"/></clipPath><clipPath id="e40908bb89"><path d="M 124.605469 53.1875 L 252 53.1875 L 252 224 L 124.605469 224 Z M 124.605469 53.1875 " clip-rule="nonzero"/></clipPath></defs><g clip-path="url(#2d4e286744)"><path fill="#e4fcfc" d="M 192.859375 188.640625 C 160.855469 188.640625 134.910156 162.699219 134.910156 130.695312 C 134.910156 98.6875 160.855469 72.742188 192.859375 72.742188 C 224.867188 72.742188 250.8125 98.6875 250.8125 130.695312 C 250.8125 162.699219 224.867188 188.640625 192.859375 188.640625 Z M 296.53125 76.523438 C 263.050781 19.285156 189.503906 0.0195312 132.265625 33.5 C 75.023438 66.984375 55.761719 140.527344 89.242188 197.769531 L 192.890625 374.964844 L 296.53125 197.769531 C 317.585938 161.574219 319.179688 115.246094 296.53125 76.523438 " fill-opacity="1" fill-rule="nonzero"/></g><g clip-path="url(#66470f2649)"><g clip-path="url(#5bf9e20575)"><path fill="#e4fcfc" d="M 105.25 47.589844 L 282.761719 47.589844 L 282.761719 225.101562 L 105.25 225.101562 Z M 105.25 47.589844 " fill-opacity="1" fill-rule="nonzero"/></g></g><g clip-path="url(#aab1d77f9a)"><g clip-path="url(#f783da5c8a)"><path stroke-linecap="butt" transform="matrix(1.524322, 0, 0, 1.524322, 105.249233, 47.591195)" fill="none" stroke-linejoin="miter" d="M 58.217993 -0.00088664 C 26.064861 -0.00088664 0.000503313 26.066034 0.000503313 58.219165 C 0.000503313 90.372297 26.064861 116.436655 58.217993 116.436655 C 90.371124 116.436655 116.438045 90.372297 116.438045 58.219165 C 116.438045 26.066034 90.371124 -0.00088664 58.217993 -0.00088664 Z M 58.217993 -0.00088664 " stroke="#ff5757" stroke-width="4.92022" stroke-opacity="1" stroke-miterlimit="4"/></g></g><g clip-path="url(#e40908bb89)"><path fill="#f1473a" d="M 189.253906 223.027344 C 171.734375 223.027344 128.4375 220.289062 124.601562 170.484375 C 124.601562 170.484375 135.816406 190.332031 135.835938 188 C 135.886719 180.421875 124.601562 152.699219 152.816406 133.816406 C 187.347656 110.710938 176.925781 82.371094 168.707031 81.824219 C 168.707031 81.824219 190.804688 79.589844 192.816406 108.859375 C 193.910156 124.785156 207.335938 78.8125 199.394531 53.363281 C 199.394531 53.363281 239.730469 74.707031 234.730469 127.25 C 234.730469 127.25 240.964844 115.347656 251.441406 121.707031 C 251.441406 121.707031 244.867188 123.964844 247.0625 141.480469 C 249.25 158.992188 258.839844 223.027344 189.253906 223.027344 " fill-opacity="1" fill-rule="nonzero"/></g><path fill="#f79326" d="M 184.050781 221.207031 C 172.726562 220.691406 151.175781 218.199219 151.175781 190.011719 C 151.175781 161.828125 179.394531 157.996094 179.394531 132 C 179.394531 132 192.816406 136.652344 191.445312 149.511719 C 191.445312 149.511719 217.746094 133.09375 215.554688 113.664062 C 215.554688 113.664062 272.445312 225.246094 184.050781 221.207031 " fill-opacity="1" fill-rule="nonzero"/><path fill="#f79326" d="M 184.050781 221.207031 C 172.726562 220.691406 151.175781 218.199219 151.175781 190.011719 C 151.175781 161.828125 179.394531 157.996094 179.394531 132 C 179.394531 132 192.816406 136.652344 191.445312 149.511719 C 191.445312 149.511719 217.746094 133.09375 215.554688 113.664062 C 215.554688 113.664062 272.445312 225.246094 184.050781 221.207031 " fill-opacity="1" fill-rule="nonzero"/><path fill="#fff533" d="M 189.53125 172.660156 C 189.53125 172.660156 196.378906 192.71875 185.144531 192.71875 C 177.335938 192.71875 178.296875 184.238281 178.296875 184.238281 C 178.296875 184.238281 156.515625 219.539062 189.53125 219.539062 C 196.214844 219.539062 207.882812 218.167969 207.882812 200.109375 C 207.882812 182.046875 197.746094 174.765625 189.53125 172.660156 " fill-opacity="1" fill-rule="nonzero"/></svg>