<svg xmlns="http://www.w3.org/2000/svg" xmlns:xlink="http://www.w3.org/1999/xlink" width="500" zoomAndPan="magnify" viewBox="0 0 375 374.999991" height="500" preserveAspectRatio="xMidYMid meet" version="1.0"><defs><clipPath id="2cda7e9773"><path d="M 105.25 47.589844 L 282.761719 47.589844 L 282.761719 225.101562 L 105.25 225.101562 Z M 105.25 47.589844 " clip-rule="nonzero"/></clipPath><clipPath id="b4feebb4b6"><path d="M 194.003906 47.589844 C 144.988281 47.589844 105.25 87.328125 105.25 136.347656 C 105.25 185.363281 144.988281 225.101562 194.003906 225.101562 C 243.023438 225.101562 282.761719 185.363281 282.761719 136.347656 C 282.761719 87.328125 243.023438 47.589844 194.003906 47.589844 Z M 194.003906 47.589844 " clip-rule="nonzero"/></clipPath><clipPath id="93e9590ab7"><path d="M 105.25 47.589844 L 282.753906 47.589844 L 282.753906 225.097656 L 105.25 225.097656 Z M 105.25 47.589844 " clip-rule="nonzero"/></clipPath><clipPath id="8e751e9a0b"><path d="M 194 47.589844 C 144.984375 47.589844 105.25 87.328125 105.25 136.34375 C 105.25 185.359375 144.984375 225.097656 194 225.097656 C 243.019531 225.097656 282.753906 185.359375 282.753906 136.34375 C 282.753906 87.328125 243.019531 47.589844 194 47.589844 Z M 194 47.589844 " clip-rule="nonzero"/></clipPath></defs><path fill="#e4fcfc" d="M 192.855469 188.644531 C 160.851562 188.644531 134.90625 162.703125 134.90625 130.699219 C 134.90625 98.691406 160.851562 72.75 192.855469 72.75 C 224.859375 72.75 250.804688 98.691406 250.804688 130.699219 C 250.804688 162.703125 224.859375 188.644531 192.855469 188.644531 Z M 296.523438 76.53125 C 263.042969 19.292969 189.5 0.03125 132.261719 33.507812 C 75.023438 66.988281 55.761719 140.53125 89.242188 197.769531 L 192.882812 374.960938 L 296.523438 197.769531 C 317.574219 161.578125 319.171875 115.25 296.523438 76.53125 " fill-opacity="1" fill-rule="nonzero"/><g clip-path="url(#2cda7e9773)"><g clip-path="url(#b4feebb4b6)"><path fill="#e4fcfc" d="M 105.25 47.589844 L 282.761719 47.589844 L 282.761719 225.101562 L 105.25 225.101562 Z M 105.25 47.589844 " fill-opacity="1" fill-rule="nonzero"/></g></g><g clip-path="url(#93e9590ab7)"><g clip-path="url(#8e751e9a0b)"><path stroke-linecap="butt" transform="matrix(1.957997, 0, 0, 1.957997, 105.249247, 47.59113)" fill="none" stroke-linejoin="miter" d="M 45.327318 -0.000657164 C 20.293763 -0.000657164 0.00038448 20.294717 0.00038448 45.328271 C 0.00038448 70.361826 20.293763 90.6572 45.327318 90.6572 C 70.362868 90.6572 90.656246 70.361826 90.656246 45.328271 C 90.656246 20.294717 70.362868 -0.000657164 45.327318 -0.000657164 Z M 45.327318 -0.000657164 " stroke="#38b6ff" stroke-width="3.830445" stroke-opacity="1" stroke-miterlimit="4"/></g></g><path fill="#87abd5" d="M 163.816406 130.425781 C 163.816406 130.425781 142.941406 130.457031 131.792969 132.621094 C 120.648438 134.78125 116.027344 138.199219 114.832031 141.46875 C 113.636719 144.742188 118.855469 146.199219 116.21875 149.28125 C 113.582031 152.359375 107.574219 154.792969 106.550781 161.210938 C 105.527344 167.621094 113.25 173.4375 121.015625 176.742188 C 128.78125 180.042969 134.519531 181.199219 132.59375 183.847656 C 130.667969 186.5 126.863281 188.367188 128.203125 192.589844 C 129.542969 196.816406 142.65625 202.539062 159.355469 204.628906 C 176.058594 206.71875 194.214844 208.476562 203.273438 207.402344 C 212.335938 206.328125 210.664062 203.847656 217.359375 203.136719 C 224.054688 202.429688 237.472656 203.039062 246.730469 199.171875 C 255.988281 195.300781 253.976562 191.585938 259.464844 189.40625 C 264.949219 187.222656 272.90625 186.074219 276.183594 179.199219 C 279.460938 172.324219 269.054688 167.027344 273.28125 164.269531 C 277.507812 161.511719 284.988281 159.304688 286.296875 154.199219 C 287.609375 149.09375 284.675781 139.625 251.695312 133.691406 C 218.710938 127.75 163.816406 130.425781 163.816406 130.425781 Z M 163.816406 130.425781 " fill-opacity="1" fill-rule="evenodd"/><path fill="#fef5e7" d="M 199.300781 190.488281 C 199.109375 190.523438 198.925781 190.394531 198.894531 190.203125 C 198.863281 190.007812 198.988281 189.824219 199.179688 189.789062 C 199.179688 189.789062 200.878906 189.488281 201.816406 188.925781 C 201.980469 188.828125 202.121094 188.722656 202.207031 188.601562 C 202.253906 188.539062 202.285156 188.472656 202.269531 188.402344 C 202.191406 188.027344 201.839844 187.746094 201.472656 187.527344 C 200.839844 187.148438 200.113281 186.960938 200.113281 186.960938 C 199.925781 186.914062 199.808594 186.722656 199.855469 186.53125 C 199.902344 186.34375 200.09375 186.226562 200.285156 186.273438 C 200.285156 186.273438 201.113281 186.484375 201.832031 186.921875 C 202.371094 187.246094 202.835938 187.699219 202.953125 188.253906 C 203.054688 188.730469 202.75 189.1875 202.171875 189.535156 C 201.148438 190.148438 199.300781 190.488281 199.300781 190.488281 Z M 150.585938 178.464844 C 150.777344 178.484375 150.917969 178.65625 150.902344 178.855469 C 150.882812 179.050781 150.710938 179.191406 150.515625 179.175781 C 150.515625 179.175781 148.941406 179.015625 147.304688 179.109375 C 146.25 179.167969 145.167969 179.324219 144.488281 179.707031 C 144.417969 179.75 144.363281 179.773438 144.355469 179.824219 C 144.347656 179.886719 144.394531 179.945312 144.441406 180.015625 C 144.519531 180.132812 144.636719 180.253906 144.78125 180.378906 C 146.066406 181.484375 149.214844 182.761719 149.214844 182.761719 C 149.394531 182.835938 149.480469 183.042969 149.410156 183.222656 C 149.335938 183.40625 149.132812 183.492188 148.953125 183.421875 C 148.953125 183.421875 145.667969 182.078125 144.324219 180.914062 C 144.039062 180.671875 143.839844 180.425781 143.738281 180.207031 C 143.640625 179.992188 143.625 179.789062 143.6875 179.601562 C 143.746094 179.417969 143.882812 179.238281 144.140625 179.089844 C 144.894531 178.660156 146.09375 178.464844 147.261719 178.398438 C 148.957031 178.300781 150.585938 178.464844 150.585938 178.464844 Z M 140.761719 187.644531 C 140.59375 187.550781 140.53125 187.335938 140.625 187.164062 C 140.71875 186.996094 140.933594 186.933594 141.101562 187.027344 C 141.101562 187.027344 148.515625 191.144531 159.5 195 C 159.683594 195.066406 159.78125 195.265625 159.71875 195.453125 C 159.652344 195.636719 159.453125 195.734375 159.269531 195.667969 C 148.222656 191.785156 140.761719 187.644531 140.761719 187.644531 Z M 206.171875 194.507812 C 206.324219 194.386719 206.546875 194.414062 206.667969 194.566406 C 206.785156 194.71875 206.757812 194.945312 206.605469 195.066406 C 206.605469 195.066406 203.441406 197.5625 196.023438 199.523438 C 188.644531 201.476562 187.660156 202.058594 180.039062 201.25 C 179.847656 201.230469 179.707031 201.054688 179.722656 200.863281 C 179.746094 200.667969 179.917969 200.527344 180.109375 200.546875 C 187.613281 201.339844 188.582031 200.757812 195.84375 198.839844 C 203.078125 196.925781 206.171875 194.507812 206.171875 194.507812 Z M 146.484375 176.167969 C 146.679688 176.175781 146.828125 176.339844 146.820312 176.539062 C 146.8125 176.734375 146.648438 176.882812 146.453125 176.875 C 146.453125 176.875 143.304688 176.730469 140.886719 177.355469 C 139.917969 177.605469 139.066406 177.96875 138.632812 178.550781 C 138.09375 179.28125 138.222656 180.117188 138.832031 181.011719 C 139.875 182.542969 142.257812 184.203125 145.511719 185.785156 C 151.046875 188.46875 157.550781 190.910156 162.941406 192.566406 C 168.328125 194.226562 175.429688 196.28125 181.746094 196.921875 C 188.023438 197.554688 195.402344 195.199219 199.132812 193.609375 C 199.3125 193.53125 199.519531 193.617188 199.59375 193.796875 C 199.667969 193.980469 199.585938 194.1875 199.40625 194.261719 C 195.601562 195.882812 188.074219 198.273438 181.671875 197.625 C 175.3125 196.980469 168.160156 194.917969 162.730469 193.25 C 157.308594 191.582031 150.769531 189.125 145.203125 186.421875 C 141.804688 184.773438 139.335938 183.011719 138.25 181.414062 C 137.433594 180.222656 137.347656 179.097656 138.070312 178.128906 C 138.582031 177.441406 139.566406 176.96875 140.707031 176.675781 C 143.222656 176.023438 146.484375 176.167969 146.484375 176.167969 Z M 143.339844 145.09375 C 143.53125 145.058594 143.714844 145.1875 143.75 145.378906 C 143.789062 145.570312 143.660156 145.757812 143.472656 145.792969 C 143.472656 145.792969 141.898438 146.082031 140.875 146.914062 C 140.261719 147.410156 139.863281 148.128906 140.246094 149.125 C 140.414062 149.550781 140.734375 149.941406 141.164062 150.316406 C 141.859375 150.921875 142.828125 151.449219 143.917969 151.921875 C 146.703125 153.125 150.261719 153.894531 152.210938 154.183594 C 152.402344 154.214844 152.535156 154.390625 152.507812 154.589844 C 152.476562 154.78125 152.300781 154.914062 152.109375 154.886719 C 149.785156 154.542969 145.214844 153.519531 142.28125 151.917969 C 140.953125 151.1875 139.964844 150.332031 139.597656 149.382812 C 139.066406 148.019531 139.597656 147.039062 140.433594 146.359375 C 141.578125 145.425781 143.339844 145.09375 143.339844 145.09375 Z M 162.484375 143.789062 C 162.675781 143.816406 162.8125 143.992188 162.785156 144.1875 C 162.761719 144.378906 162.585938 144.515625 162.394531 144.492188 C 161.808594 144.414062 161 144.625 160.921875 144.652344 C 160.503906 144.78125 159.613281 145.09375 159.128906 145.566406 C 158.992188 145.703125 158.890625 145.847656 158.886719 146.015625 C 158.882812 146.117188 158.921875 146.226562 159.003906 146.34375 C 159.382812 146.890625 160.191406 147.128906 160.789062 147.328125 C 162.507812 147.902344 164.355469 148.085938 166.144531 148.292969 C 170.613281 148.796875 175.117188 150.011719 179.625 149.28125 C 180.25 149.179688 181.566406 148.738281 182.34375 148.035156 C 182.765625 147.652344 183.027344 147.179688 182.757812 146.625 C 182.578125 146.261719 182.253906 145.992188 181.875 145.773438 C 181.242188 145.398438 180.460938 145.171875 179.871094 144.984375 C 179.6875 144.925781 179.582031 144.726562 179.640625 144.539062 C 179.699219 144.355469 179.898438 144.25 180.082031 144.304688 C 180.714844 144.511719 181.546875 144.757812 182.226562 145.15625 C 182.726562 145.453125 183.148438 145.828125 183.382812 146.308594 C 183.816406 147.1875 183.484375 147.953125 182.8125 148.5625 C 181.933594 149.355469 180.441406 149.863281 179.734375 149.976562 C 175.167969 150.71875 170.597656 149.503906 166.070312 148.992188 C 164.234375 148.785156 162.335938 148.589844 160.574219 148 C 159.851562 147.757812 158.894531 147.414062 158.433594 146.746094 C 158.253906 146.484375 158.1875 146.230469 158.195312 145.996094 C 158.203125 145.65625 158.371094 145.335938 158.652344 145.0625 C 159.210938 144.511719 160.238281 144.125 160.726562 143.972656 C 160.808594 143.945312 161.785156 143.699219 162.484375 143.789062 Z M 170.339844 151.523438 C 170.53125 151.542969 170.671875 151.714844 170.652344 151.914062 C 170.632812 152.105469 170.460938 152.246094 170.265625 152.230469 C 170.035156 152.207031 169.191406 152.132812 168.960938 152.109375 C 168.191406 152.023438 167.417969 151.941406 166.648438 151.851562 C 164.53125 151.601562 162.402344 151.445312 160.320312 150.976562 C 158.449219 150.554688 156.070312 149.949219 154.601562 148.625 C 153.789062 147.894531 153.445312 147.046875 153.457031 146.226562 C 153.476562 145.011719 154.285156 143.832031 155.617188 143.167969 C 156.296875 142.832031 157.019531 142.597656 157.753906 142.417969 C 157.941406 142.371094 158.132812 142.492188 158.179688 142.679688 C 158.226562 142.871094 158.109375 143.0625 157.921875 143.109375 C 157.234375 143.277344 156.5625 143.492188 155.933594 143.804688 C 154.859375 144.339844 154.175781 145.261719 154.160156 146.238281 C 154.148438 146.878906 154.433594 147.527344 155.0625 148.09375 C 156.449219 149.34375 158.707031 149.882812 160.46875 150.28125 C 162.53125 150.742188 164.636719 150.894531 166.726562 151.140625 C 167.496094 151.234375 168.265625 151.3125 169.039062 151.398438 C 169.273438 151.433594 170.109375 151.5 170.339844 151.523438 Z M 179.515625 153.035156 C 179.492188 153.027344 179.46875 153.023438 179.445312 153.015625 C 179.164062 152.945312 178.808594 152.945312 178.679688 152.933594 C 177.6875 152.84375 176.683594 152.863281 175.691406 152.859375 C 175.570312 152.859375 174.238281 152.785156 173.574219 152.75 C 173.378906 152.738281 173.230469 152.570312 173.242188 152.375 C 173.253906 152.179688 173.417969 152.027344 173.613281 152.039062 C 174.269531 152.078125 175.574219 152.148438 175.695312 152.148438 C 176.710938 152.152344 177.730469 152.136719 178.746094 152.230469 C 178.921875 152.242188 179.464844 152.253906 179.800781 152.386719 C 180.0625 152.488281 180.226562 152.664062 180.265625 152.875 C 180.304688 153.074219 180.21875 153.328125 180.003906 153.554688 C 179.710938 153.878906 179.15625 154.214844 178.988281 154.339844 C 177.859375 155.195312 176.613281 155.984375 175.703125 157.101562 C 174.863281 158.136719 174.964844 159.3125 175.5 160.425781 C 176.355469 162.226562 178.300781 163.882812 179.566406 164.695312 C 179.726562 164.800781 179.777344 165.023438 179.671875 165.1875 C 179.570312 165.351562 179.347656 165.402344 179.1875 165.296875 C 177.839844 164.425781 175.78125 162.652344 174.867188 160.734375 C 174.214844 159.367188 174.128906 157.925781 175.160156 156.648438 C 176.101562 155.492188 177.390625 154.660156 178.566406 153.773438 C 178.699219 153.675781 179.097656 153.441406 179.378906 153.183594 C 179.429688 153.140625 179.480469 153.082031 179.515625 153.035156 Z M 218.667969 170.554688 C 218.863281 170.554688 219.019531 170.710938 219.023438 170.90625 C 219.023438 171.101562 218.871094 171.261719 218.675781 171.261719 C 216.003906 171.289062 210.421875 171.183594 208.328125 171.046875 C 202.820312 170.6875 197.179688 170.144531 191.753906 169.070312 C 189.335938 168.59375 186.46875 168.296875 184.378906 167.484375 C 184.199219 167.414062 184.109375 167.207031 184.179688 167.027344 C 184.246094 166.84375 184.453125 166.753906 184.632812 166.824219 C 186.6875 167.621094 189.507812 167.90625 191.886719 168.375 C 197.285156 169.445312 202.894531 169.984375 208.371094 170.34375 C 210.460938 170.472656 216.007812 170.578125 218.667969 170.554688 Z M 250.414062 169.214844 C 250.597656 169.152344 250.800781 169.25 250.863281 169.4375 C 250.925781 169.621094 250.824219 169.824219 250.640625 169.886719 C 248.261719 170.714844 245.023438 170.972656 243.015625 171.296875 C 239.867188 171.816406 235.765625 171.945312 232.566406 172.027344 C 230.019531 172.085938 227.523438 172.121094 224.832031 171.960938 C 224.640625 171.949219 224.492188 171.78125 224.5 171.585938 C 224.511719 171.390625 224.679688 171.242188 224.871094 171.25 C 227.542969 171.40625 230.019531 171.375 232.542969 171.3125 C 235.714844 171.238281 239.777344 171.105469 242.902344 170.597656 C 244.882812 170.273438 248.070312 170.03125 250.414062 169.214844 Z M 257.945312 153.914062 C 257.777344 153.816406 257.714844 153.601562 257.808594 153.429688 C 257.902344 153.257812 258.117188 153.195312 258.289062 153.289062 C 259.746094 154.113281 261.019531 155.152344 262.058594 156.488281 C 262.585938 157.164062 263.042969 157.933594 263.394531 158.714844 C 264.195312 160.480469 263.632812 162.21875 262.382812 163.726562 C 260.601562 165.875 257.402344 167.546875 255.082031 168.148438 C 254.894531 168.199219 254.703125 168.085938 254.652344 167.894531 C 254.605469 167.707031 254.71875 167.515625 254.90625 167.464844 C 257.105469 166.890625 260.148438 165.3125 261.84375 163.269531 C 262.910156 161.988281 263.433594 160.519531 262.753906 159.007812 C 262.421875 158.273438 261.996094 157.554688 261.507812 156.925781 C 260.523438 155.667969 259.320312 154.691406 257.945312 153.914062 Z M 214.675781 166.226562 C 214.484375 166.203125 214.347656 166.019531 214.378906 165.828125 C 214.402344 165.632812 214.582031 165.496094 214.773438 165.523438 C 215.277344 165.59375 216.804688 165.636719 217.519531 165.667969 C 220.207031 165.777344 222.785156 166.152344 225.472656 166.0625 C 229.253906 165.941406 233.230469 166.234375 237.003906 166.039062 C 241.804688 165.785156 246.59375 165.9375 251.144531 164.097656 C 252.28125 163.636719 254.808594 162.632812 256.347656 161.222656 C 257.273438 160.378906 257.839844 159.390625 257.339844 158.273438 C 256.84375 157.164062 255.90625 156.34375 254.816406 155.699219 C 253.679688 155.023438 252.378906 154.546875 251.1875 154.144531 C 251.003906 154.082031 250.902344 153.882812 250.960938 153.699219 C 251.023438 153.511719 251.222656 153.410156 251.40625 153.472656 C 253.921875 154.316406 256.886719 155.542969 257.980469 157.976562 C 258.621094 159.390625 257.988281 160.675781 256.820312 161.746094 C 255.214844 163.210938 252.585938 164.273438 251.40625 164.75 C 246.78125 166.621094 241.914062 166.488281 237.039062 166.738281 C 233.265625 166.9375 229.277344 166.640625 225.496094 166.765625 C 222.789062 166.855469 220.195312 166.476562 217.488281 166.367188 C 216.757812 166.34375 215.191406 166.296875 214.675781 166.226562 Z M 188.484375 153.984375 C 188.675781 153.980469 188.835938 154.136719 188.839844 154.335938 C 188.84375 154.53125 188.6875 154.691406 188.492188 154.695312 C 187.449219 154.707031 185.078125 155.417969 184.910156 155.492188 C 184.058594 155.851562 183.066406 156.472656 182.421875 157.285156 C 182.023438 157.796875 181.753906 158.378906 181.78125 159.03125 C 181.816406 160.070312 182.496094 160.800781 183.398438 161.34375 C 184.875 162.234375 186.953125 162.621094 188.230469 162.851562 C 190.949219 163.347656 193.773438 163.679688 196.523438 163.941406 C 201.054688 164.375 205.496094 164.835938 210.058594 165.039062 C 210.253906 165.046875 210.402344 165.210938 210.394531 165.410156 C 210.386719 165.605469 210.222656 165.757812 210.027344 165.746094 C 205.453125 165.542969 201 165.085938 196.457031 164.648438 C 193.691406 164.382812 190.847656 164.050781 188.113281 163.550781 C 186.769531 163.308594 184.59375 162.886719 183.042969 161.949219 C 181.929688 161.277344 181.132812 160.339844 181.085938 159.054688 C 181.054688 158.230469 181.375 157.484375 181.882812 156.84375 C 182.597656 155.933594 183.703125 155.234375 184.648438 154.835938 C 184.820312 154.757812 187.359375 154.003906 188.484375 153.984375 Z M 188.484375 153.984375 " fill-opacity="1" fill-rule="evenodd"/><path fill="#e26225" d="M 197.59375 190.289062 C 198.09375 190.140625 198.417969 190.035156 198.5 189.996094 C 198.933594 189.792969 198.785156 189.257812 196.824219 185.621094 C 194.859375 181.984375 194.34375 180.765625 191.164062 178.652344 C 187.980469 176.546875 176.160156 170.996094 173.273438 169.757812 C 170.390625 168.515625 160.929688 170.007812 159.304688 170.730469 C 157.675781 171.453125 149.285156 183.425781 149.285156 183.425781 C 149.285156 183.425781 150.503906 184.058594 152.285156 184.945312 C 154.78125 186.191406 158.429688 187.226562 161.257812 188.449219 C 162.21875 188.859375 163.089844 189.210938 163.800781 189.464844 C 163.863281 189.484375 163.925781 189.507812 163.984375 189.523438 C 168.027344 190.898438 171.597656 191.359375 174.929688 192.203125 C 175.074219 192.242188 175.21875 192.277344 175.359375 192.3125 C 176.808594 192.679688 178.054688 193.003906 179.375 193.199219 C 181.199219 193.472656 183.167969 193.496094 185.996094 193.039062 C 189.953125 192.398438 195.433594 190.929688 197.59375 190.289062 Z M 197.59375 190.289062 " fill-opacity="1" fill-rule="evenodd"/><path fill="#954f1b" d="M 179.371094 193.203125 C 179.101562 190.941406 178.652344 186.507812 179.167969 185.894531 C 179.871094 185.066406 192.519531 181.757812 193.320312 182.191406 C 193.964844 182.539062 196.601562 188.148438 197.59375 190.289062 C 195.4375 190.929688 189.953125 192.398438 185.996094 193.039062 C 183.164062 193.5 181.195312 193.476562 179.371094 193.203125 Z M 163.800781 189.46875 C 164.859375 187.601562 167.25 183.21875 167.738281 183.042969 C 168.378906 182.816406 174.777344 185.6875 174.980469 186.402344 C 175.136719 186.941406 175.003906 190.46875 174.925781 192.207031 C 171.597656 191.363281 168.027344 190.902344 163.980469 189.527344 C 163.925781 189.507812 163.863281 189.488281 163.800781 189.46875 Z M 152.285156 184.949219 C 153.472656 183.398438 155.964844 179.222656 156.777344 178.238281 C 157.886719 176.902344 158.253906 176.195312 159.527344 176.886719 C 160.792969 177.578125 164.789062 180.492188 164.816406 181.273438 C 164.839844 181.867188 162.402344 186.464844 161.261719 188.453125 C 158.429688 187.230469 154.777344 186.195312 152.285156 184.949219 Z M 152.285156 184.949219 " fill-opacity="1" fill-rule="evenodd"/><path fill="#954f1b" d="M 182.261719 182.535156 C 182.070312 182.574219 181.890625 182.429688 181.859375 182.214844 C 181.828125 182 181.957031 181.796875 182.152344 181.757812 C 182.152344 181.757812 189.113281 180.476562 191.585938 179.679688 C 191.773438 179.617188 191.96875 179.742188 192.023438 179.949219 C 192.078125 180.160156 191.96875 180.378906 191.78125 180.433594 C 189.28125 181.242188 182.261719 182.535156 182.261719 182.535156 Z M 159.585938 172.078125 C 159.429688 171.949219 159.394531 171.703125 159.503906 171.527344 C 159.617188 171.351562 159.835938 171.308594 159.996094 171.4375 C 159.996094 171.4375 166.289062 176.488281 172.246094 179.855469 C 177.242188 182.683594 180.265625 181.980469 180.265625 181.980469 C 180.457031 181.9375 180.640625 182.070312 180.683594 182.28125 C 180.722656 182.496094 180.601562 182.703125 180.410156 182.75 C 180.410156 182.75 177.207031 183.546875 171.929688 180.5625 C 165.929688 177.164062 159.585938 172.078125 159.585938 172.078125 Z M 159.585938 172.078125 " fill-opacity="1" fill-rule="evenodd"/><path fill="#beb935" d="M 147.164062 109.105469 C 147.164062 109.105469 142.101562 111.796875 142.34375 116.648438 C 142.582031 121.503906 148.4375 124 148.4375 124 C 148.4375 124 145.824219 126.949219 148.027344 131.28125 C 150.230469 135.609375 156.695312 134.949219 159.132812 133.550781 C 159.132812 133.550781 160 138.292969 167.507812 139.582031 C 175.015625 140.875 175.054688 138.066406 175.054688 138.066406 C 175.054688 138.066406 181.050781 140.359375 185.574219 133.960938 C 190.097656 127.566406 195.972656 123.335938 195.972656 123.335938 C 195.972656 123.335938 199.890625 118.574219 199.382812 113.378906 C 198.875 108.183594 193.992188 106.5 193.992188 106.5 C 193.992188 106.5 196.902344 101.652344 194.839844 96.6875 C 192.777344 91.722656 189.226562 90.425781 185.835938 92.347656 C 185.835938 92.347656 187.984375 84.230469 182.628906 81.503906 C 177.269531 78.78125 173.648438 82.121094 172.375 83.761719 C 172.375 83.761719 167.9375 77.296875 161.875 78.757812 C 155.8125 80.21875 153.8125 87.773438 154.761719 91.949219 C 154.761719 91.949219 148.972656 90.203125 145.425781 95.320312 C 141.878906 100.441406 144.378906 105.597656 147.164062 109.105469 Z M 147.164062 109.105469 " fill-opacity="1" fill-rule="evenodd"/><path fill="#954f1b" d="M 165.09375 145.613281 C 164.820312 145.519531 165.722656 138.925781 165.648438 135.128906 C 165.578125 131.335938 163.703125 126.902344 162.40625 124.488281 C 161.109375 122.070312 158.75 118.421875 158.753906 117.996094 C 158.757812 117.566406 159.613281 116.628906 160.351562 116.675781 C 161.089844 116.722656 163.28125 120.886719 165.230469 123.765625 C 167.179688 126.640625 168.574219 128.546875 168.722656 127.929688 C 168.867188 127.3125 169.683594 120.113281 169.222656 114.265625 C 168.761719 108.421875 168.257812 104.6875 168.585938 104.34375 C 168.914062 104 170.496094 103.761719 170.992188 104.207031 C 171.484375 104.652344 172.332031 117.011719 172.726562 118.785156 C 173.117188 120.558594 173.925781 117 174.742188 112.742188 C 175.5625 108.488281 175.652344 107.683594 175.980469 107.632812 C 176.3125 107.582031 177.964844 107.835938 177.992188 108.566406 C 178.019531 109.292969 176.957031 114.121094 175.921875 120.230469 C 174.882812 126.34375 174.605469 129 175 128.523438 C 175.390625 128.050781 179.230469 122.996094 181.148438 120.554688 C 183.0625 118.109375 183.484375 117.597656 183.484375 117.597656 C 183.484375 117.597656 184.863281 118.613281 184.738281 119.042969 C 184.613281 119.46875 181.519531 123.609375 179.136719 127.578125 C 176.753906 131.542969 176.015625 134.210938 175.875 135.726562 C 175.734375 137.242188 176.253906 145.785156 176.0625 146.050781 C 175.878906 146.308594 169.613281 147.082031 165.09375 145.613281 Z M 165.09375 145.613281 " fill-opacity="1" fill-rule="evenodd"/><path fill="#e26225" d="M 244.761719 108.871094 C 245.355469 108.871094 245.832031 109.347656 245.832031 109.9375 C 245.832031 113.65625 245.832031 125.847656 245.832031 125.847656 L 237.242188 125.847656 L 237.242188 109.933594 C 237.242188 109.34375 237.722656 108.867188 238.3125 108.867188 C 239.96875 108.871094 243.109375 108.871094 244.761719 108.871094 Z M 244.761719 108.871094 " fill-opacity="1" fill-rule="evenodd"/><path fill="#fef5e7" d="M 189.554688 158.175781 L 189.460938 129.601562 L 221.207031 114.582031 L 249.296875 129.601562 L 249.296875 158.691406 C 247.058594 159.050781 244.394531 159.667969 241.414062 159.535156 C 238.292969 159.390625 234.210938 160.136719 229.117188 160.222656 C 228.085938 160.242188 227.007812 160.230469 225.886719 160.183594 C 220.714844 159.953125 216.097656 159.914062 209.773438 159.636719 C 208 159.558594 206.09375 159.460938 204.003906 159.335938 C 196.953125 158.914062 192.011719 158.957031 189.554688 158.175781 Z M 189.554688 158.175781 " fill-opacity="1" fill-rule="evenodd"/><path fill="#e26225" d="M 220.492188 117.617188 C 219.808594 117.203125 218.953125 117.203125 218.269531 117.617188 C 212.726562 120.96875 188.386719 135.691406 188.386719 135.691406 C 187.222656 136.394531 185.71875 136.011719 185.019531 134.839844 L 183.539062 132.34375 C 182.84375 131.171875 183.21875 129.652344 184.378906 128.949219 C 191.332031 124.742188 213.511719 111.398438 218.460938 108.417969 C 219.070312 108.050781 219.828125 108.054688 220.4375 108.421875 C 226.113281 111.851562 254.375 128.949219 254.375 128.949219 C 255.535156 129.652344 255.914062 131.175781 255.214844 132.34375 L 253.734375 134.839844 C 253.039062 136.011719 251.53125 136.394531 250.367188 135.691406 C 250.371094 135.691406 226.03125 120.96875 220.492188 117.617188 Z M 220.492188 117.617188 " fill-opacity="1" fill-rule="evenodd"/><path fill="#954f1b" d="M 236.035156 149.359375 L 231.042969 149.359375 C 230.90625 149.359375 230.777344 149.304688 230.683594 149.207031 C 230.589844 149.109375 230.53125 148.980469 230.53125 148.839844 L 230.53125 144.308594 L 236.042969 144.324219 Z M 242.367188 144.339844 L 242.367188 148.839844 C 242.367188 148.980469 242.3125 149.109375 242.214844 149.207031 C 242.117188 149.304688 241.988281 149.359375 241.855469 149.359375 L 237.078125 149.359375 L 237.09375 144.328125 Z M 237.105469 137.421875 L 241.855469 137.421875 C 241.992188 137.421875 242.121094 137.476562 242.214844 137.574219 C 242.3125 137.671875 242.367188 137.800781 242.367188 137.941406 L 242.367188 143.289062 L 237.09375 143.273438 Z M 230.527344 143.253906 L 230.527344 137.9375 C 230.527344 137.796875 230.582031 137.667969 230.679688 137.570312 C 230.777344 137.472656 230.90625 137.417969 231.039062 137.417969 L 236.058594 137.417969 L 236.042969 143.265625 Z M 201.898438 149.359375 L 196.90625 149.359375 C 196.769531 149.359375 196.640625 149.304688 196.546875 149.207031 C 196.449219 149.109375 196.394531 148.980469 196.394531 148.839844 L 196.394531 144.308594 L 201.910156 144.324219 Z M 208.226562 144.339844 L 208.226562 148.839844 C 208.226562 148.980469 208.171875 149.109375 208.074219 149.207031 C 207.976562 149.304688 207.847656 149.359375 207.710938 149.359375 L 202.9375 149.359375 L 202.949219 144.328125 Z M 202.972656 137.421875 L 207.714844 137.421875 C 207.851562 137.421875 207.980469 137.476562 208.078125 137.574219 C 208.175781 137.671875 208.230469 137.800781 208.230469 137.941406 L 208.230469 143.289062 L 202.957031 143.273438 Z M 196.390625 143.253906 L 196.390625 137.9375 C 196.390625 137.796875 196.445312 137.667969 196.542969 137.570312 C 196.640625 137.472656 196.769531 137.417969 196.902344 137.417969 L 201.925781 137.417969 L 201.910156 143.265625 Z M 196.390625 143.253906 " fill-opacity="1" fill-rule="evenodd"/><path fill="#954f1b" d="M 237.734375 119.152344 C 237.566406 119.050781 237.515625 118.835938 237.613281 118.671875 C 237.714844 118.503906 237.929688 118.453125 238.09375 118.550781 L 245.339844 122.953125 C 245.507812 123.054688 245.558594 123.269531 245.460938 123.4375 C 245.359375 123.605469 245.144531 123.65625 244.980469 123.558594 Z M 237.734375 119.152344 " fill-opacity="1" fill-rule="evenodd"/><path fill="#e26225" d="M 209.777344 159.640625 C 210.933594 155.386719 214.796875 152.257812 219.378906 152.257812 C 224.175781 152.257812 228.175781 155.675781 229.121094 160.226562 C 228.089844 160.246094 227.011719 160.234375 225.890625 160.1875 C 220.71875 159.953125 216.097656 159.914062 209.777344 159.640625 Z M 209.777344 159.640625 " fill-opacity="1" fill-rule="evenodd"/></svg>