<svg xmlns="http://www.w3.org/2000/svg" xmlns:xlink="http://www.w3.org/1999/xlink" width="500" zoomAndPan="magnify" viewBox="0 0 375 374.999991" height="500" preserveAspectRatio="xMidYMid meet" version="1.0"><defs><filter x="0%" y="0%" width="100%" height="100%" id="55aab6a1fd"><feColorMatrix values="0 0 0 0 1 0 0 0 0 1 0 0 0 0 1 0 0 0 1 0" color-interpolation-filters="sRGB"/></filter><clipPath id="1cad14e314"><path d="M 105.25 47.589844 L 282.761719 47.589844 L 282.761719 225.101562 L 105.25 225.101562 Z M 105.25 47.589844 " clip-rule="nonzero"/></clipPath><clipPath id="9276ede120"><path d="M 194.003906 47.589844 C 144.988281 47.589844 105.25 87.328125 105.25 136.347656 C 105.25 185.363281 144.988281 225.101562 194.003906 225.101562 C 243.023438 225.101562 282.761719 185.363281 282.761719 136.347656 C 282.761719 87.328125 243.023438 47.589844 194.003906 47.589844 Z M 194.003906 47.589844 " clip-rule="nonzero"/></clipPath><clipPath id="f44ae25ed2"><path d="M 105.25 47.589844 L 282.753906 47.589844 L 282.753906 225.09375 L 105.25 225.09375 Z M 105.25 47.589844 " clip-rule="nonzero"/></clipPath><clipPath id="310c41d389"><path d="M 194 47.589844 C 144.984375 47.589844 105.25 87.328125 105.25 136.34375 C 105.25 185.359375 144.984375 225.09375 194 225.09375 C 243.015625 225.09375 282.753906 185.359375 282.753906 136.34375 C 282.753906 87.328125 243.015625 47.589844 194 47.589844 Z M 194 47.589844 " clip-rule="nonzero"/></clipPath><mask id="9300d4c194"><g filter="url(#55aab6a1fd)"><rect x="-37.5" width="450" fill="#000000" y="-37.499999" height="449.999989" fill-opacity="0.58"/></g></mask><clipPath id="7c97209941"><path d="M 8 11 L 149 11 L 149 105 L 8 105 Z M 8 11 " clip-rule="nonzero"/></clipPath><clipPath id="8a11f7e3ef"><path d="M 16.976562 0.304688 L 181.855469 23.480469 L 165.050781 143.054688 L 0.167969 119.878906 Z M 16.976562 0.304688 " clip-rule="nonzero"/></clipPath><clipPath id="29231c4436"><path d="M 8.613281 59.8125 C 3.992188 92.675781 26.890625 123.058594 59.753906 127.679688 L 104.894531 134.023438 C 137.757812 138.644531 168.144531 115.746094 172.761719 82.882812 C 177.382812 50.019531 154.484375 19.632812 121.621094 15.015625 L 76.480469 8.667969 C 43.617188 4.050781 13.230469 26.945312 8.613281 59.8125 Z M 8.613281 59.8125 " clip-rule="nonzero"/></clipPath><clipPath id="c9cda3740e"><path d="M 16.976562 0.304688 L 181.113281 23.375 L 164.410156 142.207031 L 0.273438 119.136719 Z M 16.976562 0.304688 " clip-rule="nonzero"/></clipPath><clipPath id="dc01e2d881"><path d="M 16.976562 0.304688 L 181.113281 23.375 L 164.410156 142.207031 L 0.273438 119.136719 Z M 16.976562 0.304688 " clip-rule="nonzero"/></clipPath><clipPath id="c0f7f6c98b"><path d="M 16.976562 0.304688 L 181.113281 23.375 L 164.410156 142.207031 L 0.273438 119.136719 Z M 16.976562 0.304688 " clip-rule="nonzero"/></clipPath><clipPath id="7ea7287398"><path d="M 73 42 L 149 42 L 149 105 L 73 105 Z M 73 42 " clip-rule="nonzero"/></clipPath><clipPath id="241fdbcada"><path d="M 16.976562 0.304688 L 181.855469 23.480469 L 165.050781 143.054688 L 0.167969 119.878906 Z M 16.976562 0.304688 " clip-rule="nonzero"/></clipPath><clipPath id="95a2040c91"><path d="M 8.613281 59.8125 C 3.992188 92.675781 26.890625 123.058594 59.753906 127.679688 L 104.894531 134.023438 C 137.757812 138.644531 168.144531 115.746094 172.761719 82.882812 C 177.382812 50.019531 154.484375 19.632812 121.621094 15.015625 L 76.480469 8.667969 C 43.617188 4.050781 13.230469 26.945312 8.613281 59.8125 Z M 8.613281 59.8125 " clip-rule="nonzero"/></clipPath><clipPath id="7ad8dfd575"><path d="M 16.976562 0.304688 L 181.113281 23.375 L 164.410156 142.207031 L 0.273438 119.136719 Z M 16.976562 0.304688 " clip-rule="nonzero"/></clipPath><clipPath id="4018157aa2"><path d="M 16.976562 0.304688 L 181.113281 23.375 L 164.410156 142.207031 L 0.273438 119.136719 Z M 16.976562 0.304688 " clip-rule="nonzero"/></clipPath><clipPath id="1a70e30cd7"><path d="M 16.976562 0.304688 L 181.113281 23.375 L 164.410156 142.207031 L 0.273438 119.136719 Z M 16.976562 0.304688 " clip-rule="nonzero"/></clipPath><clipPath id="2af91fa994"><path d="M 70 65 L 106 65 L 106 126 L 70 126 Z M 70 65 " clip-rule="nonzero"/></clipPath><clipPath id="9fd2f56fbc"><path d="M 16.976562 0.304688 L 181.855469 23.480469 L 165.050781 143.054688 L 0.167969 119.878906 Z M 16.976562 0.304688 " clip-rule="nonzero"/></clipPath><clipPath id="9c1a1f77a2"><path d="M 8.613281 59.8125 C 3.992188 92.675781 26.890625 123.058594 59.753906 127.679688 L 104.894531 134.023438 C 137.757812 138.644531 168.144531 115.746094 172.761719 82.882812 C 177.382812 50.019531 154.484375 19.632812 121.621094 15.015625 L 76.480469 8.667969 C 43.617188 4.050781 13.230469 26.945312 8.613281 59.8125 Z M 8.613281 59.8125 " clip-rule="nonzero"/></clipPath><clipPath id="e4625fca64"><path d="M 16.976562 0.304688 L 181.113281 23.375 L 164.410156 142.207031 L 0.273438 119.136719 Z M 16.976562 0.304688 " clip-rule="nonzero"/></clipPath><clipPath id="ecccc24501"><path d="M 16.976562 0.304688 L 181.113281 23.375 L 164.410156 142.207031 L 0.273438 119.136719 Z M 16.976562 0.304688 " clip-rule="nonzero"/></clipPath><clipPath id="747322dcc3"><path d="M 16.976562 0.304688 L 181.113281 23.375 L 164.410156 142.207031 L 0.273438 119.136719 Z M 16.976562 0.304688 " clip-rule="nonzero"/></clipPath><clipPath id="4443f256ca"><path d="M 97.773438 65.5 C 92.726562 72.480469 86.765625 78.570312 79.894531 83.769531 L 92.242188 86.5 C 85.296875 92.480469 75.792969 98.453125 70.273438 105.683594 C 74.664062 107.402344 80.855469 106.601562 85.355469 105.5625 L 73.464844 125.347656 C 83.664062 117.808594 93.363281 109.667969 102.550781 100.929688 L 90.15625 98.136719 L 105.097656 82.574219 L 93.089844 79.835938 C 94.652344 75.058594 96.214844 70.28125 97.773438 65.5 Z M 97.773438 65.5 " clip-rule="nonzero"/></clipPath><linearGradient x1="175.362908" gradientTransform="matrix(0.346915, -0.00724646, 0.00738939, 0.346454, 6.861688, 5.928238)" y1="262.95001" x2="279.388023" gradientUnits="userSpaceOnUse" y2="262.95001" id="3e9df924ec"><stop stop-opacity="1" stop-color="rgb(97.599792%, 92.498779%, 19.198608%)" offset="0"/><stop stop-opacity="1" stop-color="rgb(97.599792%, 92.498779%, 19.198608%)" offset="0.0625"/><stop stop-opacity="1" stop-color="rgb(97.595215%, 92.36908%, 19.187927%)" offset="0.09375"/><stop stop-opacity="1" stop-color="rgb(97.583008%, 91.990662%, 19.155884%)" offset="0.0976562"/><stop stop-opacity="1" stop-color="rgb(97.575378%, 91.740417%, 19.134521%)" offset="0.101562"/><stop stop-opacity="1" stop-color="rgb(97.566223%, 91.490173%, 19.113159%)" offset="0.105469"/><stop stop-opacity="1" stop-color="rgb(97.558594%, 91.239929%, 19.091797%)" offset="0.109375"/><stop stop-opacity="1" stop-color="rgb(97.550964%, 90.989685%, 19.070435%)" offset="0.113281"/><stop stop-opacity="1" stop-color="rgb(97.543335%, 90.739441%, 19.049072%)" offset="0.117188"/><stop stop-opacity="1" stop-color="rgb(97.53418%, 90.489197%, 19.02771%)" offset="0.121094"/><stop stop-opacity="1" stop-color="rgb(97.52655%, 90.238953%, 19.006348%)" offset="0.125"/><stop stop-opacity="1" stop-color="rgb(97.518921%, 89.988708%, 18.984985%)" offset="0.128906"/><stop stop-opacity="1" stop-color="rgb(97.511292%, 89.73999%, 18.963623%)" offset="0.132813"/><stop stop-opacity="1" stop-color="rgb(97.502136%, 89.489746%, 18.942261%)" offset="0.136719"/><stop stop-opacity="1" stop-color="rgb(97.494507%, 89.239502%, 18.922424%)" offset="0.140625"/><stop stop-opacity="1" stop-color="rgb(97.486877%, 88.989258%, 18.901062%)" offset="0.144531"/><stop stop-opacity="1" stop-color="rgb(97.479248%, 88.739014%, 18.8797%)" offset="0.148438"/><stop stop-opacity="1" stop-color="rgb(97.471619%, 88.48877%, 18.858337%)" offset="0.152344"/><stop stop-opacity="1" stop-color="rgb(97.463989%, 88.238525%, 18.836975%)" offset="0.15625"/><stop stop-opacity="1" stop-color="rgb(97.454834%, 87.988281%, 18.815613%)" offset="0.160156"/><stop stop-opacity="1" stop-color="rgb(97.447205%, 87.738037%, 18.79425%)" offset="0.164062"/><stop stop-opacity="1" stop-color="rgb(97.439575%, 87.487793%, 18.772888%)" offset="0.167969"/><stop stop-opacity="1" stop-color="rgb(97.431946%, 87.237549%, 18.751526%)" offset="0.171875"/><stop stop-opacity="1" stop-color="rgb(97.422791%, 86.987305%, 18.730164%)" offset="0.175781"/><stop stop-opacity="1" stop-color="rgb(97.415161%, 86.738586%, 18.708801%)" offset="0.179688"/><stop stop-opacity="1" stop-color="rgb(97.407532%, 86.488342%, 18.687439%)" offset="0.183594"/><stop stop-opacity="1" stop-color="rgb(97.399902%, 86.238098%, 18.666077%)" offset="0.1875"/><stop stop-opacity="1" stop-color="rgb(97.390747%, 85.987854%, 18.644714%)" offset="0.191406"/><stop stop-opacity="1" stop-color="rgb(97.383118%, 85.73761%, 18.623352%)" offset="0.195312"/><stop stop-opacity="1" stop-color="rgb(97.375488%, 85.487366%, 18.60199%)" offset="0.199219"/><stop stop-opacity="1" stop-color="rgb(97.367859%, 85.237122%, 18.580627%)" offset="0.203125"/><stop stop-opacity="1" stop-color="rgb(97.358704%, 84.986877%, 18.559265%)" offset="0.207031"/><stop stop-opacity="1" stop-color="rgb(97.351074%, 84.736633%, 18.537903%)" offset="0.210938"/><stop stop-opacity="1" stop-color="rgb(97.343445%, 84.486389%, 18.516541%)" offset="0.214844"/><stop stop-opacity="1" stop-color="rgb(97.335815%, 84.236145%, 18.496704%)" offset="0.21875"/><stop stop-opacity="1" stop-color="rgb(97.32666%, 83.985901%, 18.475342%)" offset="0.222656"/><stop stop-opacity="1" stop-color="rgb(97.319031%, 83.737183%, 18.453979%)" offset="0.226563"/><stop stop-opacity="1" stop-color="rgb(97.311401%, 83.486938%, 18.432617%)" offset="0.230469"/><stop stop-opacity="1" stop-color="rgb(97.303772%, 83.236694%, 18.411255%)" offset="0.234375"/><stop stop-opacity="1" stop-color="rgb(97.286987%, 82.954407%, 18.391418%)" offset="0.238281"/><stop stop-opacity="1" stop-color="rgb(97.271729%, 82.672119%, 18.373108%)" offset="0.242188"/><stop stop-opacity="1" stop-color="rgb(97.251892%, 82.377625%, 18.354797%)" offset="0.246094"/><stop stop-opacity="1" stop-color="rgb(97.232056%, 82.084656%, 18.336487%)" offset="0.25"/><stop stop-opacity="1" stop-color="rgb(97.212219%, 81.790161%, 18.318176%)" offset="0.253906"/><stop stop-opacity="1" stop-color="rgb(97.193909%, 81.497192%, 18.299866%)" offset="0.257812"/><stop stop-opacity="1" stop-color="rgb(97.174072%, 81.202698%, 18.281555%)" offset="0.261719"/><stop stop-opacity="1" stop-color="rgb(97.155762%, 80.908203%, 18.264771%)" offset="0.265625"/><stop stop-opacity="1" stop-color="rgb(97.135925%, 80.613708%, 18.24646%)" offset="0.269531"/><stop stop-opacity="1" stop-color="rgb(97.116089%, 80.32074%, 18.228149%)" offset="0.273438"/><stop stop-opacity="1" stop-color="rgb(97.096252%, 80.026245%, 18.209839%)" offset="0.277344"/><stop stop-opacity="1" stop-color="rgb(97.077942%, 79.733276%, 18.191528%)" offset="0.28125"/><stop stop-opacity="1" stop-color="rgb(97.058105%, 79.438782%, 18.173218%)" offset="0.285156"/><stop stop-opacity="1" stop-color="rgb(97.038269%, 79.145813%, 18.154907%)" offset="0.289062"/><stop stop-opacity="1" stop-color="rgb(97.018433%, 78.851318%, 18.136597%)" offset="0.292969"/><stop stop-opacity="1" stop-color="rgb(97.000122%, 78.55835%, 18.118286%)" offset="0.296875"/><stop stop-opacity="1" stop-color="rgb(96.980286%, 78.263855%, 18.099976%)" offset="0.300781"/><stop stop-opacity="1" stop-color="rgb(96.961975%, 77.96936%, 18.083191%)" offset="0.304687"/><stop stop-opacity="1" stop-color="rgb(96.942139%, 77.674866%, 18.06488%)" offset="0.308594"/><stop stop-opacity="1" stop-color="rgb(96.922302%, 77.381897%, 18.04657%)" offset="0.3125"/><stop stop-opacity="1" stop-color="rgb(96.902466%, 77.087402%, 18.028259%)" offset="0.316406"/><stop stop-opacity="1" stop-color="rgb(96.884155%, 76.794434%, 18.009949%)" offset="0.320312"/><stop stop-opacity="1" stop-color="rgb(96.864319%, 76.499939%, 17.991638%)" offset="0.324219"/><stop stop-opacity="1" stop-color="rgb(96.846008%, 76.20697%, 17.973328%)" offset="0.328125"/><stop stop-opacity="1" stop-color="rgb(96.826172%, 75.912476%, 17.955017%)" offset="0.332031"/><stop stop-opacity="1" stop-color="rgb(96.806335%, 75.619507%, 17.938232%)" offset="0.335938"/><stop stop-opacity="1" stop-color="rgb(96.786499%, 75.325012%, 17.919922%)" offset="0.339844"/><stop stop-opacity="1" stop-color="rgb(96.768188%, 75.030518%, 17.901611%)" offset="0.34375"/><stop stop-opacity="1" stop-color="rgb(96.748352%, 74.736023%, 17.883301%)" offset="0.347656"/><stop stop-opacity="1" stop-color="rgb(96.730042%, 74.443054%, 17.86499%)" offset="0.351562"/><stop stop-opacity="1" stop-color="rgb(96.710205%, 74.14856%, 17.84668%)" offset="0.355469"/><stop stop-opacity="1" stop-color="rgb(96.690369%, 73.855591%, 17.828369%)" offset="0.359375"/><stop stop-opacity="1" stop-color="rgb(96.670532%, 73.561096%, 17.810059%)" offset="0.363281"/><stop stop-opacity="1" stop-color="rgb(96.652222%, 73.268127%, 17.791748%)" offset="0.367188"/><stop stop-opacity="1" stop-color="rgb(96.632385%, 72.973633%, 17.773438%)" offset="0.371094"/><stop stop-opacity="1" stop-color="rgb(96.612549%, 72.679138%, 17.756653%)" offset="0.375"/><stop stop-opacity="1" stop-color="rgb(96.592712%, 72.384644%, 17.738342%)" offset="0.378906"/><stop stop-opacity="1" stop-color="rgb(96.574402%, 72.091675%, 17.720032%)" offset="0.382812"/><stop stop-opacity="1" stop-color="rgb(96.554565%, 71.79718%, 17.701721%)" offset="0.386719"/><stop stop-opacity="1" stop-color="rgb(96.536255%, 71.504211%, 17.683411%)" offset="0.390625"/><stop stop-opacity="1" stop-color="rgb(96.516418%, 71.209717%, 17.6651%)" offset="0.394531"/><stop stop-opacity="1" stop-color="rgb(96.496582%, 70.916748%, 17.64679%)" offset="0.398438"/><stop stop-opacity="1" stop-color="rgb(96.476746%, 70.622253%, 17.628479%)" offset="0.402344"/><stop stop-opacity="1" stop-color="rgb(96.458435%, 70.329285%, 17.610168%)" offset="0.40625"/><stop stop-opacity="1" stop-color="rgb(96.438599%, 70.03479%, 17.591858%)" offset="0.410156"/><stop stop-opacity="1" stop-color="rgb(96.420288%, 69.740295%, 17.575073%)" offset="0.414062"/><stop stop-opacity="1" stop-color="rgb(96.400452%, 69.445801%, 17.556763%)" offset="0.417969"/><stop stop-opacity="1" stop-color="rgb(96.380615%, 69.152832%, 17.538452%)" offset="0.421875"/><stop stop-opacity="1" stop-color="rgb(96.360779%, 68.858337%, 17.520142%)" offset="0.425781"/><stop stop-opacity="1" stop-color="rgb(96.342468%, 68.565369%, 17.501831%)" offset="0.429688"/><stop stop-opacity="1" stop-color="rgb(96.322632%, 68.270874%, 17.483521%)" offset="0.433594"/><stop stop-opacity="1" stop-color="rgb(96.302795%, 67.977905%, 17.46521%)" offset="0.4375"/><stop stop-opacity="1" stop-color="rgb(96.282959%, 67.683411%, 17.446899%)" offset="0.441406"/><stop stop-opacity="1" stop-color="rgb(96.264648%, 67.388916%, 17.430115%)" offset="0.445312"/><stop stop-opacity="1" stop-color="rgb(96.244812%, 67.094421%, 17.411804%)" offset="0.449219"/><stop stop-opacity="1" stop-color="rgb(96.226501%, 66.801453%, 17.393494%)" offset="0.453125"/><stop stop-opacity="1" stop-color="rgb(96.206665%, 66.506958%, 17.375183%)" offset="0.457031"/><stop stop-opacity="1" stop-color="rgb(96.186829%, 66.213989%, 17.356873%)" offset="0.460938"/><stop stop-opacity="1" stop-color="rgb(96.166992%, 65.919495%, 17.338562%)" offset="0.464844"/><stop stop-opacity="1" stop-color="rgb(96.148682%, 65.626526%, 17.320251%)" offset="0.46875"/><stop stop-opacity="1" stop-color="rgb(96.128845%, 65.332031%, 17.301941%)" offset="0.472656"/><stop stop-opacity="1" stop-color="rgb(96.110535%, 65.039062%, 17.28363%)" offset="0.476562"/><stop stop-opacity="1" stop-color="rgb(96.090698%, 64.744568%, 17.26532%)" offset="0.480469"/><stop stop-opacity="1" stop-color="rgb(96.070862%, 64.450073%, 17.248535%)" offset="0.484375"/><stop stop-opacity="1" stop-color="rgb(96.051025%, 64.155579%, 17.230225%)" offset="0.488281"/><stop stop-opacity="1" stop-color="rgb(96.032715%, 63.86261%, 17.211914%)" offset="0.492188"/><stop stop-opacity="1" stop-color="rgb(96.012878%, 63.568115%, 17.193604%)" offset="0.496094"/><stop stop-opacity="1" stop-color="rgb(95.994568%, 63.275146%, 17.175293%)" offset="0.5"/><stop stop-opacity="1" stop-color="rgb(95.974731%, 62.980652%, 17.156982%)" offset="0.503906"/><stop stop-opacity="1" stop-color="rgb(95.954895%, 62.687683%, 17.138672%)" offset="0.507813"/><stop stop-opacity="1" stop-color="rgb(95.935059%, 62.393188%, 17.120361%)" offset="0.511719"/><stop stop-opacity="1" stop-color="rgb(95.916748%, 62.098694%, 17.103577%)" offset="0.515625"/><stop stop-opacity="1" stop-color="rgb(95.896912%, 61.804199%, 17.085266%)" offset="0.519531"/><stop stop-opacity="1" stop-color="rgb(95.877075%, 61.51123%, 17.066956%)" offset="0.523438"/><stop stop-opacity="1" stop-color="rgb(95.857239%, 61.216736%, 17.048645%)" offset="0.527344"/><stop stop-opacity="1" stop-color="rgb(95.838928%, 60.923767%, 17.030334%)" offset="0.53125"/><stop stop-opacity="1" stop-color="rgb(95.819092%, 60.629272%, 17.012024%)" offset="0.535156"/><stop stop-opacity="1" stop-color="rgb(95.800781%, 60.336304%, 16.993713%)" offset="0.539062"/><stop stop-opacity="1" stop-color="rgb(95.780945%, 60.041809%, 16.975403%)" offset="0.542969"/><stop stop-opacity="1" stop-color="rgb(95.761108%, 59.74884%, 16.957092%)" offset="0.546875"/><stop stop-opacity="1" stop-color="rgb(95.741272%, 59.454346%, 16.938782%)" offset="0.550781"/><stop stop-opacity="1" stop-color="rgb(95.722961%, 59.159851%, 16.921997%)" offset="0.554688"/><stop stop-opacity="1" stop-color="rgb(95.701599%, 58.853149%, 16.900635%)" offset="0.558594"/><stop stop-opacity="1" stop-color="rgb(95.681763%, 58.546448%, 16.879272%)" offset="0.5625"/><stop stop-opacity="1" stop-color="rgb(95.6604%, 58.218384%, 16.853333%)" offset="0.566406"/><stop stop-opacity="1" stop-color="rgb(95.639038%, 57.891846%, 16.828918%)" offset="0.570312"/><stop stop-opacity="1" stop-color="rgb(95.61615%, 57.563782%, 16.802979%)" offset="0.574219"/><stop stop-opacity="1" stop-color="rgb(95.594788%, 57.237244%, 16.778564%)" offset="0.578125"/><stop stop-opacity="1" stop-color="rgb(95.573425%, 56.90918%, 16.752625%)" offset="0.582031"/><stop stop-opacity="1" stop-color="rgb(95.552063%, 56.581116%, 16.726685%)" offset="0.585938"/><stop stop-opacity="1" stop-color="rgb(95.529175%, 56.253052%, 16.700745%)" offset="0.589844"/><stop stop-opacity="1" stop-color="rgb(95.507812%, 55.926514%, 16.676331%)" offset="0.59375"/><stop stop-opacity="1" stop-color="rgb(95.48645%, 55.59845%, 16.650391%)" offset="0.597656"/><stop stop-opacity="1" stop-color="rgb(95.465088%, 55.271912%, 16.625977%)" offset="0.601563"/><stop stop-opacity="1" stop-color="rgb(95.4422%, 54.943848%, 16.600037%)" offset="0.605469"/><stop stop-opacity="1" stop-color="rgb(95.420837%, 54.61731%, 16.575623%)" offset="0.609375"/><stop stop-opacity="1" stop-color="rgb(95.399475%, 54.289246%, 16.549683%)" offset="0.613281"/><stop stop-opacity="1" stop-color="rgb(95.378113%, 53.962708%, 16.523743%)" offset="0.617188"/><stop stop-opacity="1" stop-color="rgb(95.355225%, 53.634644%, 16.497803%)" offset="0.621094"/><stop stop-opacity="1" stop-color="rgb(95.333862%, 53.30658%, 16.473389%)" offset="0.625"/><stop stop-opacity="1" stop-color="rgb(95.3125%, 52.978516%, 16.447449%)" offset="0.628906"/><stop stop-opacity="1" stop-color="rgb(95.291138%, 52.651978%, 16.423035%)" offset="0.632812"/><stop stop-opacity="1" stop-color="rgb(95.26825%, 52.323914%, 16.397095%)" offset="0.636719"/><stop stop-opacity="1" stop-color="rgb(95.246887%, 51.997375%, 16.371155%)" offset="0.640625"/><stop stop-opacity="1" stop-color="rgb(95.225525%, 51.669312%, 16.345215%)" offset="0.644531"/><stop stop-opacity="1" stop-color="rgb(95.204163%, 51.342773%, 16.320801%)" offset="0.648438"/><stop stop-opacity="1" stop-color="rgb(95.181274%, 51.014709%, 16.294861%)" offset="0.652344"/><stop stop-opacity="1" stop-color="rgb(95.159912%, 50.688171%, 16.270447%)" offset="0.65625"/><stop stop-opacity="1" stop-color="rgb(95.137024%, 50.360107%, 16.244507%)" offset="0.660156"/><stop stop-opacity="1" stop-color="rgb(95.115662%, 50.032043%, 16.218567%)" offset="0.664062"/><stop stop-opacity="1" stop-color="rgb(95.094299%, 49.703979%, 16.192627%)" offset="0.667969"/><stop stop-opacity="1" stop-color="rgb(95.072937%, 49.377441%, 16.168213%)" offset="0.671875"/><stop stop-opacity="1" stop-color="rgb(95.050049%, 49.049377%, 16.142273%)" offset="0.675781"/><stop stop-opacity="1" stop-color="rgb(95.028687%, 48.722839%, 16.117859%)" offset="0.679688"/><stop stop-opacity="1" stop-color="rgb(95.007324%, 48.394775%, 16.091919%)" offset="0.683594"/><stop stop-opacity="1" stop-color="rgb(94.985962%, 48.068237%, 16.067505%)" offset="0.6875"/><stop stop-opacity="1" stop-color="rgb(94.963074%, 47.740173%, 16.041565%)" offset="0.691406"/><stop stop-opacity="1" stop-color="rgb(94.941711%, 47.413635%, 16.015625%)" offset="0.695313"/><stop stop-opacity="1" stop-color="rgb(94.920349%, 47.085571%, 15.989685%)" offset="0.699219"/><stop stop-opacity="1" stop-color="rgb(94.898987%, 46.757507%, 15.965271%)" offset="0.703125"/><stop stop-opacity="1" stop-color="rgb(94.876099%, 46.429443%, 15.939331%)" offset="0.707031"/><stop stop-opacity="1" stop-color="rgb(94.854736%, 46.102905%, 15.914917%)" offset="0.710938"/><stop stop-opacity="1" stop-color="rgb(94.833374%, 45.774841%, 15.888977%)" offset="0.714844"/><stop stop-opacity="1" stop-color="rgb(94.812012%, 45.448303%, 15.863037%)" offset="0.71875"/><stop stop-opacity="1" stop-color="rgb(94.789124%, 45.120239%, 15.837097%)" offset="0.722656"/><stop stop-opacity="1" stop-color="rgb(94.767761%, 44.793701%, 15.812683%)" offset="0.726562"/><stop stop-opacity="1" stop-color="rgb(94.746399%, 44.465637%, 15.786743%)" offset="0.730469"/><stop stop-opacity="1" stop-color="rgb(94.725037%, 44.137573%, 15.762329%)" offset="0.734375"/><stop stop-opacity="1" stop-color="rgb(94.702148%, 43.809509%, 15.736389%)" offset="0.738281"/><stop stop-opacity="1" stop-color="rgb(94.680786%, 43.482971%, 15.711975%)" offset="0.742188"/><stop stop-opacity="1" stop-color="rgb(94.659424%, 43.154907%, 15.686035%)" offset="0.746094"/><stop stop-opacity="1" stop-color="rgb(94.638062%, 42.828369%, 15.660095%)" offset="0.75"/><stop stop-opacity="1" stop-color="rgb(94.615173%, 42.500305%, 15.634155%)" offset="0.753906"/><stop stop-opacity="1" stop-color="rgb(94.593811%, 42.173767%, 15.609741%)" offset="0.757812"/><stop stop-opacity="1" stop-color="rgb(94.572449%, 41.845703%, 15.583801%)" offset="0.761719"/><stop stop-opacity="1" stop-color="rgb(94.551086%, 41.519165%, 15.559387%)" offset="0.765625"/><stop stop-opacity="1" stop-color="rgb(94.528198%, 41.191101%, 15.533447%)" offset="0.769531"/><stop stop-opacity="1" stop-color="rgb(94.506836%, 40.863037%, 15.507507%)" offset="0.773438"/><stop stop-opacity="1" stop-color="rgb(94.483948%, 40.534973%, 15.481567%)" offset="0.777344"/><stop stop-opacity="1" stop-color="rgb(94.462585%, 40.208435%, 15.457153%)" offset="0.78125"/><stop stop-opacity="1" stop-color="rgb(94.441223%, 39.880371%, 15.431213%)" offset="0.785156"/><stop stop-opacity="1" stop-color="rgb(94.419861%, 39.553833%, 15.406799%)" offset="0.789063"/><stop stop-opacity="1" stop-color="rgb(94.396973%, 39.225769%, 15.380859%)" offset="0.792969"/><stop stop-opacity="1" stop-color="rgb(94.37561%, 38.899231%, 15.356445%)" offset="0.796875"/><stop stop-opacity="1" stop-color="rgb(94.354248%, 38.571167%, 15.330505%)" offset="0.800781"/><stop stop-opacity="1" stop-color="rgb(94.332886%, 38.244629%, 15.304565%)" offset="0.804688"/><stop stop-opacity="1" stop-color="rgb(94.309998%, 37.916565%, 15.278625%)" offset="0.808594"/><stop stop-opacity="1" stop-color="rgb(94.288635%, 37.588501%, 15.254211%)" offset="0.8125"/><stop stop-opacity="1" stop-color="rgb(94.267273%, 37.260437%, 15.228271%)" offset="0.816406"/><stop stop-opacity="1" stop-color="rgb(94.245911%, 36.933899%, 15.203857%)" offset="0.820313"/><stop stop-opacity="1" stop-color="rgb(94.223022%, 36.605835%, 15.177917%)" offset="0.824219"/><stop stop-opacity="1" stop-color="rgb(94.20166%, 36.279297%, 15.151978%)" offset="0.828125"/><stop stop-opacity="1" stop-color="rgb(94.180298%, 35.951233%, 15.126038%)" offset="0.832031"/><stop stop-opacity="1" stop-color="rgb(94.158936%, 35.624695%, 15.101624%)" offset="0.835938"/><stop stop-opacity="1" stop-color="rgb(94.136047%, 35.296631%, 15.075684%)" offset="0.839844"/><stop stop-opacity="1" stop-color="rgb(94.114685%, 34.968567%, 15.05127%)" offset="0.84375"/><stop stop-opacity="1" stop-color="rgb(94.093323%, 34.640503%, 15.02533%)" offset="0.847656"/><stop stop-opacity="1" stop-color="rgb(94.07196%, 34.313965%, 14.99939%)" offset="0.851562"/><stop stop-opacity="1" stop-color="rgb(94.049072%, 33.985901%, 14.97345%)" offset="0.855469"/><stop stop-opacity="1" stop-color="rgb(94.02771%, 33.659363%, 14.949036%)" offset="0.859375"/><stop stop-opacity="1" stop-color="rgb(94.006348%, 33.331299%, 14.923096%)" offset="0.863281"/><stop stop-opacity="1" stop-color="rgb(93.984985%, 33.004761%, 14.898682%)" offset="0.867188"/><stop stop-opacity="1" stop-color="rgb(93.962097%, 32.676697%, 14.872742%)" offset="0.871094"/><stop stop-opacity="1" stop-color="rgb(93.940735%, 32.350159%, 14.848328%)" offset="0.875"/><stop stop-opacity="1" stop-color="rgb(93.919373%, 32.022095%, 14.822388%)" offset="0.878906"/><stop stop-opacity="1" stop-color="rgb(93.89801%, 31.694031%, 14.796448%)" offset="0.882813"/><stop stop-opacity="1" stop-color="rgb(93.875122%, 31.365967%, 14.770508%)" offset="0.886719"/><stop stop-opacity="1" stop-color="rgb(93.85376%, 31.039429%, 14.746094%)" offset="0.890625"/><stop stop-opacity="1" stop-color="rgb(93.830872%, 30.711365%, 14.720154%)" offset="0.894531"/><stop stop-opacity="1" stop-color="rgb(93.809509%, 30.384827%, 14.69574%)" offset="0.898438"/><stop stop-opacity="1" stop-color="rgb(93.788147%, 30.056763%, 14.6698%)" offset="0.902344"/><stop stop-opacity="1" stop-color="rgb(93.766785%, 29.730225%, 14.64386%)" offset="0.90625"/><stop stop-opacity="1" stop-color="rgb(93.743896%, 29.402161%, 14.61792%)" offset="0.910156"/><stop stop-opacity="1" stop-color="rgb(93.722534%, 29.075623%, 14.593506%)" offset="0.914063"/><stop stop-opacity="1" stop-color="rgb(93.701172%, 28.747559%, 14.567566%)" offset="0.917969"/><stop stop-opacity="1" stop-color="rgb(93.67981%, 28.419495%, 14.543152%)" offset="0.921875"/><stop stop-opacity="1" stop-color="rgb(93.656921%, 28.091431%, 14.517212%)" offset="0.925781"/><stop stop-opacity="1" stop-color="rgb(93.635559%, 27.764893%, 14.492798%)" offset="0.929688"/><stop stop-opacity="1" stop-color="rgb(93.614197%, 27.436829%, 14.466858%)" offset="0.933594"/><stop stop-opacity="1" stop-color="rgb(93.592834%, 27.110291%, 14.440918%)" offset="0.9375"/><stop stop-opacity="1" stop-color="rgb(93.569946%, 26.782227%, 14.414978%)" offset="0.941406"/><stop stop-opacity="1" stop-color="rgb(93.548584%, 26.455688%, 14.390564%)" offset="0.945312"/><stop stop-opacity="1" stop-color="rgb(93.527222%, 26.127625%, 14.364624%)" offset="0.949219"/><stop stop-opacity="1" stop-color="rgb(93.505859%, 25.801086%, 14.34021%)" offset="0.953125"/><stop stop-opacity="1" stop-color="rgb(93.482971%, 25.473022%, 14.31427%)" offset="0.957031"/><stop stop-opacity="1" stop-color="rgb(93.461609%, 25.144958%, 14.28833%)" offset="0.960938"/><stop stop-opacity="1" stop-color="rgb(93.440247%, 24.816895%, 14.26239%)" offset="0.964844"/><stop stop-opacity="1" stop-color="rgb(93.418884%, 24.490356%, 14.237976%)" offset="0.96875"/><stop stop-opacity="1" stop-color="rgb(93.395996%, 24.162292%, 14.212036%)" offset="0.972656"/><stop stop-opacity="1" stop-color="rgb(93.374634%, 23.835754%, 14.187622%)" offset="0.976563"/><stop stop-opacity="1" stop-color="rgb(93.353271%, 23.50769%, 14.161682%)" offset="0.980469"/><stop stop-opacity="1" stop-color="rgb(93.331909%, 23.181152%, 14.137268%)" offset="0.984375"/><stop stop-opacity="1" stop-color="rgb(93.315125%, 22.940063%, 14.117432%)" offset="0.988281"/><stop stop-opacity="1" stop-color="rgb(93.299866%, 22.698975%, 14.099121%)" offset="0.992187"/><stop stop-opacity="1" stop-color="rgb(93.299866%, 22.698975%, 14.099121%)" offset="1"/></linearGradient><clipPath id="1fe9f635eb"><path d="M 8 40 L 142 40 L 142 105 L 8 105 Z M 8 40 " clip-rule="nonzero"/></clipPath><clipPath id="f5f0b2934f"><path d="M 16.976562 0.304688 L 181.855469 23.480469 L 165.050781 143.054688 L 0.167969 119.878906 Z M 16.976562 0.304688 " clip-rule="nonzero"/></clipPath><clipPath id="82ff92fa2d"><path d="M 8.613281 59.8125 C 3.992188 92.675781 26.890625 123.058594 59.753906 127.679688 L 104.894531 134.023438 C 137.757812 138.644531 168.144531 115.746094 172.761719 82.882812 C 177.382812 50.019531 154.484375 19.632812 121.621094 15.015625 L 76.480469 8.667969 C 43.617188 4.050781 13.230469 26.945312 8.613281 59.8125 Z M 8.613281 59.8125 " clip-rule="nonzero"/></clipPath><clipPath id="e45c490163"><path d="M 16.976562 0.304688 L 181.113281 23.375 L 164.410156 142.207031 L 0.273438 119.136719 Z M 16.976562 0.304688 " clip-rule="nonzero"/></clipPath><clipPath id="016cc6d3a7"><path d="M 16.976562 0.304688 L 181.113281 23.375 L 164.410156 142.207031 L 0.273438 119.136719 Z M 16.976562 0.304688 " clip-rule="nonzero"/></clipPath><clipPath id="c926a697ef"><path d="M 16.976562 0.304688 L 181.113281 23.375 L 164.410156 142.207031 L 0.273438 119.136719 Z M 16.976562 0.304688 " clip-rule="nonzero"/></clipPath><clipPath id="6d03b34912"><path d="M 107 48 L 172 48 L 172 95 L 107 95 Z M 107 48 " clip-rule="nonzero"/></clipPath><clipPath id="1a5b5ed061"><path d="M 16.976562 0.304688 L 181.855469 23.480469 L 165.050781 143.054688 L 0.167969 119.878906 Z M 16.976562 0.304688 " clip-rule="nonzero"/></clipPath><clipPath id="42d60e4c2b"><path d="M 8.613281 59.8125 C 3.992188 92.675781 26.890625 123.058594 59.753906 127.679688 L 104.894531 134.023438 C 137.757812 138.644531 168.144531 115.746094 172.761719 82.882812 C 177.382812 50.019531 154.484375 19.632812 121.621094 15.015625 L 76.480469 8.667969 C 43.617188 4.050781 13.230469 26.945312 8.613281 59.8125 Z M 8.613281 59.8125 " clip-rule="nonzero"/></clipPath><clipPath id="8215788fb7"><path d="M 16.976562 0.304688 L 181.113281 23.375 L 164.410156 142.207031 L 0.273438 119.136719 Z M 16.976562 0.304688 " clip-rule="nonzero"/></clipPath><clipPath id="b845da1672"><path d="M 16.976562 0.304688 L 181.113281 23.375 L 164.410156 142.207031 L 0.273438 119.136719 Z M 16.976562 0.304688 " clip-rule="nonzero"/></clipPath><clipPath id="175282f404"><path d="M 16.976562 0.304688 L 181.113281 23.375 L 164.410156 142.207031 L 0.273438 119.136719 Z M 16.976562 0.304688 " clip-rule="nonzero"/></clipPath><clipPath id="ef9ecf85c4"><path d="M 142 62 L 172 62 L 172 95 L 142 95 Z M 142 62 " clip-rule="nonzero"/></clipPath><clipPath id="1f0990bcc3"><path d="M 16.976562 0.304688 L 181.855469 23.480469 L 165.050781 143.054688 L 0.167969 119.878906 Z M 16.976562 0.304688 " clip-rule="nonzero"/></clipPath><clipPath id="cfe2d65cc9"><path d="M 8.613281 59.8125 C 3.992188 92.675781 26.890625 123.058594 59.753906 127.679688 L 104.894531 134.023438 C 137.757812 138.644531 168.144531 115.746094 172.761719 82.882812 C 177.382812 50.019531 154.484375 19.632812 121.621094 15.015625 L 76.480469 8.667969 C 43.617188 4.050781 13.230469 26.945312 8.613281 59.8125 Z M 8.613281 59.8125 " clip-rule="nonzero"/></clipPath><clipPath id="599ea7aaec"><path d="M 16.976562 0.304688 L 181.113281 23.375 L 164.410156 142.207031 L 0.273438 119.136719 Z M 16.976562 0.304688 " clip-rule="nonzero"/></clipPath><clipPath id="1bbbaf7aac"><path d="M 16.976562 0.304688 L 181.113281 23.375 L 164.410156 142.207031 L 0.273438 119.136719 Z M 16.976562 0.304688 " clip-rule="nonzero"/></clipPath><clipPath id="b4b14c07c6"><path d="M 16.976562 0.304688 L 181.113281 23.375 L 164.410156 142.207031 L 0.273438 119.136719 Z M 16.976562 0.304688 " clip-rule="nonzero"/></clipPath><clipPath id="3e47294301"><path d="M 106 55 L 158 55 L 158 94 L 106 94 Z M 106 55 " clip-rule="nonzero"/></clipPath><clipPath id="906ac9ee71"><path d="M 16.976562 0.304688 L 181.855469 23.480469 L 165.050781 143.054688 L 0.167969 119.878906 Z M 16.976562 0.304688 " clip-rule="nonzero"/></clipPath><clipPath id="b69c9ad29a"><path d="M 8.613281 59.8125 C 3.992188 92.675781 26.890625 123.058594 59.753906 127.679688 L 104.894531 134.023438 C 137.757812 138.644531 168.144531 115.746094 172.761719 82.882812 C 177.382812 50.019531 154.484375 19.632812 121.621094 15.015625 L 76.480469 8.667969 C 43.617188 4.050781 13.230469 26.945312 8.613281 59.8125 Z M 8.613281 59.8125 " clip-rule="nonzero"/></clipPath><clipPath id="7fba4f2ed3"><path d="M 16.976562 0.304688 L 181.113281 23.375 L 164.410156 142.207031 L 0.273438 119.136719 Z M 16.976562 0.304688 " clip-rule="nonzero"/></clipPath><clipPath id="7c97df2144"><path d="M 16.976562 0.304688 L 181.113281 23.375 L 164.410156 142.207031 L 0.273438 119.136719 Z M 16.976562 0.304688 " clip-rule="nonzero"/></clipPath><clipPath id="b22090f7e1"><path d="M 16.976562 0.304688 L 181.113281 23.375 L 164.410156 142.207031 L 0.273438 119.136719 Z M 16.976562 0.304688 " clip-rule="nonzero"/></clipPath><clipPath id="1cddb68ce0"><path d="M 70 65 L 106 65 L 106 126 L 70 126 Z M 70 65 " clip-rule="nonzero"/></clipPath><clipPath id="5eeb5a433a"><path d="M 16.976562 0.304688 L 181.855469 23.480469 L 165.050781 143.054688 L 0.167969 119.878906 Z M 16.976562 0.304688 " clip-rule="nonzero"/></clipPath><clipPath id="e47e75778f"><path d="M 8.613281 59.8125 C 3.992188 92.675781 26.890625 123.058594 59.753906 127.679688 L 104.894531 134.023438 C 137.757812 138.644531 168.144531 115.746094 172.761719 82.882812 C 177.382812 50.019531 154.484375 19.632812 121.621094 15.015625 L 76.480469 8.667969 C 43.617188 4.050781 13.230469 26.945312 8.613281 59.8125 Z M 8.613281 59.8125 " clip-rule="nonzero"/></clipPath><clipPath id="66a85488dc"><path d="M 16.976562 0.304688 L 181.113281 23.375 L 164.410156 142.207031 L 0.273438 119.136719 Z M 16.976562 0.304688 " clip-rule="nonzero"/></clipPath><clipPath id="5e1abda98a"><path d="M 16.976562 0.304688 L 181.113281 23.375 L 164.410156 142.207031 L 0.273438 119.136719 Z M 16.976562 0.304688 " clip-rule="nonzero"/></clipPath><clipPath id="ab0a77ef8f"><path d="M 16.976562 0.304688 L 181.113281 23.375 L 164.410156 142.207031 L 0.273438 119.136719 Z M 16.976562 0.304688 " clip-rule="nonzero"/></clipPath><clipPath id="38149ac873"><path d="M 49 84 L 58 84 L 58 94 L 49 94 Z M 49 84 " clip-rule="nonzero"/></clipPath><clipPath id="73c60ab19f"><path d="M 16.976562 0.304688 L 181.855469 23.480469 L 165.050781 143.054688 L 0.167969 119.878906 Z M 16.976562 0.304688 " clip-rule="nonzero"/></clipPath><clipPath id="a767381be2"><path d="M 8.613281 59.8125 C 3.992188 92.675781 26.890625 123.058594 59.753906 127.679688 L 104.894531 134.023438 C 137.757812 138.644531 168.144531 115.746094 172.761719 82.882812 C 177.382812 50.019531 154.484375 19.632812 121.621094 15.015625 L 76.480469 8.667969 C 43.617188 4.050781 13.230469 26.945312 8.613281 59.8125 Z M 8.613281 59.8125 " clip-rule="nonzero"/></clipPath><clipPath id="60fea9b940"><path d="M 16.976562 0.304688 L 181.113281 23.375 L 164.410156 142.207031 L 0.273438 119.136719 Z M 16.976562 0.304688 " clip-rule="nonzero"/></clipPath><clipPath id="8116834f46"><path d="M 16.976562 0.304688 L 181.113281 23.375 L 164.410156 142.207031 L 0.273438 119.136719 Z M 16.976562 0.304688 " clip-rule="nonzero"/></clipPath><clipPath id="12b0dc6321"><path d="M 16.976562 0.304688 L 181.113281 23.375 L 164.410156 142.207031 L 0.273438 119.136719 Z M 16.976562 0.304688 " clip-rule="nonzero"/></clipPath><clipPath id="afda40e065"><path d="M 60 93 L 70 93 L 70 103 L 60 103 Z M 60 93 " clip-rule="nonzero"/></clipPath><clipPath id="fd80491922"><path d="M 16.976562 0.304688 L 181.855469 23.480469 L 165.050781 143.054688 L 0.167969 119.878906 Z M 16.976562 0.304688 " clip-rule="nonzero"/></clipPath><clipPath id="4898d687c9"><path d="M 8.613281 59.8125 C 3.992188 92.675781 26.890625 123.058594 59.753906 127.679688 L 104.894531 134.023438 C 137.757812 138.644531 168.144531 115.746094 172.761719 82.882812 C 177.382812 50.019531 154.484375 19.632812 121.621094 15.015625 L 76.480469 8.667969 C 43.617188 4.050781 13.230469 26.945312 8.613281 59.8125 Z M 8.613281 59.8125 " clip-rule="nonzero"/></clipPath><clipPath id="a55dcf7136"><path d="M 16.976562 0.304688 L 181.113281 23.375 L 164.410156 142.207031 L 0.273438 119.136719 Z M 16.976562 0.304688 " clip-rule="nonzero"/></clipPath><clipPath id="394ac43dd7"><path d="M 16.976562 0.304688 L 181.113281 23.375 L 164.410156 142.207031 L 0.273438 119.136719 Z M 16.976562 0.304688 " clip-rule="nonzero"/></clipPath><clipPath id="8d423fd672"><path d="M 16.976562 0.304688 L 181.113281 23.375 L 164.410156 142.207031 L 0.273438 119.136719 Z M 16.976562 0.304688 " clip-rule="nonzero"/></clipPath><clipPath id="fe015509f9"><path d="M 31 90 L 42 90 L 42 101 L 31 101 Z M 31 90 " clip-rule="nonzero"/></clipPath><clipPath id="3460600aeb"><path d="M 16.976562 0.304688 L 181.855469 23.480469 L 165.050781 143.054688 L 0.167969 119.878906 Z M 16.976562 0.304688 " clip-rule="nonzero"/></clipPath><clipPath id="c60dfc0676"><path d="M 8.613281 59.8125 C 3.992188 92.675781 26.890625 123.058594 59.753906 127.679688 L 104.894531 134.023438 C 137.757812 138.644531 168.144531 115.746094 172.761719 82.882812 C 177.382812 50.019531 154.484375 19.632812 121.621094 15.015625 L 76.480469 8.667969 C 43.617188 4.050781 13.230469 26.945312 8.613281 59.8125 Z M 8.613281 59.8125 " clip-rule="nonzero"/></clipPath><clipPath id="24e7084329"><path d="M 16.976562 0.304688 L 181.113281 23.375 L 164.410156 142.207031 L 0.273438 119.136719 Z M 16.976562 0.304688 " clip-rule="nonzero"/></clipPath><clipPath id="622c578401"><path d="M 16.976562 0.304688 L 181.113281 23.375 L 164.410156 142.207031 L 0.273438 119.136719 Z M 16.976562 0.304688 " clip-rule="nonzero"/></clipPath><clipPath id="ebf116e22f"><path d="M 16.976562 0.304688 L 181.113281 23.375 L 164.410156 142.207031 L 0.273438 119.136719 Z M 16.976562 0.304688 " clip-rule="nonzero"/></clipPath><clipPath id="f129ac665c"><path d="M 8 89 L 18 89 L 18 99 L 8 99 Z M 8 89 " clip-rule="nonzero"/></clipPath><clipPath id="6f4939665a"><path d="M 16.976562 0.304688 L 181.855469 23.480469 L 165.050781 143.054688 L 0.167969 119.878906 Z M 16.976562 0.304688 " clip-rule="nonzero"/></clipPath><clipPath id="d1aab81982"><path d="M 8.613281 59.8125 C 3.992188 92.675781 26.890625 123.058594 59.753906 127.679688 L 104.894531 134.023438 C 137.757812 138.644531 168.144531 115.746094 172.761719 82.882812 C 177.382812 50.019531 154.484375 19.632812 121.621094 15.015625 L 76.480469 8.667969 C 43.617188 4.050781 13.230469 26.945312 8.613281 59.8125 Z M 8.613281 59.8125 " clip-rule="nonzero"/></clipPath><clipPath id="c5fef9f87a"><path d="M 16.976562 0.304688 L 181.113281 23.375 L 164.410156 142.207031 L 0.273438 119.136719 Z M 16.976562 0.304688 " clip-rule="nonzero"/></clipPath><clipPath id="5ffc06cea9"><path d="M 16.976562 0.304688 L 181.113281 23.375 L 164.410156 142.207031 L 0.273438 119.136719 Z M 16.976562 0.304688 " clip-rule="nonzero"/></clipPath><clipPath id="30baf6bfe4"><path d="M 16.976562 0.304688 L 181.113281 23.375 L 164.410156 142.207031 L 0.273438 119.136719 Z M 16.976562 0.304688 " clip-rule="nonzero"/></clipPath><clipPath id="a6e2651dcb"><path d="M 33 109 L 47 109 L 47 122 L 33 122 Z M 33 109 " clip-rule="nonzero"/></clipPath><clipPath id="fa25e2a745"><path d="M 16.976562 0.304688 L 181.855469 23.480469 L 165.050781 143.054688 L 0.167969 119.878906 Z M 16.976562 0.304688 " clip-rule="nonzero"/></clipPath><clipPath id="767484210f"><path d="M 8.613281 59.8125 C 3.992188 92.675781 26.890625 123.058594 59.753906 127.679688 L 104.894531 134.023438 C 137.757812 138.644531 168.144531 115.746094 172.761719 82.882812 C 177.382812 50.019531 154.484375 19.632812 121.621094 15.015625 L 76.480469 8.667969 C 43.617188 4.050781 13.230469 26.945312 8.613281 59.8125 Z M 8.613281 59.8125 " clip-rule="nonzero"/></clipPath><clipPath id="00f994ac20"><path d="M 16.976562 0.304688 L 181.113281 23.375 L 164.410156 142.207031 L 0.273438 119.136719 Z M 16.976562 0.304688 " clip-rule="nonzero"/></clipPath><clipPath id="9128360498"><path d="M 16.976562 0.304688 L 181.113281 23.375 L 164.410156 142.207031 L 0.273438 119.136719 Z M 16.976562 0.304688 " clip-rule="nonzero"/></clipPath><clipPath id="6a5cf65348"><path d="M 16.976562 0.304688 L 181.113281 23.375 L 164.410156 142.207031 L 0.273438 119.136719 Z M 16.976562 0.304688 " clip-rule="nonzero"/></clipPath><clipPath id="4d781e83c8"><path d="M 57 110 L 67 110 L 67 121 L 57 121 Z M 57 110 " clip-rule="nonzero"/></clipPath><clipPath id="8da4737c73"><path d="M 16.976562 0.304688 L 181.855469 23.480469 L 165.050781 143.054688 L 0.167969 119.878906 Z M 16.976562 0.304688 " clip-rule="nonzero"/></clipPath><clipPath id="3644b733b3"><path d="M 8.613281 59.8125 C 3.992188 92.675781 26.890625 123.058594 59.753906 127.679688 L 104.894531 134.023438 C 137.757812 138.644531 168.144531 115.746094 172.761719 82.882812 C 177.382812 50.019531 154.484375 19.632812 121.621094 15.015625 L 76.480469 8.667969 C 43.617188 4.050781 13.230469 26.945312 8.613281 59.8125 Z M 8.613281 59.8125 " clip-rule="nonzero"/></clipPath><clipPath id="02106032e3"><path d="M 16.976562 0.304688 L 181.113281 23.375 L 164.410156 142.207031 L 0.273438 119.136719 Z M 16.976562 0.304688 " clip-rule="nonzero"/></clipPath><clipPath id="7fe59b1212"><path d="M 16.976562 0.304688 L 181.113281 23.375 L 164.410156 142.207031 L 0.273438 119.136719 Z M 16.976562 0.304688 " clip-rule="nonzero"/></clipPath><clipPath id="5e8be0eee2"><path d="M 16.976562 0.304688 L 181.113281 23.375 L 164.410156 142.207031 L 0.273438 119.136719 Z M 16.976562 0.304688 " clip-rule="nonzero"/></clipPath><clipPath id="b3d3118a90"><path d="M 108 96 L 117 96 L 117 108 L 108 108 Z M 108 96 " clip-rule="nonzero"/></clipPath><clipPath id="9779912998"><path d="M 16.976562 0.304688 L 181.855469 23.480469 L 165.050781 143.054688 L 0.167969 119.878906 Z M 16.976562 0.304688 " clip-rule="nonzero"/></clipPath><clipPath id="de2cb57210"><path d="M 8.613281 59.8125 C 3.992188 92.675781 26.890625 123.058594 59.753906 127.679688 L 104.894531 134.023438 C 137.757812 138.644531 168.144531 115.746094 172.761719 82.882812 C 177.382812 50.019531 154.484375 19.632812 121.621094 15.015625 L 76.480469 8.667969 C 43.617188 4.050781 13.230469 26.945312 8.613281 59.8125 Z M 8.613281 59.8125 " clip-rule="nonzero"/></clipPath><clipPath id="ba61277ee4"><path d="M 16.976562 0.304688 L 181.113281 23.375 L 164.410156 142.207031 L 0.273438 119.136719 Z M 16.976562 0.304688 " clip-rule="nonzero"/></clipPath><clipPath id="40c3b77ca9"><path d="M 16.976562 0.304688 L 181.113281 23.375 L 164.410156 142.207031 L 0.273438 119.136719 Z M 16.976562 0.304688 " clip-rule="nonzero"/></clipPath><clipPath id="68376efbf3"><path d="M 16.976562 0.304688 L 181.113281 23.375 L 164.410156 142.207031 L 0.273438 119.136719 Z M 16.976562 0.304688 " clip-rule="nonzero"/></clipPath><clipPath id="c9ccab96d6"><path d="M 121 89 L 128 89 L 128 97 L 121 97 Z M 121 89 " clip-rule="nonzero"/></clipPath><clipPath id="4a11a21877"><path d="M 16.976562 0.304688 L 181.855469 23.480469 L 165.050781 143.054688 L 0.167969 119.878906 Z M 16.976562 0.304688 " clip-rule="nonzero"/></clipPath><clipPath id="1bba6c40b1"><path d="M 8.613281 59.8125 C 3.992188 92.675781 26.890625 123.058594 59.753906 127.679688 L 104.894531 134.023438 C 137.757812 138.644531 168.144531 115.746094 172.761719 82.882812 C 177.382812 50.019531 154.484375 19.632812 121.621094 15.015625 L 76.480469 8.667969 C 43.617188 4.050781 13.230469 26.945312 8.613281 59.8125 Z M 8.613281 59.8125 " clip-rule="nonzero"/></clipPath><clipPath id="0b75c0c0cb"><path d="M 16.976562 0.304688 L 181.113281 23.375 L 164.410156 142.207031 L 0.273438 119.136719 Z M 16.976562 0.304688 " clip-rule="nonzero"/></clipPath><clipPath id="597e39d7fc"><path d="M 16.976562 0.304688 L 181.113281 23.375 L 164.410156 142.207031 L 0.273438 119.136719 Z M 16.976562 0.304688 " clip-rule="nonzero"/></clipPath><clipPath id="2db04ab199"><path d="M 16.976562 0.304688 L 181.113281 23.375 L 164.410156 142.207031 L 0.273438 119.136719 Z M 16.976562 0.304688 " clip-rule="nonzero"/></clipPath><clipPath id="91ef49ce4b"><path d="M 136 100 L 141 100 L 141 106 L 136 106 Z M 136 100 " clip-rule="nonzero"/></clipPath><clipPath id="c38a632a89"><path d="M 16.976562 0.304688 L 181.855469 23.480469 L 165.050781 143.054688 L 0.167969 119.878906 Z M 16.976562 0.304688 " clip-rule="nonzero"/></clipPath><clipPath id="84754db077"><path d="M 8.613281 59.8125 C 3.992188 92.675781 26.890625 123.058594 59.753906 127.679688 L 104.894531 134.023438 C 137.757812 138.644531 168.144531 115.746094 172.761719 82.882812 C 177.382812 50.019531 154.484375 19.632812 121.621094 15.015625 L 76.480469 8.667969 C 43.617188 4.050781 13.230469 26.945312 8.613281 59.8125 Z M 8.613281 59.8125 " clip-rule="nonzero"/></clipPath><clipPath id="0c0ef98741"><path d="M 16.976562 0.304688 L 181.113281 23.375 L 164.410156 142.207031 L 0.273438 119.136719 Z M 16.976562 0.304688 " clip-rule="nonzero"/></clipPath><clipPath id="d98ea44b16"><path d="M 16.976562 0.304688 L 181.113281 23.375 L 164.410156 142.207031 L 0.273438 119.136719 Z M 16.976562 0.304688 " clip-rule="nonzero"/></clipPath><clipPath id="cba8b6c696"><path d="M 16.976562 0.304688 L 181.113281 23.375 L 164.410156 142.207031 L 0.273438 119.136719 Z M 16.976562 0.304688 " clip-rule="nonzero"/></clipPath><clipPath id="2929bac35a"><path d="M 146 99 L 155 99 L 155 107 L 146 107 Z M 146 99 " clip-rule="nonzero"/></clipPath><clipPath id="766c4d92b1"><path d="M 16.976562 0.304688 L 181.855469 23.480469 L 165.050781 143.054688 L 0.167969 119.878906 Z M 16.976562 0.304688 " clip-rule="nonzero"/></clipPath><clipPath id="7ba320b25f"><path d="M 8.613281 59.8125 C 3.992188 92.675781 26.890625 123.058594 59.753906 127.679688 L 104.894531 134.023438 C 137.757812 138.644531 168.144531 115.746094 172.761719 82.882812 C 177.382812 50.019531 154.484375 19.632812 121.621094 15.015625 L 76.480469 8.667969 C 43.617188 4.050781 13.230469 26.945312 8.613281 59.8125 Z M 8.613281 59.8125 " clip-rule="nonzero"/></clipPath><clipPath id="8f20745632"><path d="M 16.976562 0.304688 L 181.113281 23.375 L 164.410156 142.207031 L 0.273438 119.136719 Z M 16.976562 0.304688 " clip-rule="nonzero"/></clipPath><clipPath id="cc08daf7b7"><path d="M 16.976562 0.304688 L 181.113281 23.375 L 164.410156 142.207031 L 0.273438 119.136719 Z M 16.976562 0.304688 " clip-rule="nonzero"/></clipPath><clipPath id="af866a2885"><path d="M 16.976562 0.304688 L 181.113281 23.375 L 164.410156 142.207031 L 0.273438 119.136719 Z M 16.976562 0.304688 " clip-rule="nonzero"/></clipPath><clipPath id="f41b102dfc"><rect x="0" width="183" y="0" height="144"/></clipPath></defs><path fill="#e4fcfc" d="M 192.867188 188.652344 C 160.863281 188.652344 134.914062 162.707031 134.914062 130.699219 C 134.914062 98.6875 160.863281 72.746094 192.867188 72.746094 C 224.875 72.746094 250.824219 98.6875 250.824219 130.699219 C 250.824219 162.707031 224.875 188.652344 192.867188 188.652344 Z M 296.546875 76.527344 C 263.0625 19.28125 189.511719 0.0195312 132.269531 33.5 C 75.027344 66.984375 55.761719 140.535156 89.246094 197.777344 L 192.898438 374.984375 L 296.546875 197.777344 C 317.601562 161.582031 319.195312 115.25 296.546875 76.527344 " fill-opacity="1" fill-rule="nonzero"/><g clip-path="url(#1cad14e314)"><g clip-path="url(#9276ede120)"><path fill="#e4fcfc" d="M 105.25 47.589844 L 282.761719 47.589844 L 282.761719 225.101562 L 105.25 225.101562 Z M 105.25 47.589844 " fill-opacity="1" fill-rule="nonzero"/></g></g><g clip-path="url(#f44ae25ed2)"><g clip-path="url(#310c41d389)"><path stroke-linecap="butt" transform="matrix(0.75, 0, 0, 0.75, 105.249247, 47.591248)" fill="none" stroke-linejoin="miter" d="M 118.334345 -0.00187243 C 52.980174 -0.00187243 0.00100375 52.982506 0.00100375 118.336677 C 0.00100375 183.690848 52.980174 236.670018 118.334345 236.670018 C 183.688516 236.670018 236.672894 183.690848 236.672894 118.336677 C 236.672894 52.982506 183.688516 -0.00187243 118.334345 -0.00187243 Z M 118.334345 -0.00187243 " stroke="#ffde59" stroke-width="10" stroke-opacity="1" stroke-miterlimit="4"/></g></g><g mask="url(#9300d4c194)"><g transform="matrix(1, 0, 0, 1, 105, 65)"><g clip-path="url(#f41b102dfc)"><g clip-path="url(#7c97209941)"><g clip-path="url(#8a11f7e3ef)"><g clip-path="url(#29231c4436)"><g clip-path="url(#c9cda3740e)"><g clip-path="url(#dc01e2d881)"><g clip-path="url(#c0f7f6c98b)"><path fill="#a9b5b4" d="M 147.472656 82.636719 C 146.964844 84.511719 146.203125 86.28125 145.195312 87.945312 C 144.1875 89.609375 142.96875 91.105469 141.542969 92.425781 C 139.796875 94.078125 137.84375 95.433594 135.6875 96.492188 C 133.527344 97.550781 131.261719 98.261719 128.886719 98.632812 C 121.328125 99.757812 113.496094 97.214844 107.5 92.449219 C 107.234375 92.234375 106.933594 92.089844 106.601562 92.007812 C 106.269531 91.929688 105.9375 91.925781 105.605469 91.996094 C 105.269531 92.0625 104.964844 92.203125 104.695312 92.40625 C 104.421875 92.613281 104.207031 92.867188 104.046875 93.167969 C 101.222656 98.648438 95.804688 102.785156 89.71875 103.90625 C 88.296875 104.167969 86.867188 104.269531 85.425781 104.207031 C 79.691406 103.972656 74.046875 101.277344 70.414062 96.824219 C 68.441406 97.503906 66.421875 98.003906 64.359375 98.328125 C 62.300781 98.648438 60.226562 98.785156 58.136719 98.734375 C 56.050781 98.683594 53.984375 98.453125 51.941406 98.035156 C 49.894531 97.617188 47.902344 97.023438 45.964844 96.25 C 43.621094 95.304688 41.332031 94.085938 38.820312 93.75 C 36.757812 93.460938 34.699219 93.804688 32.632812 93.875 C 23.746094 94.195312 10.042969 87.550781 8.363281 77.671875 C 7.582031 73.035156 11.5 68.199219 15.015625 65.429688 C 17.203125 63.699219 23.332031 59.925781 27.757812 61.039062 C 27.792969 61.058594 27.828125 61.082031 27.851562 61.113281 C 24.136719 57.628906 21.042969 49.945312 23.398438 44.023438 C 23.902344 42.757812 24.539062 41.566406 25.304688 40.441406 C 28.082031 36.34375 32.394531 33.273438 36.960938 31.230469 C 43.519531 28.304688 51.167969 27.183594 57.988281 29.261719 C 58.269531 29.351562 58.554688 29.375 58.847656 29.335938 C 59.140625 29.296875 59.410156 29.199219 59.660156 29.042969 C 59.910156 28.882812 60.113281 28.679688 60.269531 28.429688 C 60.429688 28.183594 60.527344 27.914062 60.566406 27.621094 C 61.027344 23.695312 63.242188 19.992188 66.277344 17.390625 C 69.984375 14.195312 74.746094 12.515625 79.546875 11.691406 C 86.550781 10.503906 94.097656 11.144531 100.164062 14.863281 C 105.203125 17.953125 108.9375 23.445312 109.410156 29.230469 C 109.429688 29.429688 109.46875 29.628906 109.53125 29.820312 C 109.589844 30.011719 109.667969 30.195312 109.769531 30.371094 C 109.867188 30.546875 109.984375 30.710938 110.121094 30.863281 C 110.253906 31.011719 110.402344 31.148438 110.566406 31.265625 C 110.730469 31.382812 110.902344 31.484375 111.089844 31.566406 C 111.273438 31.648438 111.464844 31.710938 111.664062 31.75 C 111.859375 31.792969 112.058594 31.8125 112.261719 31.808594 C 112.464844 31.808594 112.664062 31.785156 112.859375 31.742188 C 120.648438 30.019531 129.234375 31.320312 135.160156 36.554688 C 136.976562 38.179688 138.402344 40.09375 139.4375 42.300781 C 142.355469 48.425781 142.054688 56.105469 137.429688 61.007812 C 145.386719 64.433594 149.636719 74.261719 147.472656 82.636719 Z M 147.472656 82.636719 " fill-opacity="1" fill-rule="nonzero"/></g></g></g></g></g></g><g clip-path="url(#7ea7287398)"><g clip-path="url(#241fdbcada)"><g clip-path="url(#95a2040c91)"><g clip-path="url(#7ad8dfd575)"><g clip-path="url(#4018157aa2)"><g clip-path="url(#1a70e30cd7)"><path fill="#95a5a3" d="M 147.472656 82.636719 C 146.964844 84.511719 146.203125 86.28125 145.195312 87.945312 C 144.1875 89.609375 142.96875 91.105469 141.542969 92.425781 C 139.796875 94.078125 137.84375 95.433594 135.6875 96.492188 C 133.527344 97.550781 131.261719 98.261719 128.886719 98.632812 C 121.328125 99.757812 113.496094 97.214844 107.5 92.449219 C 107.234375 92.234375 106.933594 92.089844 106.601562 92.007812 C 106.269531 91.929688 105.9375 91.925781 105.605469 91.996094 C 105.269531 92.0625 104.964844 92.203125 104.695312 92.40625 C 104.421875 92.613281 104.207031 92.867188 104.046875 93.167969 C 101.222656 98.648438 95.804688 102.785156 89.71875 103.90625 C 88.296875 104.167969 86.867188 104.269531 85.425781 104.207031 C 85.035156 103.847656 84.667969 103.46875 84.320312 103.070312 C 81.285156 99.585938 79.972656 94.757812 76.5 91.699219 C 75.511719 90.832031 74.3125 90.054688 73.898438 88.808594 C 73.554688 87.777344 73.851562 86.644531 74.210938 85.617188 C 77.128906 77.496094 84.660156 72.085938 91.78125 67.191406 C 92.332031 66.816406 92.914062 66.425781 93.582031 66.375 C 94.820312 66.285156 95.78125 67.355469 96.800781 68.054688 C 100.921875 70.867188 106.347656 67.792969 111.304688 67.265625 C 114.058594 66.972656 116.835938 67.511719 119.605469 67.429688 C 122.375 67.347656 125.378906 66.4375 126.839844 64.089844 C 129.324219 60.105469 126.167969 54.257812 128.894531 50.433594 C 129.789062 49.160156 131.175781 48.386719 132.484375 47.570312 C 134.960938 46.019531 137.277344 44.261719 139.4375 42.292969 C 142.355469 48.417969 142.054688 56.097656 137.429688 61 C 145.386719 64.433594 149.636719 74.261719 147.472656 82.636719 Z M 147.472656 82.636719 " fill-opacity="1" fill-rule="nonzero"/></g></g></g></g></g></g><g clip-path="url(#2af91fa994)"><g clip-path="url(#9fd2f56fbc)"><g clip-path="url(#9c1a1f77a2)"><g clip-path="url(#e4625fca64)"><g clip-path="url(#ecccc24501)"><g clip-path="url(#747322dcc3)"><g clip-path="url(#4443f256ca)"><path fill="url(#3e9df924ec)" d="M 68.996094 65.523438 L 70.289062 126.074219 L 106.375 125.320312 L 105.082031 64.773438 Z M 68.996094 65.523438 " fill-rule="nonzero"/></g></g></g></g></g></g></g><g clip-path="url(#1fe9f635eb)"><g clip-path="url(#f5f0b2934f)"><g clip-path="url(#82ff92fa2d)"><g clip-path="url(#e45c490163)"><g clip-path="url(#016cc6d3a7)"><g clip-path="url(#c926a697ef)"><path fill="#81918e" d="M 141.542969 92.425781 C 139.796875 94.078125 137.84375 95.433594 135.6875 96.492188 C 133.527344 97.550781 131.261719 98.261719 128.886719 98.632812 C 121.328125 99.757812 113.496094 97.214844 107.5 92.449219 C 107.234375 92.234375 106.933594 92.089844 106.601562 92.007812 C 106.269531 91.929688 105.9375 91.925781 105.605469 91.996094 C 105.269531 92.0625 104.964844 92.203125 104.695312 92.40625 C 104.421875 92.613281 104.207031 92.867188 104.046875 93.167969 C 101.222656 98.648438 95.804688 102.785156 89.71875 103.90625 C 87.9375 104.214844 86.152344 104.285156 84.355469 104.125 C 82.558594 103.960938 80.8125 103.570312 79.117188 102.949219 C 77.425781 102.332031 75.839844 101.5 74.363281 100.464844 C 72.886719 99.429688 71.570312 98.21875 70.410156 96.835938 C 68.4375 97.519531 66.421875 98.019531 64.359375 98.339844 C 62.296875 98.660156 60.222656 98.796875 58.136719 98.75 C 56.050781 98.699219 53.984375 98.464844 51.9375 98.046875 C 49.894531 97.632812 47.902344 97.035156 45.960938 96.265625 C 43.617188 95.316406 41.328125 94.101562 38.820312 93.765625 C 36.757812 93.476562 34.695312 93.820312 32.628906 93.890625 C 23.746094 94.207031 10.042969 87.566406 8.359375 77.683594 C 7.578125 73.050781 11.496094 68.210938 15.011719 65.441406 C 17.203125 63.714844 23.328125 59.941406 27.757812 61.054688 C 27.792969 61.066406 27.824219 61.085938 27.851562 61.113281 C 24.136719 57.628906 21.042969 49.945312 23.398438 44.023438 C 23.902344 42.757812 24.539062 41.566406 25.304688 40.441406 L 38.675781 50.988281 C 40.949219 52.78125 43.273438 54.628906 44.761719 57.09375 C 48.480469 63.285156 44.953125 72.535156 38.050781 74.695312 C 36.699219 75.117188 35.074219 75.445312 34.472656 76.726562 C 33.742188 78.273438 35.226562 80.132812 36.914062 80.449219 C 38.597656 80.765625 40.289062 80.046875 41.851562 79.347656 L 42.84375 78.902344 C 43.875 78.433594 44.953125 78.109375 46.074219 77.925781 C 47.195312 77.746094 48.320312 77.714844 49.449219 77.832031 C 50.578125 77.945312 51.671875 78.210938 52.734375 78.617188 C 53.792969 79.023438 54.78125 79.5625 55.699219 80.234375 C 57.109375 81.269531 58.601562 82.171875 60.179688 82.933594 C 62.046875 83.839844 64.089844 84.550781 66.160156 84.402344 C 71.320312 84.027344 75.714844 78.496094 80.679688 79.957031 C 84.464844 81.078125 86.695312 86.003906 90.640625 85.90625 C 96.074219 85.769531 97.410156 76.546875 102.824219 76.046875 C 105.4375 75.808594 107.644531 77.808594 109.707031 79.445312 C 115.910156 84.394531 123.667969 87.003906 131.441406 88.621094 C 135 89.347656 138.863281 90.011719 141.542969 92.425781 Z M 141.542969 92.425781 " fill-opacity="1" fill-rule="nonzero"/></g></g></g></g></g></g><g clip-path="url(#6d03b34912)"><g clip-path="url(#1a5b5ed061)"><g clip-path="url(#42d60e4c2b)"><g clip-path="url(#8215788fb7)"><g clip-path="url(#b845da1672)"><g clip-path="url(#175282f404)"><path fill="#718989" d="M 170.238281 89.171875 C 168.21875 92.738281 163.855469 94.699219 159.75 94.234375 C 158.820312 94.125 157.917969 93.910156 157.039062 93.589844 C 155.535156 93.019531 154.171875 92.21875 152.945312 91.183594 C 151.714844 90.148438 150.695312 88.941406 149.882812 87.558594 C 148.667969 89.371094 147.027344 90.632812 144.960938 91.339844 C 143.714844 91.777344 142.433594 91.945312 141.113281 91.847656 C 140.261719 91.769531 139.433594 91.582031 138.632812 91.285156 C 137.828125 90.992188 137.078125 90.597656 136.378906 90.105469 C 135.679688 89.613281 135.054688 89.039062 134.507812 88.382812 C 133.957031 87.726562 133.503906 87.007812 133.144531 86.234375 C 131.148438 86.375 129.191406 86.164062 127.273438 85.605469 C 125.355469 85.042969 123.59375 84.164062 121.992188 82.96875 C 121.042969 82.25 120.132812 81.410156 119.023438 80.949219 C 118.117188 80.570312 117.125 80.464844 116.167969 80.246094 C 112.050781 79.320312 106.574219 74.574219 107.027344 69.835938 C 107.238281 67.617188 109.628906 65.878906 111.582031 65.035156 C 112.800781 64.507812 116.785156 63.390625 117.96875 64.585938 C 115.992188 62.324219 116.269531 58.652344 118.066406 56.242188 C 118.371094 55.832031 118.710938 55.453125 119.082031 55.101562 C 120.894531 53.398438 123.378906 52.433594 125.863281 52.035156 C 129.660156 51.421875 133.808594 52.046875 136.800781 54.449219 C 137.207031 52.175781 138.933594 50.277344 141.03125 49.28125 C 143.132812 48.285156 145.511719 48.085938 147.828125 48.304688 C 151.1875 48.617188 154.578125 49.839844 156.898438 52.285156 C 159.214844 54.730469 160.253906 58.535156 158.882812 61.613281 C 160.824219 61.457031 162.71875 61.6875 164.566406 62.308594 C 165.726562 62.675781 166.796875 63.21875 167.773438 63.941406 C 168.753906 64.664062 169.589844 65.527344 170.28125 66.523438 C 172.683594 70.140625 172.011719 75.742188 168.316406 78.019531 C 171.519531 80.558594 172.261719 85.585938 170.238281 89.171875 Z M 170.238281 89.171875 " fill-opacity="1" fill-rule="nonzero"/></g></g></g></g></g></g><g clip-path="url(#ef9ecf85c4)"><g clip-path="url(#1f0990bcc3)"><g clip-path="url(#cfe2d65cc9)"><g clip-path="url(#599ea7aaec)"><g clip-path="url(#1bbbaf7aac)"><g clip-path="url(#b4b14c07c6)"><path fill="#7d9190" d="M 170.238281 89.171875 C 168.21875 92.738281 163.855469 94.699219 159.75 94.234375 C 158.820312 94.125 157.917969 93.910156 157.039062 93.589844 C 155.535156 93.019531 154.171875 92.21875 152.945312 91.183594 C 151.714844 90.148438 150.695312 88.941406 149.882812 87.558594 C 148.667969 89.371094 147.027344 90.632812 144.960938 91.339844 C 143.367188 88.632812 142.367188 85.726562 142.917969 82.695312 L 142.925781 82.636719 C 142.980469 82.359375 143.0625 82.089844 143.175781 81.828125 C 143.285156 81.570312 143.421875 81.324219 143.585938 81.089844 C 143.746094 80.859375 143.929688 80.644531 144.132812 80.449219 C 144.339844 80.253906 144.5625 80.082031 144.804688 79.933594 C 145.042969 79.78125 145.296875 79.660156 145.5625 79.558594 C 145.828125 79.460938 146.101562 79.390625 146.382812 79.351562 C 146.660156 79.308594 146.945312 79.292969 147.226562 79.308594 C 147.511719 79.324219 147.789062 79.367188 148.0625 79.4375 C 148.773438 79.632812 149.496094 79.675781 150.226562 79.5625 C 150.707031 79.476562 151.167969 79.328125 151.613281 79.117188 C 152.054688 78.90625 152.460938 78.640625 152.828125 78.320312 C 153.199219 77.996094 153.519531 77.632812 153.789062 77.222656 C 154.058594 76.816406 154.265625 76.378906 154.417969 75.914062 C 154.496094 75.453125 154.667969 75.035156 154.945312 74.660156 C 155.628906 73.929688 156.816406 74.328125 157.789062 74.5625 C 158.832031 74.808594 159.875 74.804688 160.917969 74.554688 C 161.957031 74.304688 162.886719 73.835938 163.707031 73.144531 C 164.007812 72.917969 164.230469 72.632812 164.378906 72.285156 C 164.621094 71.59375 164.246094 70.867188 163.972656 70.191406 C 163.453125 68.902344 163.242188 67.566406 163.339844 66.183594 C 163.4375 64.800781 163.835938 63.507812 164.53125 62.304688 C 165.6875 62.671875 166.757812 63.21875 167.738281 63.941406 C 168.714844 64.664062 169.550781 65.523438 170.242188 66.523438 C 172.644531 70.140625 171.972656 75.738281 168.277344 78.019531 C 171.519531 80.558594 172.261719 85.585938 170.238281 89.171875 Z M 170.238281 89.171875 " fill-opacity="1" fill-rule="nonzero"/></g></g></g></g></g></g><g clip-path="url(#3e47294301)"><g clip-path="url(#906ac9ee71)"><g clip-path="url(#b69c9ad29a)"><g clip-path="url(#7fba4f2ed3)"><g clip-path="url(#7c97df2144)"><g clip-path="url(#b22090f7e1)"><path fill="#637c7c" d="M 157.050781 93.582031 C 155.546875 93.015625 154.183594 92.214844 152.953125 91.179688 C 151.726562 90.144531 150.707031 88.9375 149.894531 87.550781 C 149.425781 88.269531 148.867188 88.914062 148.222656 89.484375 C 147.582031 90.050781 146.875 90.523438 146.101562 90.902344 C 145.332031 91.28125 144.523438 91.554688 143.679688 91.714844 C 142.835938 91.875 141.988281 91.921875 141.128906 91.855469 C 140.273438 91.789062 139.441406 91.613281 138.632812 91.320312 C 137.824219 91.03125 137.066406 90.640625 136.363281 90.144531 C 135.664062 89.652344 135.035156 89.074219 134.488281 88.414062 C 133.941406 87.75 133.492188 87.03125 133.136719 86.246094 C 131.144531 86.390625 129.1875 86.179688 127.269531 85.617188 C 125.351562 85.054688 123.589844 84.175781 121.988281 82.984375 C 121.039062 82.261719 120.125 81.421875 119.015625 80.960938 C 118.113281 80.582031 117.117188 80.480469 116.160156 80.261719 C 112.042969 79.332031 106.570312 74.585938 107.019531 69.847656 C 107.230469 67.628906 109.625 65.890625 111.574219 65.046875 C 112.792969 64.519531 116.78125 63.402344 117.960938 64.597656 C 115.984375 62.335938 116.261719 58.667969 118.058594 56.257812 C 118.363281 55.84375 118.703125 55.464844 119.078125 55.117188 C 119.214844 58.03125 121.199219 60.898438 124.027344 61.757812 C 123.292969 65.351562 122.734375 69.625 125.316406 72.214844 C 125.867188 72.769531 126.570312 73.269531 126.742188 74.027344 C 126.917969 74.789062 126.539062 75.484375 126.640625 76.210938 C 126.777344 77.257812 127.796875 77.957031 128.75 78.386719 C 130.300781 79.070312 131.929688 79.425781 133.625 79.457031 C 135.324219 79.484375 136.960938 79.1875 138.535156 78.558594 C 139.054688 81.082031 141.566406 82.789062 144.105469 83.191406 C 145.378906 83.375 146.652344 83.367188 147.925781 83.164062 C 148.46875 83.089844 149.011719 83.105469 149.550781 83.210938 C 150.089844 83.316406 150.601562 83.503906 151.078125 83.773438 C 151.558594 84.042969 151.980469 84.382812 152.347656 84.792969 C 152.714844 85.199219 153.007812 85.65625 153.226562 86.160156 C 154.34375 88.714844 155.617188 91.1875 157.050781 93.582031 Z M 157.050781 93.582031 " fill-opacity="1" fill-rule="nonzero"/></g></g></g></g></g></g><g clip-path="url(#1cddb68ce0)"><g clip-path="url(#5eeb5a433a)"><g clip-path="url(#e47e75778f)"><g clip-path="url(#66a85488dc)"><g clip-path="url(#5e1abda98a)"><g clip-path="url(#ab0a77ef8f)"><path fill="#f9ec31" d="M 97.773438 65.5 C 92.726562 72.480469 86.765625 78.570312 79.894531 83.769531 L 92.242188 86.5 C 85.296875 92.480469 75.792969 98.453125 70.273438 105.683594 C 74.664062 107.402344 80.855469 106.601562 85.355469 105.5625 L 73.464844 125.347656 C 83.664062 117.808594 93.363281 109.667969 102.550781 100.929688 L 90.15625 98.136719 L 105.097656 82.574219 L 93.089844 79.835938 C 94.652344 75.058594 96.214844 70.28125 97.773438 65.5 Z M 97.773438 65.5 " fill-opacity="1" fill-rule="nonzero"/></g></g></g></g></g></g><g clip-path="url(#38149ac873)"><g clip-path="url(#73c60ab19f)"><g clip-path="url(#a767381be2)"><g clip-path="url(#60fea9b940)"><g clip-path="url(#8116834f46)"><g clip-path="url(#12b0dc6321)"><path fill="#49cec4" d="M 57.960938 84.835938 C 57.546875 86.683594 51.945312 88.148438 50.777344 89.753906 C 49.476562 91.53125 49.5 94.152344 52.835938 92.785156 C 53.914062 92.339844 54.738281 91.4375 55.417969 90.484375 C 56.640625 88.769531 57.488281 86.886719 57.960938 84.835938 Z M 57.960938 84.835938 " fill-opacity="1" fill-rule="nonzero"/></g></g></g></g></g></g><g clip-path="url(#afda40e065)"><g clip-path="url(#fd80491922)"><g clip-path="url(#4898d687c9)"><g clip-path="url(#a55dcf7136)"><g clip-path="url(#394ac43dd7)"><g clip-path="url(#8d423fd672)"><path fill="#49cec4" d="M 69.328125 93.132812 C 68.792969 94.203125 64.144531 95.46875 62.972656 96.4375 C 60.710938 98.292969 59.886719 99.503906 60.933594 102.195312 C 61.695312 102.742188 62.789062 102.59375 63.574219 102.089844 C 64.363281 101.582031 64.910156 100.785156 65.417969 100 C 66.851562 97.785156 68.15625 95.496094 69.328125 93.132812 Z M 69.328125 93.132812 " fill-opacity="1" fill-rule="nonzero"/></g></g></g></g></g></g><g clip-path="url(#fe015509f9)"><g clip-path="url(#3460600aeb)"><g clip-path="url(#c60dfc0676)"><g clip-path="url(#24e7084329)"><g clip-path="url(#622c578401)"><g clip-path="url(#ebf116e22f)"><path fill="#49cec4" d="M 41.0625 90.804688 C 40.996094 91.046875 34.179688 93.929688 33.277344 94.792969 C 31.417969 96.5625 29.8125 101.535156 34.503906 100.5625 C 36.199219 100.207031 37.394531 98.707031 38.289062 97.222656 C 39.496094 95.207031 40.421875 93.066406 41.0625 90.804688 Z M 41.0625 90.804688 " fill-opacity="1" fill-rule="nonzero"/></g></g></g></g></g></g><g clip-path="url(#f129ac665c)"><g clip-path="url(#6f4939665a)"><g clip-path="url(#d1aab81982)"><g clip-path="url(#c5fef9f87a)"><g clip-path="url(#5ffc06cea9)"><g clip-path="url(#30baf6bfe4)"><path fill="#49cec4" d="M 17.871094 89.738281 C 17.410156 88.917969 3.171875 99.378906 10.96875 98.808594 C 12.109375 98.726562 13.023438 97.855469 13.765625 96.984375 C 15.5625 94.855469 16.929688 92.484375 17.871094 89.863281 C 17.886719 89.820312 17.886719 89.777344 17.871094 89.738281 Z M 17.871094 89.738281 " fill-opacity="1" fill-rule="nonzero"/></g></g></g></g></g></g><g clip-path="url(#a6e2651dcb)"><g clip-path="url(#fa25e2a745)"><g clip-path="url(#767484210f)"><g clip-path="url(#00f994ac20)"><g clip-path="url(#9128360498)"><g clip-path="url(#6a5cf65348)"><path fill="#49cec4" d="M 46.652344 109.0625 C 45.851562 110.554688 40.335938 112.238281 38.757812 113.308594 C 37.003906 114.492188 33.855469 116.320312 33.78125 118.789062 C 33.632812 123.8125 41.183594 119.214844 42.296875 117.148438 C 43.75 114.453125 45.199219 111.757812 46.652344 109.0625 Z M 46.652344 109.0625 " fill-opacity="1" fill-rule="nonzero"/></g></g></g></g></g></g><g clip-path="url(#4d781e83c8)"><g clip-path="url(#8da4737c73)"><g clip-path="url(#3644b733b3)"><g clip-path="url(#02106032e3)"><g clip-path="url(#7fe59b1212)"><g clip-path="url(#5e8be0eee2)"><path fill="#49cec4" d="M 66.546875 110.757812 C 65.617188 112.375 60.199219 113.875 58.542969 115.621094 C 56.273438 118.011719 56.941406 122.007812 61.089844 120.363281 C 62.855469 119.660156 63.941406 117.871094 64.59375 116.089844 C 65.246094 114.3125 65.601562 112.402344 66.546875 110.757812 Z M 66.546875 110.757812 " fill-opacity="1" fill-rule="nonzero"/></g></g></g></g></g></g><g clip-path="url(#b3d3118a90)"><g clip-path="url(#9779912998)"><g clip-path="url(#de2cb57210)"><g clip-path="url(#ba61277ee4)"><g clip-path="url(#40c3b77ca9)"><g clip-path="url(#68376efbf3)"><path fill="#49cec4" d="M 116.359375 96.886719 C 113.8125 98.328125 110.261719 100.605469 108.785156 103.222656 C 107.433594 105.605469 108.515625 108.304688 111.742188 106.304688 C 113.277344 105.363281 113.988281 103.5625 114.472656 101.839844 C 114.957031 100.121094 115.296875 98.296875 116.378906 96.878906 Z M 116.359375 96.886719 " fill-opacity="1" fill-rule="nonzero"/></g></g></g></g></g></g><g clip-path="url(#c9ccab96d6)"><g clip-path="url(#4a11a21877)"><g clip-path="url(#1bba6c40b1)"><g clip-path="url(#0b75c0c0cb)"><g clip-path="url(#597e39d7fc)"><g clip-path="url(#2db04ab199)"><path fill="#49cec4" d="M 127.082031 89.320312 C 125.234375 90.328125 122.652344 91.925781 121.574219 93.753906 C 120.59375 95.421875 121.375 97.308594 123.722656 95.910156 C 124.828125 95.246094 125.359375 93.988281 125.703125 92.785156 C 126.050781 91.582031 126.304688 90.308594 127.09375 89.3125 Z M 127.082031 89.320312 " fill-opacity="1" fill-rule="nonzero"/></g></g></g></g></g></g><g clip-path="url(#91ef49ce4b)"><g clip-path="url(#c38a632a89)"><g clip-path="url(#84754db077)"><g clip-path="url(#0c0ef98741)"><g clip-path="url(#d98ea44b16)"><g clip-path="url(#cba8b6c696)"><path fill="#49cec4" d="M 140.378906 100.6875 C 139.195312 101.324219 137.539062 102.320312 136.835938 103.457031 C 136.207031 104.5 136.710938 105.679688 138.214844 104.804688 C 138.925781 104.390625 139.265625 103.609375 139.488281 102.855469 C 139.707031 102.101562 139.871094 101.304688 140.378906 100.683594 Z M 140.378906 100.6875 " fill-opacity="1" fill-rule="nonzero"/></g></g></g></g></g></g><g clip-path="url(#2929bac35a)"><g clip-path="url(#766c4d92b1)"><g clip-path="url(#7ba320b25f)"><g clip-path="url(#8f20745632)"><g clip-path="url(#cc08daf7b7)"><g clip-path="url(#af866a2885)"><path fill="#49cec4" d="M 154.363281 99.3125 C 152.015625 100.410156 148.738281 102.144531 147.378906 104.125 C 146.125 105.929688 147.113281 107.96875 150.09375 106.445312 C 151.496094 105.730469 152.171875 104.363281 152.621094 103.0625 C 153.066406 101.761719 153.390625 100.371094 154.386719 99.304688 Z M 154.363281 99.3125 " fill-opacity="1" fill-rule="nonzero"/></g></g></g></g></g></g></g></g></g></svg>