<svg xmlns="http://www.w3.org/2000/svg" xmlns:xlink="http://www.w3.org/1999/xlink" width="500" zoomAndPan="magnify" viewBox="0 0 375 374.999991" height="500" preserveAspectRatio="xMidYMid meet" version="1.0"><defs><clipPath id="c1b77cabc0"><path d="M 72 17 L 313 17 L 313 374.675781 L 72 374.675781 Z M 72 17 " clip-rule="nonzero"/></clipPath><clipPath id="8a339b37d9"><path d="M 105.25 47.589844 L 282.761719 47.589844 L 282.761719 225.101562 L 105.25 225.101562 Z M 105.25 47.589844 " clip-rule="nonzero"/></clipPath><clipPath id="68954f5790"><path d="M 194.003906 47.589844 C 144.988281 47.589844 105.25 87.328125 105.25 136.347656 C 105.25 185.363281 144.988281 225.101562 194.003906 225.101562 C 243.023438 225.101562 282.761719 185.363281 282.761719 136.347656 C 282.761719 87.328125 243.023438 47.589844 194.003906 47.589844 Z M 194.003906 47.589844 " clip-rule="nonzero"/></clipPath><clipPath id="51911ed3f9"><path d="M 105.25 47.589844 L 282.75 47.589844 L 282.75 225.089844 L 105.25 225.089844 Z M 105.25 47.589844 " clip-rule="nonzero"/></clipPath><clipPath id="8e8ede17ef"><path d="M 194 47.589844 C 144.984375 47.589844 105.25 87.324219 105.25 136.339844 C 105.25 185.355469 144.984375 225.089844 194 225.089844 C 243.015625 225.089844 282.75 185.355469 282.75 136.339844 C 282.75 87.324219 243.015625 47.589844 194 47.589844 Z M 194 47.589844 " clip-rule="nonzero"/></clipPath><clipPath id="3033cd0943"><path d="M 206 95 L 228 95 L 228 114 L 206 114 Z M 206 95 " clip-rule="nonzero"/></clipPath><clipPath id="571bfebcae"><path d="M 123.421875 83.9375 L 123.421875 188.757812 C 123.421875 205.738281 137.1875 219.507812 154.171875 219.507812 L 232.171875 219.507812 C 249.152344 219.507812 262.921875 205.738281 262.921875 188.757812 L 262.921875 83.9375 C 262.921875 66.953125 249.152344 53.1875 232.171875 53.1875 L 154.171875 53.1875 C 137.1875 53.1875 123.421875 66.953125 123.421875 83.9375 Z M 123.421875 83.9375 " clip-rule="nonzero"/></clipPath><clipPath id="a974e511fe"><path d="M 175 53.1875 L 239 53.1875 L 239 101 L 175 101 Z M 175 53.1875 " clip-rule="nonzero"/></clipPath><clipPath id="de70a7d2fc"><path d="M 123.421875 83.9375 L 123.421875 188.757812 C 123.421875 205.738281 137.1875 219.507812 154.171875 219.507812 L 232.171875 219.507812 C 249.152344 219.507812 262.921875 205.738281 262.921875 188.757812 L 262.921875 83.9375 C 262.921875 66.953125 249.152344 53.1875 232.171875 53.1875 L 154.171875 53.1875 C 137.1875 53.1875 123.421875 66.953125 123.421875 83.9375 Z M 123.421875 83.9375 " clip-rule="nonzero"/></clipPath><clipPath id="f0f232d3e5"><path d="M 183 95 L 209 95 L 209 134 L 183 134 Z M 183 95 " clip-rule="nonzero"/></clipPath><clipPath id="a0acc7f3c7"><path d="M 123.421875 83.9375 L 123.421875 188.757812 C 123.421875 205.738281 137.1875 219.507812 154.171875 219.507812 L 232.171875 219.507812 C 249.152344 219.507812 262.921875 205.738281 262.921875 188.757812 L 262.921875 83.9375 C 262.921875 66.953125 249.152344 53.1875 232.171875 53.1875 L 154.171875 53.1875 C 137.1875 53.1875 123.421875 66.953125 123.421875 83.9375 Z M 123.421875 83.9375 " clip-rule="nonzero"/></clipPath><clipPath id="3716f86a32"><path d="M 185 95 L 209 95 L 209 119 L 185 119 Z M 185 95 " clip-rule="nonzero"/></clipPath><clipPath id="18729295cc"><path d="M 123.421875 83.9375 L 123.421875 188.757812 C 123.421875 205.738281 137.1875 219.507812 154.171875 219.507812 L 232.171875 219.507812 C 249.152344 219.507812 262.921875 205.738281 262.921875 188.757812 L 262.921875 83.9375 C 262.921875 66.953125 249.152344 53.1875 232.171875 53.1875 L 154.171875 53.1875 C 137.1875 53.1875 123.421875 66.953125 123.421875 83.9375 Z M 123.421875 83.9375 " clip-rule="nonzero"/></clipPath><clipPath id="7198bfb28d"><path d="M 191 102 L 208 102 L 208 140 L 191 140 Z M 191 102 " clip-rule="nonzero"/></clipPath><clipPath id="949145aa2e"><path d="M 123.421875 83.9375 L 123.421875 188.757812 C 123.421875 205.738281 137.1875 219.507812 154.171875 219.507812 L 232.171875 219.507812 C 249.152344 219.507812 262.921875 205.738281 262.921875 188.757812 L 262.921875 83.9375 C 262.921875 66.953125 249.152344 53.1875 232.171875 53.1875 L 154.171875 53.1875 C 137.1875 53.1875 123.421875 66.953125 123.421875 83.9375 Z M 123.421875 83.9375 " clip-rule="nonzero"/></clipPath><clipPath id="6d267c8c71"><path d="M 155 60 L 229 60 L 229 116 L 155 116 Z M 155 60 " clip-rule="nonzero"/></clipPath><clipPath id="dad88d8f08"><path d="M 123.421875 83.9375 L 123.421875 188.757812 C 123.421875 205.738281 137.1875 219.507812 154.171875 219.507812 L 232.171875 219.507812 C 249.152344 219.507812 262.921875 205.738281 262.921875 188.757812 L 262.921875 83.9375 C 262.921875 66.953125 249.152344 53.1875 232.171875 53.1875 L 154.171875 53.1875 C 137.1875 53.1875 123.421875 66.953125 123.421875 83.9375 Z M 123.421875 83.9375 " clip-rule="nonzero"/></clipPath><clipPath id="3235428b9c"><path d="M 173 72 L 216 72 L 216 113 L 173 113 Z M 173 72 " clip-rule="nonzero"/></clipPath><clipPath id="296e3f8698"><path d="M 123.421875 83.9375 L 123.421875 188.757812 C 123.421875 205.738281 137.1875 219.507812 154.171875 219.507812 L 232.171875 219.507812 C 249.152344 219.507812 262.921875 205.738281 262.921875 188.757812 L 262.921875 83.9375 C 262.921875 66.953125 249.152344 53.1875 232.171875 53.1875 L 154.171875 53.1875 C 137.1875 53.1875 123.421875 66.953125 123.421875 83.9375 Z M 123.421875 83.9375 " clip-rule="nonzero"/></clipPath><clipPath id="628be37803"><path d="M 159 68 L 208 68 L 208 101 L 159 101 Z M 159 68 " clip-rule="nonzero"/></clipPath><clipPath id="3ee63900d0"><path d="M 123.421875 83.9375 L 123.421875 188.757812 C 123.421875 205.738281 137.1875 219.507812 154.171875 219.507812 L 232.171875 219.507812 C 249.152344 219.507812 262.921875 205.738281 262.921875 188.757812 L 262.921875 83.9375 C 262.921875 66.953125 249.152344 53.1875 232.171875 53.1875 L 154.171875 53.1875 C 137.1875 53.1875 123.421875 66.953125 123.421875 83.9375 Z M 123.421875 83.9375 " clip-rule="nonzero"/></clipPath><clipPath id="efcf360450"><path d="M 125 130 L 263 130 L 263 220 L 125 220 Z M 125 130 " clip-rule="nonzero"/></clipPath><clipPath id="9d4d610f37"><path d="M 123.421875 83.9375 L 123.421875 188.757812 C 123.421875 205.738281 137.1875 219.507812 154.171875 219.507812 L 232.171875 219.507812 C 249.152344 219.507812 262.921875 205.738281 262.921875 188.757812 L 262.921875 83.9375 C 262.921875 66.953125 249.152344 53.1875 232.171875 53.1875 L 154.171875 53.1875 C 137.1875 53.1875 123.421875 66.953125 123.421875 83.9375 Z M 123.421875 83.9375 " clip-rule="nonzero"/></clipPath><clipPath id="e079846b10"><path d="M 129 156 L 263 156 L 263 220 L 129 220 Z M 129 156 " clip-rule="nonzero"/></clipPath><clipPath id="60bd80ce30"><path d="M 123.421875 83.9375 L 123.421875 188.757812 C 123.421875 205.738281 137.1875 219.507812 154.171875 219.507812 L 232.171875 219.507812 C 249.152344 219.507812 262.921875 205.738281 262.921875 188.757812 L 262.921875 83.9375 C 262.921875 66.953125 249.152344 53.1875 232.171875 53.1875 L 154.171875 53.1875 C 137.1875 53.1875 123.421875 66.953125 123.421875 83.9375 Z M 123.421875 83.9375 " clip-rule="nonzero"/></clipPath><clipPath id="c98bbdbb4e"><path d="M 153 123 L 232 123 L 232 177 L 153 177 Z M 153 123 " clip-rule="nonzero"/></clipPath><clipPath id="d0c97a1ebe"><path d="M 123.421875 83.9375 L 123.421875 188.757812 C 123.421875 205.738281 137.1875 219.507812 154.171875 219.507812 L 232.171875 219.507812 C 249.152344 219.507812 262.921875 205.738281 262.921875 188.757812 L 262.921875 83.9375 C 262.921875 66.953125 249.152344 53.1875 232.171875 53.1875 L 154.171875 53.1875 C 137.1875 53.1875 123.421875 66.953125 123.421875 83.9375 Z M 123.421875 83.9375 " clip-rule="nonzero"/></clipPath><clipPath id="936f75aff4"><path d="M 165 135 L 219 135 L 219 162 L 165 162 Z M 165 135 " clip-rule="nonzero"/></clipPath><clipPath id="fb3b5a76ea"><path d="M 123.421875 83.9375 L 123.421875 188.757812 C 123.421875 205.738281 137.1875 219.507812 154.171875 219.507812 L 232.171875 219.507812 C 249.152344 219.507812 262.921875 205.738281 262.921875 188.757812 L 262.921875 83.9375 C 262.921875 66.953125 249.152344 53.1875 232.171875 53.1875 L 154.171875 53.1875 C 137.1875 53.1875 123.421875 66.953125 123.421875 83.9375 Z M 123.421875 83.9375 " clip-rule="nonzero"/></clipPath><clipPath id="3085e31f43"><path d="M 155 123 L 226 123 L 226 174 L 155 174 Z M 155 123 " clip-rule="nonzero"/></clipPath><clipPath id="0e1b8ea1f3"><path d="M 123.421875 83.9375 L 123.421875 188.757812 C 123.421875 205.738281 137.1875 219.507812 154.171875 219.507812 L 232.171875 219.507812 C 249.152344 219.507812 262.921875 205.738281 262.921875 188.757812 L 262.921875 83.9375 C 262.921875 66.953125 249.152344 53.1875 232.171875 53.1875 L 154.171875 53.1875 C 137.1875 53.1875 123.421875 66.953125 123.421875 83.9375 Z M 123.421875 83.9375 " clip-rule="nonzero"/></clipPath><clipPath id="c6f376a9fd"><path d="M 181 126 L 221 126 L 221 146 L 181 146 Z M 181 126 " clip-rule="nonzero"/></clipPath><clipPath id="c0b5612243"><path d="M 123.421875 83.9375 L 123.421875 188.757812 C 123.421875 205.738281 137.1875 219.507812 154.171875 219.507812 L 232.171875 219.507812 C 249.152344 219.507812 262.921875 205.738281 262.921875 188.757812 L 262.921875 83.9375 C 262.921875 66.953125 249.152344 53.1875 232.171875 53.1875 L 154.171875 53.1875 C 137.1875 53.1875 123.421875 66.953125 123.421875 83.9375 Z M 123.421875 83.9375 " clip-rule="nonzero"/></clipPath><clipPath id="f9d0d95833"><path d="M 188 127 L 219 127 L 219 142 L 188 142 Z M 188 127 " clip-rule="nonzero"/></clipPath><clipPath id="29105ca8e4"><path d="M 123.421875 83.9375 L 123.421875 188.757812 C 123.421875 205.738281 137.1875 219.507812 154.171875 219.507812 L 232.171875 219.507812 C 249.152344 219.507812 262.921875 205.738281 262.921875 188.757812 L 262.921875 83.9375 C 262.921875 66.953125 249.152344 53.1875 232.171875 53.1875 L 154.171875 53.1875 C 137.1875 53.1875 123.421875 66.953125 123.421875 83.9375 Z M 123.421875 83.9375 " clip-rule="nonzero"/></clipPath><clipPath id="16c0cd5439"><path d="M 125 168 L 263 168 L 263 220 L 125 220 Z M 125 168 " clip-rule="nonzero"/></clipPath><clipPath id="56378bbc5a"><path d="M 123.421875 83.9375 L 123.421875 188.757812 C 123.421875 205.738281 137.1875 219.507812 154.171875 219.507812 L 232.171875 219.507812 C 249.152344 219.507812 262.921875 205.738281 262.921875 188.757812 L 262.921875 83.9375 C 262.921875 66.953125 249.152344 53.1875 232.171875 53.1875 L 154.171875 53.1875 C 137.1875 53.1875 123.421875 66.953125 123.421875 83.9375 Z M 123.421875 83.9375 " clip-rule="nonzero"/></clipPath></defs><g clip-path="url(#c1b77cabc0)"><path fill="#e4fcfc" d="M 192.859375 188.648438 C 160.855469 188.648438 134.910156 162.707031 134.910156 130.699219 C 134.910156 98.695312 160.855469 72.75 192.859375 72.75 C 224.863281 72.75 250.808594 98.695312 250.808594 130.699219 C 250.808594 162.707031 224.863281 188.648438 192.859375 188.648438 Z M 296.53125 76.53125 C 263.046875 19.292969 189.503906 0.0273438 132.265625 33.507812 C 75.023438 66.992188 55.761719 140.535156 89.242188 197.773438 L 192.886719 374.96875 L 296.53125 197.773438 C 317.582031 161.582031 319.179688 115.253906 296.53125 76.53125 " fill-opacity="1" fill-rule="nonzero"/></g><g clip-path="url(#8a339b37d9)"><g clip-path="url(#68954f5790)"><path fill="#e4fcfc" d="M 105.25 47.589844 L 282.761719 47.589844 L 282.761719 225.101562 L 105.25 225.101562 Z M 105.25 47.589844 " fill-opacity="1" fill-rule="nonzero"/></g></g><g clip-path="url(#51911ed3f9)"><g clip-path="url(#8e8ede17ef)"><path stroke-linecap="butt" transform="matrix(1.574271, 0, 0, 1.574271, 105.249247, 47.591188)" fill="none" stroke-linejoin="miter" d="M 56.375785 -0.000853935 C 25.240338 -0.000853935 0.000478197 25.239006 0.000478197 56.374453 C 0.000478197 87.5099 25.240338 112.74976 56.375785 112.74976 C 87.511232 112.74976 112.751093 87.5099 112.751093 56.374453 C 112.751093 25.239006 87.511232 -0.000853935 56.375785 -0.000853935 Z M 56.375785 -0.000853935 " stroke="#ffa500" stroke-width="4.76411" stroke-opacity="1" stroke-miterlimit="4"/></g></g><g clip-path="url(#3033cd0943)"><g clip-path="url(#571bfebcae)"><path fill="#5b341c" d="M 207.347656 100.835938 C 205.457031 103.179688 208.335938 110.484375 208.894531 110.964844 C 210.554688 112.410156 212.773438 113.519531 215.027344 113.125 C 216.972656 112.785156 218.707031 111.242188 219.472656 109.449219 C 219.652344 109.027344 219.691406 107.515625 220 107.261719 C 220.242188 107.066406 220.910156 107.3125 221.164062 107.367188 C 222.113281 107.578125 223.136719 107.773438 224.101562 107.585938 C 227.40625 106.9375 228.644531 102.15625 227.316406 99.519531 C 227.003906 98.90625 226.613281 98.347656 226.183594 97.8125 C 223.488281 94.433594 220.238281 95.988281 216.578125 96.695312 C 214.949219 97.007812 213.210938 96.792969 211.625 97.304688 C 209.90625 97.863281 208.449219 99.464844 207.347656 100.835938 Z M 207.347656 100.835938 " fill-opacity="1" fill-rule="evenodd"/><path fill="#ffffff" d="M 207.347656 100.835938 C 205.457031 103.179688 208.335938 110.484375 208.894531 110.964844 C 210.554688 112.410156 212.773438 113.519531 215.027344 113.125 C 216.972656 112.785156 218.707031 111.242188 219.472656 109.449219 C 219.652344 109.027344 219.691406 107.515625 220 107.261719 C 220.242188 107.066406 220.910156 107.3125 221.164062 107.367188 C 222.113281 107.578125 223.136719 107.773438 224.101562 107.585938 C 227.40625 106.9375 228.644531 102.15625 227.316406 99.519531 C 227.003906 98.90625 226.613281 98.347656 226.183594 97.8125 C 223.488281 94.433594 220.238281 95.988281 216.578125 96.695312 C 214.949219 97.007812 213.210938 96.792969 211.625 97.304688 C 209.90625 97.863281 208.449219 99.464844 207.347656 100.835938 Z M 207.347656 100.835938 " fill-opacity="0.5" fill-rule="evenodd"/></g></g><g clip-path="url(#a974e511fe)"><g clip-path="url(#de70a7d2fc)"><path fill="#5b341c" d="M 176.046875 71.027344 C 175.222656 68.746094 176.65625 65.785156 178.929688 64.742188 C 179.5625 64.453125 181.378906 64.515625 181.785156 64.011719 C 182.097656 63.628906 181.621094 62.617188 181.578125 62.195312 C 181.46875 61.203125 181.664062 60.171875 182.175781 59.308594 C 182.808594 58.242188 184.054688 57.484375 185.304688 57.496094 C 185.683594 57.5 186.609375 57.894531 186.9375 57.695312 C 187.507812 57.34375 187.863281 56.132812 188.277344 55.605469 C 189.59375 53.90625 192.148438 53.265625 194.066406 54.335938 C 195.195312 54.96875 195.839844 55.9375 196.238281 57.132812 C 196.3125 57.355469 196.523438 58.851562 196.703125 58.957031 C 196.855469 59.046875 197.785156 58.574219 197.980469 58.535156 C 199.351562 58.296875 200.558594 58.730469 201.230469 59.988281 C 202.632812 62.597656 201.234375 65.148438 201.351562 67.839844 C 201.433594 69.636719 202.804688 70.316406 203.484375 71.78125 C 204.171875 73.261719 203.847656 75.554688 203.449219 77.0625 C 202.433594 80.867188 199.609375 84.636719 195.976562 86.242188 C 190.300781 88.75 182.90625 86.542969 178.976562 81.945312 C 177.503906 80.21875 176.046875 71.027344 176.046875 71.027344 Z M 222.179688 99.835938 C 222.179688 99.835938 215.828125 97.039062 215.003906 95.589844 C 213.988281 93.804688 213.542969 91.40625 213.75 89.371094 C 214.0625 86.289062 216.183594 84.609375 217.527344 82.042969 C 219.636719 78.007812 219.472656 71.113281 225.578125 70.921875 C 226.441406 70.894531 227.328125 71.023438 228.113281 71.394531 C 229.527344 72.058594 230.648438 73.570312 231.238281 74.988281 C 231.472656 75.550781 231.496094 76.480469 231.871094 76.957031 C 232.164062 77.332031 233.945312 77.480469 234.4375 77.707031 C 236.671875 78.71875 238.546875 80.867188 238.820312 83.375 C 238.984375 84.855469 238.613281 86.320312 237.722656 87.507812 C 237.628906 87.632812 236.183594 88.964844 236.195312 88.992188 C 236.269531 89.230469 237.261719 89.71875 237.464844 89.9375 C 238.523438 91.070312 238.679688 92.816406 237.957031 94.164062 C 236.46875 96.941406 233.746094 96.074219 231.386719 97.25 C 229.878906 98.003906 229.203125 99.398438 227.398438 99.757812 C 226.296875 99.976562 225.125 100.09375 224 100.078125 C 223.589844 100.070312 223.1875 100.027344 222.78125 99.957031 C 222.582031 99.917969 222.066406 99.664062 222.179688 99.835938 Z M 222.179688 99.835938 " fill-opacity="1" fill-rule="evenodd"/><path fill="#ffffff" d="M 176.046875 71.027344 C 175.222656 68.746094 176.65625 65.785156 178.929688 64.742188 C 179.5625 64.453125 181.378906 64.515625 181.785156 64.011719 C 182.097656 63.628906 181.621094 62.617188 181.578125 62.195312 C 181.46875 61.203125 181.664062 60.171875 182.175781 59.308594 C 182.808594 58.242188 184.054688 57.484375 185.304688 57.496094 C 185.683594 57.5 186.609375 57.894531 186.9375 57.695312 C 187.507812 57.34375 187.863281 56.132812 188.277344 55.605469 C 189.59375 53.90625 192.148438 53.265625 194.066406 54.335938 C 195.195312 54.96875 195.839844 55.9375 196.238281 57.132812 C 196.3125 57.355469 196.523438 58.851562 196.703125 58.957031 C 196.855469 59.046875 197.785156 58.574219 197.980469 58.535156 C 199.351562 58.296875 200.558594 58.730469 201.230469 59.988281 C 202.632812 62.597656 201.234375 65.148438 201.351562 67.839844 C 201.433594 69.636719 202.804688 70.316406 203.484375 71.78125 C 204.171875 73.261719 203.847656 75.554688 203.449219 77.0625 C 202.433594 80.867188 199.609375 84.636719 195.976562 86.242188 C 190.300781 88.75 182.90625 86.542969 178.976562 81.945312 C 177.503906 80.21875 176.046875 71.027344 176.046875 71.027344 Z M 222.179688 99.835938 C 222.179688 99.835938 215.828125 97.039062 215.003906 95.589844 C 213.988281 93.804688 213.542969 91.40625 213.75 89.371094 C 214.0625 86.289062 216.183594 84.609375 217.527344 82.042969 C 219.636719 78.007812 219.472656 71.113281 225.578125 70.921875 C 226.441406 70.894531 227.328125 71.023438 228.113281 71.394531 C 229.527344 72.058594 230.648438 73.570312 231.238281 74.988281 C 231.472656 75.550781 231.496094 76.480469 231.871094 76.957031 C 232.164062 77.332031 233.945312 77.480469 234.4375 77.707031 C 236.671875 78.71875 238.546875 80.867188 238.820312 83.375 C 238.984375 84.855469 238.613281 86.320312 237.722656 87.507812 C 237.628906 87.632812 236.183594 88.964844 236.195312 88.992188 C 236.269531 89.230469 237.261719 89.71875 237.464844 89.9375 C 238.523438 91.070312 238.679688 92.816406 237.957031 94.164062 C 236.46875 96.941406 233.746094 96.074219 231.386719 97.25 C 229.878906 98.003906 229.203125 99.398438 227.398438 99.757812 C 226.296875 99.976562 225.125 100.09375 224 100.078125 C 223.589844 100.070312 223.1875 100.027344 222.78125 99.957031 C 222.582031 99.917969 222.066406 99.664062 222.179688 99.835938 Z M 222.179688 99.835938 " fill-opacity="0.404" fill-rule="evenodd"/></g></g><g clip-path="url(#f0f232d3e5)"><g clip-path="url(#a0acc7f3c7)"><path fill="#f65525" d="M 190.96875 128.109375 C 190.859375 128.320312 190.792969 127.265625 190.792969 127.25 C 190.78125 126.691406 190.800781 126.136719 190.796875 125.585938 C 190.789062 123.914062 190.738281 122.011719 190.140625 120.421875 C 189.597656 118.992188 188.554688 117.886719 187.835938 116.554688 C 187.308594 115.574219 187.082031 114.519531 186.371094 113.625 C 185.148438 112.070312 183.445312 110.964844 183.722656 108.71875 C 184.15625 105.175781 187.34375 102.828125 190.574219 101.933594 C 192.125 101.503906 193.746094 101.539062 195.300781 101.144531 C 197.09375 100.6875 198.714844 99.886719 200.351562 99.042969 C 202.054688 98.164062 203.8125 97.40625 205.5 96.5 C 205.832031 96.320312 206.804688 95.617188 207.214844 95.84375 C 207.660156 96.085938 207.542969 98.125 207.582031 98.554688 C 207.832031 101.25 208.683594 103.878906 208.742188 106.589844 C 208.777344 108.441406 208.648438 110.320312 207.878906 112.03125 C 206.800781 114.410156 204.90625 116.285156 203.953125 118.746094 C 202.703125 121.992188 202.609375 125.621094 201.480469 128.921875 C 201.070312 130.132812 200.429688 131.90625 199.261719 132.609375 C 198.054688 133.332031 196.378906 133.257812 195.054688 133.035156 C 193.984375 132.855469 192.902344 132.59375 191.894531 132.199219 C 191.101562 131.894531 190.96875 128.109375 190.96875 128.109375 Z M 190.96875 128.109375 " fill-opacity="1" fill-rule="evenodd"/><path fill="#5b341c" d="M 190.96875 128.109375 C 190.859375 128.320312 190.792969 127.265625 190.792969 127.25 C 190.78125 126.691406 190.800781 126.136719 190.796875 125.585938 C 190.789062 123.914062 190.738281 122.011719 190.140625 120.421875 C 189.597656 118.992188 188.554688 117.886719 187.835938 116.554688 C 187.308594 115.574219 187.082031 114.519531 186.371094 113.625 C 185.148438 112.070312 183.445312 110.964844 183.722656 108.71875 C 184.15625 105.175781 187.34375 102.828125 190.574219 101.933594 C 192.125 101.503906 193.746094 101.539062 195.300781 101.144531 C 197.09375 100.6875 198.714844 99.886719 200.351562 99.042969 C 202.054688 98.164062 203.8125 97.40625 205.5 96.5 C 205.832031 96.320312 206.804688 95.617188 207.214844 95.84375 C 207.660156 96.085938 207.542969 98.125 207.582031 98.554688 C 207.832031 101.25 208.683594 103.878906 208.742188 106.589844 C 208.777344 108.441406 208.648438 110.320312 207.878906 112.03125 C 206.800781 114.410156 204.90625 116.285156 203.953125 118.746094 C 202.703125 121.992188 202.609375 125.621094 201.480469 128.921875 C 201.070312 130.132812 200.429688 131.90625 199.261719 132.609375 C 198.054688 133.332031 196.378906 133.257812 195.054688 133.035156 C 193.984375 132.855469 192.902344 132.59375 191.894531 132.199219 C 191.101562 131.894531 190.96875 128.109375 190.96875 128.109375 Z M 190.96875 128.109375 " fill-opacity="0.201" fill-rule="evenodd"/></g></g><g clip-path="url(#3716f86a32)"><g clip-path="url(#18729295cc)"><path fill="#5b341c" d="M 206.597656 95.894531 C 206.828125 95.886719 207.054688 95.886719 207.277344 95.890625 C 207.648438 96.292969 207.539062 98.144531 207.578125 98.550781 C 207.828125 101.246094 208.679688 103.878906 208.738281 106.585938 C 208.773438 108.4375 208.644531 110.316406 207.875 112.027344 C 206.867188 114.261719 205.132812 116.050781 204.140625 118.289062 C 203.449219 116.78125 202.851562 115.300781 202.765625 113.566406 C 202.738281 112.960938 202.828125 111.695312 202.101562 111.417969 C 201.222656 111.085938 200.128906 112.519531 199.660156 113.054688 C 198.210938 114.691406 196.773438 117.921875 194.496094 118.492188 C 193.550781 118.730469 192.9375 117.945312 192.417969 117.285156 C 191.617188 116.265625 190.859375 115.042969 189.519531 114.703125 C 188.679688 114.488281 187.867188 114.644531 187.164062 115.039062 C 186.953125 114.546875 186.722656 114.066406 186.375 113.625 C 186 113.144531 185.574219 112.707031 185.175781 112.265625 C 185.199219 109.582031 185.375 106.402344 185.984375 104.441406 C 186.25 103.59375 186.597656 102.96875 187.050781 102.714844 C 192.554688 99.636719 198.742188 96.84375 205.046875 96.023438 C 205.550781 95.960938 206.078125 95.910156 206.597656 95.894531 Z M 185.269531 117.039062 C 185.273438 117.117188 185.277344 117.15625 185.277344 117.15625 C 185.261719 117.125 185.261719 117.085938 185.269531 117.039062 Z M 185.269531 117.039062 " fill-opacity="0.353" fill-rule="evenodd"/></g></g><g clip-path="url(#7198bfb28d)"><g clip-path="url(#949145aa2e)"><path fill="#ffffff" d="M 193.277344 131.394531 C 193.417969 131.410156 193.261719 131.109375 193.269531 130.96875 C 193.292969 130.632812 193.316406 130.292969 193.328125 129.957031 C 193.363281 128.964844 193.363281 127.96875 193.351562 126.976562 C 193.308594 122.871094 192.902344 118.847656 192.285156 114.789062 C 192.136719 113.824219 191.941406 112.851562 191.921875 111.871094 C 191.917969 111.710938 191.855469 111.0625 192.0625 110.964844 C 192.277344 110.859375 192.597656 111.832031 192.636719 111.929688 C 193.058594 113.050781 193.386719 114.210938 193.691406 115.371094 C 194.582031 118.757812 195.050781 122.210938 195.28125 125.699219 C 195.371094 127.050781 195.414062 128.402344 195.453125 129.753906 C 195.453125 129.859375 195.417969 130.949219 195.605469 130.957031 C 195.972656 130.96875 196.277344 128.226562 196.308594 128 C 196.816406 124.828125 197.378906 121.660156 197.960938 118.503906 C 198.144531 117.515625 198.324219 116.515625 198.589844 115.546875 C 198.609375 115.476562 198.738281 114.851562 198.898438 114.890625 C 199.335938 115.003906 198.972656 117.632812 198.949219 117.917969 C 198.707031 121.078125 198.515625 124.246094 198.25 127.40625 C 198.171875 128.351562 198.046875 129.296875 198.003906 130.246094 C 198 130.355469 197.921875 130.960938 198.121094 130.992188 C 198.4375 131.042969 198.664062 129.578125 198.703125 129.414062 C 199.191406 127.34375 199.695312 125.277344 200.191406 123.207031 C 201.375 118.246094 202.753906 113.613281 204.976562 109.003906 C 205.65625 107.605469 206.304688 106.226562 206.742188 104.726562 C 206.902344 104.179688 207.039062 103.628906 207.167969 103.074219 C 207.226562 102.820312 207.21875 102.089844 207.359375 102.3125 C 207.640625 102.753906 207.113281 104.296875 207.027344 104.742188 C 206.566406 107.089844 205.832031 109.410156 204.976562 111.644531 C 204.25 113.546875 203.109375 115.300781 202.5 117.242188 C 201.5625 120.203125 201.363281 123.417969 200.894531 126.472656 C 200.246094 130.628906 199.359375 134.746094 198.859375 138.925781 C 198.632812 140.789062 193.277344 131.394531 193.277344 131.394531 Z M 193.277344 131.394531 " fill-opacity="0.404" fill-rule="evenodd"/></g></g><g clip-path="url(#6d267c8c71)"><g clip-path="url(#dad88d8f08)"><path fill="#5b341c" d="M 184.074219 112.578125 C 184.011719 112.636719 183.949219 112.695312 183.886719 112.753906 C 180.617188 115.683594 175.703125 116.601562 171.9375 114.125 C 171.148438 113.609375 170.449219 112.992188 169.867188 112.253906 C 169.503906 111.792969 169.222656 111.050781 168.660156 110.796875 C 167.851562 110.441406 166.671875 111.0625 165.851562 111.144531 C 164.394531 111.292969 162.742188 110.960938 161.410156 110.382812 C 159.191406 109.414062 158.03125 107.46875 158.082031 105.082031 C 158.09375 104.453125 158.695312 103.042969 158.425781 102.496094 C 158.214844 102.0625 157.488281 101.863281 157.125 101.574219 C 156.222656 100.863281 155.667969 100.015625 155.546875 98.859375 C 155.339844 96.90625 156.054688 94.503906 158.203125 94.003906 C 158.46875 93.941406 160.304688 94.214844 160.363281 94.140625 C 160.46875 94.011719 160.082031 93.140625 160.050781 92.980469 C 159.890625 92.0625 159.953125 91.003906 160.21875 90.113281 C 160.472656 89.253906 161.089844 88.488281 161.785156 87.933594 C 162.0625 87.710938 162.800781 87.503906 162.910156 87.136719 C 163.003906 86.796875 162.519531 86.460938 162.324219 86.261719 C 161.695312 85.625 161.121094 84.886719 160.691406 84.101562 C 160.484375 83.71875 160.308594 83.324219 160.164062 82.917969 C 159.183594 80.128906 159.71875 76.804688 162.027344 74.851562 C 163.082031 73.960938 164.304688 73.414062 165.648438 73.125 C 166.292969 72.988281 167.179688 73.074219 167.765625 72.738281 C 168.460938 72.335938 168.765625 70.882812 169.214844 70.230469 C 169.636719 69.617188 170.152344 69.050781 170.738281 68.574219 C 171.972656 67.566406 173.507812 66.957031 175.125 67.117188 C 177.175781 67.320312 179.085938 68.53125 180.441406 70.050781 C 181.074219 69.910156 181.730469 69.867188 182.359375 69.941406 C 184.222656 70.148438 185.308594 71.824219 186.824219 72.707031 C 187.070312 72.847656 187.378906 72.972656 187.695312 73.039062 C 187.898438 73.082031 188.105469 73.097656 188.300781 73.082031 C 188.585938 73.054688 188.851562 72.957031 189.066406 72.753906 C 190.746094 71.136719 189.144531 68.089844 190.859375 66.328125 C 191.9375 65.214844 193.78125 64.964844 195.171875 65.582031 C 195.476562 65.71875 196.53125 66.71875 196.855469 66.613281 C 197.140625 66.515625 197.367188 65.835938 197.515625 65.601562 C 198.015625 64.804688 198.566406 64.039062 199.25 63.390625 C 201.890625 60.882812 205.882812 60.042969 209.347656 61.105469 C 212.691406 62.132812 215.085938 64.988281 215.289062 68.503906 C 215.335938 69.328125 215.226562 70.152344 215.042969 70.957031 C 215.007812 71.125 214.730469 71.671875 214.820312 71.839844 C 214.867188 71.929688 215.707031 71.640625 215.800781 71.621094 C 216.382812 71.511719 216.964844 71.457031 217.554688 71.507812 C 219.332031 71.664062 220.757812 72.746094 221.59375 74.296875 C 222.664062 76.277344 222.367188 78.757812 221.226562 80.636719 C 220.886719 81.1875 219.546875 82.34375 219.511719 82.988281 C 219.5 83.191406 221.300781 83.773438 221.503906 83.898438 C 222.769531 84.664062 223.488281 86.109375 223.296875 87.578125 C 223.144531 88.726562 222.515625 89.679688 221.648438 90.421875 C 221.472656 90.574219 220.3125 91.207031 220.347656 91.472656 C 220.375 91.664062 221.441406 91.5625 221.582031 91.574219 C 222.382812 91.636719 223.425781 92.117188 224.140625 92.480469 C 226.648438 93.757812 228.976562 98.953125 227.804688 102.800781 C 227.074219 105.179688 224.457031 102.765625 222.253906 103.554688 C 218.550781 104.890625 215.28125 104.601562 211.949219 103.324219 C 211.644531 103.613281 211.316406 103.871094 210.964844 104.066406 C 210.332031 104.417969 209.574219 104.570312 208.855469 104.609375 C 208.8125 104.609375 208.757812 104.609375 208.699219 104.601562 C 208.371094 104.566406 207.882812 104.449219 207.671875 104.632812 C 206.503906 105.644531 206.273438 107.019531 204.703125 107.847656 C 203.867188 108.289062 202.925781 108.597656 201.972656 108.613281 C 201.496094 108.617188 200.722656 108.28125 200.28125 108.511719 C 199.574219 108.875 199.035156 110.039062 198.511719 110.628906 C 197.507812 111.761719 196.082031 112.570312 194.570312 112.792969 C 191.519531 113.238281 188.957031 111.386719 185.976562 111.203125 C 185.761719 111.191406 185.5 111.175781 185.222656 111.167969 C 184.894531 111.671875 184.523438 112.148438 184.074219 112.578125 Z M 184.074219 112.578125 " fill-opacity="1" fill-rule="evenodd"/><path fill="#ffffff" d="M 184.074219 112.578125 C 184.011719 112.636719 183.949219 112.695312 183.886719 112.753906 C 180.617188 115.683594 175.703125 116.601562 171.9375 114.125 C 171.148438 113.609375 170.449219 112.992188 169.867188 112.253906 C 169.503906 111.792969 169.222656 111.050781 168.660156 110.796875 C 167.851562 110.441406 166.671875 111.0625 165.851562 111.144531 C 164.394531 111.292969 162.742188 110.960938 161.410156 110.382812 C 159.191406 109.414062 158.03125 107.46875 158.082031 105.082031 C 158.09375 104.453125 158.695312 103.042969 158.425781 102.496094 C 158.214844 102.0625 157.488281 101.863281 157.125 101.574219 C 156.222656 100.863281 155.667969 100.015625 155.546875 98.859375 C 155.339844 96.90625 156.054688 94.503906 158.203125 94.003906 C 158.46875 93.941406 160.304688 94.214844 160.363281 94.140625 C 160.46875 94.011719 160.082031 93.140625 160.050781 92.980469 C 159.890625 92.0625 159.953125 91.003906 160.21875 90.113281 C 160.472656 89.253906 161.089844 88.488281 161.785156 87.933594 C 162.0625 87.710938 162.800781 87.503906 162.910156 87.136719 C 163.003906 86.796875 162.519531 86.460938 162.324219 86.261719 C 161.695312 85.625 161.121094 84.886719 160.691406 84.101562 C 160.484375 83.71875 160.308594 83.324219 160.164062 82.917969 C 159.183594 80.128906 159.71875 76.804688 162.027344 74.851562 C 163.082031 73.960938 164.304688 73.414062 165.648438 73.125 C 166.292969 72.988281 167.179688 73.074219 167.765625 72.738281 C 168.460938 72.335938 168.765625 70.882812 169.214844 70.230469 C 169.636719 69.617188 170.152344 69.050781 170.738281 68.574219 C 171.972656 67.566406 173.507812 66.957031 175.125 67.117188 C 177.175781 67.320312 179.085938 68.53125 180.441406 70.050781 C 181.074219 69.910156 181.730469 69.867188 182.359375 69.941406 C 184.222656 70.148438 185.308594 71.824219 186.824219 72.707031 C 187.070312 72.847656 187.378906 72.972656 187.695312 73.039062 C 187.898438 73.082031 188.105469 73.097656 188.300781 73.082031 C 188.585938 73.054688 188.851562 72.957031 189.066406 72.753906 C 190.746094 71.136719 189.144531 68.089844 190.859375 66.328125 C 191.9375 65.214844 193.78125 64.964844 195.171875 65.582031 C 195.476562 65.71875 196.53125 66.71875 196.855469 66.613281 C 197.140625 66.515625 197.367188 65.835938 197.515625 65.601562 C 198.015625 64.804688 198.566406 64.039062 199.25 63.390625 C 201.890625 60.882812 205.882812 60.042969 209.347656 61.105469 C 212.691406 62.132812 215.085938 64.988281 215.289062 68.503906 C 215.335938 69.328125 215.226562 70.152344 215.042969 70.957031 C 215.007812 71.125 214.730469 71.671875 214.820312 71.839844 C 214.867188 71.929688 215.707031 71.640625 215.800781 71.621094 C 216.382812 71.511719 216.964844 71.457031 217.554688 71.507812 C 219.332031 71.664062 220.757812 72.746094 221.59375 74.296875 C 222.664062 76.277344 222.367188 78.757812 221.226562 80.636719 C 220.886719 81.1875 219.546875 82.34375 219.511719 82.988281 C 219.5 83.191406 221.300781 83.773438 221.503906 83.898438 C 222.769531 84.664062 223.488281 86.109375 223.296875 87.578125 C 223.144531 88.726562 222.515625 89.679688 221.648438 90.421875 C 221.472656 90.574219 220.3125 91.207031 220.347656 91.472656 C 220.375 91.664062 221.441406 91.5625 221.582031 91.574219 C 222.382812 91.636719 223.425781 92.117188 224.140625 92.480469 C 226.648438 93.757812 228.976562 98.953125 227.804688 102.800781 C 227.074219 105.179688 224.457031 102.765625 222.253906 103.554688 C 218.550781 104.890625 215.28125 104.601562 211.949219 103.324219 C 211.644531 103.613281 211.316406 103.871094 210.964844 104.066406 C 210.332031 104.417969 209.574219 104.570312 208.855469 104.609375 C 208.8125 104.609375 208.757812 104.609375 208.699219 104.601562 C 208.371094 104.566406 207.882812 104.449219 207.671875 104.632812 C 206.503906 105.644531 206.273438 107.019531 204.703125 107.847656 C 203.867188 108.289062 202.925781 108.597656 201.972656 108.613281 C 201.496094 108.617188 200.722656 108.28125 200.28125 108.511719 C 199.574219 108.875 199.035156 110.039062 198.511719 110.628906 C 197.507812 111.761719 196.082031 112.570312 194.570312 112.792969 C 191.519531 113.238281 188.957031 111.386719 185.976562 111.203125 C 185.761719 111.191406 185.5 111.175781 185.222656 111.167969 C 184.894531 111.671875 184.523438 112.148438 184.074219 112.578125 Z M 184.074219 112.578125 " fill-opacity="0.5" fill-rule="evenodd"/></g></g><g clip-path="url(#3235428b9c)"><g clip-path="url(#296e3f8698)"><path fill="#5b341c" d="M 187.683594 73.039062 C 189.285156 74.085938 191.292969 74.820312 192.855469 74.90625 C 196.273438 75.09375 198.058594 77.660156 198.058594 77.660156 C 201.871094 76.539062 204.199219 78.894531 204.199219 78.894531 C 204.199219 78.894531 205.695312 76.695312 208.035156 76.78125 C 210.375 76.867188 212.28125 77.992188 209.289062 77.714844 C 206.300781 77.4375 204.277344 80.546875 204.277344 80.546875 C 201.617188 77.550781 198.003906 79.125 198.003906 79.125 C 195.453125 76.246094 192.496094 76 190.359375 74.96875 C 188.136719 73.902344 186.8125 72.707031 186.8125 72.707031 C 187.0625 72.847656 187.367188 72.972656 187.683594 73.039062 Z M 185.21875 111.160156 C 184.894531 111.671875 184.523438 112.148438 184.078125 112.578125 C 182.460938 112.609375 180.605469 112.238281 179.277344 111.074219 C 177.300781 109.347656 177.285156 107.277344 177.285156 107.277344 C 177.285156 107.277344 175.125 107.34375 173.761719 105.042969 C 172.394531 102.746094 173.457031 101.183594 173.457031 101.183594 C 173.144531 105.46875 178.355469 106.078125 178.355469 106.078125 C 178.503906 107.535156 179.109375 109.621094 181.515625 110.515625 C 183.917969 111.414062 185.21875 111.160156 185.21875 111.160156 Z M 208.6875 104.59375 C 208.359375 104.5625 207.875 104.441406 207.660156 104.625 C 207.660156 104.625 208.042969 102.972656 209.125 102.105469 C 210.207031 101.242188 212.320312 102.566406 215.683594 100.039062 C 215.683594 100.039062 215.40625 101.121094 214.21875 101.796875 C 213.03125 102.476562 210.132812 102.191406 209.429688 103.054688 C 209.109375 103.449219 208.941406 103.984375 208.6875 104.59375 Z M 208.6875 104.59375 " fill-opacity="0.453" fill-rule="evenodd"/></g></g><g clip-path="url(#628be37803)"><g clip-path="url(#3ee63900d0)"><path fill="#ffffff" d="M 173.730469 98.78125 C 173.300781 98.710938 173.304688 94.949219 175.203125 92.632812 C 175.890625 91.792969 176.875 91.167969 177.921875 90.867188 C 178.28125 90.761719 179.414062 90.945312 179.644531 90.65625 C 180.03125 90.171875 179.839844 88.84375 180 88.238281 C 180.507812 86.351562 181.917969 84.511719 183.871094 84.011719 C 185.296875 83.644531 186.84375 84.007812 188.011719 84.882812 C 188.410156 85.179688 188.820312 85.957031 189.292969 86.109375 C 189.707031 86.238281 190.558594 85.660156 190.996094 85.59375 C 191.980469 85.445312 193.097656 85.601562 194.03125 85.933594 C 194.664062 86.15625 195.167969 86.535156 195.582031 87.058594 C 195.621094 87.113281 195.992188 87.753906 196.027344 87.75 C 196.238281 87.734375 197.25 86.15625 197.464844 85.953125 C 198.613281 84.855469 200.109375 84 201.714844 83.890625 C 203.589844 83.765625 205.367188 84.777344 206.503906 86.222656 C 206.652344 86.410156 207.492188 87.464844 207.316406 87.738281 C 207.160156 87.976562 206.292969 87.625 206.078125 87.597656 C 205.132812 87.472656 204.035156 87.59375 203.207031 88.085938 C 202.242188 88.652344 201.527344 89.804688 201.113281 90.816406 C 200.925781 91.277344 200.859375 92.109375 200.464844 92.449219 C 200.082031 92.785156 199.40625 92.351562 199.003906 92.257812 C 198.171875 92.066406 197.316406 92.101562 196.480469 92.234375 C 195.492188 92.394531 194.542969 92.664062 193.671875 93.160156 C 193.28125 93.382812 192.664062 94.027344 192.183594 93.992188 C 191.566406 93.949219 190.878906 92.933594 190.441406 92.5625 C 189.769531 91.988281 187.238281 90.585938 184.992188 91.605469 C 182.640625 92.675781 182.867188 95.542969 182.585938 95.796875 C 181.625 96.660156 180.832031 97.789062 180.3125 98.96875 C 180.234375 99.148438 179.953125 100.355469 179.734375 100.40625 C 179.511719 100.457031 178.484375 99.566406 178.25 99.449219 C 176.957031 98.8125 175.035156 98.996094 173.730469 98.78125 Z M 170.726562 68.574219 C 171.515625 68.777344 172.210938 69.070312 172.757812 69.453125 C 173.992188 70.3125 174.53125 73.230469 175.894531 73.53125 C 177.246094 73.828125 178.921875 72.847656 180.371094 72.945312 C 182.246094 73.070312 183.808594 74.265625 185.105469 75.535156 C 185.183594 75.617188 186.261719 76.566406 186.222656 76.644531 C 186.199219 76.695312 185.195312 76.628906 185.097656 76.640625 C 184.289062 76.746094 183.523438 77.039062 182.898438 77.578125 C 182.121094 78.246094 181.539062 79.128906 181.203125 80.09375 C 181.082031 80.433594 181.035156 81.464844 180.734375 81.683594 C 180.519531 81.84375 179.734375 81.132812 179.574219 81.023438 C 178.5625 80.355469 177.394531 79.851562 176.222656 79.539062 C 174.976562 79.203125 173.710938 79.234375 172.496094 79.675781 C 171.988281 79.859375 170.929688 80.757812 170.367188 80.648438 C 169.824219 80.542969 169.347656 79.585938 168.972656 79.226562 C 168.058594 78.34375 166.726562 77.648438 165.421875 77.664062 C 162.648438 77.703125 161.167969 80.722656 160.152344 82.914062 C 159.171875 80.125 159.703125 76.800781 162.015625 74.847656 C 163.066406 73.957031 164.292969 73.410156 165.636719 73.121094 C 166.28125 72.984375 167.167969 73.074219 167.75 72.734375 C 168.449219 72.332031 168.753906 70.878906 169.199219 70.230469 C 169.628906 69.617188 170.144531 69.050781 170.726562 68.574219 Z M 170.726562 68.574219 " fill-opacity="0.299" fill-rule="evenodd"/></g></g><g clip-path="url(#efcf360450)"><g clip-path="url(#9d4d610f37)"><path fill="#955832" d="M 259.679688 201.238281 C 259.042969 200.503906 258.492188 199.910156 258.222656 199.636719 C 253.152344 194.519531 249.453125 187.339844 245.445312 181.339844 C 239.433594 172.34375 231.988281 165.621094 225.824219 156.738281 C 223.511719 153.40625 221.765625 149.691406 219.367188 146.421875 C 213.417969 138.328125 205.726562 133.121094 195.714844 131.863281 C 191.207031 131.300781 183.929688 129.441406 179.59375 131.710938 C 175.257812 133.976562 157.878906 163.589844 157.617188 163.988281 C 157.058594 164.808594 156.46875 165.605469 155.867188 166.390625 C 153.996094 168.828125 151.738281 172.359375 149.746094 174.699219 C 146.417969 178.621094 143.011719 182.699219 139.597656 186.765625 C 136.238281 190.757812 132.867188 194.738281 129.539062 198.542969 C 127.082031 201.351562 123.414062 202.972656 125.765625 205.117188 C 130.429688 209.367188 139.816406 208.703125 146.367188 210.789062 C 149.921875 211.925781 153.714844 213.960938 157.445312 214.296875 C 162.652344 214.761719 167.851562 213.625 173.082031 214.246094 C 175.867188 214.578125 174.898438 216.042969 176.921875 217.417969 C 178.066406 218.195312 180.960938 218.753906 182.300781 218.871094 C 194.480469 219.960938 206.226562 217.484375 218.214844 216.128906 C 221.820312 215.722656 225.476562 216.023438 229.101562 215.808594 C 237.546875 215.304688 245.363281 213.660156 253.203125 210.726562 C 255.785156 209.761719 261.238281 208.984375 263 206.640625 C 263.519531 205.945312 261.316406 203.125 259.679688 201.238281 Z M 259.679688 201.238281 " fill-opacity="1" fill-rule="evenodd"/></g></g><g clip-path="url(#e079846b10)"><g clip-path="url(#60bd80ce30)"><path fill="#5b341c" d="M 248.113281 212.449219 C 246.226562 210.011719 244.304688 207.597656 242.417969 205.15625 C 235.519531 196.238281 230.449219 185.964844 224.890625 176.183594 C 222.816406 172.539062 221.039062 168.675781 219.765625 164.675781 C 219.644531 164.292969 218.453125 161.273438 218.980469 160.992188 C 219.757812 160.574219 223.386719 165.074219 223.824219 165.550781 C 228.457031 170.617188 232.445312 176.308594 237.390625 181.089844 C 239.917969 183.539062 242.921875 184.421875 245.707031 186.371094 C 247.785156 187.824219 249.683594 189.472656 251.613281 191.089844 C 253.621094 194.175781 255.761719 197.144531 258.222656 199.628906 C 258.492188 199.90625 259.042969 200.5 259.679688 201.230469 C 261.316406 203.121094 263.519531 205.941406 262.996094 206.632812 C 261.238281 208.976562 255.78125 209.753906 253.199219 210.722656 C 251.503906 211.363281 249.8125 211.933594 248.113281 212.449219 Z M 215.246094 179.445312 C 215.21875 179.382812 215.207031 179.347656 215.207031 179.347656 C 215.226562 179.359375 215.238281 179.394531 215.246094 179.445312 Z M 210.3125 217.136719 C 210.34375 216.9375 210.363281 216.777344 210.375 216.65625 C 210.871094 212.078125 210.699219 207.257812 211.671875 202.75 C 212.136719 200.613281 213.640625 198.949219 214.21875 196.875 C 215.007812 194.070312 214.890625 190.824219 214.96875 187.941406 C 215.027344 185.699219 215.035156 183.460938 215.125 181.222656 C 215.132812 181.089844 215.304688 179.816406 215.242188 179.445312 C 215.667969 180.507812 219.414062 189.902344 219.925781 192.480469 C 221.496094 200.386719 224.011719 208.097656 226.078125 215.886719 C 223.453125 215.902344 220.824219 215.828125 218.214844 216.121094 C 215.574219 216.425781 212.941406 216.777344 210.3125 217.136719 Z M 180.828125 218.660156 C 179.734375 212.511719 178.933594 206.347656 178.933594 206.347656 C 178.75 206.195312 179.207031 204.597656 179.238281 204.410156 C 179.589844 202.539062 179.9375 200.664062 180.285156 198.792969 C 181.445312 192.574219 182.640625 186.339844 183.917969 180.148438 C 184.203125 178.746094 184.367188 175.09375 185.75 174.25 C 186.5 173.792969 186.871094 175.945312 186.957031 176.300781 C 187.453125 178.339844 187.714844 180.425781 188.289062 182.441406 C 188.796875 184.207031 189.554688 185.109375 190.621094 183.277344 C 191.851562 181.15625 192.261719 178.550781 192.859375 176.207031 C 193.816406 172.453125 194.898438 168.886719 195.554688 165.058594 C 195.957031 162.691406 196.234375 160.234375 196.929688 157.929688 C 197 157.691406 197.539062 155.9375 198.0625 156.355469 C 199.058594 157.148438 198.953125 160.488281 199.101562 161.636719 C 199.699219 166.300781 199.804688 169.492188 200.132812 173.65625 C 201.074219 185.570312 202.261719 197.242188 202.882812 209.167969 C 203.03125 212.03125 203.378906 215.023438 203.628906 218.027344 C 196.582031 218.910156 189.511719 219.519531 182.300781 218.875 C 181.914062 218.835938 181.398438 218.761719 180.828125 218.660156 Z M 129.8125 207.421875 C 132.046875 200.242188 134.589844 193.621094 134.589844 193.621094 C 134.679688 193.722656 136.160156 193.890625 136.382812 193.953125 C 138.421875 194.515625 141.132812 194.875 143.078125 193.878906 C 145.757812 192.511719 147.496094 189.667969 150.046875 188.054688 C 151.523438 187.117188 153.171875 188.15625 154.746094 187.292969 C 157.988281 185.511719 160.234375 182.496094 163.121094 180.242188 C 165.199219 178.617188 167.183594 176.667969 169.492188 175.375 C 169.703125 175.253906 171.40625 174.039062 171.640625 174.25 C 172 174.578125 170.371094 177.15625 170.253906 177.421875 C 168.613281 181.097656 167.136719 184.832031 165.476562 188.496094 C 161.640625 196.96875 157.855469 205.886719 151.21875 212.605469 C 149.574219 211.972656 147.949219 211.292969 146.367188 210.789062 C 141.378906 209.195312 134.75 209.199219 129.8125 207.421875 Z M 129.8125 207.421875 " fill-opacity="0.498" fill-rule="evenodd"/></g></g><g clip-path="url(#c98bbdbb4e)"><g clip-path="url(#d0c97a1ebe)"><path fill="#f65525" d="M 196.503906 127.859375 C 194.710938 127.1875 191.898438 124.730469 190.207031 124.007812 C 185.984375 122.210938 182.320312 123.734375 179.667969 126.179688 C 175.703125 129.835938 173.261719 135.195312 171.0625 139.890625 C 168.933594 144.433594 166.234375 148.597656 163.660156 152.882812 C 162.171875 155.351562 160.578125 157.96875 159.011719 160.390625 C 157.316406 163.015625 154.277344 166.679688 153.398438 168.785156 C 153.125 169.445312 152.652344 170.789062 153.558594 171.269531 C 154.863281 171.957031 156.550781 170.863281 157.097656 170.46875 C 158.730469 169.292969 161.035156 167.394531 162.835938 165.289062 C 166.773438 160.671875 170.097656 154.988281 172.949219 149.628906 C 174.285156 147.113281 175.113281 144.46875 176.761719 142.09375 C 177.976562 140.34375 179.480469 138.679688 181.203125 137.40625 C 181.835938 136.941406 182.707031 136.300781 183.542969 136.597656 C 184.894531 137.074219 186.042969 138.703125 186.648438 139.914062 C 189.449219 145.554688 185.351562 150.292969 185.160156 155.816406 C 185.097656 157.640625 185.070312 158.6875 185.976562 160.230469 C 187.148438 162.222656 188.199219 162.488281 189.351562 161.148438 C 190.378906 159.949219 190.601562 158.515625 190.835938 156.972656 C 191.171875 154.792969 190.660156 153.53125 191.007812 151.363281 C 191.265625 149.746094 192.402344 147.308594 192.621094 145.675781 C 192.960938 143.128906 192.222656 140.472656 195.660156 139.96875 C 196.117188 139.902344 196.574219 139.875 197.035156 139.9375 C 197.660156 140.023438 198.257812 140.253906 198.820312 140.539062 C 201.855469 142.070312 201.9375 146.980469 202.515625 149.867188 C 203.109375 152.839844 204.789062 155.132812 205.65625 157.980469 C 206.265625 159.984375 205.957031 162.09375 206.449219 164.109375 C 206.867188 165.839844 208.109375 167.382812 209.0625 168.855469 C 210.4375 170.992188 211.925781 172.984375 213.839844 174.65625 C 214.398438 175.140625 215.859375 177.027344 216.664062 176.683594 C 218.332031 175.972656 217.3125 171.371094 216.886719 170.152344 C 216.183594 168.128906 214.285156 166.800781 213.519531 164.738281 C 212.046875 160.769531 212.453125 157.039062 212.195312 152.9375 C 212.085938 151.292969 211.457031 149.660156 211.492188 148.015625 C 211.503906 147.371094 211.703125 146.570312 212.40625 146.367188 C 214.199219 145.851562 215.660156 148.847656 216.3125 150.003906 C 217.113281 151.421875 217.636719 153.246094 218.695312 154.496094 C 219.785156 155.785156 220.910156 156.859375 222.027344 158.164062 C 223.308594 159.664062 224.207031 161.585938 225.636719 162.945312 C 226.78125 164.039062 228.394531 164.589844 229.820312 165.226562 C 230.191406 165.390625 231.105469 165.933594 231.445312 165.464844 C 232.199219 164.429688 230.445312 162.160156 229.929688 161.367188 C 228.753906 159.542969 227.914062 157.515625 226.714844 155.710938 C 225.746094 154.257812 224.386719 153.109375 223.382812 151.671875 C 220.710938 147.84375 219.875 143.53125 217.984375 139.351562 C 217.035156 137.25 215.75 135.03125 214.316406 133.242188 C 212.34375 130.785156 210.347656 129.480469 207.945312 128.765625 C 203.859375 127.542969 200.371094 129.308594 196.503906 127.859375 Z M 196.503906 127.859375 " fill-opacity="1" fill-rule="evenodd"/></g></g><g clip-path="url(#936f75aff4)"><g clip-path="url(#fb3b5a76ea)"><path fill="#5b341c" d="M 211.710938 146.976562 C 211.707031 146.855469 211.703125 146.742188 211.703125 146.621094 C 211.703125 145.960938 211.726562 144.554688 212.636719 144.484375 C 213.9375 144.386719 215.035156 146.007812 215.714844 146.886719 C 217.332031 148.96875 218.4375 152.007812 218.960938 154.800781 C 218.871094 154.695312 218.785156 154.597656 218.699219 154.492188 C 217.636719 153.242188 217.117188 151.421875 216.3125 150 C 215.660156 148.84375 214.203125 145.847656 212.410156 146.363281 C 212.070312 146.460938 211.851562 146.6875 211.710938 146.976562 Z M 195.085938 140.085938 C 195.144531 139.988281 195.203125 139.894531 195.265625 139.804688 C 196.546875 137.941406 198.910156 138.726562 200.375 139.917969 C 204.34375 143.140625 204.027344 149.4375 204.101562 154.210938 C 203.457031 152.832031 202.835938 151.441406 202.519531 149.867188 C 201.941406 146.980469 201.863281 142.070312 198.824219 140.539062 C 198.261719 140.253906 197.664062 140.023438 197.039062 139.9375 C 196.578125 139.875 196.125 139.902344 195.664062 139.96875 C 195.453125 140 195.261719 140.039062 195.085938 140.085938 Z M 165.664062 161.65625 C 166.082031 160.785156 166.539062 159.929688 167.007812 159.089844 C 168.703125 156.050781 170.886719 153.214844 172.238281 149.996094 C 173.027344 148.117188 173.378906 146.101562 174.039062 144.179688 C 175.183594 140.859375 177.460938 137.203125 180.789062 135.707031 C 182.5 134.9375 183.507812 135.726562 184.222656 136.941406 C 184.003906 136.796875 183.773438 136.679688 183.542969 136.597656 C 182.707031 136.300781 181.835938 136.941406 181.203125 137.40625 C 179.480469 138.679688 177.976562 140.34375 176.761719 142.09375 C 175.113281 144.46875 174.285156 147.113281 172.949219 149.628906 C 170.804688 153.648438 168.398438 157.855469 165.664062 161.65625 Z M 165.664062 161.65625 " fill-opacity="0.656" fill-rule="evenodd"/></g></g><g clip-path="url(#3085e31f43)"><g clip-path="url(#0e1b8ea1f3)"><path fill="#ff9426" d="M 209.917969 160.050781 C 210.609375 161.90625 212.019531 163.957031 213.191406 165.5625 C 214.191406 166.933594 215.359375 168.070312 215.683594 169.796875 C 215.863281 170.75 215.921875 171.730469 215.816406 172.695312 C 215.785156 172.964844 215.746094 173.566406 215.425781 173.675781 C 215.03125 173.820312 214.710938 173.121094 214.589844 172.875 C 214.039062 171.765625 213.742188 170.550781 213.320312 169.394531 C 212.800781 167.976562 212.257812 166.628906 211.414062 165.367188 C 210.523438 164.035156 209.332031 162.828125 208.765625 161.308594 C 208.175781 159.734375 208 152.867188 208.761719 152.714844 C 210.246094 152.417969 208.761719 156.972656 209.917969 160.050781 Z M 218.289062 146.960938 C 219.09375 146.726562 219.738281 148.371094 220.03125 148.847656 C 221.441406 151.132812 222.578125 153.496094 224.222656 155.640625 C 224.523438 156.039062 225.976562 157.71875 225.398438 158.296875 C 224.921875 158.773438 223.511719 156.925781 223.277344 156.667969 C 221.757812 154.972656 220.527344 153.304688 219.78125 151.121094 C 219.703125 150.910156 217.792969 147.097656 218.289062 146.960938 Z M 189.6875 151.054688 C 189.652344 151.320312 189.738281 153.476562 189.503906 155.132812 C 189.289062 156.644531 188.753906 157.648438 188.53125 158.140625 C 188.375 158.476562 187.910156 159.183594 187.570312 158.605469 C 187.0625 157.738281 187.410156 156.351562 187.617188 155.449219 C 187.90625 154.222656 188.492188 153.09375 188.746094 151.855469 C 189.074219 150.257812 189.046875 148.597656 189.367188 146.980469 C 189.746094 145.085938 189.488281 143.191406 189.796875 141.304688 C 189.851562 140.960938 189.980469 139.683594 190.519531 139.679688 C 190.753906 139.679688 190.808594 140.070312 190.832031 140.234375 C 190.9375 140.941406 190.898438 141.6875 190.875 142.398438 C 190.785156 145.367188 190.035156 148.140625 189.6875 151.054688 Z M 193.675781 126.203125 C 192.984375 126.070312 192.289062 125.828125 191.660156 125.644531 C 190.417969 125.28125 189.269531 124.722656 187.96875 124.585938 C 184.179688 124.191406 181.414062 126.28125 179.234375 129.121094 C 177.859375 130.914062 177.195312 132.984375 176.167969 134.964844 C 175 137.210938 173.121094 138.917969 172.082031 141.273438 C 170.628906 144.5625 169.070312 147.523438 167.738281 150.859375 C 166.746094 153.339844 165.171875 155.691406 163.679688 157.898438 C 162.09375 160.238281 160.96875 163.402344 158.300781 164.5625 C 157.675781 164.835938 156.578125 165.171875 155.757812 164.972656 C 156.875 163.410156 158.125 161.761719 159.003906 160.394531 C 160.570312 157.96875 162.167969 155.359375 163.652344 152.886719 C 166.226562 148.601562 168.921875 144.4375 171.054688 139.894531 C 173.253906 135.199219 175.699219 129.839844 179.664062 126.183594 C 182.316406 123.738281 185.980469 122.210938 190.203125 124.011719 C 191.140625 124.40625 192.417969 125.335938 193.675781 126.203125 Z M 210.742188 129.988281 C 209.519531 129.769531 208.332031 129.320312 207.097656 129.125 C 205.011719 128.800781 202.9375 129.96875 200.871094 130.019531 C 198.25 130.078125 196.589844 128.605469 194.8125 126.960938 C 195.425781 127.351562 196.003906 127.675781 196.503906 127.863281 C 200.371094 129.3125 203.859375 127.546875 207.949219 128.761719 C 208.941406 129.054688 209.863281 129.449219 210.742188 129.988281 Z M 210.742188 129.988281 " fill-opacity="1" fill-rule="evenodd"/></g></g><g clip-path="url(#c6f376a9fd)"><g clip-path="url(#c0b5612243)"><path fill="#ff9426" d="M 220.476562 145.867188 C 218.882812 146.175781 217.054688 145.40625 215.871094 143.734375 C 215.273438 142.894531 214.496094 140.355469 213.402344 140.199219 C 212.683594 140.09375 212.148438 141.109375 211.78125 141.640625 C 211.023438 142.746094 209.496094 145.394531 207.988281 145.105469 C 207.011719 144.914062 206.1875 143.824219 205.695312 142.9375 C 204.570312 140.921875 204.148438 137.699219 202.460938 136.191406 C 200.261719 134.210938 196.683594 136.382812 194.109375 135.828125 C 192.382812 135.457031 190.785156 134.382812 189.542969 133 C 188.574219 131.917969 187.734375 130.574219 186.546875 129.773438 C 185.507812 129.066406 184.074219 129.527344 182.960938 129.710938 C 182.480469 129.792969 181.835938 129.792969 182.035156 129.027344 C 182.558594 127.050781 185.480469 126.539062 186.949219 126.972656 C 187.65625 127.183594 188.261719 127.558594 188.8125 128.027344 C 190.230469 129.234375 191.273438 131.054688 192.71875 132.242188 C 193.65625 133.015625 194.976562 133.347656 196.121094 133.433594 C 197.347656 133.53125 198.632812 133.324219 199.804688 132.917969 C 200.207031 132.773438 200.625 132.609375 201.046875 132.457031 C 201.503906 132.292969 201.96875 132.152344 202.433594 132.082031 C 203.152344 131.972656 203.875 132.042969 204.566406 132.496094 C 207.058594 134.125 207.054688 138.523438 209.765625 139.863281 C 212.070312 141.003906 211.710938 136.824219 213.300781 136.664062 C 214.097656 136.578125 214.960938 138.128906 215.410156 138.699219 C 216.3125 139.84375 217.277344 140.519531 218.589844 140.765625 C 218.726562 141.101562 218.855469 141.4375 218.980469 141.769531 C 219.5 143.140625 219.964844 144.515625 220.476562 145.867188 Z M 220.476562 145.867188 " fill-opacity="0.5" fill-rule="evenodd"/></g></g><g clip-path="url(#f9d0d95833)"><g clip-path="url(#29105ca8e4)"><path fill="#ff9426" d="M 188.816406 128.027344 C 188.878906 127.949219 189.058594 127.9375 189.40625 128.019531 C 191.675781 128.566406 193.695312 130.566406 195.484375 131.773438 C 196.324219 132.34375 197.503906 132.585938 198.53125 132.652344 C 199.363281 132.703125 200.222656 132.632812 201.050781 132.460938 C 201.3125 132.40625 201.570312 132.339844 201.828125 132.269531 C 202.027344 132.210938 202.234375 132.148438 202.4375 132.082031 C 203.636719 131.710938 204.910156 131.324219 206.089844 131.960938 C 208.316406 133.15625 208.316406 136.386719 210.742188 137.371094 C 212.800781 138.207031 212.425781 135.652344 213.847656 135.53125 C 214.5625 135.472656 215.390625 136.097656 215.792969 136.515625 C 216.203125 136.945312 216.628906 137.28125 217.105469 137.535156 C 217.425781 138.136719 217.722656 138.746094 217.992188 139.339844 C 218.207031 139.8125 218.40625 140.285156 218.597656 140.761719 C 218.734375 141.097656 218.863281 141.433594 218.988281 141.769531 C 217.960938 141.597656 216.941406 141.0625 216.203125 140.210938 C 215.671875 139.59375 214.972656 137.726562 213.992188 137.613281 C 213.347656 137.535156 212.871094 138.28125 212.546875 138.667969 C 211.867188 139.484375 210.503906 141.425781 209.15625 141.214844 C 208.28125 141.078125 207.542969 140.277344 207.101562 139.625 C 206.09375 138.144531 205.714844 135.777344 204.210938 134.667969 C 202.238281 133.21875 199.035156 134.8125 196.734375 134.402344 C 195.191406 134.128906 193.761719 133.34375 192.648438 132.328125 C 191.78125 131.535156 191.011719 130.3125 189.992188 129.472656 C 189.382812 128.976562 188.640625 128.25 188.816406 128.027344 Z M 188.816406 128.027344 " fill-opacity="1" fill-rule="evenodd"/></g></g><g clip-path="url(#16c0cd5439)"><g clip-path="url(#56378bbc5a)"><path fill="#5b341c" d="M 139.597656 186.757812 C 136.238281 190.753906 132.867188 194.734375 129.539062 198.535156 C 127.082031 201.347656 123.414062 202.96875 125.765625 205.109375 C 130.429688 209.359375 139.816406 208.699219 146.367188 210.785156 C 149.921875 211.917969 153.714844 213.953125 157.445312 214.289062 C 162.652344 214.753906 167.851562 213.617188 173.082031 214.238281 C 175.867188 214.570312 174.898438 216.039062 176.921875 217.410156 C 178.066406 218.1875 180.960938 218.746094 182.300781 218.867188 C 194.480469 219.953125 206.226562 217.476562 218.214844 216.121094 C 221.820312 215.714844 225.476562 216.015625 229.101562 215.800781 C 237.546875 215.296875 245.363281 213.652344 253.203125 210.722656 C 255.785156 209.753906 261.238281 208.980469 263 206.632812 C 263.519531 205.941406 261.316406 203.121094 259.679688 201.230469 C 258.496094 201.320312 257.164062 201.03125 256.078125 200.773438 C 253.355469 200.117188 251.324219 197.472656 248.714844 197.078125 C 246.527344 196.746094 244.464844 198.402344 242.300781 197.476562 C 240.867188 196.859375 239.917969 195.085938 239.082031 193.859375 C 237.324219 191.273438 235.59375 188.613281 233.535156 186.25 C 232.707031 185.300781 231.816406 184.335938 230.800781 183.585938 C 230.625 183.453125 229.921875 182.894531 229.714844 183.257812 C 228.992188 184.53125 231.40625 187.746094 231.980469 188.734375 C 234.464844 193.027344 235.535156 197.433594 237.195312 202.039062 C 237.523438 202.949219 239.113281 205.792969 238.386719 206.761719 C 237.992188 207.277344 236.957031 206.855469 236.519531 206.652344 C 234.929688 205.917969 233.679688 204.484375 232.617188 203.132812 C 231.113281 201.21875 229.863281 198.980469 228.097656 197.28125 C 226.746094 195.980469 224.769531 195.433594 223.621094 193.917969 C 222.007812 191.777344 221.421875 188.734375 220.234375 186.355469 C 219.15625 184.199219 217.894531 182.164062 216.550781 180.167969 C 216.433594 179.988281 215.335938 178.152344 215 178.390625 C 214.578125 178.683594 214.695312 179.988281 214.695312 180.386719 C 214.695312 182.636719 215.207031 184.695312 215.859375 186.835938 C 216.351562 188.464844 216.835938 190.09375 217.28125 191.738281 C 217.960938 194.253906 219.289062 197.441406 219.210938 200.082031 C 219.164062 201.726562 218.367188 203.289062 218.179688 204.929688 C 218.039062 206.195312 218.441406 208.503906 217.570312 209.5625 C 216.863281 210.414062 215.050781 210.703125 214.058594 211.089844 C 212.988281 211.511719 211.824219 212.003906 210.644531 211.808594 C 203.511719 210.636719 204.171875 199.78125 203.542969 194.617188 C 203.34375 192.953125 203.050781 191.300781 202.765625 189.648438 C 202.386719 187.4375 202.066406 185.164062 201.417969 183.011719 C 201.34375 182.761719 200.863281 181.0625 200.367188 181.257812 C 199.964844 181.417969 199.929688 182.664062 199.878906 183 C 199.589844 184.847656 199.59375 186.714844 199.421875 188.574219 C 198.921875 194.125 198.207031 199.527344 197.292969 205.015625 C 197 206.769531 197.3125 209.796875 195.996094 211.195312 C 195.199219 212.039062 193.492188 211.425781 192.558594 211.171875 C 189.9375 210.453125 187.140625 210.207031 186.214844 207.226562 C 184.875 202.914062 184.785156 198.105469 183.777344 193.6875 C 183.6875 193.296875 183.164062 189.722656 182.535156 189.730469 C 182.167969 189.734375 181.941406 190.632812 181.859375 190.875 C 181.421875 192.164062 181.007812 193.457031 180.535156 194.734375 C 179.148438 198.488281 177.414062 202.097656 176.285156 205.941406 C 175.808594 207.558594 175.15625 209.828125 173.210938 210.15625 C 171.800781 210.394531 170.585938 209.320312 169.457031 208.664062 C 168.308594 208 167.058594 207.3125 166.421875 206.09375 C 165.660156 204.628906 166.058594 202.949219 166.195312 201.386719 C 166.542969 197.375 167.71875 193.5 168.902344 189.675781 C 169.464844 187.855469 170.113281 186.0625 170.695312 184.25 C 171.402344 182.0625 172.03125 179.851562 172.613281 177.628906 C 173.207031 175.375 173.742188 173.097656 174.121094 170.792969 C 174.203125 170.304688 174.625 168.761719 174.054688 168.394531 C 173.273438 167.894531 171.703125 170.171875 171.375 170.605469 C 169.007812 173.71875 167.210938 177.269531 164.53125 180.152344 C 162.269531 182.582031 159.855469 184.902344 157.953125 187.636719 C 154.863281 192.078125 151.890625 197.914062 147.285156 201.074219 C 144.414062 203.046875 138.472656 203.988281 135.050781 203.894531 C 132.308594 203.816406 133.640625 200.96875 134.3125 199.371094 C 136.082031 195.167969 137.84375 190.96875 139.597656 186.757812 Z M 139.597656 186.757812 " fill-opacity="1" fill-rule="evenodd"/></g></g></svg>