<svg xmlns="http://www.w3.org/2000/svg" xmlns:xlink="http://www.w3.org/1999/xlink" width="500" zoomAndPan="magnify" viewBox="0 0 375 374.999991" height="500" preserveAspectRatio="xMidYMid meet" version="1.0"><defs><clipPath id="2975dfe219"><path d="M 105.25 47.589844 L 282.761719 47.589844 L 282.761719 225.101562 L 105.25 225.101562 Z M 105.25 47.589844 " clip-rule="nonzero"/></clipPath><clipPath id="15feb7c449"><path d="M 194.003906 47.589844 C 144.988281 47.589844 105.25 87.328125 105.25 136.347656 C 105.25 185.363281 144.988281 225.101562 194.003906 225.101562 C 243.023438 225.101562 282.761719 185.363281 282.761719 136.347656 C 282.761719 87.328125 243.023438 47.589844 194.003906 47.589844 Z M 194.003906 47.589844 " clip-rule="nonzero"/></clipPath><clipPath id="1c5418cff6"><path d="M 105.25 47.589844 L 282.753906 47.589844 L 282.753906 225.097656 L 105.25 225.097656 Z M 105.25 47.589844 " clip-rule="nonzero"/></clipPath><clipPath id="f5d2e224c3"><path d="M 194 47.589844 C 144.984375 47.589844 105.25 87.328125 105.25 136.34375 C 105.25 185.359375 144.984375 225.097656 194 225.097656 C 243.019531 225.097656 282.753906 185.359375 282.753906 136.34375 C 282.753906 87.328125 243.019531 47.589844 194 47.589844 Z M 194 47.589844 " clip-rule="nonzero"/></clipPath><clipPath id="9ff15fae65"><path d="M 120 80 L 248 80 L 248 142 L 120 142 Z M 120 80 " clip-rule="nonzero"/></clipPath><clipPath id="3c7fe6f148"><path d="M 109.070312 136.347656 C 109.070312 151.6875 115.164062 166.402344 126.015625 177.253906 C 136.863281 188.101562 151.578125 194.195312 166.921875 194.195312 L 218.800781 194.195312 C 234.144531 194.195312 248.855469 188.101562 259.707031 177.253906 C 270.554688 166.402344 276.648438 151.6875 276.648438 136.347656 C 276.648438 121.003906 270.554688 106.289062 259.707031 95.441406 C 248.855469 84.589844 234.144531 78.496094 218.800781 78.496094 L 166.921875 78.496094 C 151.578125 78.496094 136.863281 84.589844 126.015625 95.441406 C 115.164062 106.289062 109.070312 121.003906 109.070312 136.347656 Z M 109.070312 136.347656 " clip-rule="nonzero"/></clipPath><clipPath id="bb2ed3bf32"><path d="M 110 144 L 261 144 L 261 194 L 110 194 Z M 110 144 " clip-rule="nonzero"/></clipPath><clipPath id="415b6804bc"><path d="M 109.070312 136.347656 C 109.070312 151.6875 115.164062 166.402344 126.015625 177.253906 C 136.863281 188.101562 151.578125 194.195312 166.921875 194.195312 L 218.800781 194.195312 C 234.144531 194.195312 248.855469 188.101562 259.707031 177.253906 C 270.554688 166.402344 276.648438 151.6875 276.648438 136.347656 C 276.648438 121.003906 270.554688 106.289062 259.707031 95.441406 C 248.855469 84.589844 234.144531 78.496094 218.800781 78.496094 L 166.921875 78.496094 C 151.578125 78.496094 136.863281 84.589844 126.015625 95.441406 C 115.164062 106.289062 109.070312 121.003906 109.070312 136.347656 Z M 109.070312 136.347656 " clip-rule="nonzero"/></clipPath><clipPath id="3c3f19761c"><path d="M 123 113 L 229 113 L 229 150 L 123 150 Z M 123 113 " clip-rule="nonzero"/></clipPath><clipPath id="261f28ad37"><path d="M 109.070312 136.347656 C 109.070312 151.6875 115.164062 166.402344 126.015625 177.253906 C 136.863281 188.101562 151.578125 194.195312 166.921875 194.195312 L 218.800781 194.195312 C 234.144531 194.195312 248.855469 188.101562 259.707031 177.253906 C 270.554688 166.402344 276.648438 151.6875 276.648438 136.347656 C 276.648438 121.003906 270.554688 106.289062 259.707031 95.441406 C 248.855469 84.589844 234.144531 78.496094 218.800781 78.496094 L 166.921875 78.496094 C 151.578125 78.496094 136.863281 84.589844 126.015625 95.441406 C 115.164062 106.289062 109.070312 121.003906 109.070312 136.347656 Z M 109.070312 136.347656 " clip-rule="nonzero"/></clipPath><clipPath id="dadd521432"><path d="M 125 119 L 214 119 L 214 153 L 125 153 Z M 125 119 " clip-rule="nonzero"/></clipPath><clipPath id="6821813b5d"><path d="M 109.070312 136.347656 C 109.070312 151.6875 115.164062 166.402344 126.015625 177.253906 C 136.863281 188.101562 151.578125 194.195312 166.921875 194.195312 L 218.800781 194.195312 C 234.144531 194.195312 248.855469 188.101562 259.707031 177.253906 C 270.554688 166.402344 276.648438 151.6875 276.648438 136.347656 C 276.648438 121.003906 270.554688 106.289062 259.707031 95.441406 C 248.855469 84.589844 234.144531 78.496094 218.800781 78.496094 L 166.921875 78.496094 C 151.578125 78.496094 136.863281 84.589844 126.015625 95.441406 C 115.164062 106.289062 109.070312 121.003906 109.070312 136.347656 Z M 109.070312 136.347656 " clip-rule="nonzero"/></clipPath><clipPath id="ec9fbf0cfb"><path d="M 110 150 L 241 150 L 241 184 L 110 184 Z M 110 150 " clip-rule="nonzero"/></clipPath><clipPath id="a8f49a8356"><path d="M 109.070312 136.347656 C 109.070312 151.6875 115.164062 166.402344 126.015625 177.253906 C 136.863281 188.101562 151.578125 194.195312 166.921875 194.195312 L 218.800781 194.195312 C 234.144531 194.195312 248.855469 188.101562 259.707031 177.253906 C 270.554688 166.402344 276.648438 151.6875 276.648438 136.347656 C 276.648438 121.003906 270.554688 106.289062 259.707031 95.441406 C 248.855469 84.589844 234.144531 78.496094 218.800781 78.496094 L 166.921875 78.496094 C 151.578125 78.496094 136.863281 84.589844 126.015625 95.441406 C 115.164062 106.289062 109.070312 121.003906 109.070312 136.347656 Z M 109.070312 136.347656 " clip-rule="nonzero"/></clipPath><clipPath id="ca89cd0734"><path d="M 127 84 L 206 84 L 206 136 L 127 136 Z M 127 84 " clip-rule="nonzero"/></clipPath><clipPath id="1a5cde99ca"><path d="M 109.070312 136.347656 C 109.070312 151.6875 115.164062 166.402344 126.015625 177.253906 C 136.863281 188.101562 151.578125 194.195312 166.921875 194.195312 L 218.800781 194.195312 C 234.144531 194.195312 248.855469 188.101562 259.707031 177.253906 C 270.554688 166.402344 276.648438 151.6875 276.648438 136.347656 C 276.648438 121.003906 270.554688 106.289062 259.707031 95.441406 C 248.855469 84.589844 234.144531 78.496094 218.800781 78.496094 L 166.921875 78.496094 C 151.578125 78.496094 136.863281 84.589844 126.015625 95.441406 C 115.164062 106.289062 109.070312 121.003906 109.070312 136.347656 Z M 109.070312 136.347656 " clip-rule="nonzero"/></clipPath><clipPath id="70771cdeec"><path d="M 121 156 L 208 156 L 208 187 L 121 187 Z M 121 156 " clip-rule="nonzero"/></clipPath><clipPath id="2675e9fcd1"><path d="M 109.070312 136.347656 C 109.070312 151.6875 115.164062 166.402344 126.015625 177.253906 C 136.863281 188.101562 151.578125 194.195312 166.921875 194.195312 L 218.800781 194.195312 C 234.144531 194.195312 248.855469 188.101562 259.707031 177.253906 C 270.554688 166.402344 276.648438 151.6875 276.648438 136.347656 C 276.648438 121.003906 270.554688 106.289062 259.707031 95.441406 C 248.855469 84.589844 234.144531 78.496094 218.800781 78.496094 L 166.921875 78.496094 C 151.578125 78.496094 136.863281 84.589844 126.015625 95.441406 C 115.164062 106.289062 109.070312 121.003906 109.070312 136.347656 Z M 109.070312 136.347656 " clip-rule="nonzero"/></clipPath><clipPath id="733c607724"><path d="M 220 90 L 253 90 L 253 142 L 220 142 Z M 220 90 " clip-rule="nonzero"/></clipPath><clipPath id="3d39ccf924"><path d="M 109.070312 136.347656 C 109.070312 151.6875 115.164062 166.402344 126.015625 177.253906 C 136.863281 188.101562 151.578125 194.195312 166.921875 194.195312 L 218.800781 194.195312 C 234.144531 194.195312 248.855469 188.101562 259.707031 177.253906 C 270.554688 166.402344 276.648438 151.6875 276.648438 136.347656 C 276.648438 121.003906 270.554688 106.289062 259.707031 95.441406 C 248.855469 84.589844 234.144531 78.496094 218.800781 78.496094 L 166.921875 78.496094 C 151.578125 78.496094 136.863281 84.589844 126.015625 95.441406 C 115.164062 106.289062 109.070312 121.003906 109.070312 136.347656 Z M 109.070312 136.347656 " clip-rule="nonzero"/></clipPath><clipPath id="cd0e3377ac"><path d="M 210 139 L 277 139 L 277 184 L 210 184 Z M 210 139 " clip-rule="nonzero"/></clipPath><clipPath id="5e0717649c"><path d="M 109.070312 136.347656 C 109.070312 151.6875 115.164062 166.402344 126.015625 177.253906 C 136.863281 188.101562 151.578125 194.195312 166.921875 194.195312 L 218.800781 194.195312 C 234.144531 194.195312 248.855469 188.101562 259.707031 177.253906 C 270.554688 166.402344 276.648438 151.6875 276.648438 136.347656 C 276.648438 121.003906 270.554688 106.289062 259.707031 95.441406 C 248.855469 84.589844 234.144531 78.496094 218.800781 78.496094 L 166.921875 78.496094 C 151.578125 78.496094 136.863281 84.589844 126.015625 95.441406 C 115.164062 106.289062 109.070312 121.003906 109.070312 136.347656 Z M 109.070312 136.347656 " clip-rule="nonzero"/></clipPath><clipPath id="10b67347d7"><path d="M 253 110 L 277 110 L 277 143 L 253 143 Z M 253 110 " clip-rule="nonzero"/></clipPath><clipPath id="2bcd90c4de"><path d="M 109.070312 136.347656 C 109.070312 151.6875 115.164062 166.402344 126.015625 177.253906 C 136.863281 188.101562 151.578125 194.195312 166.921875 194.195312 L 218.800781 194.195312 C 234.144531 194.195312 248.855469 188.101562 259.707031 177.253906 C 270.554688 166.402344 276.648438 151.6875 276.648438 136.347656 C 276.648438 121.003906 270.554688 106.289062 259.707031 95.441406 C 248.855469 84.589844 234.144531 78.496094 218.800781 78.496094 L 166.921875 78.496094 C 151.578125 78.496094 136.863281 84.589844 126.015625 95.441406 C 115.164062 106.289062 109.070312 121.003906 109.070312 136.347656 Z M 109.070312 136.347656 " clip-rule="nonzero"/></clipPath><clipPath id="9de86da617"><path d="M 109.070312 79 L 199 79 L 199 139 L 109.070312 139 Z M 109.070312 79 " clip-rule="nonzero"/></clipPath><clipPath id="91e9d07fa7"><path d="M 109.070312 136.347656 C 109.070312 151.6875 115.164062 166.402344 126.015625 177.253906 C 136.863281 188.101562 151.578125 194.195312 166.921875 194.195312 L 218.800781 194.195312 C 234.144531 194.195312 248.855469 188.101562 259.707031 177.253906 C 270.554688 166.402344 276.648438 151.6875 276.648438 136.347656 C 276.648438 121.003906 270.554688 106.289062 259.707031 95.441406 C 248.855469 84.589844 234.144531 78.496094 218.800781 78.496094 L 166.921875 78.496094 C 151.578125 78.496094 136.863281 84.589844 126.015625 95.441406 C 115.164062 106.289062 109.070312 121.003906 109.070312 136.347656 Z M 109.070312 136.347656 " clip-rule="nonzero"/></clipPath></defs><path fill="#e4fcfc" d="M 192.855469 188.644531 C 160.851562 188.644531 134.90625 162.703125 134.90625 130.699219 C 134.90625 98.691406 160.851562 72.75 192.855469 72.75 C 224.859375 72.75 250.804688 98.691406 250.804688 130.699219 C 250.804688 162.703125 224.859375 188.644531 192.855469 188.644531 Z M 296.523438 76.53125 C 263.042969 19.292969 189.5 0.03125 132.261719 33.507812 C 75.023438 66.988281 55.761719 140.53125 89.242188 197.769531 L 192.882812 374.960938 L 296.523438 197.769531 C 317.574219 161.578125 319.171875 115.25 296.523438 76.53125 " fill-opacity="1" fill-rule="nonzero"/><g clip-path="url(#2975dfe219)"><g clip-path="url(#15feb7c449)"><path fill="#e4fcfc" d="M 105.25 47.589844 L 282.761719 47.589844 L 282.761719 225.101562 L 105.25 225.101562 Z M 105.25 47.589844 " fill-opacity="1" fill-rule="nonzero"/></g></g><g clip-path="url(#1c5418cff6)"><g clip-path="url(#f5d2e224c3)"><path stroke-linecap="butt" transform="matrix(1.957997, 0, 0, 1.957997, 105.249247, 47.591159)" fill="none" stroke-linejoin="miter" d="M 45.327318 -0.000671873 C 20.293763 -0.000671873 0.00038448 20.294702 0.00038448 45.328257 C 0.00038448 70.361811 20.293763 90.657185 45.327318 90.657185 C 70.362868 90.657185 90.656246 70.361811 90.656246 45.328257 C 90.656246 20.294702 70.362868 -0.000671873 45.327318 -0.000671873 Z M 45.327318 -0.000671873 " stroke="#adcd5f" stroke-width="3.830445" stroke-opacity="1" stroke-miterlimit="4"/></g></g><g clip-path="url(#9ff15fae65)"><g clip-path="url(#3c7fe6f148)"><path fill="#c3e9fa" d="M 133.191406 129.503906 C 146.660156 131.824219 164.46875 131.464844 177.488281 128.113281 C 184.046875 126.425781 192.511719 122.414062 194.003906 114.988281 C 195.589844 107.136719 188.105469 99.539062 180.316406 100.46875 C 179.121094 100.613281 178.269531 100.589844 177.195312 100.925781 C 185.652344 103.789062 183.324219 113.148438 176.570312 116.859375 C 168.519531 121.285156 156.890625 118.574219 152.628906 110.304688 C 147.78125 100.890625 155.328125 90.683594 162.878906 85.003906 C 171.535156 78.5 187.007812 78.953125 195.878906 84.886719 C 204.09375 90.382812 208.804688 102.894531 202.183594 111.296875 C 208.921875 106.203125 211.828125 99.3125 220.488281 96.839844 C 229.910156 94.152344 240.492188 96.796875 245.242188 105.632812 C 252.332031 118.828125 242.96875 135.785156 228.855469 138.847656 C 220.632812 140.632812 211.597656 140.707031 202.914062 140.277344 C 190.800781 139.675781 178.472656 138.898438 166.285156 137.9375 C 157.5 137.242188 148.203125 135.664062 139.292969 136.503906 C 132.40625 137.15625 127.601562 142.917969 120.636719 141.703125 C 124.542969 139.871094 125.515625 136.023438 128.351562 133.121094 C 132.257812 129.125 134.722656 129.902344 139.320312 131.378906 " fill-opacity="1" fill-rule="nonzero"/></g></g><g clip-path="url(#bb2ed3bf32)"><g clip-path="url(#415b6804bc)"><path fill="#96d6f5" d="M 126.59375 152.164062 C 143.398438 138.285156 161.527344 147.515625 180.773438 147.378906 C 194.832031 147.277344 208.707031 144.695312 222.738281 144.203125 C 233.386719 143.832031 249.472656 145.183594 255.59375 155.445312 C 264.363281 170.148438 260.335938 187.417969 242.519531 191.867188 C 235.617188 193.589844 225.785156 194.011719 219.324219 190.695312 C 211.9375 186.898438 206.042969 177.875 215.1875 171.707031 C 219.457031 168.824219 224.964844 168.601562 226.09375 174.105469 C 230.441406 174.148438 230.535156 169.171875 228.722656 166.308594 C 226.890625 163.410156 222.058594 161.457031 218.957031 161.0625 C 209.574219 159.875 204.734375 166.433594 203.902344 174.667969 C 203.050781 183.105469 201.089844 187.574219 192.570312 190.566406 C 184.667969 193.339844 171.484375 193.453125 167.214844 184.476562 C 165.980469 181.890625 165.261719 175.875 166.746094 173.339844 C 168.136719 170.953125 175.203125 167.660156 177.972656 169.117188 C 179.410156 169.875 179.105469 173.015625 179.9375 173.140625 C 182.363281 173.511719 182.289062 170.871094 182.097656 169.128906 C 181.8125 166.542969 178.9375 163.355469 176.898438 161.648438 C 172.238281 157.738281 162.261719 154.148438 156.285156 154.507812 C 148.84375 154.953125 143.335938 160.179688 136.515625 161.554688 C 131.957031 162.476562 127.382812 161.847656 123.320312 160.59375 C 119.328125 159.359375 114.382812 157.203125 110.269531 159.707031 C 117.148438 155.253906 126.949219 150.351562 135.078125 153.101562 " fill-opacity="1" fill-rule="nonzero"/></g></g><g clip-path="url(#3c3f19761c)"><g clip-path="url(#261f28ad37)"><path fill="#59b6e7" d="M 128.480469 146.832031 C 129.625 146.59375 132.707031 142.484375 134.59375 141.109375 C 139.164062 137.777344 145.089844 135.78125 150.523438 134.28125 C 160.601562 131.496094 171.527344 132.921875 181.726562 133.824219 C 188.582031 134.429688 193.90625 133.714844 200.109375 131.261719 C 203.261719 130.015625 212.347656 126.328125 208.695312 122.070312 C 206.382812 128.609375 195.269531 118.007812 207.648438 114.144531 C 214.246094 112.085938 222.863281 115.191406 226.390625 121.191406 C 234.808594 135.492188 219.5625 145.125 207.648438 148.136719 C 193.046875 151.820312 176.933594 148.875 162.878906 144.503906 C 155.863281 142.320312 148.621094 141.152344 141.191406 143.074219 C 135.667969 144.5 128.726562 150.640625 123.121094 146.925781 C 123.054688 146.824219 123.453125 147.089844 123.769531 146.832031 " fill-opacity="1" fill-rule="nonzero"/></g></g><g clip-path="url(#dadd521432)"><g clip-path="url(#6821813b5d)"><path fill="#c3e9fa" d="M 127.375 152.527344 C 127.277344 151.316406 127.851562 150.207031 128.601562 149.289062 C 129.589844 148.070312 130.863281 147.070312 132.152344 146.1875 C 134.917969 144.289062 137.96875 142.800781 141.023438 141.417969 C 142.78125 140.625 144.550781 139.898438 146.421875 139.402344 C 148.679688 138.800781 151.027344 138.535156 153.363281 138.5625 C 158.109375 138.617188 162.773438 139.722656 167.4375 140.484375 C 169.757812 140.859375 172.09375 141.125 174.425781 141.410156 C 176.863281 141.703125 179.304688 141.972656 181.75 142.171875 C 184.25 142.378906 186.757812 142.5 189.265625 142.5 C 191.402344 142.503906 193.632812 142.496094 195.730469 142.078125 C 198.417969 141.542969 201.019531 140.28125 203.382812 138.9375 C 206.171875 137.351562 208.867188 135.402344 210.929688 132.933594 C 212.6875 130.828125 214.003906 128.175781 213.367188 125.386719 C 212.679688 122.371094 210.027344 120.410156 207.050781 119.960938 C 204.472656 119.574219 201.464844 120.304688 199.539062 122.105469 C 198.773438 122.820312 198.1875 123.792969 198.175781 124.859375 C 198.164062 126.132812 198.957031 127.203125 199.875 128.019531 C 200.515625 128.585938 201.269531 129.039062 202.027344 129.441406 C 202.34375 129.605469 202.839844 129.609375 203.113281 129.359375 C 203.394531 129.101562 203.171875 128.777344 202.902344 128.632812 C 201.710938 128.007812 200.398438 127.132812 199.910156 125.863281 C 199.558594 124.941406 199.792969 124.050781 200.378906 123.25 C 200.972656 122.4375 202.058594 121.789062 202.972656 121.441406 C 203.265625 121.332031 203.558594 121.242188 203.859375 121.160156 C 204.222656 121.066406 204.4375 121.023438 204.753906 120.980469 C 205.476562 120.878906 205.964844 120.875 206.632812 120.941406 C 207.210938 121 207.839844 121.152344 208.367188 121.367188 C 209.003906 121.632812 209.527344 121.96875 210.042969 122.421875 C 211.066406 123.324219 211.707031 124.640625 211.921875 125.972656 C 212.355469 128.664062 210.65625 131.234375 208.902344 133.109375 C 206.71875 135.441406 203.996094 137.269531 201.175781 138.75 C 199.914062 139.414062 198.59375 140.011719 197.289062 140.476562 C 196.726562 140.675781 196.15625 140.851562 195.578125 140.996094 C 195.335938 141.058594 195.09375 141.109375 194.851562 141.15625 C 195.039062 141.121094 194.851562 141.15625 194.820312 141.160156 C 194.710938 141.179688 194.601562 141.1875 194.492188 141.199219 C 194.171875 141.234375 193.847656 141.265625 193.527344 141.292969 C 188.652344 141.722656 183.726562 141.371094 178.871094 140.878906 C 174.089844 140.394531 169.316406 139.796875 164.582031 138.957031 C 159.96875 138.136719 155.328125 137.273438 150.621094 137.621094 C 148.128906 137.804688 145.675781 138.351562 143.328125 139.191406 C 141.8125 139.738281 140.347656 140.417969 138.886719 141.097656 C 135.878906 142.492188 132.90625 144.03125 130.222656 145.988281 C 129.003906 146.878906 127.859375 147.882812 126.949219 149.089844 C 126.246094 150.023438 125.714844 151.1875 125.8125 152.378906 C 125.871094 153.082031 127.429688 153.1875 127.375 152.527344 Z M 127.375 152.527344 " fill-opacity="1" fill-rule="nonzero"/></g></g><g clip-path="url(#ec9fbf0cfb)"><g clip-path="url(#a8f49a8356)"><path fill="#4569b2" d="M 221.042969 175.257812 C 221.199219 177.71875 222.003906 180.058594 223.898438 181.726562 C 225.480469 183.121094 227.691406 183.632812 229.761719 183.441406 C 234.863281 182.972656 239.261719 178.398438 240.417969 173.59375 C 241.699219 168.234375 239.140625 162.773438 235.671875 158.785156 C 231.738281 154.261719 226.222656 151.171875 220.230469 150.457031 C 213.425781 149.640625 206.824219 152.023438 200.429688 154 C 197.097656 155.03125 193.726562 155.980469 190.253906 156.410156 C 186.539062 156.871094 182.734375 156.648438 179.035156 156.15625 C 171.660156 155.175781 164.527344 152.964844 157.214844 151.667969 C 149.433594 150.285156 141.554688 150.515625 133.707031 151.140625 C 126.101562 151.75 118.515625 152.679688 110.878906 152.6875 C 109.882812 152.691406 110.371094 154.089844 111.210938 154.089844 C 119.335938 154.078125 127.402344 153.035156 135.496094 152.429688 C 139.535156 152.128906 143.585938 151.949219 147.636719 152.058594 C 151.4375 152.164062 155.183594 152.640625 158.914062 153.363281 C 166.207031 154.78125 173.351562 156.945312 180.757812 157.742188 C 184.433594 158.136719 188.175781 158.199219 191.835938 157.636719 C 195.269531 157.109375 198.605469 156.121094 201.914062 155.089844 C 208.34375 153.082031 214.996094 150.804688 221.816406 152.078125 C 227.578125 153.152344 232.664062 156.6875 236.042969 161.394531 C 239.132812 165.695312 240.53125 171.445312 237.679688 176.222656 C 235.453125 179.957031 230.507812 183.539062 226.003906 181.535156 C 223.65625 180.492188 222.675781 177.941406 222.523438 175.539062 C 222.472656 174.726562 220.984375 174.320312 221.042969 175.257812 Z M 221.042969 175.257812 " fill-opacity="1" fill-rule="nonzero"/></g></g><g clip-path="url(#ca89cd0734)"><g clip-path="url(#1a5cde99ca)"><path fill="#c3e9fa" d="M 128.570312 135.605469 C 130.796875 133.457031 133.359375 131.671875 136.1875 130.394531 C 138.867188 129.179688 141.695312 128.441406 144.597656 128.007812 C 150.664062 127.109375 156.800781 127.550781 162.914062 127.953125 C 169.132812 128.363281 175.417969 128.816406 181.628906 128.039062 C 184.648438 127.664062 187.644531 126.964844 190.476562 125.84375 C 193.28125 124.730469 195.945312 123.164062 198.320312 121.308594 C 202.011719 118.433594 204.851562 114.46875 205.660156 109.820312 C 206.378906 105.695312 205.503906 101.449219 203.597656 97.753906 C 201.609375 93.890625 198.582031 90.613281 194.945312 88.21875 C 191.328125 85.839844 187.050781 84.476562 182.699219 84.5625 C 180.507812 84.609375 178.324219 85.078125 176.296875 85.902344 C 175.191406 86.347656 174.132812 86.910156 173.128906 87.546875 C 172.03125 88.246094 171.050781 89.070312 170.0625 89.910156 C 168.480469 91.253906 166.011719 93.601562 167.289062 95.882812 C 167.738281 96.6875 168.597656 97.230469 169.425781 97.59375 C 170.535156 98.078125 171.71875 98.34375 172.917969 98.53125 C 175.117188 98.871094 177.386719 98.890625 179.605469 98.734375 C 179.957031 98.710938 180.242188 98.382812 180.109375 98.035156 C 179.964844 97.652344 179.523438 97.496094 179.144531 97.523438 C 177.859375 97.613281 176.8125 97.625 175.496094 97.566406 C 174.859375 97.539062 174.222656 97.484375 173.585938 97.410156 C 173.292969 97.378906 173 97.335938 172.703125 97.289062 C 172.5625 97.265625 172.417969 97.242188 172.277344 97.214844 C 172.042969 97.171875 172.433594 97.246094 172.203125 97.203125 C 172.113281 97.183594 172.019531 97.164062 171.929688 97.144531 C 171.394531 97.027344 170.867188 96.878906 170.351562 96.691406 C 170.296875 96.667969 170.238281 96.648438 170.183594 96.625 C 169.992188 96.550781 170.34375 96.695312 170.15625 96.613281 C 170.050781 96.566406 169.949219 96.519531 169.84375 96.46875 C 169.746094 96.417969 169.648438 96.367188 169.550781 96.3125 C 169.503906 96.285156 169.460938 96.257812 169.414062 96.230469 C 169.375 96.207031 169.175781 96.074219 169.359375 96.199219 C 169.199219 96.089844 169.046875 95.964844 168.90625 95.828125 C 168.878906 95.796875 168.769531 95.675781 168.90625 95.828125 C 168.875 95.792969 168.84375 95.757812 168.816406 95.722656 C 168.75 95.644531 168.695312 95.558594 168.640625 95.46875 C 168.558594 95.339844 168.707031 95.605469 168.640625 95.46875 C 168.621094 95.429688 168.601562 95.390625 168.585938 95.351562 C 168.550781 95.273438 168.527344 95.191406 168.503906 95.105469 C 168.460938 94.960938 168.527344 95.246094 168.5 95.097656 C 168.492188 95.050781 168.484375 95.007812 168.480469 94.964844 C 168.46875 94.859375 168.46875 94.753906 168.472656 94.648438 C 168.472656 94.601562 168.476562 94.554688 168.480469 94.507812 C 168.46875 94.664062 168.488281 94.5 168.492188 94.472656 C 168.507812 94.371094 168.535156 94.269531 168.566406 94.171875 C 168.597656 94.0625 168.636719 93.960938 168.675781 93.855469 C 168.699219 93.800781 168.722656 93.746094 168.75 93.695312 C 168.804688 93.570312 168.773438 93.636719 168.816406 93.558594 C 169.121094 92.996094 169.535156 92.492188 169.972656 92.023438 C 170.519531 91.429688 171.140625 90.917969 171.746094 90.390625 C 172.222656 89.976562 172.71875 89.582031 173.226562 89.210938 C 175.085938 87.855469 177.050781 86.890625 179.308594 86.292969 C 179.371094 86.277344 179.433594 86.261719 179.496094 86.246094 C 179.707031 86.195312 179.363281 86.277344 179.570312 86.226562 C 179.695312 86.199219 179.820312 86.171875 179.949219 86.144531 C 180.21875 86.085938 180.492188 86.035156 180.765625 85.992188 C 181.289062 85.90625 181.816406 85.847656 182.34375 85.8125 C 182.59375 85.792969 182.847656 85.785156 183.097656 85.777344 C 183.308594 85.769531 182.941406 85.777344 183.152344 85.777344 C 183.214844 85.773438 183.277344 85.773438 183.339844 85.773438 C 183.488281 85.773438 183.632812 85.777344 183.78125 85.777344 C 184.300781 85.789062 184.820312 85.828125 185.339844 85.882812 C 185.585938 85.910156 185.835938 85.941406 186.082031 85.980469 C 186.207031 85.996094 186.328125 86.015625 186.453125 86.039062 C 186.511719 86.046875 186.574219 86.058594 186.636719 86.070312 C 186.675781 86.078125 186.949219 86.128906 186.738281 86.089844 C 187.246094 86.1875 187.753906 86.3125 188.253906 86.449219 C 188.757812 86.589844 189.253906 86.75 189.746094 86.929688 C 189.980469 87.015625 190.214844 87.105469 190.445312 87.199219 C 190.480469 87.210938 190.675781 87.292969 190.484375 87.214844 C 190.542969 87.238281 190.601562 87.261719 190.660156 87.289062 C 190.792969 87.34375 190.929688 87.402344 191.0625 87.464844 C 192.023438 87.894531 192.949219 88.398438 193.839844 88.957031 C 194.054688 89.09375 194.265625 89.230469 194.476562 89.375 C 194.5 89.386719 194.671875 89.507812 194.523438 89.40625 C 194.578125 89.441406 194.628906 89.476562 194.679688 89.515625 C 194.800781 89.597656 194.921875 89.6875 195.042969 89.773438 C 195.46875 90.085938 195.886719 90.410156 196.292969 90.75 C 196.703125 91.089844 197.097656 91.441406 197.480469 91.804688 C 197.667969 91.980469 197.847656 92.160156 198.027344 92.339844 C 198.117188 92.429688 198.207031 92.519531 198.292969 92.613281 C 198.335938 92.65625 198.382812 92.703125 198.425781 92.75 C 198.441406 92.769531 198.621094 92.960938 198.515625 92.847656 C 199.234375 93.621094 199.898438 94.445312 200.511719 95.304688 C 201.730469 97.023438 202.621094 98.707031 203.332031 100.726562 C 204.007812 102.652344 204.359375 104.523438 204.375 106.609375 C 204.382812 107.667969 204.300781 108.570312 204.125 109.550781 C 203.9375 110.578125 203.644531 111.582031 203.265625 112.554688 C 202.460938 114.609375 201.175781 116.507812 199.613281 118.167969 C 197.742188 120.148438 195.382812 121.78125 192.984375 123.136719 C 190.402344 124.597656 187.539062 125.613281 184.648438 126.242188 C 178.621094 127.550781 172.453125 127.328125 166.335938 126.960938 C 160.105469 126.585938 153.859375 125.992188 147.617188 126.425781 C 141.574219 126.847656 135.613281 128.441406 130.636719 131.980469 C 129.507812 132.785156 128.445312 133.679688 127.449219 134.644531 C 126.785156 135.28125 128.03125 136.128906 128.570312 135.605469 Z M 128.570312 135.605469 " fill-opacity="1" fill-rule="nonzero"/></g></g><g clip-path="url(#70771cdeec)"><g clip-path="url(#2675e9fcd1)"><path fill="#73cdda" d="M 122.410156 167.546875 C 127.722656 163.183594 134.171875 160.246094 140.875 158.730469 C 147.582031 157.214844 154.65625 157.089844 161.355469 158.722656 C 167.734375 160.273438 173.636719 163.617188 177.832031 168.652344 C 178.800781 169.816406 179.609375 171.0625 180.453125 172.324219 C 181.367188 173.6875 182.296875 175.039062 183.265625 176.363281 C 185.28125 179.117188 187.507812 181.785156 190.234375 183.871094 C 192.65625 185.722656 195.671875 187.039062 198.78125 186.519531 C 200.484375 186.230469 202.027344 185.417969 203.386719 184.382812 C 204.601562 183.457031 205.660156 182.386719 206.457031 181.078125 C 207.882812 178.734375 208.335938 175.84375 207.714844 173.183594 C 207.097656 170.539062 205.246094 168.296875 202.699219 167.289062 C 201.214844 166.703125 199.585938 166.578125 198.007812 166.71875 C 196.773438 166.832031 195.609375 167.507812 194.601562 168.179688 C 193.601562 168.847656 192.671875 169.648438 191.875 170.546875 C 191.363281 171.125 190.613281 171.9375 190.816406 172.777344 C 191.015625 173.613281 191.929688 173.644531 192.582031 173.417969 C 193.613281 173.066406 194.5625 172.367188 195.453125 171.761719 C 195.789062 171.535156 195.617188 170.988281 195.402344 170.753906 C 195.128906 170.453125 194.734375 170.375 194.398438 170.605469 C 193.738281 171.054688 193.066406 171.488281 192.355469 171.84375 C 192.152344 171.945312 191.945312 172.035156 191.734375 172.105469 C 191.585938 172.152344 191.878906 172.070312 191.742188 172.101562 C 191.710938 172.109375 191.675781 172.113281 191.640625 172.121094 C 191.480469 172.144531 191.703125 172.144531 191.773438 172.164062 C 191.914062 172.203125 192.089844 172.417969 192.179688 172.632812 C 192.226562 172.742188 192.203125 172.707031 192.1875 172.835938 C 192.195312 172.78125 192.210938 172.730469 192.230469 172.679688 C 192.148438 172.910156 192.253906 172.648438 192.285156 172.589844 C 192.519531 172.152344 192.703125 171.960938 192.972656 171.660156 C 193.773438 170.757812 194.714844 169.964844 195.71875 169.292969 C 196.703125 168.636719 197.773438 168.183594 198.953125 168.117188 C 200.398438 168.035156 201.789062 168.273438 203.0625 168.910156 C 204.042969 169.398438 204.917969 170.257812 205.488281 171.183594 C 206.105469 172.199219 206.433594 173.324219 206.539062 174.507812 C 206.652344 175.808594 206.484375 177.027344 206.074219 178.285156 C 205.175781 181.046875 202.808594 183.359375 200.132812 184.539062 C 197.355469 185.761719 194.46875 185.085938 192.042969 183.546875 C 189.242188 181.773438 187.023438 179.183594 185.019531 176.566406 C 183.113281 174.078125 181.5 171.339844 179.605469 168.820312 C 175.566406 163.445312 169.640625 159.730469 163.214844 157.816406 C 156.5625 155.835938 149.429688 155.652344 142.613281 156.859375 C 135.71875 158.082031 129.058594 160.753906 123.375 164.835938 C 122.683594 165.332031 122.011719 165.851562 121.355469 166.390625 C 120.699219 166.929688 121.75 168.089844 122.410156 167.546875 Z M 122.410156 167.546875 " fill-opacity="1" fill-rule="nonzero"/></g></g><g clip-path="url(#733c607724)"><g clip-path="url(#3d39ccf924)"><path fill="#c3e9fa" d="M 223.085938 141.121094 C 227.675781 140.230469 232.265625 139.136719 236.617188 137.402344 C 240.457031 135.867188 244.144531 133.777344 246.996094 130.746094 C 249.859375 127.710938 251.527344 123.816406 252.050781 119.707031 C 252.375 117.171875 252.28125 114.59375 251.957031 112.058594 C 251.644531 109.617188 251.132812 107.222656 250.285156 104.90625 C 248.65625 100.441406 245.875 96.175781 241.828125 93.53125 C 237.519531 90.714844 231.804688 90.175781 227.023438 92.101562 C 223.054688 93.703125 219.753906 97.449219 220.113281 101.910156 C 220.292969 104.171875 221.421875 106.214844 223.007812 107.820312 C 223.484375 108.300781 224.015625 108.71875 224.542969 109.148438 C 225.15625 109.648438 225.792969 110.117188 226.46875 110.535156 C 227.578125 111.226562 228.800781 111.785156 230.085938 112.0625 C 232.132812 112.503906 234.304688 112.191406 235.828125 110.679688 C 237.261719 109.261719 237.703125 107.085938 237.652344 105.148438 C 237.609375 103.542969 237.238281 101.953125 236.6875 100.449219 C 236.175781 100.464844 235.667969 100.476562 235.15625 100.492188 C 235.398438 100.941406 235.746094 101.257812 236.164062 101.539062 C 236.511719 101.777344 236.839844 101.980469 237.042969 102.363281 C 237.207031 102.667969 237.660156 102.746094 237.972656 102.738281 C 238.140625 102.734375 238.734375 102.628906 238.570312 102.320312 C 238.332031 101.871094 237.984375 101.554688 237.5625 101.273438 C 237.214844 101.035156 236.890625 100.832031 236.6875 100.449219 C 236.523438 100.144531 236.066406 100.066406 235.753906 100.074219 C 235.550781 100.082031 235.039062 100.167969 235.15625 100.492188 C 235.988281 102.75 236.417969 105.257812 235.816406 107.628906 C 235.589844 108.511719 235.1875 109.347656 234.59375 110.046875 C 234.320312 110.367188 234.054688 110.59375 233.683594 110.839844 C 233.324219 111.078125 233.074219 111.1875 232.605469 111.328125 C 232.582031 111.335938 232.410156 111.378906 232.566406 111.339844 C 232.515625 111.351562 232.464844 111.363281 232.410156 111.375 C 232.304688 111.398438 232.199219 111.414062 232.09375 111.429688 C 232.039062 111.4375 231.984375 111.445312 231.929688 111.453125 C 232.121094 111.429688 231.933594 111.449219 231.898438 111.453125 C 231.765625 111.460938 231.632812 111.464844 231.5 111.464844 C 231.441406 111.464844 231.386719 111.464844 231.328125 111.460938 C 231.542969 111.46875 231.339844 111.460938 231.300781 111.457031 C 231.179688 111.449219 231.058594 111.4375 230.9375 111.421875 C 230.875 111.414062 230.816406 111.40625 230.753906 111.394531 C 230.542969 111.363281 230.921875 111.429688 230.710938 111.390625 C 230.5625 111.359375 230.414062 111.328125 230.265625 111.289062 C 230.136719 111.257812 230.003906 111.21875 229.875 111.179688 C 229.65625 111.113281 230.011719 111.226562 229.792969 111.152344 C 229.726562 111.128906 229.660156 111.105469 229.59375 111.082031 C 229.289062 110.96875 228.992188 110.839844 228.699219 110.703125 C 228.121094 110.429688 227.519531 110.054688 226.964844 109.675781 C 224.90625 108.261719 223.023438 106.503906 222.140625 104.128906 C 221.445312 102.265625 221.492188 100.167969 222.242188 98.328125 C 223.042969 96.367188 224.53125 94.769531 226.320312 93.65625 C 227.3125 93.035156 228.394531 92.589844 229.527344 92.273438 C 230.699219 91.941406 231.984375 91.785156 233.207031 91.761719 C 234.367188 91.742188 235.476562 91.871094 236.601562 92.152344 C 236.875 92.222656 237.148438 92.300781 237.417969 92.386719 C 237.273438 92.339844 237.496094 92.410156 237.503906 92.414062 C 237.570312 92.4375 237.636719 92.460938 237.703125 92.484375 C 237.859375 92.539062 238.011719 92.597656 238.164062 92.65625 C 238.699219 92.867188 239.214844 93.113281 239.652344 93.347656 C 243.816406 95.617188 246.675781 99.757812 248.417969 104.066406 C 249.316406 106.285156 249.898438 108.589844 250.261719 110.949219 C 250.664062 113.53125 250.816406 116.167969 250.574219 118.773438 C 250.375 120.917969 249.890625 123.050781 249.039062 125.03125 C 248.257812 126.84375 247.179688 128.515625 245.867188 129.992188 C 243.183594 133.019531 239.5625 135.101562 235.875 136.613281 C 231.554688 138.382812 227.148438 139.4375 222.585938 140.328125 C 222.511719 140.339844 222.441406 140.355469 222.371094 140.367188 C 222.140625 140.414062 221.78125 140.601562 222.03125 140.867188 C 222.273438 141.121094 222.753906 141.183594 223.085938 141.121094 Z M 223.085938 141.121094 " fill-opacity="1" fill-rule="nonzero"/></g></g><g clip-path="url(#cd0e3377ac)"><g clip-path="url(#5e0717649c)"><path fill="#42b6e9" d="M 211.460938 145.28125 C 216.296875 143.609375 221.289062 142.328125 226.316406 141.515625 C 231.597656 140.664062 236.796875 140.316406 242.128906 140.664062 C 243.308594 140.742188 244.613281 140.875 245.917969 141.054688 C 247.207031 141.230469 248.488281 141.460938 249.625 141.710938 C 252.167969 142.273438 254.46875 142.992188 256.828125 143.992188 C 261.503906 145.980469 265.734375 149.015625 269.058594 152.90625 C 270.828125 154.980469 272.421875 157.304688 273.542969 159.792969 C 274.589844 162.125 275.15625 164.65625 275.144531 167.210938 C 275.121094 171.972656 272.992188 176.550781 269.246094 179.542969 C 267.3125 181.089844 264.988281 182.105469 262.574219 182.621094 C 261.273438 182.902344 259.882812 183.054688 258.566406 182.984375 C 257.183594 182.910156 255.855469 182.675781 254.492188 182.242188 C 254.273438 182.171875 253.976562 182.0625 253.691406 181.949219 C 253.382812 181.824219 253.074219 181.683594 252.773438 181.539062 C 252.308594 181.308594 251.746094 180.96875 251.277344 180.640625 C 250.398438 180.023438 249.601562 179.234375 249 178.339844 C 247.78125 176.523438 247.433594 174.335938 247.933594 172.21875 C 248.222656 171 248.777344 169.867188 249.476562 168.828125 C 250.265625 167.652344 251.265625 166.484375 252.394531 165.617188 C 254.003906 164.386719 255.859375 163.582031 257.808594 163.117188 C 257.921875 163.089844 258.035156 163.066406 258.152344 163.042969 C 258.207031 163.027344 258.265625 163.019531 258.324219 163.007812 C 258.183594 163.035156 258.367188 163 258.382812 162.996094 C 258.625 162.953125 258.867188 162.917969 259.109375 162.886719 C 259.324219 162.863281 259.539062 162.84375 259.753906 162.832031 C 259.9375 162.820312 259.59375 162.835938 259.773438 162.828125 C 259.824219 162.828125 259.875 162.828125 259.925781 162.824219 C 260.046875 162.824219 260.164062 162.824219 260.28125 162.828125 C 260.378906 162.828125 260.476562 162.835938 260.574219 162.839844 C 260.75 162.851562 260.382812 162.824219 260.558594 162.839844 C 260.605469 162.84375 260.648438 162.847656 260.695312 162.851562 C 260.789062 162.863281 260.878906 162.878906 260.96875 162.890625 C 261.011719 162.898438 261.058594 162.90625 261.101562 162.914062 C 260.839844 162.867188 261.054688 162.90625 261.109375 162.917969 C 261.191406 162.9375 261.273438 162.960938 261.355469 162.984375 C 261.402344 163 261.546875 163.050781 261.332031 162.976562 C 261.371094 162.988281 261.40625 163.003906 261.445312 163.019531 C 261.519531 163.046875 261.589844 163.078125 261.664062 163.109375 C 261.789062 163.171875 261.527344 163.039062 261.648438 163.105469 C 261.695312 163.128906 261.738281 163.152344 261.78125 163.179688 C 261.84375 163.214844 261.902344 163.257812 261.960938 163.300781 C 261.828125 163.203125 262.011719 163.347656 262.042969 163.375 C 262.09375 163.421875 262.144531 163.476562 262.191406 163.527344 C 262.214844 163.554688 262.234375 163.582031 262.257812 163.609375 C 262.304688 163.664062 262.222656 163.554688 262.292969 163.65625 C 262.449219 163.898438 262.558594 164.234375 262.585938 164.464844 C 262.6875 165.320312 262.359375 166.210938 261.984375 166.964844 C 261.609375 167.722656 261.132812 168.433594 260.632812 169.113281 C 260.324219 169.53125 261.816406 169.898438 262.105469 169.507812 C 262.847656 168.503906 263.542969 167.421875 263.933594 166.230469 C 264.167969 165.515625 264.265625 164.714844 263.980469 164 C 263.367188 162.457031 261.265625 162.117188 259.8125 162.101562 C 257.769531 162.082031 255.726562 162.648438 253.875 163.46875 C 252.945312 163.875 252.058594 164.378906 251.238281 164.976562 C 250.082031 165.824219 249.082031 166.933594 248.242188 168.089844 C 246.835938 170.027344 245.925781 172.398438 246.195312 174.808594 C 246.441406 177.011719 247.640625 178.957031 249.328125 180.371094 C 251.441406 182.144531 254.144531 183.09375 256.851562 183.503906 C 259.734375 183.945312 262.734375 183.664062 265.503906 182.75 C 270.179688 181.210938 273.929688 177.6875 275.664062 173.097656 C 277.457031 168.347656 276.8125 163.003906 274.453125 158.566406 C 271.941406 153.84375 268.171875 149.761719 263.734375 146.769531 C 259.445312 143.875 254.507812 142.007812 249.449219 140.960938 C 244.15625 139.863281 238.71875 139.625 233.328125 139.949219 C 228.019531 140.269531 222.742188 141.167969 217.589844 142.484375 C 215.175781 143.101562 212.789062 143.824219 210.433594 144.636719 C 210.148438 144.738281 210.085938 144.953125 210.363281 145.125 C 210.65625 145.308594 211.128906 145.394531 211.460938 145.28125 Z M 211.460938 145.28125 " fill-opacity="1" fill-rule="nonzero"/></g></g><g clip-path="url(#10b67347d7)"><g clip-path="url(#2bcd90c4de)"><path fill="#42b6e9" d="M 254.46875 142.359375 C 258.898438 143.960938 263.441406 141.773438 266.804688 138.933594 C 268.695312 137.339844 270.347656 135.464844 271.765625 133.449219 C 273.054688 131.613281 274.164062 129.621094 274.914062 127.503906 C 275.578125 125.628906 275.960938 123.597656 276.039062 121.613281 C 276.109375 119.894531 275.917969 118.179688 275.308594 116.5625 C 274.335938 113.980469 272.265625 111.960938 269.621094 111.109375 C 267.21875 110.339844 264.59375 110.449219 262.191406 111.15625 C 260.078125 111.777344 257.929688 112.960938 256.710938 114.84375 C 256.148438 115.714844 255.863281 116.726562 255.886719 117.761719 C 255.921875 119.136719 256.539062 120.5 257.320312 121.609375 C 258.300781 123.003906 259.882812 124.140625 261.578125 124.472656 C 262.097656 124.578125 262.761719 124.585938 263.199219 124.234375 C 263.765625 123.777344 263.710938 122.976562 263.566406 122.339844 C 263.3125 121.246094 262.675781 120.238281 262.042969 119.324219 C 261.949219 119.183594 261.558594 118.769531 261.390625 119.058594 C 261.222656 119.34375 261.480469 119.789062 261.636719 120.019531 C 261.734375 120.160156 261.832031 120.304688 261.925781 120.449219 C 261.84375 120.324219 261.984375 120.542969 261.984375 120.542969 C 262.023438 120.609375 262.0625 120.671875 262.101562 120.738281 C 262.175781 120.863281 262.242188 120.988281 262.308594 121.113281 C 262.339844 121.171875 262.371094 121.230469 262.398438 121.289062 C 262.4375 121.371094 262.4375 121.367188 262.390625 121.273438 C 262.40625 121.308594 262.425781 121.347656 262.441406 121.382812 C 262.488281 121.488281 262.527344 121.59375 262.566406 121.699219 C 262.582031 121.734375 262.636719 121.910156 262.574219 121.714844 C 262.589844 121.761719 262.601562 121.808594 262.617188 121.855469 C 262.640625 121.945312 262.660156 122.03125 262.675781 122.121094 C 262.640625 121.929688 262.679688 122.214844 262.683594 122.273438 C 262.683594 122.304688 262.679688 122.433594 262.6875 122.273438 C 262.683594 122.308594 262.679688 122.34375 262.675781 122.375 C 262.671875 122.4375 262.65625 122.5 262.640625 122.5625 C 262.613281 122.664062 262.675781 122.46875 262.640625 122.5625 C 262.628906 122.589844 262.617188 122.617188 262.605469 122.640625 C 262.578125 122.699219 262.542969 122.753906 262.503906 122.804688 C 262.425781 122.902344 262.511719 122.804688 262.441406 122.867188 C 262.398438 122.902344 262.355469 122.933594 262.308594 122.960938 C 262.203125 123.023438 262.082031 123.066406 261.960938 123.097656 C 262.046875 123.074219 261.871094 123.109375 261.839844 123.113281 C 261.773438 123.121094 261.707031 123.121094 261.640625 123.125 C 261.480469 123.125 261.324219 123.113281 261.167969 123.089844 C 260.839844 123.042969 260.589844 122.964844 260.230469 122.820312 C 260.058594 122.75 259.886719 122.671875 259.722656 122.589844 C 259.636719 122.542969 259.550781 122.496094 259.464844 122.449219 C 259.324219 122.371094 259.558594 122.507812 259.421875 122.425781 C 259.363281 122.390625 259.308594 122.355469 259.253906 122.320312 C 259.082031 122.210938 258.917969 122.09375 258.761719 121.972656 C 258.679688 121.910156 258.601562 121.84375 258.523438 121.777344 C 258.503906 121.761719 258.375 121.648438 258.496094 121.757812 C 258.445312 121.710938 258.394531 121.664062 258.34375 121.617188 C 258.195312 121.476562 258.054688 121.324219 257.921875 121.167969 C 258.058594 121.332031 257.851562 121.078125 257.816406 121.035156 C 257.746094 120.941406 257.675781 120.84375 257.613281 120.742188 C 257.75 120.957031 257.570312 120.667969 257.539062 120.613281 C 257.492188 120.535156 257.453125 120.453125 257.40625 120.371094 C 257.371094 120.308594 257.339844 120.246094 257.304688 120.183594 C 257.289062 120.152344 257.273438 120.117188 257.257812 120.085938 C 257.167969 119.910156 257.328125 120.238281 257.269531 120.117188 C 257.214844 119.996094 257.160156 119.871094 257.113281 119.742188 C 257.089844 119.683594 257.066406 119.621094 257.042969 119.558594 C 257 119.433594 257.101562 119.742188 257.0625 119.613281 C 257.050781 119.574219 257.039062 119.535156 257.027344 119.492188 C 256.992188 119.371094 256.960938 119.25 256.9375 119.125 C 256.925781 119.074219 256.886719 118.84375 256.925781 119.082031 C 256.914062 119.011719 256.902344 118.941406 256.894531 118.871094 C 256.882812 118.753906 256.875 118.636719 256.871094 118.515625 C 256.867188 118.457031 256.867188 118.398438 256.867188 118.339844 C 256.867188 118.160156 256.859375 118.429688 256.871094 118.25 C 256.882812 118.011719 256.917969 117.777344 256.96875 117.542969 C 256.996094 117.433594 257.023438 117.320312 257.058594 117.210938 C 257.066406 117.1875 257.074219 117.160156 257.082031 117.132812 C 257.113281 117.035156 257.050781 117.230469 257.082031 117.132812 C 257.105469 117.070312 257.128906 117.007812 257.152344 116.945312 C 257.242188 116.722656 257.351562 116.507812 257.46875 116.296875 C 257.71875 115.863281 258.03125 115.464844 258.378906 115.101562 C 258.472656 115.003906 258.464844 115.011719 258.597656 114.886719 C 258.699219 114.792969 258.804688 114.699219 258.910156 114.613281 C 259.117188 114.433594 259.335938 114.269531 259.558594 114.113281 C 260.515625 113.445312 261.589844 112.953125 262.703125 112.597656 C 263.863281 112.230469 265.027344 112.03125 266.289062 111.992188 C 266.90625 111.972656 267.527344 112.003906 268.140625 112.078125 C 268.445312 112.113281 268.75 112.164062 269.050781 112.226562 C 269.121094 112.242188 269.191406 112.257812 269.261719 112.273438 C 269.300781 112.28125 269.335938 112.289062 269.371094 112.296875 C 269.261719 112.273438 269.382812 112.300781 269.398438 112.304688 C 269.550781 112.34375 269.703125 112.386719 269.851562 112.433594 C 270.429688 112.609375 270.984375 112.839844 271.511719 113.125 C 271.578125 113.160156 271.640625 113.195312 271.703125 113.230469 C 271.8125 113.292969 271.59375 113.164062 271.703125 113.230469 C 271.734375 113.25 271.761719 113.269531 271.792969 113.285156 C 271.925781 113.367188 272.054688 113.453125 272.183594 113.542969 C 272.300781 113.625 272.414062 113.714844 272.527344 113.800781 C 272.585938 113.847656 272.640625 113.894531 272.695312 113.9375 C 272.722656 113.960938 272.75 113.984375 272.777344 114.007812 C 272.914062 114.125 272.703125 113.941406 272.789062 114.015625 C 273.015625 114.222656 273.226562 114.441406 273.425781 114.671875 C 273.460938 114.710938 273.554688 114.820312 273.402344 114.636719 C 273.425781 114.667969 273.449219 114.695312 273.472656 114.726562 C 273.519531 114.78125 273.5625 114.84375 273.609375 114.902344 C 273.707031 115.03125 273.804688 115.167969 273.894531 115.304688 C 274.003906 115.46875 273.792969 115.136719 273.925781 115.355469 C 273.964844 115.421875 274.003906 115.488281 274.042969 115.554688 C 274.128906 115.703125 274.207031 115.855469 274.285156 116.007812 C 274.351562 116.148438 274.195312 115.824219 274.261719 115.964844 C 274.28125 116.003906 274.296875 116.039062 274.3125 116.078125 C 274.347656 116.152344 274.378906 116.226562 274.410156 116.300781 C 274.480469 116.46875 274.542969 116.636719 274.601562 116.808594 C 274.617188 116.851562 274.664062 117 274.597656 116.789062 C 274.609375 116.832031 274.621094 116.871094 274.632812 116.914062 C 274.660156 116.996094 274.683594 117.078125 274.707031 117.164062 C 274.757812 117.347656 274.804688 117.535156 274.84375 117.726562 C 274.863281 117.8125 274.882812 117.902344 274.898438 117.992188 C 274.90625 118.039062 274.917969 118.085938 274.925781 118.128906 C 274.953125 118.289062 274.902344 117.988281 274.925781 118.148438 C 274.960938 118.355469 274.984375 118.5625 275.007812 118.769531 C 275.101562 119.675781 275.09375 120.488281 275.023438 121.339844 C 274.863281 123.308594 274.433594 125.304688 273.691406 127.136719 C 272.824219 129.273438 271.609375 131.269531 270.222656 133.109375 C 268.75 135.0625 267.039062 136.851562 265.085938 138.335938 C 262.019531 140.671875 257.976562 142.394531 254.132812 141.003906 C 253.800781 140.882812 253.78125 141.257812 253.835938 141.484375 C 253.914062 141.792969 254.140625 142.242188 254.46875 142.359375 Z M 254.46875 142.359375 " fill-opacity="1" fill-rule="nonzero"/></g></g><g clip-path="url(#9de86da617)"><g clip-path="url(#91e9d07fa7)"><path fill="#4569b2" d="M 110.050781 138.566406 C 111.28125 136.082031 112.925781 133.8125 114.96875 131.925781 C 116.921875 130.113281 119.207031 128.679688 121.628906 127.566406 C 126.90625 125.144531 132.78125 124.222656 138.53125 123.757812 C 144.851562 123.246094 151.199219 123.316406 157.535156 123.289062 C 163.511719 123.261719 169.527344 123.207031 175.449219 122.3125 C 180.960938 121.476562 186.363281 119.695312 190.65625 116.039062 C 195.421875 111.984375 198.570312 106.007812 198.902344 99.753906 C 199.066406 96.613281 198.480469 93.472656 197.179688 90.605469 C 195.785156 87.539062 193.566406 84.894531 190.855469 82.886719 C 186.464844 79.644531 180.796875 78.664062 175.4375 79.261719 C 170.507812 79.8125 165.183594 81.832031 162.453125 86.199219 C 161.078125 88.394531 160.648438 91.015625 160.917969 93.566406 C 161.242188 96.570312 162.367188 99.566406 164.296875 101.921875 C 165.691406 103.625 167.664062 105.113281 169.894531 105.453125 C 171.640625 105.71875 173.324219 105 174.019531 103.332031 C 174.433594 102.332031 174.476562 101.207031 174.382812 100.140625 C 174.242188 98.5 173.738281 96.890625 173.136719 95.367188 C 173.039062 95.117188 172.816406 94.652344 172.503906 94.613281 C 172.191406 94.570312 172.367188 95.152344 172.414062 95.269531 C 173.269531 97.449219 174.242188 100.496094 172.863281 102.679688 C 171.90625 104.191406 169.988281 104.304688 168.417969 103.824219 C 167.433594 103.519531 166.519531 102.960938 165.738281 102.3125 C 165.257812 101.917969 164.902344 101.550781 164.507812 101.09375 C 164.296875 100.84375 164.15625 100.660156 164.007812 100.453125 C 163.914062 100.324219 163.828125 100.191406 163.738281 100.058594 C 163.695312 99.992188 163.652344 99.921875 163.609375 99.855469 C 163.59375 99.832031 163.445312 99.578125 163.507812 99.6875 C 162.796875 98.46875 162.371094 97.199219 162.050781 95.761719 C 161.757812 94.441406 161.664062 93.074219 161.8125 91.730469 C 162.074219 89.335938 163.210938 87.121094 164.917969 85.425781 C 166.695312 83.65625 168.988281 82.460938 171.359375 81.675781 C 176.335938 80.03125 182.164062 80.042969 187.074219 81.929688 C 189.875 83.007812 192.363281 84.867188 194.285156 87.152344 C 196.203125 89.433594 197.375 92.089844 197.824219 95.050781 C 198.75 101.179688 196.445312 107.476562 192.464844 112.132812 C 188.664062 116.574219 183.324219 119.160156 177.671875 120.386719 C 171.984375 121.621094 166.089844 121.773438 160.292969 121.847656 C 153.945312 121.925781 147.59375 121.804688 141.25 122.128906 C 135.34375 122.433594 129.339844 123.089844 123.730469 125.046875 C 118.597656 126.839844 113.988281 129.902344 110.898438 134.410156 C 110.265625 135.332031 109.707031 136.300781 109.210938 137.304688 C 109.070312 137.585938 109.304688 138.027344 109.457031 138.253906 C 109.523438 138.355469 109.910156 138.847656 110.050781 138.566406 Z M 110.050781 138.566406 " fill-opacity="1" fill-rule="nonzero"/></g></g></svg>