<?xml version="1.0" encoding="UTF-8"?>
<svg id="Layer_1" xmlns="http://www.w3.org/2000/svg" version="1.1" xmlns:xlink="http://www.w3.org/1999/xlink" viewBox="0 0 362 500">
  <!-- Generator: Adobe Illustrator 29.3.1, SVG Export Plug-In . SVG Version: 2.1.0 Build 151)  -->
  <defs>
    <style>
      .st0 {
        clip-path: url(#clippath-6);
      }

      .st1 {
        clip-path: url(#clippath-7);
      }

      .st2 {
        clip-path: url(#clippath-4);
      }

      .st3 {
        fill: #603a12;
      }

      .st4 {
        clip-path: url(#clippath-9);
      }

      .st5 {
        clip-path: url(#clippath-10);
      }

      .st6, .st7 {
        fill: none;
      }

      .st8 {
        clip-path: url(#clippath-1);
      }

      .st9 {
        clip-path: url(#clippath-5);
      }

      .st10 {
        clip-path: url(#clippath-8);
      }

      .st11 {
        clip-path: url(#clippath-3);
      }

      .st12 {
        fill: #efa95a;
      }

      .st13 {
        fill: #e4fcfc;
      }

      .st14 {
        clip-path: url(#clippath-2);
      }

      .st7 {
        stroke: #e6affc;
        stroke-width: 4px;
      }

      .st15 {
        clip-path: url(#clippath);
      }
    </style>
    <clipPath id="clippath">
      <rect class="st6" y="1.5" width="362" height="495.7"/>
    </clipPath>
    <clipPath id="clippath-1">
      <rect class="st6" x="49" y="45.2" width="267.5" height="244.4"/>
    </clipPath>
    <clipPath id="clippath-2">
      <path class="st6" d="M182.7,45.2c-73.9,0-133.8,54.7-133.8,122.2s59.9,122.2,133.8,122.2,133.8-54.7,133.8-122.2-59.9-122.2-133.8-122.2Z"/>
    </clipPath>
    <clipPath id="clippath-3">
      <rect class="st6" x="49" y="45.2" width="267.5" height="244.3"/>
    </clipPath>
    <clipPath id="clippath-4">
      <path class="st6" d="M182.7,45.2c-73.9,0-133.8,54.7-133.8,122.2s59.9,122.2,133.8,122.2,133.8-54.7,133.8-122.2-59.9-122.2-133.8-122.2Z"/>
    </clipPath>
    <clipPath id="clippath-5">
      <rect class="st6" x="59.7" y="227.9" width="244.9" height="53"/>
    </clipPath>
    <clipPath id="clippath-6">
      <path class="st6" d="M59.7,177.3c0,27.6,12,54,33.3,73.4,21.3,19.5,50.3,30.4,80.4,30.4h18.1c30.2,0,59.1-10.9,80.4-30.4,21.3-19.5,33.3-45.9,33.3-73.4s-12-54-33.3-73.4c-21.3-19.5-50.2-30.4-80.4-30.4h-18.1c-30.2,0-59.1,10.9-80.4,30.4-21.3,19.5-33.3,45.9-33.3,73.4Z"/>
    </clipPath>
    <clipPath id="clippath-7">
      <rect class="st6" x="59.7" y="227.9" width="243.3" height="53"/>
    </clipPath>
    <clipPath id="clippath-8">
      <path class="st6" d="M59.7,177.3c0,27.6,12,54,33.3,73.4,21.3,19.5,50.3,30.4,80.4,30.4h18.1c30.2,0,59.1-10.9,80.4-30.4,21.3-19.5,33.3-45.9,33.3-73.4s-12-54-33.3-73.4c-21.3-19.5-50.2-30.4-80.4-30.4h-18.1c-30.2,0-59.1,10.9-80.4,30.4-21.3,19.5-33.3,45.9-33.3,73.4Z"/>
    </clipPath>
    <clipPath id="clippath-9">
      <rect class="st6" x="74.8" y="73.4" width="228.2" height="176.1"/>
    </clipPath>
    <clipPath id="clippath-10">
      <path class="st6" d="M59.7,177.3c0,27.6,12,54,33.3,73.4,21.3,19.5,50.3,30.4,80.4,30.4h18.1c30.2,0,59.1-10.9,80.4-30.4,21.3-19.5,33.3-45.9,33.3-73.4s-12-54-33.3-73.4c-21.3-19.5-50.2-30.4-80.4-30.4h-18.1c-30.2,0-59.1,10.9-80.4,30.4-21.3,19.5-33.3,45.9-33.3,73.4Z"/>
    </clipPath>
  </defs>
  <g class="st15">
    <path class="st13" d="M181,239.4c-48.2,0-87.3-35.7-87.3-79.8s39.1-79.8,87.3-79.8,87.3,35.7,87.3,79.8-39.1,79.8-87.3,79.8ZM337.3,85C286.8,6.2,175.9-20.3,89.7,25.8,3.4,71.9-25.6,173.1,24.8,251.9l156.2,243.9,156.2-243.9c31.7-49.8,34.1-113.6,0-166.9"/>
  </g>
  <g class="st8">
    <g class="st14">
      <path class="st13" d="M49,45.2h267.5v244.4H49V45.2Z"/>
    </g>
  </g>
  <g class="st11">
    <g class="st2">
      <path class="st7" d="M182.7,45.2c-73.9,0-133.8,54.7-133.8,122.2s59.9,122.2,133.8,122.2,133.8-54.7,133.8-122.2-59.9-122.2-133.8-122.2Z"/>
    </g>
  </g>
  <g class="st9">
    <g class="st0">
      <path class="st12" d="M59.8,229.8h244.8s-1.2,16.7-7.8,23.2c-6.6,6.5-15.9,11.4-19.4,14s-16.6,4.9-24.3,7.7c-7.7,2.8-78.1,5.8-88.5,6-10.4.2-65.2-7.4-73.2-7.4s-13.1-4.3-15.2-10.7c-2-6.4-7.4-10.5-8-13.3-.6-2.8-8.4-11.1-8.4-19.5Z"/>
    </g>
  </g>
  <g class="st1">
    <g class="st10">
      <path class="st3" d="M142.2,229.8l-24.9,5.6-24.3-2.4-25.2-.2,25.7,1.1,20.9,2.1-15.8.2-36.4,2.4c0,0,0,.2.1.3.2.5.5,1,.8,1.5l34.9-3,5.4,9.8-31.3,8c.3.4.6.8.9,1.2,0,0,0,.1.1.2l32.8-8.7,24.5,7.8-37.7,6.4-16.4.7c.3.8.6,1.6.9,2.3s.8,1.4,1.2,2.1c0,0,.1.1.2.2l3.8-1.8,13.6-1.1,42.4-7.2,2.4,6.8,35.9,2.3c-6,1-14,2.5-21.3,4-4.7,1-20.4,3.3-37.3,5.8,3.1.4,5.8.7,9,1.1.2,0,.3,0,.5,0l55.1-9.7,25.2,11.4c.7,0,1.2,0,1.9,0,2.9-.2,5.7-.4,8.5-.5l-4.9-2.2,20.5-3.8,12.8-4-13,2.7-28.5,1.5-13-5.9s-3.7-1.7-6.5-1.6c-3.5-.2-33-1.6-38.7-4.2-6.1-2.7-5.7-12.3-5.7-12.3l26.5.9,16.1,2.7,18.7-2.4-18.9.3-14-6.4,2-5.2,14.6-2.2,7.3-5.4c5.7,2.5,14,6.1,16.7,7l7.1,12.5-10.7,3.8s-3.4,6.1-3.9,6.1-9.4,2.1-9.4,2.1l12-1.4,3-5.7,14.6-4.3-8.9-12.7c7.5.5,26.4,2.2,26.4,2.2l20.1,6.5,27.7-5.2,12.9,4.2c.3-.8.6-1.6.9-2.5l-14.3-4.8-26.5,6.5-17-7.4s-30.3-1.2-31.5-2c-1-.6-12.7-4.1-17.6-5.6h-3.3c.6.3.5.2,1.1.5l-9.3,4.8-13.2.7-6.9,4.6-29.8,5.4,1.4,2.4,2.2,6.1-3.4.6-28.5-8.9-6.1-8.8,17.1.4,30.7-7.9h-5ZM164.3,243.3l5.5,2.2,9.7,4.5-13-2.8-23.1-.9,20.9-3ZM251.2,251.2l-17.3,1.4-6.7,1.3,22.8-1.3,15.3,1,8.9-1.7-9.3.9-13.8-1.7ZM287.6,260.5l-5.2,1.7-56-1.5,41.9,2.8,4.9,5.6c.9-.3,1.7-.6,2.4-.9.7-.3,1.3-.6,1.8-1l-2.8-3.3,7.1.5c1.3-.8,2.8-1.7,4.3-2.8.5-.4,1.1-.7,1.6-1.1Z"/>
    </g>
  </g>
  <g class="st4">
    <g class="st5">
      <path class="st3" d="M268.8,73.4s-.8,1.7-1.8,3.7c-.5,1-1,2.2-1.5,3.3s-1,2.1-1.4,2.9c0,0,0,0,0,0-.2.4-.6,1.1-1.3,1.9t0,0h0s0,0,0,0c-.6.8-1.5,1.9-2.4,3,0,0,0,0-.1.1,0,0-.1.1-.2.2-6.1,7.3-17,19-17.3,19.7-.2.5-.2,2.3-.1,4,0,1.3.1,2.6.1,3h0c0,.2-.4,1.1-1,2.5-.6,1.3-1.5,3.1-2.4,4.9l-.6,1.2h0c-1.5,3.4-3,6.9-3.4,8.8-.7,4.3-10.1,21.3-10.1,21.3,0,0-6.3,12.1-8.3,16.1-.2.3-.6,1.2-.7,1.4,0,0,0,0,0,0-.2.3-.5.8-.9,1.3,0,0,0,0,0,0-.5.6-1,1.3-1.7,2.1,0,0-.2.2-.2.3-1.2,1.4-2.7,3.1-4.1,4.7l-.2.2c-.2.2-.3.4-.5.6-2.8,3.1-5.4,6-5.5,6.1,0,0-.1.1-.1.1h0s.1-2.1.3-4.8c.2-2.7.4-5.9.5-8.2,0-.6,0-1.4,0-2.3s0-1.9,0-2.9c0-7.5-.4-19.2.1-21.3.7-2.7,4-10.7,6-15.9,2-5.2,5.2-12.2,8.3-14.7h0c.2-.2.4-.4.6-.5.2-.2.4-.4.6-.7,0,0,0,0,0,0,.2-.2.4-.5.6-.8.2-.3.4-.5.5-.8,0,0,0-.2.1-.2.2-.3.3-.6.5-.9.2-.3.3-.6.4-.8.4-.9.8-1.7,1.2-2.5.3-.6.6-1.2.8-1.8.2-.6.4-1.1.6-1.6.4-1,.7-1.7.7-1.7h0s0,0,0,0c0,0-.1,0-.2,0s0,0-.1,0h0c-.4.1-1.2.2-2.5-.3-.6-.3-1.4-.7-2.3-1.3-3.5-2.5-3.2-14.4-3.2-14.4,0,0-1.9,3.2-1.2,7.5.4,2.1.5,5.1.5,7.8h0c0,1.3,0,2.6-.1,3.7h0c0,1.2-.2,2.2-.3,2.8-.6,2.5-9.8,14.2-11.7,16.6-1.5,1.8-2.4,5.3-3.1,10.1,0,0,0,0,0,0h0s0,0,0,0c-.1.8-.2,1.6-.3,2.5,0,.8-.2,1.6-.3,2.4,0,0,0,.2,0,.3-.2,1.9-.7,3.3-1.4,4.5h0c-2.2,3.4-6.1,3.7-8.1,2.4-.2-.1-.4-.3-.8-.4s-.7-.4-1.2-.6c-2.7-1.4-7.6-3.7-12.3-6.1-4.7-2.4-9.3-4.7-11.5-6.3-.7-.5-1.2-.9-1.3-1.2-.8-2.3.3-11.4-.1-12.4-.5-1-7.5-26.2-7.5-26.2l5.7-15.3s-3.3,5.5-3.9,6.5c-.6,1-5.3,6.8-5.7,8.5-.4,1.7,1,4.1,2.2,8.5,1.1,4.4,3.8,20.8,3.8,24.3,0,3.5,1.9,10.6,1.9,10.6,0,0,8.1,6.1,9.1,6.7,1.1.6,21.4,10.7,21.4,10.7,0,0,5.4,17.1,5.3,18.6,0,.4-.3,1.3-.7,2.4,0,0,0,0,0,0,0,0,0,.1,0,.2-.4,1.2-.9,2.6-1.5,3.9-.5,1.3-1,2.7-1.4,3.7-.2.5-.4,1-.5,1.3-.1.3-.2.5-.2.6h0c0,.1-.6.8-1.4,1.8-.8,1-1.9,2.2-3,3.5-.8.9-.9,1-1.5,1.7-1.3,1.4-2.9,3.2-2.9,3.2l-4.4-2.6s-6-8.7-6.8-9.7c-.8-1-10.4-14.4-10.4-14.4,0,0-5.4-6.6-6.6-9-1.2-2.4-3.1-5.8-3.1-5.8,0,0-4.3-1.2-5.1-1.2s-4.5-2.4-5.8-4.2-7-9.3-7-9.8c0-.5.1-5.5.1-5.5,0,0-1.1-15.4-.9-19.2.2-3.9-.9-18.9-.9-18.9,0,0-1.4,4-1.7,6.7s-.4,30.8-.4,30.8c0,0-1.4-1.3-1.7-1.5s-3.9-1.8-4.1-2.3c-.2-.5,0-2.8.1-3.2.1-.5-8.7-12.3-8.7-12.3l-2.4.3s7.3,9.8,7.7,10.6c.4.8-1.6,4.4-.9,5,.7.6,5.7,4.1,7.2,6.1,1.5,2,10.5,19.5,10.1,19.7s-21.3.4-22.6.4-13.6-5.9-16-7.6c-2.4-1.7-11.1-8.6-11.7-8.6s-7.4-1.5-7.4-1.5l-1.5,1.6s5.2,1.6,6.9,1.7c1.7,0,3.6,4.4,5.4,5.2,1.7.8,11.8,9.1,12.7,9,.9,0,7.3,2,11,2.3,3.6.3,16.2.6,20.6.6s13.3,3.7,15.1,5c1.8,1.2,6.1,4,9.2,11.8,3.1,7.7,12.4,24.4,13.1,28.5s-.6,4.2-3.2,8.5c-2.5,4.3-3.3,9.8-3.8,16.2s-1.9,14.2-1.9,14.2c0,0,8,3.4,16.8,3.7,4,.1,8.8-.6,12.9-1.4.5-.1,1-.2,1.4-.3,1-.2,1.9-.4,2.7-.6s1.5-.4,2.1-.5c1.4-.4,2.4-.6,2.4-.6h0s0-.1,0-.1c0,0-.6-.9-1.3-2.1,0-.1-.1-.2-.2-.3,0,0,0-.1-.1-.2-.4-.7-.9-1.6-1.4-2.5,0,0,0,0,0-.1,0,0,0,0,0,0-.5-1-1.1-2.2-1.6-3.4h0c-1.1-2.5-2.1-5.3-2.7-8,0,0,0,0,0,0-.1-.7-.2-1.3-.3-2-.2-2-.2-3.9.3-5.7.2-.8.6-1.6.9-2.5h0c.2-.4.3-.7.5-1.1.6-1.3,1.3-2.6,2.1-3.9,0,0,0,0,0,0,0,0,0,0,0,0,3.3-5.5,8.3-11.9,14.2-18.7,3-3.4,6.2-7,9.5-10.7,13.3-14.6,33.1-22,35.7-21.9.2,0,.5,0,.8.2.1,0,.2.1.4.2h0c1.3.8,3.1,2.6,4.9,4.4h0c.6.6,1.2,1.2,1.8,1.8.3.3.6.5.8.8.3.3.6.5.8.7s0,0,0,0c.2.2.5.4.7.6.2.2.4.3.6.5s.4.2.6.3h0c0,0,.2,0,.2,0s.1,0,.2,0,.2,0,.2,0c.1,0,.2,0,.3-.2.3-.1.6-.4,1-.6,0,0,0,0,0,0,.4-.3.8-.6,1.2-1,.5-.4,1-.8,1.5-1.3.5-.5,1.1-1,1.7-1.5s1.2-1.1,1.8-1.7c1.2-1.2,2.6-2.4,3.8-3.7,1.3-1.3,2.6-2.5,3.8-3.7,1.1-1.1,2.2-2.2,3.1-3.1.1-.1.2-.2.3-.3.9-.9,1.6-1.7,2.2-2.2.6-.6.9-1,1-1.1s.3-.2.6-.3t0,0c.3-.1.8-.3,1.3-.5,0,0,.1,0,.2,0,1-.3,2.1-.6,3.3-1,0,0,.1,0,.2,0,.2,0,.4-.1.6-.2,2.3-.6,4.5-1.2,4.5-1.2l1.3-2.4s-.2,0-.2,0c-.1,0-.4,0-1.1.2-.7.1-1.7.3-2.6.4-.3,0-.3,0-.6.1-.5,0-1.1.2-1.6.3-.5.1-1.1.2-1.6.3h-.2c-.5.2-1,.3-1.5.4-.2,0-.4.1-.6.2-.2,0-.3.1-.5.2h0s0,0,0,0c-.3.1-.6.3-1,.5s-.8.4-1.2.7c0,0-.1,0-.2.1-.4.3-.8.5-1.3.8-.5.3-1,.6-1.5.9,0,0,0,0,0,0-2,1.3-4,2.6-5.3,3.4-.3.2-.8.5-1.4.9-.6.4-1.2.9-1.9,1.4-1,.7-2.1,1.6-3.2,2.5-.5.4-1,.7-1.5,1.1-1.6,1.2-3.2,2.4-4.3,3.3h0c-.2.1-.2.2-.4.3-.4.3-.8.6-1.1.8h0c-.4.3-.6.4-.7.4-.8,0-6.6-8.9-6.6-8.9,0,0-.1,0-.1,0,0,0-.3,0-.9.3-.4,0-.8.2-1.3.4-.5.2-1,.3-1.6.5-.1,0-.2,0-.3,0-.6.2-1.2.5-1.9.7-.8.3-1.6.6-2.4,1h0c-.9.4-1.8.8-2.7,1.2-.9.4-1.9.9-2.9,1.4h0c-2.1,1.1-4,2-5.6,2.8h0c-3.2,1.6-5.6,2.7-6.8,2.5h0s0,0,0,0c-.1,0-.3,0-.4-.1-.4-.2-.5-.6-.5-1.2,0-3.3,10.6-33.7,10.6-33.7,0,0,9.3-3.4,12.4-4s8.5,1.9,11.5,3c1,.4,1.6.7,1.6.7h0s7.5-6.1,7.5-6.1l14.6-1.9h0s0,0,0,0c0,0-.7-.1-1.8-.3-1.1-.2-2.6-.4-4.1-.7s-3-.5-4.2-.6c-.6,0-1.1-.1-1.5-.2-.2,0-.4,0-.5,0s-.2,0-.3,0c-.1,0-.3,0-.5.2-.2,0-.5.2-.8.4-.6.3-1.4.6-2.3,1,0,0-.1,0-.2,0-.8.4-1.7.7-2.7,1.1,0,0,0,0,0,0h0c-1.1.4-2.2.7-3.3,1h0s0,0,0,0c-.6.1-1.3.2-2.1.2h-.2c-.8,0-1.7,0-2.7-.2h0s0,0-.1,0c-.9,0-1.9-.2-2.9-.4,0,0-.2,0-.2,0-1.1-.2-2.2-.3-3.3-.5,0,0,0,0-.2,0-2-.4-3.9-.7-5.3-1,0,0,0,0-.1,0-1.5-.3-2.4-.5-2.4-.5,0,0-.7-6.9,0-10.1.2-.8,1.2-2.4,2.6-4.3h0c1.4-2,3.2-4.3,5.1-6.6s3.7-4.6,5.2-6.5c.8-1,1.4-1.8,1.9-2.5.3-.4.5-.7.7-1,.2-.3.3-.5.4-.7,0-.2.2-.4.3-.7.1-.2.2-.5.3-.8.2-.7.5-1.6.8-2.6.2-.8.5-1.6.7-2.5.3-1,.5-1.9.8-2.9.5-1.9.9-3.7,1.3-5.1.3-1.2.4-1.8.5-2v-.2s0,0,0,0h0Z"/>
    </g>
  </g>
</svg>