<svg xmlns="http://www.w3.org/2000/svg" xmlns:xlink="http://www.w3.org/1999/xlink" width="1024" zoomAndPan="magnify" viewBox="0 0 768 576" height="768" preserveAspectRatio="xMidYMid meet" version="1.0"><defs><clipPath id="0870ec8b90"><path d="M 78 169 L 170 169 L 170 306.921875 L 78 306.921875 Z M 78 169 " clip-rule="nonzero"/></clipPath><clipPath id="c369b131e6"><path d="M 90.445312 181.152344 L 158.4375 181.152344 L 158.4375 249.148438 L 90.445312 249.148438 Z M 90.445312 181.152344 " clip-rule="nonzero"/></clipPath><clipPath id="442f58ca7b"><path d="M 124.441406 181.152344 C 105.664062 181.152344 90.445312 196.375 90.445312 215.148438 C 90.445312 233.925781 105.664062 249.148438 124.441406 249.148438 C 143.21875 249.148438 158.4375 233.925781 158.4375 215.148438 C 158.4375 196.375 143.21875 181.152344 124.441406 181.152344 Z M 124.441406 181.152344 " clip-rule="nonzero"/></clipPath><clipPath id="15f3b0dab4"><path d="M 90.445312 181.152344 L 158.4375 181.152344 L 158.4375 249.144531 L 90.445312 249.144531 Z M 90.445312 181.152344 " clip-rule="nonzero"/></clipPath><clipPath id="bf84e1a768"><path d="M 124.441406 181.152344 C 105.664062 181.152344 90.445312 196.371094 90.445312 215.148438 C 90.445312 233.925781 105.664062 249.144531 124.441406 249.144531 C 143.214844 249.144531 158.4375 233.925781 158.4375 215.148438 C 158.4375 196.371094 143.214844 181.152344 124.441406 181.152344 Z M 124.441406 181.152344 " clip-rule="nonzero"/></clipPath><clipPath id="af3e41b67f"><path d="M 93.175781 232 L 155.425781 232 L 155.425781 246.753906 L 93.175781 246.753906 Z M 93.175781 232 " clip-rule="nonzero"/></clipPath><clipPath id="812da8d328"><path d="M 93.175781 217.90625 C 93.175781 225.574219 96.21875 232.925781 101.640625 238.34375 C 107.0625 243.765625 114.414062 246.8125 122.078125 246.8125 L 126.679688 246.8125 C 134.347656 246.8125 141.699219 243.765625 147.117188 238.34375 C 152.539062 232.925781 155.582031 225.574219 155.582031 217.90625 C 155.582031 210.242188 152.539062 202.890625 147.117188 197.46875 C 141.699219 192.050781 134.347656 189.003906 126.679688 189.003906 L 122.078125 189.003906 C 114.414062 189.003906 107.0625 192.050781 101.640625 197.46875 C 96.21875 202.890625 93.175781 210.242188 93.175781 217.90625 Z M 93.175781 217.90625 " clip-rule="nonzero"/></clipPath><clipPath id="344563e7aa"><path d="M 93.175781 232 L 155 232 L 155 246.753906 L 93.175781 246.753906 Z M 93.175781 232 " clip-rule="nonzero"/></clipPath><clipPath id="bf4d9ccf84"><path d="M 93.175781 217.90625 C 93.175781 225.574219 96.21875 232.925781 101.640625 238.34375 C 107.0625 243.765625 114.414062 246.8125 122.078125 246.8125 L 126.679688 246.8125 C 134.347656 246.8125 141.699219 243.765625 147.117188 238.34375 C 152.539062 232.925781 155.582031 225.574219 155.582031 217.90625 C 155.582031 210.242188 152.539062 202.890625 147.117188 197.46875 C 141.699219 192.050781 134.347656 189.003906 126.679688 189.003906 L 122.078125 189.003906 C 114.414062 189.003906 107.0625 192.050781 101.640625 197.46875 C 96.21875 202.890625 93.175781 210.242188 93.175781 217.90625 Z M 93.175781 217.90625 " clip-rule="nonzero"/></clipPath><clipPath id="1750b9089f"><path d="M 97 189.003906 L 155 189.003906 L 155 238 L 97 238 Z M 97 189.003906 " clip-rule="nonzero"/></clipPath><clipPath id="782b823974"><path d="M 93.175781 217.90625 C 93.175781 225.574219 96.21875 232.925781 101.640625 238.34375 C 107.0625 243.765625 114.414062 246.8125 122.078125 246.8125 L 126.679688 246.8125 C 134.347656 246.8125 141.699219 243.765625 147.117188 238.34375 C 152.539062 232.925781 155.582031 225.574219 155.582031 217.90625 C 155.582031 210.242188 152.539062 202.890625 147.117188 197.46875 C 141.699219 192.050781 134.347656 189.003906 126.679688 189.003906 L 122.078125 189.003906 C 114.414062 189.003906 107.0625 192.050781 101.640625 197.46875 C 96.21875 202.890625 93.175781 210.242188 93.175781 217.90625 Z M 93.175781 217.90625 " clip-rule="nonzero"/></clipPath></defs><g clip-path="url(#0870ec8b90)"><path fill="#e4fcfc" d="M 124.003906 235.183594 C 111.742188 235.183594 101.804688 225.246094 101.804688 212.984375 C 101.804688 200.726562 111.742188 190.789062 124.003906 190.789062 C 136.261719 190.789062 146.199219 200.726562 146.199219 212.984375 C 146.199219 225.246094 136.261719 235.183594 124.003906 235.183594 Z M 163.710938 192.238281 C 150.886719 170.3125 122.714844 162.933594 100.792969 175.757812 C 78.867188 188.582031 71.488281 216.753906 84.3125 238.675781 L 124.011719 306.550781 L 163.710938 238.675781 C 171.773438 224.8125 172.386719 207.070312 163.710938 192.238281 " fill-opacity="1" fill-rule="nonzero"/></g><g clip-path="url(#c369b131e6)"><g clip-path="url(#442f58ca7b)"><path fill="#e4fcfc" d="M 90.445312 181.152344 L 158.4375 181.152344 L 158.4375 249.148438 L 90.445312 249.148438 Z M 90.445312 181.152344 " fill-opacity="1" fill-rule="nonzero"/></g></g><g clip-path="url(#15f3b0dab4)"><g clip-path="url(#bf84e1a768)"><path stroke-linecap="butt" transform="matrix(0.75, 0, 0, 0.75, 90.444877, 181.152435)" fill="none" stroke-linejoin="miter" d="M 45.32871 -0.000121469 C 20.292249 -0.000121469 0.000580625 20.291547 0.000580625 45.328008 C 0.000580625 70.364469 20.292249 90.656138 45.32871 90.656138 C 70.359963 90.656138 90.65684 70.364469 90.65684 45.328008 C 90.65684 20.291547 70.359963 -0.000121469 45.32871 -0.000121469 Z M 45.32871 -0.000121469 " stroke="#e6affc" stroke-width="4" stroke-opacity="1" stroke-miterlimit="4"/></g></g><g clip-path="url(#af3e41b67f)"><g clip-path="url(#812da8d328)"><path fill="#efa95a" d="M 93.195312 232.539062 L 155.421875 232.539062 C 155.421875 232.539062 155.109375 237.191406 153.429688 239.007812 C 151.753906 240.828125 149.390625 242.191406 148.488281 242.914062 C 147.585938 243.636719 144.28125 244.289062 142.316406 245.066406 C 140.355469 245.84375 122.46875 246.671875 119.832031 246.722656 C 117.199219 246.773438 103.265625 244.652344 101.226562 244.652344 C 99.1875 244.652344 97.890625 243.453125 97.371094 241.675781 C 96.855469 239.898438 95.488281 238.75 95.332031 237.972656 C 95.179688 237.195312 93.195312 234.871094 93.195312 232.539062 Z M 93.195312 232.539062 " fill-opacity="1" fill-rule="nonzero"/></g></g><g clip-path="url(#344563e7aa)"><g clip-path="url(#bf4d9ccf84)"><path fill="#603a12" d="M 114.128906 232.539062 L 107.804688 234.101562 L 101.640625 233.429688 L 95.234375 233.378906 L 101.761719 233.6875 L 107.0625 234.285156 L 103.050781 234.34375 L 93.800781 235.007812 C 93.8125 235.03125 93.820312 235.054688 93.832031 235.078125 C 93.894531 235.222656 93.964844 235.355469 94.035156 235.492188 L 102.894531 234.648438 L 104.277344 237.386719 L 96.320312 239.605469 C 96.394531 239.710938 96.464844 239.816406 96.539062 239.929688 C 96.550781 239.945312 96.5625 239.964844 96.570312 239.980469 L 104.902344 237.546875 L 111.121094 239.71875 L 101.546875 241.492188 L 97.371094 241.675781 C 97.4375 241.898438 97.511719 242.109375 97.601562 242.3125 C 97.691406 242.515625 97.792969 242.710938 97.90625 242.890625 C 97.917969 242.914062 97.9375 242.929688 97.953125 242.953125 L 98.929688 242.453125 L 102.382812 242.160156 L 113.15625 240.15625 L 113.769531 242.050781 L 122.890625 242.6875 C 121.371094 242.976562 119.339844 243.386719 117.488281 243.8125 C 116.289062 244.085938 112.296875 244.738281 108.011719 245.414062 C 108.804688 245.515625 109.484375 245.601562 110.304688 245.707031 C 110.351562 245.710938 110.386719 245.71875 110.433594 245.722656 L 124.433594 243.011719 L 130.847656 246.191406 C 131.019531 246.183594 131.160156 246.175781 131.328125 246.167969 C 132.0625 246.121094 132.769531 246.070312 133.492188 246.023438 L 132.246094 245.402344 L 137.460938 244.347656 L 140.726562 243.230469 L 137.421875 243.96875 L 130.167969 244.375 L 126.851562 242.730469 C 126.851562 242.730469 125.917969 242.261719 125.191406 242.285156 C 124.3125 242.242188 116.8125 241.835938 115.359375 241.125 C 113.816406 240.367188 113.917969 237.707031 113.917969 237.707031 L 120.660156 237.949219 L 124.761719 238.695312 L 129.507812 238.027344 L 124.703125 238.117188 L 121.148438 236.324219 L 121.65625 234.867188 L 125.355469 234.265625 L 127.21875 232.773438 C 128.667969 233.476562 130.785156 234.484375 131.46875 234.710938 L 133.261719 238.1875 L 130.550781 239.25 C 130.550781 239.25 129.675781 240.945312 129.566406 240.945312 C 129.460938 240.945312 127.175781 241.523438 127.175781 241.523438 L 130.222656 241.132812 L 130.988281 239.535156 L 134.6875 238.335938 L 132.429688 234.8125 C 134.328125 234.964844 139.128906 235.417969 139.128906 235.417969 L 144.230469 237.214844 L 151.261719 235.757812 L 154.550781 236.925781 C 154.628906 236.703125 154.707031 236.476562 154.773438 236.242188 L 151.128906 234.898438 L 144.390625 236.707031 L 140.066406 234.660156 C 140.066406 234.660156 132.367188 234.3125 132.058594 234.101562 C 131.808594 233.9375 128.828125 232.949219 127.578125 232.539062 L 126.742188 232.539062 C 126.882812 232.609375 126.863281 232.597656 127.027344 232.679688 L 124.664062 234.019531 L 121.308594 234.207031 L 119.5625 235.5 L 111.992188 237 L 112.351562 237.675781 L 112.90625 239.386719 L 112.054688 239.542969 L 104.804688 237.058594 L 103.25 234.617188 L 107.59375 234.738281 L 115.40625 232.539062 Z M 119.761719 236.277344 L 121.15625 236.890625 L 123.632812 238.132812 L 120.332031 237.34375 L 114.460938 237.101562 Z M 141.847656 238.46875 L 137.453125 238.863281 L 135.761719 239.230469 L 141.558594 238.878906 L 145.457031 239.152344 L 147.710938 238.671875 L 145.34375 238.933594 Z M 151.085938 241.0625 L 149.773438 241.527344 L 135.535156 241.105469 L 146.195312 241.894531 L 147.429688 243.441406 C 147.660156 243.355469 147.867188 243.269531 148.042969 243.183594 C 148.226562 243.09375 148.375 243.003906 148.488281 242.914062 L 147.773438 242.007812 L 149.566406 242.140625 C 149.90625 241.910156 150.269531 241.660156 150.667969 241.371094 C 150.804688 241.273438 150.945312 241.167969 151.085938 241.0625 Z M 151.085938 241.0625 " fill-opacity="1" fill-rule="nonzero"/></g></g><g clip-path="url(#1750b9089f)"><g clip-path="url(#782b823974)"><path fill="#603a12" d="M 146.316406 189.003906 C 146.316406 189.003906 146.113281 189.46875 145.859375 190.046875 C 145.734375 190.335938 145.597656 190.65625 145.46875 190.957031 C 145.339844 191.257812 145.21875 191.546875 145.125 191.773438 C 145.125 191.773438 145.125 191.777344 145.121094 191.777344 C 145.074219 191.890625 144.960938 192.078125 144.792969 192.316406 C 144.792969 192.320312 144.792969 192.320312 144.789062 192.320312 L 144.789062 192.324219 C 144.789062 192.328125 144.78125 192.332031 144.78125 192.335938 C 144.617188 192.570312 144.40625 192.855469 144.164062 193.171875 C 144.152344 193.183594 144.144531 193.195312 144.136719 193.207031 C 144.125 193.222656 144.105469 193.246094 144.09375 193.261719 C 142.53125 195.292969 139.773438 198.546875 139.707031 198.742188 C 139.660156 198.890625 139.667969 199.386719 139.679688 199.867188 C 139.691406 200.226562 139.707031 200.597656 139.707031 200.695312 C 139.707031 200.695312 139.707031 200.699219 139.707031 200.699219 C 139.707031 200.757812 139.601562 201.011719 139.445312 201.378906 C 139.285156 201.75 139.070312 202.234375 138.847656 202.746094 C 138.800781 202.859375 138.753906 202.972656 138.707031 203.085938 C 138.707031 203.089844 138.707031 203.09375 138.707031 203.09375 C 138.316406 204.023438 137.933594 204.992188 137.851562 205.523438 C 137.671875 206.714844 135.273438 211.449219 135.273438 211.449219 C 135.273438 211.449219 133.679688 214.816406 133.152344 215.917969 C 133.113281 216 132.992188 216.25 132.96875 216.300781 C 132.96875 216.300781 132.964844 216.304688 132.964844 216.308594 C 132.921875 216.394531 132.839844 216.523438 132.730469 216.679688 C 132.730469 216.683594 132.726562 216.683594 132.726562 216.6875 C 132.609375 216.851562 132.464844 217.050781 132.296875 217.269531 C 132.277344 217.292969 132.253906 217.324219 132.234375 217.351562 C 131.921875 217.753906 131.558594 218.210938 131.195312 218.660156 C 131.179688 218.679688 131.164062 218.699219 131.148438 218.71875 C 131.101562 218.777344 131.066406 218.820312 131.015625 218.878906 C 130.308594 219.75 129.644531 220.542969 129.617188 220.574219 C 129.613281 220.578125 129.585938 220.613281 129.585938 220.613281 L 129.585938 220.609375 C 129.585938 220.601562 129.621094 220.027344 129.660156 219.289062 C 129.703125 218.550781 129.753906 217.648438 129.78125 217.007812 C 129.789062 216.847656 129.792969 216.625 129.792969 216.355469 C 129.792969 216.121094 129.789062 215.835938 129.785156 215.542969 C 129.765625 213.464844 129.683594 210.195312 129.816406 209.617188 C 129.988281 208.867188 130.835938 206.636719 131.347656 205.203125 C 131.859375 203.769531 132.664062 201.800781 133.46875 201.105469 C 133.46875 201.105469 133.472656 201.101562 133.472656 201.101562 C 133.523438 201.058594 133.570312 201.007812 133.617188 200.953125 C 133.667969 200.898438 133.714844 200.835938 133.761719 200.769531 C 133.769531 200.757812 133.773438 200.75 133.78125 200.742188 C 133.828125 200.675781 133.875 200.605469 133.921875 200.53125 C 133.964844 200.457031 134.011719 200.378906 134.054688 200.296875 C 134.066406 200.277344 134.078125 200.253906 134.089844 200.234375 C 134.132812 200.15625 134.175781 200.078125 134.214844 199.996094 C 134.253906 199.917969 134.292969 199.839844 134.328125 199.761719 C 134.441406 199.523438 134.542969 199.289062 134.636719 199.054688 C 134.710938 198.878906 134.777344 198.707031 134.835938 198.550781 C 134.898438 198.390625 134.949219 198.246094 134.996094 198.117188 C 135.097656 197.828125 135.164062 197.636719 135.164062 197.636719 L 135.164062 197.632812 C 135.164062 197.632812 135.160156 197.636719 135.160156 197.636719 C 135.15625 197.640625 135.132812 197.648438 135.109375 197.660156 C 135.101562 197.664062 135.09375 197.667969 135.082031 197.671875 C 135.082031 197.671875 135.078125 197.671875 135.074219 197.671875 C 134.96875 197.707031 134.757812 197.734375 134.433594 197.597656 C 134.269531 197.527344 134.074219 197.414062 133.851562 197.238281 C 132.957031 196.535156 133.027344 193.234375 133.027344 193.234375 C 133.027344 193.234375 132.542969 194.128906 132.726562 195.3125 C 132.820312 195.902344 132.859375 196.726562 132.859375 197.484375 L 132.859375 197.488281 C 132.855469 197.859375 132.84375 198.214844 132.824219 198.523438 C 132.824219 198.53125 132.824219 198.539062 132.824219 198.546875 C 132.824219 198.550781 132.824219 198.554688 132.824219 198.558594 C 132.800781 198.867188 132.773438 199.128906 132.738281 199.300781 C 132.589844 200 130.257812 203.25 129.757812 203.910156 C 129.382812 204.402344 129.140625 205.394531 128.964844 206.726562 C 128.964844 206.730469 128.960938 206.738281 128.960938 206.742188 C 128.960938 206.746094 128.960938 206.75 128.960938 206.75 C 128.960938 206.75 128.960938 206.753906 128.960938 206.753906 C 128.957031 206.753906 128.957031 206.757812 128.957031 206.761719 C 128.929688 206.984375 128.902344 207.210938 128.875 207.453125 C 128.851562 207.667969 128.832031 207.890625 128.808594 208.121094 C 128.808594 208.148438 128.804688 208.171875 128.800781 208.203125 C 128.753906 208.71875 128.621094 209.128906 128.4375 209.441406 L 128.4375 209.445312 C 127.890625 210.386719 126.890625 210.480469 126.367188 210.097656 C 126.324219 210.066406 126.257812 210.023438 126.175781 209.972656 C 126.09375 209.921875 125.992188 209.867188 125.878906 209.800781 C 125.1875 209.410156 123.949219 208.765625 122.742188 208.113281 C 121.539062 207.457031 120.371094 206.792969 119.820312 206.367188 C 119.636719 206.222656 119.519531 206.105469 119.496094 206.023438 C 119.296875 205.371094 119.582031 202.855469 119.460938 202.570312 C 119.34375 202.289062 117.554688 195.273438 117.554688 195.273438 L 118.996094 191.023438 C 118.996094 191.023438 118.148438 192.558594 118.007812 192.835938 C 117.867188 193.109375 116.664062 194.726562 116.546875 195.195312 C 116.433594 195.664062 116.808594 196.335938 117.09375 197.566406 C 117.382812 198.800781 118.058594 203.34375 118.0625 204.316406 C 118.0625 205.285156 118.542969 207.265625 118.542969 207.265625 C 118.542969 207.265625 120.597656 208.964844 120.867188 209.121094 C 121.140625 209.277344 126.308594 212.109375 126.308594 212.109375 C 126.308594 212.109375 127.6875 216.863281 127.667969 217.292969 C 127.664062 217.398438 127.59375 217.652344 127.492188 217.972656 C 127.488281 217.976562 127.488281 217.980469 127.488281 217.984375 C 127.484375 217.996094 127.476562 218.015625 127.472656 218.027344 C 127.367188 218.359375 127.234375 218.738281 127.097656 219.125 C 126.96875 219.5 126.835938 219.867188 126.734375 220.144531 C 126.683594 220.289062 126.640625 220.410156 126.613281 220.5 C 126.582031 220.589844 126.566406 220.640625 126.566406 220.65625 C 126.566406 220.65625 126.566406 220.660156 126.566406 220.660156 C 126.566406 220.691406 126.425781 220.882812 126.214844 221.15625 C 126.007812 221.425781 125.726562 221.777344 125.445312 222.125 C 125.25 222.367188 125.226562 222.394531 125.058594 222.601562 C 124.738281 222.996094 124.328125 223.496094 124.328125 223.496094 L 123.207031 222.785156 C 123.207031 222.785156 121.691406 220.367188 121.480469 220.097656 C 121.273438 219.824219 118.835938 216.078125 118.835938 216.078125 C 118.835938 216.078125 117.472656 214.246094 117.160156 213.570312 C 116.851562 212.894531 116.363281 211.960938 116.363281 211.960938 C 116.363281 211.960938 115.28125 211.628906 115.074219 211.628906 C 114.871094 211.628906 113.929688 210.949219 113.605469 210.460938 C 113.28125 209.972656 111.835938 207.878906 111.816406 207.742188 C 111.796875 207.601562 111.84375 206.222656 111.84375 206.222656 C 111.84375 206.222656 111.554688 201.949219 111.617188 200.867188 C 111.679688 199.78125 111.398438 195.609375 111.398438 195.609375 C 111.398438 195.609375 111.054688 196.722656 110.957031 197.460938 C 110.859375 198.199219 110.851562 206.035156 110.851562 206.035156 C 110.851562 206.035156 110.492188 205.660156 110.425781 205.609375 C 110.359375 205.558594 109.445312 205.097656 109.390625 204.957031 C 109.332031 204.816406 109.390625 204.191406 109.425781 204.0625 C 109.460938 203.929688 107.203125 200.632812 107.203125 200.632812 L 106.59375 200.71875 C 106.59375 200.71875 108.445312 203.453125 108.542969 203.660156 C 108.636719 203.871094 108.140625 204.878906 108.308594 205.054688 C 108.476562 205.226562 109.753906 206.183594 110.132812 206.738281 C 110.515625 207.296875 112.792969 212.15625 112.703125 212.226562 C 112.613281 212.296875 107.289062 212.332031 106.960938 212.332031 C 106.632812 212.332031 103.5 210.699219 102.882812 210.226562 C 102.261719 209.753906 100.0625 207.839844 99.917969 207.839844 C 99.773438 207.839844 98.046875 207.417969 98.046875 207.417969 L 97.664062 207.851562 C 97.664062 207.851562 98.984375 208.304688 99.410156 208.324219 C 99.835938 208.347656 100.332031 209.535156 100.773438 209.757812 C 101.214844 209.976562 103.769531 212.277344 104.003906 212.261719 C 104.234375 212.25 105.871094 212.832031 106.796875 212.910156 C 107.722656 212.992188 110.910156 213.089844 112.027344 213.089844 C 113.140625 213.089844 115.410156 214.125 115.875 214.46875 C 116.339844 214.816406 117.4375 215.59375 118.21875 217.75 C 119 219.90625 121.375 224.53125 121.554688 225.671875 C 121.734375 226.8125 121.390625 226.828125 120.75 228.027344 C 120.109375 229.226562 119.90625 230.75 119.785156 232.539062 C 119.664062 234.328125 119.292969 236.503906 119.292969 236.503906 C 119.292969 236.503906 121.328125 237.457031 123.550781 237.539062 C 124.570312 237.574219 125.789062 237.371094 126.824219 237.140625 C 126.949219 237.109375 127.066406 237.085938 127.1875 237.058594 C 127.429688 237 127.660156 236.941406 127.867188 236.886719 C 128.074219 236.832031 128.25 236.78125 128.40625 236.734375 C 128.773438 236.628906 129.007812 236.554688 129.007812 236.554688 L 129.007812 236.550781 C 129.007812 236.550781 128.988281 236.523438 128.988281 236.515625 C 128.972656 236.496094 128.839844 236.261719 128.660156 235.925781 C 128.640625 235.894531 128.632812 235.878906 128.617188 235.847656 C 128.605469 235.828125 128.597656 235.808594 128.589844 235.792969 C 128.484375 235.59375 128.367188 235.359375 128.246094 235.101562 C 128.238281 235.089844 128.234375 235.078125 128.226562 235.066406 C 128.226562 235.0625 128.222656 235.054688 128.21875 235.046875 C 128.082031 234.757812 127.941406 234.4375 127.804688 234.101562 C 127.804688 234.097656 127.804688 234.097656 127.804688 234.097656 C 127.527344 233.40625 127.269531 232.632812 127.125 231.875 C 127.125 231.875 127.125 231.871094 127.121094 231.871094 C 127.085938 231.683594 127.058594 231.496094 127.039062 231.308594 C 126.976562 230.75 126.988281 230.210938 127.117188 229.734375 C 127.179688 229.511719 127.257812 229.277344 127.351562 229.039062 C 127.351562 229.039062 127.351562 229.039062 127.351562 229.042969 C 127.390625 228.9375 127.429688 228.832031 127.476562 228.722656 C 127.625 228.371094 127.804688 228.003906 128.011719 227.625 C 128.011719 227.621094 128.015625 227.617188 128.015625 227.613281 C 128.019531 227.609375 128.023438 227.601562 128.027344 227.597656 C 128.863281 226.0625 130.132812 224.292969 131.636719 222.382812 C 132.390625 221.425781 133.203125 220.433594 134.050781 219.417969 C 137.429688 215.355469 142.460938 213.300781 143.113281 213.324219 C 143.167969 213.324219 143.234375 213.351562 143.308594 213.390625 C 143.339844 213.40625 143.371094 213.421875 143.40625 213.445312 C 143.40625 213.445312 143.410156 213.449219 143.410156 213.449219 C 143.746094 213.671875 144.203125 214.167969 144.652344 214.660156 C 144.65625 214.664062 144.660156 214.667969 144.664062 214.671875 C 144.816406 214.839844 144.96875 215.003906 145.113281 215.160156 C 145.1875 215.238281 145.257812 215.3125 145.324219 215.382812 C 145.394531 215.453125 145.464844 215.519531 145.527344 215.582031 C 145.53125 215.585938 145.535156 215.585938 145.535156 215.589844 C 145.597656 215.648438 145.65625 215.703125 145.714844 215.75 C 145.773438 215.800781 145.828125 215.84375 145.878906 215.878906 C 145.929688 215.914062 145.980469 215.941406 146.023438 215.960938 C 146.023438 215.960938 146.023438 215.960938 146.027344 215.960938 C 146.046875 215.96875 146.066406 215.976562 146.085938 215.980469 C 146.105469 215.984375 146.121094 215.984375 146.140625 215.984375 C 146.15625 215.984375 146.179688 215.980469 146.203125 215.96875 C 146.230469 215.957031 146.257812 215.941406 146.289062 215.917969 C 146.355469 215.878906 146.4375 215.816406 146.53125 215.742188 C 146.53125 215.738281 146.535156 215.738281 146.539062 215.734375 C 146.628906 215.660156 146.730469 215.570312 146.84375 215.46875 C 146.960938 215.359375 147.085938 215.242188 147.222656 215.113281 C 147.355469 214.980469 147.5 214.839844 147.648438 214.691406 C 147.796875 214.542969 147.949219 214.386719 148.105469 214.222656 C 148.421875 213.898438 148.753906 213.550781 149.078125 213.203125 C 149.40625 212.851562 149.730469 212.5 150.03125 212.171875 C 150.320312 211.855469 150.585938 211.566406 150.820312 211.304688 C 150.855469 211.265625 150.867188 211.25 150.898438 211.214844 C 151.121094 210.96875 151.316406 210.75 151.453125 210.59375 C 151.601562 210.429688 151.691406 210.324219 151.707031 210.300781 C 151.722656 210.277344 151.777344 210.25 151.855469 210.214844 C 151.859375 210.210938 151.859375 210.210938 151.863281 210.210938 C 151.945312 210.171875 152.058594 210.128906 152.191406 210.082031 C 152.203125 210.078125 152.21875 210.074219 152.234375 210.066406 C 152.476562 209.984375 152.773438 209.886719 153.074219 209.796875 C 153.089844 209.789062 153.105469 209.785156 153.125 209.78125 C 153.183594 209.761719 153.226562 209.75 153.285156 209.730469 C 153.859375 209.558594 154.441406 209.394531 154.441406 209.394531 L 154.773438 208.738281 C 154.773438 208.738281 154.71875 208.746094 154.714844 208.746094 C 154.679688 208.753906 154.605469 208.765625 154.433594 208.792969 C 154.257812 208.824219 154.011719 208.867188 153.765625 208.914062 C 153.6875 208.929688 153.679688 208.929688 153.601562 208.945312 C 153.464844 208.972656 153.324219 209 153.183594 209.03125 C 153.046875 209.0625 152.914062 209.09375 152.785156 209.125 C 152.765625 209.128906 152.746094 209.132812 152.726562 209.136719 C 152.589844 209.171875 152.460938 209.207031 152.347656 209.242188 C 152.292969 209.257812 152.238281 209.277344 152.1875 209.296875 C 152.140625 209.3125 152.101562 209.328125 152.0625 209.347656 C 152.0625 209.347656 152.058594 209.347656 152.058594 209.347656 C 152.054688 209.347656 152.050781 209.351562 152.046875 209.351562 C 151.972656 209.386719 151.886719 209.433594 151.792969 209.488281 C 151.699219 209.542969 151.597656 209.605469 151.488281 209.675781 C 151.472656 209.6875 151.457031 209.699219 151.4375 209.707031 C 151.335938 209.777344 151.226562 209.847656 151.117188 209.921875 C 150.992188 210.007812 150.863281 210.09375 150.738281 210.183594 C 150.734375 210.183594 150.730469 210.1875 150.730469 210.1875 C 150.222656 210.542969 149.707031 210.921875 149.371094 211.144531 C 149.285156 211.203125 149.167969 211.292969 149.023438 211.40625 C 148.882812 211.519531 148.714844 211.65625 148.53125 211.808594 C 148.28125 212.015625 147.992188 212.265625 147.707031 212.507812 C 147.578125 212.613281 147.464844 212.710938 147.335938 212.820312 C 146.925781 213.167969 146.535156 213.5 146.230469 213.746094 C 146.230469 213.75 146.230469 213.75 146.230469 213.75 C 146.191406 213.78125 146.167969 213.792969 146.132812 213.824219 C 146.027344 213.90625 145.921875 213.992188 145.847656 214.042969 C 145.847656 214.042969 145.847656 214.042969 145.84375 214.046875 C 145.75 214.113281 145.683594 214.152344 145.660156 214.152344 C 145.457031 214.152344 143.984375 211.675781 143.984375 211.675781 C 143.984375 211.675781 143.953125 211.6875 143.949219 211.6875 C 143.929688 211.695312 143.867188 211.714844 143.714844 211.769531 C 143.625 211.796875 143.519531 211.835938 143.390625 211.886719 C 143.273438 211.929688 143.136719 211.980469 142.992188 212.039062 C 142.960938 212.050781 142.953125 212.054688 142.921875 212.066406 C 142.769531 212.128906 142.605469 212.195312 142.429688 212.273438 C 142.238281 212.355469 142.03125 212.445312 141.8125 212.546875 C 141.8125 212.546875 141.808594 212.546875 141.808594 212.546875 C 141.589844 212.648438 141.359375 212.761719 141.113281 212.882812 C 140.878906 213 140.628906 213.128906 140.375 213.265625 C 140.367188 213.269531 140.359375 213.273438 140.351562 213.277344 C 139.824219 213.558594 139.347656 213.828125 138.929688 214.054688 L 138.921875 214.058594 C 138.097656 214.507812 137.5 214.796875 137.1875 214.75 C 137.1875 214.75 137.183594 214.75 137.179688 214.75 C 137.175781 214.746094 137.171875 214.746094 137.171875 214.746094 C 137.136719 214.738281 137.105469 214.726562 137.078125 214.710938 C 136.988281 214.65625 136.945312 214.546875 136.945312 214.378906 C 136.945312 213.46875 139.636719 204.996094 139.636719 204.996094 C 139.636719 204.996094 142.011719 204.058594 142.777344 203.886719 C 143.351562 203.757812 144.9375 204.402344 145.691406 204.734375 C 145.945312 204.84375 146.105469 204.917969 146.105469 204.917969 L 146.105469 204.921875 L 148.023438 203.222656 L 151.730469 202.699219 L 151.726562 202.695312 L 151.730469 202.695312 C 151.730469 202.695312 151.546875 202.664062 151.269531 202.609375 C 150.992188 202.558594 150.617188 202.492188 150.238281 202.425781 C 149.859375 202.359375 149.472656 202.296875 149.160156 202.253906 C 149.007812 202.230469 148.871094 202.214844 148.769531 202.203125 C 148.71875 202.199219 148.671875 202.195312 148.636719 202.195312 C 148.601562 202.195312 148.578125 202.195312 148.5625 202.199219 C 148.53125 202.207031 148.484375 202.222656 148.429688 202.246094 C 148.375 202.273438 148.308594 202.304688 148.230469 202.34375 C 148.074219 202.421875 147.878906 202.519531 147.65625 202.628906 C 147.640625 202.636719 147.621094 202.644531 147.605469 202.652344 C 147.394531 202.753906 147.164062 202.855469 146.914062 202.953125 C 146.910156 202.953125 146.90625 202.957031 146.90625 202.957031 C 146.90625 202.957031 146.902344 202.957031 146.902344 202.957031 C 146.632812 203.058594 146.347656 203.152344 146.054688 203.222656 C 146.050781 203.222656 146.046875 203.222656 146.046875 203.222656 C 146.042969 203.226562 146.039062 203.226562 146.039062 203.226562 C 145.894531 203.257812 145.714844 203.273438 145.507812 203.273438 C 145.5 203.273438 145.496094 203.273438 145.492188 203.273438 C 145.480469 203.273438 145.472656 203.273438 145.460938 203.273438 C 145.257812 203.269531 145.027344 203.257812 144.785156 203.230469 C 144.78125 203.230469 144.777344 203.230469 144.769531 203.230469 C 144.761719 203.230469 144.753906 203.226562 144.742188 203.226562 C 144.507812 203.203125 144.261719 203.167969 144.011719 203.128906 C 143.992188 203.128906 143.972656 203.125 143.957031 203.121094 C 143.675781 203.078125 143.394531 203.03125 143.125 202.976562 C 143.109375 202.976562 143.101562 202.972656 143.085938 202.96875 C 142.570312 202.871094 142.089844 202.761719 141.734375 202.679688 C 141.722656 202.675781 141.710938 202.675781 141.703125 202.671875 C 141.332031 202.585938 141.097656 202.523438 141.097656 202.523438 C 141.097656 202.523438 140.914062 200.609375 141.097656 199.703125 C 141.144531 199.476562 141.394531 199.039062 141.753906 198.496094 C 141.753906 198.492188 141.753906 198.492188 141.753906 198.492188 C 142.113281 197.949219 142.574219 197.300781 143.042969 196.65625 C 143.511719 196.011719 143.988281 195.367188 144.367188 194.835938 C 144.558594 194.570312 144.726562 194.328125 144.855469 194.132812 C 144.921875 194.03125 144.976562 193.941406 145.023438 193.867188 C 145.070312 193.789062 145.105469 193.726562 145.128906 193.671875 C 145.152344 193.621094 145.175781 193.558594 145.199219 193.484375 C 145.226562 193.417969 145.25 193.34375 145.277344 193.261719 C 145.339844 193.054688 145.410156 192.804688 145.484375 192.53125 C 145.542969 192.308594 145.605469 192.078125 145.664062 191.835938 C 145.730469 191.570312 145.796875 191.296875 145.859375 191.03125 C 145.984375 190.496094 146.097656 189.992188 146.179688 189.617188 C 146.253906 189.28125 146.292969 189.105469 146.300781 189.0625 C 146.300781 189.0625 146.3125 189.003906 146.3125 189.003906 L 146.3125 189.007812 Z M 146.316406 189.003906 " fill-opacity="1" fill-rule="nonzero"/></g></g></svg>