<svg xmlns="http://www.w3.org/2000/svg" xmlns:xlink="http://www.w3.org/1999/xlink" width="1024" zoomAndPan="magnify" viewBox="0 0 768 576" height="768" preserveAspectRatio="xMidYMid meet" version="1.0"><defs><clipPath id="058579d54b"><path d="M 25 36 L 118 36 L 118 173.675781 L 25 173.675781 Z M 25 36 " clip-rule="nonzero"/></clipPath><clipPath id="e838caa983"><path d="M 37.5 47.90625 L 105.492188 47.90625 L 105.492188 115.898438 L 37.5 115.898438 Z M 37.5 47.90625 " clip-rule="nonzero"/></clipPath><clipPath id="07ffc6a829"><path d="M 71.496094 47.90625 C 52.71875 47.90625 37.5 63.125 37.5 81.902344 C 37.5 100.679688 52.71875 115.898438 71.496094 115.898438 C 90.273438 115.898438 105.492188 100.679688 105.492188 81.902344 C 105.492188 63.125 90.273438 47.90625 71.496094 47.90625 Z M 71.496094 47.90625 " clip-rule="nonzero"/></clipPath><clipPath id="449bc4aa9e"><path d="M 37.5 47.90625 L 105.492188 47.90625 L 105.492188 115.898438 L 37.5 115.898438 Z M 37.5 47.90625 " clip-rule="nonzero"/></clipPath><clipPath id="a4f1234ad7"><path d="M 71.496094 47.90625 C 52.71875 47.90625 37.5 63.125 37.5 81.902344 C 37.5 100.675781 52.71875 115.898438 71.496094 115.898438 C 90.269531 115.898438 105.492188 100.675781 105.492188 81.902344 C 105.492188 63.125 90.269531 47.90625 71.496094 47.90625 Z M 71.496094 47.90625 " clip-rule="nonzero"/></clipPath><clipPath id="94ed8397c9"><path d="M 44.914062 50.046875 L 94 50.046875 L 94 116 L 44.914062 116 Z M 44.914062 50.046875 " clip-rule="nonzero"/></clipPath></defs><g clip-path="url(#058579d54b)"><path fill="#e4fcfc" d="M 71.054688 101.933594 C 58.796875 101.933594 48.859375 91.996094 48.859375 79.738281 C 48.859375 67.476562 58.796875 57.542969 71.054688 57.542969 C 83.316406 57.542969 93.253906 67.476562 93.253906 79.738281 C 93.253906 91.996094 83.316406 101.933594 71.054688 101.933594 Z M 110.765625 58.988281 C 97.941406 37.066406 69.769531 29.6875 47.847656 42.511719 C 25.921875 55.335938 18.542969 83.503906 31.367188 105.429688 L 71.066406 173.300781 L 110.765625 105.429688 C 118.828125 91.566406 119.441406 73.820312 110.765625 58.988281 " fill-opacity="1" fill-rule="nonzero"/></g><g clip-path="url(#e838caa983)"><g clip-path="url(#07ffc6a829)"><path fill="#e4fcfc" d="M 37.5 47.90625 L 105.492188 47.90625 L 105.492188 115.898438 L 37.5 115.898438 Z M 37.5 47.90625 " fill-opacity="1" fill-rule="nonzero"/></g></g><g clip-path="url(#449bc4aa9e)"><g clip-path="url(#a4f1234ad7)"><path stroke-linecap="butt" transform="matrix(0.75, 0, 0, 0.75, 37.499182, 47.904637)" fill="none" stroke-linejoin="miter" d="M 45.329221 0.00215039 C 20.29276 0.00215039 0.00109104 20.293819 0.00109104 45.33028 C 0.00109104 70.361533 20.29276 90.65841 45.329221 90.65841 C 70.360473 90.65841 90.657351 70.361533 90.657351 45.33028 C 90.657351 20.293819 70.360473 0.00215039 45.329221 0.00215039 Z M 45.329221 0.00215039 " stroke="#ff5757" stroke-width="4" stroke-opacity="1" stroke-miterlimit="4"/></g></g><g clip-path="url(#94ed8397c9)"><path fill="#f1473a" d="M 69.507812 115.125 C 62.84375 115.125 46.371094 114.078125 44.914062 94.992188 C 44.914062 94.992188 49.179688 102.597656 49.183594 101.703125 C 49.207031 98.800781 44.914062 88.175781 55.644531 80.941406 C 68.78125 72.089844 64.816406 61.230469 61.691406 61.019531 C 61.691406 61.019531 70.097656 60.164062 70.863281 71.378906 C 71.28125 77.484375 76.386719 59.867188 73.363281 50.117188 C 73.363281 50.117188 88.710938 58.292969 86.808594 78.425781 C 86.808594 78.425781 89.179688 73.867188 93.167969 76.300781 C 93.167969 76.300781 90.664062 77.167969 91.5 83.878906 C 92.332031 90.589844 95.980469 115.125 69.507812 115.125 " fill-opacity="1" fill-rule="nonzero"/></g><path fill="#f79326" d="M 67.527344 114.429688 C 63.21875 114.230469 55.019531 113.273438 55.019531 102.476562 C 55.019531 91.675781 65.757812 90.207031 65.757812 80.246094 C 65.757812 80.246094 70.863281 82.027344 70.34375 86.957031 C 70.34375 86.957031 80.347656 80.664062 79.511719 73.222656 C 79.511719 73.222656 101.15625 115.976562 67.527344 114.429688 " fill-opacity="1" fill-rule="nonzero"/><path fill="#f79326" d="M 67.527344 114.429688 C 63.21875 114.230469 55.019531 113.273438 55.019531 102.476562 C 55.019531 91.675781 65.757812 90.207031 65.757812 80.246094 C 65.757812 80.246094 70.863281 82.027344 70.34375 86.957031 C 70.34375 86.957031 80.347656 80.664062 79.511719 73.222656 C 79.511719 73.222656 101.15625 115.976562 67.527344 114.429688 " fill-opacity="1" fill-rule="nonzero"/><path fill="#fff533" d="M 69.613281 95.828125 C 69.613281 95.828125 72.21875 103.511719 67.945312 103.511719 C 64.972656 103.511719 65.339844 100.261719 65.339844 100.261719 C 65.339844 100.261719 57.054688 113.789062 69.613281 113.789062 C 72.15625 113.789062 76.59375 113.265625 76.59375 106.34375 C 76.59375 99.421875 72.738281 96.632812 69.613281 95.828125 " fill-opacity="1" fill-rule="nonzero"/></svg>