<?xml version="1.0" encoding="UTF-8"?>
<svg id="Layer_1" data-name="Layer 1" xmlns="http://www.w3.org/2000/svg" xmlns:xlink="http://www.w3.org/1999/xlink" viewBox="0 0 337.75 500">
  <defs>
    <style>
      .cls-1 {
        fill: #f79326;
      }

      .cls-2 {
        clip-path: url(#clippath-4);
      }

      .cls-3, .cls-4 {
        fill: none;
      }

      .cls-5 {
        clip-path: url(#clippath-1);
      }

      .cls-6 {
        clip-path: url(#clippath-5);
      }

      .cls-7 {
        clip-path: url(#clippath-3);
      }

      .cls-4 {
        stroke: #ff5757;
        stroke-width: 4px;
      }

      .cls-8 {
        fill: #e4fcfc;
      }

      .cls-9 {
        clip-path: url(#clippath-2);
      }

      .cls-10 {
        fill: #f1473a;
      }

      .cls-11 {
        fill: #fff533;
      }

      .cls-12 {
        clip-path: url(#clippath);
      }
    </style>
    <clipPath id="clippath">
      <rect class="cls-3" width="337.75" height="500"/>
    </clipPath>
    <clipPath id="clippath-1">
      <rect class="cls-3" x="45.4" y="43.24" width="246.93" height="246.93"/>
    </clipPath>
    <clipPath id="clippath-2">
      <circle class="cls-3" cx="168.86" cy="166.7" r="123.46"/>
    </clipPath>
    <clipPath id="clippath-3">
      <rect class="cls-3" x="45.4" y="43.24" width="246.93" height="246.93"/>
    </clipPath>
    <clipPath id="clippath-4">
      <circle class="cls-3" cx="168.86" cy="166.7" r="123.46"/>
    </clipPath>
    <clipPath id="clippath-5">
      <rect class="cls-3" x="72.32" y="51.01" width="178.27" height="239.52"/>
    </clipPath>
  </defs>
  <g class="cls-12">
    <path class="cls-8" d="M167.26,239.45c-44.52,0-80.61-36.09-80.61-80.61s36.09-80.61,80.61-80.61,80.62,36.08,80.62,80.61-36.09,80.61-80.62,80.61ZM311.48,83.49C264.9,3.87,162.59-22.93,82.98,23.65,3.35,70.22-23.45,172.52,23.12,252.15l144.18,246.49,144.18-246.49c29.28-50.35,31.51-114.8,0-168.66"/>
  </g>
  <g class="cls-5">
    <g class="cls-9">
      <path class="cls-8" d="M45.4,43.24h246.93v246.93H45.4V43.24Z"/>
    </g>
  </g>
  <g class="cls-7">
    <g class="cls-2">
      <path class="cls-4" d="M168.86,43.24c-68.19,0-123.46,55.27-123.46,123.46s55.27,123.46,123.46,123.46,123.46-55.28,123.46-123.46-55.28-123.46-123.46-123.46Z"/>
    </g>
  </g>
  <g class="cls-6">
    <path class="cls-10" d="M161.64,287.36c-24.2,0-84.03-3.8-89.32-73.12,0,0,15.49,27.62,15.51,24.37.09-10.54-15.51-49.13,23.46-75.4,47.71-32.15,33.31-71.58,21.96-72.35,0,0,30.53-3.11,33.31,37.62,1.52,22.17,20.06-41.81,9.08-77.22,0,0,55.74,29.69,48.83,102.81,0,0,8.61-16.56,23.1-7.72,0,0-9.09,3.15-6.06,27.52,3.02,24.37,16.27,113.48-79.87,113.48"/>
  </g>
  <path class="cls-1" d="M154.45,284.83c-15.65-.72-45.42-4.2-45.42-43.41s39-44.56,39-80.73c0,0,18.54,6.47,16.65,24.37,0,0,36.33-22.85,33.3-49.88,0,0,78.61,155.27-43.52,149.65"/>
  <path class="cls-1" d="M154.45,284.83c-15.65-.72-45.42-4.2-45.42-43.41s39-44.56,39-80.73c0,0,18.54,6.47,16.65,24.37,0,0,36.33-22.85,33.3-49.88,0,0,78.61,155.27-43.52,149.65"/>
  <path class="cls-11" d="M162.02,217.28s9.46,27.9-6.06,27.9c-10.8,0-9.46-11.8-9.46-11.8,0,0-30.09,49.13,15.52,49.13,9.24,0,25.35-1.9,25.35-27.04s-14-35.27-25.35-38.19"/>
</svg>