<?xml version="1.0" encoding="UTF-8"?>
<svg id="Layer_1" data-name="Layer 1" xmlns="http://www.w3.org/2000/svg" xmlns:xlink="http://www.w3.org/1999/xlink" viewBox="0 0 333.6 493.86">
  <defs>
    <style>
      .cls-1 {
        clip-path: url(#clippath-21);
      }

      .cls-2 {
        clip-path: url(#clippath-6);
      }

      .cls-3 {
        clip-path: url(#clippath-7);
      }

      .cls-4 {
        clip-path: url(#clippath-17);
      }

      .cls-5 {
        clip-path: url(#clippath-15);
      }

      .cls-6 {
        clip-path: url(#clippath-18);
      }

      .cls-7 {
        clip-path: url(#clippath-4);
      }

      .cls-8 {
        clip-path: url(#clippath-22);
      }

      .cls-9 {
        clip-path: url(#clippath-23);
      }

      .cls-10 {
        fill: #e26225;
      }

      .cls-10, .cls-11, .cls-12, .cls-13, .cls-14 {
        fill-rule: evenodd;
      }

      .cls-15 {
        clip-path: url(#clippath-9);
      }

      .cls-16 {
        clip-path: url(#clippath-10);
      }

      .cls-17 {
        clip-path: url(#clippath-25);
      }

      .cls-18 {
        clip-path: url(#clippath-27);
      }

      .cls-19 {
        clip-path: url(#clippath-11);
      }

      .cls-11 {
        fill: #fef5e7;
      }

      .cls-20, .cls-21 {
        fill: none;
      }

      .cls-22 {
        clip-path: url(#clippath-28);
      }

      .cls-23 {
        clip-path: url(#clippath-1);
      }

      .cls-24 {
        clip-path: url(#clippath-5);
      }

      .cls-25 {
        clip-path: url(#clippath-20);
      }

      .cls-26 {
        clip-path: url(#clippath-8);
      }

      .cls-27 {
        clip-path: url(#clippath-3);
      }

      .cls-28 {
        clip-path: url(#clippath-26);
      }

      .cls-21 {
        stroke: #38b6ff;
        stroke-width: 4px;
      }

      .cls-29 {
        clip-path: url(#clippath-12);
      }

      .cls-30 {
        clip-path: url(#clippath-14);
      }

      .cls-12 {
        fill: #beb935;
      }

      .cls-31 {
        clip-path: url(#clippath-30);
      }

      .cls-32 {
        clip-path: url(#clippath-19);
      }

      .cls-33 {
        fill: #e4fcfc;
      }

      .cls-13 {
        fill: #87abd5;
      }

      .cls-34 {
        clip-path: url(#clippath-16);
      }

      .cls-35 {
        clip-path: url(#clippath-2);
      }

      .cls-36 {
        clip-path: url(#clippath-29);
      }

      .cls-14 {
        fill: #954f1b;
      }

      .cls-37 {
        clip-path: url(#clippath-13);
      }

      .cls-38 {
        clip-path: url(#clippath-24);
      }

      .cls-39 {
        clip-path: url(#clippath);
      }
    </style>
    <clipPath id="clippath">
      <rect class="cls-20" width="333.6" height="493.86"/>
    </clipPath>
    <clipPath id="clippath-1">
      <rect class="cls-20" x="44.97" y="42.71" width="243.91" height="243.9"/>
    </clipPath>
    <clipPath id="clippath-2">
      <path class="cls-20" d="M166.93,42.71c-67.36,0-121.96,54.59-121.96,121.95s54.61,121.95,121.96,121.95,121.95-54.59,121.95-121.95-54.61-121.95-121.95-121.95Z"/>
    </clipPath>
    <clipPath id="clippath-3">
      <rect class="cls-20" x="44.97" y="42.71" width="243.9" height="243.9"/>
    </clipPath>
    <clipPath id="clippath-4">
      <circle class="cls-20" cx="166.91" cy="164.66" r="121.95" transform="translate(-67.54 166.25) rotate(-45)"/>
    </clipPath>
    <clipPath id="clippath-5">
      <rect class="cls-20" x="48.37" y="143.48" width="238.6" height="103.49"/>
    </clipPath>
    <clipPath id="clippath-6">
      <path class="cls-20" d="M48.37,162.6c0,47.01,38.11,85.11,85.12,85.11h68.27c47.01,0,85.11-38.1,85.11-85.11s-38.1-85.11-85.11-85.11h-68.27c-47.01,0-85.12,38.1-85.12,85.11Z"/>
    </clipPath>
    <clipPath id="clippath-7">
      <rect class="cls-20" x="89.68" y="161.42" width="168.59" height="78.92"/>
    </clipPath>
    <clipPath id="clippath-8">
      <path class="cls-20" d="M48.37,162.6c0,47.01,38.11,85.11,85.12,85.11h68.27c47.01,0,85.11-38.1,85.11-85.11s-38.1-85.11-85.11-85.11h-68.27c-47.01,0-85.12,38.1-85.12,85.11Z"/>
    </clipPath>
    <clipPath id="clippath-9">
      <rect class="cls-20" x="104.03" y="193.7" width="68.16" height="35.87"/>
    </clipPath>
    <clipPath id="clippath-10">
      <path class="cls-20" d="M48.37,162.6c0,47.01,38.11,85.11,85.12,85.11h68.27c47.01,0,85.11-38.1,85.11-85.11s-38.1-85.11-85.11-85.11h-68.27c-47.01,0-85.12,38.1-85.12,85.11Z"/>
    </clipPath>
    <clipPath id="clippath-11">
      <rect class="cls-20" x="107.61" y="204.47" width="64.57" height="25.11"/>
    </clipPath>
    <clipPath id="clippath-12">
      <path class="cls-20" d="M48.37,162.6c0,47.01,38.11,85.11,85.12,85.11h68.27c47.01,0,85.11-38.1,85.11-85.11s-38.1-85.11-85.11-85.11h-68.27c-47.01,0-85.12,38.1-85.12,85.11Z"/>
    </clipPath>
    <clipPath id="clippath-13">
      <rect class="cls-20" x="118.38" y="197.29" width="46.63" height="17.94"/>
    </clipPath>
    <clipPath id="clippath-14">
      <path class="cls-20" d="M48.37,162.6c0,47.01,38.11,85.11,85.12,85.11h68.27c47.01,0,85.11-38.1,85.11-85.11s-38.1-85.11-85.11-85.11h-68.27c-47.01,0-85.12,38.1-85.12,85.11Z"/>
    </clipPath>
    <clipPath id="clippath-15">
      <rect class="cls-20" x="93.27" y="78.92" width="78.92" height="82.5"/>
    </clipPath>
    <clipPath id="clippath-16">
      <path class="cls-20" d="M48.37,162.6c0,47.01,38.11,85.11,85.12,85.11h68.27c47.01,0,85.11-38.1,85.11-85.11s-38.1-85.11-85.11-85.11h-68.27c-47.01,0-85.12,38.1-85.12,85.11Z"/>
    </clipPath>
    <clipPath id="clippath-17">
      <rect class="cls-20" x="114.79" y="111.2" width="39.46" height="57.39"/>
    </clipPath>
    <clipPath id="clippath-18">
      <path class="cls-20" d="M48.37,162.6c0,47.01,38.11,85.11,85.12,85.11h68.27c47.01,0,85.11-38.1,85.11-85.11s-38.1-85.11-85.11-85.11h-68.27c-47.01,0-85.12,38.1-85.12,85.11Z"/>
    </clipPath>
    <clipPath id="clippath-19">
      <rect class="cls-20" x="218.81" y="114.79" width="14.35" height="28.7"/>
    </clipPath>
    <clipPath id="clippath-20">
      <path class="cls-20" d="M48.37,162.6c0,47.01,38.11,85.11,85.12,85.11h68.27c47.01,0,85.11-38.1,85.11-85.11s-38.1-85.11-85.11-85.11h-68.27c-47.01,0-85.12,38.1-85.12,85.11Z"/>
    </clipPath>
    <clipPath id="clippath-21">
      <rect class="cls-20" x="157.83" y="125.55" width="82.5" height="60.98"/>
    </clipPath>
    <clipPath id="clippath-22">
      <path class="cls-20" d="M48.37,162.6c0,47.01,38.11,85.11,85.12,85.11h68.27c47.01,0,85.11-38.1,85.11-85.11s-38.1-85.11-85.11-85.11h-68.27c-47.01,0-85.12,38.1-85.12,85.11Z"/>
    </clipPath>
    <clipPath id="clippath-23">
      <rect class="cls-20" x="147.07" y="114.79" width="100.44" height="39.46"/>
    </clipPath>
    <clipPath id="clippath-24">
      <path class="cls-20" d="M48.37,162.6c0,47.01,38.11,85.11,85.12,85.11h68.27c47.01,0,85.11-38.1,85.11-85.11s-38.1-85.11-85.11-85.11h-68.27c-47.01,0-85.12,38.1-85.12,85.11Z"/>
    </clipPath>
    <clipPath id="clippath-25">
      <rect class="cls-20" x="165.01" y="154.25" width="64.57" height="17.94"/>
    </clipPath>
    <clipPath id="clippath-26">
      <path class="cls-20" d="M48.37,162.6c0,47.01,38.11,85.11,85.12,85.11h68.27c47.01,0,85.11-38.1,85.11-85.11s-38.1-85.11-85.11-85.11h-68.27c-47.01,0-85.12,38.1-85.12,85.11Z"/>
    </clipPath>
    <clipPath id="clippath-27">
      <rect class="cls-20" x="218.81" y="129.14" width="14.35" height="10.76"/>
    </clipPath>
    <clipPath id="clippath-28">
      <path class="cls-20" d="M48.37,162.6c0,47.01,38.11,85.11,85.12,85.11h68.27c47.01,0,85.11-38.1,85.11-85.11s-38.1-85.11-85.11-85.11h-68.27c-47.01,0-85.12,38.1-85.12,85.11Z"/>
    </clipPath>
    <clipPath id="clippath-29">
      <rect class="cls-20" x="182.94" y="172.18" width="28.7" height="14.35"/>
    </clipPath>
    <clipPath id="clippath-30">
      <path class="cls-20" d="M48.37,162.6c0,47.01,38.11,85.11,85.12,85.11h68.27c47.01,0,85.11-38.1,85.11-85.11s-38.1-85.11-85.11-85.11h-68.27c-47.01,0-85.12,38.1-85.12,85.11Z"/>
    </clipPath>
  </defs>
  <g class="cls-39">
    <path class="cls-33" d="M165.34,236.51c-43.97,0-79.62-35.65-79.62-79.62s35.65-79.62,79.62-79.62,79.62,35.63,79.62,79.62-35.65,79.62-79.62,79.62ZM307.79,82.46C261.78,3.83,160.73-22.64,82.08,23.36,3.45,69.36-23.02,170.4,22.98,249.05l142.41,243.46,142.41-243.46c28.92-49.73,31.11-113.39,0-166.59"/>
  </g>
  <g class="cls-23">
    <g class="cls-35">
      <path class="cls-33" d="M44.97,42.71h243.91v243.9H44.97V42.71Z"/>
    </g>
  </g>
  <g class="cls-27">
    <g class="cls-7">
      <path class="cls-21" d="M166.91,42.71c-67.34,0-121.95,54.59-121.95,121.95s54.61,121.95,121.95,121.95,121.95-54.61,121.95-121.95-54.59-121.95-121.95-121.95Z"/>
    </g>
  </g>
  <g class="cls-24">
    <g class="cls-2">
      <path class="cls-13" d="M125.02,146.12s-27.45.04-42.11,2.83c-14.66,2.79-20.72,7.22-22.29,11.43-1.58,4.23,5.28,6.11,1.82,10.09-3.48,3.98-11.36,7.12-12.71,15.41-1.35,8.28,8.8,15.79,19.01,20.07,10.21,4.26,17.75,5.76,15.22,9.18-2.52,3.43-7.52,5.84-5.77,11.29,1.77,5.46,19.01,12.85,40.97,15.55,21.96,2.7,45.83,4.97,57.74,3.59,11.92-1.39,9.72-4.6,18.52-5.52,8.8-.91,26.44-.13,38.62-5.11,12.18-5,9.53-9.79,16.74-12.62,7.22-2.82,17.68-4.3,21.99-13.17,4.32-8.88-9.37-15.74-3.81-19.29s15.39-6.42,17.11-13c1.72-6.6-2.13-18.83-45.5-26.5-43.37-7.68-115.56-4.22-115.56-4.22Z"/>
    </g>
  </g>
  <g class="cls-3">
    <g class="cls-26">
      <path class="cls-11" d="M171.68,223.7c-.25.06-.49-.11-.53-.36s.13-.49.38-.53c0,0,2.23-.39,3.46-1.12.22-.13.41-.27.52-.42.07-.07.1-.15.08-.25-.11-.49-.56-.84-1.05-1.13-.83-.49-1.79-.73-1.79-.73-.24-.06-.39-.31-.34-.55.07-.25.32-.41.57-.34,0,0,1.08.27,2.03.84.7.41,1.32.99,1.47,1.71.14.62-.27,1.21-1.02,1.67-1.35.78-3.78,1.22-3.78,1.22ZM107.63,208.18c.25.03.43.25.41.5-.01.25-.25.43-.5.41,0,0-2.07-.2-4.22-.08-1.39.08-2.82.28-3.71.77-.08.06-.15.1-.17.15-.01.08.06.15.11.25.1.15.27.31.45.46,1.7,1.43,5.83,3.08,5.83,3.08.24.1.35.36.25.6-.08.22-.36.34-.6.25,0,0-4.32-1.74-6.08-3.24-.36-.32-.63-.63-.77-.92-.13-.27-.14-.53-.07-.77.08-.24.27-.48.6-.67.99-.55,2.56-.8,4.11-.88,2.23-.13,4.37.08,4.37.08ZM94.71,220.03c-.22-.13-.31-.39-.18-.62s.41-.29.63-.18c0,0,9.75,5.32,24.19,10.3.25.08.38.35.29.59s-.35.36-.59.28c-14.53-5.02-24.34-10.37-24.34-10.37ZM180.72,228.9c.2-.15.49-.13.66.07.15.21.11.49-.08.64,0,0-4.16,3.24-13.91,5.76-9.71,2.52-11,3.28-21.02,2.24-.25-.03-.45-.27-.42-.5.03-.25.25-.43.5-.42,9.86,1.04,11.14.28,20.7-2.2,9.51-2.47,13.58-5.59,13.58-5.59ZM102.23,205.21c.25.01.45.22.43.48,0,.25-.22.45-.48.43,0,0-4.13-.18-7.31.63-1.28.32-2.4.78-2.97,1.54-.7.94-.53,2.02.27,3.17,1.37,1.99,4.5,4.13,8.79,6.18,7.27,3.46,15.82,6.61,22.91,8.76s16.42,4.79,24.73,5.62c8.25.83,17.95-2.21,22.85-4.27.24-.1.52.01.62.24.1.24-.01.5-.25.6-5,2.1-14.89,5.18-23.32,4.34-8.37-.83-17.77-3.49-24.9-5.65-7.13-2.16-15.74-5.32-23.05-8.81-4.47-2.14-7.72-4.41-9.15-6.47-1.06-1.54-1.18-3-.24-4.25.67-.88,1.98-1.5,3.48-1.88,3.31-.84,7.59-.66,7.59-.66ZM98.1,165.06c.25-.04.49.13.53.38.06.24-.11.48-.36.53,0,0-2.07.36-3.42,1.44-.8.64-1.33,1.57-.81,2.86.21.55.63,1.05,1.21,1.54.91.77,2.19,1.46,3.62,2.07,3.66,1.56,8.35,2.55,10.9,2.91.25.04.43.27.39.53-.04.24-.27.42-.52.38-3.05-.45-9.07-1.77-12.92-3.84-1.75-.94-3.05-2.05-3.55-3.26-.69-1.77.01-3.03,1.11-3.91,1.5-1.21,3.83-1.64,3.83-1.64ZM123.27,163.38c.25.03.43.27.41.52-.04.24-.27.42-.52.39-.77-.1-1.84.17-1.93.21-.56.17-1.72.56-2.35,1.18-.18.17-.32.36-.32.57-.01.14.04.28.15.42.49.71,1.56,1.02,2.34,1.28,2.27.74,4.69.98,7.05,1.25,5.87.66,11.8,2.23,17.73,1.28.81-.13,2.55-.7,3.57-1.6.56-.5.9-1.12.55-1.82-.24-.48-.67-.83-1.16-1.11-.84-.49-1.86-.78-2.63-1.02-.24-.07-.38-.34-.31-.57.08-.24.34-.38.59-.29.83.25,1.92.57,2.82,1.09.66.38,1.22.87,1.53,1.49.56,1.13.13,2.13-.76,2.91-1.16,1.02-3.12,1.68-4.05,1.84-6,.95-12.01-.62-17.96-1.28-2.41-.27-4.92-.52-7.23-1.29-.95-.31-2.21-.76-2.82-1.61-.24-.35-.32-.67-.31-.97,0-.45.22-.85.6-1.22.73-.71,2.09-1.21,2.72-1.4.11-.04,1.4-.35,2.31-.24ZM133.59,173.37c.27.03.45.25.42.5s-.25.43-.5.41c-.31-.03-1.42-.13-1.72-.15-1.01-.11-2.03-.21-3.04-.34-2.77-.32-5.59-.52-8.32-1.13-2.45-.53-5.59-1.32-7.52-3.03-1.06-.94-1.51-2.05-1.5-3.1.03-1.57,1.09-3.1,2.84-3.95.9-.43,1.85-.74,2.82-.97.24-.07.49.08.55.34.07.24-.08.49-.34.55-.9.22-1.78.5-2.62.9-1.4.7-2.3,1.89-2.33,3.15-.01.83.36,1.67,1.19,2.4,1.82,1.61,4.79,2.31,7.1,2.82,2.72.6,5.48.8,8.23,1.12,1.02.11,2.03.22,3.04.34.31.04,1.42.13,1.71.15ZM145.67,175.32s-.07-.01-.1-.03c-.36-.08-.84-.08-1.01-.1-1.3-.11-2.62-.1-3.92-.1-.17,0-1.92-.1-2.79-.14-.25-.01-.45-.22-.43-.49.01-.25.22-.43.49-.42.85.04,2.58.14,2.73.14,1.33,0,2.68-.01,4.01.1.24.01.95.03,1.39.2.35.14.56.36.62.64.06.25-.07.57-.34.87-.39.42-1.12.85-1.35,1.02-1.49,1.11-3.12,2.12-4.32,3.56-1.11,1.35-.97,2.86-.27,4.3,1.12,2.33,3.69,4.46,5.34,5.51.21.14.28.43.14.64-.13.21-.42.27-.63.14-1.78-1.12-4.48-3.42-5.69-5.9-.85-1.77-.97-3.63.39-5.27,1.23-1.5,2.93-2.58,4.48-3.71.17-.14.69-.43,1.06-.77.06-.06.13-.13.18-.2ZM197.15,197.95c.25,0,.46.21.46.46s-.2.46-.46.46c-3.5.03-10.85-.11-13.61-.28-7.23-.46-14.66-1.16-21.79-2.55-3.18-.62-6.95-1.01-9.7-2.05-.24-.1-.35-.36-.27-.6.1-.22.36-.35.6-.25,2.7,1.02,6.4,1.39,9.53,2,7.1,1.37,14.49,2.07,21.68,2.54,2.75.17,10.05.31,13.55.27ZM238.89,196.23c.24-.08.5.04.59.29.08.24-.06.49-.29.57-3.12,1.06-7.38,1.4-10.02,1.82-4.15.67-9.54.84-13.75.94-3.35.08-6.63.13-10.17-.08-.25-.01-.45-.22-.43-.48s.24-.45.49-.43c3.5.2,6.77.15,10.09.08,4.16-.11,9.51-.28,13.62-.94,2.61-.41,6.8-.73,9.88-1.78ZM248.8,176.46c-.22-.11-.31-.41-.18-.62.13-.22.41-.31.63-.18,1.92,1.06,3.59,2.41,4.96,4.13.69.87,1.29,1.86,1.75,2.87,1.05,2.28.31,4.53-1.33,6.47-2.34,2.77-6.54,4.93-9.6,5.72-.25.06-.5-.08-.56-.34-.07-.24.08-.49.32-.55,2.9-.74,6.89-2.79,9.12-5.42,1.4-1.65,2.1-3.56,1.21-5.51-.43-.95-.99-1.88-1.64-2.69-1.29-1.63-2.87-2.89-4.68-3.9ZM191.9,192.37c-.25-.04-.43-.28-.39-.52.04-.25.27-.43.52-.39.67.08,2.68.14,3.62.18,3.53.14,6.92.63,10.45.5,4.97-.15,10.2.22,15.16-.03,6.32-.32,12.61-.13,18.61-2.51,1.49-.59,4.81-1.89,6.84-3.71,1.21-1.08,1.96-2.37,1.3-3.81-.66-1.43-1.89-2.49-3.32-3.32-1.5-.87-3.21-1.49-4.78-2-.24-.08-.36-.34-.29-.59.08-.24.35-.36.59-.28,3.31,1.08,7.2,2.68,8.65,5.82.84,1.82.01,3.49-1.53,4.88-2.12,1.89-5.56,3.26-7.12,3.87-6.08,2.42-12.48,2.26-18.89,2.58-4.97.25-10.21-.13-15.19.03-3.56.13-6.96-.36-10.52-.5-.95-.04-3.01-.1-3.7-.18ZM157.46,176.55c.25,0,.46.2.48.45,0,.25-.21.46-.46.46-1.37.03-4.48.94-4.71,1.04-1.12.46-2.42,1.26-3.28,2.31-.52.66-.87,1.42-.84,2.26.06,1.35.94,2.28,2.13,2.98,1.93,1.16,4.67,1.65,6.35,1.96,3.59.63,7.3,1.06,10.9,1.4,5.97.56,11.81,1.15,17.81,1.42.25.01.45.22.43.48,0,.25-.22.45-.48.43-6.01-.25-11.87-.85-17.85-1.42-3.63-.34-7.37-.77-10.97-1.42-1.77-.32-4.62-.85-6.66-2.07-1.47-.87-2.52-2.07-2.58-3.74-.04-1.06.38-2.03,1.05-2.86.94-1.16,2.4-2.07,3.63-2.59.22-.1,3.57-1.06,5.04-1.09Z"/>
    </g>
  </g>
  <g class="cls-15">
    <g class="cls-16">
      <path class="cls-10" d="M169.44,223.45c.66-.2,1.09-.34,1.19-.38.57-.27.38-.95-2.2-5.65-2.58-4.71-3.26-6.28-7.44-9.01-4.19-2.72-19.73-9.89-23.53-11.49s-16.23.32-18.37,1.26-13.17,16.39-13.17,16.39c0,0,1.6.81,3.94,1.96,3.28,1.61,8.09,2.96,11.8,4.53,1.26.53,2.41.99,3.35,1.32.08.03.15.06.24.08,5.31,1.77,10.02,2.37,14.39,3.46.2.04.38.08.57.14,1.89.46,3.55.88,5.27,1.13,2.41.36,4.99.39,8.72-.21,5.2-.83,12.4-2.72,15.25-3.55Z"/>
    </g>
  </g>
  <g class="cls-19">
    <g class="cls-29">
      <path class="cls-14" d="M145.47,227.22c-.35-2.93-.95-8.66-.27-9.44.92-1.06,17.56-5.34,18.61-4.79.85.46,4.32,7.69,5.62,10.47-2.83.83-10.05,2.72-15.25,3.56-3.73.59-6.32.56-8.72.21ZM125,222.39c1.39-2.41,4.53-8.07,5.17-8.3.85-.29,9.26,3.42,9.53,4.34.21.69.03,5.25-.07,7.5-4.37-1.09-9.08-1.68-14.39-3.46-.08-.03-.15-.06-.24-.08ZM109.86,216.54c1.57-1.99,4.85-7.38,5.91-8.66,1.46-1.72,1.93-2.63,3.62-1.75,1.67.9,6.92,4.67,6.95,5.67.03.77-3.17,6.7-4.67,9.28-3.73-1.58-8.53-2.93-11.81-4.54Z"/>
    </g>
  </g>
  <g class="cls-37">
    <g class="cls-30">
      <path class="cls-14" d="M149.27,213.43c-.24.06-.48-.14-.52-.42-.04-.27.13-.53.38-.57,0,0,9.15-1.67,12.4-2.69.25-.08.5.07.57.35.07.27-.07.55-.31.63-3.29,1.04-12.53,2.7-12.53,2.7ZM119.47,199.93c-.21-.17-.27-.49-.11-.71.14-.22.43-.28.64-.11,0,0,8.28,6.52,16.11,10.87,6.56,3.66,10.54,2.75,10.54,2.75.25-.06.49.11.55.39s-.1.55-.35.6c0,0-4.22,1.02-11.15-2.83-7.89-4.39-16.23-10.96-16.23-10.96Z"/>
    </g>
  </g>
  <g class="cls-5">
    <g class="cls-34">
      <path class="cls-12" d="M103.13,118.57s-6.66,3.48-6.35,9.75c.32,6.26,8.01,9.5,8.01,9.5,0,0-3.43,3.8-.53,9.4,2.89,5.59,11.39,4.74,14.6,2.93,0,0,1.13,6.12,11.01,7.79,9.86,1.67,9.92-1.96,9.92-1.96,0,0,7.89,2.97,13.83-5.3,5.96-8.27,13.68-13.73,13.68-13.73,0,0,5.14-6.15,4.48-12.86-.67-6.71-7.09-8.88-7.09-8.88,0,0,3.83-6.26,1.12-12.67-2.72-6.42-7.38-8.1-11.84-5.62,0,0,2.82-10.48-4.22-14-7.05-3.52-11.81.78-13.48,2.91,0,0-5.84-8.35-13.82-6.47-7.97,1.89-10.61,11.66-9.35,17.04,0,0-7.61-2.24-12.27,4.37s-1.39,13.27,2.28,17.8Z"/>
    </g>
  </g>
  <g class="cls-4">
    <g class="cls-6">
      <path class="cls-14" d="M126.7,165.74c-.35-.11.83-8.63.73-13.54-.08-4.9-2.55-10.64-4.26-13.75-1.7-3.12-4.81-7.85-4.81-8.39.01-.56,1.13-1.77,2.1-1.71.97.07,3.85,5.45,6.42,9.16s4.4,6.18,4.6,5.38c.18-.8,1.26-10.1.66-17.66-.62-7.55-1.28-12.37-.84-12.81.43-.45,2.51-.76,3.17-.18.64.57,1.77,16.53,2.27,18.83.52,2.28,1.58-2.31,2.66-7.82,1.06-5.49,1.19-6.53,1.63-6.59.43-.07,2.61.25,2.65,1.21.03.94-1.36,7.17-2.73,15.06-1.36,7.89-1.72,11.32-1.21,10.72.52-.62,5.56-7.15,8.09-10.3,2.51-3.15,3.07-3.83,3.07-3.83,0,0,1.81,1.32,1.65,1.86-.17.56-4.23,5.9-7.37,11.03s-4.11,8.58-4.29,10.54c-.18,1.95.49,12.99.24,13.34-.24.32-8.48,1.32-14.42-.57Z"/>
    </g>
  </g>
  <g class="cls-32">
    <g class="cls-25">
      <path class="cls-10" d="M231.45,118.28c.78,0,1.42.62,1.42,1.37v20.56h-11.29v-20.56c0-.77.63-1.39,1.4-1.39,2.17.01,6.31.01,8.48.01Z"/>
    </g>
  </g>
  <g class="cls-1">
    <g class="cls-8">
      <path class="cls-11" d="M158.87,181.96l-.13-36.91,41.74-19.41,36.94,19.41v37.58c-2.94.46-6.45,1.26-10.37,1.08-4.11-.18-9.47.78-16.17.9-1.36.03-2.77.01-4.25-.06-6.8-.29-12.88-.34-21.19-.7-2.33-.1-4.83-.22-7.59-.39-9.26-.55-15.76-.48-18.99-1.5Z"/>
    </g>
  </g>
  <g class="cls-9">
    <g class="cls-38">
      <path class="cls-10" d="M199.55,129.57c-.9-.53-2.03-.53-2.93,0-7.29,4.33-39.29,23.34-39.29,23.34-1.53.91-3.5.42-4.43-1.09l-1.95-3.22c-.91-1.51-.42-3.49,1.11-4.39,9.14-5.44,38.31-22.67,44.81-26.53.81-.48,1.81-.48,2.61,0,7.45,4.44,44.61,26.53,44.61,26.53,1.54.9,2.03,2.87,1.11,4.39l-1.93,3.22c-.92,1.51-2.9,2-4.43,1.09,0,0-32-19.01-39.29-23.34Z"/>
    </g>
  </g>
  <g class="cls-17">
    <g class="cls-28">
      <path class="cls-14" d="M219.98,170.58h-6.56c-.18,0-.35-.07-.48-.2-.13-.14-.2-.31-.2-.48v-5.86h7.24s-.01,6.53-.01,6.53ZM228.31,164.1v5.82c0,.17-.08.34-.21.48-.13.13-.29.2-.46.2h-6.29l.03-6.5h6.94ZM221.39,155.16h6.25c.17,0,.35.07.46.2.13.13.21.29.21.48v6.91l-6.94-.03v-7.55ZM212.75,162.7v-6.88c0-.17.07-.34.2-.46.13-.14.29-.21.48-.21h6.6l-.03,7.57h-7.24ZM175.1,170.58h-6.56c-.18,0-.35-.07-.48-.2-.13-.14-.2-.31-.2-.48v-5.86h7.24s-.01,6.53-.01,6.53ZM183.42,164.1v5.82c0,.17-.07.34-.2.48-.13.13-.31.2-.48.2h-6.29l.03-6.5h6.94ZM176.51,155.16h6.24c.18,0,.35.07.48.2s.2.29.2.48v6.91l-6.94-.03.03-7.55ZM167.85,162.7v-6.88c0-.17.07-.34.2-.46.14-.14.31-.21.48-.21h6.6v7.57s-7.27-.01-7.27-.01Z"/>
    </g>
  </g>
  <g class="cls-18">
    <g class="cls-22">
      <path class="cls-14" d="M222.22,131.56c-.22-.14-.29-.41-.15-.63.13-.21.41-.28.63-.15l9.53,5.69c.21.13.28.41.15.63-.14.21-.42.28-.63.15l-9.53-5.69Z"/>
    </g>
  </g>
  <g class="cls-36">
    <g class="cls-31">
      <path class="cls-10" d="M185.47,183.85c1.51-5.49,6.59-9.53,12.62-9.53s11.56,4.41,12.81,10.28c-1.36.03-2.77.01-4.25-.04-6.81-.31-12.88-.35-21.19-.71Z"/>
    </g>
  </g>
</svg>