<svg xmlns="http://www.w3.org/2000/svg" xmlns:xlink="http://www.w3.org/1999/xlink" width="1024" zoomAndPan="magnify" viewBox="0 0 768 576" height="768" preserveAspectRatio="xMidYMid meet" version="1.0"><defs><clipPath id="a5e1224e63"><path d="M 356 36 L 449 36 L 449 173.675781 L 356 173.675781 Z M 356 36 " clip-rule="nonzero"/></clipPath><clipPath id="925985e3ce"><path d="M 368.535156 47.90625 L 436.53125 47.90625 L 436.53125 115.898438 L 368.535156 115.898438 Z M 368.535156 47.90625 " clip-rule="nonzero"/></clipPath><clipPath id="081eeb4d75"><path d="M 402.535156 47.90625 C 383.757812 47.90625 368.535156 63.125 368.535156 81.902344 C 368.535156 100.679688 383.757812 115.898438 402.535156 115.898438 C 421.308594 115.898438 436.53125 100.679688 436.53125 81.902344 C 436.53125 63.125 421.308594 47.90625 402.535156 47.90625 Z M 402.535156 47.90625 " clip-rule="nonzero"/></clipPath><clipPath id="539de7cc65"><path d="M 368.535156 47.90625 L 436.527344 47.90625 L 436.527344 115.898438 L 368.535156 115.898438 Z M 368.535156 47.90625 " clip-rule="nonzero"/></clipPath><clipPath id="6f3256a5aa"><path d="M 402.53125 47.90625 C 383.757812 47.90625 368.535156 63.125 368.535156 81.902344 C 368.535156 100.675781 383.757812 115.898438 402.53125 115.898438 C 421.308594 115.898438 436.527344 100.675781 436.527344 81.902344 C 436.527344 63.125 421.308594 47.90625 402.53125 47.90625 Z M 402.53125 47.90625 " clip-rule="nonzero"/></clipPath><clipPath id="5f9ef9e21a"><path d="M 369.484375 76 L 436 76 L 436 104.851562 L 369.484375 104.851562 Z M 369.484375 76 " clip-rule="nonzero"/></clipPath><clipPath id="219b8da169"><path d="M 369.484375 81.328125 C 369.484375 94.433594 380.109375 105.054688 393.214844 105.054688 L 412.246094 105.054688 C 425.351562 105.054688 435.972656 94.433594 435.972656 81.328125 C 435.972656 68.222656 425.351562 57.601562 412.246094 57.601562 L 393.214844 57.601562 C 380.109375 57.601562 369.484375 68.222656 369.484375 81.328125 Z M 369.484375 81.328125 " clip-rule="nonzero"/></clipPath><clipPath id="ef5466eef1"><path d="M 381 81 L 428 81 L 428 103 L 381 103 Z M 381 81 " clip-rule="nonzero"/></clipPath><clipPath id="d4eb4a44db"><path d="M 369.484375 81.328125 C 369.484375 94.433594 380.109375 105.054688 393.214844 105.054688 L 412.246094 105.054688 C 425.351562 105.054688 435.972656 94.433594 435.972656 81.328125 C 435.972656 68.222656 425.351562 57.601562 412.246094 57.601562 L 393.214844 57.601562 C 380.109375 57.601562 369.484375 68.222656 369.484375 81.328125 Z M 369.484375 81.328125 " clip-rule="nonzero"/></clipPath><clipPath id="9246824904"><path d="M 385 90 L 404 90 L 404 100 L 385 100 Z M 385 90 " clip-rule="nonzero"/></clipPath><clipPath id="1fa5f5b0e4"><path d="M 369.484375 81.328125 C 369.484375 94.433594 380.109375 105.054688 393.214844 105.054688 L 412.246094 105.054688 C 425.351562 105.054688 435.972656 94.433594 435.972656 81.328125 C 435.972656 68.222656 425.351562 57.601562 412.246094 57.601562 L 393.214844 57.601562 C 380.109375 57.601562 369.484375 68.222656 369.484375 81.328125 Z M 369.484375 81.328125 " clip-rule="nonzero"/></clipPath><clipPath id="c7f707d4bf"><path d="M 386 93 L 404 93 L 404 100 L 386 100 Z M 386 93 " clip-rule="nonzero"/></clipPath><clipPath id="a8d1369079"><path d="M 369.484375 81.328125 C 369.484375 94.433594 380.109375 105.054688 393.214844 105.054688 L 412.246094 105.054688 C 425.351562 105.054688 435.972656 94.433594 435.972656 81.328125 C 435.972656 68.222656 425.351562 57.601562 412.246094 57.601562 L 393.214844 57.601562 C 380.109375 57.601562 369.484375 68.222656 369.484375 81.328125 Z M 369.484375 81.328125 " clip-rule="nonzero"/></clipPath><clipPath id="f9ccb23e8a"><path d="M 389 91 L 402 91 L 402 96 L 389 96 Z M 389 91 " clip-rule="nonzero"/></clipPath><clipPath id="769ec541d7"><path d="M 369.484375 81.328125 C 369.484375 94.433594 380.109375 105.054688 393.214844 105.054688 L 412.246094 105.054688 C 425.351562 105.054688 435.972656 94.433594 435.972656 81.328125 C 435.972656 68.222656 425.351562 57.601562 412.246094 57.601562 L 393.214844 57.601562 C 380.109375 57.601562 369.484375 68.222656 369.484375 81.328125 Z M 369.484375 81.328125 " clip-rule="nonzero"/></clipPath><clipPath id="3c3aa94f2b"><path d="M 382 58 L 404 58 L 404 81 L 382 81 Z M 382 58 " clip-rule="nonzero"/></clipPath><clipPath id="1a6aaf26fe"><path d="M 369.484375 81.328125 C 369.484375 94.433594 380.109375 105.054688 393.214844 105.054688 L 412.246094 105.054688 C 425.351562 105.054688 435.972656 94.433594 435.972656 81.328125 C 435.972656 68.222656 425.351562 57.601562 412.246094 57.601562 L 393.214844 57.601562 C 380.109375 57.601562 369.484375 68.222656 369.484375 81.328125 Z M 369.484375 81.328125 " clip-rule="nonzero"/></clipPath><clipPath id="f018d71fad"><path d="M 388 67 L 399 67 L 399 83 L 388 83 Z M 388 67 " clip-rule="nonzero"/></clipPath><clipPath id="07b19b010d"><path d="M 369.484375 81.328125 C 369.484375 94.433594 380.109375 105.054688 393.214844 105.054688 L 412.246094 105.054688 C 425.351562 105.054688 435.972656 94.433594 435.972656 81.328125 C 435.972656 68.222656 425.351562 57.601562 412.246094 57.601562 L 393.214844 57.601562 C 380.109375 57.601562 369.484375 68.222656 369.484375 81.328125 Z M 369.484375 81.328125 " clip-rule="nonzero"/></clipPath><clipPath id="d761e646cd"><path d="M 417 68 L 421 68 L 421 76 L 417 76 Z M 417 68 " clip-rule="nonzero"/></clipPath><clipPath id="4470ff8cd7"><path d="M 369.484375 81.328125 C 369.484375 94.433594 380.109375 105.054688 393.214844 105.054688 L 412.246094 105.054688 C 425.351562 105.054688 435.972656 94.433594 435.972656 81.328125 C 435.972656 68.222656 425.351562 57.601562 412.246094 57.601562 L 393.214844 57.601562 C 380.109375 57.601562 369.484375 68.222656 369.484375 81.328125 Z M 369.484375 81.328125 " clip-rule="nonzero"/></clipPath><clipPath id="031d8b6ae3"><path d="M 400 71 L 423 71 L 423 88 L 400 88 Z M 400 71 " clip-rule="nonzero"/></clipPath><clipPath id="7f36202ca7"><path d="M 369.484375 81.328125 C 369.484375 94.433594 380.109375 105.054688 393.214844 105.054688 L 412.246094 105.054688 C 425.351562 105.054688 435.972656 94.433594 435.972656 81.328125 C 435.972656 68.222656 425.351562 57.601562 412.246094 57.601562 L 393.214844 57.601562 C 380.109375 57.601562 369.484375 68.222656 369.484375 81.328125 Z M 369.484375 81.328125 " clip-rule="nonzero"/></clipPath><clipPath id="367a5b5b7a"><path d="M 397 68 L 425 68 L 425 79 L 397 79 Z M 397 68 " clip-rule="nonzero"/></clipPath><clipPath id="aab9768b32"><path d="M 369.484375 81.328125 C 369.484375 94.433594 380.109375 105.054688 393.214844 105.054688 L 412.246094 105.054688 C 425.351562 105.054688 435.972656 94.433594 435.972656 81.328125 C 435.972656 68.222656 425.351562 57.601562 412.246094 57.601562 L 393.214844 57.601562 C 380.109375 57.601562 369.484375 68.222656 369.484375 81.328125 Z M 369.484375 81.328125 " clip-rule="nonzero"/></clipPath><clipPath id="703ba793f5"><path d="M 402 79 L 420 79 L 420 84 L 402 84 Z M 402 79 " clip-rule="nonzero"/></clipPath><clipPath id="c3839a1240"><path d="M 369.484375 81.328125 C 369.484375 94.433594 380.109375 105.054688 393.214844 105.054688 L 412.246094 105.054688 C 425.351562 105.054688 435.972656 94.433594 435.972656 81.328125 C 435.972656 68.222656 425.351562 57.601562 412.246094 57.601562 L 393.214844 57.601562 C 380.109375 57.601562 369.484375 68.222656 369.484375 81.328125 Z M 369.484375 81.328125 " clip-rule="nonzero"/></clipPath><clipPath id="ff3a480163"><path d="M 417 72 L 421 72 L 421 75 L 417 75 Z M 417 72 " clip-rule="nonzero"/></clipPath><clipPath id="2eff6447c3"><path d="M 369.484375 81.328125 C 369.484375 94.433594 380.109375 105.054688 393.214844 105.054688 L 412.246094 105.054688 C 425.351562 105.054688 435.972656 94.433594 435.972656 81.328125 C 435.972656 68.222656 425.351562 57.601562 412.246094 57.601562 L 393.214844 57.601562 C 380.109375 57.601562 369.484375 68.222656 369.484375 81.328125 Z M 369.484375 81.328125 " clip-rule="nonzero"/></clipPath><clipPath id="de9963d266"><path d="M 407 84 L 415 84 L 415 88 L 407 88 Z M 407 84 " clip-rule="nonzero"/></clipPath><clipPath id="4a639f6cfa"><path d="M 369.484375 81.328125 C 369.484375 94.433594 380.109375 105.054688 393.214844 105.054688 L 412.246094 105.054688 C 425.351562 105.054688 435.972656 94.433594 435.972656 81.328125 C 435.972656 68.222656 425.351562 57.601562 412.246094 57.601562 L 393.214844 57.601562 C 380.109375 57.601562 369.484375 68.222656 369.484375 81.328125 Z M 369.484375 81.328125 " clip-rule="nonzero"/></clipPath></defs><g clip-path="url(#a5e1224e63)"><path fill="#e4fcfc" d="M 402.09375 101.933594 C 389.835938 101.933594 379.898438 91.996094 379.898438 79.738281 C 379.898438 67.476562 389.835938 57.542969 402.09375 57.542969 C 414.351562 57.542969 424.289062 67.476562 424.289062 79.738281 C 424.289062 91.996094 414.351562 101.933594 402.09375 101.933594 Z M 441.804688 58.988281 C 428.976562 37.066406 400.808594 29.6875 378.882812 42.511719 C 356.960938 55.335938 349.582031 83.503906 362.40625 105.429688 L 402.105469 173.300781 L 441.804688 105.429688 C 449.867188 91.566406 450.476562 73.820312 441.804688 58.988281 " fill-opacity="1" fill-rule="nonzero"/></g><g clip-path="url(#925985e3ce)"><g clip-path="url(#081eeb4d75)"><path fill="#e4fcfc" d="M 368.535156 47.90625 L 436.53125 47.90625 L 436.53125 115.898438 L 368.535156 115.898438 Z M 368.535156 47.90625 " fill-opacity="1" fill-rule="nonzero"/></g></g><g clip-path="url(#539de7cc65)"><g clip-path="url(#6f3256a5aa)"><path stroke-linecap="butt" transform="matrix(0.75, 0, 0, 0.75, 368.536713, 47.904637)" fill="none" stroke-linejoin="miter" d="M 45.326055 0.00215039 C 20.294802 0.00215039 -0.00207519 20.293819 -0.00207519 45.33028 C -0.00207519 70.361533 20.294802 90.65841 45.326055 90.65841 C 70.362516 90.65841 90.654184 70.361533 90.654184 45.33028 C 90.654184 20.293819 70.362516 0.00215039 45.326055 0.00215039 Z M 45.326055 0.00215039 " stroke="#38b6ff" stroke-width="4" stroke-opacity="1" stroke-miterlimit="4"/></g></g><g clip-path="url(#5f9ef9e21a)"><g clip-path="url(#219b8da169)"><path fill="#87abd5" d="M 390.851562 76.734375 C 390.851562 76.734375 383.199219 76.746094 379.113281 77.523438 C 375.027344 78.300781 373.335938 79.535156 372.898438 80.710938 C 372.457031 81.890625 374.371094 82.414062 373.40625 83.523438 C 372.4375 84.632812 370.238281 85.507812 369.863281 87.820312 C 369.488281 90.128906 372.316406 92.222656 375.164062 93.414062 C 378.011719 94.601562 380.113281 95.019531 379.40625 95.972656 C 378.703125 96.929688 377.308594 97.601562 377.796875 99.121094 C 378.289062 100.644531 383.097656 102.703125 389.21875 103.457031 C 395.339844 104.210938 401.996094 104.84375 405.316406 104.457031 C 408.640625 104.070312 408.027344 103.175781 410.480469 102.917969 C 412.933594 102.664062 417.851562 102.882812 421.246094 101.492188 C 424.640625 100.097656 423.902344 98.761719 425.914062 97.972656 C 427.925781 97.1875 430.84375 96.773438 432.042969 94.300781 C 433.246094 91.824219 429.429688 89.914062 430.980469 88.921875 C 432.53125 87.929688 435.269531 87.132812 435.75 85.296875 C 436.230469 83.457031 435.15625 80.046875 423.066406 77.910156 C 410.976562 75.769531 390.851562 76.734375 390.851562 76.734375 Z M 390.851562 76.734375 " fill-opacity="1" fill-rule="evenodd"/></g></g><g clip-path="url(#ef5466eef1)"><g clip-path="url(#d4eb4a44db)"><path fill="#fef5e7" d="M 403.859375 98.363281 C 403.789062 98.378906 403.722656 98.332031 403.710938 98.261719 C 403.699219 98.191406 403.746094 98.125 403.816406 98.113281 C 403.816406 98.113281 404.4375 98.003906 404.78125 97.800781 C 404.84375 97.765625 404.894531 97.726562 404.925781 97.683594 C 404.945312 97.664062 404.953125 97.640625 404.949219 97.613281 C 404.917969 97.476562 404.792969 97.378906 404.65625 97.296875 C 404.425781 97.160156 404.15625 97.09375 404.15625 97.09375 C 404.089844 97.078125 404.046875 97.007812 404.0625 96.941406 C 404.082031 96.871094 404.152344 96.828125 404.222656 96.847656 C 404.222656 96.847656 404.523438 96.921875 404.789062 97.082031 C 404.984375 97.195312 405.15625 97.359375 405.199219 97.558594 C 405.238281 97.730469 405.125 97.894531 404.914062 98.023438 C 404.539062 98.242188 403.859375 98.363281 403.859375 98.363281 Z M 386.003906 94.035156 C 386.074219 94.042969 386.125 94.105469 386.117188 94.175781 C 386.113281 94.246094 386.046875 94.296875 385.976562 94.289062 C 385.976562 94.289062 385.398438 94.234375 384.800781 94.265625 C 384.414062 94.289062 384.015625 94.34375 383.765625 94.480469 C 383.742188 94.496094 383.722656 94.507812 383.71875 94.523438 C 383.714844 94.546875 383.734375 94.566406 383.75 94.59375 C 383.777344 94.636719 383.824219 94.679688 383.875 94.722656 C 384.347656 95.121094 385.5 95.582031 385.5 95.582031 C 385.566406 95.609375 385.597656 95.683594 385.570312 95.75 C 385.546875 95.8125 385.46875 95.84375 385.402344 95.820312 C 385.402344 95.820312 384.199219 95.335938 383.707031 94.917969 C 383.605469 94.828125 383.53125 94.742188 383.492188 94.660156 C 383.457031 94.585938 383.453125 94.511719 383.472656 94.445312 C 383.496094 94.378906 383.546875 94.3125 383.640625 94.257812 C 383.917969 94.105469 384.355469 94.035156 384.785156 94.011719 C 385.40625 93.976562 386.003906 94.035156 386.003906 94.035156 Z M 382.402344 97.339844 C 382.339844 97.304688 382.316406 97.230469 382.351562 97.167969 C 382.386719 97.105469 382.464844 97.085938 382.527344 97.117188 C 382.527344 97.117188 385.246094 98.601562 389.269531 99.988281 C 389.339844 100.011719 389.375 100.085938 389.351562 100.152344 C 389.328125 100.21875 389.253906 100.253906 389.1875 100.230469 C 385.136719 98.832031 382.402344 97.339844 382.402344 97.339844 Z M 406.378906 99.8125 C 406.433594 99.769531 406.515625 99.777344 406.5625 99.832031 C 406.605469 99.890625 406.59375 99.96875 406.539062 100.011719 C 406.539062 100.011719 405.378906 100.914062 402.660156 101.617188 C 399.953125 102.320312 399.59375 102.53125 396.800781 102.242188 C 396.730469 102.234375 396.675781 102.167969 396.683594 102.101562 C 396.691406 102.03125 396.753906 101.980469 396.824219 101.984375 C 399.574219 102.273438 399.929688 102.0625 402.59375 101.371094 C 405.246094 100.683594 406.378906 99.8125 406.378906 99.8125 Z M 384.5 93.207031 C 384.570312 93.210938 384.625 93.269531 384.621094 93.339844 C 384.621094 93.410156 384.558594 93.464844 384.488281 93.460938 C 384.488281 93.460938 383.335938 93.410156 382.449219 93.636719 C 382.09375 93.726562 381.78125 93.855469 381.621094 94.066406 C 381.425781 94.328125 381.472656 94.628906 381.695312 94.949219 C 382.078125 95.503906 382.949219 96.101562 384.144531 96.671875 C 386.171875 97.636719 388.554688 98.515625 390.53125 99.113281 C 392.507812 99.710938 395.109375 100.449219 397.425781 100.679688 C 399.726562 100.910156 402.429688 100.0625 403.796875 99.488281 C 403.863281 99.460938 403.941406 99.492188 403.96875 99.554688 C 403.996094 99.621094 403.964844 99.695312 403.898438 99.722656 C 402.503906 100.308594 399.746094 101.167969 397.398438 100.933594 C 395.066406 100.703125 392.445312 99.960938 390.457031 99.359375 C 388.46875 98.757812 386.070312 97.875 384.03125 96.902344 C 382.785156 96.304688 381.878906 95.671875 381.480469 95.097656 C 381.183594 94.667969 381.152344 94.261719 381.414062 93.914062 C 381.601562 93.667969 381.964844 93.496094 382.382812 93.390625 C 383.304688 93.15625 384.5 93.207031 384.5 93.207031 Z M 383.347656 82.015625 C 383.417969 82.003906 383.484375 82.050781 383.496094 82.121094 C 383.511719 82.1875 383.464844 82.253906 383.394531 82.269531 C 383.394531 82.269531 382.816406 82.371094 382.441406 82.671875 C 382.21875 82.851562 382.070312 83.109375 382.214844 83.46875 C 382.273438 83.621094 382.390625 83.761719 382.550781 83.898438 C 382.804688 84.113281 383.160156 84.304688 383.558594 84.476562 C 384.578125 84.910156 385.886719 85.1875 386.597656 85.289062 C 386.667969 85.300781 386.71875 85.363281 386.707031 85.4375 C 386.695312 85.503906 386.632812 85.554688 386.5625 85.542969 C 385.710938 85.417969 384.035156 85.050781 382.960938 84.472656 C 382.472656 84.210938 382.109375 83.902344 381.972656 83.5625 C 381.78125 83.070312 381.976562 82.71875 382.28125 82.472656 C 382.699219 82.136719 383.347656 82.015625 383.347656 82.015625 Z M 390.363281 81.546875 C 390.433594 81.554688 390.484375 81.621094 390.476562 81.691406 C 390.464844 81.757812 390.402344 81.808594 390.332031 81.800781 C 390.117188 81.773438 389.820312 81.847656 389.792969 81.859375 C 389.636719 81.90625 389.3125 82.015625 389.136719 82.1875 C 389.085938 82.234375 389.046875 82.289062 389.046875 82.347656 C 389.042969 82.386719 389.058594 82.425781 389.089844 82.464844 C 389.226562 82.664062 389.523438 82.75 389.742188 82.820312 C 390.375 83.027344 391.050781 83.09375 391.707031 83.167969 C 393.34375 83.351562 394.996094 83.789062 396.648438 83.523438 C 396.875 83.488281 397.359375 83.328125 397.644531 83.078125 C 397.800781 82.9375 397.894531 82.765625 397.796875 82.570312 C 397.730469 82.4375 397.609375 82.339844 397.472656 82.261719 C 397.238281 82.125 396.953125 82.042969 396.738281 81.976562 C 396.671875 81.957031 396.632812 81.882812 396.652344 81.816406 C 396.675781 81.75 396.746094 81.710938 396.816406 81.734375 C 397.046875 81.804688 397.351562 81.894531 397.601562 82.039062 C 397.785156 82.144531 397.941406 82.28125 398.027344 82.453125 C 398.183594 82.769531 398.0625 83.046875 397.816406 83.265625 C 397.492188 83.550781 396.945312 83.734375 396.6875 83.777344 C 395.015625 84.042969 393.339844 83.605469 391.679688 83.421875 C 391.007812 83.347656 390.308594 83.277344 389.664062 83.0625 C 389.398438 82.976562 389.046875 82.851562 388.878906 82.613281 C 388.8125 82.515625 388.789062 82.425781 388.792969 82.34375 C 388.792969 82.21875 388.855469 82.105469 388.960938 82.003906 C 389.164062 81.804688 389.542969 81.667969 389.71875 81.613281 C 389.75 81.601562 390.109375 81.515625 390.363281 81.546875 Z M 393.242188 84.332031 C 393.316406 84.339844 393.367188 84.402344 393.359375 84.472656 C 393.351562 84.542969 393.289062 84.59375 393.21875 84.585938 C 393.132812 84.578125 392.824219 84.550781 392.738281 84.542969 C 392.457031 84.511719 392.171875 84.484375 391.890625 84.449219 C 391.117188 84.359375 390.332031 84.304688 389.570312 84.132812 C 388.886719 83.984375 388.011719 83.765625 387.472656 83.289062 C 387.175781 83.027344 387.050781 82.71875 387.054688 82.425781 C 387.0625 81.988281 387.359375 81.5625 387.847656 81.324219 C 388.097656 81.203125 388.363281 81.117188 388.632812 81.054688 C 388.699219 81.035156 388.769531 81.078125 388.785156 81.148438 C 388.804688 81.214844 388.761719 81.285156 388.691406 81.300781 C 388.441406 81.363281 388.195312 81.441406 387.960938 81.550781 C 387.570312 81.746094 387.320312 82.078125 387.3125 82.429688 C 387.308594 82.660156 387.414062 82.894531 387.644531 83.097656 C 388.152344 83.546875 388.980469 83.742188 389.625 83.882812 C 390.382812 84.050781 391.152344 84.105469 391.917969 84.195312 C 392.203125 84.226562 392.484375 84.257812 392.765625 84.289062 C 392.851562 84.300781 393.160156 84.324219 393.242188 84.332031 Z M 396.609375 84.875 C 396.601562 84.875 396.589844 84.871094 396.582031 84.867188 C 396.480469 84.84375 396.347656 84.84375 396.300781 84.839844 C 395.9375 84.808594 395.570312 84.8125 395.207031 84.8125 C 395.160156 84.8125 394.671875 84.785156 394.429688 84.773438 C 394.359375 84.769531 394.304688 84.710938 394.308594 84.636719 C 394.3125 84.566406 394.371094 84.515625 394.445312 84.519531 C 394.683594 84.53125 395.164062 84.558594 395.207031 84.558594 C 395.578125 84.558594 395.953125 84.554688 396.324219 84.585938 C 396.390625 84.589844 396.589844 84.59375 396.710938 84.640625 C 396.808594 84.679688 396.867188 84.742188 396.882812 84.820312 C 396.898438 84.890625 396.863281 84.980469 396.789062 85.0625 C 396.679688 85.179688 396.476562 85.300781 396.414062 85.347656 C 396 85.65625 395.542969 85.9375 395.210938 86.339844 C 394.902344 86.714844 394.941406 87.136719 395.136719 87.539062 C 395.449219 88.1875 396.164062 88.78125 396.625 89.074219 C 396.683594 89.113281 396.703125 89.195312 396.664062 89.253906 C 396.628906 89.3125 396.546875 89.328125 396.488281 89.292969 C 395.992188 88.980469 395.238281 88.339844 394.902344 87.648438 C 394.664062 87.15625 394.632812 86.636719 395.011719 86.179688 C 395.355469 85.761719 395.828125 85.460938 396.261719 85.144531 C 396.308594 85.105469 396.453125 85.023438 396.558594 84.929688 C 396.574219 84.914062 396.59375 84.894531 396.609375 84.875 Z M 410.960938 91.183594 C 411.03125 91.183594 411.089844 91.242188 411.089844 91.3125 C 411.089844 91.382812 411.035156 91.441406 410.960938 91.441406 C 409.984375 91.449219 407.9375 91.410156 407.167969 91.363281 C 405.152344 91.234375 403.082031 91.039062 401.09375 90.652344 C 400.207031 90.480469 399.15625 90.371094 398.390625 90.082031 C 398.324219 90.054688 398.292969 89.980469 398.316406 89.914062 C 398.34375 89.851562 398.417969 89.816406 398.484375 89.84375 C 399.238281 90.128906 400.269531 90.230469 401.140625 90.402344 C 403.121094 90.785156 405.179688 90.980469 407.183594 91.109375 C 407.949219 91.15625 409.984375 91.195312 410.960938 91.183594 Z M 422.597656 90.703125 C 422.664062 90.679688 422.738281 90.714844 422.761719 90.785156 C 422.785156 90.851562 422.746094 90.921875 422.679688 90.945312 C 421.808594 91.242188 420.621094 91.335938 419.886719 91.453125 C 418.730469 91.640625 417.226562 91.6875 416.054688 91.714844 C 415.121094 91.738281 414.207031 91.75 413.21875 91.691406 C 413.148438 91.6875 413.09375 91.628906 413.097656 91.558594 C 413.101562 91.488281 413.164062 91.433594 413.234375 91.4375 C 414.210938 91.492188 415.121094 91.480469 416.046875 91.460938 C 417.207031 91.429688 418.699219 91.382812 419.84375 91.199219 C 420.570312 91.085938 421.738281 90.996094 422.597656 90.703125 Z M 425.359375 85.191406 C 425.296875 85.160156 425.273438 85.078125 425.308594 85.019531 C 425.34375 84.957031 425.421875 84.933594 425.484375 84.96875 C 426.019531 85.265625 426.484375 85.640625 426.867188 86.121094 C 427.058594 86.363281 427.226562 86.640625 427.355469 86.921875 C 427.648438 87.558594 427.441406 88.183594 426.984375 88.726562 C 426.332031 89.5 425.160156 90.101562 424.308594 90.320312 C 424.238281 90.335938 424.167969 90.296875 424.152344 90.226562 C 424.132812 90.160156 424.175781 90.089844 424.242188 90.074219 C 425.050781 89.867188 426.164062 89.296875 426.785156 88.5625 C 427.175781 88.101562 427.371094 87.570312 427.121094 87.027344 C 427 86.761719 426.84375 86.503906 426.664062 86.277344 C 426.304688 85.824219 425.863281 85.472656 425.359375 85.191406 Z M 409.496094 89.628906 C 409.425781 89.617188 409.375 89.550781 409.386719 89.484375 C 409.398438 89.414062 409.460938 89.363281 409.53125 89.375 C 409.71875 89.398438 410.277344 89.414062 410.539062 89.425781 C 411.523438 89.464844 412.46875 89.601562 413.453125 89.566406 C 414.839844 89.523438 416.296875 89.628906 417.679688 89.558594 C 419.441406 89.46875 421.195312 89.523438 422.867188 88.859375 C 423.28125 88.695312 424.207031 88.332031 424.773438 87.824219 C 425.109375 87.523438 425.320312 87.164062 425.136719 86.761719 C 424.953125 86.363281 424.609375 86.066406 424.210938 85.835938 C 423.792969 85.59375 423.316406 85.421875 422.878906 85.277344 C 422.8125 85.253906 422.777344 85.183594 422.796875 85.113281 C 422.820312 85.046875 422.894531 85.011719 422.960938 85.035156 C 423.882812 85.335938 424.96875 85.78125 425.371094 86.65625 C 425.605469 87.164062 425.375 87.628906 424.945312 88.015625 C 424.355469 88.542969 423.394531 88.925781 422.960938 89.09375 C 421.265625 89.769531 419.480469 89.722656 417.695312 89.8125 C 416.308594 89.882812 414.847656 89.777344 413.460938 89.820312 C 412.46875 89.855469 411.519531 89.71875 410.527344 89.679688 C 410.261719 89.667969 409.6875 89.652344 409.496094 89.628906 Z M 399.894531 85.21875 C 399.964844 85.21875 400.023438 85.273438 400.027344 85.34375 C 400.027344 85.414062 399.96875 85.472656 399.898438 85.472656 C 399.515625 85.480469 398.648438 85.734375 398.585938 85.761719 C 398.273438 85.890625 397.910156 86.113281 397.671875 86.40625 C 397.527344 86.589844 397.429688 86.800781 397.4375 87.035156 C 397.453125 87.410156 397.699219 87.671875 398.03125 87.867188 C 398.570312 88.191406 399.332031 88.328125 399.800781 88.414062 C 400.800781 88.589844 401.835938 88.710938 402.839844 88.804688 C 404.503906 88.960938 406.132812 89.125 407.804688 89.199219 C 407.875 89.203125 407.929688 89.261719 407.925781 89.332031 C 407.925781 89.402344 407.863281 89.457031 407.792969 89.453125 C 406.117188 89.382812 404.484375 89.214844 402.816406 89.058594 C 401.804688 88.964844 400.761719 88.84375 399.757812 88.664062 C 399.265625 88.574219 398.46875 88.425781 397.902344 88.085938 C 397.492188 87.84375 397.199219 87.507812 397.183594 87.042969 C 397.171875 86.746094 397.289062 86.476562 397.476562 86.246094 C 397.738281 85.921875 398.144531 85.667969 398.488281 85.523438 C 398.550781 85.496094 399.484375 85.226562 399.894531 85.21875 Z M 399.894531 85.21875 " fill-opacity="1" fill-rule="evenodd"/></g></g><g clip-path="url(#9246824904)"><g clip-path="url(#1fa5f5b0e4)"><path fill="#e26225" d="M 403.234375 98.292969 C 403.417969 98.238281 403.539062 98.199219 403.566406 98.1875 C 403.726562 98.113281 403.671875 97.921875 402.953125 96.613281 C 402.234375 95.300781 402.042969 94.863281 400.878906 94.101562 C 399.710938 93.34375 395.378906 91.34375 394.320312 90.898438 C 393.261719 90.453125 389.796875 90.988281 389.199219 91.25 C 388.601562 91.511719 385.527344 95.820312 385.527344 95.820312 C 385.527344 95.820312 385.972656 96.046875 386.625 96.367188 C 387.539062 96.816406 388.878906 97.191406 389.914062 97.628906 C 390.265625 97.777344 390.585938 97.90625 390.847656 97.996094 C 390.871094 98.003906 390.890625 98.011719 390.914062 98.019531 C 392.394531 98.511719 393.707031 98.679688 394.925781 98.984375 C 394.980469 98.996094 395.03125 99.007812 395.085938 99.023438 C 395.613281 99.152344 396.074219 99.269531 396.554688 99.339844 C 397.226562 99.441406 397.945312 99.449219 398.984375 99.28125 C 400.433594 99.050781 402.441406 98.523438 403.234375 98.292969 Z M 403.234375 98.292969 " fill-opacity="1" fill-rule="evenodd"/></g></g><g clip-path="url(#c7f707d4bf)"><g clip-path="url(#a8d1369079)"><path fill="#954f1b" d="M 396.554688 99.34375 C 396.457031 98.527344 396.289062 96.929688 396.480469 96.710938 C 396.738281 96.414062 401.375 95.222656 401.667969 95.375 C 401.90625 95.503906 402.871094 97.519531 403.234375 98.292969 C 402.445312 98.523438 400.433594 99.050781 398.984375 99.285156 C 397.945312 99.449219 397.222656 99.441406 396.554688 99.34375 Z M 390.847656 97.996094 C 391.234375 97.324219 392.109375 95.746094 392.289062 95.683594 C 392.527344 95.601562 394.871094 96.636719 394.945312 96.894531 C 395.003906 97.085938 394.953125 98.359375 394.925781 98.984375 C 393.707031 98.679688 392.394531 98.515625 390.914062 98.019531 C 390.890625 98.011719 390.871094 98.003906 390.847656 97.996094 Z M 386.625 96.367188 C 387.0625 95.8125 387.976562 94.308594 388.273438 93.953125 C 388.679688 93.472656 388.8125 93.21875 389.28125 93.464844 C 389.746094 93.714844 391.210938 94.765625 391.21875 95.046875 C 391.226562 95.261719 390.335938 96.914062 389.917969 97.632812 C 388.878906 97.191406 387.539062 96.816406 386.625 96.367188 Z M 386.625 96.367188 " fill-opacity="1" fill-rule="evenodd"/></g></g><g clip-path="url(#f9ccb23e8a)"><g clip-path="url(#769ec541d7)"><path fill="#954f1b" d="M 397.613281 95.5 C 397.546875 95.515625 397.480469 95.460938 397.46875 95.382812 C 397.457031 95.308594 397.503906 95.234375 397.574219 95.222656 C 397.574219 95.222656 400.125 94.757812 401.03125 94.472656 C 401.101562 94.449219 401.171875 94.492188 401.191406 94.570312 C 401.210938 94.644531 401.171875 94.722656 401.105469 94.746094 C 400.1875 95.035156 397.613281 95.5 397.613281 95.5 Z M 389.304688 91.734375 C 389.246094 91.6875 389.230469 91.597656 389.273438 91.535156 C 389.3125 91.472656 389.394531 91.457031 389.453125 91.503906 C 389.453125 91.503906 391.761719 93.320312 393.945312 94.535156 C 395.773438 95.554688 396.882812 95.300781 396.882812 95.300781 C 396.953125 95.285156 397.019531 95.332031 397.035156 95.410156 C 397.050781 95.488281 397.007812 95.5625 396.9375 95.578125 C 396.9375 95.578125 395.761719 95.863281 393.828125 94.789062 C 391.628906 93.566406 389.304688 91.734375 389.304688 91.734375 Z M 389.304688 91.734375 " fill-opacity="1" fill-rule="evenodd"/></g></g><g clip-path="url(#3c3aa94f2b)"><g clip-path="url(#1a6aaf26fe)"><path fill="#beb935" d="M 384.75 69.054688 C 384.75 69.054688 382.894531 70.023438 382.980469 71.773438 C 383.070312 73.519531 385.214844 74.421875 385.214844 74.421875 C 385.214844 74.421875 384.257812 75.480469 385.066406 77.042969 C 385.871094 78.601562 388.242188 78.363281 389.136719 77.859375 C 389.136719 77.859375 389.453125 79.566406 392.207031 80.03125 C 394.957031 80.496094 394.972656 79.484375 394.972656 79.484375 C 394.972656 79.484375 397.171875 80.3125 398.828125 78.007812 C 400.488281 75.703125 402.640625 74.179688 402.640625 74.179688 C 402.640625 74.179688 404.074219 72.464844 403.890625 70.59375 C 403.703125 68.722656 401.914062 68.117188 401.914062 68.117188 C 401.914062 68.117188 402.980469 66.371094 402.226562 64.585938 C 401.46875 62.796875 400.167969 62.328125 398.925781 63.019531 C 398.925781 63.019531 399.710938 60.097656 397.75 59.117188 C 395.785156 58.136719 394.457031 59.335938 393.992188 59.929688 C 393.992188 59.929688 392.363281 57.601562 390.140625 58.125 C 387.917969 58.652344 387.183594 61.375 387.535156 62.875 C 387.535156 62.875 385.414062 62.25 384.113281 64.09375 C 382.8125 65.9375 383.726562 67.792969 384.75 69.054688 Z M 384.75 69.054688 " fill-opacity="1" fill-rule="evenodd"/></g></g><g clip-path="url(#f018d71fad)"><g clip-path="url(#07b19b010d)"><path fill="#954f1b" d="M 391.320312 82.203125 C 391.222656 82.171875 391.550781 79.796875 391.523438 78.429688 C 391.5 77.0625 390.8125 75.464844 390.335938 74.597656 C 389.863281 73.726562 388.996094 72.410156 388.996094 72.257812 C 389 72.101562 389.3125 71.765625 389.582031 71.78125 C 389.851562 71.800781 390.65625 73.300781 391.371094 74.335938 C 392.085938 75.371094 392.597656 76.058594 392.652344 75.835938 C 392.703125 75.613281 393.003906 73.019531 392.835938 70.914062 C 392.664062 68.808594 392.480469 67.464844 392.601562 67.34375 C 392.722656 67.21875 393.300781 67.132812 393.484375 67.292969 C 393.664062 67.453125 393.976562 71.902344 394.117188 72.542969 C 394.261719 73.179688 394.558594 71.898438 394.859375 70.363281 C 395.15625 68.832031 395.191406 68.542969 395.3125 68.527344 C 395.433594 68.507812 396.039062 68.597656 396.050781 68.863281 C 396.058594 69.125 395.671875 70.863281 395.289062 73.0625 C 394.910156 75.261719 394.808594 76.21875 394.953125 76.050781 C 395.097656 75.878906 396.503906 74.058594 397.207031 73.179688 C 397.90625 72.300781 398.0625 72.113281 398.0625 72.113281 C 398.0625 72.113281 398.566406 72.480469 398.523438 72.632812 C 398.476562 72.789062 397.34375 74.277344 396.46875 75.707031 C 395.59375 77.136719 395.324219 78.097656 395.273438 78.644531 C 395.222656 79.1875 395.410156 82.265625 395.339844 82.363281 C 395.273438 82.453125 392.976562 82.730469 391.320312 82.203125 Z M 391.320312 82.203125 " fill-opacity="1" fill-rule="evenodd"/></g></g><g clip-path="url(#d761e646cd)"><g clip-path="url(#4470ff8cd7)"><path fill="#e26225" d="M 420.523438 68.972656 C 420.742188 68.972656 420.917969 69.144531 420.917969 69.355469 C 420.917969 70.695312 420.917969 75.085938 420.917969 75.085938 L 417.769531 75.085938 L 417.769531 69.355469 C 417.769531 69.140625 417.945312 68.96875 418.160156 68.96875 C 418.765625 68.972656 419.917969 68.972656 420.523438 68.972656 Z M 420.523438 68.972656 " fill-opacity="1" fill-rule="evenodd"/></g></g><g clip-path="url(#031d8b6ae3)"><g clip-path="url(#7f36202ca7)"><path fill="#fef5e7" d="M 400.289062 86.726562 L 400.253906 76.4375 L 411.890625 71.027344 L 422.1875 76.4375 L 422.1875 86.914062 C 421.367188 87.042969 420.390625 87.265625 419.296875 87.214844 C 418.152344 87.164062 416.65625 87.433594 414.789062 87.464844 C 414.410156 87.472656 414.015625 87.46875 413.605469 87.449219 C 411.710938 87.367188 410.015625 87.355469 407.699219 87.253906 C 407.050781 87.226562 406.351562 87.191406 405.582031 87.144531 C 403 86.992188 401.1875 87.011719 400.289062 86.726562 Z M 400.289062 86.726562 " fill-opacity="1" fill-rule="evenodd"/></g></g><g clip-path="url(#367a5b5b7a)"><g clip-path="url(#aab9768b32)"><path fill="#e26225" d="M 411.628906 72.121094 C 411.378906 71.972656 411.0625 71.972656 410.8125 72.121094 C 408.78125 73.328125 399.859375 78.628906 399.859375 78.628906 C 399.433594 78.882812 398.882812 78.746094 398.625 78.324219 L 398.082031 77.425781 C 397.828125 77.003906 397.964844 76.453125 398.390625 76.203125 C 400.9375 74.6875 409.070312 69.882812 410.882812 68.808594 C 411.109375 68.675781 411.386719 68.675781 411.609375 68.808594 C 413.6875 70.046875 424.046875 76.203125 424.046875 76.203125 C 424.476562 76.453125 424.613281 77.003906 424.355469 77.425781 L 423.816406 78.324219 C 423.558594 78.746094 423.007812 78.882812 422.582031 78.628906 C 422.582031 78.628906 413.660156 73.328125 411.628906 72.121094 Z M 411.628906 72.121094 " fill-opacity="1" fill-rule="evenodd"/></g></g><g clip-path="url(#703ba793f5)"><g clip-path="url(#c3839a1240)"><path fill="#954f1b" d="M 417.324219 83.554688 L 415.496094 83.554688 C 415.445312 83.554688 415.398438 83.535156 415.363281 83.5 C 415.328125 83.460938 415.308594 83.414062 415.308594 83.367188 L 415.308594 81.734375 L 417.328125 81.738281 Z M 419.648438 81.746094 L 419.648438 83.367188 C 419.648438 83.414062 419.625 83.460938 419.589844 83.5 C 419.554688 83.535156 419.507812 83.554688 419.460938 83.554688 L 417.707031 83.554688 L 417.714844 81.742188 Z M 417.71875 79.253906 L 419.460938 79.253906 C 419.507812 79.253906 419.558594 79.273438 419.589844 79.308594 C 419.625 79.34375 419.648438 79.390625 419.648438 79.441406 L 419.648438 81.367188 L 417.714844 81.359375 Z M 415.308594 81.355469 L 415.308594 79.4375 C 415.308594 79.390625 415.328125 79.34375 415.363281 79.308594 C 415.398438 79.269531 415.445312 79.25 415.496094 79.25 L 417.335938 79.25 L 417.328125 81.359375 Z M 404.8125 83.554688 L 402.984375 83.554688 C 402.933594 83.554688 402.886719 83.535156 402.851562 83.5 C 402.816406 83.460938 402.796875 83.414062 402.796875 83.367188 L 402.796875 81.734375 L 404.816406 81.738281 Z M 407.132812 81.746094 L 407.132812 83.367188 C 407.132812 83.414062 407.113281 83.460938 407.078125 83.5 C 407.042969 83.535156 406.992188 83.554688 406.945312 83.554688 L 405.191406 83.554688 L 405.199219 81.742188 Z M 405.207031 79.253906 L 406.945312 79.253906 C 406.996094 79.253906 407.042969 79.273438 407.078125 79.308594 C 407.113281 79.34375 407.132812 79.390625 407.132812 79.441406 L 407.132812 81.367188 L 405.199219 81.359375 Z M 402.792969 81.355469 L 402.792969 79.4375 C 402.792969 79.390625 402.8125 79.34375 402.847656 79.308594 C 402.886719 79.269531 402.933594 79.25 402.980469 79.25 L 404.820312 79.25 L 404.816406 81.359375 Z M 402.792969 81.355469 " fill-opacity="1" fill-rule="evenodd"/></g></g><g clip-path="url(#ff3a480163)"><g clip-path="url(#2eff6447c3)"><path fill="#954f1b" d="M 417.949219 72.675781 C 417.886719 72.636719 417.867188 72.5625 417.90625 72.5 C 417.941406 72.441406 418.019531 72.421875 418.082031 72.457031 L 420.738281 74.042969 C 420.796875 74.078125 420.816406 74.15625 420.78125 74.21875 C 420.742188 74.277344 420.664062 74.296875 420.605469 74.261719 Z M 417.949219 72.675781 " fill-opacity="1" fill-rule="evenodd"/></g></g><g clip-path="url(#de9963d266)"><g clip-path="url(#4a639f6cfa)"><path fill="#e26225" d="M 407.703125 87.253906 C 408.125 85.722656 409.539062 84.597656 411.222656 84.597656 C 412.976562 84.597656 414.445312 85.828125 414.792969 87.464844 C 414.414062 87.472656 414.019531 87.46875 413.609375 87.453125 C 411.710938 87.367188 410.019531 87.355469 407.703125 87.253906 Z M 407.703125 87.253906 " fill-opacity="1" fill-rule="evenodd"/></g></g></svg>