<svg xmlns="http://www.w3.org/2000/svg" xmlns:xlink="http://www.w3.org/1999/xlink" width="1024" zoomAndPan="magnify" viewBox="0 0 768 576" height="768" preserveAspectRatio="xMidYMid meet" version="1.0"><defs><filter x="0%" y="0%" width="100%" height="100%" id="58dde6cbf9"><feColorMatrix values="0 0 0 0 1 0 0 0 0 1 0 0 0 0 1 0 0 0 1 0" color-interpolation-filters="sRGB"/></filter><clipPath id="f5dfb3a4d7"><path d="M 305 169 L 398 169 L 398 306.921875 L 305 306.921875 Z M 305 169 " clip-rule="nonzero"/></clipPath><clipPath id="943fb0ee4c"><path d="M 318.082031 181.152344 L 386.078125 181.152344 L 386.078125 249.148438 L 318.082031 249.148438 Z M 318.082031 181.152344 " clip-rule="nonzero"/></clipPath><clipPath id="a783073519"><path d="M 352.078125 181.152344 C 333.304688 181.152344 318.082031 196.375 318.082031 215.148438 C 318.082031 233.925781 333.304688 249.148438 352.078125 249.148438 C 370.855469 249.148438 386.078125 233.925781 386.078125 215.148438 C 386.078125 196.375 370.855469 181.152344 352.078125 181.152344 Z M 352.078125 181.152344 " clip-rule="nonzero"/></clipPath><clipPath id="0f8b2c581d"><path d="M 318.082031 181.152344 L 386.074219 181.152344 L 386.074219 249.144531 L 318.082031 249.144531 Z M 318.082031 181.152344 " clip-rule="nonzero"/></clipPath><clipPath id="206fe3f7dc"><path d="M 352.078125 181.152344 C 333.304688 181.152344 318.082031 196.375 318.082031 215.148438 C 318.082031 233.925781 333.304688 249.144531 352.078125 249.144531 C 370.855469 249.144531 386.074219 233.925781 386.074219 215.148438 C 386.074219 196.375 370.855469 181.152344 352.078125 181.152344 Z M 352.078125 181.152344 " clip-rule="nonzero"/></clipPath><mask id="a27b3cf7fd"><g filter="url(#58dde6cbf9)"><rect x="-76.8" width="921.6" fill="#000000" y="-57.6" height="691.2" fill-opacity="0.58"/></g></mask><clipPath id="9d9eb738ea"><path d="M 3 5 L 57 5 L 57 41 L 3 41 Z M 3 5 " clip-rule="nonzero"/></clipPath><clipPath id="761e943430"><path d="M 6.488281 0.9375 L 69.621094 9.8125 L 63.148438 55.859375 L 0.015625 46.984375 Z M 6.488281 0.9375 " clip-rule="nonzero"/></clipPath><clipPath id="a0f8f998a7"><path d="M 3.285156 23.730469 C 2.4375 29.777344 4.023438 35.910156 7.695312 40.785156 C 11.371094 45.660156 16.832031 48.878906 22.875 49.726562 L 40.167969 52.15625 C 46.210938 53.007812 52.347656 51.421875 57.222656 47.746094 C 62.097656 44.074219 65.3125 38.613281 66.164062 32.570312 C 67.011719 26.523438 65.425781 20.386719 61.753906 15.511719 C 58.078125 10.636719 52.617188 7.421875 46.574219 6.570312 L 29.28125 4.140625 C 23.238281 3.292969 17.101562 4.878906 12.226562 8.550781 C 7.351562 12.226562 4.136719 17.6875 3.285156 23.730469 Z M 3.285156 23.730469 " clip-rule="nonzero"/></clipPath><clipPath id="70369984ed"><path d="M 6.488281 0.9375 L 69.621094 9.8125 L 63.25 55.117188 L 0.121094 46.242188 Z M 6.488281 0.9375 " clip-rule="nonzero"/></clipPath><clipPath id="9679303512"><path d="M 6.488281 0.9375 L 69.621094 9.8125 L 63.25 55.117188 L 0.121094 46.242188 Z M 6.488281 0.9375 " clip-rule="nonzero"/></clipPath><clipPath id="39a9b10903"><path d="M 6.488281 0.9375 L 69.621094 9.8125 L 63.25 55.117188 L 0.121094 46.242188 Z M 6.488281 0.9375 " clip-rule="nonzero"/></clipPath><clipPath id="a937336e83"><path d="M 28 17 L 57 17 L 57 41 L 28 41 Z M 28 17 " clip-rule="nonzero"/></clipPath><clipPath id="f5ed7f7b30"><path d="M 6.488281 0.9375 L 69.621094 9.8125 L 63.148438 55.859375 L 0.015625 46.984375 Z M 6.488281 0.9375 " clip-rule="nonzero"/></clipPath><clipPath id="b7a5a0fc49"><path d="M 3.285156 23.730469 C 2.4375 29.777344 4.023438 35.910156 7.695312 40.785156 C 11.371094 45.660156 16.832031 48.878906 22.875 49.726562 L 40.167969 52.15625 C 46.210938 53.007812 52.347656 51.421875 57.222656 47.746094 C 62.097656 44.074219 65.3125 38.613281 66.164062 32.570312 C 67.011719 26.523438 65.425781 20.386719 61.753906 15.511719 C 58.078125 10.636719 52.617188 7.421875 46.574219 6.570312 L 29.28125 4.140625 C 23.238281 3.292969 17.101562 4.878906 12.226562 8.550781 C 7.351562 12.226562 4.136719 17.6875 3.285156 23.730469 Z M 3.285156 23.730469 " clip-rule="nonzero"/></clipPath><clipPath id="aa8119c480"><path d="M 6.488281 0.9375 L 69.621094 9.8125 L 63.25 55.117188 L 0.121094 46.242188 Z M 6.488281 0.9375 " clip-rule="nonzero"/></clipPath><clipPath id="e407a0e8d6"><path d="M 6.488281 0.9375 L 69.621094 9.8125 L 63.25 55.117188 L 0.121094 46.242188 Z M 6.488281 0.9375 " clip-rule="nonzero"/></clipPath><clipPath id="70a4d882de"><path d="M 6.488281 0.9375 L 69.621094 9.8125 L 63.25 55.117188 L 0.121094 46.242188 Z M 6.488281 0.9375 " clip-rule="nonzero"/></clipPath><clipPath id="9df516a0a4"><path d="M 27 25 L 41 25 L 41 49 L 27 49 Z M 27 25 " clip-rule="nonzero"/></clipPath><clipPath id="2ae70e742c"><path d="M 6.488281 0.9375 L 69.621094 9.8125 L 63.148438 55.859375 L 0.015625 46.984375 Z M 6.488281 0.9375 " clip-rule="nonzero"/></clipPath><clipPath id="629bd6e1ef"><path d="M 3.285156 23.730469 C 2.4375 29.777344 4.023438 35.910156 7.695312 40.785156 C 11.371094 45.660156 16.832031 48.878906 22.875 49.726562 L 40.167969 52.15625 C 46.210938 53.007812 52.347656 51.421875 57.222656 47.746094 C 62.097656 44.074219 65.3125 38.613281 66.164062 32.570312 C 67.011719 26.523438 65.425781 20.386719 61.753906 15.511719 C 58.078125 10.636719 52.617188 7.421875 46.574219 6.570312 L 29.28125 4.140625 C 23.238281 3.292969 17.101562 4.878906 12.226562 8.550781 C 7.351562 12.226562 4.136719 17.6875 3.285156 23.730469 Z M 3.285156 23.730469 " clip-rule="nonzero"/></clipPath><clipPath id="ad08da28be"><path d="M 6.488281 0.9375 L 69.621094 9.8125 L 63.25 55.117188 L 0.121094 46.242188 Z M 6.488281 0.9375 " clip-rule="nonzero"/></clipPath><clipPath id="c60394f32c"><path d="M 6.488281 0.9375 L 69.621094 9.8125 L 63.25 55.117188 L 0.121094 46.242188 Z M 6.488281 0.9375 " clip-rule="nonzero"/></clipPath><clipPath id="43a0ad14ed"><path d="M 6.488281 0.9375 L 69.621094 9.8125 L 63.25 55.117188 L 0.121094 46.242188 Z M 6.488281 0.9375 " clip-rule="nonzero"/></clipPath><clipPath id="5c80794f10"><path d="M 37.589844 25.835938 C 35.652344 28.496094 33.363281 30.8125 30.722656 32.792969 L 35.472656 33.839844 C 32.804688 36.117188 29.152344 38.390625 27.035156 41.144531 C 28.722656 41.800781 31.101562 41.5 32.835938 41.105469 L 28.269531 48.644531 C 32.191406 45.773438 35.914062 42.675781 39.445312 39.347656 L 34.675781 38.277344 L 40.414062 32.347656 L 35.796875 31.300781 C 36.394531 29.480469 36.992188 27.65625 37.589844 25.835938 Z M 37.589844 25.835938 " clip-rule="nonzero"/></clipPath><linearGradient x1="175.29431" gradientTransform="matrix(0.133403, -0.00260228, 0.00300229, 0.132112, 2.602758, 3.077312)" y1="262.95001" x2="279.447942" gradientUnits="userSpaceOnUse" y2="262.95001" id="3d8d0483d8"><stop stop-opacity="1" stop-color="rgb(97.599792%, 92.498779%, 19.198608%)" offset="0"/><stop stop-opacity="1" stop-color="rgb(97.599792%, 92.498779%, 19.198608%)" offset="0.0625"/><stop stop-opacity="1" stop-color="rgb(97.595215%, 92.38739%, 19.189453%)" offset="0.09375"/><stop stop-opacity="1" stop-color="rgb(97.583008%, 92.024231%, 19.158936%)" offset="0.0976562"/><stop stop-opacity="1" stop-color="rgb(97.575378%, 91.773987%, 19.137573%)" offset="0.101562"/><stop stop-opacity="1" stop-color="rgb(97.567749%, 91.523743%, 19.116211%)" offset="0.105469"/><stop stop-opacity="1" stop-color="rgb(97.56012%, 91.273499%, 19.094849%)" offset="0.109375"/><stop stop-opacity="1" stop-color="rgb(97.55249%, 91.023254%, 19.073486%)" offset="0.113281"/><stop stop-opacity="1" stop-color="rgb(97.544861%, 90.77301%, 19.052124%)" offset="0.117188"/><stop stop-opacity="1" stop-color="rgb(97.535706%, 90.522766%, 19.030762%)" offset="0.121094"/><stop stop-opacity="1" stop-color="rgb(97.528076%, 90.272522%, 19.009399%)" offset="0.125"/><stop stop-opacity="1" stop-color="rgb(97.520447%, 90.020752%, 18.988037%)" offset="0.128906"/><stop stop-opacity="1" stop-color="rgb(97.512817%, 89.770508%, 18.966675%)" offset="0.132812"/><stop stop-opacity="1" stop-color="rgb(97.503662%, 89.520264%, 18.945312%)" offset="0.136719"/><stop stop-opacity="1" stop-color="rgb(97.496033%, 89.27002%, 18.92395%)" offset="0.140625"/><stop stop-opacity="1" stop-color="rgb(97.488403%, 89.019775%, 18.902588%)" offset="0.144531"/><stop stop-opacity="1" stop-color="rgb(97.480774%, 88.769531%, 18.881226%)" offset="0.148438"/><stop stop-opacity="1" stop-color="rgb(97.471619%, 88.519287%, 18.859863%)" offset="0.152344"/><stop stop-opacity="1" stop-color="rgb(97.463989%, 88.269043%, 18.838501%)" offset="0.15625"/><stop stop-opacity="1" stop-color="rgb(97.45636%, 88.017273%, 18.817139%)" offset="0.160156"/><stop stop-opacity="1" stop-color="rgb(97.44873%, 87.767029%, 18.797302%)" offset="0.164062"/><stop stop-opacity="1" stop-color="rgb(97.439575%, 87.516785%, 18.77594%)" offset="0.167969"/><stop stop-opacity="1" stop-color="rgb(97.431946%, 87.266541%, 18.754578%)" offset="0.171875"/><stop stop-opacity="1" stop-color="rgb(97.424316%, 87.016296%, 18.733215%)" offset="0.175781"/><stop stop-opacity="1" stop-color="rgb(97.416687%, 86.766052%, 18.711853%)" offset="0.179688"/><stop stop-opacity="1" stop-color="rgb(97.407532%, 86.515808%, 18.690491%)" offset="0.183594"/><stop stop-opacity="1" stop-color="rgb(97.399902%, 86.265564%, 18.669128%)" offset="0.1875"/><stop stop-opacity="1" stop-color="rgb(97.392273%, 86.013794%, 18.647766%)" offset="0.191406"/><stop stop-opacity="1" stop-color="rgb(97.384644%, 85.76355%, 18.626404%)" offset="0.195312"/><stop stop-opacity="1" stop-color="rgb(97.375488%, 85.513306%, 18.605042%)" offset="0.199219"/><stop stop-opacity="1" stop-color="rgb(97.367859%, 85.263062%, 18.583679%)" offset="0.203125"/><stop stop-opacity="1" stop-color="rgb(97.360229%, 85.012817%, 18.562317%)" offset="0.207031"/><stop stop-opacity="1" stop-color="rgb(97.3526%, 84.762573%, 18.540955%)" offset="0.210938"/><stop stop-opacity="1" stop-color="rgb(97.343445%, 84.512329%, 18.519592%)" offset="0.214844"/><stop stop-opacity="1" stop-color="rgb(97.335815%, 84.262085%, 18.49823%)" offset="0.21875"/><stop stop-opacity="1" stop-color="rgb(97.328186%, 84.010315%, 18.476868%)" offset="0.222656"/><stop stop-opacity="1" stop-color="rgb(97.320557%, 83.760071%, 18.455505%)" offset="0.226562"/><stop stop-opacity="1" stop-color="rgb(97.311401%, 83.509827%, 18.434143%)" offset="0.230469"/><stop stop-opacity="1" stop-color="rgb(97.303772%, 83.259583%, 18.412781%)" offset="0.234375"/><stop stop-opacity="1" stop-color="rgb(97.288513%, 82.978821%, 18.392944%)" offset="0.238281"/><stop stop-opacity="1" stop-color="rgb(97.273254%, 82.699585%, 18.374634%)" offset="0.242188"/><stop stop-opacity="1" stop-color="rgb(97.253418%, 82.40509%, 18.356323%)" offset="0.246094"/><stop stop-opacity="1" stop-color="rgb(97.233582%, 82.110596%, 18.338013%)" offset="0.25"/><stop stop-opacity="1" stop-color="rgb(97.213745%, 81.816101%, 18.319702%)" offset="0.253906"/><stop stop-opacity="1" stop-color="rgb(97.195435%, 81.523132%, 18.301392%)" offset="0.257812"/><stop stop-opacity="1" stop-color="rgb(97.175598%, 81.228638%, 18.283081%)" offset="0.261719"/><stop stop-opacity="1" stop-color="rgb(97.157288%, 80.934143%, 18.266296%)" offset="0.265625"/><stop stop-opacity="1" stop-color="rgb(97.137451%, 80.639648%, 18.247986%)" offset="0.269531"/><stop stop-opacity="1" stop-color="rgb(97.117615%, 80.345154%, 18.229675%)" offset="0.273438"/><stop stop-opacity="1" stop-color="rgb(97.097778%, 80.050659%, 18.211365%)" offset="0.277344"/><stop stop-opacity="1" stop-color="rgb(97.079468%, 79.756165%, 18.193054%)" offset="0.28125"/><stop stop-opacity="1" stop-color="rgb(97.059631%, 79.46167%, 18.174744%)" offset="0.285156"/><stop stop-opacity="1" stop-color="rgb(97.039795%, 79.168701%, 18.156433%)" offset="0.289062"/><stop stop-opacity="1" stop-color="rgb(97.019958%, 78.874207%, 18.138123%)" offset="0.292969"/><stop stop-opacity="1" stop-color="rgb(97.001648%, 78.579712%, 18.119812%)" offset="0.296875"/><stop stop-opacity="1" stop-color="rgb(96.981812%, 78.285217%, 18.101501%)" offset="0.300781"/><stop stop-opacity="1" stop-color="rgb(96.963501%, 77.990723%, 18.083191%)" offset="0.304688"/><stop stop-opacity="1" stop-color="rgb(96.943665%, 77.696228%, 18.06488%)" offset="0.308594"/><stop stop-opacity="1" stop-color="rgb(96.923828%, 77.403259%, 18.048096%)" offset="0.3125"/><stop stop-opacity="1" stop-color="rgb(96.903992%, 77.108765%, 18.029785%)" offset="0.316406"/><stop stop-opacity="1" stop-color="rgb(96.885681%, 76.81427%, 18.011475%)" offset="0.320312"/><stop stop-opacity="1" stop-color="rgb(96.865845%, 76.519775%, 17.993164%)" offset="0.324219"/><stop stop-opacity="1" stop-color="rgb(96.846008%, 76.225281%, 17.974854%)" offset="0.328125"/><stop stop-opacity="1" stop-color="rgb(96.826172%, 75.930786%, 17.956543%)" offset="0.332031"/><stop stop-opacity="1" stop-color="rgb(96.807861%, 75.637817%, 17.938232%)" offset="0.335938"/><stop stop-opacity="1" stop-color="rgb(96.788025%, 75.343323%, 17.919922%)" offset="0.339844"/><stop stop-opacity="1" stop-color="rgb(96.769714%, 75.048828%, 17.901611%)" offset="0.34375"/><stop stop-opacity="1" stop-color="rgb(96.749878%, 74.754333%, 17.883301%)" offset="0.347656"/><stop stop-opacity="1" stop-color="rgb(96.730042%, 74.459839%, 17.866516%)" offset="0.351562"/><stop stop-opacity="1" stop-color="rgb(96.710205%, 74.165344%, 17.848206%)" offset="0.355469"/><stop stop-opacity="1" stop-color="rgb(96.691895%, 73.87085%, 17.829895%)" offset="0.359375"/><stop stop-opacity="1" stop-color="rgb(96.672058%, 73.576355%, 17.811584%)" offset="0.363281"/><stop stop-opacity="1" stop-color="rgb(96.652222%, 73.283386%, 17.793274%)" offset="0.367188"/><stop stop-opacity="1" stop-color="rgb(96.632385%, 72.988892%, 17.774963%)" offset="0.371094"/><stop stop-opacity="1" stop-color="rgb(96.614075%, 72.694397%, 17.756653%)" offset="0.375"/><stop stop-opacity="1" stop-color="rgb(96.594238%, 72.399902%, 17.738342%)" offset="0.378906"/><stop stop-opacity="1" stop-color="rgb(96.575928%, 72.105408%, 17.720032%)" offset="0.382812"/><stop stop-opacity="1" stop-color="rgb(96.556091%, 71.810913%, 17.701721%)" offset="0.386719"/><stop stop-opacity="1" stop-color="rgb(96.536255%, 71.517944%, 17.684937%)" offset="0.390625"/><stop stop-opacity="1" stop-color="rgb(96.516418%, 71.22345%, 17.666626%)" offset="0.394531"/><stop stop-opacity="1" stop-color="rgb(96.498108%, 70.928955%, 17.648315%)" offset="0.398438"/><stop stop-opacity="1" stop-color="rgb(96.478271%, 70.63446%, 17.630005%)" offset="0.402344"/><stop stop-opacity="1" stop-color="rgb(96.458435%, 70.339966%, 17.611694%)" offset="0.40625"/><stop stop-opacity="1" stop-color="rgb(96.438599%, 70.045471%, 17.593384%)" offset="0.410156"/><stop stop-opacity="1" stop-color="rgb(96.420288%, 69.752502%, 17.575073%)" offset="0.414062"/><stop stop-opacity="1" stop-color="rgb(96.400452%, 69.458008%, 17.556763%)" offset="0.417969"/><stop stop-opacity="1" stop-color="rgb(96.382141%, 69.163513%, 17.538452%)" offset="0.421875"/><stop stop-opacity="1" stop-color="rgb(96.362305%, 68.869019%, 17.520142%)" offset="0.425781"/><stop stop-opacity="1" stop-color="rgb(96.342468%, 68.574524%, 17.503357%)" offset="0.429688"/><stop stop-opacity="1" stop-color="rgb(96.322632%, 68.280029%, 17.485046%)" offset="0.433594"/><stop stop-opacity="1" stop-color="rgb(96.304321%, 67.985535%, 17.466736%)" offset="0.4375"/><stop stop-opacity="1" stop-color="rgb(96.284485%, 67.69104%, 17.448425%)" offset="0.441406"/><stop stop-opacity="1" stop-color="rgb(96.264648%, 67.398071%, 17.430115%)" offset="0.445312"/><stop stop-opacity="1" stop-color="rgb(96.244812%, 67.103577%, 17.411804%)" offset="0.449219"/><stop stop-opacity="1" stop-color="rgb(96.226501%, 66.809082%, 17.393494%)" offset="0.453125"/><stop stop-opacity="1" stop-color="rgb(96.206665%, 66.514587%, 17.375183%)" offset="0.457031"/><stop stop-opacity="1" stop-color="rgb(96.188354%, 66.220093%, 17.356873%)" offset="0.460938"/><stop stop-opacity="1" stop-color="rgb(96.168518%, 65.925598%, 17.338562%)" offset="0.464844"/><stop stop-opacity="1" stop-color="rgb(96.148682%, 65.632629%, 17.321777%)" offset="0.46875"/><stop stop-opacity="1" stop-color="rgb(96.128845%, 65.338135%, 17.303467%)" offset="0.472656"/><stop stop-opacity="1" stop-color="rgb(96.110535%, 65.04364%, 17.285156%)" offset="0.476562"/><stop stop-opacity="1" stop-color="rgb(96.090698%, 64.749146%, 17.266846%)" offset="0.480469"/><stop stop-opacity="1" stop-color="rgb(96.072388%, 64.454651%, 17.248535%)" offset="0.484375"/><stop stop-opacity="1" stop-color="rgb(96.052551%, 64.160156%, 17.230225%)" offset="0.488281"/><stop stop-opacity="1" stop-color="rgb(96.032715%, 63.867188%, 17.211914%)" offset="0.492188"/><stop stop-opacity="1" stop-color="rgb(96.012878%, 63.572693%, 17.193604%)" offset="0.496094"/><stop stop-opacity="1" stop-color="rgb(95.994568%, 63.278198%, 17.175293%)" offset="0.5"/><stop stop-opacity="1" stop-color="rgb(95.974731%, 62.983704%, 17.156982%)" offset="0.503906"/><stop stop-opacity="1" stop-color="rgb(95.954895%, 62.689209%, 17.138672%)" offset="0.507812"/><stop stop-opacity="1" stop-color="rgb(95.935059%, 62.394714%, 17.120361%)" offset="0.511719"/><stop stop-opacity="1" stop-color="rgb(95.916748%, 62.101746%, 17.103577%)" offset="0.515625"/><stop stop-opacity="1" stop-color="rgb(95.896912%, 61.807251%, 17.085266%)" offset="0.519531"/><stop stop-opacity="1" stop-color="rgb(95.878601%, 61.512756%, 17.066956%)" offset="0.523438"/><stop stop-opacity="1" stop-color="rgb(95.858765%, 61.218262%, 17.048645%)" offset="0.527344"/><stop stop-opacity="1" stop-color="rgb(95.838928%, 60.923767%, 17.030334%)" offset="0.53125"/><stop stop-opacity="1" stop-color="rgb(95.819092%, 60.629272%, 17.012024%)" offset="0.535156"/><stop stop-opacity="1" stop-color="rgb(95.800781%, 60.334778%, 16.993713%)" offset="0.539062"/><stop stop-opacity="1" stop-color="rgb(95.780945%, 60.040283%, 16.975403%)" offset="0.542969"/><stop stop-opacity="1" stop-color="rgb(95.761108%, 59.747314%, 16.957092%)" offset="0.546875"/><stop stop-opacity="1" stop-color="rgb(95.741272%, 59.45282%, 16.938782%)" offset="0.550781"/><stop stop-opacity="1" stop-color="rgb(95.722961%, 59.158325%, 16.921997%)" offset="0.554688"/><stop stop-opacity="1" stop-color="rgb(95.701599%, 58.850098%, 16.900635%)" offset="0.558594"/><stop stop-opacity="1" stop-color="rgb(95.681763%, 58.543396%, 16.879272%)" offset="0.5625"/><stop stop-opacity="1" stop-color="rgb(95.6604%, 58.215332%, 16.853333%)" offset="0.566406"/><stop stop-opacity="1" stop-color="rgb(95.639038%, 57.887268%, 16.828918%)" offset="0.570312"/><stop stop-opacity="1" stop-color="rgb(95.61615%, 57.559204%, 16.802979%)" offset="0.574219"/><stop stop-opacity="1" stop-color="rgb(95.594788%, 57.232666%, 16.777039%)" offset="0.578125"/><stop stop-opacity="1" stop-color="rgb(95.573425%, 56.904602%, 16.751099%)" offset="0.582031"/><stop stop-opacity="1" stop-color="rgb(95.552063%, 56.576538%, 16.726685%)" offset="0.585938"/><stop stop-opacity="1" stop-color="rgb(95.529175%, 56.248474%, 16.700745%)" offset="0.589844"/><stop stop-opacity="1" stop-color="rgb(95.507812%, 55.92041%, 16.676331%)" offset="0.59375"/><stop stop-opacity="1" stop-color="rgb(95.484924%, 55.592346%, 16.650391%)" offset="0.597656"/><stop stop-opacity="1" stop-color="rgb(95.463562%, 55.264282%, 16.624451%)" offset="0.601562"/><stop stop-opacity="1" stop-color="rgb(95.4422%, 54.936218%, 16.598511%)" offset="0.605469"/><stop stop-opacity="1" stop-color="rgb(95.420837%, 54.60968%, 16.574097%)" offset="0.609375"/><stop stop-opacity="1" stop-color="rgb(95.397949%, 54.281616%, 16.548157%)" offset="0.613281"/><stop stop-opacity="1" stop-color="rgb(95.376587%, 53.953552%, 16.523743%)" offset="0.617188"/><stop stop-opacity="1" stop-color="rgb(95.355225%, 53.625488%, 16.497803%)" offset="0.621094"/><stop stop-opacity="1" stop-color="rgb(95.333862%, 53.297424%, 16.471863%)" offset="0.625"/><stop stop-opacity="1" stop-color="rgb(95.310974%, 52.96936%, 16.445923%)" offset="0.628906"/><stop stop-opacity="1" stop-color="rgb(95.289612%, 52.641296%, 16.421509%)" offset="0.632812"/><stop stop-opacity="1" stop-color="rgb(95.26825%, 52.313232%, 16.395569%)" offset="0.636719"/><stop stop-opacity="1" stop-color="rgb(95.246887%, 51.986694%, 16.371155%)" offset="0.640625"/><stop stop-opacity="1" stop-color="rgb(95.223999%, 51.65863%, 16.345215%)" offset="0.644531"/><stop stop-opacity="1" stop-color="rgb(95.202637%, 51.330566%, 16.319275%)" offset="0.648438"/><stop stop-opacity="1" stop-color="rgb(95.179749%, 51.002502%, 16.293335%)" offset="0.652344"/><stop stop-opacity="1" stop-color="rgb(95.158386%, 50.674438%, 16.268921%)" offset="0.65625"/><stop stop-opacity="1" stop-color="rgb(95.137024%, 50.346375%, 16.242981%)" offset="0.660156"/><stop stop-opacity="1" stop-color="rgb(95.115662%, 50.019836%, 16.218567%)" offset="0.664062"/><stop stop-opacity="1" stop-color="rgb(95.092773%, 49.691772%, 16.192627%)" offset="0.667969"/><stop stop-opacity="1" stop-color="rgb(95.071411%, 49.363708%, 16.166687%)" offset="0.671875"/><stop stop-opacity="1" stop-color="rgb(95.050049%, 49.035645%, 16.140747%)" offset="0.675781"/><stop stop-opacity="1" stop-color="rgb(95.028687%, 48.707581%, 16.116333%)" offset="0.679688"/><stop stop-opacity="1" stop-color="rgb(95.005798%, 48.379517%, 16.090393%)" offset="0.683594"/><stop stop-opacity="1" stop-color="rgb(94.984436%, 48.051453%, 16.065979%)" offset="0.6875"/><stop stop-opacity="1" stop-color="rgb(94.963074%, 47.723389%, 16.040039%)" offset="0.691406"/><stop stop-opacity="1" stop-color="rgb(94.941711%, 47.396851%, 16.014099%)" offset="0.695312"/><stop stop-opacity="1" stop-color="rgb(94.918823%, 47.068787%, 15.988159%)" offset="0.699219"/><stop stop-opacity="1" stop-color="rgb(94.897461%, 46.740723%, 15.963745%)" offset="0.703125"/><stop stop-opacity="1" stop-color="rgb(94.874573%, 46.412659%, 15.937805%)" offset="0.707031"/><stop stop-opacity="1" stop-color="rgb(94.85321%, 46.084595%, 15.913391%)" offset="0.710938"/><stop stop-opacity="1" stop-color="rgb(94.831848%, 45.756531%, 15.887451%)" offset="0.714844"/><stop stop-opacity="1" stop-color="rgb(94.810486%, 45.428467%, 15.861511%)" offset="0.71875"/><stop stop-opacity="1" stop-color="rgb(94.787598%, 45.100403%, 15.835571%)" offset="0.722656"/><stop stop-opacity="1" stop-color="rgb(94.766235%, 44.773865%, 15.811157%)" offset="0.726562"/><stop stop-opacity="1" stop-color="rgb(94.744873%, 44.445801%, 15.785217%)" offset="0.730469"/><stop stop-opacity="1" stop-color="rgb(94.723511%, 44.117737%, 15.760803%)" offset="0.734375"/><stop stop-opacity="1" stop-color="rgb(94.700623%, 43.789673%, 15.734863%)" offset="0.738281"/><stop stop-opacity="1" stop-color="rgb(94.67926%, 43.461609%, 15.708923%)" offset="0.742188"/><stop stop-opacity="1" stop-color="rgb(94.657898%, 43.133545%, 15.682983%)" offset="0.746094"/><stop stop-opacity="1" stop-color="rgb(94.636536%, 42.805481%, 15.658569%)" offset="0.75"/><stop stop-opacity="1" stop-color="rgb(94.613647%, 42.477417%, 15.632629%)" offset="0.753906"/><stop stop-opacity="1" stop-color="rgb(94.592285%, 42.150879%, 15.608215%)" offset="0.757812"/><stop stop-opacity="1" stop-color="rgb(94.569397%, 41.822815%, 15.582275%)" offset="0.761719"/><stop stop-opacity="1" stop-color="rgb(94.548035%, 41.494751%, 15.556335%)" offset="0.765625"/><stop stop-opacity="1" stop-color="rgb(94.526672%, 41.166687%, 15.530396%)" offset="0.769531"/><stop stop-opacity="1" stop-color="rgb(94.50531%, 40.838623%, 15.505981%)" offset="0.773438"/><stop stop-opacity="1" stop-color="rgb(94.482422%, 40.510559%, 15.480042%)" offset="0.777344"/><stop stop-opacity="1" stop-color="rgb(94.46106%, 40.182495%, 15.455627%)" offset="0.78125"/><stop stop-opacity="1" stop-color="rgb(94.439697%, 39.854431%, 15.429688%)" offset="0.785156"/><stop stop-opacity="1" stop-color="rgb(94.418335%, 39.527893%, 15.403748%)" offset="0.789062"/><stop stop-opacity="1" stop-color="rgb(94.395447%, 39.199829%, 15.377808%)" offset="0.792969"/><stop stop-opacity="1" stop-color="rgb(94.374084%, 38.871765%, 15.353394%)" offset="0.796875"/><stop stop-opacity="1" stop-color="rgb(94.352722%, 38.543701%, 15.327454%)" offset="0.800781"/><stop stop-opacity="1" stop-color="rgb(94.33136%, 38.215637%, 15.30304%)" offset="0.804688"/><stop stop-opacity="1" stop-color="rgb(94.308472%, 37.887573%, 15.2771%)" offset="0.808594"/><stop stop-opacity="1" stop-color="rgb(94.287109%, 37.559509%, 15.25116%)" offset="0.8125"/><stop stop-opacity="1" stop-color="rgb(94.265747%, 37.231445%, 15.22522%)" offset="0.816406"/><stop stop-opacity="1" stop-color="rgb(94.244385%, 36.904907%, 15.200806%)" offset="0.820312"/><stop stop-opacity="1" stop-color="rgb(94.221497%, 36.576843%, 15.174866%)" offset="0.824219"/><stop stop-opacity="1" stop-color="rgb(94.200134%, 36.248779%, 15.150452%)" offset="0.828125"/><stop stop-opacity="1" stop-color="rgb(94.177246%, 35.920715%, 15.124512%)" offset="0.832031"/><stop stop-opacity="1" stop-color="rgb(94.155884%, 35.592651%, 15.098572%)" offset="0.835938"/><stop stop-opacity="1" stop-color="rgb(94.134521%, 35.264587%, 15.072632%)" offset="0.839844"/><stop stop-opacity="1" stop-color="rgb(94.113159%, 34.936523%, 15.048218%)" offset="0.84375"/><stop stop-opacity="1" stop-color="rgb(94.090271%, 34.608459%, 15.022278%)" offset="0.847656"/><stop stop-opacity="1" stop-color="rgb(94.068909%, 34.281921%, 14.997864%)" offset="0.851562"/><stop stop-opacity="1" stop-color="rgb(94.047546%, 33.953857%, 14.971924%)" offset="0.855469"/><stop stop-opacity="1" stop-color="rgb(94.026184%, 33.625793%, 14.945984%)" offset="0.859375"/><stop stop-opacity="1" stop-color="rgb(94.003296%, 33.297729%, 14.920044%)" offset="0.863281"/><stop stop-opacity="1" stop-color="rgb(93.981934%, 32.969666%, 14.89563%)" offset="0.867188"/><stop stop-opacity="1" stop-color="rgb(93.960571%, 32.641602%, 14.86969%)" offset="0.871094"/><stop stop-opacity="1" stop-color="rgb(93.939209%, 32.313538%, 14.845276%)" offset="0.875"/><stop stop-opacity="1" stop-color="rgb(93.916321%, 31.985474%, 14.819336%)" offset="0.878906"/><stop stop-opacity="1" stop-color="rgb(93.894958%, 31.658936%, 14.793396%)" offset="0.882812"/><stop stop-opacity="1" stop-color="rgb(93.87207%, 31.330872%, 14.767456%)" offset="0.886719"/><stop stop-opacity="1" stop-color="rgb(93.850708%, 31.002808%, 14.743042%)" offset="0.890625"/><stop stop-opacity="1" stop-color="rgb(93.829346%, 30.674744%, 14.717102%)" offset="0.894531"/><stop stop-opacity="1" stop-color="rgb(93.807983%, 30.34668%, 14.692688%)" offset="0.898438"/><stop stop-opacity="1" stop-color="rgb(93.785095%, 30.018616%, 14.666748%)" offset="0.902344"/><stop stop-opacity="1" stop-color="rgb(93.763733%, 29.692078%, 14.640808%)" offset="0.90625"/><stop stop-opacity="1" stop-color="rgb(93.742371%, 29.364014%, 14.614868%)" offset="0.910156"/><stop stop-opacity="1" stop-color="rgb(93.721008%, 29.03595%, 14.590454%)" offset="0.914062"/><stop stop-opacity="1" stop-color="rgb(93.69812%, 28.707886%, 14.564514%)" offset="0.917969"/><stop stop-opacity="1" stop-color="rgb(93.676758%, 28.379822%, 14.5401%)" offset="0.921875"/><stop stop-opacity="1" stop-color="rgb(93.655396%, 28.051758%, 14.51416%)" offset="0.925781"/><stop stop-opacity="1" stop-color="rgb(93.634033%, 27.723694%, 14.48822%)" offset="0.929688"/><stop stop-opacity="1" stop-color="rgb(93.611145%, 27.39563%, 14.46228%)" offset="0.933594"/><stop stop-opacity="1" stop-color="rgb(93.589783%, 27.069092%, 14.437866%)" offset="0.9375"/><stop stop-opacity="1" stop-color="rgb(93.566895%, 26.741028%, 14.411926%)" offset="0.941406"/><stop stop-opacity="1" stop-color="rgb(93.545532%, 26.412964%, 14.387512%)" offset="0.945312"/><stop stop-opacity="1" stop-color="rgb(93.52417%, 26.0849%, 14.361572%)" offset="0.949219"/><stop stop-opacity="1" stop-color="rgb(93.502808%, 25.756836%, 14.337158%)" offset="0.953125"/><stop stop-opacity="1" stop-color="rgb(93.479919%, 25.428772%, 14.311218%)" offset="0.957031"/><stop stop-opacity="1" stop-color="rgb(93.458557%, 25.100708%, 14.285278%)" offset="0.960938"/><stop stop-opacity="1" stop-color="rgb(93.437195%, 24.772644%, 14.259338%)" offset="0.964844"/><stop stop-opacity="1" stop-color="rgb(93.415833%, 24.446106%, 14.234924%)" offset="0.96875"/><stop stop-opacity="1" stop-color="rgb(93.392944%, 24.118042%, 14.208984%)" offset="0.972656"/><stop stop-opacity="1" stop-color="rgb(93.371582%, 23.789978%, 14.18457%)" offset="0.976562"/><stop stop-opacity="1" stop-color="rgb(93.35022%, 23.461914%, 14.15863%)" offset="0.980469"/><stop stop-opacity="1" stop-color="rgb(93.328857%, 23.13385%, 14.13269%)" offset="0.984375"/><stop stop-opacity="1" stop-color="rgb(93.313599%, 22.915649%, 14.115906%)" offset="0.988281"/><stop stop-opacity="1" stop-color="rgb(93.299866%, 22.698975%, 14.099121%)" offset="0.992188"/><stop stop-opacity="1" stop-color="rgb(93.299866%, 22.698975%, 14.099121%)" offset="1"/></linearGradient><clipPath id="7cff8d69c1"><path d="M 3 16 L 55 16 L 55 41 L 3 41 Z M 3 16 " clip-rule="nonzero"/></clipPath><clipPath id="3fc29853f5"><path d="M 6.488281 0.9375 L 69.621094 9.8125 L 63.148438 55.859375 L 0.015625 46.984375 Z M 6.488281 0.9375 " clip-rule="nonzero"/></clipPath><clipPath id="6bb54c6eca"><path d="M 3.285156 23.730469 C 2.4375 29.777344 4.023438 35.910156 7.695312 40.785156 C 11.371094 45.660156 16.832031 48.878906 22.875 49.726562 L 40.167969 52.15625 C 46.210938 53.007812 52.347656 51.421875 57.222656 47.746094 C 62.097656 44.074219 65.3125 38.613281 66.164062 32.570312 C 67.011719 26.523438 65.425781 20.386719 61.753906 15.511719 C 58.078125 10.636719 52.617188 7.421875 46.574219 6.570312 L 29.28125 4.140625 C 23.238281 3.292969 17.101562 4.878906 12.226562 8.550781 C 7.351562 12.226562 4.136719 17.6875 3.285156 23.730469 Z M 3.285156 23.730469 " clip-rule="nonzero"/></clipPath><clipPath id="3c4e7f54f9"><path d="M 6.488281 0.9375 L 69.621094 9.8125 L 63.25 55.117188 L 0.121094 46.242188 Z M 6.488281 0.9375 " clip-rule="nonzero"/></clipPath><clipPath id="e2f0a8409e"><path d="M 6.488281 0.9375 L 69.621094 9.8125 L 63.25 55.117188 L 0.121094 46.242188 Z M 6.488281 0.9375 " clip-rule="nonzero"/></clipPath><clipPath id="fac17dd269"><path d="M 6.488281 0.9375 L 69.621094 9.8125 L 63.25 55.117188 L 0.121094 46.242188 Z M 6.488281 0.9375 " clip-rule="nonzero"/></clipPath><clipPath id="e448bd8390"><path d="M 41 19 L 67 19 L 67 37 L 41 37 Z M 41 19 " clip-rule="nonzero"/></clipPath><clipPath id="8084cd34e7"><path d="M 6.488281 0.9375 L 69.621094 9.8125 L 63.148438 55.859375 L 0.015625 46.984375 Z M 6.488281 0.9375 " clip-rule="nonzero"/></clipPath><clipPath id="9d8a90c3c2"><path d="M 3.285156 23.730469 C 2.4375 29.777344 4.023438 35.910156 7.695312 40.785156 C 11.371094 45.660156 16.832031 48.878906 22.875 49.726562 L 40.167969 52.15625 C 46.210938 53.007812 52.347656 51.421875 57.222656 47.746094 C 62.097656 44.074219 65.3125 38.613281 66.164062 32.570312 C 67.011719 26.523438 65.425781 20.386719 61.753906 15.511719 C 58.078125 10.636719 52.617188 7.421875 46.574219 6.570312 L 29.28125 4.140625 C 23.238281 3.292969 17.101562 4.878906 12.226562 8.550781 C 7.351562 12.226562 4.136719 17.6875 3.285156 23.730469 Z M 3.285156 23.730469 " clip-rule="nonzero"/></clipPath><clipPath id="45b1d626f9"><path d="M 6.488281 0.9375 L 69.621094 9.8125 L 63.25 55.117188 L 0.121094 46.242188 Z M 6.488281 0.9375 " clip-rule="nonzero"/></clipPath><clipPath id="543e620c09"><path d="M 6.488281 0.9375 L 69.621094 9.8125 L 63.25 55.117188 L 0.121094 46.242188 Z M 6.488281 0.9375 " clip-rule="nonzero"/></clipPath><clipPath id="537f58dea5"><path d="M 6.488281 0.9375 L 69.621094 9.8125 L 63.25 55.117188 L 0.121094 46.242188 Z M 6.488281 0.9375 " clip-rule="nonzero"/></clipPath><clipPath id="fc65977f4f"><path d="M 54 24 L 67 24 L 67 37 L 54 37 Z M 54 24 " clip-rule="nonzero"/></clipPath><clipPath id="cd492cbd88"><path d="M 6.488281 0.9375 L 69.621094 9.8125 L 63.148438 55.859375 L 0.015625 46.984375 Z M 6.488281 0.9375 " clip-rule="nonzero"/></clipPath><clipPath id="05c549f137"><path d="M 3.285156 23.730469 C 2.4375 29.777344 4.023438 35.910156 7.695312 40.785156 C 11.371094 45.660156 16.832031 48.878906 22.875 49.726562 L 40.167969 52.15625 C 46.210938 53.007812 52.347656 51.421875 57.222656 47.746094 C 62.097656 44.074219 65.3125 38.613281 66.164062 32.570312 C 67.011719 26.523438 65.425781 20.386719 61.753906 15.511719 C 58.078125 10.636719 52.617188 7.421875 46.574219 6.570312 L 29.28125 4.140625 C 23.238281 3.292969 17.101562 4.878906 12.226562 8.550781 C 7.351562 12.226562 4.136719 17.6875 3.285156 23.730469 Z M 3.285156 23.730469 " clip-rule="nonzero"/></clipPath><clipPath id="521f246a89"><path d="M 6.488281 0.9375 L 69.621094 9.8125 L 63.25 55.117188 L 0.121094 46.242188 Z M 6.488281 0.9375 " clip-rule="nonzero"/></clipPath><clipPath id="43432cf2bc"><path d="M 6.488281 0.9375 L 69.621094 9.8125 L 63.25 55.117188 L 0.121094 46.242188 Z M 6.488281 0.9375 " clip-rule="nonzero"/></clipPath><clipPath id="cbe65ca89e"><path d="M 6.488281 0.9375 L 69.621094 9.8125 L 63.25 55.117188 L 0.121094 46.242188 Z M 6.488281 0.9375 " clip-rule="nonzero"/></clipPath><clipPath id="f5790161f7"><path d="M 41 21 L 61 21 L 61 37 L 41 37 Z M 41 21 " clip-rule="nonzero"/></clipPath><clipPath id="711d3a3062"><path d="M 6.488281 0.9375 L 69.621094 9.8125 L 63.148438 55.859375 L 0.015625 46.984375 Z M 6.488281 0.9375 " clip-rule="nonzero"/></clipPath><clipPath id="e4914e04eb"><path d="M 3.285156 23.730469 C 2.4375 29.777344 4.023438 35.910156 7.695312 40.785156 C 11.371094 45.660156 16.832031 48.878906 22.875 49.726562 L 40.167969 52.15625 C 46.210938 53.007812 52.347656 51.421875 57.222656 47.746094 C 62.097656 44.074219 65.3125 38.613281 66.164062 32.570312 C 67.011719 26.523438 65.425781 20.386719 61.753906 15.511719 C 58.078125 10.636719 52.617188 7.421875 46.574219 6.570312 L 29.28125 4.140625 C 23.238281 3.292969 17.101562 4.878906 12.226562 8.550781 C 7.351562 12.226562 4.136719 17.6875 3.285156 23.730469 Z M 3.285156 23.730469 " clip-rule="nonzero"/></clipPath><clipPath id="18fff4a2e5"><path d="M 6.488281 0.9375 L 69.621094 9.8125 L 63.25 55.117188 L 0.121094 46.242188 Z M 6.488281 0.9375 " clip-rule="nonzero"/></clipPath><clipPath id="00b6204df8"><path d="M 6.488281 0.9375 L 69.621094 9.8125 L 63.25 55.117188 L 0.121094 46.242188 Z M 6.488281 0.9375 " clip-rule="nonzero"/></clipPath><clipPath id="3cdb8abf40"><path d="M 6.488281 0.9375 L 69.621094 9.8125 L 63.25 55.117188 L 0.121094 46.242188 Z M 6.488281 0.9375 " clip-rule="nonzero"/></clipPath><clipPath id="4894b3f1f5"><path d="M 27 25 L 41 25 L 41 49 L 27 49 Z M 27 25 " clip-rule="nonzero"/></clipPath><clipPath id="401d2f0b34"><path d="M 6.488281 0.9375 L 69.621094 9.8125 L 63.148438 55.859375 L 0.015625 46.984375 Z M 6.488281 0.9375 " clip-rule="nonzero"/></clipPath><clipPath id="a1f4c32c7a"><path d="M 3.285156 23.730469 C 2.4375 29.777344 4.023438 35.910156 7.695312 40.785156 C 11.371094 45.660156 16.832031 48.878906 22.875 49.726562 L 40.167969 52.15625 C 46.210938 53.007812 52.347656 51.421875 57.222656 47.746094 C 62.097656 44.074219 65.3125 38.613281 66.164062 32.570312 C 67.011719 26.523438 65.425781 20.386719 61.753906 15.511719 C 58.078125 10.636719 52.617188 7.421875 46.574219 6.570312 L 29.28125 4.140625 C 23.238281 3.292969 17.101562 4.878906 12.226562 8.550781 C 7.351562 12.226562 4.136719 17.6875 3.285156 23.730469 Z M 3.285156 23.730469 " clip-rule="nonzero"/></clipPath><clipPath id="96e4bee09f"><path d="M 6.488281 0.9375 L 69.621094 9.8125 L 63.25 55.117188 L 0.121094 46.242188 Z M 6.488281 0.9375 " clip-rule="nonzero"/></clipPath><clipPath id="46f2f5dac4"><path d="M 6.488281 0.9375 L 69.621094 9.8125 L 63.25 55.117188 L 0.121094 46.242188 Z M 6.488281 0.9375 " clip-rule="nonzero"/></clipPath><clipPath id="74c22da226"><path d="M 6.488281 0.9375 L 69.621094 9.8125 L 63.25 55.117188 L 0.121094 46.242188 Z M 6.488281 0.9375 " clip-rule="nonzero"/></clipPath><clipPath id="f06cb93e50"><path d="M 19 33 L 23 33 L 23 37 L 19 37 Z M 19 33 " clip-rule="nonzero"/></clipPath><clipPath id="b60caba440"><path d="M 6.488281 0.9375 L 69.621094 9.8125 L 63.148438 55.859375 L 0.015625 46.984375 Z M 6.488281 0.9375 " clip-rule="nonzero"/></clipPath><clipPath id="f85c6403bc"><path d="M 3.285156 23.730469 C 2.4375 29.777344 4.023438 35.910156 7.695312 40.785156 C 11.371094 45.660156 16.832031 48.878906 22.875 49.726562 L 40.167969 52.15625 C 46.210938 53.007812 52.347656 51.421875 57.222656 47.746094 C 62.097656 44.074219 65.3125 38.613281 66.164062 32.570312 C 67.011719 26.523438 65.425781 20.386719 61.753906 15.511719 C 58.078125 10.636719 52.617188 7.421875 46.574219 6.570312 L 29.28125 4.140625 C 23.238281 3.292969 17.101562 4.878906 12.226562 8.550781 C 7.351562 12.226562 4.136719 17.6875 3.285156 23.730469 Z M 3.285156 23.730469 " clip-rule="nonzero"/></clipPath><clipPath id="3aa0d920e3"><path d="M 6.488281 0.9375 L 69.621094 9.8125 L 63.25 55.117188 L 0.121094 46.242188 Z M 6.488281 0.9375 " clip-rule="nonzero"/></clipPath><clipPath id="801a98b7db"><path d="M 6.488281 0.9375 L 69.621094 9.8125 L 63.25 55.117188 L 0.121094 46.242188 Z M 6.488281 0.9375 " clip-rule="nonzero"/></clipPath><clipPath id="d51b5d2998"><path d="M 6.488281 0.9375 L 69.621094 9.8125 L 63.25 55.117188 L 0.121094 46.242188 Z M 6.488281 0.9375 " clip-rule="nonzero"/></clipPath><clipPath id="74af21fa46"><path d="M 23 36 L 27 36 L 27 40 L 23 40 Z M 23 36 " clip-rule="nonzero"/></clipPath><clipPath id="933f528434"><path d="M 6.488281 0.9375 L 69.621094 9.8125 L 63.148438 55.859375 L 0.015625 46.984375 Z M 6.488281 0.9375 " clip-rule="nonzero"/></clipPath><clipPath id="b4eb0fa57f"><path d="M 3.285156 23.730469 C 2.4375 29.777344 4.023438 35.910156 7.695312 40.785156 C 11.371094 45.660156 16.832031 48.878906 22.875 49.726562 L 40.167969 52.15625 C 46.210938 53.007812 52.347656 51.421875 57.222656 47.746094 C 62.097656 44.074219 65.3125 38.613281 66.164062 32.570312 C 67.011719 26.523438 65.425781 20.386719 61.753906 15.511719 C 58.078125 10.636719 52.617188 7.421875 46.574219 6.570312 L 29.28125 4.140625 C 23.238281 3.292969 17.101562 4.878906 12.226562 8.550781 C 7.351562 12.226562 4.136719 17.6875 3.285156 23.730469 Z M 3.285156 23.730469 " clip-rule="nonzero"/></clipPath><clipPath id="b0e35d6b6c"><path d="M 6.488281 0.9375 L 69.621094 9.8125 L 63.25 55.117188 L 0.121094 46.242188 Z M 6.488281 0.9375 " clip-rule="nonzero"/></clipPath><clipPath id="fb2bfb682d"><path d="M 6.488281 0.9375 L 69.621094 9.8125 L 63.25 55.117188 L 0.121094 46.242188 Z M 6.488281 0.9375 " clip-rule="nonzero"/></clipPath><clipPath id="6c4a7df38e"><path d="M 6.488281 0.9375 L 69.621094 9.8125 L 63.25 55.117188 L 0.121094 46.242188 Z M 6.488281 0.9375 " clip-rule="nonzero"/></clipPath><clipPath id="7e04357d7c"><path d="M 12 35 L 16 35 L 16 40 L 12 40 Z M 12 35 " clip-rule="nonzero"/></clipPath><clipPath id="16c5842e33"><path d="M 6.488281 0.9375 L 69.621094 9.8125 L 63.148438 55.859375 L 0.015625 46.984375 Z M 6.488281 0.9375 " clip-rule="nonzero"/></clipPath><clipPath id="1f2581ab61"><path d="M 3.285156 23.730469 C 2.4375 29.777344 4.023438 35.910156 7.695312 40.785156 C 11.371094 45.660156 16.832031 48.878906 22.875 49.726562 L 40.167969 52.15625 C 46.210938 53.007812 52.347656 51.421875 57.222656 47.746094 C 62.097656 44.074219 65.3125 38.613281 66.164062 32.570312 C 67.011719 26.523438 65.425781 20.386719 61.753906 15.511719 C 58.078125 10.636719 52.617188 7.421875 46.574219 6.570312 L 29.28125 4.140625 C 23.238281 3.292969 17.101562 4.878906 12.226562 8.550781 C 7.351562 12.226562 4.136719 17.6875 3.285156 23.730469 Z M 3.285156 23.730469 " clip-rule="nonzero"/></clipPath><clipPath id="5e866d2647"><path d="M 6.488281 0.9375 L 69.621094 9.8125 L 63.25 55.117188 L 0.121094 46.242188 Z M 6.488281 0.9375 " clip-rule="nonzero"/></clipPath><clipPath id="978b6e4e5c"><path d="M 6.488281 0.9375 L 69.621094 9.8125 L 63.25 55.117188 L 0.121094 46.242188 Z M 6.488281 0.9375 " clip-rule="nonzero"/></clipPath><clipPath id="73f202df44"><path d="M 6.488281 0.9375 L 69.621094 9.8125 L 63.25 55.117188 L 0.121094 46.242188 Z M 6.488281 0.9375 " clip-rule="nonzero"/></clipPath><clipPath id="d617b18d4f"><path d="M 3 35 L 7 35 L 7 39 L 3 39 Z M 3 35 " clip-rule="nonzero"/></clipPath><clipPath id="2c19c15ce8"><path d="M 6.488281 0.9375 L 69.621094 9.8125 L 63.148438 55.859375 L 0.015625 46.984375 Z M 6.488281 0.9375 " clip-rule="nonzero"/></clipPath><clipPath id="8ce9368ff1"><path d="M 3.285156 23.730469 C 2.4375 29.777344 4.023438 35.910156 7.695312 40.785156 C 11.371094 45.660156 16.832031 48.878906 22.875 49.726562 L 40.167969 52.15625 C 46.210938 53.007812 52.347656 51.421875 57.222656 47.746094 C 62.097656 44.074219 65.3125 38.613281 66.164062 32.570312 C 67.011719 26.523438 65.425781 20.386719 61.753906 15.511719 C 58.078125 10.636719 52.617188 7.421875 46.574219 6.570312 L 29.28125 4.140625 C 23.238281 3.292969 17.101562 4.878906 12.226562 8.550781 C 7.351562 12.226562 4.136719 17.6875 3.285156 23.730469 Z M 3.285156 23.730469 " clip-rule="nonzero"/></clipPath><clipPath id="9d3e6f50bd"><path d="M 6.488281 0.9375 L 69.621094 9.8125 L 63.25 55.117188 L 0.121094 46.242188 Z M 6.488281 0.9375 " clip-rule="nonzero"/></clipPath><clipPath id="686a6492bb"><path d="M 6.488281 0.9375 L 69.621094 9.8125 L 63.25 55.117188 L 0.121094 46.242188 Z M 6.488281 0.9375 " clip-rule="nonzero"/></clipPath><clipPath id="f5fa18d277"><path d="M 6.488281 0.9375 L 69.621094 9.8125 L 63.25 55.117188 L 0.121094 46.242188 Z M 6.488281 0.9375 " clip-rule="nonzero"/></clipPath><clipPath id="48a964dfa6"><path d="M 13 42 L 18 42 L 18 47 L 13 47 Z M 13 42 " clip-rule="nonzero"/></clipPath><clipPath id="b7125c5d32"><path d="M 6.488281 0.9375 L 69.621094 9.8125 L 63.148438 55.859375 L 0.015625 46.984375 Z M 6.488281 0.9375 " clip-rule="nonzero"/></clipPath><clipPath id="6a5117fa04"><path d="M 3.285156 23.730469 C 2.4375 29.777344 4.023438 35.910156 7.695312 40.785156 C 11.371094 45.660156 16.832031 48.878906 22.875 49.726562 L 40.167969 52.15625 C 46.210938 53.007812 52.347656 51.421875 57.222656 47.746094 C 62.097656 44.074219 65.3125 38.613281 66.164062 32.570312 C 67.011719 26.523438 65.425781 20.386719 61.753906 15.511719 C 58.078125 10.636719 52.617188 7.421875 46.574219 6.570312 L 29.28125 4.140625 C 23.238281 3.292969 17.101562 4.878906 12.226562 8.550781 C 7.351562 12.226562 4.136719 17.6875 3.285156 23.730469 Z M 3.285156 23.730469 " clip-rule="nonzero"/></clipPath><clipPath id="9075c3fbf7"><path d="M 6.488281 0.9375 L 69.621094 9.8125 L 63.25 55.117188 L 0.121094 46.242188 Z M 6.488281 0.9375 " clip-rule="nonzero"/></clipPath><clipPath id="caa99016d6"><path d="M 6.488281 0.9375 L 69.621094 9.8125 L 63.25 55.117188 L 0.121094 46.242188 Z M 6.488281 0.9375 " clip-rule="nonzero"/></clipPath><clipPath id="6a35837ffd"><path d="M 6.488281 0.9375 L 69.621094 9.8125 L 63.25 55.117188 L 0.121094 46.242188 Z M 6.488281 0.9375 " clip-rule="nonzero"/></clipPath><clipPath id="61b0a6c2ac"><path d="M 22 43 L 26 43 L 26 47 L 22 47 Z M 22 43 " clip-rule="nonzero"/></clipPath><clipPath id="eae2688067"><path d="M 6.488281 0.9375 L 69.621094 9.8125 L 63.148438 55.859375 L 0.015625 46.984375 Z M 6.488281 0.9375 " clip-rule="nonzero"/></clipPath><clipPath id="4e4a918236"><path d="M 3.285156 23.730469 C 2.4375 29.777344 4.023438 35.910156 7.695312 40.785156 C 11.371094 45.660156 16.832031 48.878906 22.875 49.726562 L 40.167969 52.15625 C 46.210938 53.007812 52.347656 51.421875 57.222656 47.746094 C 62.097656 44.074219 65.3125 38.613281 66.164062 32.570312 C 67.011719 26.523438 65.425781 20.386719 61.753906 15.511719 C 58.078125 10.636719 52.617188 7.421875 46.574219 6.570312 L 29.28125 4.140625 C 23.238281 3.292969 17.101562 4.878906 12.226562 8.550781 C 7.351562 12.226562 4.136719 17.6875 3.285156 23.730469 Z M 3.285156 23.730469 " clip-rule="nonzero"/></clipPath><clipPath id="976ebbd0a3"><path d="M 6.488281 0.9375 L 69.621094 9.8125 L 63.25 55.117188 L 0.121094 46.242188 Z M 6.488281 0.9375 " clip-rule="nonzero"/></clipPath><clipPath id="9f154a298a"><path d="M 6.488281 0.9375 L 69.621094 9.8125 L 63.25 55.117188 L 0.121094 46.242188 Z M 6.488281 0.9375 " clip-rule="nonzero"/></clipPath><clipPath id="f030a0e5e6"><path d="M 6.488281 0.9375 L 69.621094 9.8125 L 63.25 55.117188 L 0.121094 46.242188 Z M 6.488281 0.9375 " clip-rule="nonzero"/></clipPath><clipPath id="d8269a9e5d"><path d="M 41 37 L 45 37 L 45 42 L 41 42 Z M 41 37 " clip-rule="nonzero"/></clipPath><clipPath id="fc968e6430"><path d="M 6.488281 0.9375 L 69.621094 9.8125 L 63.148438 55.859375 L 0.015625 46.984375 Z M 6.488281 0.9375 " clip-rule="nonzero"/></clipPath><clipPath id="e6f0beff5e"><path d="M 3.285156 23.730469 C 2.4375 29.777344 4.023438 35.910156 7.695312 40.785156 C 11.371094 45.660156 16.832031 48.878906 22.875 49.726562 L 40.167969 52.15625 C 46.210938 53.007812 52.347656 51.421875 57.222656 47.746094 C 62.097656 44.074219 65.3125 38.613281 66.164062 32.570312 C 67.011719 26.523438 65.425781 20.386719 61.753906 15.511719 C 58.078125 10.636719 52.617188 7.421875 46.574219 6.570312 L 29.28125 4.140625 C 23.238281 3.292969 17.101562 4.878906 12.226562 8.550781 C 7.351562 12.226562 4.136719 17.6875 3.285156 23.730469 Z M 3.285156 23.730469 " clip-rule="nonzero"/></clipPath><clipPath id="802a2bdfbe"><path d="M 6.488281 0.9375 L 69.621094 9.8125 L 63.25 55.117188 L 0.121094 46.242188 Z M 6.488281 0.9375 " clip-rule="nonzero"/></clipPath><clipPath id="0c9b84186b"><path d="M 6.488281 0.9375 L 69.621094 9.8125 L 63.25 55.117188 L 0.121094 46.242188 Z M 6.488281 0.9375 " clip-rule="nonzero"/></clipPath><clipPath id="5e3848e705"><path d="M 6.488281 0.9375 L 69.621094 9.8125 L 63.25 55.117188 L 0.121094 46.242188 Z M 6.488281 0.9375 " clip-rule="nonzero"/></clipPath><clipPath id="115939e787"><path d="M 46 34 L 49 34 L 49 38 L 46 38 Z M 46 34 " clip-rule="nonzero"/></clipPath><clipPath id="4561fabc74"><path d="M 6.488281 0.9375 L 69.621094 9.8125 L 63.148438 55.859375 L 0.015625 46.984375 Z M 6.488281 0.9375 " clip-rule="nonzero"/></clipPath><clipPath id="a5341be72c"><path d="M 3.285156 23.730469 C 2.4375 29.777344 4.023438 35.910156 7.695312 40.785156 C 11.371094 45.660156 16.832031 48.878906 22.875 49.726562 L 40.167969 52.15625 C 46.210938 53.007812 52.347656 51.421875 57.222656 47.746094 C 62.097656 44.074219 65.3125 38.613281 66.164062 32.570312 C 67.011719 26.523438 65.425781 20.386719 61.753906 15.511719 C 58.078125 10.636719 52.617188 7.421875 46.574219 6.570312 L 29.28125 4.140625 C 23.238281 3.292969 17.101562 4.878906 12.226562 8.550781 C 7.351562 12.226562 4.136719 17.6875 3.285156 23.730469 Z M 3.285156 23.730469 " clip-rule="nonzero"/></clipPath><clipPath id="9dc2192612"><path d="M 6.488281 0.9375 L 69.621094 9.8125 L 63.25 55.117188 L 0.121094 46.242188 Z M 6.488281 0.9375 " clip-rule="nonzero"/></clipPath><clipPath id="1bb39f30cf"><path d="M 6.488281 0.9375 L 69.621094 9.8125 L 63.25 55.117188 L 0.121094 46.242188 Z M 6.488281 0.9375 " clip-rule="nonzero"/></clipPath><clipPath id="65f62035d2"><path d="M 6.488281 0.9375 L 69.621094 9.8125 L 63.25 55.117188 L 0.121094 46.242188 Z M 6.488281 0.9375 " clip-rule="nonzero"/></clipPath><clipPath id="724ecb347a"><path d="M 52 39 L 54 39 L 54 41 L 52 41 Z M 52 39 " clip-rule="nonzero"/></clipPath><clipPath id="f7481e7fb0"><path d="M 6.488281 0.9375 L 69.621094 9.8125 L 63.148438 55.859375 L 0.015625 46.984375 Z M 6.488281 0.9375 " clip-rule="nonzero"/></clipPath><clipPath id="c3b6dadc11"><path d="M 3.285156 23.730469 C 2.4375 29.777344 4.023438 35.910156 7.695312 40.785156 C 11.371094 45.660156 16.832031 48.878906 22.875 49.726562 L 40.167969 52.15625 C 46.210938 53.007812 52.347656 51.421875 57.222656 47.746094 C 62.097656 44.074219 65.3125 38.613281 66.164062 32.570312 C 67.011719 26.523438 65.425781 20.386719 61.753906 15.511719 C 58.078125 10.636719 52.617188 7.421875 46.574219 6.570312 L 29.28125 4.140625 C 23.238281 3.292969 17.101562 4.878906 12.226562 8.550781 C 7.351562 12.226562 4.136719 17.6875 3.285156 23.730469 Z M 3.285156 23.730469 " clip-rule="nonzero"/></clipPath><clipPath id="f6a97eea14"><path d="M 6.488281 0.9375 L 69.621094 9.8125 L 63.25 55.117188 L 0.121094 46.242188 Z M 6.488281 0.9375 " clip-rule="nonzero"/></clipPath><clipPath id="e6a595b716"><path d="M 6.488281 0.9375 L 69.621094 9.8125 L 63.25 55.117188 L 0.121094 46.242188 Z M 6.488281 0.9375 " clip-rule="nonzero"/></clipPath><clipPath id="686aeaadbf"><path d="M 6.488281 0.9375 L 69.621094 9.8125 L 63.25 55.117188 L 0.121094 46.242188 Z M 6.488281 0.9375 " clip-rule="nonzero"/></clipPath><clipPath id="8503c67387"><path d="M 56 38 L 60 38 L 60 42 L 56 42 Z M 56 38 " clip-rule="nonzero"/></clipPath><clipPath id="0594448c4b"><path d="M 6.488281 0.9375 L 69.621094 9.8125 L 63.148438 55.859375 L 0.015625 46.984375 Z M 6.488281 0.9375 " clip-rule="nonzero"/></clipPath><clipPath id="0b49773e40"><path d="M 3.285156 23.730469 C 2.4375 29.777344 4.023438 35.910156 7.695312 40.785156 C 11.371094 45.660156 16.832031 48.878906 22.875 49.726562 L 40.167969 52.15625 C 46.210938 53.007812 52.347656 51.421875 57.222656 47.746094 C 62.097656 44.074219 65.3125 38.613281 66.164062 32.570312 C 67.011719 26.523438 65.425781 20.386719 61.753906 15.511719 C 58.078125 10.636719 52.617188 7.421875 46.574219 6.570312 L 29.28125 4.140625 C 23.238281 3.292969 17.101562 4.878906 12.226562 8.550781 C 7.351562 12.226562 4.136719 17.6875 3.285156 23.730469 Z M 3.285156 23.730469 " clip-rule="nonzero"/></clipPath><clipPath id="11f7ed05f4"><path d="M 6.488281 0.9375 L 69.621094 9.8125 L 63.25 55.117188 L 0.121094 46.242188 Z M 6.488281 0.9375 " clip-rule="nonzero"/></clipPath><clipPath id="6c9cf99d80"><path d="M 6.488281 0.9375 L 69.621094 9.8125 L 63.25 55.117188 L 0.121094 46.242188 Z M 6.488281 0.9375 " clip-rule="nonzero"/></clipPath><clipPath id="e597309645"><path d="M 6.488281 0.9375 L 69.621094 9.8125 L 63.25 55.117188 L 0.121094 46.242188 Z M 6.488281 0.9375 " clip-rule="nonzero"/></clipPath><clipPath id="3afe6d09b8"><rect x="0" width="70" y="0" height="56"/></clipPath></defs><g clip-path="url(#f5dfb3a4d7)"><path fill="#e4fcfc" d="M 351.640625 235.183594 C 339.378906 235.183594 329.441406 225.246094 329.441406 212.984375 C 329.441406 200.726562 339.378906 190.789062 351.640625 190.789062 C 363.898438 190.789062 373.835938 200.726562 373.835938 212.984375 C 373.835938 225.246094 363.898438 235.183594 351.640625 235.183594 Z M 391.347656 192.238281 C 378.523438 170.3125 350.355469 162.933594 328.429688 175.757812 C 306.503906 188.582031 299.125 216.753906 311.949219 238.679688 L 351.652344 306.550781 L 391.347656 238.679688 C 399.414062 224.816406 400.023438 207.070312 391.347656 192.238281 " fill-opacity="1" fill-rule="nonzero"/></g><g clip-path="url(#943fb0ee4c)"><g clip-path="url(#a783073519)"><path fill="#e4fcfc" d="M 318.082031 181.152344 L 386.078125 181.152344 L 386.078125 249.148438 L 318.082031 249.148438 Z M 318.082031 181.152344 " fill-opacity="1" fill-rule="nonzero"/></g></g><g clip-path="url(#0f8b2c581d)"><g clip-path="url(#206fe3f7dc)"><path stroke-linecap="butt" transform="matrix(0.75, 0, 0, 0.75, 318.082576, 181.152492)" fill="none" stroke-linejoin="miter" d="M 45.327404 -0.000198269 C 20.296151 -0.000198269 -0.000725729 20.296679 -0.000725729 45.327932 C -0.000725729 70.364392 20.296151 90.656061 45.327404 90.656061 C 70.363865 90.656061 90.655534 70.364392 90.655534 45.327932 C 90.655534 20.296679 70.363865 -0.000198269 45.327404 -0.000198269 Z M 45.327404 -0.000198269 " stroke="#ffde59" stroke-width="4" stroke-opacity="1" stroke-miterlimit="4"/></g></g><g mask="url(#a27b3cf7fd)"><g transform="matrix(1, 0, 0, 1, 318, 187)"><g clip-path="url(#3afe6d09b8)"><g clip-path="url(#9d9eb738ea)"><g clip-path="url(#761e943430)"><g clip-path="url(#a0f8f998a7)"><g clip-path="url(#70369984ed)"><g clip-path="url(#9679303512)"><g clip-path="url(#39a9b10903)"><path fill="#a9b5b4" d="M 56.710938 32.390625 C 56.3125 33.851562 55.554688 35.09375 54.433594 36.121094 C 53.0625 37.410156 51.441406 38.199219 49.570312 38.484375 C 46.664062 38.910156 43.652344 37.933594 41.34375 36.117188 C 41.242188 36.035156 41.125 35.976562 40.996094 35.949219 C 40.871094 35.917969 40.742188 35.914062 40.613281 35.941406 C 40.484375 35.96875 40.367188 36.019531 40.265625 36.097656 C 40.160156 36.175781 40.078125 36.273438 40.015625 36.386719 C 38.929688 38.476562 36.851562 40.050781 34.511719 40.476562 C 33.964844 40.574219 33.414062 40.613281 32.859375 40.589844 C 30.65625 40.496094 28.484375 39.46875 27.082031 37.765625 C 25.554688 38.289062 23.980469 38.527344 22.363281 38.488281 C 20.746094 38.449219 19.1875 38.132812 17.683594 37.535156 C 16.78125 37.175781 15.898438 36.710938 14.933594 36.582031 C 14.140625 36.46875 13.347656 36.597656 12.554688 36.625 C 9.136719 36.742188 3.863281 34.203125 3.214844 30.433594 C 2.910156 28.667969 4.414062 26.824219 5.765625 25.769531 C 6.605469 25.109375 8.960938 23.675781 10.664062 24.101562 C 10.679688 24.109375 10.691406 24.117188 10.699219 24.128906 C 9.269531 22.800781 8.074219 19.867188 8.980469 17.609375 C 9.171875 17.128906 9.417969 16.675781 9.710938 16.246094 C 10.777344 14.6875 12.433594 13.515625 14.191406 12.738281 C 16.710938 11.625 19.652344 11.203125 22.273438 12 C 22.382812 12.03125 22.492188 12.042969 22.605469 12.027344 C 22.71875 12.011719 22.820312 11.976562 22.917969 11.914062 C 23.011719 11.855469 23.089844 11.777344 23.152344 11.683594 C 23.210938 11.589844 23.25 11.484375 23.265625 11.375 C 23.441406 9.878906 24.289062 8.464844 25.457031 7.476562 C 26.878906 6.257812 28.710938 5.621094 30.558594 5.308594 C 33.25 4.859375 36.152344 5.105469 38.488281 6.527344 C 40.425781 7.707031 41.863281 9.804688 42.050781 12.011719 C 42.0625 12.164062 42.109375 12.308594 42.1875 12.445312 C 42.265625 12.582031 42.367188 12.695312 42.496094 12.785156 C 42.621094 12.878906 42.761719 12.941406 42.914062 12.972656 C 43.070312 13.003906 43.222656 13.003906 43.375 12.96875 C 46.371094 12.316406 49.671875 12.816406 51.953125 14.816406 C 52.652344 15.433594 53.203125 16.167969 53.601562 17.007812 C 54.726562 19.34375 54.613281 22.273438 52.835938 24.140625 C 55.898438 25.449219 57.539062 29.199219 56.710938 32.390625 Z M 56.710938 32.390625 " fill-opacity="1" fill-rule="nonzero"/></g></g></g></g></g></g><g clip-path="url(#a937336e83)"><g clip-path="url(#f5ed7f7b30)"><g clip-path="url(#b7a5a0fc49)"><g clip-path="url(#aa8119c480)"><g clip-path="url(#e407a0e8d6)"><g clip-path="url(#70a4d882de)"><path fill="#95a5a3" d="M 56.710938 32.390625 C 56.3125 33.851562 55.554688 35.09375 54.433594 36.121094 C 53.0625 37.410156 51.441406 38.199219 49.570312 38.484375 C 46.664062 38.910156 43.652344 37.933594 41.34375 36.117188 C 41.242188 36.035156 41.125 35.976562 40.996094 35.949219 C 40.871094 35.917969 40.742188 35.914062 40.613281 35.941406 C 40.484375 35.96875 40.367188 36.019531 40.265625 36.097656 C 40.160156 36.175781 40.078125 36.273438 40.015625 36.386719 C 38.929688 38.476562 36.851562 40.050781 34.511719 40.476562 C 33.964844 40.574219 33.414062 40.613281 32.859375 40.589844 C 32.710938 40.453125 32.566406 40.308594 32.433594 40.15625 C 31.265625 38.824219 30.757812 36.984375 29.421875 35.816406 C 29.042969 35.484375 28.578125 35.1875 28.417969 34.710938 C 28.289062 34.316406 28.402344 33.886719 28.539062 33.496094 C 29.65625 30.398438 32.550781 28.339844 35.285156 26.476562 C 35.496094 26.335938 35.722656 26.1875 35.980469 26.167969 C 36.453125 26.132812 36.824219 26.542969 37.21875 26.808594 C 38.804688 27.882812 40.886719 26.714844 42.796875 26.515625 C 43.855469 26.402344 44.921875 26.613281 45.988281 26.582031 C 47.050781 26.550781 48.207031 26.203125 48.765625 25.3125 C 49.722656 23.792969 48.503906 21.5625 49.550781 20.105469 C 49.894531 19.621094 50.425781 19.324219 50.929688 19.015625 C 51.882812 18.425781 52.773438 17.753906 53.601562 17.003906 C 54.726562 19.34375 54.613281 22.269531 52.839844 24.136719 C 55.898438 25.449219 57.539062 29.199219 56.710938 32.390625 Z M 56.710938 32.390625 " fill-opacity="1" fill-rule="nonzero"/></g></g></g></g></g></g><g clip-path="url(#9df516a0a4)"><g clip-path="url(#2ae70e742c)"><g clip-path="url(#629bd6e1ef)"><g clip-path="url(#ad08da28be)"><g clip-path="url(#c60394f32c)"><g clip-path="url(#43a0ad14ed)"><g clip-path="url(#5c80794f10)"><path fill="url(#3d8d0483d8)" d="M 26.515625 25.84375 L 27.039062 48.90625 L 40.933594 48.636719 L 40.410156 25.574219 Z M 26.515625 25.84375 " fill-rule="nonzero"/></g></g></g></g></g></g></g><g clip-path="url(#7cff8d69c1)"><g clip-path="url(#3fc29853f5)"><g clip-path="url(#6bb54c6eca)"><g clip-path="url(#3c4e7f54f9)"><g clip-path="url(#e2f0a8409e)"><g clip-path="url(#fac17dd269)"><path fill="#81918e" d="M 54.433594 36.121094 C 53.0625 37.410156 51.441406 38.199219 49.570312 38.484375 C 46.664062 38.910156 43.652344 37.933594 41.34375 36.117188 C 41.242188 36.035156 41.125 35.976562 40.996094 35.949219 C 40.871094 35.917969 40.742188 35.914062 40.613281 35.941406 C 40.484375 35.96875 40.367188 36.019531 40.265625 36.097656 C 40.160156 36.175781 40.078125 36.273438 40.015625 36.386719 C 38.929688 38.476562 36.851562 40.050781 34.511719 40.476562 C 33.828125 40.59375 33.140625 40.621094 32.449219 40.558594 C 31.757812 40.496094 31.085938 40.34375 30.433594 40.105469 C 29.78125 39.871094 29.171875 39.554688 28.605469 39.15625 C 28.035156 38.761719 27.527344 38.300781 27.082031 37.773438 C 25.554688 38.292969 23.980469 38.535156 22.363281 38.496094 C 20.746094 38.457031 19.183594 38.136719 17.679688 37.542969 C 16.777344 37.179688 15.898438 36.714844 14.933594 36.585938 C 14.140625 36.472656 13.347656 36.605469 12.554688 36.628906 C 9.136719 36.746094 3.863281 34.207031 3.210938 30.441406 C 2.910156 28.671875 4.414062 26.828125 5.765625 25.773438 C 6.605469 25.117188 8.960938 23.679688 10.664062 24.105469 C 10.675781 24.113281 10.691406 24.121094 10.699219 24.128906 C 9.269531 22.800781 8.074219 19.867188 8.980469 17.609375 C 9.171875 17.128906 9.417969 16.675781 9.710938 16.246094 L 14.855469 20.273438 C 15.734375 20.957031 16.625 21.664062 17.199219 22.605469 C 18.632812 24.96875 17.28125 28.492188 14.628906 29.3125 C 14.109375 29.472656 13.484375 29.597656 13.253906 30.085938 C 12.972656 30.675781 13.542969 31.386719 14.195312 31.507812 C 14.84375 31.628906 15.492188 31.355469 16.09375 31.089844 L 16.472656 30.921875 C 17.28125 30.558594 18.128906 30.421875 19.011719 30.515625 C 19.898438 30.605469 20.699219 30.914062 21.417969 31.433594 C 21.960938 31.828125 22.535156 32.175781 23.140625 32.464844 C 23.859375 32.8125 24.644531 33.085938 25.441406 33.027344 C 27.425781 32.886719 29.113281 30.78125 31.023438 31.339844 C 32.480469 31.769531 33.339844 33.648438 34.859375 33.613281 C 36.945312 33.5625 37.457031 30.046875 39.539062 29.859375 C 40.542969 29.769531 41.390625 30.53125 42.183594 31.15625 C 44.574219 33.046875 47.558594 34.046875 50.546875 34.667969 C 51.917969 34.945312 53.402344 35.199219 54.433594 36.121094 Z M 54.433594 36.121094 " fill-opacity="1" fill-rule="nonzero"/></g></g></g></g></g></g><g clip-path="url(#e448bd8390)"><g clip-path="url(#8084cd34e7)"><g clip-path="url(#9d8a90c3c2)"><g clip-path="url(#45b1d626f9)"><g clip-path="url(#543e620c09)"><g clip-path="url(#537f58dea5)"><path fill="#718989" d="M 65.46875 34.894531 C 64.691406 36.253906 63.015625 37 61.4375 36.820312 C 61.078125 36.777344 60.730469 36.695312 60.394531 36.574219 C 59.203125 36.125 58.285156 35.359375 57.640625 34.269531 C 57.171875 34.960938 56.542969 35.441406 55.75 35.710938 C 55.269531 35.875 54.777344 35.941406 54.269531 35.902344 C 53.601562 35.839844 52.996094 35.617188 52.449219 35.234375 C 51.898438 34.851562 51.484375 34.359375 51.203125 33.757812 C 49.617188 33.867188 48.1875 33.449219 46.914062 32.507812 C 46.546875 32.230469 46.195312 31.910156 45.769531 31.734375 C 45.421875 31.589844 45.039062 31.550781 44.671875 31.46875 C 43.085938 31.109375 40.980469 29.300781 41.152344 27.492188 C 41.230469 26.644531 42.148438 25.984375 42.898438 25.664062 C 43.367188 25.464844 44.902344 25.039062 45.355469 25.496094 C 44.59375 24.632812 44.699219 23.234375 45.390625 22.316406 C 45.507812 22.160156 45.636719 22.011719 45.78125 21.878906 C 46.476562 21.230469 47.429688 20.863281 48.386719 20.714844 C 49.847656 20.480469 51.441406 20.722656 52.59375 21.640625 C 52.746094 20.773438 53.410156 20.050781 54.21875 19.671875 C 55.023438 19.292969 55.941406 19.21875 56.832031 19.300781 C 58.125 19.421875 59.425781 19.890625 60.320312 20.824219 C 61.214844 21.757812 61.613281 23.207031 61.089844 24.382812 C 61.835938 24.324219 62.5625 24.410156 63.273438 24.648438 C 64.191406 24.9375 64.925781 25.476562 65.472656 26.257812 C 66.398438 27.640625 66.144531 29.773438 64.722656 30.640625 C 65.957031 31.613281 66.246094 33.53125 65.46875 34.894531 Z M 65.46875 34.894531 " fill-opacity="1" fill-rule="nonzero"/></g></g></g></g></g></g><g clip-path="url(#fc65977f4f)"><g clip-path="url(#cd492cbd88)"><g clip-path="url(#05c549f137)"><g clip-path="url(#521f246a89)"><g clip-path="url(#43432cf2bc)"><g clip-path="url(#cbe65ca89e)"><path fill="#7d9190" d="M 65.46875 34.894531 C 64.691406 36.253906 63.015625 37 61.4375 36.820312 C 61.078125 36.777344 60.730469 36.695312 60.394531 36.574219 C 59.203125 36.125 58.285156 35.359375 57.640625 34.269531 C 57.171875 34.960938 56.542969 35.441406 55.75 35.710938 C 55.132812 34.675781 54.75 33.566406 54.957031 32.414062 L 54.960938 32.390625 C 55.003906 32.175781 55.089844 31.980469 55.214844 31.800781 C 55.339844 31.621094 55.496094 31.476562 55.683594 31.359375 C 55.871094 31.246094 56.070312 31.171875 56.289062 31.140625 C 56.507812 31.105469 56.722656 31.117188 56.9375 31.171875 C 57.210938 31.25 57.488281 31.265625 57.765625 31.222656 C 58.144531 31.15625 58.480469 31 58.769531 30.75 C 59.058594 30.5 59.261719 30.195312 59.378906 29.832031 C 59.40625 29.65625 59.472656 29.5 59.578125 29.355469 C 59.84375 29.078125 60.300781 29.230469 60.671875 29.320312 C 61.074219 29.414062 61.476562 29.410156 61.875 29.316406 C 62.277344 29.222656 62.632812 29.042969 62.949219 28.78125 C 63.0625 28.695312 63.148438 28.585938 63.207031 28.453125 C 63.300781 28.191406 63.15625 27.910156 63.050781 27.65625 C 62.847656 27.164062 62.769531 26.652344 62.804688 26.125 C 62.84375 25.597656 62.992188 25.105469 63.261719 24.648438 C 64.175781 24.9375 64.910156 25.476562 65.460938 26.257812 C 66.382812 27.640625 66.128906 29.773438 64.707031 30.640625 C 65.957031 31.613281 66.246094 33.53125 65.46875 34.894531 Z M 65.46875 34.894531 " fill-opacity="1" fill-rule="nonzero"/></g></g></g></g></g></g><g clip-path="url(#f5790161f7)"><g clip-path="url(#711d3a3062)"><g clip-path="url(#e4914e04eb)"><g clip-path="url(#18fff4a2e5)"><g clip-path="url(#00b6204df8)"><g clip-path="url(#3cdb8abf40)"><path fill="#637c7c" d="M 60.398438 36.570312 C 59.207031 36.125 58.289062 35.355469 57.644531 34.269531 C 57.277344 34.824219 56.789062 35.25 56.1875 35.542969 C 55.585938 35.835938 54.945312 35.957031 54.277344 35.90625 C 53.605469 35.851562 52.992188 35.632812 52.441406 35.25 C 51.890625 34.867188 51.476562 34.371094 51.199219 33.761719 C 49.613281 33.871094 48.183594 33.457031 46.910156 32.511719 C 46.542969 32.238281 46.195312 31.917969 45.765625 31.742188 C 45.417969 31.597656 45.035156 31.554688 44.667969 31.472656 C 43.085938 31.117188 40.976562 29.304688 41.148438 27.496094 C 41.226562 26.652344 42.148438 25.988281 42.898438 25.667969 C 43.367188 25.46875 44.898438 25.042969 45.355469 25.5 C 44.59375 24.636719 44.699219 23.238281 45.386719 22.320312 C 45.503906 22.164062 45.636719 22.019531 45.777344 21.886719 C 45.832031 22.996094 46.597656 24.09375 47.683594 24.421875 C 47.402344 25.789062 47.191406 27.421875 48.183594 28.410156 C 48.398438 28.621094 48.667969 28.8125 48.734375 29.101562 C 48.800781 29.390625 48.65625 29.65625 48.695312 29.933594 C 48.75 30.332031 49.140625 30.597656 49.507812 30.761719 C 50.105469 31.023438 50.730469 31.160156 51.382812 31.171875 C 52.035156 31.1875 52.664062 31.074219 53.273438 30.832031 C 53.472656 31.796875 54.4375 32.449219 55.414062 32.601562 C 55.90625 32.675781 56.394531 32.671875 56.882812 32.59375 C 57.316406 32.539062 57.71875 32.617188 58.097656 32.828125 C 58.476562 33.039062 58.75 33.34375 58.925781 33.738281 C 59.355469 34.714844 59.847656 35.65625 60.398438 36.570312 Z M 60.398438 36.570312 " fill-opacity="1" fill-rule="nonzero"/></g></g></g></g></g></g><g clip-path="url(#4894b3f1f5)"><g clip-path="url(#401d2f0b34)"><g clip-path="url(#a1f4c32c7a)"><g clip-path="url(#96e4bee09f)"><g clip-path="url(#46f2f5dac4)"><g clip-path="url(#74c22da226)"><path fill="#f9ec31" d="M 37.589844 25.835938 C 35.652344 28.496094 33.363281 30.8125 30.722656 32.792969 L 35.472656 33.839844 C 32.804688 36.117188 29.152344 38.390625 27.035156 41.144531 C 28.722656 41.800781 31.101562 41.5 32.835938 41.105469 L 28.269531 48.644531 C 32.191406 45.773438 35.914062 42.675781 39.445312 39.347656 L 34.675781 38.277344 L 40.414062 32.347656 L 35.796875 31.300781 C 36.394531 29.480469 36.992188 27.65625 37.589844 25.835938 Z M 37.589844 25.835938 " fill-opacity="1" fill-rule="nonzero"/></g></g></g></g></g></g><g clip-path="url(#f06cb93e50)"><g clip-path="url(#b60caba440)"><g clip-path="url(#f85c6403bc)"><g clip-path="url(#3aa0d920e3)"><g clip-path="url(#801a98b7db)"><g clip-path="url(#d51b5d2998)"><path fill="#49cec4" d="M 22.289062 33.1875 C 22.132812 33.894531 19.976562 34.449219 19.53125 35.0625 C 19.03125 35.738281 19.039062 36.738281 20.324219 36.21875 C 20.738281 36.050781 21.054688 35.707031 21.316406 35.34375 C 21.785156 34.691406 22.109375 33.972656 22.289062 33.1875 Z M 22.289062 33.1875 " fill-opacity="1" fill-rule="nonzero"/></g></g></g></g></g></g><g clip-path="url(#74af21fa46)"><g clip-path="url(#933f528434)"><g clip-path="url(#b4eb0fa57f)"><g clip-path="url(#b0e35d6b6c)"><g clip-path="url(#fb2bfb682d)"><g clip-path="url(#6c4a7df38e)"><path fill="#49cec4" d="M 26.664062 36.359375 C 26.460938 36.765625 24.671875 37.246094 24.222656 37.617188 C 23.351562 38.324219 23.035156 38.785156 23.441406 39.8125 C 23.734375 40.019531 24.15625 39.964844 24.457031 39.769531 C 24.757812 39.578125 24.96875 39.273438 25.164062 38.976562 C 25.714844 38.132812 26.214844 37.257812 26.664062 36.359375 Z M 26.664062 36.359375 " fill-opacity="1" fill-rule="nonzero"/></g></g></g></g></g></g><g clip-path="url(#7e04357d7c)"><g clip-path="url(#16c5842e33)"><g clip-path="url(#1f2581ab61)"><g clip-path="url(#5e866d2647)"><g clip-path="url(#978b6e4e5c)"><g clip-path="url(#73f202df44)"><path fill="#49cec4" d="M 15.792969 35.457031 C 15.769531 35.550781 13.148438 36.644531 12.800781 36.976562 C 12.085938 37.648438 11.472656 39.542969 13.277344 39.175781 C 13.929688 39.039062 14.386719 38.46875 14.730469 37.902344 C 15.195312 37.136719 15.550781 36.320312 15.792969 35.457031 Z M 15.792969 35.457031 " fill-opacity="1" fill-rule="nonzero"/></g></g></g></g></g></g><g clip-path="url(#d617b18d4f)"><g clip-path="url(#2c19c15ce8)"><g clip-path="url(#8ce9368ff1)"><g clip-path="url(#9d3e6f50bd)"><g clip-path="url(#686a6492bb)"><g clip-path="url(#f5fa18d277)"><path fill="#49cec4" d="M 6.875 35.039062 C 6.699219 34.726562 1.226562 38.710938 4.226562 38.496094 C 4.664062 38.464844 5.015625 38.132812 5.300781 37.800781 C 5.988281 36.992188 6.515625 36.085938 6.875 35.085938 C 6.882812 35.070312 6.882812 35.054688 6.875 35.039062 Z M 6.875 35.039062 " fill-opacity="1" fill-rule="nonzero"/></g></g></g></g></g></g><g clip-path="url(#48a964dfa6)"><g clip-path="url(#b7125c5d32)"><g clip-path="url(#6a5117fa04)"><g clip-path="url(#9075c3fbf7)"><g clip-path="url(#caa99016d6)"><g clip-path="url(#6a35837ffd)"><path fill="#49cec4" d="M 17.953125 42.421875 C 17.644531 42.992188 15.523438 43.628906 14.917969 44.039062 C 14.242188 44.488281 13.035156 45.183594 13.007812 46.125 C 12.953125 48.039062 15.855469 46.292969 16.28125 45.503906 C 16.839844 44.476562 17.394531 43.449219 17.953125 42.421875 Z M 17.953125 42.421875 " fill-opacity="1" fill-rule="nonzero"/></g></g></g></g></g></g><g clip-path="url(#61b0a6c2ac)"><g clip-path="url(#eae2688067)"><g clip-path="url(#4e4a918236)"><g clip-path="url(#976ebbd0a3)"><g clip-path="url(#9f154a298a)"><g clip-path="url(#f030a0e5e6)"><path fill="#49cec4" d="M 25.601562 43.078125 C 25.246094 43.695312 23.164062 44.265625 22.527344 44.929688 C 21.65625 45.839844 21.914062 47.363281 23.507812 46.738281 C 24.1875 46.472656 24.605469 45.789062 24.855469 45.109375 C 25.105469 44.433594 25.242188 43.703125 25.601562 43.078125 Z M 25.601562 43.078125 " fill-opacity="1" fill-rule="nonzero"/></g></g></g></g></g></g><g clip-path="url(#d8269a9e5d)"><g clip-path="url(#fc968e6430)"><g clip-path="url(#e6f0beff5e)"><g clip-path="url(#802a2bdfbe)"><g clip-path="url(#0c9b84186b)"><g clip-path="url(#5e3848e705)"><path fill="#49cec4" d="M 44.75 37.8125 C 43.773438 38.359375 42.410156 39.226562 41.84375 40.222656 C 41.324219 41.132812 41.742188 42.164062 42.980469 41.402344 C 43.570312 41.042969 43.84375 40.355469 44.03125 39.699219 C 44.214844 39.042969 44.34375 38.347656 44.761719 37.808594 Z M 44.75 37.8125 " fill-opacity="1" fill-rule="nonzero"/></g></g></g></g></g></g><g clip-path="url(#115939e787)"><g clip-path="url(#4561fabc74)"><g clip-path="url(#a5341be72c)"><g clip-path="url(#9dc2192612)"><g clip-path="url(#1bb39f30cf)"><g clip-path="url(#65f62035d2)"><path fill="#49cec4" d="M 48.871094 34.929688 C 48.160156 35.316406 47.167969 35.921875 46.757812 36.621094 C 46.378906 37.253906 46.679688 37.976562 47.582031 37.441406 C 48.007812 37.191406 48.210938 36.710938 48.34375 36.253906 C 48.476562 35.792969 48.574219 35.308594 48.875 34.929688 Z M 48.871094 34.929688 " fill-opacity="1" fill-rule="nonzero"/></g></g></g></g></g></g><g clip-path="url(#724ecb347a)"><g clip-path="url(#f7481e7fb0)"><g clip-path="url(#c3b6dadc11)"><g clip-path="url(#f6a97eea14)"><g clip-path="url(#e6a595b716)"><g clip-path="url(#686aeaadbf)"><path fill="#49cec4" d="M 53.992188 39.273438 C 53.535156 39.515625 52.898438 39.894531 52.628906 40.328125 C 52.386719 40.722656 52.582031 41.175781 53.160156 40.839844 C 53.433594 40.683594 53.5625 40.386719 53.648438 40.097656 C 53.734375 39.8125 53.796875 39.507812 53.992188 39.269531 Z M 53.992188 39.273438 " fill-opacity="1" fill-rule="nonzero"/></g></g></g></g></g></g><g clip-path="url(#8503c67387)"><g clip-path="url(#0594448c4b)"><g clip-path="url(#0b49773e40)"><g clip-path="url(#11f7ed05f4)"><g clip-path="url(#6c9cf99d80)"><g clip-path="url(#e597309645)"><path fill="#49cec4" d="M 59.367188 38.753906 C 58.464844 39.171875 57.207031 39.832031 56.683594 40.585938 C 56.203125 41.273438 56.582031 42.050781 57.730469 41.472656 C 58.269531 41.199219 58.527344 40.679688 58.699219 40.183594 C 58.871094 39.6875 58.992188 39.15625 59.378906 38.75 Z M 59.367188 38.753906 " fill-opacity="1" fill-rule="nonzero"/></g></g></g></g></g></g></g></g></g></svg>