<?xml version="1.0" encoding="UTF-8"?>
<svg id="Layer_1" data-name="Layer 1" xmlns="http://www.w3.org/2000/svg" xmlns:xlink="http://www.w3.org/1999/xlink" viewBox="0 0 337.75 500">
  <defs>
    <style>
      .cls-1 {
        clip-path: url(#clippath-34);
      }

      .cls-2 {
        clip-path: url(#clippath-21);
      }

      .cls-3 {
        clip-path: url(#clippath-6);
      }

      .cls-4 {
        clip-path: url(#clippath-7);
      }

      .cls-5 {
        clip-path: url(#clippath-17);
      }

      .cls-6 {
        clip-path: url(#clippath-31);
      }

      .cls-7 {
        fill: rgba(91, 52, 28, .35);
      }

      .cls-7, .cls-8, .cls-9, .cls-10, .cls-11, .cls-12, .cls-13, .cls-14, .cls-15, .cls-16, .cls-17, .cls-18, .cls-19 {
        fill-rule: evenodd;
      }

      .cls-20 {
        clip-path: url(#clippath-15);
      }

      .cls-21 {
        clip-path: url(#clippath-33);
      }

      .cls-22 {
        clip-path: url(#clippath-18);
      }

      .cls-23 {
        clip-path: url(#clippath-4);
      }

      .cls-24 {
        clip-path: url(#clippath-22);
      }

      .cls-25 {
        clip-path: url(#clippath-23);
      }

      .cls-8 {
        fill: rgba(255, 255, 255, .5);
      }

      .cls-26 {
        clip-path: url(#clippath-9);
      }

      .cls-27 {
        clip-path: url(#clippath-10);
      }

      .cls-9 {
        fill: #955832;
      }

      .cls-28 {
        clip-path: url(#clippath-25);
      }

      .cls-29 {
        clip-path: url(#clippath-27);
      }

      .cls-30 {
        clip-path: url(#clippath-11);
      }

      .cls-10 {
        fill: rgba(91, 52, 28, .2);
      }

      .cls-31, .cls-32 {
        fill: none;
      }

      .cls-11 {
        fill: rgba(255, 255, 255, .4);
      }

      .cls-33 {
        clip-path: url(#clippath-36);
      }

      .cls-34 {
        clip-path: url(#clippath-35);
      }

      .cls-35 {
        clip-path: url(#clippath-28);
      }

      .cls-12 {
        fill: rgba(91, 52, 28, .66);
      }

      .cls-13 {
        fill: #f65525;
      }

      .cls-14 {
        fill: rgba(255, 148, 38, .5);
      }

      .cls-36 {
        clip-path: url(#clippath-1);
      }

      .cls-15 {
        fill: #ff9426;
      }

      .cls-37 {
        clip-path: url(#clippath-5);
      }

      .cls-38 {
        clip-path: url(#clippath-20);
      }

      .cls-39 {
        clip-path: url(#clippath-8);
      }

      .cls-40 {
        clip-path: url(#clippath-3);
      }

      .cls-41 {
        clip-path: url(#clippath-26);
      }

      .cls-42 {
        clip-path: url(#clippath-12);
      }

      .cls-43 {
        clip-path: url(#clippath-14);
      }

      .cls-16 {
        fill: #5b341c;
      }

      .cls-44 {
        clip-path: url(#clippath-30);
      }

      .cls-45 {
        clip-path: url(#clippath-19);
      }

      .cls-46 {
        clip-path: url(#clippath-32);
      }

      .cls-47 {
        fill: #e4fcfc;
      }

      .cls-48 {
        clip-path: url(#clippath-16);
      }

      .cls-49 {
        clip-path: url(#clippath-2);
      }

      .cls-50 {
        clip-path: url(#clippath-29);
      }

      .cls-17 {
        fill: rgba(91, 52, 28, .45);
      }

      .cls-18 {
        fill: rgba(255, 255, 255, .3);
      }

      .cls-51 {
        clip-path: url(#clippath-13);
      }

      .cls-19 {
        fill: rgba(91, 52, 28, .5);
      }

      .cls-52 {
        clip-path: url(#clippath-24);
      }

      .cls-32 {
        stroke: orange;
        stroke-width: 4px;
      }

      .cls-53 {
        clip-path: url(#clippath);
      }
    </style>
    <clipPath id="clippath">
      <rect class="cls-31" width="337.75" height="500"/>
    </clipPath>
    <clipPath id="clippath-1">
      <rect class="cls-31" x="45.68" y="43.24" width="246.94" height="246.93"/>
    </clipPath>
    <clipPath id="clippath-2">
      <path class="cls-31" d="M169.16,43.24c-68.19,0-123.48,55.27-123.48,123.46s55.28,123.46,123.48,123.46,123.46-55.27,123.46-123.46-55.28-123.46-123.46-123.46Z"/>
    </clipPath>
    <clipPath id="clippath-3">
      <rect class="cls-31" x="45.68" y="43.24" width="246.93" height="246.93"/>
    </clipPath>
    <clipPath id="clippath-4">
      <circle class="cls-31" cx="169.14" cy="166.7" r="123.46"/>
    </clipPath>
    <clipPath id="clippath-5">
      <rect class="cls-31" x="185.22" y="108.95" width="32.69" height="25.42"/>
    </clipPath>
    <clipPath id="clippath-6">
      <rect class="cls-31" x="70.96" y="51.01" width="194.07" height="231.38" rx="89.89" ry="89.89"/>
    </clipPath>
    <clipPath id="clippath-7">
      <rect class="cls-31" x="141.64" y="51.01" width="90.79" height="65.2"/>
    </clipPath>
    <clipPath id="clippath-8">
      <rect class="cls-31" x="70.96" y="51.01" width="194.07" height="231.38" rx="89.89" ry="89.89"/>
    </clipPath>
    <clipPath id="clippath-9">
      <rect class="cls-31" x="152.53" y="108.95" width="36.32" height="54.48"/>
    </clipPath>
    <clipPath id="clippath-10">
      <rect class="cls-31" x="70.96" y="51.01" width="194.07" height="231.38" rx="89.89" ry="89.89"/>
    </clipPath>
    <clipPath id="clippath-11">
      <rect class="cls-31" x="156.16" y="108.95" width="32.69" height="36.32"/>
    </clipPath>
    <clipPath id="clippath-12">
      <rect class="cls-31" x="70.96" y="51.01" width="194.07" height="231.38" rx="89.89" ry="89.89"/>
    </clipPath>
    <clipPath id="clippath-13">
      <rect class="cls-31" x="163.43" y="116.22" width="25.42" height="54.48"/>
    </clipPath>
    <clipPath id="clippath-14">
      <rect class="cls-31" x="70.96" y="51.01" width="194.07" height="231.38" rx="89.89" ry="89.89"/>
    </clipPath>
    <clipPath id="clippath-15">
      <rect class="cls-31" x="112.58" y="58.11" width="105.32" height="79.9"/>
    </clipPath>
    <clipPath id="clippath-16">
      <rect class="cls-31" x="70.96" y="51.01" width="194.07" height="231.38" rx="89.89" ry="89.89"/>
    </clipPath>
    <clipPath id="clippath-17">
      <rect class="cls-31" x="138.01" y="76.27" width="61.74" height="58.11"/>
    </clipPath>
    <clipPath id="clippath-18">
      <rect class="cls-31" x="70.96" y="51.01" width="194.07" height="231.38" rx="89.89" ry="89.89"/>
    </clipPath>
    <clipPath id="clippath-19">
      <rect class="cls-31" x="119.85" y="69" width="69" height="50.84"/>
    </clipPath>
    <clipPath id="clippath-20">
      <rect class="cls-31" x="70.96" y="51.01" width="194.07" height="231.38" rx="89.89" ry="89.89"/>
    </clipPath>
    <clipPath id="clippath-21">
      <rect class="cls-31" x="72.63" y="156.16" width="191.72" height="126.37"/>
    </clipPath>
    <clipPath id="clippath-22">
      <rect class="cls-31" x="70.96" y="51.01" width="194.07" height="231.38" rx="89.89" ry="89.89"/>
    </clipPath>
    <clipPath id="clippath-23">
      <rect class="cls-31" x="76.27" y="192.48" width="188.08" height="90.06"/>
    </clipPath>
    <clipPath id="clippath-24">
      <rect class="cls-31" x="70.96" y="51.01" width="194.07" height="231.38" rx="89.89" ry="89.89"/>
    </clipPath>
    <clipPath id="clippath-25">
      <rect class="cls-31" x="108.95" y="145.27" width="112.58" height="79.9"/>
    </clipPath>
    <clipPath id="clippath-26">
      <rect class="cls-31" x="70.96" y="51.01" width="194.07" height="231.38" rx="89.89" ry="89.89"/>
    </clipPath>
    <clipPath id="clippath-27">
      <rect class="cls-31" x="127.11" y="163.43" width="76.27" height="39.95"/>
    </clipPath>
    <clipPath id="clippath-28">
      <rect class="cls-31" x="70.96" y="51.01" width="194.07" height="231.38" rx="89.89" ry="89.89"/>
    </clipPath>
    <clipPath id="clippath-29">
      <rect class="cls-31" x="112.58" y="145.27" width="101.69" height="76.27"/>
    </clipPath>
    <clipPath id="clippath-30">
      <rect class="cls-31" x="70.96" y="51.01" width="194.07" height="231.38" rx="89.89" ry="89.89"/>
    </clipPath>
    <clipPath id="clippath-31">
      <rect class="cls-31" x="148.9" y="152.53" width="58.11" height="29.05"/>
    </clipPath>
    <clipPath id="clippath-32">
      <rect class="cls-31" x="70.96" y="51.01" width="194.07" height="231.38" rx="89.89" ry="89.89"/>
    </clipPath>
    <clipPath id="clippath-33">
      <rect class="cls-31" x="159.8" y="152.53" width="43.58" height="21.79"/>
    </clipPath>
    <clipPath id="clippath-34">
      <rect class="cls-31" x="70.96" y="51.01" width="194.07" height="231.38" rx="89.89" ry="89.89"/>
    </clipPath>
    <clipPath id="clippath-35">
      <rect class="cls-31" x="72.63" y="210.64" width="191.72" height="71.9"/>
    </clipPath>
    <clipPath id="clippath-36">
      <rect class="cls-31" x="70.96" y="51.01" width="194.07" height="231.38" rx="89.89" ry="89.89"/>
    </clipPath>
  </defs>
  <g class="cls-53">
    <path class="cls-47" d="M167.56,239.45c-44.52,0-80.61-36.09-80.61-80.61s36.09-80.61,80.61-80.61,80.61,36.08,80.61,80.61-36.09,80.61-80.61,80.61ZM311.77,83.49C265.2,3.87,162.89-22.93,83.26,23.65,3.65,70.22-23.15,172.52,23.42,252.15l144.18,246.49,144.18-246.49c29.28-50.35,31.49-114.8,0-168.66"/>
  </g>
  <g class="cls-36">
    <g class="cls-49">
      <path class="cls-47" d="M45.68,43.24h246.94v246.93H45.68V43.24Z"/>
    </g>
  </g>
  <g class="cls-40">
    <g class="cls-23">
      <path class="cls-32" d="M169.14,43.24c-68.18,0-123.46,55.27-123.46,123.46s55.28,123.46,123.46,123.46,123.46-55.28,123.46-123.46-55.27-123.46-123.46-123.46Z"/>
    </g>
  </g>
  <g class="cls-37">
    <g class="cls-3">
      <g>
        <path class="cls-16" d="M186.81,117.14c-2.61,3.25,1.36,13.38,2.13,14.04,2.3,2,5.36,3.55,8.47,3.01,2.68-.48,5.08-2.62,6.14-5.11.24-.58.3-2.68.72-3.04.34-.27,1.26.07,1.6.16,1.32.28,2.72.55,4.06.3,4.57-.89,6.27-7.53,4.44-11.19-.43-.85-.96-1.62-1.56-2.37-3.73-4.68-8.21-2.53-13.26-1.55-2.24.44-4.64.14-6.84.84-2.37.78-4.38,3.01-5.9,4.91Z"/>
        <path class="cls-8" d="M186.81,117.14c-2.61,3.25,1.36,13.38,2.13,14.04,2.3,2,5.36,3.55,8.47,3.01,2.68-.48,5.08-2.62,6.14-5.11.24-.58.3-2.68.72-3.04.34-.27,1.26.07,1.6.16,1.32.28,2.72.55,4.06.3,4.57-.89,6.27-7.53,4.44-11.19-.43-.85-.96-1.62-1.56-2.37-3.73-4.68-8.21-2.53-13.26-1.55-2.24.44-4.64.14-6.84.84-2.37.78-4.38,3.01-5.9,4.91Z"/>
      </g>
    </g>
  </g>
  <g class="cls-4">
    <g class="cls-39">
      <g>
        <path class="cls-16" d="M143.59,75.78c-1.13-3.16.85-7.28,3.99-8.72.88-.4,3.38-.31,3.94-1.01.43-.54-.23-1.93-.28-2.53-.16-1.38.11-2.79.82-4,.87-1.48,2.6-2.53,4.31-2.51.52,0,1.8.55,2.26.27.79-.48,1.28-2.17,1.84-2.89,1.83-2.35,5.35-3.25,8-1.76,1.56.88,2.44,2.21,2.99,3.87.1.31.4,2.38.64,2.54.21.11,1.5-.54,1.77-.58,1.89-.34,3.55.27,4.48,2,1.93,3.63,0,7.16.17,10.9.11,2.5,2,3.45,2.94,5.48.95,2.04.51,5.23-.04,7.32-1.4,5.28-5.31,10.51-10.33,12.74-7.83,3.48-18.03.41-23.45-5.97-2.04-2.38-4.06-15.14-4.06-15.14ZM207.28,115.75s-8.77-3.87-9.9-5.89c-1.4-2.48-2.01-5.8-1.73-8.63.43-4.28,3.36-6.61,5.21-10.17,2.92-5.6,2.7-15.17,11.12-15.43,1.19-.03,2.41.14,3.49.67,1.96.92,3.5,3.01,4.31,4.98.33.78.37,2.07.88,2.74.41.51,2.87.72,3.55,1.04,3.08,1.4,5.67,4.38,6.04,7.86.23,2.06-.28,4.09-1.52,5.73-.13.18-2.11,2.03-2.1,2.07.1.33,1.48,1.01,1.74,1.31,1.46,1.57,1.67,4,.68,5.86-2.06,3.86-5.8,2.65-9.07,4.28-2.09,1.05-3.02,2.98-5.5,3.48-1.52.31-3.14.47-4.7.45-.57-.01-1.12-.07-1.67-.17-.28-.06-.99-.41-.84-.17Z"/>
        <path class="cls-11" d="M143.59,75.78c-1.13-3.16.85-7.28,3.99-8.72.88-.4,3.38-.31,3.94-1.01.43-.54-.23-1.93-.28-2.53-.16-1.38.11-2.79.82-4,.87-1.48,2.6-2.53,4.31-2.51.52,0,1.8.55,2.26.27.79-.48,1.28-2.17,1.84-2.89,1.83-2.35,5.35-3.25,8-1.76,1.56.88,2.44,2.21,2.99,3.87.1.31.4,2.38.64,2.54.21.11,1.5-.54,1.77-.58,1.89-.34,3.55.27,4.48,2,1.93,3.63,0,7.16.17,10.9.11,2.5,2,3.45,2.94,5.48.95,2.04.51,5.23-.04,7.32-1.4,5.28-5.31,10.51-10.33,12.74-7.83,3.48-18.03.41-23.45-5.97-2.04-2.38-4.06-15.14-4.06-15.14ZM207.28,115.75s-8.77-3.87-9.9-5.89c-1.4-2.48-2.01-5.8-1.73-8.63.43-4.28,3.36-6.61,5.21-10.17,2.92-5.6,2.7-15.17,11.12-15.43,1.19-.03,2.41.14,3.49.67,1.96.92,3.5,3.01,4.31,4.98.33.78.37,2.07.88,2.74.41.51,2.87.72,3.55,1.04,3.08,1.4,5.67,4.38,6.04,7.86.23,2.06-.28,4.09-1.52,5.73-.13.18-2.11,2.03-2.1,2.07.1.33,1.48,1.01,1.74,1.31,1.46,1.57,1.67,4,.68,5.86-2.06,3.86-5.8,2.65-9.07,4.28-2.09,1.05-3.02,2.98-5.5,3.48-1.52.31-3.14.47-4.7.45-.57-.01-1.12-.07-1.67-.17-.28-.06-.99-.41-.84-.17Z"/>
      </g>
    </g>
  </g>
  <g class="cls-26">
    <g class="cls-27">
      <g>
        <path class="cls-13" d="M164.21,154.97c-.16.28-.26-1.18-.26-1.19-.01-.78.01-1.55.01-2.31-.01-2.33-.09-4.97-.91-7.16-.75-1.99-2.2-3.52-3.18-5.36-.74-1.36-1.05-2.82-2.03-4.07-1.69-2.16-4.03-3.69-3.66-6.8.6-4.92,5.01-8.17,9.46-9.42,2.14-.6,4.38-.54,6.53-1.09,2.47-.64,4.71-1.74,6.97-2.92,2.35-1.22,4.78-2.27,7.11-3.52.47-.26,1.8-1.23,2.37-.92.62.34.45,3.18.51,3.77.34,3.73,1.52,7.39,1.6,11.14.04,2.57-.13,5.18-1.19,7.56-1.49,3.29-4.11,5.9-5.42,9.31-1.73,4.5-1.86,9.53-3.42,14.12-.57,1.69-1.45,4.14-3.06,5.12-1.66,1.01-3.97.89-5.8.58-1.48-.24-2.96-.61-4.37-1.15-1.09-.43-1.26-5.67-1.26-5.67Z"/>
        <path class="cls-10" d="M164.21,154.97c-.16.28-.26-1.18-.26-1.19-.01-.78.01-1.55.01-2.31-.01-2.33-.09-4.97-.91-7.16-.75-1.99-2.2-3.52-3.18-5.36-.74-1.36-1.05-2.82-2.03-4.07-1.69-2.16-4.03-3.69-3.66-6.8.6-4.92,5.01-8.17,9.46-9.42,2.14-.6,4.38-.54,6.53-1.09,2.47-.64,4.71-1.74,6.97-2.92,2.35-1.22,4.78-2.27,7.11-3.52.47-.26,1.8-1.23,2.37-.92.62.34.45,3.18.51,3.77.34,3.73,1.52,7.39,1.6,11.14.04,2.57-.13,5.18-1.19,7.56-1.49,3.29-4.11,5.9-5.42,9.31-1.73,4.5-1.86,9.53-3.42,14.12-.57,1.69-1.45,4.14-3.06,5.12-1.66,1.01-3.97.89-5.8.58-1.48-.24-2.96-.61-4.37-1.15-1.09-.43-1.26-5.67-1.26-5.67Z"/>
      </g>
    </g>
  </g>
  <g class="cls-30">
    <g class="cls-42">
      <path class="cls-7" d="M185.77,110.29c.31-.01.62-.01.94-.01.51.55.37,3.14.43,3.69.34,3.75,1.52,7.39,1.59,11.15.06,2.57-.13,5.18-1.19,7.55-1.39,3.09-3.77,5.58-5.15,8.7-.95-2.1-1.77-4.16-1.9-6.55-.04-.85.09-2.6-.91-2.98-1.22-.47-2.72,1.52-3.38,2.26-2,2.28-3.99,6.75-7.12,7.55-1.31.34-2.16-.75-2.88-1.67-1.11-1.4-2.14-3.11-4-3.57-1.15-.3-2.28-.09-3.25.45-.28-.67-.61-1.35-1.08-1.96-.52-.65-1.11-1.26-1.66-1.87.03-3.73.27-8.14,1.12-10.87.35-1.18.84-2.04,1.46-2.38,7.6-4.27,16.14-8.16,24.84-9.29.7-.09,1.42-.16,2.14-.17ZM156.33,139.61c0,.11.01.17.01.17-.03-.04-.03-.1-.01-.17Z"/>
    </g>
  </g>
  <g class="cls-51">
    <g class="cls-43">
      <path class="cls-11" d="M167.39,159.53c.2.03-.03-.4-.01-.6.04-.47.07-.94.09-1.4.04-1.38.04-2.75.03-4.13-.06-5.7-.61-11.28-1.48-16.91-.2-1.33-.47-2.68-.5-4.04,0-.23-.09-1.12.2-1.26.3-.14.74,1.21.79,1.35.58,1.55,1.04,3.16,1.45,4.77,1.23,4.7,1.89,9.49,2.2,14.33.13,1.87.18,3.75.24,5.63,0,.14-.06,1.65.21,1.66.5.01.92-3.79.96-4.1.7-4.4,1.48-8.8,2.28-13.18.24-1.36.5-2.75.87-4.1.03-.1.2-.96.43-.91.6.16.1,3.8.07,4.2-.34,4.38-.6,8.78-.96,13.16-.11,1.32-.28,2.62-.34,3.94,0,.16-.11.99.16,1.04.44.06.75-1.97.81-2.2.67-2.87,1.36-5.73,2.06-8.61,1.63-6.88,3.53-13.31,6.6-19.69.94-1.94,1.84-3.86,2.44-5.94.23-.75.41-1.52.6-2.28.07-.35.06-1.36.26-1.06.38.61-.34,2.75-.45,3.38-.64,3.25-1.65,6.47-2.84,9.58-.99,2.64-2.57,5.06-3.42,7.76-1.29,4.11-1.56,8.57-2.21,12.81-.89,5.76-2.11,11.48-2.81,17.28-.31,2.58-7.7-10.46-7.7-10.46Z"/>
    </g>
  </g>
  <g class="cls-20">
    <g class="cls-48">
      <g>
        <path class="cls-16" d="M154.69,133.42c-.09.09-.18.17-.27.24-4.51,4.07-11.29,5.33-16.48,1.9-1.09-.71-2.06-1.57-2.87-2.6-.5-.64-.88-1.66-1.66-2.01-1.12-.5-2.75.37-3.87.48-2.01.2-4.3-.26-6.14-1.06-3.05-1.33-4.65-4.04-4.58-7.35.01-.88.84-2.82.47-3.59-.28-.6-1.29-.88-1.79-1.28-1.25-.98-2.01-2.16-2.18-3.76-.28-2.71.7-6.04,3.67-6.74.35-.09,2.89.28,2.98.18.14-.17-.4-1.39-.44-1.62-.21-1.26-.13-2.74.23-3.97.35-1.19,1.21-2.26,2.17-3.02.38-.31,1.4-.6,1.55-1.11.14-.47-.52-.94-.79-1.21-.88-.89-1.67-1.92-2.26-3.01-.28-.52-.54-1.08-.74-1.63-1.35-3.87-.61-8.48,2.58-11.19,1.45-1.23,3.14-2,4.99-2.4.89-.18,2.11-.07,2.92-.54.96-.55,1.38-2.57,2-3.48.58-.85,1.29-1.63,2.1-2.3,1.7-1.39,3.82-2.24,6.06-2.01,2.84.27,5.46,1.96,7.33,4.06.88-.18,1.77-.24,2.65-.14,2.57.28,4.07,2.61,6.16,3.83.34.2.77.37,1.21.47.28.06.57.09.84.06.4-.04.75-.17,1.05-.45,2.33-2.24.11-6.47,2.48-8.92,1.49-1.53,4.03-1.89,5.94-1.02.43.18,1.89,1.57,2.33,1.42.4-.13.71-1.08.92-1.4.68-1.09,1.45-2.16,2.38-3.06,3.65-3.48,9.15-4.64,13.95-3.16s7.92,5.38,8.2,10.26c.06,1.15-.1,2.28-.34,3.4-.06.23-.44.99-.31,1.22.07.13,1.22-.27,1.35-.3.81-.16,1.62-.23,2.43-.16,2.45.21,4.43,1.72,5.58,3.87,1.48,2.74,1.06,6.19-.51,8.78-.47.77-2.31,2.38-2.35,3.28-.03.27,2.45,1.08,2.74,1.26,1.74,1.05,2.75,3.06,2.48,5.09-.21,1.6-1.08,2.92-2.28,3.96-.24.2-1.84,1.08-1.79,1.45.04.27,1.5.13,1.7.14,1.11.09,2.54.75,3.53,1.26,3.46,1.77,6.68,8.98,5.05,14.31-1.01,3.31-4.61-.04-7.66,1.05-5.11,1.84-9.62,1.45-14.21-.33-.43.4-.88.77-1.36,1.04-.88.48-1.92.7-2.91.75-.07,0-.14,0-.23-.01-.44-.04-1.12-.21-1.4.04-1.62,1.4-1.93,3.31-4.1,4.47-1.16.61-2.45,1.04-3.77,1.05-.65.01-1.73-.45-2.34-.14-.96.51-1.72,2.13-2.44,2.94-1.38,1.57-3.35,2.7-5.43,3.01-4.21.62-7.75-1.94-11.86-2.2-.3-.03-.65-.04-1.05-.06-.44.7-.96,1.36-1.57,1.96Z"/>
        <path class="cls-8" d="M154.69,133.42c-.09.09-.18.17-.27.24-4.51,4.07-11.29,5.33-16.48,1.9-1.09-.71-2.06-1.57-2.87-2.6-.5-.64-.88-1.66-1.66-2.01-1.12-.5-2.75.37-3.87.48-2.01.2-4.3-.26-6.14-1.06-3.05-1.33-4.65-4.04-4.58-7.35.01-.88.84-2.82.47-3.59-.28-.6-1.29-.88-1.79-1.28-1.25-.98-2.01-2.16-2.18-3.76-.28-2.71.7-6.04,3.67-6.74.35-.09,2.89.28,2.98.18.14-.17-.4-1.39-.44-1.62-.21-1.26-.13-2.74.23-3.97.35-1.19,1.21-2.26,2.17-3.02.38-.31,1.4-.6,1.55-1.11.14-.47-.52-.94-.79-1.21-.88-.89-1.67-1.92-2.26-3.01-.28-.52-.54-1.08-.74-1.63-1.35-3.87-.61-8.48,2.58-11.19,1.45-1.23,3.14-2,4.99-2.4.89-.18,2.11-.07,2.92-.54.96-.55,1.38-2.57,2-3.48.58-.85,1.29-1.63,2.1-2.3,1.7-1.39,3.82-2.24,6.06-2.01,2.84.27,5.46,1.96,7.33,4.06.88-.18,1.77-.24,2.65-.14,2.57.28,4.07,2.61,6.16,3.83.34.2.77.37,1.21.47.28.06.57.09.84.06.4-.04.75-.17,1.05-.45,2.33-2.24.11-6.47,2.48-8.92,1.49-1.53,4.03-1.89,5.94-1.02.43.18,1.89,1.57,2.33,1.42.4-.13.71-1.08.92-1.4.68-1.09,1.45-2.16,2.38-3.06,3.65-3.48,9.15-4.64,13.95-3.16s7.92,5.38,8.2,10.26c.06,1.15-.1,2.28-.34,3.4-.06.23-.44.99-.31,1.22.07.13,1.22-.27,1.35-.3.81-.16,1.62-.23,2.43-.16,2.45.21,4.43,1.72,5.58,3.87,1.48,2.74,1.06,6.19-.51,8.78-.47.77-2.31,2.38-2.35,3.28-.03.27,2.45,1.08,2.74,1.26,1.74,1.05,2.75,3.06,2.48,5.09-.21,1.6-1.08,2.92-2.28,3.96-.24.2-1.84,1.08-1.79,1.45.04.27,1.5.13,1.7.14,1.11.09,2.54.75,3.53,1.26,3.46,1.77,6.68,8.98,5.05,14.31-1.01,3.31-4.61-.04-7.66,1.05-5.11,1.84-9.62,1.45-14.21-.33-.43.4-.88.77-1.36,1.04-.88.48-1.92.7-2.91.75-.07,0-.14,0-.23-.01-.44-.04-1.12-.21-1.4.04-1.62,1.4-1.93,3.31-4.1,4.47-1.16.61-2.45,1.04-3.77,1.05-.65.01-1.73-.45-2.34-.14-.96.51-1.72,2.13-2.44,2.94-1.38,1.57-3.35,2.7-5.43,3.01-4.21.62-7.75-1.94-11.86-2.2-.3-.03-.65-.04-1.05-.06-.44.7-.96,1.36-1.57,1.96Z"/>
      </g>
    </g>
  </g>
  <g class="cls-5">
    <g class="cls-22">
      <path class="cls-17" d="M159.67,78.58c2.21,1.45,4.98,2.47,7.14,2.58,4.71.27,7.18,3.82,7.18,3.82,5.26-1.55,8.48,1.72,8.48,1.72,0,0,2.06-3.05,5.29-2.92,3.23.11,5.86,1.67,1.73,1.29s-6.92,3.93-6.92,3.93c-3.66-4.16-8.65-1.97-8.65-1.97-3.52-4-7.6-4.34-10.55-5.76-3.06-1.49-4.89-3.15-4.89-3.15.34.2.77.37,1.21.47ZM156.26,131.45c-.44.71-.96,1.38-1.57,1.97-2.23.04-4.8-.47-6.63-2.09-2.72-2.4-2.75-5.26-2.75-5.26,0,0-2.98.09-4.87-3.11-1.89-3.18-.41-5.35-.41-5.35-.44,5.94,6.75,6.8,6.75,6.8.21,2.01,1.05,4.91,4.37,6.14,3.32,1.25,5.11.89,5.11.89ZM188.65,122.34c-.44-.04-1.12-.21-1.4.04,0,0,.52-2.28,2.01-3.49s4.41.64,9.05-2.87c0,0-.38,1.5-2.01,2.44-1.65.94-5.65.54-6.61,1.74-.45.54-.68,1.29-1.04,2.13Z"/>
    </g>
  </g>
  <g class="cls-45">
    <g class="cls-38">
      <path class="cls-18" d="M140.4,114.29c-.6-.1-.58-5.32,2.03-8.53.95-1.18,2.31-2.04,3.76-2.45.5-.14,2.06.11,2.38-.3.52-.67.27-2.51.48-3.35.71-2.62,2.65-5.16,5.35-5.86,1.97-.51,4.1-.01,5.72,1.21.55.41,1.12,1.49,1.76,1.7.58.17,1.76-.62,2.35-.72,1.36-.2,2.91.01,4.18.47.88.31,1.57.84,2.14,1.57.06.07.57.96.62.95.28-.01,1.67-2.21,1.97-2.5,1.59-1.52,3.66-2.7,5.87-2.85,2.58-.17,5.04,1.23,6.61,3.23.2.26,1.36,1.72,1.12,2.1-.21.33-1.42-.16-1.72-.2-1.29-.17-2.81,0-3.96.68-1.33.79-2.31,2.38-2.88,3.79-.27.64-.35,1.79-.91,2.27-.52.45-1.46-.14-2.01-.27-1.15-.27-2.33-.21-3.48-.03-1.38.21-2.68.6-3.89,1.28-.54.31-1.39,1.21-2.04,1.15-.85-.06-1.8-1.46-2.41-1.97-.92-.79-4.43-2.75-7.52-1.33-3.25,1.49-2.94,5.46-3.32,5.82-1.33,1.19-2.43,2.77-3.14,4.4-.11.26-.5,1.93-.79,2-.31.07-1.73-1.16-2.06-1.33-1.79-.88-4.44-.62-6.24-.92ZM136.26,72.38c1.09.28,2.04.7,2.81,1.22,1.7,1.19,2.44,5.23,4.33,5.66,1.86.41,4.17-.95,6.17-.82,2.6.18,4.75,1.84,6.54,3.6.11.11,1.59,1.42,1.55,1.53-.04.07-1.42-.01-1.56,0-1.12.14-2.17.55-3.04,1.29-1.08.94-1.87,2.16-2.34,3.49-.16.48-.23,1.92-.64,2.21-.3.21-1.38-.77-1.6-.91-1.4-.94-3.01-1.63-4.62-2.07-1.73-.47-3.48-.43-5.15.2-.7.26-2.16,1.49-2.94,1.35-.75-.16-1.4-1.48-1.93-1.97-1.26-1.23-3.09-2.2-4.89-2.17-3.83.06-5.87,4.24-7.28,7.28-1.35-3.86-.61-8.47,2.57-11.18,1.46-1.23,3.15-2,5.01-2.4.88-.2,2.11-.07,2.91-.54.96-.55,1.39-2.57,2-3.48.6-.85,1.31-1.63,2.11-2.3Z"/>
    </g>
  </g>
  <g class="cls-2">
    <g class="cls-24">
      <path class="cls-9" d="M259.03,256.42c-.87-1.02-1.63-1.84-2-2.23-6.99-7.09-12.1-17.05-17.63-25.38-8.3-12.48-18.57-21.8-27.08-34.13-3.19-4.61-5.6-9.77-8.92-14.3-8.2-11.24-18.83-18.46-32.64-20.2-6.21-.78-16.26-3.36-22.24-.21s-29.98,44.22-30.34,44.77c-.77,1.13-1.57,2.24-2.41,3.33-2.58,3.39-5.7,8.28-8.44,11.53-4.6,5.43-9.31,11.09-14.02,16.73-4.62,5.55-9.29,11.07-13.87,16.34-3.39,3.9-8.46,6.14-5.21,9.12,6.43,5.89,19.39,4.98,28.43,7.87,4.91,1.57,10.14,4.4,15.29,4.87,7.18.64,14.36-.94,21.58-.07,3.84.45,2.51,2.5,5.31,4.4,1.57,1.08,5.58,1.84,7.42,2.01,16.81,1.5,33.03-1.93,49.57-3.8,4.98-.57,10.03-.16,15.02-.45,11.66-.7,22.46-2.98,33.28-7.04,3.56-1.35,11.08-2.43,13.52-5.67.71-.96-2.33-4.88-4.6-7.49Z"/>
    </g>
  </g>
  <g class="cls-25">
    <g class="cls-52">
      <path class="cls-19" d="M243.07,271.97c-2.6-3.38-5.25-6.74-7.86-10.11-9.52-12.37-16.51-26.63-24.19-40.19-2.87-5.06-5.32-10.43-7.08-15.97-.17-.52-1.82-4.71-1.08-5.11,1.06-.58,6.09,5.66,6.68,6.33,6.4,7.04,11.9,14.92,18.73,21.56,3.49,3.39,7.63,4.61,11.48,7.32,2.87,2.01,5.49,4.3,8.16,6.54,2.77,4.28,5.72,8.4,9.12,11.86.37.37,1.13,1.21,2,2.21,2.27,2.62,5.31,6.53,4.58,7.49-2.43,3.25-9.96,4.34-13.52,5.67-2.34.89-4.68,1.69-7.02,2.4ZM197.7,226.19c-.03-.09-.04-.14-.04-.14.01.01.04.07.04.14ZM190.91,278.47c.03-.27.06-.5.09-.67.68-6.34.44-13.04,1.79-19.29.64-2.95,2.71-5.26,3.52-8.14,1.08-3.89.92-8.4,1.02-12.38.09-3.12.1-6.23.23-9.33,0-.17.24-1.94.16-2.45.6,1.48,5.76,14.5,6.47,18.07,2.16,10.98,5.63,21.68,8.48,32.47-3.62.03-7.25-.09-10.85.33-3.65.43-7.28.91-10.9,1.4ZM150.21,280.58c-1.52-8.53-2.61-17.08-2.61-17.08-.26-.21.37-2.43.41-2.68l1.45-7.79c1.6-8.63,3.25-17.28,5.01-25.88.4-1.94.62-7.01,2.54-8.17,1.02-.64,1.55,2.34,1.66,2.84.68,2.84,1.05,5.73,1.84,8.53.7,2.44,1.74,3.7,3.22,1.15,1.69-2.94,2.26-6.55,3.08-9.8,1.32-5.21,2.82-10.16,3.73-15.46.55-3.29.94-6.7,1.89-9.89.1-.33.85-2.77,1.57-2.18,1.38,1.09,1.22,5.73,1.43,7.32.82,6.47.96,10.9,1.42,16.68,1.31,16.53,2.94,32.71,3.8,49.26.2,3.97.68,8.13,1.02,12.3-9.73,1.22-19.48,2.06-29.44,1.16-.54-.04-1.25-.16-2.03-.3ZM79.78,264.99c3.09-9.96,6.6-19.14,6.6-19.14.13.14,2.17.37,2.47.45,2.82.78,6.57,1.29,9.25-.1,3.69-1.9,6.1-5.84,9.62-8.07,2.03-1.31,4.31.14,6.48-1.06,4.48-2.47,7.58-6.65,11.56-9.79,2.87-2.24,5.6-4.95,8.8-6.74.28-.17,2.64-1.86,2.96-1.56.5.45-1.76,4.03-1.92,4.4-2.27,5.09-4.3,10.29-6.6,15.36-5.29,11.75-10.51,24.12-19.68,33.44-2.27-.87-4.51-1.82-6.7-2.51-6.88-2.21-16.03-2.21-22.85-4.68Z"/>
    </g>
  </g>
  <g class="cls-28">
    <g class="cls-41">
      <path class="cls-13" d="M171.84,154.62c-2.48-.92-6.36-4.34-8.7-5.33-5.82-2.5-10.88-.38-14.54,3.01-5.48,5.08-8.84,12.51-11.89,19.02-2.94,6.3-6.65,12.07-10.21,18.02-2.04,3.43-4.24,7.05-6.41,10.41-2.34,3.65-6.54,8.72-7.75,11.65-.38.92-1.04,2.78.23,3.45,1.8.95,4.13-.57,4.88-1.11,2.26-1.63,5.43-4.27,7.92-7.19,5.43-6.4,10.03-14.29,13.96-21.72,1.84-3.49,2.99-7.15,5.26-10.46,1.69-2.43,3.76-4.74,6.13-6.5.88-.65,2.09-1.53,3.23-1.12,1.86.65,3.45,2.92,4.28,4.6,3.86,7.83-1.79,14.4-2.06,22.06-.09,2.53-.11,3.99,1.13,6.13,1.62,2.77,3.06,3.12,4.65,1.26,1.42-1.66,1.73-3.65,2.06-5.79.45-3.02-.26-4.77.23-7.77.35-2.24,1.93-5.63,2.23-7.89.47-3.55-.55-7.22,4.2-7.93.62-.09,1.26-.13,1.9-.04.85.13,1.69.44,2.45.84,4.2,2.13,4.31,8.94,5.11,12.94.81,4.13,3.14,7.31,4.33,11.26.85,2.78.43,5.7,1.09,8.5.58,2.4,2.3,4.54,3.62,6.58,1.9,2.96,3.94,5.73,6.6,8.04.77.68,2.78,3.29,3.9,2.82,2.3-.99.89-7.38.3-9.07-.96-2.81-3.59-4.65-4.64-7.5-2.04-5.5-1.48-10.68-1.84-16.37-.14-2.28-1.01-4.55-.96-6.84.01-.89.3-2,1.26-2.28,2.48-.71,4.5,3.45,5.39,5.05,1.11,1.97,1.83,4.5,3.29,6.23,1.5,1.79,3.06,3.28,4.6,5.09,1.77,2.07,3.01,4.74,4.98,6.63,1.59,1.52,3.82,2.28,5.77,3.16.52.23,1.79.98,2.24.34,1.05-1.43-1.38-4.6-2.09-5.69-1.62-2.54-2.78-5.35-4.44-7.85-1.33-2.01-3.21-3.62-4.6-5.6-3.69-5.31-4.84-11.29-7.45-17.09-1.31-2.91-3.08-5.99-5.06-8.47-2.72-3.42-5.48-5.22-8.8-6.21-5.63-1.7-10.46.75-15.79-1.26Z"/>
    </g>
  </g>
  <g class="cls-29">
    <g class="cls-35">
      <path class="cls-12" d="M192.82,181.15v-.5c0-.92.03-2.87,1.29-2.96,1.79-.14,3.31,2.11,4.24,3.33,2.24,2.89,3.76,7.11,4.48,10.98-.13-.14-.24-.28-.37-.43-1.46-1.74-2.18-4.27-3.29-6.24-.89-1.6-2.91-5.76-5.39-5.04-.45.13-.77.45-.96.85ZM169.88,171.58c.09-.14.16-.27.26-.4,1.76-2.58,5.02-1.49,7.05.16,5.48,4.48,5.04,13.22,5.14,19.83-.89-1.92-1.74-3.84-2.18-6.03-.79-4-.91-10.81-5.09-12.94-.78-.4-1.6-.71-2.47-.84-.64-.09-1.26-.04-1.9.04-.28.04-.55.1-.79.17ZM129.28,201.5c.57-1.21,1.21-2.4,1.84-3.56,2.34-4.21,5.36-8.14,7.22-12.61,1.09-2.61,1.57-5.41,2.48-8.07,1.59-4.61,4.72-9.68,9.32-11.75,2.35-1.08,3.75.03,4.74,1.7-.3-.2-.62-.35-.94-.47-1.15-.41-2.35.47-3.23,1.12-2.37,1.76-4.44,4.07-6.13,6.5-2.27,3.31-3.42,6.97-5.26,10.46-2.95,5.58-6.27,11.41-10.04,16.68Z"/>
    </g>
  </g>
  <g class="cls-50">
    <g class="cls-44">
      <path class="cls-15" d="M190.35,199.28c.96,2.58,2.89,5.42,4.51,7.65,1.39,1.9,3.01,3.48,3.45,5.87.26,1.32.33,2.68.18,4.03-.04.37-.1,1.21-.54,1.36-.55.2-.98-.78-1.15-1.12-.77-1.53-1.18-3.22-1.76-4.82-.72-1.97-1.46-3.83-2.64-5.59-1.22-1.84-2.87-3.52-3.65-5.63-.81-2.18-1.06-11.7,0-11.92,2.04-.41,0,5.9,1.59,10.17ZM201.92,181.12c1.11-.33,1.99,1.96,2.4,2.62,1.94,3.16,3.52,6.44,5.79,9.42.41.55,2.41,2.88,1.62,3.69-.65.65-2.6-1.9-2.92-2.27-2.1-2.35-3.8-4.65-4.82-7.69-.11-.3-2.75-5.58-2.06-5.77ZM162.43,186.81c-.06.37.07,3.35-.26,5.65-.3,2.1-1.04,3.49-1.35,4.17-.21.47-.85,1.45-1.32.65-.71-1.21-.23-3.14.06-4.38.4-1.7,1.22-3.26,1.56-4.98.45-2.21.41-4.53.87-6.77.51-2.62.16-5.25.58-7.87.09-.48.26-2.24,1.01-2.26.33,0,.4.54.43.77.14.99.09,2.03.06,3.01-.11,4.11-1.15,7.96-1.63,12.02ZM167.94,152.32c-.95-.18-1.92-.51-2.78-.77-1.72-.51-3.31-1.28-5.11-1.48-5.22-.55-9.04,2.35-12.04,6.3-1.9,2.48-2.82,5.36-4.24,8.1-1.6,3.12-4.2,5.49-5.63,8.75-2,4.57-4.16,8.67-6,13.31-1.36,3.43-3.53,6.7-5.6,9.76-2.18,3.25-3.73,7.63-7.42,9.24-.87.38-2.38.85-3.5.58,1.53-2.17,3.26-4.47,4.48-6.36,2.16-3.36,4.36-6.99,6.41-10.43,3.55-5.93,7.26-11.72,10.21-18.02,3.04-6.51,6.41-13.95,11.87-19.02,3.66-3.38,8.72-5.5,14.56-3.01,1.29.55,3.06,1.84,4.8,3.04ZM191.49,157.57c-1.69-.3-3.32-.92-5.02-1.19-2.88-.45-5.75,1.18-8.6,1.25-3.62.07-5.92-1.97-8.37-4.26.85.55,1.65.99,2.34,1.26,5.33,2,10.16-.44,15.8,1.25,1.36.4,2.64.95,3.84,1.69Z"/>
    </g>
  </g>
  <g class="cls-6">
    <g class="cls-46">
      <path class="cls-14" d="M204.94,179.6c-2.21.43-4.72-.64-6.37-2.95-.82-1.16-1.89-4.7-3.4-4.91-.99-.14-1.73,1.26-2.23,2-1.05,1.53-3.16,5.21-5.25,4.81-1.35-.27-2.48-1.79-3.16-3.01-1.55-2.79-2.13-7.26-4.45-9.36-3.04-2.74-7.99.27-11.53-.5-2.38-.52-4.58-2.01-6.3-3.93-1.35-1.5-2.5-3.36-4.14-4.48-1.43-.98-3.4-.34-4.95-.09-.65.11-1.55.11-1.28-.94.72-2.75,4.77-3.46,6.78-2.85.98.28,1.82.81,2.58,1.46,1.96,1.67,3.39,4.2,5.39,5.84,1.29,1.06,3.11,1.53,4.7,1.66,1.69.13,3.46-.16,5.08-.72.55-.2,1.13-.43,1.72-.64.64-.23,1.28-.43,1.92-.52.99-.14,1.99-.06,2.94.58,3.45,2.26,3.45,8.36,7.18,10.21,3.19,1.59,2.68-4.21,4.88-4.44,1.11-.11,2.3,2.03,2.91,2.82,1.25,1.59,2.58,2.53,4.4,2.87.18.47.37.94.54,1.4.72,1.9,1.36,3.8,2.07,5.67Z"/>
    </g>
  </g>
  <g class="cls-21">
    <g class="cls-1">
      <path class="cls-15" d="M161.23,154.86c.09-.11.33-.13.81-.01,3.14.77,5.93,3.53,8.4,5.21,1.16.79,2.78,1.12,4.2,1.22,1.15.07,2.34-.03,3.48-.27.37-.07.72-.16,1.08-.27.27-.07.55-.16.84-.26,1.66-.51,3.42-1.05,5.05-.17,3.06,1.66,3.06,6.14,6.41,7.5,2.85,1.16,2.33-2.38,4.28-2.54.99-.09,2.14.78,2.7,1.36.55.6,1.15,1.06,1.8,1.4.45.84.85,1.69,1.23,2.51.3.65.57,1.32.84,1.97.18.47.35.94.54,1.39-1.43-.23-2.82-.96-3.84-2.16-.74-.85-1.7-3.45-3.05-3.6-.89-.11-1.56.92-2,1.46-.94,1.13-2.82,3.83-4.68,3.53-1.21-.18-2.23-1.29-2.84-2.2-1.39-2.06-1.92-5.35-3.99-6.88-2.72-2.01-7.15.2-10.31-.37-2.14-.38-4.11-1.48-5.65-2.88-1.21-1.09-2.26-2.79-3.66-3.96-.85-.68-1.87-1.69-1.63-2Z"/>
    </g>
  </g>
  <g class="cls-34">
    <g class="cls-33">
      <path class="cls-16" d="M93.29,236.33c-4.62,5.53-9.29,11.07-13.87,16.34-3.39,3.89-8.46,6.14-5.21,9.11,6.43,5.9,19.39,4.98,28.43,7.87,4.91,1.57,10.14,4.4,15.29,4.87,7.18.65,14.36-.94,21.58-.07,3.84.45,2.51,2.5,5.31,4.4,1.57,1.08,5.58,1.86,7.42,2.01,16.81,1.52,33.03-1.92,49.57-3.8,4.98-.57,10.03-.14,15.02-.44,11.66-.7,22.46-2.98,33.28-7.05,3.56-1.33,11.08-2.41,13.52-5.67.71-.96-2.33-4.87-4.58-7.49-1.63.13-3.48-.27-4.98-.64-3.76-.91-6.55-4.58-10.16-5.12-3.02-.45-5.87,1.84-8.85.55-1.99-.85-3.29-3.32-4.44-5.02-2.43-3.59-4.82-7.28-7.66-10.55-1.15-1.32-2.37-2.65-3.77-3.69-.24-.18-1.22-.96-1.5-.45-.99,1.76,2.34,6.21,3.14,7.59,3.42,5.96,4.91,12.07,7.19,18.46.45,1.26,2.65,5.21,1.65,6.55-.55.71-1.97.13-2.58-.16-2.18-1.02-3.92-3.01-5.38-4.88-2.09-2.65-3.8-5.76-6.24-8.11-1.87-1.8-4.6-2.57-6.19-4.67-2.23-2.96-3.04-7.19-4.67-10.5-1.49-2.98-3.23-5.8-5.08-8.58-.17-.24-1.69-2.79-2.14-2.47-.58.41-.43,2.23-.43,2.78,0,3.12.71,5.97,1.6,8.95.68,2.26,1.35,4.51,1.96,6.8.95,3.49,2.78,7.9,2.67,11.58-.06,2.28-1.16,4.44-1.42,6.72-.2,1.74.35,4.95-.85,6.43-.96,1.18-3.48,1.57-4.84,2.11-1.48.58-3.09,1.26-4.71.99-9.85-1.62-8.94-16.68-9.8-23.85-.28-2.3-.68-4.6-1.08-6.89-.52-3.06-.96-6.21-1.86-9.21-.1-.34-.77-2.7-1.45-2.43-.55.23-.61,1.94-.68,2.41-.4,2.57-.4,5.16-.62,7.73-.7,7.7-1.67,15.21-2.94,22.81-.41,2.44.03,6.63-1.8,8.57-1.09,1.18-3.45.33-4.74-.03-3.62-.99-7.48-1.33-8.75-5.48-1.84-5.97-1.97-12.65-3.36-18.78-.13-.54-.85-5.49-1.72-5.49-.51.01-.82,1.26-.94,1.59-.61,1.79-1.18,3.59-1.83,5.36-1.92,5.21-4.3,10.21-5.86,15.53-.65,2.26-1.56,5.41-4.24,5.86-1.94.33-3.63-1.16-5.19-2.07-1.57-.92-3.31-1.87-4.18-3.57-1.05-2.03-.5-4.36-.31-6.53.48-5.56,2.1-10.94,3.73-16.24.78-2.53,1.67-5.01,2.48-7.52.98-3.04,1.84-6.11,2.65-9.19.81-3.12,1.55-6.28,2.07-9.48.11-.68.7-2.82-.09-3.33-1.08-.7-3.25,2.47-3.7,3.06-3.26,4.33-5.75,9.25-9.45,13.25-3.12,3.36-6.45,6.58-9.08,10.38-4.27,6.16-8.37,14.26-14.73,18.64-3.96,2.74-12.16,4.04-16.88,3.9-3.79-.1-1.94-4.06-1.02-6.27,2.44-5.83,4.87-11.66,7.29-17.49Z"/>
    </g>
  </g>
</svg>