<svg xmlns="http://www.w3.org/2000/svg" xmlns:xlink="http://www.w3.org/1999/xlink" width="1024" zoomAndPan="magnify" viewBox="0 0 768 576" height="768" preserveAspectRatio="xMidYMid meet" version="1.0"><defs><clipPath id="d33c2faf88"><path d="M 131 36 L 224 36 L 224 173.675781 L 131 173.675781 Z M 131 36 " clip-rule="nonzero"/></clipPath><clipPath id="e5ed791838"><path d="M 143.578125 47.90625 L 211.574219 47.90625 L 211.574219 115.898438 L 143.578125 115.898438 Z M 143.578125 47.90625 " clip-rule="nonzero"/></clipPath><clipPath id="3704bb729f"><path d="M 177.578125 47.90625 C 158.800781 47.90625 143.578125 63.125 143.578125 81.902344 C 143.578125 100.679688 158.800781 115.898438 177.578125 115.898438 C 196.351562 115.898438 211.574219 100.679688 211.574219 81.902344 C 211.574219 63.125 196.351562 47.90625 177.578125 47.90625 Z M 177.578125 47.90625 " clip-rule="nonzero"/></clipPath><clipPath id="98bd9206f8"><path d="M 143.578125 47.90625 L 211.570312 47.90625 L 211.570312 115.898438 L 143.578125 115.898438 Z M 143.578125 47.90625 " clip-rule="nonzero"/></clipPath><clipPath id="0c2cf60b53"><path d="M 177.574219 47.90625 C 158.800781 47.90625 143.578125 63.125 143.578125 81.902344 C 143.578125 100.675781 158.800781 115.898438 177.574219 115.898438 C 196.351562 115.898438 211.570312 100.675781 211.570312 81.902344 C 211.570312 63.125 196.351562 47.90625 177.574219 47.90625 Z M 177.574219 47.90625 " clip-rule="nonzero"/></clipPath><clipPath id="66c4e280a4"><path d="M 182 66 L 191 66 L 191 73 L 182 73 Z M 182 66 " clip-rule="nonzero"/></clipPath><clipPath id="9fadd7b6a3"><path d="M 150.539062 74.796875 L 150.539062 89.007812 C 150.539062 102.675781 161.621094 113.757812 175.289062 113.757812 L 179.226562 113.757812 C 192.894531 113.757812 203.976562 102.675781 203.976562 89.007812 L 203.976562 74.796875 C 203.976562 61.128906 192.894531 50.046875 179.226562 50.046875 L 175.289062 50.046875 C 161.621094 50.046875 150.539062 61.128906 150.539062 74.796875 Z M 150.539062 74.796875 " clip-rule="nonzero"/></clipPath><clipPath id="dee59b2de3"><path d="M 170 50.046875 L 195 50.046875 L 195 68 L 170 68 Z M 170 50.046875 " clip-rule="nonzero"/></clipPath><clipPath id="e64ff8f1d0"><path d="M 150.539062 74.796875 L 150.539062 89.007812 C 150.539062 102.675781 161.621094 113.757812 175.289062 113.757812 L 179.226562 113.757812 C 192.894531 113.757812 203.976562 102.675781 203.976562 89.007812 L 203.976562 74.796875 C 203.976562 61.128906 192.894531 50.046875 179.226562 50.046875 L 175.289062 50.046875 C 161.621094 50.046875 150.539062 61.128906 150.539062 74.796875 Z M 150.539062 74.796875 " clip-rule="nonzero"/></clipPath><clipPath id="ac1b54aea6"><path d="M 173 66 L 183 66 L 183 81 L 173 81 Z M 173 66 " clip-rule="nonzero"/></clipPath><clipPath id="786720896d"><path d="M 150.539062 74.796875 L 150.539062 89.007812 C 150.539062 102.675781 161.621094 113.757812 175.289062 113.757812 L 179.226562 113.757812 C 192.894531 113.757812 203.976562 102.675781 203.976562 89.007812 L 203.976562 74.796875 C 203.976562 61.128906 192.894531 50.046875 179.226562 50.046875 L 175.289062 50.046875 C 161.621094 50.046875 150.539062 61.128906 150.539062 74.796875 Z M 150.539062 74.796875 " clip-rule="nonzero"/></clipPath><clipPath id="9391210132"><path d="M 174 66 L 183 66 L 183 76 L 174 76 Z M 174 66 " clip-rule="nonzero"/></clipPath><clipPath id="90bcb4565c"><path d="M 150.539062 74.796875 L 150.539062 89.007812 C 150.539062 102.675781 161.621094 113.757812 175.289062 113.757812 L 179.226562 113.757812 C 192.894531 113.757812 203.976562 102.675781 203.976562 89.007812 L 203.976562 74.796875 C 203.976562 61.128906 192.894531 50.046875 179.226562 50.046875 L 175.289062 50.046875 C 161.621094 50.046875 150.539062 61.128906 150.539062 74.796875 Z M 150.539062 74.796875 " clip-rule="nonzero"/></clipPath><clipPath id="31c2f5bdf1"><path d="M 176 68 L 183 68 L 183 83 L 176 83 Z M 176 68 " clip-rule="nonzero"/></clipPath><clipPath id="e16a94f2d8"><path d="M 150.539062 74.796875 L 150.539062 89.007812 C 150.539062 102.675781 161.621094 113.757812 175.289062 113.757812 L 179.226562 113.757812 C 192.894531 113.757812 203.976562 102.675781 203.976562 89.007812 L 203.976562 74.796875 C 203.976562 61.128906 192.894531 50.046875 179.226562 50.046875 L 175.289062 50.046875 C 161.621094 50.046875 150.539062 61.128906 150.539062 74.796875 Z M 150.539062 74.796875 " clip-rule="nonzero"/></clipPath><clipPath id="5123bbf023"><path d="M 162 52 L 191 52 L 191 74 L 162 74 Z M 162 52 " clip-rule="nonzero"/></clipPath><clipPath id="2d50ace4b0"><path d="M 150.539062 74.796875 L 150.539062 89.007812 C 150.539062 102.675781 161.621094 113.757812 175.289062 113.757812 L 179.226562 113.757812 C 192.894531 113.757812 203.976562 102.675781 203.976562 89.007812 L 203.976562 74.796875 C 203.976562 61.128906 192.894531 50.046875 179.226562 50.046875 L 175.289062 50.046875 C 161.621094 50.046875 150.539062 61.128906 150.539062 74.796875 Z M 150.539062 74.796875 " clip-rule="nonzero"/></clipPath><clipPath id="ff55b44e99"><path d="M 169 57 L 186 57 L 186 73 L 169 73 Z M 169 57 " clip-rule="nonzero"/></clipPath><clipPath id="b8a85bacb7"><path d="M 150.539062 74.796875 L 150.539062 89.007812 C 150.539062 102.675781 161.621094 113.757812 175.289062 113.757812 L 179.226562 113.757812 C 192.894531 113.757812 203.976562 102.675781 203.976562 89.007812 L 203.976562 74.796875 C 203.976562 61.128906 192.894531 50.046875 179.226562 50.046875 L 175.289062 50.046875 C 161.621094 50.046875 150.539062 61.128906 150.539062 74.796875 Z M 150.539062 74.796875 " clip-rule="nonzero"/></clipPath><clipPath id="90e45837ca"><path d="M 164 55 L 183 55 L 183 69 L 164 69 Z M 164 55 " clip-rule="nonzero"/></clipPath><clipPath id="777adcb870"><path d="M 150.539062 74.796875 L 150.539062 89.007812 C 150.539062 102.675781 161.621094 113.757812 175.289062 113.757812 L 179.226562 113.757812 C 192.894531 113.757812 203.976562 102.675781 203.976562 89.007812 L 203.976562 74.796875 C 203.976562 61.128906 192.894531 50.046875 179.226562 50.046875 L 175.289062 50.046875 C 161.621094 50.046875 150.539062 61.128906 150.539062 74.796875 Z M 150.539062 74.796875 " clip-rule="nonzero"/></clipPath><clipPath id="9a54d755ac"><path d="M 151 79 L 203.789062 79 L 203.789062 113.796875 L 151 113.796875 Z M 151 79 " clip-rule="nonzero"/></clipPath><clipPath id="1958e04b50"><path d="M 150.539062 74.796875 L 150.539062 89.007812 C 150.539062 102.675781 161.621094 113.757812 175.289062 113.757812 L 179.226562 113.757812 C 192.894531 113.757812 203.976562 102.675781 203.976562 89.007812 L 203.976562 74.796875 C 203.976562 61.128906 192.894531 50.046875 179.226562 50.046875 L 175.289062 50.046875 C 161.621094 50.046875 150.539062 61.128906 150.539062 74.796875 Z M 150.539062 74.796875 " clip-rule="nonzero"/></clipPath><clipPath id="07a50e1754"><path d="M 152 89 L 203.789062 89 L 203.789062 113.796875 L 152 113.796875 Z M 152 89 " clip-rule="nonzero"/></clipPath><clipPath id="b07346cc22"><path d="M 150.539062 74.796875 L 150.539062 89.007812 C 150.539062 102.675781 161.621094 113.757812 175.289062 113.757812 L 179.226562 113.757812 C 192.894531 113.757812 203.976562 102.675781 203.976562 89.007812 L 203.976562 74.796875 C 203.976562 61.128906 192.894531 50.046875 179.226562 50.046875 L 175.289062 50.046875 C 161.621094 50.046875 150.539062 61.128906 150.539062 74.796875 Z M 150.539062 74.796875 " clip-rule="nonzero"/></clipPath><clipPath id="385b682fd2"><path d="M 161 76 L 192 76 L 192 98 L 161 98 Z M 161 76 " clip-rule="nonzero"/></clipPath><clipPath id="0f0a0126d8"><path d="M 150.539062 74.796875 L 150.539062 89.007812 C 150.539062 102.675781 161.621094 113.757812 175.289062 113.757812 L 179.226562 113.757812 C 192.894531 113.757812 203.976562 102.675781 203.976562 89.007812 L 203.976562 74.796875 C 203.976562 61.128906 192.894531 50.046875 179.226562 50.046875 L 175.289062 50.046875 C 161.621094 50.046875 150.539062 61.128906 150.539062 74.796875 Z M 150.539062 74.796875 " clip-rule="nonzero"/></clipPath><clipPath id="db888c5035"><path d="M 166 81 L 187 81 L 187 92 L 166 92 Z M 166 81 " clip-rule="nonzero"/></clipPath><clipPath id="c1fd34aaf8"><path d="M 150.539062 74.796875 L 150.539062 89.007812 C 150.539062 102.675781 161.621094 113.757812 175.289062 113.757812 L 179.226562 113.757812 C 192.894531 113.757812 203.976562 102.675781 203.976562 89.007812 L 203.976562 74.796875 C 203.976562 61.128906 192.894531 50.046875 179.226562 50.046875 L 175.289062 50.046875 C 161.621094 50.046875 150.539062 61.128906 150.539062 74.796875 Z M 150.539062 74.796875 " clip-rule="nonzero"/></clipPath><clipPath id="6c158f8d00"><path d="M 162 76 L 190 76 L 190 97 L 162 97 Z M 162 76 " clip-rule="nonzero"/></clipPath><clipPath id="5730371db4"><path d="M 150.539062 74.796875 L 150.539062 89.007812 C 150.539062 102.675781 161.621094 113.757812 175.289062 113.757812 L 179.226562 113.757812 C 192.894531 113.757812 203.976562 102.675781 203.976562 89.007812 L 203.976562 74.796875 C 203.976562 61.128906 192.894531 50.046875 179.226562 50.046875 L 175.289062 50.046875 C 161.621094 50.046875 150.539062 61.128906 150.539062 74.796875 Z M 150.539062 74.796875 " clip-rule="nonzero"/></clipPath><clipPath id="93cdbf27ae"><path d="M 172 78 L 188 78 L 188 86 L 172 86 Z M 172 78 " clip-rule="nonzero"/></clipPath><clipPath id="20623f77ab"><path d="M 150.539062 74.796875 L 150.539062 89.007812 C 150.539062 102.675781 161.621094 113.757812 175.289062 113.757812 L 179.226562 113.757812 C 192.894531 113.757812 203.976562 102.675781 203.976562 89.007812 L 203.976562 74.796875 C 203.976562 61.128906 192.894531 50.046875 179.226562 50.046875 L 175.289062 50.046875 C 161.621094 50.046875 150.539062 61.128906 150.539062 74.796875 Z M 150.539062 74.796875 " clip-rule="nonzero"/></clipPath><clipPath id="b14ba1409f"><path d="M 175 78 L 187 78 L 187 84 L 175 84 Z M 175 78 " clip-rule="nonzero"/></clipPath><clipPath id="de69b73867"><path d="M 150.539062 74.796875 L 150.539062 89.007812 C 150.539062 102.675781 161.621094 113.757812 175.289062 113.757812 L 179.226562 113.757812 C 192.894531 113.757812 203.976562 102.675781 203.976562 89.007812 L 203.976562 74.796875 C 203.976562 61.128906 192.894531 50.046875 179.226562 50.046875 L 175.289062 50.046875 C 161.621094 50.046875 150.539062 61.128906 150.539062 74.796875 Z M 150.539062 74.796875 " clip-rule="nonzero"/></clipPath><clipPath id="f98ff75ef2"><path d="M 151 94 L 203.789062 94 L 203.789062 113.796875 L 151 113.796875 Z M 151 94 " clip-rule="nonzero"/></clipPath><clipPath id="4d554d9cb0"><path d="M 150.539062 74.796875 L 150.539062 89.007812 C 150.539062 102.675781 161.621094 113.757812 175.289062 113.757812 L 179.226562 113.757812 C 192.894531 113.757812 203.976562 102.675781 203.976562 89.007812 L 203.976562 74.796875 C 203.976562 61.128906 192.894531 50.046875 179.226562 50.046875 L 175.289062 50.046875 C 161.621094 50.046875 150.539062 61.128906 150.539062 74.796875 Z M 150.539062 74.796875 " clip-rule="nonzero"/></clipPath></defs><g clip-path="url(#d33c2faf88)"><path fill="#e4fcfc" d="M 177.136719 101.933594 C 164.878906 101.933594 154.941406 91.996094 154.941406 79.738281 C 154.941406 67.476562 164.878906 57.542969 177.136719 57.542969 C 189.394531 57.542969 199.332031 67.476562 199.332031 79.738281 C 199.332031 91.996094 189.394531 101.933594 177.136719 101.933594 Z M 216.847656 58.988281 C 204.023438 37.066406 175.851562 29.6875 153.925781 42.511719 C 132.003906 55.335938 124.625 83.503906 137.449219 105.429688 L 177.148438 173.300781 L 216.847656 105.429688 C 224.910156 91.566406 225.519531 73.820312 216.847656 58.988281 " fill-opacity="1" fill-rule="nonzero"/></g><g clip-path="url(#e5ed791838)"><g clip-path="url(#3704bb729f)"><path fill="#e4fcfc" d="M 143.578125 47.90625 L 211.574219 47.90625 L 211.574219 115.898438 L 143.578125 115.898438 Z M 143.578125 47.90625 " fill-opacity="1" fill-rule="nonzero"/></g></g><g clip-path="url(#98bd9206f8)"><g clip-path="url(#0c2cf60b53)"><path stroke-linecap="butt" transform="matrix(0.75, 0, 0, 0.75, 143.57992, 47.904628)" fill="none" stroke-linejoin="miter" d="M 45.325737 0.00216319 C 20.294484 0.00216319 -0.00239282 20.293832 -0.00239282 45.330293 C -0.00239282 70.361546 20.294484 90.658423 45.325737 90.658423 C 70.362198 90.658423 90.653867 70.361546 90.653867 45.330293 C 90.653867 20.293832 70.362198 0.00216319 45.325737 0.00216319 Z M 45.325737 0.00216319 " stroke="#ffa500" stroke-width="4" stroke-opacity="1" stroke-miterlimit="4"/></g></g><g clip-path="url(#66c4e280a4)"><g clip-path="url(#9fadd7b6a3)"><path fill="#5b341c" d="M 182.4375 68.253906 C 181.71875 69.148438 182.8125 71.9375 183.023438 72.121094 C 183.65625 72.671875 184.5 73.097656 185.355469 72.949219 C 186.09375 72.816406 186.753906 72.226562 187.046875 71.542969 C 187.113281 71.382812 187.128906 70.804688 187.246094 70.707031 C 187.339844 70.632812 187.59375 70.726562 187.6875 70.75 C 188.050781 70.828125 188.4375 70.902344 188.804688 70.832031 C 190.0625 70.585938 190.53125 68.757812 190.027344 67.75 C 189.910156 67.515625 189.761719 67.304688 189.597656 67.097656 C 188.570312 65.808594 187.335938 66.402344 185.945312 66.671875 C 185.328125 66.792969 184.667969 66.710938 184.0625 66.902344 C 183.410156 67.117188 182.855469 67.730469 182.4375 68.253906 Z M 182.4375 68.253906 " fill-opacity="1" fill-rule="evenodd"/><path fill="#ffffff" d="M 182.4375 68.253906 C 181.71875 69.148438 182.8125 71.9375 183.023438 72.121094 C 183.65625 72.671875 184.5 73.097656 185.355469 72.949219 C 186.09375 72.816406 186.753906 72.226562 187.046875 71.542969 C 187.113281 71.382812 187.128906 70.804688 187.246094 70.707031 C 187.339844 70.632812 187.59375 70.726562 187.6875 70.75 C 188.050781 70.828125 188.4375 70.902344 188.804688 70.832031 C 190.0625 70.585938 190.53125 68.757812 190.027344 67.75 C 189.910156 67.515625 189.761719 67.304688 189.597656 67.097656 C 188.570312 65.808594 187.335938 66.402344 185.945312 66.671875 C 185.328125 66.792969 184.667969 66.710938 184.0625 66.902344 C 183.410156 67.117188 182.855469 67.730469 182.4375 68.253906 Z M 182.4375 68.253906 " fill-opacity="0.5" fill-rule="evenodd"/></g></g><g clip-path="url(#dee59b2de3)"><g clip-path="url(#e64ff8f1d0)"><path fill="#5b341c" d="M 170.539062 56.867188 C 170.226562 55.996094 170.773438 54.863281 171.636719 54.464844 C 171.878906 54.355469 172.566406 54.378906 172.722656 54.1875 C 172.839844 54.039062 172.660156 53.65625 172.644531 53.492188 C 172.601562 53.113281 172.675781 52.722656 172.871094 52.390625 C 173.109375 51.984375 173.585938 51.695312 174.058594 51.699219 C 174.203125 51.699219 174.554688 51.851562 174.679688 51.773438 C 174.898438 51.640625 175.03125 51.175781 175.1875 50.976562 C 175.691406 50.328125 176.660156 50.082031 177.390625 50.492188 C 177.820312 50.734375 178.0625 51.101562 178.214844 51.558594 C 178.242188 51.644531 178.324219 52.214844 178.390625 52.257812 C 178.449219 52.289062 178.804688 52.109375 178.878906 52.097656 C 179.398438 52.003906 179.855469 52.171875 180.113281 52.648438 C 180.644531 53.648438 180.113281 54.621094 180.160156 55.648438 C 180.191406 56.335938 180.710938 56.597656 180.96875 57.15625 C 181.230469 57.71875 181.109375 58.597656 180.957031 59.171875 C 180.570312 60.625 179.496094 62.066406 178.113281 62.679688 C 175.957031 63.636719 173.148438 62.792969 171.65625 61.035156 C 171.09375 60.378906 170.539062 56.867188 170.539062 56.867188 Z M 188.074219 67.871094 C 188.074219 67.871094 185.660156 66.804688 185.347656 66.25 C 184.960938 65.566406 184.792969 64.652344 184.871094 63.875 C 184.988281 62.695312 185.796875 62.054688 186.304688 61.074219 C 187.109375 59.53125 187.046875 56.898438 189.367188 56.824219 C 189.695312 56.816406 190.03125 56.863281 190.328125 57.007812 C 190.867188 57.261719 191.292969 57.835938 191.515625 58.378906 C 191.605469 58.59375 191.617188 58.949219 191.757812 59.132812 C 191.871094 59.273438 192.546875 59.332031 192.734375 59.417969 C 193.582031 59.804688 194.296875 60.625 194.398438 61.582031 C 194.460938 62.148438 194.320312 62.707031 193.980469 63.160156 C 193.945312 63.210938 193.398438 63.71875 193.402344 63.730469 C 193.429688 63.820312 193.808594 64.007812 193.882812 64.089844 C 194.285156 64.523438 194.34375 65.191406 194.070312 65.703125 C 193.503906 66.765625 192.472656 66.433594 191.574219 66.882812 C 191 67.171875 190.742188 67.703125 190.058594 67.839844 C 189.640625 67.925781 189.195312 67.96875 188.765625 67.964844 C 188.609375 67.960938 188.457031 67.945312 188.304688 67.917969 C 188.226562 67.902344 188.03125 67.804688 188.074219 67.871094 Z M 188.074219 67.871094 " fill-opacity="1" fill-rule="evenodd"/><path fill="#ffffff" d="M 170.539062 56.867188 C 170.226562 55.996094 170.773438 54.863281 171.636719 54.464844 C 171.878906 54.355469 172.566406 54.378906 172.722656 54.1875 C 172.839844 54.039062 172.660156 53.65625 172.644531 53.492188 C 172.601562 53.113281 172.675781 52.722656 172.871094 52.390625 C 173.109375 51.984375 173.585938 51.695312 174.058594 51.699219 C 174.203125 51.699219 174.554688 51.851562 174.679688 51.773438 C 174.898438 51.640625 175.03125 51.175781 175.1875 50.976562 C 175.691406 50.328125 176.660156 50.082031 177.390625 50.492188 C 177.820312 50.734375 178.0625 51.101562 178.214844 51.558594 C 178.242188 51.644531 178.324219 52.214844 178.390625 52.257812 C 178.449219 52.289062 178.804688 52.109375 178.878906 52.097656 C 179.398438 52.003906 179.855469 52.171875 180.113281 52.648438 C 180.644531 53.648438 180.113281 54.621094 180.160156 55.648438 C 180.191406 56.335938 180.710938 56.597656 180.96875 57.15625 C 181.230469 57.71875 181.109375 58.597656 180.957031 59.171875 C 180.570312 60.625 179.496094 62.066406 178.113281 62.679688 C 175.957031 63.636719 173.148438 62.792969 171.65625 61.035156 C 171.09375 60.378906 170.539062 56.867188 170.539062 56.867188 Z M 188.074219 67.871094 C 188.074219 67.871094 185.660156 66.804688 185.347656 66.25 C 184.960938 65.566406 184.792969 64.652344 184.871094 63.875 C 184.988281 62.695312 185.796875 62.054688 186.304688 61.074219 C 187.109375 59.53125 187.046875 56.898438 189.367188 56.824219 C 189.695312 56.816406 190.03125 56.863281 190.328125 57.007812 C 190.867188 57.261719 191.292969 57.835938 191.515625 58.378906 C 191.605469 58.59375 191.617188 58.949219 191.757812 59.132812 C 191.871094 59.273438 192.546875 59.332031 192.734375 59.417969 C 193.582031 59.804688 194.296875 60.625 194.398438 61.582031 C 194.460938 62.148438 194.320312 62.707031 193.980469 63.160156 C 193.945312 63.210938 193.398438 63.71875 193.402344 63.730469 C 193.429688 63.820312 193.808594 64.007812 193.882812 64.089844 C 194.285156 64.523438 194.34375 65.191406 194.070312 65.703125 C 193.503906 66.765625 192.472656 66.433594 191.574219 66.882812 C 191 67.171875 190.742188 67.703125 190.058594 67.839844 C 189.640625 67.925781 189.195312 67.96875 188.765625 67.964844 C 188.609375 67.960938 188.457031 67.945312 188.304688 67.917969 C 188.226562 67.902344 188.03125 67.804688 188.074219 67.871094 Z M 188.074219 67.871094 " fill-opacity="0.404" fill-rule="evenodd"/></g></g><g clip-path="url(#ac1b54aea6)"><g clip-path="url(#786720896d)"><path fill="#f65525" d="M 176.214844 78.671875 C 176.171875 78.75 176.144531 78.347656 176.144531 78.34375 C 176.140625 78.128906 176.148438 77.917969 176.148438 77.707031 C 176.144531 77.066406 176.125 76.339844 175.898438 75.734375 C 175.691406 75.1875 175.292969 74.765625 175.023438 74.257812 C 174.820312 73.882812 174.734375 73.480469 174.464844 73.136719 C 174 72.542969 173.355469 72.121094 173.457031 71.265625 C 173.621094 69.910156 174.835938 69.015625 176.0625 68.671875 C 176.652344 68.507812 177.269531 68.523438 177.859375 68.371094 C 178.539062 68.195312 179.15625 67.890625 179.777344 67.566406 C 180.425781 67.230469 181.09375 66.941406 181.734375 66.597656 C 181.863281 66.527344 182.230469 66.257812 182.386719 66.34375 C 182.558594 66.4375 182.511719 67.21875 182.527344 67.382812 C 182.621094 68.410156 182.945312 69.417969 182.96875 70.449219 C 182.980469 71.15625 182.933594 71.875 182.640625 72.53125 C 182.230469 73.4375 181.507812 74.15625 181.148438 75.09375 C 180.671875 76.332031 180.636719 77.71875 180.207031 78.980469 C 180.050781 79.445312 179.808594 80.121094 179.363281 80.390625 C 178.90625 80.667969 178.269531 80.636719 177.765625 80.550781 C 177.359375 80.484375 176.949219 80.382812 176.5625 80.234375 C 176.261719 80.117188 176.214844 78.671875 176.214844 78.671875 Z M 176.214844 78.671875 " fill-opacity="1" fill-rule="evenodd"/><path fill="#5b341c" d="M 176.214844 78.671875 C 176.171875 78.75 176.144531 78.347656 176.144531 78.34375 C 176.140625 78.128906 176.148438 77.917969 176.148438 77.707031 C 176.144531 77.066406 176.125 76.339844 175.898438 75.734375 C 175.691406 75.1875 175.292969 74.765625 175.023438 74.257812 C 174.820312 73.882812 174.734375 73.480469 174.464844 73.136719 C 174 72.542969 173.355469 72.121094 173.457031 71.265625 C 173.621094 69.910156 174.835938 69.015625 176.0625 68.671875 C 176.652344 68.507812 177.269531 68.523438 177.859375 68.371094 C 178.539062 68.195312 179.15625 67.890625 179.777344 67.566406 C 180.425781 67.230469 181.09375 66.941406 181.734375 66.597656 C 181.863281 66.527344 182.230469 66.257812 182.386719 66.34375 C 182.558594 66.4375 182.511719 67.21875 182.527344 67.382812 C 182.621094 68.410156 182.945312 69.417969 182.96875 70.449219 C 182.980469 71.15625 182.933594 71.875 182.640625 72.53125 C 182.230469 73.4375 181.507812 74.15625 181.148438 75.09375 C 180.671875 76.332031 180.636719 77.71875 180.207031 78.980469 C 180.050781 79.445312 179.808594 80.121094 179.363281 80.390625 C 178.90625 80.667969 178.269531 80.636719 177.765625 80.550781 C 177.359375 80.484375 176.949219 80.382812 176.5625 80.234375 C 176.261719 80.117188 176.214844 78.671875 176.214844 78.671875 Z M 176.214844 78.671875 " fill-opacity="0.201" fill-rule="evenodd"/></g></g><g clip-path="url(#9391210132)"><g clip-path="url(#90bcb4565c)"><path fill="#5b341c" d="M 182.152344 66.367188 C 182.238281 66.363281 182.324219 66.363281 182.410156 66.363281 C 182.550781 66.515625 182.511719 67.226562 182.527344 67.378906 C 182.621094 68.410156 182.945312 69.414062 182.964844 70.449219 C 182.980469 71.15625 182.929688 71.875 182.636719 72.527344 C 182.253906 73.378906 181.597656 74.0625 181.21875 74.921875 C 180.957031 74.34375 180.730469 73.777344 180.695312 73.117188 C 180.683594 72.882812 180.71875 72.402344 180.445312 72.296875 C 180.109375 72.167969 179.695312 72.714844 179.515625 72.917969 C 178.964844 73.546875 178.417969 74.777344 177.554688 74.996094 C 177.195312 75.089844 176.960938 74.789062 176.761719 74.535156 C 176.457031 74.148438 176.171875 73.679688 175.660156 73.550781 C 175.34375 73.46875 175.03125 73.527344 174.765625 73.675781 C 174.6875 73.492188 174.597656 73.304688 174.46875 73.136719 C 174.324219 72.957031 174.164062 72.789062 174.011719 72.621094 C 174.019531 71.59375 174.085938 70.378906 174.320312 69.628906 C 174.417969 69.304688 174.550781 69.066406 174.722656 68.972656 C 176.816406 67.796875 179.167969 66.726562 181.5625 66.414062 C 181.753906 66.390625 181.953125 66.371094 182.152344 66.367188 Z M 174.046875 74.441406 C 174.046875 74.472656 174.050781 74.488281 174.050781 74.488281 C 174.042969 74.476562 174.042969 74.460938 174.046875 74.441406 Z M 174.046875 74.441406 " fill-opacity="0.353" fill-rule="evenodd"/></g></g><g clip-path="url(#31c2f5bdf1)"><g clip-path="url(#e16a94f2d8)"><path fill="#ffffff" d="M 177.089844 79.925781 C 177.144531 79.933594 177.082031 79.816406 177.085938 79.761719 C 177.097656 79.632812 177.105469 79.503906 177.109375 79.375 C 177.121094 78.996094 177.121094 78.617188 177.117188 78.238281 C 177.101562 76.667969 176.949219 75.132812 176.710938 73.582031 C 176.65625 73.214844 176.582031 72.84375 176.574219 72.46875 C 176.574219 72.40625 176.550781 72.160156 176.628906 72.121094 C 176.710938 72.082031 176.832031 72.453125 176.847656 72.492188 C 177.007812 72.917969 177.132812 73.363281 177.246094 73.804688 C 177.585938 75.097656 177.765625 76.417969 177.851562 77.75 C 177.886719 78.265625 177.902344 78.78125 177.917969 79.300781 C 177.917969 79.339844 177.902344 79.753906 177.976562 79.757812 C 178.113281 79.761719 178.230469 78.714844 178.242188 78.628906 C 178.433594 77.417969 178.648438 76.207031 178.871094 75 C 178.9375 74.625 179.007812 74.242188 179.109375 73.871094 C 179.117188 73.84375 179.164062 73.605469 179.226562 73.621094 C 179.390625 73.664062 179.253906 74.667969 179.246094 74.777344 C 179.152344 75.984375 179.082031 77.195312 178.980469 78.402344 C 178.949219 78.765625 178.902344 79.125 178.886719 79.488281 C 178.886719 79.53125 178.855469 79.761719 178.929688 79.773438 C 179.050781 79.789062 179.136719 79.230469 179.152344 79.167969 C 179.335938 78.378906 179.527344 77.589844 179.71875 76.796875 C 180.167969 74.902344 180.691406 73.132812 181.535156 71.375 C 181.792969 70.839844 182.042969 70.3125 182.207031 69.738281 C 182.269531 69.53125 182.320312 69.320312 182.371094 69.109375 C 182.390625 69.011719 182.386719 68.734375 182.441406 68.816406 C 182.546875 68.984375 182.347656 69.574219 182.316406 69.746094 C 182.140625 70.640625 181.863281 71.527344 181.535156 72.382812 C 181.261719 73.109375 180.828125 73.777344 180.59375 74.519531 C 180.238281 75.652344 180.164062 76.878906 179.984375 78.046875 C 179.738281 79.632812 179.402344 81.207031 179.210938 82.804688 C 179.125 83.515625 177.089844 79.925781 177.089844 79.925781 Z M 177.089844 79.925781 " fill-opacity="0.404" fill-rule="evenodd"/></g></g><g clip-path="url(#5123bbf023)"><g clip-path="url(#2d50ace4b0)"><path fill="#5b341c" d="M 173.59375 72.738281 C 173.570312 72.761719 173.542969 72.785156 173.519531 72.804688 C 172.277344 73.925781 170.410156 74.273438 168.980469 73.328125 C 168.679688 73.132812 168.414062 72.894531 168.191406 72.613281 C 168.054688 72.4375 167.949219 72.15625 167.734375 72.058594 C 167.425781 71.921875 166.976562 72.160156 166.667969 72.191406 C 166.113281 72.246094 165.484375 72.121094 164.976562 71.898438 C 164.136719 71.53125 163.695312 70.785156 163.714844 69.875 C 163.71875 69.632812 163.945312 69.097656 163.84375 68.886719 C 163.765625 68.722656 163.488281 68.644531 163.351562 68.535156 C 163.007812 68.265625 162.796875 67.941406 162.75 67.5 C 162.671875 66.753906 162.941406 65.835938 163.761719 65.644531 C 163.859375 65.621094 164.558594 65.722656 164.582031 65.695312 C 164.621094 65.648438 164.472656 65.3125 164.460938 65.25 C 164.402344 64.902344 164.425781 64.496094 164.523438 64.15625 C 164.621094 63.828125 164.855469 63.535156 165.121094 63.324219 C 165.226562 63.238281 165.507812 63.160156 165.546875 63.019531 C 165.585938 62.890625 165.402344 62.761719 165.328125 62.6875 C 165.085938 62.441406 164.867188 62.160156 164.707031 61.859375 C 164.628906 61.714844 164.558594 61.5625 164.503906 61.410156 C 164.132812 60.34375 164.335938 59.074219 165.214844 58.328125 C 165.613281 57.988281 166.078125 57.777344 166.589844 57.667969 C 166.835938 57.617188 167.171875 57.648438 167.394531 57.519531 C 167.660156 57.367188 167.773438 56.8125 167.945312 56.5625 C 168.105469 56.328125 168.300781 56.113281 168.523438 55.929688 C 168.992188 55.546875 169.574219 55.3125 170.191406 55.375 C 170.972656 55.449219 171.695312 55.914062 172.210938 56.492188 C 172.453125 56.441406 172.699219 56.425781 172.941406 56.453125 C 173.648438 56.53125 174.0625 57.171875 174.636719 57.507812 C 174.730469 57.5625 174.847656 57.609375 174.96875 57.636719 C 175.046875 57.652344 175.125 57.660156 175.199219 57.652344 C 175.308594 57.640625 175.40625 57.605469 175.488281 57.527344 C 176.128906 56.910156 175.519531 55.746094 176.171875 55.070312 C 176.582031 54.648438 177.28125 54.550781 177.808594 54.789062 C 177.925781 54.839844 178.328125 55.222656 178.449219 55.179688 C 178.558594 55.144531 178.644531 54.882812 178.703125 54.792969 C 178.890625 54.492188 179.101562 54.199219 179.359375 53.949219 C 180.363281 52.992188 181.878906 52.671875 183.199219 53.078125 C 184.46875 53.46875 185.378906 54.558594 185.457031 55.902344 C 185.472656 56.21875 185.429688 56.53125 185.363281 56.839844 C 185.347656 56.902344 185.242188 57.113281 185.277344 57.175781 C 185.296875 57.210938 185.613281 57.101562 185.648438 57.09375 C 185.871094 57.050781 186.09375 57.03125 186.316406 57.050781 C 186.992188 57.109375 187.535156 57.523438 187.851562 58.117188 C 188.257812 58.871094 188.144531 59.820312 187.710938 60.535156 C 187.582031 60.746094 187.074219 61.191406 187.0625 61.4375 C 187.054688 61.511719 187.738281 61.734375 187.816406 61.785156 C 188.296875 62.074219 188.574219 62.628906 188.5 63.1875 C 188.441406 63.628906 188.203125 63.992188 187.871094 64.277344 C 187.804688 64.332031 187.363281 64.574219 187.378906 64.675781 C 187.390625 64.75 187.792969 64.710938 187.847656 64.714844 C 188.152344 64.738281 188.546875 64.921875 188.820312 65.0625 C 189.773438 65.550781 190.660156 67.535156 190.210938 69.003906 C 189.933594 69.914062 188.941406 68.992188 188.101562 69.292969 C 186.695312 69.800781 185.453125 69.691406 184.1875 69.203125 C 184.070312 69.3125 183.945312 69.414062 183.8125 69.488281 C 183.570312 69.621094 183.285156 69.679688 183.011719 69.695312 C 182.992188 69.695312 182.972656 69.695312 182.949219 69.691406 C 182.828125 69.679688 182.640625 69.632812 182.5625 69.703125 C 182.117188 70.089844 182.03125 70.613281 181.433594 70.933594 C 181.113281 71.101562 180.757812 71.21875 180.394531 71.222656 C 180.214844 71.226562 179.917969 71.097656 179.75 71.183594 C 179.484375 71.324219 179.277344 71.769531 179.078125 71.992188 C 178.699219 72.425781 178.15625 72.734375 177.582031 72.820312 C 176.421875 72.992188 175.449219 72.285156 174.316406 72.214844 C 174.234375 72.207031 174.136719 72.203125 174.027344 72.199219 C 173.90625 72.390625 173.761719 72.574219 173.59375 72.738281 Z M 173.59375 72.738281 " fill-opacity="1" fill-rule="evenodd"/><path fill="#ffffff" d="M 173.59375 72.738281 C 173.570312 72.761719 173.542969 72.785156 173.519531 72.804688 C 172.277344 73.925781 170.410156 74.273438 168.980469 73.328125 C 168.679688 73.132812 168.414062 72.894531 168.191406 72.613281 C 168.054688 72.4375 167.949219 72.15625 167.734375 72.058594 C 167.425781 71.921875 166.976562 72.160156 166.667969 72.191406 C 166.113281 72.246094 165.484375 72.121094 164.976562 71.898438 C 164.136719 71.53125 163.695312 70.785156 163.714844 69.875 C 163.71875 69.632812 163.945312 69.097656 163.84375 68.886719 C 163.765625 68.722656 163.488281 68.644531 163.351562 68.535156 C 163.007812 68.265625 162.796875 67.941406 162.75 67.5 C 162.671875 66.753906 162.941406 65.835938 163.761719 65.644531 C 163.859375 65.621094 164.558594 65.722656 164.582031 65.695312 C 164.621094 65.648438 164.472656 65.3125 164.460938 65.25 C 164.402344 64.902344 164.425781 64.496094 164.523438 64.15625 C 164.621094 63.828125 164.855469 63.535156 165.121094 63.324219 C 165.226562 63.238281 165.507812 63.160156 165.546875 63.019531 C 165.585938 62.890625 165.402344 62.761719 165.328125 62.6875 C 165.085938 62.441406 164.867188 62.160156 164.707031 61.859375 C 164.628906 61.714844 164.558594 61.5625 164.503906 61.410156 C 164.132812 60.34375 164.335938 59.074219 165.214844 58.328125 C 165.613281 57.988281 166.078125 57.777344 166.589844 57.667969 C 166.835938 57.617188 167.171875 57.648438 167.394531 57.519531 C 167.660156 57.367188 167.773438 56.8125 167.945312 56.5625 C 168.105469 56.328125 168.300781 56.113281 168.523438 55.929688 C 168.992188 55.546875 169.574219 55.3125 170.191406 55.375 C 170.972656 55.449219 171.695312 55.914062 172.210938 56.492188 C 172.453125 56.441406 172.699219 56.425781 172.941406 56.453125 C 173.648438 56.53125 174.0625 57.171875 174.636719 57.507812 C 174.730469 57.5625 174.847656 57.609375 174.96875 57.636719 C 175.046875 57.652344 175.125 57.660156 175.199219 57.652344 C 175.308594 57.640625 175.40625 57.605469 175.488281 57.527344 C 176.128906 56.910156 175.519531 55.746094 176.171875 55.070312 C 176.582031 54.648438 177.28125 54.550781 177.808594 54.789062 C 177.925781 54.839844 178.328125 55.222656 178.449219 55.179688 C 178.558594 55.144531 178.644531 54.882812 178.703125 54.792969 C 178.890625 54.492188 179.101562 54.199219 179.359375 53.949219 C 180.363281 52.992188 181.878906 52.671875 183.199219 53.078125 C 184.46875 53.46875 185.378906 54.558594 185.457031 55.902344 C 185.472656 56.21875 185.429688 56.53125 185.363281 56.839844 C 185.347656 56.902344 185.242188 57.113281 185.277344 57.175781 C 185.296875 57.210938 185.613281 57.101562 185.648438 57.09375 C 185.871094 57.050781 186.09375 57.03125 186.316406 57.050781 C 186.992188 57.109375 187.535156 57.523438 187.851562 58.117188 C 188.257812 58.871094 188.144531 59.820312 187.710938 60.535156 C 187.582031 60.746094 187.074219 61.191406 187.0625 61.4375 C 187.054688 61.511719 187.738281 61.734375 187.816406 61.785156 C 188.296875 62.074219 188.574219 62.628906 188.5 63.1875 C 188.441406 63.628906 188.203125 63.992188 187.871094 64.277344 C 187.804688 64.332031 187.363281 64.574219 187.378906 64.675781 C 187.390625 64.75 187.792969 64.710938 187.847656 64.714844 C 188.152344 64.738281 188.546875 64.921875 188.820312 65.0625 C 189.773438 65.550781 190.660156 67.535156 190.210938 69.003906 C 189.933594 69.914062 188.941406 68.992188 188.101562 69.292969 C 186.695312 69.800781 185.453125 69.691406 184.1875 69.203125 C 184.070312 69.3125 183.945312 69.414062 183.8125 69.488281 C 183.570312 69.621094 183.285156 69.679688 183.011719 69.695312 C 182.992188 69.695312 182.972656 69.695312 182.949219 69.691406 C 182.828125 69.679688 182.640625 69.632812 182.5625 69.703125 C 182.117188 70.089844 182.03125 70.613281 181.433594 70.933594 C 181.113281 71.101562 180.757812 71.21875 180.394531 71.222656 C 180.214844 71.226562 179.917969 71.097656 179.75 71.183594 C 179.484375 71.324219 179.277344 71.769531 179.078125 71.992188 C 178.699219 72.425781 178.15625 72.734375 177.582031 72.820312 C 176.421875 72.992188 175.449219 72.285156 174.316406 72.214844 C 174.234375 72.207031 174.136719 72.203125 174.027344 72.199219 C 173.90625 72.390625 173.761719 72.574219 173.59375 72.738281 Z M 173.59375 72.738281 " fill-opacity="0.5" fill-rule="evenodd"/></g></g><g clip-path="url(#ff55b44e99)"><g clip-path="url(#b8a85bacb7)"><path fill="#5b341c" d="M 174.964844 57.636719 C 175.574219 58.035156 176.335938 58.316406 176.929688 58.347656 C 178.226562 58.421875 178.90625 59.398438 178.90625 59.398438 C 180.355469 58.972656 181.242188 59.871094 181.242188 59.871094 C 181.242188 59.871094 181.808594 59.03125 182.699219 59.066406 C 183.589844 59.097656 184.3125 59.527344 183.175781 59.421875 C 182.039062 59.316406 181.269531 60.503906 181.269531 60.503906 C 180.261719 59.359375 178.886719 59.960938 178.886719 59.960938 C 177.917969 58.859375 176.792969 58.765625 175.980469 58.375 C 175.136719 57.964844 174.632812 57.507812 174.632812 57.507812 C 174.726562 57.5625 174.84375 57.609375 174.964844 57.636719 Z M 174.027344 72.195312 C 173.90625 72.390625 173.761719 72.574219 173.59375 72.738281 C 172.980469 72.75 172.273438 72.609375 171.769531 72.164062 C 171.019531 71.503906 171.011719 70.714844 171.011719 70.714844 C 171.011719 70.714844 170.191406 70.738281 169.671875 69.859375 C 169.152344 68.984375 169.558594 68.386719 169.558594 68.386719 C 169.4375 70.023438 171.417969 70.257812 171.417969 70.257812 C 171.476562 70.8125 171.707031 71.609375 172.621094 71.949219 C 173.535156 72.292969 174.027344 72.195312 174.027344 72.195312 Z M 182.945312 69.6875 C 182.824219 69.675781 182.636719 69.628906 182.558594 69.699219 C 182.558594 69.699219 182.703125 69.070312 183.113281 68.738281 C 183.523438 68.40625 184.328125 68.914062 185.605469 67.949219 C 185.605469 67.949219 185.5 68.363281 185.050781 68.621094 C 184.597656 68.878906 183.496094 68.769531 183.230469 69.101562 C 183.105469 69.25 183.042969 69.457031 182.945312 69.6875 Z M 182.945312 69.6875 " fill-opacity="0.453" fill-rule="evenodd"/></g></g><g clip-path="url(#90e45837ca)"><g clip-path="url(#777adcb870)"><path fill="#ffffff" d="M 169.660156 67.46875 C 169.496094 67.441406 169.5 66.003906 170.21875 65.121094 C 170.480469 64.796875 170.855469 64.558594 171.253906 64.445312 C 171.390625 64.40625 171.820312 64.476562 171.910156 64.363281 C 172.054688 64.179688 171.984375 63.671875 172.042969 63.441406 C 172.238281 62.71875 172.773438 62.019531 173.515625 61.828125 C 174.058594 61.6875 174.644531 61.824219 175.089844 62.160156 C 175.242188 62.273438 175.398438 62.570312 175.574219 62.628906 C 175.734375 62.675781 176.058594 62.457031 176.222656 62.429688 C 176.597656 62.375 177.023438 62.433594 177.375 62.558594 C 177.617188 62.644531 177.808594 62.789062 177.964844 62.992188 C 177.980469 63.011719 178.121094 63.257812 178.136719 63.253906 C 178.214844 63.25 178.597656 62.644531 178.679688 62.566406 C 179.117188 62.148438 179.6875 61.824219 180.296875 61.78125 C 181.007812 61.734375 181.683594 62.121094 182.117188 62.671875 C 182.171875 62.742188 182.492188 63.144531 182.425781 63.25 C 182.367188 63.339844 182.035156 63.207031 181.953125 63.195312 C 181.597656 63.148438 181.179688 63.195312 180.863281 63.382812 C 180.496094 63.601562 180.226562 64.039062 180.070312 64.425781 C 179.996094 64.601562 179.972656 64.917969 179.820312 65.050781 C 179.675781 65.175781 179.417969 65.011719 179.265625 64.976562 C 178.949219 64.902344 178.625 64.917969 178.308594 64.96875 C 177.929688 65.027344 177.570312 65.132812 177.238281 65.320312 C 177.089844 65.40625 176.855469 65.652344 176.675781 65.636719 C 176.441406 65.621094 176.179688 65.234375 176.011719 65.09375 C 175.757812 64.875 174.792969 64.335938 173.941406 64.726562 C 173.046875 65.136719 173.132812 66.230469 173.027344 66.328125 C 172.660156 66.65625 172.359375 67.089844 172.164062 67.539062 C 172.132812 67.609375 172.027344 68.070312 171.945312 68.089844 C 171.859375 68.109375 171.46875 67.769531 171.378906 67.722656 C 170.886719 67.480469 170.15625 67.550781 169.660156 67.46875 Z M 168.519531 55.929688 C 168.820312 56.007812 169.082031 56.121094 169.292969 56.265625 C 169.761719 56.59375 169.964844 57.707031 170.484375 57.824219 C 170.996094 57.9375 171.632812 57.5625 172.183594 57.597656 C 172.898438 57.648438 173.492188 58.105469 173.984375 58.589844 C 174.015625 58.621094 174.421875 58.980469 174.410156 59.011719 C 174.398438 59.03125 174.019531 59.007812 173.980469 59.011719 C 173.671875 59.050781 173.382812 59.164062 173.144531 59.367188 C 172.847656 59.625 172.628906 59.960938 172.5 60.328125 C 172.457031 60.460938 172.4375 60.855469 172.324219 60.9375 C 172.242188 60.996094 171.945312 60.726562 171.882812 60.6875 C 171.496094 60.429688 171.054688 60.238281 170.609375 60.117188 C 170.132812 59.988281 169.652344 60 169.191406 60.171875 C 169 60.242188 168.597656 60.582031 168.382812 60.542969 C 168.175781 60.5 167.996094 60.136719 167.851562 60 C 167.503906 59.660156 167 59.394531 166.503906 59.402344 C 165.449219 59.417969 164.886719 60.570312 164.5 61.40625 C 164.128906 60.34375 164.332031 59.074219 165.207031 58.328125 C 165.609375 57.988281 166.074219 57.777344 166.585938 57.667969 C 166.828125 57.613281 167.167969 57.648438 167.386719 57.519531 C 167.652344 57.367188 167.769531 56.8125 167.9375 56.5625 C 168.101562 56.328125 168.296875 56.113281 168.519531 55.929688 Z M 168.519531 55.929688 " fill-opacity="0.299" fill-rule="evenodd"/></g></g><g clip-path="url(#9a54d755ac)"><g clip-path="url(#1958e04b50)"><path fill="#955832" d="M 202.324219 106.605469 C 202.085938 106.324219 201.875 106.097656 201.773438 105.992188 C 199.847656 104.039062 198.441406 101.296875 196.917969 99.003906 C 194.632812 95.566406 191.804688 93 189.460938 89.605469 C 188.582031 88.335938 187.917969 86.914062 187.003906 85.667969 C 184.746094 82.574219 181.820312 80.585938 178.015625 80.105469 C 176.304688 79.890625 173.539062 79.179688 171.890625 80.046875 C 170.242188 80.914062 163.636719 92.222656 163.535156 92.375 C 163.324219 92.6875 163.101562 92.992188 162.871094 93.292969 C 162.160156 94.226562 161.300781 95.574219 160.546875 96.46875 C 159.28125 97.964844 157.984375 99.523438 156.6875 101.074219 C 155.414062 102.601562 154.128906 104.121094 152.867188 105.574219 C 151.933594 106.648438 150.539062 107.265625 151.433594 108.085938 C 153.203125 109.707031 156.773438 109.457031 159.261719 110.253906 C 160.613281 110.6875 162.054688 111.464844 163.472656 111.59375 C 165.449219 111.769531 167.425781 111.335938 169.414062 111.574219 C 170.472656 111.699219 170.105469 112.261719 170.875 112.785156 C 171.308594 113.082031 172.410156 113.292969 172.917969 113.339844 C 177.546875 113.753906 182.011719 112.808594 186.566406 112.292969 C 187.9375 112.136719 189.328125 112.25 190.703125 112.167969 C 193.914062 111.976562 196.886719 111.347656 199.867188 110.230469 C 200.847656 109.859375 202.917969 109.5625 203.589844 108.667969 C 203.785156 108.402344 202.949219 107.324219 202.324219 106.605469 Z M 202.324219 106.605469 " fill-opacity="1" fill-rule="evenodd"/></g></g><g clip-path="url(#07a50e1754)"><g clip-path="url(#b07346cc22)"><path fill="#5b341c" d="M 197.929688 110.886719 C 197.214844 109.957031 196.484375 109.03125 195.765625 108.101562 C 193.144531 104.695312 191.21875 100.769531 189.105469 97.035156 C 188.316406 95.640625 187.640625 94.164062 187.15625 92.636719 C 187.109375 92.492188 186.65625 91.339844 186.859375 91.230469 C 187.152344 91.070312 188.535156 92.789062 188.699219 92.972656 C 190.460938 94.910156 191.976562 97.082031 193.855469 98.910156 C 194.816406 99.84375 195.957031 100.179688 197.015625 100.925781 C 197.804688 101.480469 198.527344 102.109375 199.261719 102.726562 C 200.023438 103.90625 200.835938 105.039062 201.773438 105.992188 C 201.875 106.09375 202.085938 106.324219 202.324219 106.601562 C 202.949219 107.324219 203.785156 108.398438 203.585938 108.664062 C 202.917969 109.558594 200.84375 109.859375 199.863281 110.226562 C 199.21875 110.472656 198.574219 110.691406 197.929688 110.886719 Z M 185.4375 98.28125 C 185.429688 98.257812 185.425781 98.242188 185.425781 98.242188 C 185.429688 98.246094 185.4375 98.261719 185.4375 98.28125 Z M 183.566406 112.675781 C 183.574219 112.601562 183.582031 112.539062 183.589844 112.492188 C 183.777344 110.746094 183.710938 108.902344 184.082031 107.179688 C 184.257812 106.367188 184.828125 105.730469 185.050781 104.9375 C 185.347656 103.867188 185.304688 102.625 185.332031 101.527344 C 185.355469 100.667969 185.359375 99.8125 185.394531 98.957031 C 185.394531 98.910156 185.460938 98.421875 185.4375 98.28125 C 185.601562 98.6875 187.023438 102.273438 187.21875 103.257812 C 187.8125 106.28125 188.769531 109.226562 189.554688 112.199219 C 188.558594 112.207031 187.558594 112.175781 186.566406 112.289062 C 185.5625 112.40625 184.5625 112.539062 183.566406 112.675781 Z M 172.359375 113.257812 C 171.941406 110.910156 171.640625 108.554688 171.640625 108.554688 C 171.570312 108.496094 171.742188 107.886719 171.753906 107.816406 C 171.886719 107.101562 172.019531 106.386719 172.152344 105.671875 C 172.59375 103.296875 173.046875 100.914062 173.53125 98.546875 C 173.640625 98.011719 173.703125 96.617188 174.230469 96.296875 C 174.511719 96.121094 174.65625 96.941406 174.6875 97.078125 C 174.875 97.859375 174.976562 98.65625 175.195312 99.425781 C 175.386719 100.097656 175.675781 100.445312 176.082031 99.742188 C 176.546875 98.933594 176.703125 97.9375 176.929688 97.042969 C 177.292969 95.609375 177.707031 94.246094 177.957031 92.785156 C 178.109375 91.878906 178.214844 90.941406 178.476562 90.0625 C 178.503906 89.972656 178.710938 89.300781 178.910156 89.460938 C 179.289062 89.761719 179.246094 91.039062 179.304688 91.476562 C 179.53125 93.257812 179.570312 94.476562 179.695312 96.070312 C 180.054688 100.621094 180.503906 105.078125 180.742188 109.632812 C 180.796875 110.726562 180.929688 111.871094 181.023438 113.019531 C 178.34375 113.355469 175.660156 113.585938 172.917969 113.339844 C 172.769531 113.328125 172.574219 113.296875 172.359375 113.257812 Z M 152.96875 108.964844 C 153.820312 106.222656 154.785156 103.695312 154.785156 103.695312 C 154.820312 103.734375 155.382812 103.796875 155.464844 103.820312 C 156.242188 104.035156 157.273438 104.175781 158.011719 103.792969 C 159.027344 103.269531 159.691406 102.183594 160.660156 101.570312 C 161.21875 101.210938 161.847656 101.609375 162.445312 101.277344 C 163.679688 100.597656 164.53125 99.445312 165.628906 98.582031 C 166.417969 97.964844 167.171875 97.21875 168.050781 96.726562 C 168.128906 96.679688 168.777344 96.214844 168.867188 96.296875 C 169.003906 96.421875 168.382812 97.40625 168.339844 97.507812 C 167.714844 98.910156 167.15625 100.339844 166.523438 101.738281 C 165.066406 104.972656 163.628906 108.378906 161.105469 110.945312 C 160.480469 110.707031 159.863281 110.445312 159.261719 110.253906 C 157.367188 109.644531 154.847656 109.644531 152.96875 108.964844 Z M 152.96875 108.964844 " fill-opacity="0.498" fill-rule="evenodd"/></g></g><g clip-path="url(#385b682fd2)"><g clip-path="url(#0f0a0126d8)"><path fill="#f65525" d="M 178.316406 78.574219 C 177.632812 78.320312 176.566406 77.378906 175.921875 77.105469 C 174.320312 76.417969 172.925781 77 171.917969 77.933594 C 170.410156 79.332031 169.484375 81.378906 168.644531 83.171875 C 167.835938 84.90625 166.8125 86.496094 165.832031 88.132812 C 165.269531 89.078125 164.664062 90.074219 164.066406 91 C 163.421875 92.003906 162.265625 93.402344 161.933594 94.207031 C 161.828125 94.460938 161.648438 94.972656 161.996094 95.15625 C 162.492188 95.417969 163.132812 95 163.339844 94.851562 C 163.960938 94.402344 164.835938 93.675781 165.519531 92.871094 C 167.015625 91.109375 168.28125 88.9375 169.363281 86.890625 C 169.871094 85.929688 170.1875 84.921875 170.8125 84.011719 C 171.277344 83.34375 171.847656 82.707031 172.5 82.222656 C 172.742188 82.042969 173.074219 81.800781 173.390625 81.914062 C 173.902344 82.09375 174.339844 82.71875 174.570312 83.179688 C 175.632812 85.335938 174.078125 87.144531 174.003906 89.253906 C 173.980469 89.949219 173.972656 90.351562 174.316406 90.941406 C 174.761719 91.703125 175.160156 91.800781 175.597656 91.289062 C 175.988281 90.832031 176.074219 90.285156 176.164062 89.695312 C 176.289062 88.863281 176.09375 88.382812 176.226562 87.554688 C 176.324219 86.9375 176.757812 86.003906 176.839844 85.382812 C 176.96875 84.40625 176.6875 83.394531 177.996094 83.199219 C 178.167969 83.175781 178.34375 83.164062 178.519531 83.1875 C 178.753906 83.222656 178.984375 83.308594 179.195312 83.417969 C 180.351562 84.003906 180.382812 85.878906 180.601562 86.980469 C 180.824219 88.117188 181.464844 88.992188 181.792969 90.082031 C 182.027344 90.847656 181.910156 91.652344 182.09375 92.421875 C 182.253906 93.082031 182.726562 93.671875 183.089844 94.234375 C 183.613281 95.050781 184.175781 95.8125 184.90625 96.449219 C 185.117188 96.636719 185.671875 97.355469 185.980469 97.226562 C 186.613281 96.953125 186.226562 95.195312 186.0625 94.730469 C 185.796875 93.957031 185.074219 93.449219 184.785156 92.664062 C 184.222656 91.148438 184.378906 89.722656 184.277344 88.15625 C 184.238281 87.527344 184 86.902344 184.011719 86.273438 C 184.015625 86.027344 184.09375 85.722656 184.359375 85.644531 C 185.042969 85.449219 185.597656 86.59375 185.84375 87.035156 C 186.148438 87.578125 186.347656 88.273438 186.75 88.75 C 187.164062 89.242188 187.59375 89.652344 188.015625 90.152344 C 188.503906 90.722656 188.84375 91.457031 189.386719 91.976562 C 189.824219 92.394531 190.4375 92.605469 190.976562 92.847656 C 191.121094 92.910156 191.46875 93.117188 191.59375 92.941406 C 191.882812 92.546875 191.214844 91.675781 191.019531 91.375 C 190.574219 90.675781 190.253906 89.902344 189.796875 89.214844 C 189.429688 88.660156 188.914062 88.21875 188.53125 87.671875 C 187.515625 86.210938 187.199219 84.5625 186.480469 82.964844 C 186.121094 82.164062 185.632812 81.316406 185.085938 80.632812 C 184.335938 79.691406 183.578125 79.195312 182.664062 78.921875 C 181.113281 78.453125 179.785156 79.128906 178.316406 78.574219 Z M 178.316406 78.574219 " fill-opacity="1" fill-rule="evenodd"/></g></g><g clip-path="url(#db888c5035)"><g clip-path="url(#c1fd34aaf8)"><path fill="#5b341c" d="M 184.09375 85.878906 C 184.09375 85.832031 184.09375 85.789062 184.09375 85.742188 C 184.09375 85.488281 184.101562 84.953125 184.449219 84.925781 C 184.941406 84.886719 185.359375 85.507812 185.617188 85.84375 C 186.234375 86.640625 186.652344 87.800781 186.851562 88.867188 C 186.816406 88.828125 186.785156 88.789062 186.75 88.75 C 186.347656 88.269531 186.148438 87.574219 185.84375 87.03125 C 185.597656 86.589844 185.042969 85.445312 184.359375 85.644531 C 184.234375 85.679688 184.148438 85.769531 184.09375 85.878906 Z M 177.777344 83.246094 C 177.800781 83.207031 177.820312 83.171875 177.847656 83.136719 C 178.332031 82.425781 179.230469 82.726562 179.789062 83.179688 C 181.296875 84.414062 181.175781 86.820312 181.203125 88.640625 C 180.957031 88.113281 180.722656 87.582031 180.601562 86.980469 C 180.382812 85.878906 180.351562 84.003906 179.199219 83.417969 C 178.984375 83.308594 178.757812 83.222656 178.519531 83.1875 C 178.34375 83.164062 178.171875 83.175781 177.996094 83.199219 C 177.917969 83.210938 177.84375 83.226562 177.777344 83.246094 Z M 166.597656 91.484375 C 166.753906 91.152344 166.929688 90.824219 167.105469 90.503906 C 167.75 89.34375 168.582031 88.261719 169.09375 87.03125 C 169.394531 86.3125 169.527344 85.542969 169.777344 84.808594 C 170.214844 83.539062 171.078125 82.144531 172.34375 81.574219 C 172.992188 81.277344 173.375 81.582031 173.648438 82.042969 C 173.566406 81.988281 173.476562 81.945312 173.390625 81.914062 C 173.074219 81.800781 172.742188 82.042969 172.5 82.222656 C 171.847656 82.707031 171.277344 83.34375 170.8125 84.011719 C 170.1875 84.921875 169.871094 85.929688 169.363281 86.890625 C 168.550781 88.425781 167.636719 90.03125 166.597656 91.484375 Z M 166.597656 91.484375 " fill-opacity="0.656" fill-rule="evenodd"/></g></g><g clip-path="url(#6c158f8d00)"><g clip-path="url(#5730371db4)"><path fill="#ff9426" d="M 183.414062 90.871094 C 183.679688 91.582031 184.210938 92.363281 184.65625 92.976562 C 185.039062 93.5 185.484375 93.933594 185.605469 94.59375 C 185.675781 94.957031 185.695312 95.332031 185.65625 95.703125 C 185.644531 95.804688 185.628906 96.035156 185.507812 96.078125 C 185.355469 96.132812 185.238281 95.863281 185.191406 95.769531 C 184.980469 95.347656 184.867188 94.882812 184.707031 94.441406 C 184.507812 93.898438 184.304688 93.386719 183.980469 92.902344 C 183.644531 92.394531 183.191406 91.933594 182.976562 91.351562 C 182.753906 90.75 182.683594 88.128906 182.976562 88.070312 C 183.539062 87.957031 182.976562 89.695312 183.414062 90.871094 Z M 186.597656 85.871094 C 186.902344 85.78125 187.144531 86.410156 187.257812 86.59375 C 187.792969 87.464844 188.226562 88.367188 188.851562 89.1875 C 188.964844 89.339844 189.515625 89.980469 189.296875 90.203125 C 189.117188 90.382812 188.582031 89.679688 188.492188 89.578125 C 187.914062 88.929688 187.445312 88.296875 187.164062 87.460938 C 187.132812 87.378906 186.40625 85.925781 186.597656 85.871094 Z M 175.726562 87.4375 C 175.710938 87.539062 175.746094 88.359375 175.65625 88.992188 C 175.574219 89.570312 175.371094 89.953125 175.285156 90.140625 C 175.226562 90.269531 175.050781 90.539062 174.921875 90.320312 C 174.726562 89.988281 174.859375 89.457031 174.9375 89.113281 C 175.046875 88.644531 175.273438 88.214844 175.367188 87.742188 C 175.492188 87.132812 175.480469 86.496094 175.605469 85.878906 C 175.746094 85.15625 175.648438 84.433594 175.765625 83.710938 C 175.789062 83.578125 175.835938 83.09375 176.042969 83.089844 C 176.132812 83.089844 176.152344 83.238281 176.160156 83.300781 C 176.199219 83.574219 176.183594 83.859375 176.175781 84.128906 C 176.144531 85.261719 175.859375 86.320312 175.726562 87.4375 Z M 177.242188 77.941406 C 176.980469 77.890625 176.714844 77.800781 176.476562 77.730469 C 176.003906 77.589844 175.566406 77.378906 175.070312 77.324219 C 173.632812 77.171875 172.582031 77.972656 171.753906 79.058594 C 171.230469 79.742188 170.976562 80.535156 170.585938 81.289062 C 170.144531 82.148438 169.429688 82.800781 169.035156 83.699219 C 168.484375 84.957031 167.890625 86.085938 167.382812 87.363281 C 167.007812 88.308594 166.410156 89.207031 165.839844 90.050781 C 165.238281 90.945312 164.8125 92.152344 163.796875 92.59375 C 163.558594 92.699219 163.140625 92.828125 162.832031 92.753906 C 163.253906 92.15625 163.730469 91.523438 164.066406 91.003906 C 164.660156 90.078125 165.265625 89.078125 165.832031 88.132812 C 166.808594 86.5 167.832031 84.90625 168.644531 83.171875 C 169.480469 81.378906 170.410156 79.332031 171.914062 77.933594 C 172.921875 77.003906 174.316406 76.417969 175.921875 77.105469 C 176.277344 77.257812 176.765625 77.613281 177.242188 77.941406 Z M 183.726562 79.386719 C 183.261719 79.304688 182.8125 79.132812 182.34375 79.058594 C 181.550781 78.933594 180.761719 79.382812 179.976562 79.402344 C 178.980469 79.421875 178.347656 78.859375 177.671875 78.230469 C 177.90625 78.382812 178.125 78.503906 178.316406 78.578125 C 179.785156 79.128906 181.113281 78.457031 182.667969 78.921875 C 183.042969 79.03125 183.394531 79.183594 183.726562 79.386719 Z M 183.726562 79.386719 " fill-opacity="1" fill-rule="evenodd"/></g></g><g clip-path="url(#93cdbf27ae)"><g clip-path="url(#20623f77ab)"><path fill="#ff9426" d="M 187.429688 85.453125 C 186.820312 85.570312 186.128906 85.277344 185.675781 84.640625 C 185.449219 84.320312 185.15625 83.347656 184.738281 83.289062 C 184.464844 83.25 184.261719 83.636719 184.125 83.839844 C 183.835938 84.261719 183.253906 85.273438 182.679688 85.164062 C 182.308594 85.089844 181.996094 84.671875 181.808594 84.335938 C 181.382812 83.566406 181.222656 82.335938 180.582031 81.757812 C 179.746094 81.003906 178.382812 81.832031 177.40625 81.621094 C 176.75 81.476562 176.144531 81.066406 175.671875 80.539062 C 175.300781 80.125 174.984375 79.613281 174.53125 79.304688 C 174.136719 79.035156 173.59375 79.210938 173.167969 79.28125 C 172.988281 79.3125 172.742188 79.3125 172.816406 79.023438 C 173.015625 78.265625 174.128906 78.070312 174.683594 78.238281 C 174.953125 78.316406 175.183594 78.460938 175.394531 78.640625 C 175.933594 79.101562 176.328125 79.796875 176.878906 80.25 C 177.234375 80.542969 177.734375 80.671875 178.171875 80.707031 C 178.636719 80.742188 179.125 80.664062 179.570312 80.507812 C 179.722656 80.453125 179.882812 80.390625 180.042969 80.332031 C 180.21875 80.269531 180.394531 80.214844 180.570312 80.1875 C 180.84375 80.148438 181.117188 80.171875 181.378906 80.347656 C 182.328125 80.96875 182.328125 82.648438 183.355469 83.160156 C 184.234375 83.597656 184.09375 82 184.699219 81.9375 C 185.003906 81.90625 185.332031 82.496094 185.5 82.714844 C 185.84375 83.152344 186.210938 83.410156 186.710938 83.503906 C 186.761719 83.632812 186.8125 83.761719 186.859375 83.890625 C 187.058594 84.414062 187.234375 84.9375 187.429688 85.453125 Z M 187.429688 85.453125 " fill-opacity="0.5" fill-rule="evenodd"/></g></g><g clip-path="url(#b14ba1409f)"><g clip-path="url(#de69b73867)"><path fill="#ff9426" d="M 175.394531 78.640625 C 175.417969 78.609375 175.484375 78.605469 175.617188 78.636719 C 176.480469 78.847656 177.25 79.609375 177.929688 80.070312 C 178.25 80.289062 178.695312 80.378906 179.085938 80.40625 C 179.402344 80.425781 179.730469 80.398438 180.042969 80.332031 C 180.144531 80.3125 180.242188 80.289062 180.339844 80.257812 C 180.414062 80.238281 180.492188 80.214844 180.570312 80.1875 C 181.027344 80.046875 181.511719 79.898438 181.960938 80.140625 C 182.804688 80.597656 182.804688 81.832031 183.726562 82.207031 C 184.511719 82.527344 184.367188 81.550781 184.90625 81.507812 C 185.179688 81.484375 185.496094 81.722656 185.648438 81.882812 C 185.800781 82.046875 185.964844 82.175781 186.144531 82.269531 C 186.269531 82.5 186.378906 82.734375 186.484375 82.960938 C 186.566406 83.140625 186.640625 83.324219 186.714844 83.503906 C 186.765625 83.632812 186.8125 83.761719 186.863281 83.886719 C 186.46875 83.824219 186.085938 83.621094 185.804688 83.292969 C 185.601562 83.058594 185.335938 82.34375 184.964844 82.300781 C 184.71875 82.269531 184.535156 82.554688 184.414062 82.703125 C 184.15625 83.015625 183.636719 83.757812 183.125 83.675781 C 182.792969 83.625 182.511719 83.320312 182.34375 83.070312 C 181.960938 82.503906 181.816406 81.597656 181.246094 81.175781 C 180.496094 80.621094 179.277344 81.230469 178.40625 81.074219 C 177.816406 80.96875 177.273438 80.667969 176.851562 80.28125 C 176.519531 79.980469 176.230469 79.511719 175.84375 79.191406 C 175.609375 79.003906 175.328125 78.726562 175.394531 78.640625 Z M 175.394531 78.640625 " fill-opacity="1" fill-rule="evenodd"/></g></g><g clip-path="url(#f98ff75ef2)"><g clip-path="url(#4d554d9cb0)"><path fill="#5b341c" d="M 156.6875 101.074219 C 155.414062 102.597656 154.128906 104.121094 152.867188 105.574219 C 151.933594 106.644531 150.539062 107.265625 151.433594 108.082031 C 153.203125 109.707031 156.773438 109.453125 159.261719 110.25 C 160.613281 110.683594 162.054688 111.460938 163.472656 111.589844 C 165.449219 111.769531 167.425781 111.332031 169.414062 111.570312 C 170.472656 111.695312 170.105469 112.257812 170.875 112.78125 C 171.308594 113.078125 172.410156 113.292969 172.917969 113.335938 C 177.546875 113.753906 182.011719 112.808594 186.566406 112.289062 C 187.9375 112.132812 189.328125 112.25 190.703125 112.167969 C 193.914062 111.976562 196.886719 111.347656 199.867188 110.226562 C 200.847656 109.859375 202.917969 109.5625 203.589844 108.664062 C 203.785156 108.398438 202.949219 107.324219 202.328125 106.601562 C 201.878906 106.636719 201.371094 106.527344 200.957031 106.425781 C 199.921875 106.175781 199.152344 105.164062 198.160156 105.015625 C 197.328125 104.890625 196.542969 105.523438 195.722656 105.167969 C 195.175781 104.933594 194.816406 104.253906 194.5 103.785156 C 193.832031 102.796875 193.171875 101.78125 192.390625 100.878906 C 192.074219 100.515625 191.738281 100.148438 191.351562 99.863281 C 191.285156 99.8125 191.015625 99.597656 190.9375 99.738281 C 190.664062 100.222656 191.582031 101.449219 191.800781 101.828125 C 192.742188 103.46875 193.152344 105.152344 193.78125 106.910156 C 193.90625 107.257812 194.511719 108.34375 194.234375 108.714844 C 194.082031 108.910156 193.691406 108.75 193.523438 108.671875 C 192.921875 108.390625 192.445312 107.84375 192.042969 107.328125 C 191.46875 106.597656 190.996094 105.742188 190.324219 105.09375 C 189.808594 104.597656 189.058594 104.386719 188.621094 103.808594 C 188.007812 102.992188 187.785156 101.828125 187.335938 100.917969 C 186.925781 100.097656 186.445312 99.320312 185.9375 98.554688 C 185.890625 98.488281 185.472656 97.785156 185.347656 97.875 C 185.1875 97.988281 185.230469 98.488281 185.230469 98.640625 C 185.230469 99.5 185.425781 100.285156 185.671875 101.105469 C 185.859375 101.726562 186.042969 102.347656 186.210938 102.976562 C 186.472656 103.9375 186.976562 105.152344 186.945312 106.164062 C 186.929688 106.792969 186.625 107.386719 186.554688 108.015625 C 186.5 108.496094 186.652344 109.378906 186.320312 109.785156 C 186.054688 110.109375 185.363281 110.21875 184.988281 110.367188 C 184.582031 110.527344 184.136719 110.714844 183.691406 110.640625 C 180.980469 110.195312 181.230469 106.046875 180.992188 104.074219 C 180.914062 103.441406 180.804688 102.808594 180.695312 102.175781 C 180.550781 101.332031 180.429688 100.464844 180.183594 99.640625 C 180.15625 99.546875 179.972656 98.898438 179.785156 98.972656 C 179.632812 99.035156 179.617188 99.507812 179.597656 99.636719 C 179.488281 100.34375 179.488281 101.058594 179.425781 101.765625 C 179.234375 103.886719 178.964844 105.953125 178.617188 108.046875 C 178.503906 108.71875 178.625 109.871094 178.121094 110.40625 C 177.820312 110.730469 177.171875 110.496094 176.816406 110.398438 C 175.820312 110.125 174.757812 110.03125 174.40625 108.890625 C 173.898438 107.246094 173.863281 105.40625 173.480469 103.71875 C 173.445312 103.570312 173.246094 102.207031 173.007812 102.207031 C 172.867188 102.210938 172.78125 102.554688 172.75 102.644531 C 172.582031 103.136719 172.425781 103.632812 172.246094 104.121094 C 171.71875 105.554688 171.0625 106.933594 170.632812 108.398438 C 170.453125 109.019531 170.203125 109.886719 169.464844 110.011719 C 168.929688 110.101562 168.464844 109.691406 168.035156 109.441406 C 167.601562 109.1875 167.125 108.925781 166.882812 108.457031 C 166.59375 107.898438 166.746094 107.257812 166.796875 106.660156 C 166.929688 105.128906 167.375 103.648438 167.824219 102.1875 C 168.039062 101.492188 168.285156 100.808594 168.507812 100.117188 C 168.777344 99.28125 169.015625 98.433594 169.238281 97.585938 C 169.460938 96.726562 169.664062 95.855469 169.808594 94.976562 C 169.839844 94.789062 170 94.199219 169.785156 94.058594 C 169.488281 93.867188 168.890625 94.738281 168.765625 94.902344 C 167.867188 96.09375 167.183594 97.449219 166.164062 98.550781 C 165.304688 99.476562 164.386719 100.363281 163.664062 101.410156 C 162.488281 103.105469 161.359375 105.335938 159.609375 106.542969 C 158.519531 107.296875 156.261719 107.65625 154.960938 107.617188 C 153.917969 107.589844 154.425781 106.5 154.679688 105.890625 C 155.351562 104.285156 156.019531 102.679688 156.6875 101.074219 Z M 156.6875 101.074219 " fill-opacity="1" fill-rule="evenodd"/></g></g></svg>