<svg xmlns="http://www.w3.org/2000/svg" xmlns:xlink="http://www.w3.org/1999/xlink" width="1024" zoomAndPan="magnify" viewBox="0 0 768 576" height="768" preserveAspectRatio="xMidYMid meet" version="1.0"><defs><clipPath id="8c421668de"><path d="M 241 36 L 334 36 L 334 173.675781 L 241 173.675781 Z M 241 36 " clip-rule="nonzero"/></clipPath><clipPath id="9581f73b22"><path d="M 254.003906 47.90625 L 322 47.90625 L 322 115.898438 L 254.003906 115.898438 Z M 254.003906 47.90625 " clip-rule="nonzero"/></clipPath><clipPath id="54b9d7846f"><path d="M 288.003906 47.90625 C 269.226562 47.90625 254.003906 63.125 254.003906 81.902344 C 254.003906 100.679688 269.226562 115.898438 288.003906 115.898438 C 306.777344 115.898438 322 100.679688 322 81.902344 C 322 63.125 306.777344 47.90625 288.003906 47.90625 Z M 288.003906 47.90625 " clip-rule="nonzero"/></clipPath><clipPath id="03cfd21fef"><path d="M 254.003906 47.90625 L 321.996094 47.90625 L 321.996094 115.898438 L 254.003906 115.898438 Z M 254.003906 47.90625 " clip-rule="nonzero"/></clipPath><clipPath id="60f3eaec05"><path d="M 288 47.90625 C 269.226562 47.90625 254.003906 63.125 254.003906 81.902344 C 254.003906 100.675781 269.226562 115.898438 288 115.898438 C 306.777344 115.898438 321.996094 100.675781 321.996094 81.902344 C 321.996094 63.125 306.777344 47.90625 288 47.90625 Z M 288 47.90625 " clip-rule="nonzero"/></clipPath><clipPath id="b65900b621"><path d="M 259 60 L 309 60 L 309 85 L 259 85 Z M 259 60 " clip-rule="nonzero"/></clipPath><clipPath id="fa20adc9dc"><path d="M 255.46875 81.902344 C 255.46875 87.777344 257.804688 93.414062 261.957031 97.570312 C 266.113281 101.726562 271.75 104.0625 277.628906 104.0625 L 297.5 104.0625 C 303.378906 104.0625 309.011719 101.726562 313.167969 97.570312 C 317.324219 93.414062 319.660156 87.777344 319.660156 81.902344 C 319.660156 76.023438 317.324219 70.386719 313.167969 66.234375 C 309.011719 62.078125 303.378906 59.742188 297.5 59.742188 L 277.628906 59.742188 C 271.75 59.742188 266.113281 62.078125 261.957031 66.234375 C 257.804688 70.386719 255.46875 76.023438 255.46875 81.902344 Z M 255.46875 81.902344 " clip-rule="nonzero"/></clipPath><clipPath id="d74e73007d"><path d="M 255.46875 84 L 314 84 L 314 103.992188 L 255.46875 103.992188 Z M 255.46875 84 " clip-rule="nonzero"/></clipPath><clipPath id="583b80f75a"><path d="M 255.46875 81.902344 C 255.46875 87.777344 257.804688 93.414062 261.957031 97.570312 C 266.113281 101.726562 271.75 104.0625 277.628906 104.0625 L 297.5 104.0625 C 303.378906 104.0625 309.011719 101.726562 313.167969 97.570312 C 317.324219 93.414062 319.660156 87.777344 319.660156 81.902344 C 319.660156 76.023438 317.324219 70.386719 313.167969 66.234375 C 309.011719 62.078125 303.378906 59.742188 297.5 59.742188 L 277.628906 59.742188 C 271.75 59.742188 266.113281 62.078125 261.957031 66.234375 C 257.804688 70.386719 255.46875 76.023438 255.46875 81.902344 Z M 255.46875 81.902344 " clip-rule="nonzero"/></clipPath><clipPath id="58250239df"><path d="M 260 73 L 302 73 L 302 88 L 260 88 Z M 260 73 " clip-rule="nonzero"/></clipPath><clipPath id="327460ac1a"><path d="M 255.46875 81.902344 C 255.46875 87.777344 257.804688 93.414062 261.957031 97.570312 C 266.113281 101.726562 271.75 104.0625 277.628906 104.0625 L 297.5 104.0625 C 303.378906 104.0625 309.011719 101.726562 313.167969 97.570312 C 317.324219 93.414062 319.660156 87.777344 319.660156 81.902344 C 319.660156 76.023438 317.324219 70.386719 313.167969 66.234375 C 309.011719 62.078125 303.378906 59.742188 297.5 59.742188 L 277.628906 59.742188 C 271.75 59.742188 266.113281 62.078125 261.957031 66.234375 C 257.804688 70.386719 255.46875 76.023438 255.46875 81.902344 Z M 255.46875 81.902344 " clip-rule="nonzero"/></clipPath><clipPath id="10fdb5a7d2"><path d="M 261 75 L 296 75 L 296 89 L 261 89 Z M 261 75 " clip-rule="nonzero"/></clipPath><clipPath id="b084fd079f"><path d="M 255.46875 81.902344 C 255.46875 87.777344 257.804688 93.414062 261.957031 97.570312 C 266.113281 101.726562 271.75 104.0625 277.628906 104.0625 L 297.5 104.0625 C 303.378906 104.0625 309.011719 101.726562 313.167969 97.570312 C 317.324219 93.414062 319.660156 87.777344 319.660156 81.902344 C 319.660156 76.023438 317.324219 70.386719 313.167969 66.234375 C 309.011719 62.078125 303.378906 59.742188 297.5 59.742188 L 277.628906 59.742188 C 271.75 59.742188 266.113281 62.078125 261.957031 66.234375 C 257.804688 70.386719 255.46875 76.023438 255.46875 81.902344 Z M 255.46875 81.902344 " clip-rule="nonzero"/></clipPath><clipPath id="f40718448f"><path d="M 255.46875 87 L 306 87 L 306 100 L 255.46875 100 Z M 255.46875 87 " clip-rule="nonzero"/></clipPath><clipPath id="93e2d96713"><path d="M 255.46875 81.902344 C 255.46875 87.777344 257.804688 93.414062 261.957031 97.570312 C 266.113281 101.726562 271.75 104.0625 277.628906 104.0625 L 297.5 104.0625 C 303.378906 104.0625 309.011719 101.726562 313.167969 97.570312 C 317.324219 93.414062 319.660156 87.777344 319.660156 81.902344 C 319.660156 76.023438 317.324219 70.386719 313.167969 66.234375 C 309.011719 62.078125 303.378906 59.742188 297.5 59.742188 L 277.628906 59.742188 C 271.75 59.742188 266.113281 62.078125 261.957031 66.234375 C 257.804688 70.386719 255.46875 76.023438 255.46875 81.902344 Z M 255.46875 81.902344 " clip-rule="nonzero"/></clipPath><clipPath id="99a19fc75a"><path d="M 262 62 L 293 62 L 293 82 L 262 82 Z M 262 62 " clip-rule="nonzero"/></clipPath><clipPath id="3684f5498a"><path d="M 255.46875 81.902344 C 255.46875 87.777344 257.804688 93.414062 261.957031 97.570312 C 266.113281 101.726562 271.75 104.0625 277.628906 104.0625 L 297.5 104.0625 C 303.378906 104.0625 309.011719 101.726562 313.167969 97.570312 C 317.324219 93.414062 319.660156 87.777344 319.660156 81.902344 C 319.660156 76.023438 317.324219 70.386719 313.167969 66.234375 C 309.011719 62.078125 303.378906 59.742188 297.5 59.742188 L 277.628906 59.742188 C 271.75 59.742188 266.113281 62.078125 261.957031 66.234375 C 257.804688 70.386719 255.46875 76.023438 255.46875 81.902344 Z M 255.46875 81.902344 " clip-rule="nonzero"/></clipPath><clipPath id="37b6dd5f4d"><path d="M 260 89 L 294 89 L 294 102 L 260 102 Z M 260 89 " clip-rule="nonzero"/></clipPath><clipPath id="7656acef77"><path d="M 255.46875 81.902344 C 255.46875 87.777344 257.804688 93.414062 261.957031 97.570312 C 266.113281 101.726562 271.75 104.0625 277.628906 104.0625 L 297.5 104.0625 C 303.378906 104.0625 309.011719 101.726562 313.167969 97.570312 C 317.324219 93.414062 319.660156 87.777344 319.660156 81.902344 C 319.660156 76.023438 317.324219 70.386719 313.167969 66.234375 C 309.011719 62.078125 303.378906 59.742188 297.5 59.742188 L 277.628906 59.742188 C 271.75 59.742188 266.113281 62.078125 261.957031 66.234375 C 257.804688 70.386719 255.46875 76.023438 255.46875 81.902344 Z M 255.46875 81.902344 " clip-rule="nonzero"/></clipPath><clipPath id="0015efc4d3"><path d="M 297 64 L 311 64 L 311 84 L 297 84 Z M 297 64 " clip-rule="nonzero"/></clipPath><clipPath id="51ac1808fd"><path d="M 255.46875 81.902344 C 255.46875 87.777344 257.804688 93.414062 261.957031 97.570312 C 266.113281 101.726562 271.75 104.0625 277.628906 104.0625 L 297.5 104.0625 C 303.378906 104.0625 309.011719 101.726562 313.167969 97.570312 C 317.324219 93.414062 319.660156 87.777344 319.660156 81.902344 C 319.660156 76.023438 317.324219 70.386719 313.167969 66.234375 C 309.011719 62.078125 303.378906 59.742188 297.5 59.742188 L 277.628906 59.742188 C 271.75 59.742188 266.113281 62.078125 261.957031 66.234375 C 257.804688 70.386719 255.46875 76.023438 255.46875 81.902344 Z M 255.46875 81.902344 " clip-rule="nonzero"/></clipPath><clipPath id="f14641658d"><path d="M 294 83 L 319.96875 83 L 319.96875 101 L 294 101 Z M 294 83 " clip-rule="nonzero"/></clipPath><clipPath id="3a1cb14a9c"><path d="M 255.46875 81.902344 C 255.46875 87.777344 257.804688 93.414062 261.957031 97.570312 C 266.113281 101.726562 271.75 104.0625 277.628906 104.0625 L 297.5 104.0625 C 303.378906 104.0625 309.011719 101.726562 313.167969 97.570312 C 317.324219 93.414062 319.660156 87.777344 319.660156 81.902344 C 319.660156 76.023438 317.324219 70.386719 313.167969 66.234375 C 309.011719 62.078125 303.378906 59.742188 297.5 59.742188 L 277.628906 59.742188 C 271.75 59.742188 266.113281 62.078125 261.957031 66.234375 C 257.804688 70.386719 255.46875 76.023438 255.46875 81.902344 Z M 255.46875 81.902344 " clip-rule="nonzero"/></clipPath><clipPath id="138c080bf9"><path d="M 310 72 L 319.96875 72 L 319.96875 85 L 310 85 Z M 310 72 " clip-rule="nonzero"/></clipPath><clipPath id="02cd5c7891"><path d="M 255.46875 81.902344 C 255.46875 87.777344 257.804688 93.414062 261.957031 97.570312 C 266.113281 101.726562 271.75 104.0625 277.628906 104.0625 L 297.5 104.0625 C 303.378906 104.0625 309.011719 101.726562 313.167969 97.570312 C 317.324219 93.414062 319.660156 87.777344 319.660156 81.902344 C 319.660156 76.023438 317.324219 70.386719 313.167969 66.234375 C 309.011719 62.078125 303.378906 59.742188 297.5 59.742188 L 277.628906 59.742188 C 271.75 59.742188 266.113281 62.078125 261.957031 66.234375 C 257.804688 70.386719 255.46875 76.023438 255.46875 81.902344 Z M 255.46875 81.902344 " clip-rule="nonzero"/></clipPath><clipPath id="0a8f03b37e"><path d="M 255.46875 59.742188 L 290 59.742188 L 290 83 L 255.46875 83 Z M 255.46875 59.742188 " clip-rule="nonzero"/></clipPath><clipPath id="d785becadf"><path d="M 255.46875 81.902344 C 255.46875 87.777344 257.804688 93.414062 261.957031 97.570312 C 266.113281 101.726562 271.75 104.0625 277.628906 104.0625 L 297.5 104.0625 C 303.378906 104.0625 309.011719 101.726562 313.167969 97.570312 C 317.324219 93.414062 319.660156 87.777344 319.660156 81.902344 C 319.660156 76.023438 317.324219 70.386719 313.167969 66.234375 C 309.011719 62.078125 303.378906 59.742188 297.5 59.742188 L 277.628906 59.742188 C 271.75 59.742188 266.113281 62.078125 261.957031 66.234375 C 257.804688 70.386719 255.46875 76.023438 255.46875 81.902344 Z M 255.46875 81.902344 " clip-rule="nonzero"/></clipPath></defs><g clip-path="url(#8c421668de)"><path fill="#e4fcfc" d="M 287.5625 101.933594 C 275.304688 101.933594 265.367188 91.996094 265.367188 79.738281 C 265.367188 67.476562 275.304688 57.542969 287.5625 57.542969 C 299.820312 57.542969 309.757812 67.476562 309.757812 79.738281 C 309.757812 91.996094 299.820312 101.933594 287.5625 101.933594 Z M 327.269531 58.988281 C 314.445312 37.066406 286.277344 29.6875 264.351562 42.511719 C 242.425781 55.335938 235.050781 83.503906 247.875 105.429688 L 287.574219 173.300781 L 327.269531 105.429688 C 335.335938 91.566406 335.945312 73.820312 327.269531 58.988281 " fill-opacity="1" fill-rule="nonzero"/></g><g clip-path="url(#9581f73b22)"><g clip-path="url(#54b9d7846f)"><path fill="#e4fcfc" d="M 254.003906 47.90625 L 322 47.90625 L 322 115.898438 L 254.003906 115.898438 Z M 254.003906 47.90625 " fill-opacity="1" fill-rule="nonzero"/></g></g><g clip-path="url(#03cfd21fef)"><g clip-path="url(#60f3eaec05)"><path stroke-linecap="butt" transform="matrix(0.75, 0, 0, 0.75, 254.005156, 47.904637)" fill="none" stroke-linejoin="miter" d="M 45.326464 0.00215039 C 20.295211 0.00215039 -0.00166609 20.293819 -0.00166609 45.33028 C -0.00166609 70.361533 20.295211 90.65841 45.326464 90.65841 C 70.362925 90.65841 90.654593 70.361533 90.654593 45.33028 C 90.654593 20.293819 70.362925 0.00215039 45.326464 0.00215039 Z M 45.326464 0.00215039 " stroke="#adcd5f" stroke-width="4" stroke-opacity="1" stroke-miterlimit="4"/></g></g><g clip-path="url(#b65900b621)"><g clip-path="url(#fa20adc9dc)"><path fill="#c3e9fa" d="M 264.707031 79.28125 C 269.867188 80.171875 276.6875 80.03125 281.675781 78.75 C 284.1875 78.101562 287.429688 76.566406 288.003906 73.71875 C 288.609375 70.710938 285.742188 67.800781 282.757812 68.160156 C 282.300781 68.214844 281.972656 68.207031 281.5625 68.335938 C 284.804688 69.429688 283.910156 73.015625 281.324219 74.4375 C 278.238281 76.132812 273.785156 75.09375 272.15625 71.925781 C 270.296875 68.320312 273.1875 64.410156 276.082031 62.234375 C 279.394531 59.746094 285.324219 59.917969 288.71875 62.191406 C 291.867188 64.296875 293.671875 69.089844 291.136719 72.308594 C 293.71875 70.355469 294.828125 67.714844 298.148438 66.769531 C 301.753906 65.738281 305.808594 66.753906 307.628906 70.136719 C 310.34375 75.191406 306.757812 81.6875 301.351562 82.859375 C 298.203125 83.542969 294.742188 83.570312 291.414062 83.40625 C 286.773438 83.175781 282.054688 82.878906 277.382812 82.511719 C 274.019531 82.246094 270.457031 81.640625 267.046875 81.960938 C 264.40625 82.210938 262.566406 84.417969 259.898438 83.953125 C 261.394531 83.25 261.769531 81.777344 262.855469 80.667969 C 264.351562 79.136719 265.292969 79.433594 267.054688 80 " fill-opacity="1" fill-rule="nonzero"/></g></g><g clip-path="url(#d74e73007d)"><g clip-path="url(#583b80f75a)"><path fill="#96d6f5" d="M 262.179688 87.960938 C 268.617188 82.644531 275.5625 86.179688 282.933594 86.128906 C 288.320312 86.089844 293.632812 85.101562 299.007812 84.910156 C 303.085938 84.769531 309.25 85.289062 311.59375 89.21875 C 314.953125 94.847656 313.410156 101.464844 306.585938 103.167969 C 303.941406 103.828125 300.175781 103.992188 297.703125 102.71875 C 294.871094 101.265625 292.613281 97.808594 296.117188 95.445312 C 297.753906 94.34375 299.863281 94.257812 300.292969 96.363281 C 301.957031 96.382812 301.996094 94.476562 301.300781 93.378906 C 300.597656 92.269531 298.75 91.519531 297.558594 91.371094 C 293.964844 90.914062 292.113281 93.425781 291.792969 96.582031 C 291.46875 99.8125 290.714844 101.523438 287.453125 102.671875 C 284.425781 103.734375 279.375 103.777344 277.742188 100.339844 C 277.269531 99.347656 276.992188 97.042969 277.5625 96.074219 C 278.09375 95.160156 280.800781 93.894531 281.859375 94.453125 C 282.410156 94.746094 282.296875 95.949219 282.613281 95.996094 C 283.542969 96.136719 283.515625 95.125 283.441406 94.457031 C 283.332031 93.46875 282.230469 92.25 281.449219 91.59375 C 279.664062 90.097656 275.84375 88.71875 273.554688 88.859375 C 270.703125 89.03125 268.59375 91.03125 265.980469 91.558594 C 264.234375 91.910156 262.484375 91.671875 260.925781 91.191406 C 259.398438 90.71875 257.503906 89.890625 255.929688 90.847656 C 258.5625 89.144531 262.316406 87.265625 265.429688 88.320312 " fill-opacity="1" fill-rule="nonzero"/></g></g><g clip-path="url(#58250239df)"><g clip-path="url(#327460ac1a)"><path fill="#59b6e7" d="M 262.902344 85.917969 C 263.34375 85.828125 264.523438 84.253906 265.246094 83.726562 C 266.996094 82.449219 269.265625 81.683594 271.347656 81.109375 C 275.207031 80.042969 279.390625 80.589844 283.300781 80.9375 C 285.925781 81.167969 287.964844 80.894531 290.339844 79.953125 C 291.546875 79.476562 295.027344 78.066406 293.628906 76.433594 C 292.742188 78.9375 288.488281 74.878906 293.226562 73.398438 C 295.753906 72.609375 299.054688 73.796875 300.410156 76.097656 C 303.632812 81.574219 297.792969 85.265625 293.226562 86.417969 C 287.636719 87.828125 281.460938 86.699219 276.082031 85.027344 C 273.394531 84.191406 270.617188 83.742188 267.773438 84.476562 C 265.65625 85.027344 262.996094 87.375 260.851562 85.953125 C 260.824219 85.914062 260.976562 86.019531 261.097656 85.917969 " fill-opacity="1" fill-rule="nonzero"/></g></g><g clip-path="url(#10fdb5a7d2)"><g clip-path="url(#b084fd079f)"><path fill="#c3e9fa" d="M 262.480469 88.097656 C 262.441406 87.636719 262.664062 87.210938 262.949219 86.859375 C 263.328125 86.394531 263.816406 86.007812 264.308594 85.671875 C 265.371094 84.945312 266.539062 84.375 267.707031 83.84375 C 268.382812 83.539062 269.058594 83.261719 269.777344 83.070312 C 270.640625 82.84375 271.539062 82.742188 272.433594 82.75 C 274.253906 82.769531 276.039062 83.195312 277.828125 83.484375 C 278.714844 83.632812 279.609375 83.734375 280.503906 83.839844 C 281.4375 83.953125 282.371094 84.058594 283.308594 84.132812 C 284.265625 84.210938 285.226562 84.257812 286.1875 84.257812 C 287.003906 84.261719 287.859375 84.257812 288.664062 84.097656 C 289.695312 83.890625 290.691406 83.410156 291.59375 82.894531 C 292.664062 82.285156 293.695312 81.539062 294.484375 80.59375 C 295.160156 79.789062 295.664062 78.773438 295.417969 77.703125 C 295.15625 76.546875 294.140625 75.796875 293 75.625 C 292.011719 75.476562 290.859375 75.757812 290.121094 76.445312 C 289.828125 76.71875 289.605469 77.09375 289.601562 77.5 C 289.597656 77.988281 289.898438 78.398438 290.25 78.710938 C 290.496094 78.929688 290.785156 79.105469 291.074219 79.257812 C 291.195312 79.320312 291.386719 79.320312 291.492188 79.226562 C 291.601562 79.125 291.515625 79.003906 291.410156 78.949219 C 290.953125 78.707031 290.449219 78.371094 290.265625 77.886719 C 290.128906 77.53125 290.21875 77.191406 290.445312 76.886719 C 290.671875 76.574219 291.085938 76.324219 291.4375 76.191406 C 291.550781 76.148438 291.664062 76.117188 291.777344 76.085938 C 291.914062 76.046875 292 76.03125 292.121094 76.015625 C 292.394531 75.976562 292.585938 75.976562 292.839844 76 C 293.0625 76.023438 293.300781 76.082031 293.503906 76.164062 C 293.746094 76.265625 293.949219 76.394531 294.144531 76.570312 C 294.539062 76.914062 294.78125 77.417969 294.863281 77.929688 C 295.03125 78.957031 294.382812 79.945312 293.710938 80.660156 C 292.871094 81.554688 291.832031 82.253906 290.75 82.824219 C 290.265625 83.078125 289.761719 83.304688 289.261719 83.484375 C 289.046875 83.558594 288.828125 83.628906 288.605469 83.683594 C 288.511719 83.707031 288.421875 83.726562 288.328125 83.742188 C 288.398438 83.730469 288.328125 83.742188 288.3125 83.746094 C 288.273438 83.753906 288.230469 83.757812 288.1875 83.761719 C 288.066406 83.773438 287.941406 83.785156 287.820312 83.796875 C 285.953125 83.960938 284.066406 83.828125 282.207031 83.636719 C 280.375 83.453125 278.546875 83.222656 276.734375 82.902344 C 274.964844 82.585938 273.1875 82.257812 271.382812 82.390625 C 270.429688 82.460938 269.488281 82.667969 268.589844 82.992188 C 268.011719 83.199219 267.449219 83.460938 266.890625 83.722656 C 265.738281 84.253906 264.597656 84.84375 263.570312 85.59375 C 263.105469 85.9375 262.667969 86.320312 262.316406 86.78125 C 262.046875 87.140625 261.84375 87.585938 261.882812 88.042969 C 261.902344 88.3125 262.5 88.351562 262.480469 88.097656 Z M 262.480469 88.097656 " fill-opacity="1" fill-rule="nonzero"/></g></g><g clip-path="url(#f40718448f)"><g clip-path="url(#93e2d96713)"><path fill="#4569b2" d="M 298.359375 96.808594 C 298.417969 97.75 298.726562 98.644531 299.453125 99.285156 C 300.058594 99.816406 300.90625 100.015625 301.699219 99.941406 C 303.652344 99.761719 305.339844 98.007812 305.78125 96.167969 C 306.273438 94.117188 305.289062 92.023438 303.960938 90.496094 C 302.457031 88.765625 300.34375 87.582031 298.046875 87.304688 C 295.441406 86.996094 292.914062 87.90625 290.464844 88.664062 C 289.1875 89.058594 287.894531 89.421875 286.566406 89.585938 C 285.144531 89.765625 283.683594 89.679688 282.269531 89.488281 C 279.445312 89.113281 276.710938 88.265625 273.910156 87.769531 C 270.929688 87.242188 267.910156 87.328125 264.90625 87.570312 C 261.992188 87.800781 259.085938 88.15625 256.160156 88.160156 C 255.78125 88.160156 255.964844 88.699219 256.289062 88.699219 C 259.402344 88.695312 262.492188 88.292969 265.589844 88.0625 C 267.136719 87.945312 268.691406 87.878906 270.242188 87.921875 C 271.695312 87.960938 273.132812 88.144531 274.558594 88.421875 C 277.355469 88.960938 280.089844 89.792969 282.929688 90.097656 C 284.335938 90.25 285.769531 90.273438 287.171875 90.058594 C 288.488281 89.855469 289.765625 89.476562 291.03125 89.082031 C 293.496094 88.3125 296.042969 87.441406 298.65625 87.929688 C 300.863281 88.339844 302.808594 89.691406 304.105469 91.496094 C 305.289062 93.144531 305.824219 95.347656 304.730469 97.175781 C 303.878906 98.605469 301.984375 99.980469 300.257812 99.210938 C 299.359375 98.8125 298.984375 97.835938 298.925781 96.914062 C 298.90625 96.601562 298.335938 96.449219 298.359375 96.808594 Z M 298.359375 96.808594 " fill-opacity="1" fill-rule="nonzero"/></g></g><g clip-path="url(#99a19fc75a)"><g clip-path="url(#3684f5498a)"><path fill="#c3e9fa" d="M 262.9375 81.617188 C 263.792969 80.796875 264.773438 80.113281 265.855469 79.621094 C 266.882812 79.15625 267.964844 78.875 269.078125 78.707031 C 271.402344 78.363281 273.753906 78.53125 276.09375 78.6875 C 278.476562 78.84375 280.882812 79.015625 283.261719 78.71875 C 284.417969 78.574219 285.566406 78.308594 286.652344 77.878906 C 287.726562 77.453125 288.746094 76.851562 289.65625 76.140625 C 291.070312 75.039062 292.15625 73.523438 292.46875 71.742188 C 292.742188 70.160156 292.40625 68.535156 291.675781 67.117188 C 290.914062 65.640625 289.757812 64.382812 288.363281 63.46875 C 286.976562 62.554688 285.339844 62.03125 283.671875 62.066406 C 282.832031 62.085938 281.996094 62.265625 281.21875 62.578125 C 280.796875 62.75 280.390625 62.964844 280.003906 63.210938 C 279.585938 63.476562 279.210938 63.792969 278.832031 64.113281 C 278.226562 64.628906 277.28125 65.527344 277.769531 66.402344 C 277.941406 66.710938 278.269531 66.917969 278.585938 67.058594 C 279.011719 67.242188 279.464844 67.34375 279.925781 67.417969 C 280.769531 67.546875 281.636719 67.554688 282.488281 67.496094 C 282.621094 67.484375 282.730469 67.359375 282.679688 67.226562 C 282.625 67.082031 282.457031 67.019531 282.308594 67.03125 C 281.816406 67.066406 281.417969 67.070312 280.914062 67.046875 C 280.667969 67.035156 280.425781 67.015625 280.183594 66.988281 C 280.070312 66.976562 279.957031 66.960938 279.84375 66.941406 C 279.789062 66.933594 279.734375 66.921875 279.679688 66.914062 C 279.589844 66.898438 279.738281 66.925781 279.652344 66.90625 C 279.617188 66.902344 279.582031 66.894531 279.546875 66.886719 C 279.339844 66.839844 279.140625 66.785156 278.941406 66.710938 C 278.921875 66.703125 278.898438 66.695312 278.878906 66.6875 C 278.804688 66.65625 278.9375 66.714844 278.867188 66.683594 C 278.828125 66.664062 278.789062 66.644531 278.746094 66.625 C 278.710938 66.609375 278.671875 66.589844 278.636719 66.566406 C 278.617188 66.558594 278.601562 66.546875 278.582031 66.535156 C 278.570312 66.527344 278.492188 66.476562 278.5625 66.523438 C 278.5 66.480469 278.441406 66.433594 278.390625 66.382812 C 278.378906 66.371094 278.335938 66.324219 278.386719 66.382812 C 278.375 66.367188 278.367188 66.355469 278.355469 66.339844 C 278.328125 66.3125 278.308594 66.277344 278.285156 66.246094 C 278.253906 66.195312 278.3125 66.296875 278.285156 66.242188 C 278.277344 66.230469 278.273438 66.214844 278.265625 66.199219 C 278.253906 66.167969 278.242188 66.136719 278.234375 66.105469 C 278.21875 66.050781 278.242188 66.15625 278.234375 66.101562 C 278.230469 66.085938 278.226562 66.066406 278.226562 66.050781 C 278.222656 66.011719 278.21875 65.96875 278.222656 65.929688 C 278.222656 65.910156 278.222656 65.894531 278.226562 65.875 C 278.21875 65.933594 278.226562 65.871094 278.230469 65.863281 C 278.238281 65.824219 278.246094 65.785156 278.257812 65.746094 C 278.269531 65.707031 278.285156 65.664062 278.300781 65.625 C 278.308594 65.605469 278.320312 65.585938 278.328125 65.5625 C 278.347656 65.515625 278.339844 65.542969 278.355469 65.511719 C 278.472656 65.296875 278.628906 65.105469 278.796875 64.925781 C 279.007812 64.699219 279.246094 64.5 279.476562 64.296875 C 279.660156 64.140625 279.847656 63.988281 280.042969 63.847656 C 280.753906 63.328125 281.507812 62.957031 282.375 62.730469 C 282.398438 62.722656 282.421875 62.71875 282.445312 62.710938 C 282.523438 62.691406 282.394531 62.722656 282.472656 62.703125 C 282.519531 62.691406 282.570312 62.683594 282.617188 62.671875 C 282.722656 62.648438 282.828125 62.632812 282.933594 62.613281 C 283.132812 62.582031 283.332031 62.558594 283.535156 62.546875 C 283.632812 62.539062 283.726562 62.535156 283.824219 62.53125 C 283.90625 62.527344 283.765625 62.53125 283.84375 62.53125 C 283.871094 62.53125 283.894531 62.53125 283.917969 62.53125 C 283.972656 62.53125 284.03125 62.53125 284.085938 62.53125 C 284.285156 62.535156 284.484375 62.550781 284.683594 62.570312 C 284.777344 62.582031 284.871094 62.59375 284.96875 62.609375 C 285.015625 62.617188 285.0625 62.625 285.109375 62.632812 C 285.132812 62.636719 285.15625 62.640625 285.179688 62.644531 C 285.195312 62.648438 285.300781 62.667969 285.21875 62.652344 C 285.414062 62.6875 285.609375 62.734375 285.800781 62.789062 C 285.992188 62.84375 286.183594 62.90625 286.371094 62.972656 C 286.460938 63.003906 286.550781 63.039062 286.640625 63.074219 C 286.652344 63.082031 286.726562 63.113281 286.65625 63.082031 C 286.675781 63.089844 286.699219 63.101562 286.722656 63.109375 C 286.773438 63.132812 286.824219 63.15625 286.875 63.179688 C 287.242188 63.34375 287.597656 63.535156 287.9375 63.75 C 288.023438 63.800781 288.101562 63.855469 288.183594 63.910156 C 288.191406 63.914062 288.257812 63.960938 288.203125 63.921875 C 288.222656 63.933594 288.242188 63.949219 288.261719 63.964844 C 288.308594 63.996094 288.355469 64.027344 288.398438 64.0625 C 288.5625 64.179688 288.722656 64.308594 288.878906 64.4375 C 289.035156 64.566406 289.1875 64.703125 289.335938 64.839844 C 289.40625 64.90625 289.472656 64.976562 289.542969 65.046875 C 289.578125 65.078125 289.613281 65.113281 289.644531 65.148438 C 289.660156 65.167969 289.679688 65.183594 289.695312 65.203125 C 289.703125 65.210938 289.769531 65.285156 289.730469 65.238281 C 290.003906 65.535156 290.261719 65.851562 290.496094 66.179688 C 290.960938 66.839844 291.300781 67.484375 291.574219 68.257812 C 291.835938 68.996094 291.96875 69.710938 291.976562 70.511719 C 291.976562 70.917969 291.945312 71.261719 291.878906 71.636719 C 291.808594 72.03125 291.695312 72.417969 291.550781 72.789062 C 291.242188 73.574219 290.75 74.300781 290.148438 74.9375 C 289.433594 75.699219 288.53125 76.320312 287.613281 76.84375 C 286.621094 77.402344 285.527344 77.789062 284.417969 78.03125 C 282.109375 78.53125 279.746094 78.449219 277.402344 78.304688 C 275.019531 78.164062 272.625 77.933594 270.234375 78.101562 C 267.917969 78.261719 265.636719 78.875 263.730469 80.230469 C 263.296875 80.535156 262.890625 80.878906 262.507812 81.25 C 262.253906 81.492188 262.730469 81.816406 262.9375 81.617188 Z M 262.9375 81.617188 " fill-opacity="1" fill-rule="nonzero"/></g></g><g clip-path="url(#37b6dd5f4d)"><g clip-path="url(#7656acef77)"><path fill="#73cdda" d="M 260.578125 93.851562 C 262.613281 92.183594 265.082031 91.058594 267.652344 90.476562 C 270.21875 89.894531 272.929688 89.847656 275.496094 90.472656 C 277.941406 91.066406 280.199219 92.347656 281.808594 94.277344 C 282.179688 94.722656 282.488281 95.199219 282.8125 95.683594 C 283.160156 96.207031 283.515625 96.722656 283.890625 97.230469 C 284.660156 98.285156 285.515625 99.308594 286.558594 100.105469 C 287.484375 100.816406 288.640625 101.320312 289.832031 101.121094 C 290.484375 101.011719 291.074219 100.699219 291.597656 100.300781 C 292.0625 99.945312 292.46875 99.535156 292.773438 99.035156 C 293.320312 98.136719 293.492188 97.03125 293.253906 96.011719 C 293.019531 95 292.308594 94.140625 291.332031 93.753906 C 290.765625 93.53125 290.140625 93.480469 289.535156 93.535156 C 289.0625 93.578125 288.617188 93.839844 288.230469 94.09375 C 287.847656 94.351562 287.492188 94.660156 287.1875 95.003906 C 286.992188 95.222656 286.703125 95.535156 286.78125 95.855469 C 286.859375 96.175781 287.207031 96.1875 287.457031 96.101562 C 287.851562 95.96875 288.214844 95.699219 288.558594 95.46875 C 288.683594 95.378906 288.621094 95.171875 288.539062 95.082031 C 288.433594 94.964844 288.28125 94.9375 288.152344 95.023438 C 287.902344 95.195312 287.644531 95.363281 287.371094 95.5 C 287.292969 95.539062 287.214844 95.570312 287.132812 95.597656 C 287.078125 95.617188 287.1875 95.585938 287.136719 95.597656 C 287.125 95.601562 287.109375 95.601562 287.097656 95.605469 C 287.035156 95.613281 287.121094 95.613281 287.148438 95.621094 C 287.203125 95.636719 287.269531 95.71875 287.304688 95.800781 C 287.320312 95.84375 287.3125 95.828125 287.304688 95.878906 C 287.308594 95.859375 287.316406 95.839844 287.324219 95.820312 C 287.292969 95.90625 287.332031 95.808594 287.34375 95.785156 C 287.433594 95.617188 287.503906 95.542969 287.605469 95.429688 C 287.914062 95.082031 288.273438 94.777344 288.660156 94.523438 C 289.035156 94.269531 289.445312 94.097656 289.898438 94.070312 C 290.453125 94.039062 290.984375 94.132812 291.472656 94.375 C 291.847656 94.5625 292.183594 94.890625 292.402344 95.246094 C 292.636719 95.632812 292.765625 96.066406 292.804688 96.519531 C 292.847656 97.015625 292.78125 97.484375 292.625 97.964844 C 292.28125 99.023438 291.375 99.910156 290.351562 100.363281 C 289.285156 100.832031 288.179688 100.570312 287.25 99.980469 C 286.179688 99.300781 285.328125 98.3125 284.558594 97.308594 C 283.828125 96.355469 283.210938 95.304688 282.488281 94.339844 C 280.9375 92.28125 278.671875 90.859375 276.210938 90.125 C 273.660156 89.367188 270.929688 89.296875 268.316406 89.757812 C 265.675781 90.226562 263.125 91.25 260.949219 92.816406 C 260.683594 93.003906 260.425781 93.203125 260.175781 93.410156 C 259.921875 93.617188 260.328125 94.0625 260.578125 93.851562 Z M 260.578125 93.851562 " fill-opacity="1" fill-rule="nonzero"/></g></g><g clip-path="url(#0015efc4d3)"><g clip-path="url(#51ac1808fd)"><path fill="#c3e9fa" d="M 299.140625 83.730469 C 300.898438 83.390625 302.660156 82.972656 304.324219 82.304688 C 305.796875 81.71875 307.207031 80.917969 308.300781 79.757812 C 309.398438 78.59375 310.035156 77.101562 310.238281 75.527344 C 310.359375 74.554688 310.324219 73.570312 310.199219 72.597656 C 310.082031 71.664062 309.882812 70.746094 309.5625 69.859375 C 308.9375 68.148438 307.871094 66.515625 306.320312 65.5 C 304.671875 64.421875 302.480469 64.214844 300.648438 64.953125 C 299.128906 65.566406 297.863281 67.003906 298.003906 68.710938 C 298.074219 69.578125 298.503906 70.359375 299.113281 70.972656 C 299.296875 71.160156 299.5 71.320312 299.699219 71.484375 C 299.933594 71.675781 300.179688 71.855469 300.4375 72.015625 C 300.863281 72.28125 301.332031 72.492188 301.824219 72.601562 C 302.605469 72.769531 303.4375 72.648438 304.023438 72.070312 C 304.570312 71.527344 304.742188 70.695312 304.722656 69.953125 C 304.707031 69.335938 304.5625 68.726562 304.351562 68.152344 C 304.15625 68.15625 303.960938 68.164062 303.765625 68.167969 C 303.859375 68.339844 303.992188 68.460938 304.152344 68.570312 C 304.285156 68.660156 304.410156 68.738281 304.488281 68.882812 C 304.550781 69 304.726562 69.03125 304.84375 69.027344 C 304.910156 69.027344 305.136719 68.988281 305.074219 68.867188 C 304.980469 68.695312 304.847656 68.574219 304.6875 68.46875 C 304.554688 68.375 304.429688 68.296875 304.351562 68.152344 C 304.289062 68.035156 304.113281 68.003906 303.996094 68.007812 C 303.914062 68.011719 303.71875 68.042969 303.765625 68.167969 C 304.085938 69.03125 304.25 69.992188 304.019531 70.902344 C 303.933594 71.242188 303.777344 71.5625 303.550781 71.828125 C 303.445312 71.949219 303.34375 72.039062 303.203125 72.132812 C 303.0625 72.222656 302.96875 72.265625 302.789062 72.320312 C 302.78125 72.320312 302.714844 72.339844 302.773438 72.324219 C 302.753906 72.328125 302.734375 72.332031 302.714844 72.335938 C 302.671875 72.34375 302.632812 72.351562 302.59375 72.359375 C 302.570312 72.359375 302.550781 72.363281 302.53125 72.367188 C 302.601562 72.355469 302.53125 72.367188 302.519531 72.367188 C 302.46875 72.371094 302.417969 72.371094 302.367188 72.371094 C 302.34375 72.371094 302.320312 72.371094 302.296875 72.371094 C 302.382812 72.371094 302.304688 72.371094 302.289062 72.367188 C 302.242188 72.367188 302.195312 72.359375 302.148438 72.355469 C 302.125 72.351562 302.101562 72.347656 302.078125 72.34375 C 302 72.332031 302.144531 72.355469 302.0625 72.34375 C 302.003906 72.332031 301.949219 72.316406 301.890625 72.304688 C 301.84375 72.292969 301.792969 72.277344 301.742188 72.261719 C 301.660156 72.234375 301.792969 72.28125 301.710938 72.25 C 301.683594 72.242188 301.660156 72.234375 301.632812 72.222656 C 301.519531 72.179688 301.402344 72.132812 301.292969 72.078125 C 301.070312 71.972656 300.839844 71.832031 300.628906 71.683594 C 299.839844 71.144531 299.117188 70.46875 298.777344 69.5625 C 298.511719 68.847656 298.53125 68.042969 298.820312 67.339844 C 299.125 66.589844 299.695312 65.976562 300.382812 65.550781 C 300.761719 65.3125 301.175781 65.140625 301.609375 65.019531 C 302.058594 64.894531 302.550781 64.832031 303.019531 64.824219 C 303.464844 64.816406 303.886719 64.867188 304.320312 64.972656 C 304.425781 65 304.527344 65.03125 304.632812 65.0625 C 304.578125 65.046875 304.660156 65.074219 304.664062 65.074219 C 304.691406 65.082031 304.714844 65.089844 304.742188 65.101562 C 304.800781 65.121094 304.859375 65.144531 304.917969 65.167969 C 305.121094 65.246094 305.320312 65.339844 305.488281 65.433594 C 307.082031 66.300781 308.175781 67.886719 308.847656 69.539062 C 309.191406 70.386719 309.410156 71.269531 309.550781 72.171875 C 309.703125 73.164062 309.761719 74.171875 309.671875 75.171875 C 309.59375 75.992188 309.410156 76.808594 309.082031 77.566406 C 308.785156 78.261719 308.371094 78.902344 307.867188 79.46875 C 306.839844 80.628906 305.453125 81.425781 304.039062 82.003906 C 302.386719 82.683594 300.699219 83.085938 298.949219 83.425781 C 298.921875 83.433594 298.894531 83.4375 298.867188 83.441406 C 298.777344 83.460938 298.640625 83.53125 298.738281 83.632812 C 298.832031 83.730469 299.015625 83.753906 299.140625 83.730469 Z M 299.140625 83.730469 " fill-opacity="1" fill-rule="nonzero"/></g></g><g clip-path="url(#f14641658d)"><g clip-path="url(#3a1cb14a9c)"><path fill="#42b6e9" d="M 294.6875 85.324219 C 296.539062 84.683594 298.453125 84.195312 300.378906 83.882812 C 302.402344 83.554688 304.394531 83.421875 306.4375 83.554688 C 306.886719 83.585938 307.386719 83.636719 307.886719 83.703125 C 308.382812 83.773438 308.871094 83.859375 309.308594 83.957031 C 310.28125 84.171875 311.164062 84.445312 312.066406 84.832031 C 313.855469 85.59375 315.476562 86.753906 316.75 88.246094 C 317.429688 89.039062 318.039062 89.929688 318.46875 90.882812 C 318.871094 91.777344 319.085938 92.746094 319.082031 93.722656 C 319.074219 95.546875 318.257812 97.300781 316.824219 98.449219 C 316.082031 99.039062 315.191406 99.429688 314.269531 99.628906 C 313.769531 99.734375 313.238281 99.792969 312.734375 99.765625 C 312.203125 99.738281 311.695312 99.648438 311.171875 99.480469 C 311.089844 99.453125 310.972656 99.414062 310.867188 99.367188 C 310.746094 99.320312 310.628906 99.269531 310.511719 99.210938 C 310.335938 99.125 310.121094 98.996094 309.941406 98.867188 C 309.601562 98.632812 309.296875 98.328125 309.070312 97.988281 C 308.601562 97.292969 308.46875 96.453125 308.660156 95.644531 C 308.769531 95.175781 308.984375 94.742188 309.25 94.34375 C 309.550781 93.894531 309.933594 93.445312 310.367188 93.113281 C 310.984375 92.644531 311.695312 92.335938 312.441406 92.15625 C 312.484375 92.144531 312.53125 92.136719 312.574219 92.128906 C 312.59375 92.121094 312.617188 92.117188 312.640625 92.113281 C 312.585938 92.125 312.65625 92.109375 312.664062 92.109375 C 312.753906 92.09375 312.847656 92.078125 312.941406 92.066406 C 313.023438 92.058594 313.105469 92.050781 313.1875 92.046875 C 313.257812 92.042969 313.125 92.046875 313.195312 92.046875 C 313.214844 92.046875 313.234375 92.042969 313.253906 92.042969 C 313.300781 92.042969 313.34375 92.042969 313.390625 92.046875 C 313.425781 92.046875 313.464844 92.046875 313.5 92.050781 C 313.570312 92.054688 313.429688 92.042969 313.496094 92.050781 C 313.511719 92.050781 313.53125 92.054688 313.546875 92.054688 C 313.582031 92.058594 313.617188 92.0625 313.652344 92.070312 C 313.667969 92.074219 313.6875 92.074219 313.703125 92.078125 C 313.605469 92.058594 313.683594 92.074219 313.707031 92.082031 C 313.738281 92.089844 313.769531 92.097656 313.800781 92.105469 C 313.820312 92.109375 313.875 92.128906 313.792969 92.101562 C 313.804688 92.105469 313.820312 92.113281 313.835938 92.117188 C 313.863281 92.128906 313.890625 92.140625 313.917969 92.152344 C 313.96875 92.175781 313.867188 92.125 313.914062 92.152344 C 313.929688 92.160156 313.945312 92.167969 313.964844 92.179688 C 313.988281 92.195312 314.011719 92.210938 314.035156 92.226562 C 313.980469 92.191406 314.050781 92.242188 314.0625 92.253906 C 314.085938 92.273438 314.101562 92.292969 314.121094 92.3125 C 314.128906 92.324219 314.136719 92.332031 314.144531 92.34375 C 314.164062 92.367188 314.132812 92.324219 314.160156 92.363281 C 314.21875 92.457031 314.261719 92.585938 314.273438 92.671875 C 314.3125 93 314.183594 93.339844 314.042969 93.628906 C 313.898438 93.921875 313.714844 94.191406 313.523438 94.453125 C 313.40625 94.613281 313.976562 94.753906 314.089844 94.605469 C 314.371094 94.21875 314.636719 93.804688 314.789062 93.347656 C 314.878906 93.074219 314.914062 92.769531 314.808594 92.496094 C 314.570312 91.902344 313.765625 91.773438 313.210938 91.765625 C 312.425781 91.757812 311.644531 91.976562 310.933594 92.289062 C 310.578125 92.445312 310.238281 92.640625 309.925781 92.867188 C 309.484375 93.191406 309.097656 93.617188 308.777344 94.0625 C 308.238281 94.800781 307.890625 95.710938 307.992188 96.636719 C 308.085938 97.476562 308.546875 98.222656 309.195312 98.765625 C 310.003906 99.445312 311.039062 99.808594 312.074219 99.964844 C 313.179688 100.132812 314.328125 100.027344 315.390625 99.675781 C 317.179688 99.085938 318.617188 97.738281 319.28125 95.980469 C 319.96875 94.160156 319.722656 92.113281 318.816406 90.414062 C 317.855469 88.605469 316.410156 87.042969 314.710938 85.894531 C 313.070312 84.785156 311.179688 84.070312 309.242188 83.667969 C 307.210938 83.25 305.128906 83.15625 303.066406 83.28125 C 301.03125 83.402344 299.011719 83.75 297.039062 84.253906 C 296.113281 84.488281 295.195312 84.765625 294.292969 85.078125 C 294.1875 85.117188 294.164062 85.199219 294.269531 85.265625 C 294.378906 85.335938 294.5625 85.367188 294.6875 85.324219 Z M 294.6875 85.324219 " fill-opacity="1" fill-rule="nonzero"/></g></g><g clip-path="url(#138c080bf9)"><g clip-path="url(#02cd5c7891)"><path fill="#42b6e9" d="M 311.164062 84.203125 C 312.859375 84.820312 314.601562 83.980469 315.886719 82.890625 C 316.613281 82.28125 317.246094 81.566406 317.789062 80.792969 C 318.28125 80.089844 318.707031 79.324219 318.996094 78.515625 C 319.25 77.796875 319.394531 77.019531 319.425781 76.257812 C 319.453125 75.601562 319.378906 74.941406 319.144531 74.324219 C 318.773438 73.335938 317.980469 72.5625 316.96875 72.234375 C 316.046875 71.941406 315.042969 71.980469 314.121094 72.253906 C 313.3125 72.492188 312.488281 72.945312 312.023438 73.664062 C 311.804688 74 311.695312 74.386719 311.707031 74.785156 C 311.71875 75.308594 311.957031 75.832031 312.253906 76.257812 C 312.632812 76.789062 313.234375 77.226562 313.886719 77.355469 C 314.085938 77.394531 314.339844 77.398438 314.507812 77.261719 C 314.722656 77.089844 314.703125 76.78125 314.648438 76.539062 C 314.550781 76.117188 314.308594 75.730469 314.066406 75.382812 C 314.027344 75.328125 313.878906 75.167969 313.816406 75.277344 C 313.75 75.390625 313.847656 75.558594 313.910156 75.648438 C 313.945312 75.703125 313.984375 75.757812 314.019531 75.8125 C 313.988281 75.765625 314.042969 75.847656 314.042969 75.847656 C 314.058594 75.875 314.070312 75.898438 314.085938 75.921875 C 314.113281 75.96875 314.140625 76.019531 314.164062 76.066406 C 314.179688 76.089844 314.1875 76.113281 314.199219 76.132812 C 314.214844 76.167969 314.214844 76.164062 314.199219 76.128906 C 314.203125 76.140625 314.210938 76.15625 314.214844 76.171875 C 314.234375 76.210938 314.25 76.25 314.265625 76.292969 C 314.269531 76.304688 314.292969 76.371094 314.269531 76.296875 C 314.273438 76.316406 314.277344 76.332031 314.285156 76.351562 C 314.292969 76.386719 314.300781 76.417969 314.304688 76.453125 C 314.292969 76.378906 314.308594 76.488281 314.308594 76.511719 C 314.308594 76.523438 314.308594 76.574219 314.308594 76.511719 C 314.308594 76.523438 314.308594 76.539062 314.308594 76.550781 C 314.304688 76.574219 314.300781 76.597656 314.292969 76.621094 C 314.28125 76.660156 314.308594 76.585938 314.292969 76.621094 C 314.289062 76.632812 314.285156 76.644531 314.28125 76.652344 C 314.269531 76.675781 314.253906 76.695312 314.238281 76.714844 C 314.210938 76.753906 314.246094 76.714844 314.21875 76.738281 C 314.199219 76.753906 314.183594 76.765625 314.164062 76.773438 C 314.125 76.800781 314.078125 76.816406 314.03125 76.828125 C 314.066406 76.816406 314 76.832031 313.988281 76.832031 C 313.960938 76.835938 313.933594 76.835938 313.910156 76.835938 C 313.847656 76.839844 313.789062 76.832031 313.730469 76.824219 C 313.605469 76.804688 313.507812 76.777344 313.371094 76.722656 C 313.304688 76.695312 313.238281 76.664062 313.175781 76.632812 C 313.140625 76.613281 313.109375 76.597656 313.078125 76.578125 C 313.023438 76.546875 313.113281 76.601562 313.058594 76.570312 C 313.039062 76.554688 313.015625 76.542969 312.996094 76.527344 C 312.929688 76.488281 312.867188 76.441406 312.808594 76.394531 C 312.777344 76.371094 312.746094 76.347656 312.714844 76.320312 C 312.707031 76.316406 312.660156 76.273438 312.703125 76.3125 C 312.683594 76.296875 312.667969 76.277344 312.648438 76.257812 C 312.589844 76.207031 312.535156 76.148438 312.484375 76.089844 C 312.539062 76.148438 312.457031 76.054688 312.445312 76.039062 C 312.417969 76 312.390625 75.964844 312.367188 75.925781 C 312.421875 76.007812 312.351562 75.898438 312.339844 75.875 C 312.320312 75.84375 312.304688 75.8125 312.289062 75.78125 C 312.273438 75.757812 312.261719 75.734375 312.25 75.710938 C 312.242188 75.699219 312.238281 75.6875 312.230469 75.671875 C 312.195312 75.605469 312.257812 75.730469 312.234375 75.6875 C 312.214844 75.636719 312.195312 75.589844 312.175781 75.542969 C 312.167969 75.519531 312.15625 75.496094 312.148438 75.472656 C 312.132812 75.421875 312.171875 75.542969 312.15625 75.492188 C 312.152344 75.476562 312.148438 75.460938 312.140625 75.445312 C 312.128906 75.398438 312.117188 75.351562 312.109375 75.304688 C 312.105469 75.285156 312.089844 75.199219 312.105469 75.289062 C 312.097656 75.261719 312.09375 75.234375 312.09375 75.207031 C 312.085938 75.164062 312.085938 75.117188 312.082031 75.070312 C 312.082031 75.050781 312.082031 75.027344 312.082031 75.003906 C 312.082031 74.9375 312.078125 75.039062 312.082031 74.96875 C 312.085938 74.878906 312.101562 74.789062 312.121094 74.699219 C 312.128906 74.65625 312.140625 74.613281 312.15625 74.574219 C 312.15625 74.5625 312.160156 74.550781 312.164062 74.542969 C 312.175781 74.503906 312.152344 74.578125 312.164062 74.542969 C 312.171875 74.519531 312.183594 74.496094 312.191406 74.46875 C 312.226562 74.386719 312.265625 74.300781 312.3125 74.222656 C 312.410156 74.054688 312.527344 73.902344 312.660156 73.765625 C 312.695312 73.726562 312.695312 73.730469 312.746094 73.683594 C 312.785156 73.644531 312.824219 73.609375 312.863281 73.578125 C 312.945312 73.507812 313.027344 73.445312 313.113281 73.386719 C 313.480469 73.128906 313.890625 72.941406 314.316406 72.804688 C 314.761719 72.664062 315.207031 72.589844 315.691406 72.574219 C 315.925781 72.566406 316.164062 72.578125 316.398438 72.605469 C 316.515625 72.621094 316.632812 72.640625 316.746094 72.664062 C 316.773438 72.667969 316.800781 72.675781 316.828125 72.679688 C 316.84375 72.683594 316.855469 72.6875 316.871094 72.691406 C 316.828125 72.679688 316.875 72.691406 316.882812 72.691406 C 316.941406 72.707031 317 72.722656 317.054688 72.742188 C 317.277344 72.808594 317.488281 72.898438 317.691406 73.007812 C 317.714844 73.019531 317.738281 73.035156 317.761719 73.046875 C 317.804688 73.070312 317.722656 73.023438 317.765625 73.046875 C 317.777344 73.054688 317.789062 73.0625 317.800781 73.070312 C 317.851562 73.101562 317.898438 73.132812 317.949219 73.167969 C 317.992188 73.199219 318.039062 73.230469 318.082031 73.265625 C 318.101562 73.285156 318.125 73.300781 318.144531 73.320312 C 318.15625 73.328125 318.164062 73.335938 318.175781 73.34375 C 318.226562 73.390625 318.148438 73.320312 318.179688 73.347656 C 318.265625 73.425781 318.347656 73.511719 318.425781 73.597656 C 318.4375 73.613281 318.472656 73.65625 318.414062 73.585938 C 318.425781 73.597656 318.433594 73.609375 318.441406 73.621094 C 318.460938 73.640625 318.476562 73.664062 318.496094 73.6875 C 318.53125 73.738281 318.570312 73.789062 318.601562 73.839844 C 318.644531 73.902344 318.566406 73.777344 318.617188 73.859375 C 318.632812 73.886719 318.644531 73.910156 318.660156 73.9375 C 318.695312 73.996094 318.722656 74.054688 318.753906 74.113281 C 318.777344 74.164062 318.71875 74.039062 318.746094 74.09375 C 318.75 74.109375 318.757812 74.125 318.765625 74.136719 C 318.777344 74.164062 318.789062 74.195312 318.800781 74.222656 C 318.828125 74.289062 318.851562 74.351562 318.875 74.417969 C 318.878906 74.433594 318.898438 74.492188 318.871094 74.410156 C 318.878906 74.425781 318.882812 74.441406 318.886719 74.457031 C 318.898438 74.488281 318.90625 74.519531 318.914062 74.554688 C 318.933594 74.625 318.953125 74.695312 318.96875 74.769531 C 318.976562 74.804688 318.980469 74.835938 318.988281 74.871094 C 318.992188 74.890625 318.996094 74.90625 319 74.925781 C 319.007812 74.984375 318.988281 74.871094 319 74.933594 C 319.011719 75.011719 319.023438 75.089844 319.03125 75.167969 C 319.066406 75.515625 319.0625 75.828125 319.035156 76.152344 C 318.976562 76.90625 318.8125 77.671875 318.523438 78.375 C 318.191406 79.191406 317.726562 79.957031 317.199219 80.660156 C 316.632812 81.410156 315.976562 82.09375 315.230469 82.664062 C 314.054688 83.558594 312.507812 84.21875 311.035156 83.6875 C 310.90625 83.640625 310.898438 83.785156 310.921875 83.871094 C 310.949219 83.988281 311.039062 84.160156 311.164062 84.203125 Z M 311.164062 84.203125 " fill-opacity="1" fill-rule="nonzero"/></g></g><g clip-path="url(#0a8f03b37e)"><g clip-path="url(#d785becadf)"><path fill="#4569b2" d="M 255.84375 82.753906 C 256.316406 81.800781 256.945312 80.933594 257.726562 80.207031 C 258.476562 79.515625 259.351562 78.964844 260.277344 78.539062 C 262.300781 77.609375 264.550781 77.257812 266.753906 77.078125 C 269.175781 76.882812 271.605469 76.910156 274.035156 76.898438 C 276.320312 76.890625 278.628906 76.871094 280.894531 76.527344 C 283.007812 76.207031 285.074219 75.523438 286.71875 74.125 C 288.546875 72.570312 289.75 70.28125 289.878906 67.886719 C 289.941406 66.683594 289.71875 65.480469 289.21875 64.382812 C 288.683594 63.207031 287.832031 62.191406 286.796875 61.425781 C 285.113281 60.183594 282.945312 59.808594 280.890625 60.035156 C 279.003906 60.246094 276.960938 61.019531 275.917969 62.691406 C 275.390625 63.535156 275.226562 64.539062 275.328125 65.515625 C 275.453125 66.667969 275.882812 67.8125 276.621094 68.714844 C 277.15625 69.367188 277.914062 69.9375 278.769531 70.066406 C 279.433594 70.171875 280.082031 69.894531 280.347656 69.257812 C 280.507812 68.871094 280.523438 68.441406 280.484375 68.03125 C 280.433594 67.40625 280.238281 66.789062 280.007812 66.203125 C 279.972656 66.109375 279.886719 65.929688 279.765625 65.914062 C 279.648438 65.898438 279.714844 66.121094 279.730469 66.167969 C 280.058594 67.003906 280.433594 68.167969 279.90625 69.003906 C 279.539062 69.585938 278.804688 69.628906 278.203125 69.445312 C 277.824219 69.328125 277.476562 69.113281 277.175781 68.863281 C 276.992188 68.714844 276.855469 68.574219 276.703125 68.398438 C 276.625 68.304688 276.570312 68.234375 276.511719 68.152344 C 276.476562 68.101562 276.441406 68.050781 276.410156 68.003906 C 276.394531 67.976562 276.375 67.949219 276.359375 67.925781 C 276.355469 67.914062 276.296875 67.820312 276.320312 67.859375 C 276.046875 67.394531 275.886719 66.90625 275.761719 66.355469 C 275.648438 65.851562 275.613281 65.328125 275.671875 64.8125 C 275.773438 63.894531 276.207031 63.046875 276.859375 62.398438 C 277.542969 61.71875 278.421875 61.261719 279.328125 60.960938 C 281.234375 60.332031 283.464844 60.335938 285.347656 61.058594 C 286.421875 61.472656 287.375 62.183594 288.109375 63.058594 C 288.84375 63.933594 289.292969 64.949219 289.464844 66.082031 C 289.820312 68.429688 288.9375 70.84375 287.414062 72.625 C 285.957031 74.328125 283.910156 75.320312 281.746094 75.789062 C 279.566406 76.261719 277.308594 76.320312 275.089844 76.347656 C 272.65625 76.378906 270.222656 76.332031 267.796875 76.457031 C 265.53125 76.570312 263.234375 76.824219 261.085938 77.574219 C 259.117188 78.261719 257.351562 79.433594 256.167969 81.160156 C 255.925781 81.511719 255.710938 81.886719 255.523438 82.269531 C 255.46875 82.378906 255.558594 82.546875 255.617188 82.632812 C 255.644531 82.671875 255.789062 82.859375 255.84375 82.753906 Z M 255.84375 82.753906 " fill-opacity="1" fill-rule="nonzero"/></g></g></svg>