<?xml version="1.0" encoding="UTF-8"?>
<svg id="Layer_1" data-name="Layer 1" xmlns="http://www.w3.org/2000/svg" xmlns:xlink="http://www.w3.org/1999/xlink" viewBox="0 0 331.67 490.99">
  <defs>
    <style>
      .cls-1 {
        clip-path: url(#clippath-21);
      }

      .cls-2 {
        clip-path: url(#clippath-6);
      }

      .cls-3 {
        clip-path: url(#clippath-7);
      }

      .cls-4 {
        clip-path: url(#clippath-17);
      }

      .cls-5 {
        clip-path: url(#clippath-15);
      }

      .cls-6 {
        fill: #4569b2;
      }

      .cls-7 {
        clip-path: url(#clippath-18);
      }

      .cls-8 {
        clip-path: url(#clippath-4);
      }

      .cls-9 {
        clip-path: url(#clippath-22);
      }

      .cls-10 {
        clip-path: url(#clippath-23);
      }

      .cls-11 {
        clip-path: url(#clippath-9);
      }

      .cls-12 {
        clip-path: url(#clippath-10);
      }

      .cls-13 {
        clip-path: url(#clippath-25);
      }

      .cls-14 {
        fill: #96d6f5;
      }

      .cls-15 {
        clip-path: url(#clippath-11);
      }

      .cls-16, .cls-17 {
        fill: none;
      }

      .cls-18 {
        clip-path: url(#clippath-1);
      }

      .cls-19 {
        clip-path: url(#clippath-5);
      }

      .cls-20 {
        clip-path: url(#clippath-20);
      }

      .cls-21 {
        clip-path: url(#clippath-8);
      }

      .cls-22 {
        clip-path: url(#clippath-3);
      }

      .cls-23 {
        clip-path: url(#clippath-26);
      }

      .cls-17 {
        stroke: #adcd5f;
        stroke-width: 4px;
      }

      .cls-24 {
        clip-path: url(#clippath-12);
      }

      .cls-25 {
        clip-path: url(#clippath-14);
      }

      .cls-26 {
        fill: #42b6e9;
      }

      .cls-27 {
        clip-path: url(#clippath-19);
      }

      .cls-28 {
        fill: #e4fcfc;
      }

      .cls-29 {
        clip-path: url(#clippath-16);
      }

      .cls-30 {
        clip-path: url(#clippath-2);
      }

      .cls-31 {
        clip-path: url(#clippath-13);
      }

      .cls-32 {
        fill: #c3e9fa;
      }

      .cls-33 {
        fill: #73cdda;
      }

      .cls-34 {
        fill: #59b6e7;
      }

      .cls-35 {
        clip-path: url(#clippath-24);
      }

      .cls-36 {
        clip-path: url(#clippath);
      }
    </style>
    <clipPath id="clippath">
      <rect class="cls-16" width="331.67" height="490.99"/>
    </clipPath>
    <clipPath id="clippath-1">
      <rect class="cls-16" x="46.38" y="42.46" width="242.5" height="242.48"/>
    </clipPath>
    <clipPath id="clippath-2">
      <path class="cls-16" d="M167.63,42.46c-66.97,0-121.25,54.27-121.25,121.24s54.29,121.24,121.25,121.24,121.24-54.27,121.24-121.24-54.29-121.24-121.24-121.24Z"/>
    </clipPath>
    <clipPath id="clippath-3">
      <rect class="cls-16" x="46.38" y="42.46" width="242.48" height="242.48"/>
    </clipPath>
    <clipPath id="clippath-4">
      <circle class="cls-16" cx="167.62" cy="163.7" r="121.24"/>
    </clipPath>
    <clipPath id="clippath-5">
      <rect class="cls-16" x="64.19" y="85.59" width="178.32" height="89.16"/>
    </clipPath>
    <clipPath id="clippath-6">
      <path class="cls-16" d="M51.6,163.7c0,20.95,8.33,41.05,23.14,55.88,14.82,14.82,34.92,23.15,55.89,23.15h70.87c20.97,0,41.05-8.33,55.88-23.15,14.82-14.82,23.15-34.92,23.15-55.88s-8.33-41.07-23.15-55.88c-14.82-14.82-34.91-23.15-55.88-23.15h-70.87c-20.97,0-41.07,8.33-55.89,23.15-14.81,14.81-23.14,34.91-23.14,55.88Z"/>
    </clipPath>
    <clipPath id="clippath-7">
      <rect class="cls-16" x="51.6" y="171.18" width="208.74" height="71.3"/>
    </clipPath>
    <clipPath id="clippath-8">
      <path class="cls-16" d="M51.6,163.7c0,20.95,8.33,41.05,23.14,55.88,14.82,14.82,34.92,23.15,55.89,23.15h70.87c20.97,0,41.05-8.33,55.88-23.15,14.82-14.82,23.15-34.92,23.15-55.88s-8.33-41.07-23.15-55.88c-14.82-14.82-34.91-23.15-55.88-23.15h-70.87c-20.97,0-41.07,8.33-55.89,23.15-14.81,14.81-23.14,34.91-23.14,55.88Z"/>
    </clipPath>
    <clipPath id="clippath-9">
      <rect class="cls-16" x="67.76" y="131.95" width="149.78" height="53.49"/>
    </clipPath>
    <clipPath id="clippath-10">
      <path class="cls-16" d="M51.6,163.7c0,20.95,8.33,41.05,23.14,55.88,14.82,14.82,34.92,23.15,55.89,23.15h70.87c20.97,0,41.05-8.33,55.88-23.15,14.82-14.82,23.15-34.92,23.15-55.88s-8.33-41.07-23.15-55.88c-14.82-14.82-34.91-23.15-55.88-23.15h-70.87c-20.97,0-41.07,8.33-55.89,23.15-14.81,14.81-23.14,34.91-23.14,55.88Z"/>
    </clipPath>
    <clipPath id="clippath-11">
      <rect class="cls-16" x="71.33" y="139.09" width="124.82" height="49.93"/>
    </clipPath>
    <clipPath id="clippath-12">
      <path class="cls-16" d="M51.6,163.7c0,20.95,8.33,41.05,23.14,55.88,14.82,14.82,34.92,23.15,55.89,23.15h70.87c20.97,0,41.05-8.33,55.88-23.15,14.82-14.82,23.15-34.92,23.15-55.88s-8.33-41.07-23.15-55.88c-14.82-14.82-34.91-23.15-55.88-23.15h-70.87c-20.97,0-41.07,8.33-55.89,23.15-14.81,14.81-23.14,34.91-23.14,55.88Z"/>
    </clipPath>
    <clipPath id="clippath-13">
      <rect class="cls-16" x="51.6" y="181.88" width="180.21" height="46.36"/>
    </clipPath>
    <clipPath id="clippath-14">
      <path class="cls-16" d="M51.6,163.7c0,20.95,8.33,41.05,23.14,55.88,14.82,14.82,34.92,23.15,55.89,23.15h70.87c20.97,0,41.05-8.33,55.88-23.15,14.82-14.82,23.15-34.92,23.15-55.88s-8.33-41.07-23.15-55.88c-14.82-14.82-34.91-23.15-55.88-23.15h-70.87c-20.97,0-41.07,8.33-55.89,23.15-14.81,14.81-23.14,34.91-23.14,55.88Z"/>
    </clipPath>
    <clipPath id="clippath-15">
      <rect class="cls-16" x="74.89" y="92.72" width="110.56" height="71.33"/>
    </clipPath>
    <clipPath id="clippath-16">
      <path class="cls-16" d="M51.6,163.7c0,20.95,8.33,41.05,23.14,55.88,14.82,14.82,34.92,23.15,55.89,23.15h70.87c20.97,0,41.05-8.33,55.88-23.15,14.82-14.82,23.15-34.92,23.15-55.88s-8.33-41.07-23.15-55.88c-14.82-14.82-34.91-23.15-55.88-23.15h-70.87c-20.97,0-41.07,8.33-55.89,23.15-14.81,14.81-23.14,34.91-23.14,55.88Z"/>
    </clipPath>
    <clipPath id="clippath-17">
      <rect class="cls-16" x="67.76" y="189.01" width="121.25" height="46.36"/>
    </clipPath>
    <clipPath id="clippath-18">
      <path class="cls-16" d="M51.6,163.7c0,20.95,8.33,41.05,23.14,55.88,14.82,14.82,34.92,23.15,55.89,23.15h70.87c20.97,0,41.05-8.33,55.88-23.15,14.82-14.82,23.15-34.92,23.15-55.88s-8.33-41.07-23.15-55.88c-14.82-14.82-34.91-23.15-55.88-23.15h-70.87c-20.97,0-41.07,8.33-55.89,23.15-14.81,14.81-23.14,34.91-23.14,55.88Z"/>
    </clipPath>
    <clipPath id="clippath-19">
      <rect class="cls-16" x="199.71" y="99.86" width="49.93" height="71.33"/>
    </clipPath>
    <clipPath id="clippath-20">
      <path class="cls-16" d="M51.6,163.7c0,20.95,8.33,41.05,23.14,55.88,14.82,14.82,34.92,23.15,55.89,23.15h70.87c20.97,0,41.05-8.33,55.88-23.15,14.82-14.82,23.15-34.92,23.15-55.88s-8.33-41.07-23.15-55.88c-14.82-14.82-34.91-23.15-55.88-23.15h-70.87c-20.97,0-41.07,8.33-55.89,23.15-14.81,14.81-23.14,34.91-23.14,55.88Z"/>
    </clipPath>
    <clipPath id="clippath-21">
      <rect class="cls-16" x="189.01" y="167.62" width="92.61" height="64.19"/>
    </clipPath>
    <clipPath id="clippath-22">
      <path class="cls-16" d="M51.6,163.7c0,20.95,8.33,41.05,23.14,55.88,14.82,14.82,34.92,23.15,55.89,23.15h70.87c20.97,0,41.05-8.33,55.88-23.15,14.82-14.82,23.15-34.92,23.15-55.88s-8.33-41.07-23.15-55.88c-14.82-14.82-34.91-23.15-55.88-23.15h-70.87c-20.97,0-41.07,8.33-55.89,23.15-14.81,14.81-23.14,34.91-23.14,55.88Z"/>
    </clipPath>
    <clipPath id="clippath-23">
      <rect class="cls-16" x="246.08" y="128.39" width="35.55" height="46.36"/>
    </clipPath>
    <clipPath id="clippath-24">
      <path class="cls-16" d="M51.6,163.7c0,20.95,8.33,41.05,23.14,55.88,14.82,14.82,34.92,23.15,55.89,23.15h70.87c20.97,0,41.05-8.33,55.88-23.15,14.82-14.82,23.15-34.92,23.15-55.88s-8.33-41.07-23.15-55.88c-14.82-14.82-34.91-23.15-55.88-23.15h-70.87c-20.97,0-41.07,8.33-55.89,23.15-14.81,14.81-23.14,34.91-23.14,55.88Z"/>
    </clipPath>
    <clipPath id="clippath-25">
      <rect class="cls-16" x="51.6" y="84.67" width="123.15" height="82.94"/>
    </clipPath>
    <clipPath id="clippath-26">
      <path class="cls-16" d="M51.6,163.7c0,20.95,8.33,41.05,23.14,55.88,14.82,14.82,34.92,23.15,55.89,23.15h70.87c20.97,0,41.05-8.33,55.88-23.15,14.82-14.82,23.15-34.92,23.15-55.88s-8.33-41.07-23.15-55.88c-14.82-14.82-34.91-23.15-55.88-23.15h-70.87c-20.97,0-41.07,8.33-55.89,23.15-14.81,14.81-23.14,34.91-23.14,55.88Z"/>
    </clipPath>
  </defs>
  <g class="cls-36">
    <path class="cls-28" d="M166.06,235.14c-43.72,0-79.16-35.44-79.16-79.16s35.44-79.16,79.16-79.16,79.16,35.43,79.16,79.16-35.44,79.16-79.16,79.16ZM307.66,81.98C261.93,3.8,161.47-22.51,83.28,23.22,5.08,68.96-21.22,169.41,24.52,247.61l141.58,242.05,141.57-242.05c28.77-49.44,30.94-112.73,0-165.62"/>
  </g>
  <g class="cls-18">
    <g class="cls-30">
      <path class="cls-28" d="M46.38,42.46h242.5v242.48H46.38V42.46Z"/>
    </g>
  </g>
  <g class="cls-22">
    <g class="cls-8">
      <path class="cls-17" d="M167.62,42.46c-66.95,0-121.24,54.27-121.24,121.24s54.29,121.24,121.24,121.24,121.24-54.29,121.24-121.24-54.27-121.24-121.24-121.24Z"/>
    </g>
  </g>
  <g class="cls-19">
    <g class="cls-2">
      <path class="cls-32" d="M84.55,154.35c18.4,3.18,42.73,2.67,60.52-1.89,8.96-2.31,20.52-7.79,22.57-17.94,2.16-10.73-8.07-21.11-18.71-19.82-1.63.2-2.8.17-4.26.63,11.56,3.9,8.37,16.69-.85,21.76-11.01,6.05-26.89,2.34-32.7-8.96-6.63-12.86,3.68-26.8,14-34.56,11.81-8.87,32.96-8.26,45.07-.15,11.23,7.51,17.66,24.6,8.62,36.08,9.21-6.97,13.16-16.38,25.01-19.75,12.86-3.68,27.32-.06,33.81,12.01,9.68,18.03-3.11,41.19-22.39,45.37-11.23,2.44-23.57,2.54-35.44,1.95-16.55-.82-33.38-1.88-50.04-3.19-11.99-.95-24.7-3.11-36.86-1.96-9.42.89-15.98,8.76-25.49,7.1,5.34-2.51,6.67-7.76,10.55-11.72,5.34-5.46,8.69-4.4,14.98-2.38"/>
    </g>
  </g>
  <g class="cls-3">
    <g class="cls-21">
      <path class="cls-14" d="M75.53,185.31c22.96-18.96,47.73-6.35,74.01-6.53,19.21-.14,38.16-3.66,57.33-4.35,14.54-.5,36.53,1.35,44.89,15.37,11.98,20.07,6.48,43.67-17.86,49.75-9.43,2.35-22.86,2.94-31.68-1.6-10.1-5.18-18.15-17.51-5.66-25.94,5.84-3.93,13.36-4.23,14.89,3.27,5.93.07,6.07-6.73,3.59-10.64-2.51-3.96-9.1-6.63-13.35-7.16-12.82-1.63-19.42,7.33-20.56,18.58-1.16,11.52-3.84,17.62-15.48,21.72-10.8,3.79-28.81,3.94-34.63-8.32-1.69-3.54-2.67-11.76-.64-15.21,1.89-3.26,11.55-7.77,15.32-5.78,1.96,1.04,1.56,5.34,2.69,5.5,3.32.5,3.22-3.11,2.95-5.49-.39-3.52-4.32-7.87-7.1-10.21-6.37-5.34-19.99-10.25-28.15-9.75-10.17.61-17.69,7.75-27.01,9.63-6.23,1.25-12.47.4-18.03-1.31-5.45-1.69-12.2-4.64-17.82-1.23,9.39-6.07,22.78-12.77,33.88-9.01"/>
    </g>
  </g>
  <g class="cls-11">
    <g class="cls-12">
      <path class="cls-34" d="M78.11,178.02c1.57-.32,5.78-5.93,8.36-7.82,6.24-4.56,14.33-7.29,21.76-9.33,13.76-3.8,28.68-1.85,42.63-.61,9.36.82,16.63-.15,25.1-3.51,4.3-1.7,16.72-6.73,11.73-12.55-3.16,8.93-18.33-5.54-1.43-10.82,9.01-2.81,20.78,1.42,25.62,9.63,11.49,19.53-9.33,32.7-25.62,36.81-19.94,5.03-41.96,1-61.14-4.96-9.58-2.98-19.49-4.58-29.63-1.96-7.55,1.96-17.04,10.34-24.69,5.27-.1-.14.45.24.88-.13"/>
    </g>
  </g>
  <g class="cls-15">
    <g class="cls-24">
      <path class="cls-32" d="M76.61,185.8c-.14-1.64.65-3.16,1.67-4.42,1.35-1.66,3.09-3.04,4.85-4.23,3.79-2.59,7.95-4.63,12.12-6.52,2.41-1.09,4.82-2.08,7.38-2.76,3.08-.81,6.28-1.17,9.47-1.14,6.49.07,12.86,1.59,19.24,2.62,3.16.53,6.35.89,9.54,1.27,3.33.4,6.66.78,10,1.04,3.41.28,6.84.45,10.27.45,2.91.01,5.96,0,8.83-.57,3.68-.74,7.23-2.45,10.45-4.29,3.82-2.17,7.49-4.83,10.31-8.21,2.41-2.87,4.21-6.49,3.33-10.31-.93-4.12-4.56-6.8-8.62-7.41-3.52-.53-7.63.47-10.27,2.93-1.04.98-1.84,2.31-1.85,3.76-.01,1.74,1.06,3.2,2.31,4.32.88.78,1.91,1.41,2.94,1.95.43.22,1.11.22,1.49-.11.39-.36.08-.79-.29-.99-1.63-.86-3.43-2.06-4.08-3.79-.49-1.27-.17-2.48.64-3.57.81-1.11,2.28-2.01,3.54-2.48.4-.15.81-.26,1.21-.38.49-.14.79-.2,1.23-.25.98-.14,1.66-.14,2.56-.06.79.08,1.64.29,2.37.59.86.36,1.59.82,2.28,1.45,1.41,1.23,2.27,3.02,2.56,4.85.6,3.66-1.71,7.19-4.11,9.74-3,3.19-6.7,5.68-10.56,7.72-1.73.91-3.52,1.71-5.31,2.35-.77.26-1.55.52-2.34.71-.33.08-.65.15-.99.21.25-.04,0,0-.06.01-.14.03-.29.04-.45.06-.43.04-.88.08-1.31.13-6.66.59-13.39.11-20.02-.57-6.53-.65-13.05-1.48-19.52-2.62-6.31-1.13-12.65-2.3-19.09-1.82-3.4.25-6.76.99-9.96,2.15-2.06.74-4.07,1.67-6.06,2.61-4.11,1.89-8.18,4-11.84,6.67-1.66,1.23-3.22,2.59-4.47,4.23-.96,1.28-1.69,2.87-1.55,4.5.07.96,2.2,1.1,2.13.2Z"/>
    </g>
  </g>
  <g class="cls-31">
    <g class="cls-25">
      <path class="cls-6" d="M204.56,216.86c.21,3.36,1.31,6.55,3.9,8.83,2.16,1.89,5.18,2.61,8.01,2.34,6.97-.64,12.98-6.9,14.56-13.46,1.76-7.31-1.76-14.78-6.49-20.23-5.36-6.17-12.9-10.39-21.09-11.38-9.29-1.1-18.31,2.15-27.04,4.85-4.56,1.41-9.17,2.7-13.9,3.29-5.07.64-10.28.33-15.32-.35-10.07-1.34-19.82-4.36-29.81-6.13-10.63-1.88-21.4-1.57-32.11-.71-10.39.82-20.76,2.09-31.19,2.1-1.35,0-.7,1.92.46,1.92,11.1-.01,22.12-1.45,33.17-2.27,5.52-.42,11.06-.65,16.59-.5,5.18.14,10.31.79,15.39,1.78,9.97,1.92,19.73,4.89,29.85,5.98,5.02.54,10.13.63,15.13-.14,4.69-.72,9.25-2.08,13.76-3.48,8.79-2.74,17.87-5.85,27.19-4.11,7.87,1.46,14.81,6.28,19.43,12.72,4.22,5.88,6.13,13.74,2.23,20.26-3.04,5.1-9.79,10-15.95,7.26-3.2-1.42-4.54-4.9-4.75-8.19-.07-1.11-2.1-1.66-2.02-.38Z"/>
    </g>
  </g>
  <g class="cls-5">
    <g class="cls-29">
      <path class="cls-32" d="M78.24,162.68c3.05-2.93,6.55-5.36,10.41-7.12,3.66-1.66,7.52-2.66,11.49-3.26,8.29-1.23,16.68-.63,25.02-.07,8.5.56,17.08,1.17,25.56.11,4.12-.52,8.22-1.46,12.09-3,3.83-1.52,7.47-3.66,10.71-6.2,5.04-3.93,8.92-9.33,10.03-15.69.98-5.64-.22-11.44-2.83-16.49-2.72-5.27-6.84-9.75-11.81-13.01-4.95-3.26-10.78-5.13-16.73-5-3,.07-5.98.71-8.75,1.82-1.5.61-2.95,1.38-4.33,2.26-1.49.95-2.83,2.08-4.18,3.22-2.16,1.84-5.53,5.04-3.79,8.16.61,1.1,1.78,1.84,2.91,2.34,1.52.65,3.13,1.02,4.78,1.28,3.01.46,6.1.49,9.14.28.47-.04.86-.49.68-.96-.2-.52-.79-.74-1.32-.7-1.76.13-3.18.14-4.97.06-.88-.04-1.74-.11-2.61-.21-.4-.04-.81-.1-1.21-.17-.2-.03-.39-.07-.59-.1-.32-.06.21.04-.1-.03-.13-.01-.25-.04-.38-.07-.74-.17-1.45-.36-2.16-.63-.07-.03-.15-.06-.22-.08-.26-.11.21.1-.04-.01-.14-.07-.28-.14-.43-.21-.13-.06-.26-.13-.39-.21-.07-.03-.13-.07-.2-.11-.04-.03-.32-.21-.07-.04-.22-.15-.43-.32-.61-.5-.04-.04-.2-.21-.01,0-.04-.06-.07-.1-.11-.15-.1-.1-.17-.22-.25-.33-.11-.18.1.18,0-.01-.03-.04-.04-.1-.07-.15-.04-.11-.08-.22-.11-.33-.06-.2.03.18,0-.01-.01-.06-.03-.13-.03-.18-.01-.14-.03-.29-.01-.43,0-.07,0-.13.01-.2-.03.21,0-.01.01-.04.03-.14.06-.28.1-.42s.1-.29.15-.43c.03-.07.07-.14.1-.22.07-.17.04-.07.1-.18.42-.77.98-1.45,1.57-2.09.75-.81,1.6-1.52,2.42-2.24.65-.56,1.32-1.1,2.02-1.6,2.54-1.85,5.22-3.18,8.32-3.98.08-.03.17-.04.25-.07.28-.07-.18.04.1-.03.17-.04.35-.07.52-.11.38-.08.75-.14,1.13-.21.71-.11,1.42-.2,2.15-.24.35-.03.68-.04,1.03-.06.29-.01-.21,0,.07,0h.86c.71.01,1.42.07,2.13.14.33.04.67.08,1.02.14l.5.08.25.04c.06.01.43.08.14.03.7.13,1.39.29,2.08.49s1.37.42,2.03.65c.32.11.64.24.96.36.04.03.31.14.06.03.07.03.15.07.24.1l.54.25c1.31.59,2.58,1.27,3.79,2.03.31.18.59.38.88.57.03.01.26.18.07.04.07.04.14.1.21.15.17.11.33.22.49.35.59.42,1.16.88,1.71,1.34s1.1.95,1.63,1.43c.25.24.49.49.74.74.13.11.25.24.36.36.06.07.13.13.18.2.03.03.26.29.13.13.98,1.06,1.89,2.19,2.73,3.36,1.66,2.35,2.87,4.65,3.84,7.41.93,2.63,1.41,5.18,1.43,8.04,0,1.45-.11,2.67-.35,4.01-.25,1.41-.65,2.79-1.17,4.11-1.1,2.8-2.86,5.39-5,7.66-2.55,2.72-5.77,4.93-9.04,6.8-3.54,1.99-7.44,3.37-11.4,4.23-8.23,1.78-16.66,1.49-25.02.98-8.5-.5-17.04-1.32-25.56-.72-8.26.57-16.4,2.76-23.19,7.59-1.55,1.09-3,2.31-4.36,3.64-.91.86.79,2.02,1.53,1.31Z"/>
    </g>
  </g>
  <g class="cls-4">
    <g class="cls-7">
      <path class="cls-33" d="M69.82,206.32c7.26-5.95,16.06-9.96,25.23-12.04,9.15-2.08,18.82-2.24,27.97-.01,8.72,2.12,16.77,6.69,22.51,13.57,1.32,1.59,2.42,3.29,3.58,5.02,1.24,1.87,2.51,3.71,3.84,5.52,2.74,3.76,5.8,7.41,9.51,10.25,3.3,2.54,7.43,4.33,11.67,3.62,2.33-.39,4.43-1.5,6.3-2.93,1.66-1.27,3.11-2.73,4.19-4.51,1.95-3.2,2.56-7.15,1.71-10.78-.84-3.61-3.37-6.67-6.85-8.05-2.02-.79-4.25-.98-6.41-.78-1.69.15-3.27,1.09-4.65,1.99-1.37.92-2.63,2.02-3.72,3.25-.7.78-1.73,1.89-1.45,3.04s1.52,1.18,2.41.88c1.41-.47,2.7-1.43,3.93-2.26.45-.32.22-1.06-.07-1.38-.38-.42-.92-.52-1.38-.21-.89.61-1.81,1.21-2.79,1.7-.28.14-.56.25-.85.35-.2.07.2-.04.01,0-.04.01-.1.01-.14.03-.22.03.08.03.18.06.2.06.43.35.56.64.06.15.03.1,0,.28.01-.07.04-.14.07-.21-.11.31.03-.04.07-.13.32-.6.57-.86.93-1.27,1.1-1.24,2.38-2.33,3.76-3.23,1.34-.91,2.8-1.52,4.42-1.62,1.98-.11,3.87.22,5.61,1.09,1.34.67,2.54,1.84,3.32,3.11.84,1.38,1.3,2.93,1.43,4.54.15,1.77-.08,3.44-.64,5.15-1.23,3.78-4.46,6.94-8.11,8.55-3.8,1.67-7.75.74-11.06-1.37-3.82-2.42-6.85-5.95-9.6-9.53-2.61-3.4-4.81-7.15-7.38-10.59-5.53-7.34-13.61-12.41-22.39-15.03-9.1-2.7-18.83-2.95-28.15-1.31-9.42,1.67-18.51,5.32-26.27,10.91-.95.67-1.87,1.38-2.76,2.12-.91.74.54,2.33,1.43,1.57Z"/>
    </g>
  </g>
  <g class="cls-27">
    <g class="cls-20">
      <path class="cls-32" d="M207.35,170.22c6.27-1.21,12.55-2.7,18.49-5.08,5.25-2.09,10.28-4.95,14.18-9.08,3.91-4.15,6.19-9.47,6.91-15.09.43-3.47.31-6.98-.14-10.45-.42-3.33-1.13-6.6-2.27-9.77-2.23-6.1-6.03-11.92-11.56-15.55-5.88-3.84-13.69-4.58-20.23-1.95-5.42,2.19-9.93,7.31-9.43,13.4.25,3.09,1.78,5.88,3.96,8.07.65.67,1.38,1.24,2.09,1.82.84.68,1.71,1.32,2.63,1.89,1.52.95,3.19,1.7,4.95,2.09,2.79.6,5.75.17,7.84-1.89,1.95-1.94,2.56-4.9,2.49-7.55-.06-2.2-.57-4.37-1.32-6.42-.7.01-1.39.04-2.09.06.33.61.81,1.04,1.38,1.43.47.32.92.6,1.2,1.11.22.42.85.53,1.27.52.24,0,1.04-.14.82-.57-.33-.61-.81-1.04-1.38-1.42-.47-.33-.92-.61-1.2-1.13-.22-.42-.85-.53-1.27-.52-.29.01-.99.13-.82.57,1.14,3.08,1.73,6.51.91,9.75-.31,1.21-.86,2.35-1.67,3.3-.38.43-.74.75-1.24,1.09-.5.32-.84.47-1.48.67-.03,0-.26.07-.06.01l-.21.04c-.15.03-.29.06-.43.08-.08,0-.15.01-.22.03.25-.04,0,0-.04,0-.18.01-.36.01-.54.01h-.25c.31,0,.03,0-.03-.01-.17,0-.33-.03-.5-.04l-.25-.04c-.28-.04.24.04-.06,0-.21-.04-.4-.1-.61-.14-.17-.04-.35-.1-.53-.15-.29-.1.18.07-.11-.04-.1-.03-.18-.06-.28-.1-.4-.15-.82-.32-1.21-.52-.79-.38-1.62-.88-2.37-1.41-2.81-1.92-5.39-4.33-6.6-7.56-.95-2.55-.88-5.42.15-7.93,1.09-2.67,3.12-4.86,5.57-6.38,1.35-.85,2.83-1.46,4.37-1.89,1.6-.45,3.36-.67,5.03-.7,1.59-.03,3.09.15,4.64.53.38.1.74.21,1.11.32-.2-.06.1.04.11.04.1.03.18.06.28.1.21.07.42.15.63.24.72.28,1.43.61,2.03.95,5.68,3.09,9.58,8.75,11.98,14.64,1.23,3.02,2.01,6.17,2.51,9.39.54,3.54.75,7.13.43,10.7-.28,2.93-.93,5.84-2.1,8.54-1.06,2.48-2.54,4.76-4.33,6.78-3.66,4.14-8.61,6.98-13.65,9.04-5.89,2.42-11.91,3.86-18.15,5.07-.1.03-.2.04-.29.06-.32.07-.81.32-.46.68.33.35.99.43,1.43.35Z"/>
    </g>
  </g>
  <g class="cls-1">
    <g class="cls-9">
      <path class="cls-26" d="M191.47,175.91c6.6-2.28,13.43-4.03,20.3-5.14,7.22-1.17,14.32-1.64,21.61-1.17,1.6.11,3.39.29,5.17.53,1.77.25,3.51.56,5.07.91,3.47.77,6.62,1.74,9.84,3.12,6.38,2.72,12.16,6.85,16.7,12.18,2.42,2.83,4.6,6,6.13,9.4,1.43,3.19,2.2,6.65,2.19,10.13-.03,6.51-2.94,12.76-8.05,16.86-2.65,2.1-5.82,3.5-9.11,4.21-1.78.38-3.68.59-5.47.49-1.89-.1-3.71-.42-5.57-1.02-.29-.1-.71-.24-1.09-.4-.43-.17-.85-.35-1.27-.56-.63-.31-1.39-.77-2.03-1.23-1.21-.84-2.3-1.92-3.11-3.13-1.67-2.48-2.15-5.47-1.46-8.36.39-1.67,1.16-3.22,2.1-4.64,1.07-1.6,2.44-3.2,3.98-4.39,2.2-1.67,4.74-2.77,7.4-3.41.15-.04.32-.07.47-.1.07-.03.15-.04.24-.06-.2.04.06-.01.08-.01.32-.06.65-.11.99-.15.29-.03.59-.06.88-.07.25-.01-.22,0,.03,0,.07,0,.14-.01.21-.01.17,0,.32,0,.49.01.13,0,.26,0,.39.01.25.01-.25-.03-.01,0,.06,0,.13.01.18.01.13.01.25.03.38.06.06.01.13.01.18.03-.35-.07-.07-.01.01.01l.33.08c.07.01.26.08-.03-.01.04.01.1.04.15.06l.29.13c.18.08-.18-.1-.01,0,.06.03.11.06.18.1l.25.17c-.2-.13.06.06.1.1.08.07.14.14.21.21.03.04.06.07.08.11.07.08-.04-.07.06.07.21.33.36.79.4,1.1.14,1.17-.32,2.38-.82,3.41-.52,1.04-1.17,2.01-1.85,2.94-.42.57,1.62,1.07,2.02.54,1-1.38,1.95-2.86,2.49-4.49.32-.98.45-2.06.07-3.04-.85-2.12-3.72-2.58-5.7-2.61-2.8-.03-5.59.75-8.12,1.87-1.27.56-2.48,1.25-3.59,2.06-1.57,1.16-2.95,2.67-4.1,4.26-1.92,2.63-3.16,5.88-2.8,9.18.33,3,1.98,5.66,4.29,7.59,2.88,2.42,6.58,3.72,10.27,4.28,3.94.6,8.04.22,11.83-1.03,6.38-2.1,11.51-6.91,13.88-13.18,2.45-6.49,1.57-13.79-1.66-19.85-3.43-6.45-8.58-12.02-14.64-16.12-5.85-3.96-12.59-6.51-19.5-7.94-7.24-1.49-14.67-1.82-22.02-1.38-7.26.43-14.46,1.67-21.5,3.47-3.3.84-6.58,1.82-9.79,2.94-.38.14-.46.43-.08.67.39.25,1.04.36,1.49.21Z"/>
    </g>
  </g>
  <g class="cls-10">
    <g class="cls-35">
      <path class="cls-26" d="M250.23,171.91c6.05,2.2,12.26-.79,16.84-4.68,2.59-2.17,4.85-4.72,6.78-7.48,1.76-2.51,3.27-5.24,4.3-8.12.91-2.56,1.42-5.34,1.53-8.05.1-2.34-.17-4.69-1-6.9-1.32-3.52-4.15-6.28-7.76-7.45-3.29-1.04-6.87-.91-10.16.07-2.88.85-5.82,2.47-7.48,5.03-.78,1.2-1.17,2.58-1.13,4,.04,1.87.89,3.73,1.95,5.25,1.35,1.89,3.5,3.45,5.82,3.91.71.14,1.62.15,2.22-.33.77-.61.7-1.71.5-2.58-.35-1.5-1.21-2.88-2.08-4.12-.14-.2-.67-.77-.89-.38-.24.4.11,1,.33,1.32.13.2.26.39.39.59-.11-.17.08.13.08.13.06.1.1.18.15.26.1.17.2.35.28.52.06.08.08.17.13.24.06.13.06.11,0-.01.01.04.04.1.06.15.07.14.13.28.18.43.01.04.1.28.01.01.01.07.03.13.06.2.03.13.06.24.07.36-.04-.26.01.13.01.21,0,.04,0,.22,0,0v.14c-.01.08-.03.17-.06.25-.04.14.06-.13,0,0-.01.04-.03.08-.04.11-.04.08-.1.15-.15.22-.1.14.03,0-.07.08-.07.06-.13.1-.2.13-.14.1-.31.15-.47.2.13-.04-.11.01-.15.01-.1.01-.2.01-.28.01-.22.01-.43-.01-.64-.04-.45-.07-.79-.17-1.28-.36-.24-.1-.47-.21-.7-.32-.13-.07-.24-.13-.35-.2-.2-.11.13.08-.07-.03-.07-.06-.15-.1-.22-.15-.24-.14-.46-.31-.67-.47-.11-.08-.22-.17-.33-.26-.03-.01-.2-.17-.04-.03-.07-.06-.13-.13-.2-.2-.21-.18-.4-.39-.59-.6.2.21-.1-.13-.14-.18-.1-.14-.2-.26-.28-.4.2.29-.06-.1-.1-.18-.07-.11-.13-.22-.18-.33-.06-.08-.1-.17-.14-.25-.03-.04-.04-.08-.07-.14-.13-.24.1.21.01.06-.07-.18-.14-.35-.21-.52-.03-.08-.07-.17-.1-.25-.06-.18.08.25.03.07-.01-.06-.03-.11-.06-.17-.04-.17-.08-.33-.11-.5-.01-.07-.07-.38-.01-.06-.03-.1-.04-.2-.04-.29-.03-.15-.03-.32-.04-.49v-.24c0-.24-.01.13,0-.13.01-.32.07-.64.14-.96.03-.15.07-.31.13-.45,0-.04.01-.08.03-.11.04-.14-.04.13,0,0,.03-.08.07-.17.1-.26.13-.29.26-.6.43-.88.35-.6.77-1.14,1.24-1.63.13-.14.13-.13.31-.29.14-.14.28-.26.42-.38.29-.25.59-.47.89-.68,1.31-.92,2.77-1.59,4.29-2.08,1.59-.5,3.18-.77,4.9-.82.84-.03,1.69.01,2.52.11.42.06.84.13,1.24.21.1.01.2.04.29.06.06.01.1.03.15.04-.15-.04.01,0,.04,0,.21.06.42.11.61.18.79.24,1.55.56,2.27.95.08.04.17.1.25.14.15.08-.14-.08.01,0l.13.08c.18.11.35.22.53.35.15.11.32.22.47.35.07.07.15.13.22.2.04.03.07.06.11.08.18.17-.1-.08.01.01.31.28.6.59.88.89.04.06.17.21-.04-.04.04.04.07.08.1.13.07.07.13.15.2.24.13.18.26.36.38.54.15.22-.13-.22.06.07.06.1.1.18.15.28.13.21.22.42.33.63.08.18-.13-.26-.03-.07.01.06.04.11.07.15.04.1.08.21.13.31.1.24.18.46.26.7.01.06.08.26-.01-.03.03.06.04.11.06.17.04.11.07.22.1.35.07.25.14.5.2.77.03.13.04.24.07.36.01.07.03.13.04.2.03.21-.04-.2,0,.03.04.28.08.56.11.84.13,1.24.11,2.35.01,3.51-.21,2.69-.79,5.42-1.82,7.93-1.18,2.91-2.84,5.64-4.72,8.15-2.02,2.67-4.36,5.11-7.02,7.15-4.19,3.19-9.71,5.54-14.96,3.65-.46-.17-.49.35-.4.65.1.42.42,1.03.86,1.18Z"/>
    </g>
  </g>
  <g class="cls-13">
    <g class="cls-23">
      <path class="cls-6" d="M52.94,166.74c1.69-3.4,3.93-6.49,6.71-9.08,2.67-2.47,5.8-4.43,9.1-5.95,7.22-3.32,15.24-4.57,23.1-5.21,8.64-.7,17.3-.6,25.97-.64,8.15-.03,16.38-.1,24.46-1.32,7.54-1.14,14.91-3.58,20.77-8.57,6.52-5.54,10.81-13.71,11.27-22.25.22-4.29-.57-8.58-2.35-12.5-1.91-4.19-4.95-7.82-8.64-10.55-6-4.43-13.74-5.77-21.06-4.96-6.73.75-14.01,3.51-17.73,9.47-1.88,3.01-2.47,6.59-2.1,10.07.45,4.11,1.98,8.19,4.61,11.41,1.91,2.33,4.61,4.36,7.66,4.82,2.37.38,4.68-.61,5.63-2.88.57-1.38.63-2.91.49-4.37-.18-2.23-.88-4.43-1.7-6.52-.13-.33-.43-.98-.86-1.03-.42-.06-.18.74-.13.91,1.17,2.98,2.51,7.13.63,10.11-1.31,2.08-3.93,2.23-6.07,1.57-1.35-.42-2.59-1.18-3.66-2.08-.65-.53-1.14-1.03-1.69-1.66-.28-.33-.47-.59-.68-.88-.13-.18-.25-.36-.36-.53-.06-.1-.13-.2-.18-.28-.01-.04-.22-.38-.14-.24-.98-1.66-1.55-3.4-1.99-5.36-.4-1.8-.53-3.66-.32-5.5.36-3.27,1.91-6.3,4.23-8.61,2.44-2.42,5.57-4.05,8.8-5.13,6.8-2.24,14.75-2.23,21.47.35,3.83,1.48,7.23,4.01,9.85,7.13s4.22,6.74,4.83,10.78c1.27,8.37-1.88,16.98-7.31,23.33-5.2,6.07-12.5,9.61-20.21,11.28-7.77,1.69-15.83,1.89-23.74,1.99-8.68.11-17.36-.06-26.01.39-8.08.4-16.27,1.31-23.93,3.98-7.02,2.45-13.32,6.63-17.54,12.79-.86,1.25-1.63,2.59-2.3,3.96-.2.39.13.99.33,1.3.1.14.61.81.81.43Z"/>
    </g>
  </g>
</svg>